<svg xmlns="http://www.w3.org/2000/svg">
<defs>
<font id="Gentona-ExtraBoldDEMO" horiz-adv-x="1291" >
  <font-face 
    font-family="Gentona ExtraBold DEMO"
    font-weight="800"
    font-stretch="normal"
    units-per-em="1000"
    panose-1="0 0 9 0 0 0 0 0 0 0"
    ascent="800"
    descent="-200"
    x-height="486"
    cap-height="610"
    bbox="-17 -206 1221 721"
    underline-thickness="50"
    underline-position="-50"
    unicode-range="U+0020-U+203A"
  />
<missing-glyph 
d="M1221 525h-1151v-451h1151v451zM108 487h1075v-375h-1075v375zM826 391l7 16q-20 10 -39 10q-13 0 -20.5 -7t-7.5 -18q0 -20 24 -27q19 -4 19 -10t-8 -6q-11 0 -30 10l-8 -17q17 -12 40 -12q31 0 31 26q0 19 -23 26q-22 7 -22 11q0 6 8 6t29 -8zM964 373q0 44 -43 44
t-43 -44q0 -43 43 -43t43 43zM208 378v17h38v21h-61v-85h23v27h33v20h-33zM334 416h-23v-44q0 -22 -17 -22q-15 0 -15 22v44h-23v-44q0 -42 38 -42q40 0 40 42v44zM407 331v21h-38v64h-22v-85h60zM478 331v21h-38v64h-22v-85h60zM569 331l32 85h-24l-18 -54l-3 -8q-2 6 -2 8
l-18 54h-25l33 -85h25zM672 331v21h-41v11h33v19h-33v13h39v21h-62v-85h64zM683 416v-85h22v26h11q8 0 17 -26h26q-9 28 -19 34q15 3 15 22q0 29 -37 29h-35zM868 331v85h-23v-85h23zM1053 331v85h-23v-49l-36 49h-20v-85h22v48l36 -48h21zM705 375v22h14q15 0 15 -11
t-14 -11h-15zM941 373q0 -23 -20 -23t-20 23q0 24 20 24t20 -24zM1083 397q-12 0 -12 -12q0 -13 12 -13q13 0 13 13q0 12 -13 12zM1083 355q-12 0 -12 -12q0 -13 12 -13q13 0 13 13q0 12 -13 12zM528 232q0 44 -43 44q-42 0 -42 -44t42 -44q43 0 43 44zM766 249l7 17
q-23 10 -38 10q-13 0 -20.5 -7.5t-7.5 -18.5q0 -20 24 -27q18 -4 18 -10t-7 -6q-13 0 -30 10l-9 -17q16 -12 40 -12q31 0 31 26q0 19 -23 27q-21 7 -21 11q0 5 8 5q7 0 28 -8zM898 197l-8 18q-15 -7 -27 -7q-20 0 -20 24q0 23 21 23q11 0 24 -4l6 16q-14 9 -31 9
q-43 0 -43 -44t42 -44q16 0 36 9zM987 232q0 44 -43 44q-20 0 -31.5 -11.5t-11.5 -32.5q0 -44 43 -44t43 44zM254 189h24l-4 85h-25l-20 -46q-1 -2 -1 -6l-3 6l-19 46h-26l-3 -85h24v49l20 -49h13l20 49v-49zM338 216l31 58h-24l-14 -27q-1 -1 -2.5 -5t-2.5 -5q-1 1 -2.5 5

<glyph glyph-name=".notdef" 
d="M1221 525h-1151v-451h1151v451zM108 487h1075v-375h-1075v375zM826 391l7 16q-20 10 -39 10q-13 0 -20.5 -7t-7.5 -18q0 -20 24 -27q19 -4 19 -10t-8 -6q-11 0 -30 10l-8 -17q17 -12 40 -12q31 0 31 26q0 19 -23 26q-22 7 -22 11q0 6 8 6t29 -8zM964 373q0 44 -43 44
t-43 -44q0 -43 43 -43t43 43zM208 378v17h38v21h-61v-85h23v27h33v20h-33zM334 416h-23v-44q0 -22 -17 -22q-15 0 -15 22v44h-23v-44q0 -42 38 -42q40 0 40 42v44zM407 331v21h-38v64h-22v-85h60zM478 331v21h-38v64h-22v-85h60zM569 331l32 85h-24l-18 -54l-3 -8q-2 6 -2 8
l-18 54h-25l33 -85h25zM672 331v21h-41v11h33v19h-33v13h39v21h-62v-85h64zM683 416v-85h22v26h11q8 0 17 -26h26q-9 28 -19 34q15 3 15 22q0 29 -37 29h-35zM868 331v85h-23v-85h23zM1053 331v85h-23v-49l-36 49h-20v-85h22v48l36 -48h21zM705 375v22h14q15 0 15 -11
t-14 -11h-15zM941 373q0 -23 -20 -23t-20 23q0 24 20 24t20 -24zM1083 397q-12 0 -12 -12q0 -13 12 -13q13 0 13 13q0 12 -13 12zM1083 355q-12 0 -12 -12q0 -13 12 -13q13 0 13 13q0 12 -13 12zM528 232q0 44 -43 44q-42 0 -42 -44t42 -44q43 0 43 44zM766 249l7 17
q-23 10 -38 10q-13 0 -20.5 -7.5t-7.5 -18.5q0 -20 24 -27q18 -4 18 -10t-7 -6q-13 0 -30 10l-9 -17q16 -12 40 -12q31 0 31 26q0 19 -23 27q-21 7 -21 11q0 5 8 5q7 0 28 -8zM898 197l-8 18q-15 -7 -27 -7q-20 0 -20 24q0 23 21 23q11 0 24 -4l6 16q-14 9 -31 9
q-43 0 -43 -44t42 -44q16 0 36 9zM987 232q0 44 -43 44q-20 0 -31.5 -11.5t-11.5 -32.5q0 -44 43 -44t43 44zM254 189h24l-4 85h-25l-20 -46q-1 -2 -1 -6l-3 6l-19 46h-26l-3 -85h24v49l20 -49h13l20 49v-49zM338 216l31 58h-24l-14 -27q-1 -1 -2.5 -5t-2.5 -5q-1 1 -2.5 5
t-2.5 5l-14 27h-24l32 -58v-27h23v27zM398 237v16h38v21h-61v-85h23v28h33v20h-33zM617 189v85h-23v-48l-36 48h-20v-85h23v48l36 -48h20zM700 253v21h-75v-21h27v-64h22v64h26zM1073 189h25l-4 85h-26l-19 -46q0 -1 -0.5 -3t-1.5 -3q0 2 -2 6l-20 46h-25l-3 -85h23v49
l20 -49h13l20 49v-49zM505 232q0 -24 -20 -24t-20 24q0 23 20 23t20 -23zM964 232q0 -24 -20 -24t-20 24q0 23 20 23t20 -23zM800 213q-12 0 -12 -12q0 -13 12 -13q13 0 13 13q0 12 -13 12z" />
    <glyph glyph-name=".null" horiz-adv-x="0" 
 />
    <glyph glyph-name="nonmarkingreturn" horiz-adv-x="333" 
 />
    <glyph glyph-name="space" unicode=" " horiz-adv-x="190" 
 />
    <glyph glyph-name="exclam" unicode="!" 
d="M1221 525h-1151v-451h1151v451zM108 487h1075v-375h-1075v375zM826 391l7 16q-20 10 -39 10q-13 0 -20.5 -7t-7.5 -18q0 -20 24 -27q19 -4 19 -10t-8 -6q-11 0 -30 10l-8 -17q17 -12 40 -12q31 0 31 26q0 19 -23 26q-22 7 -22 11q0 6 8 6t29 -8zM964 373q0 44 -43 44
t-43 -44q0 -43 43 -43t43 43zM208 378v17h38v21h-61v-85h23v27h33v20h-33zM334 416h-23v-44q0 -22 -17 -22q-15 0 -15 22v44h-23v-44q0 -42 38 -42q40 0 40 42v44zM407 331v21h-38v64h-22v-85h60zM478 331v21h-38v64h-22v-85h60zM569 331l32 85h-24l-18 -54l-3 -8q-2 6 -2 8
l-18 54h-25l33 -85h25zM672 331v21h-41v11h33v19h-33v13h39v21h-62v-85h64zM683 416v-85h22v26h11q8 0 17 -26h26q-9 28 -19 34q15 3 15 22q0 29 -37 29h-35zM868 331v85h-23v-85h23zM1053 331v85h-23v-49l-36 49h-20v-85h22v48l36 -48h21zM705 375v22h14q15 0 15 -11
t-14 -11h-15zM941 373q0 -23 -20 -23t-20 23q0 24 20 24t20 -24zM1083 397q-12 0 -12 -12q0 -13 12 -13q13 0 13 13q0 12 -13 12zM1083 355q-12 0 -12 -12q0 -13 12 -13q13 0 13 13q0 12 -13 12zM528 232q0 44 -43 44q-42 0 -42 -44t42 -44q43 0 43 44zM766 249l7 17
q-23 10 -38 10q-13 0 -20.5 -7.5t-7.5 -18.5q0 -20 24 -27q18 -4 18 -10t-7 -6q-13 0 -30 10l-9 -17q16 -12 40 -12q31 0 31 26q0 19 -23 27q-21 7 -21 11q0 5 8 5q7 0 28 -8zM898 197l-8 18q-15 -7 -27 -7q-20 0 -20 24q0 23 21 23q11 0 24 -4l6 16q-14 9 -31 9
q-43 0 -43 -44t42 -44q16 0 36 9zM987 232q0 44 -43 44q-20 0 -31.5 -11.5t-11.5 -32.5q0 -44 43 -44t43 44zM254 189h24l-4 85h-25l-20 -46q-1 -2 -1 -6l-3 6l-19 46h-26l-3 -85h24v49l20 -49h13l20 49v-49zM338 216l31 58h-24l-14 -27q-1 -1 -2.5 -5t-2.5 -5q-1 1 -2.5 5
t-2.5 5l-14 27h-24l32 -58v-27h23v27zM398 237v16h38v21h-61v-85h23v28h33v20h-33zM617 189v85h-23v-48l-36 48h-20v-85h23v48l36 -48h20zM700 253v21h-75v-21h27v-64h22v64h26zM1073 189h25l-4 85h-26l-19 -46q0 -1 -0.5 -3t-1.5 -3q0 2 -2 6l-20 46h-25l-3 -85h23v49
l20 -49h13l20 49v-49zM505 232q0 -24 -20 -24t-20 24q0 23 20 23t20 -23zM964 232q0 -24 -20 -24t-20 24q0 23 20 23t20 -23zM800 213q-12 0 -12 -12q0 -13 12 -13q13 0 13 13q0 12 -13 12z" />
    <glyph glyph-name="quotedbl" unicode="&#x22;" 
d="M1221 525h-1151v-451h1151v451zM108 487h1075v-375h-1075v375zM826 391l7 16q-20 10 -39 10q-13 0 -20.5 -7t-7.5 -18q0 -20 24 -27q19 -4 19 -10t-8 -6q-11 0 -30 10l-8 -17q17 -12 40 -12q31 0 31 26q0 19 -23 26q-22 7 -22 11q0 6 8 6t29 -8zM964 373q0 44 -43 44
t-43 -44q0 -43 43 -43t43 43zM208 378v17h38v21h-61v-85h23v27h33v20h-33zM334 416h-23v-44q0 -22 -17 -22q-15 0 -15 22v44h-23v-44q0 -42 38 -42q40 0 40 42v44zM407 331v21h-38v64h-22v-85h60zM478 331v21h-38v64h-22v-85h60zM569 331l32 85h-24l-18 -54l-3 -8q-2 6 -2 8
l-18 54h-25l33 -85h25zM672 331v21h-41v11h33v19h-33v13h39v21h-62v-85h64zM683 416v-85h22v26h11q8 0 17 -26h26q-9 28 -19 34q15 3 15 22q0 29 -37 29h-35zM868 331v85h-23v-85h23zM1053 331v85h-23v-49l-36 49h-20v-85h22v48l36 -48h21zM705 375v22h14q15 0 15 -11
t-14 -11h-15zM941 373q0 -23 -20 -23t-20 23q0 24 20 24t20 -24zM1083 397q-12 0 -12 -12q0 -13 12 -13q13 0 13 13q0 12 -13 12zM1083 355q-12 0 -12 -12q0 -13 12 -13q13 0 13 13q0 12 -13 12zM528 232q0 44 -43 44q-42 0 -42 -44t42 -44q43 0 43 44zM766 249l7 17
q-23 10 -38 10q-13 0 -20.5 -7.5t-7.5 -18.5q0 -20 24 -27q18 -4 18 -10t-7 -6q-13 0 -30 10l-9 -17q16 -12 40 -12q31 0 31 26q0 19 -23 27q-21 7 -21 11q0 5 8 5q7 0 28 -8zM898 197l-8 18q-15 -7 -27 -7q-20 0 -20 24q0 23 21 23q11 0 24 -4l6 16q-14 9 -31 9
q-43 0 -43 -44t42 -44q16 0 36 9zM987 232q0 44 -43 44q-20 0 -31.5 -11.5t-11.5 -32.5q0 -44 43 -44t43 44zM254 189h24l-4 85h-25l-20 -46q-1 -2 -1 -6l-3 6l-19 46h-26l-3 -85h24v49l20 -49h13l20 49v-49zM338 216l31 58h-24l-14 -27q-1 -1 -2.5 -5t-2.5 -5q-1 1 -2.5 5
t-2.5 5l-14 27h-24l32 -58v-27h23v27zM398 237v16h38v21h-61v-85h23v28h33v20h-33zM617 189v85h-23v-48l-36 48h-20v-85h23v48l36 -48h20zM700 253v21h-75v-21h27v-64h22v64h26zM1073 189h25l-4 85h-26l-19 -46q0 -1 -0.5 -3t-1.5 -3q0 2 -2 6l-20 46h-25l-3 -85h23v49
l20 -49h13l20 49v-49zM505 232q0 -24 -20 -24t-20 24q0 23 20 23t20 -23zM964 232q0 -24 -20 -24t-20 24q0 23 20 23t20 -23zM800 213q-12 0 -12 -12q0 -13 12 -13q13 0 13 13q0 12 -13 12z" />
    <glyph glyph-name="numbersign" unicode="#" 
d="M1221 525h-1151v-451h1151v451zM108 487h1075v-375h-1075v375zM826 391l7 16q-20 10 -39 10q-13 0 -20.5 -7t-7.5 -18q0 -20 24 -27q19 -4 19 -10t-8 -6q-11 0 -30 10l-8 -17q17 -12 40 -12q31 0 31 26q0 19 -23 26q-22 7 -22 11q0 6 8 6t29 -8zM964 373q0 44 -43 44
t-43 -44q0 -43 43 -43t43 43zM208 378v17h38v21h-61v-85h23v27h33v20h-33zM334 416h-23v-44q0 -22 -17 -22q-15 0 -15 22v44h-23v-44q0 -42 38 -42q40 0 40 42v44zM407 331v21h-38v64h-22v-85h60zM478 331v21h-38v64h-22v-85h60zM569 331l32 85h-24l-18 -54l-3 -8q-2 6 -2 8
l-18 54h-25l33 -85h25zM672 331v21h-41v11h33v19h-33v13h39v21h-62v-85h64zM683 416v-85h22v26h11q8 0 17 -26h26q-9 28 -19 34q15 3 15 22q0 29 -37 29h-35zM868 331v85h-23v-85h23zM1053 331v85h-23v-49l-36 49h-20v-85h22v48l36 -48h21zM705 375v22h14q15 0 15 -11
t-14 -11h-15zM941 373q0 -23 -20 -23t-20 23q0 24 20 24t20 -24zM1083 397q-12 0 -12 -12q0 -13 12 -13q13 0 13 13q0 12 -13 12zM1083 355q-12 0 -12 -12q0 -13 12 -13q13 0 13 13q0 12 -13 12zM528 232q0 44 -43 44q-42 0 -42 -44t42 -44q43 0 43 44zM766 249l7 17
q-23 10 -38 10q-13 0 -20.5 -7.5t-7.5 -18.5q0 -20 24 -27q18 -4 18 -10t-7 -6q-13 0 -30 10l-9 -17q16 -12 40 -12q31 0 31 26q0 19 -23 27q-21 7 -21 11q0 5 8 5q7 0 28 -8zM898 197l-8 18q-15 -7 -27 -7q-20 0 -20 24q0 23 21 23q11 0 24 -4l6 16q-14 9 -31 9
q-43 0 -43 -44t42 -44q16 0 36 9zM987 232q0 44 -43 44q-20 0 -31.5 -11.5t-11.5 -32.5q0 -44 43 -44t43 44zM254 189h24l-4 85h-25l-20 -46q-1 -2 -1 -6l-3 6l-19 46h-26l-3 -85h24v49l20 -49h13l20 49v-49zM338 216l31 58h-24l-14 -27q-1 -1 -2.5 -5t-2.5 -5q-1 1 -2.5 5
t-2.5 5l-14 27h-24l32 -58v-27h23v27zM398 237v16h38v21h-61v-85h23v28h33v20h-33zM617 189v85h-23v-48l-36 48h-20v-85h23v48l36 -48h20zM700 253v21h-75v-21h27v-64h22v64h26zM1073 189h25l-4 85h-26l-19 -46q0 -1 -0.5 -3t-1.5 -3q0 2 -2 6l-20 46h-25l-3 -85h23v49
l20 -49h13l20 49v-49zM505 232q0 -24 -20 -24t-20 24q0 23 20 23t20 -23zM964 232q0 -24 -20 -24t-20 24q0 23 20 23t20 -23zM800 213q-12 0 -12 -12q0 -13 12 -13q13 0 13 13q0 12 -13 12z" />
    <glyph glyph-name="ampersand" unicode="&#x26;" 
d="M1221 525h-1151v-451h1151v451zM108 487h1075v-375h-1075v375zM826 391l7 16q-20 10 -39 10q-13 0 -20.5 -7t-7.5 -18q0 -20 24 -27q19 -4 19 -10t-8 -6q-11 0 -30 10l-8 -17q17 -12 40 -12q31 0 31 26q0 19 -23 26q-22 7 -22 11q0 6 8 6t29 -8zM964 373q0 44 -43 44
t-43 -44q0 -43 43 -43t43 43zM208 378v17h38v21h-61v-85h23v27h33v20h-33zM334 416h-23v-44q0 -22 -17 -22q-15 0 -15 22v44h-23v-44q0 -42 38 -42q40 0 40 42v44zM407 331v21h-38v64h-22v-85h60zM478 331v21h-38v64h-22v-85h60zM569 331l32 85h-24l-18 -54l-3 -8q-2 6 -2 8
l-18 54h-25l33 -85h25zM672 331v21h-41v11h33v19h-33v13h39v21h-62v-85h64zM683 416v-85h22v26h11q8 0 17 -26h26q-9 28 -19 34q15 3 15 22q0 29 -37 29h-35zM868 331v85h-23v-85h23zM1053 331v85h-23v-49l-36 49h-20v-85h22v48l36 -48h21zM705 375v22h14q15 0 15 -11
t-14 -11h-15zM941 373q0 -23 -20 -23t-20 23q0 24 20 24t20 -24zM1083 397q-12 0 -12 -12q0 -13 12 -13q13 0 13 13q0 12 -13 12zM1083 355q-12 0 -12 -12q0 -13 12 -13q13 0 13 13q0 12 -13 12zM528 232q0 44 -43 44q-42 0 -42 -44t42 -44q43 0 43 44zM766 249l7 17
q-23 10 -38 10q-13 0 -20.5 -7.5t-7.5 -18.5q0 -20 24 -27q18 -4 18 -10t-7 -6q-13 0 -30 10l-9 -17q16 -12 40 -12q31 0 31 26q0 19 -23 27q-21 7 -21 11q0 5 8 5q7 0 28 -8zM898 197l-8 18q-15 -7 -27 -7q-20 0 -20 24q0 23 21 23q11 0 24 -4l6 16q-14 9 -31 9
q-43 0 -43 -44t42 -44q16 0 36 9zM987 232q0 44 -43 44q-20 0 -31.5 -11.5t-11.5 -32.5q0 -44 43 -44t43 44zM254 189h24l-4 85h-25l-20 -46q-1 -2 -1 -6l-3 6l-19 46h-26l-3 -85h24v49l20 -49h13l20 49v-49zM338 216l31 58h-24l-14 -27q-1 -1 -2.5 -5t-2.5 -5q-1 1 -2.5 5
t-2.5 5l-14 27h-24l32 -58v-27h23v27zM398 237v16h38v21h-61v-85h23v28h33v20h-33zM617 189v85h-23v-48l-36 48h-20v-85h23v48l36 -48h20zM700 253v21h-75v-21h27v-64h22v64h26zM1073 189h25l-4 85h-26l-19 -46q0 -1 -0.5 -3t-1.5 -3q0 2 -2 6l-20 46h-25l-3 -85h23v49
l20 -49h13l20 49v-49zM505 232q0 -24 -20 -24t-20 24q0 23 20 23t20 -23zM964 232q0 -24 -20 -24t-20 24q0 23 20 23t20 -23zM800 213q-12 0 -12 -12q0 -13 12 -13q13 0 13 13q0 12 -13 12z" />
    <glyph glyph-name="quotesingle" unicode="'" 
d="M1221 525h-1151v-451h1151v451zM108 487h1075v-375h-1075v375zM826 391l7 16q-20 10 -39 10q-13 0 -20.5 -7t-7.5 -18q0 -20 24 -27q19 -4 19 -10t-8 -6q-11 0 -30 10l-8 -17q17 -12 40 -12q31 0 31 26q0 19 -23 26q-22 7 -22 11q0 6 8 6t29 -8zM964 373q0 44 -43 44
t-43 -44q0 -43 43 -43t43 43zM208 378v17h38v21h-61v-85h23v27h33v20h-33zM334 416h-23v-44q0 -22 -17 -22q-15 0 -15 22v44h-23v-44q0 -42 38 -42q40 0 40 42v44zM407 331v21h-38v64h-22v-85h60zM478 331v21h-38v64h-22v-85h60zM569 331l32 85h-24l-18 -54l-3 -8q-2 6 -2 8
l-18 54h-25l33 -85h25zM672 331v21h-41v11h33v19h-33v13h39v21h-62v-85h64zM683 416v-85h22v26h11q8 0 17 -26h26q-9 28 -19 34q15 3 15 22q0 29 -37 29h-35zM868 331v85h-23v-85h23zM1053 331v85h-23v-49l-36 49h-20v-85h22v48l36 -48h21zM705 375v22h14q15 0 15 -11
t-14 -11h-15zM941 373q0 -23 -20 -23t-20 23q0 24 20 24t20 -24zM1083 397q-12 0 -12 -12q0 -13 12 -13q13 0 13 13q0 12 -13 12zM1083 355q-12 0 -12 -12q0 -13 12 -13q13 0 13 13q0 12 -13 12zM528 232q0 44 -43 44q-42 0 -42 -44t42 -44q43 0 43 44zM766 249l7 17
q-23 10 -38 10q-13 0 -20.5 -7.5t-7.5 -18.5q0 -20 24 -27q18 -4 18 -10t-7 -6q-13 0 -30 10l-9 -17q16 -12 40 -12q31 0 31 26q0 19 -23 27q-21 7 -21 11q0 5 8 5q7 0 28 -8zM898 197l-8 18q-15 -7 -27 -7q-20 0 -20 24q0 23 21 23q11 0 24 -4l6 16q-14 9 -31 9
q-43 0 -43 -44t42 -44q16 0 36 9zM987 232q0 44 -43 44q-20 0 -31.5 -11.5t-11.5 -32.5q0 -44 43 -44t43 44zM254 189h24l-4 85h-25l-20 -46q-1 -2 -1 -6l-3 6l-19 46h-26l-3 -85h24v49l20 -49h13l20 49v-49zM338 216l31 58h-24l-14 -27q-1 -1 -2.5 -5t-2.5 -5q-1 1 -2.5 5
t-2.5 5l-14 27h-24l32 -58v-27h23v27zM398 237v16h38v21h-61v-85h23v28h33v20h-33zM617 189v85h-23v-48l-36 48h-20v-85h23v48l36 -48h20zM700 253v21h-75v-21h27v-64h22v64h26zM1073 189h25l-4 85h-26l-19 -46q0 -1 -0.5 -3t-1.5 -3q0 2 -2 6l-20 46h-25l-3 -85h23v49
l20 -49h13l20 49v-49zM505 232q0 -24 -20 -24t-20 24q0 23 20 23t20 -23zM964 232q0 -24 -20 -24t-20 24q0 23 20 23t20 -23zM800 213q-12 0 -12 -12q0 -13 12 -13q13 0 13 13q0 12 -13 12z" />
    <glyph glyph-name="parenleft" unicode="(" 
d="M1221 525h-1151v-451h1151v451zM108 487h1075v-375h-1075v375zM826 391l7 16q-20 10 -39 10q-13 0 -20.5 -7t-7.5 -18q0 -20 24 -27q19 -4 19 -10t-8 -6q-11 0 -30 10l-8 -17q17 -12 40 -12q31 0 31 26q0 19 -23 26q-22 7 -22 11q0 6 8 6t29 -8zM964 373q0 44 -43 44
t-43 -44q0 -43 43 -43t43 43zM208 378v17h38v21h-61v-85h23v27h33v20h-33zM334 416h-23v-44q0 -22 -17 -22q-15 0 -15 22v44h-23v-44q0 -42 38 -42q40 0 40 42v44zM407 331v21h-38v64h-22v-85h60zM478 331v21h-38v64h-22v-85h60zM569 331l32 85h-24l-18 -54l-3 -8q-2 6 -2 8
l-18 54h-25l33 -85h25zM672 331v21h-41v11h33v19h-33v13h39v21h-62v-85h64zM683 416v-85h22v26h11q8 0 17 -26h26q-9 28 -19 34q15 3 15 22q0 29 -37 29h-35zM868 331v85h-23v-85h23zM1053 331v85h-23v-49l-36 49h-20v-85h22v48l36 -48h21zM705 375v22h14q15 0 15 -11
t-14 -11h-15zM941 373q0 -23 -20 -23t-20 23q0 24 20 24t20 -24zM1083 397q-12 0 -12 -12q0 -13 12 -13q13 0 13 13q0 12 -13 12zM1083 355q-12 0 -12 -12q0 -13 12 -13q13 0 13 13q0 12 -13 12zM528 232q0 44 -43 44q-42 0 -42 -44t42 -44q43 0 43 44zM766 249l7 17
q-23 10 -38 10q-13 0 -20.5 -7.5t-7.5 -18.5q0 -20 24 -27q18 -4 18 -10t-7 -6q-13 0 -30 10l-9 -17q16 -12 40 -12q31 0 31 26q0 19 -23 27q-21 7 -21 11q0 5 8 5q7 0 28 -8zM898 197l-8 18q-15 -7 -27 -7q-20 0 -20 24q0 23 21 23q11 0 24 -4l6 16q-14 9 -31 9
q-43 0 -43 -44t42 -44q16 0 36 9zM987 232q0 44 -43 44q-20 0 -31.5 -11.5t-11.5 -32.5q0 -44 43 -44t43 44zM254 189h24l-4 85h-25l-20 -46q-1 -2 -1 -6l-3 6l-19 46h-26l-3 -85h24v49l20 -49h13l20 49v-49zM338 216l31 58h-24l-14 -27q-1 -1 -2.5 -5t-2.5 -5q-1 1 -2.5 5
t-2.5 5l-14 27h-24l32 -58v-27h23v27zM398 237v16h38v21h-61v-85h23v28h33v20h-33zM617 189v85h-23v-48l-36 48h-20v-85h23v48l36 -48h20zM700 253v21h-75v-21h27v-64h22v64h26zM1073 189h25l-4 85h-26l-19 -46q0 -1 -0.5 -3t-1.5 -3q0 2 -2 6l-20 46h-25l-3 -85h23v49
l20 -49h13l20 49v-49zM505 232q0 -24 -20 -24t-20 24q0 23 20 23t20 -23zM964 232q0 -24 -20 -24t-20 24q0 23 20 23t20 -23zM800 213q-12 0 -12 -12q0 -13 12 -13q13 0 13 13q0 12 -13 12z" />
    <glyph glyph-name="parenright" unicode=")" 
d="M1221 525h-1151v-451h1151v451zM108 487h1075v-375h-1075v375zM826 391l7 16q-20 10 -39 10q-13 0 -20.5 -7t-7.5 -18q0 -20 24 -27q19 -4 19 -10t-8 -6q-11 0 -30 10l-8 -17q17 -12 40 -12q31 0 31 26q0 19 -23 26q-22 7 -22 11q0 6 8 6t29 -8zM964 373q0 44 -43 44
t-43 -44q0 -43 43 -43t43 43zM208 378v17h38v21h-61v-85h23v27h33v20h-33zM334 416h-23v-44q0 -22 -17 -22q-15 0 -15 22v44h-23v-44q0 -42 38 -42q40 0 40 42v44zM407 331v21h-38v64h-22v-85h60zM478 331v21h-38v64h-22v-85h60zM569 331l32 85h-24l-18 -54l-3 -8q-2 6 -2 8
l-18 54h-25l33 -85h25zM672 331v21h-41v11h33v19h-33v13h39v21h-62v-85h64zM683 416v-85h22v26h11q8 0 17 -26h26q-9 28 -19 34q15 3 15 22q0 29 -37 29h-35zM868 331v85h-23v-85h23zM1053 331v85h-23v-49l-36 49h-20v-85h22v48l36 -48h21zM705 375v22h14q15 0 15 -11
t-14 -11h-15zM941 373q0 -23 -20 -23t-20 23q0 24 20 24t20 -24zM1083 397q-12 0 -12 -12q0 -13 12 -13q13 0 13 13q0 12 -13 12zM1083 355q-12 0 -12 -12q0 -13 12 -13q13 0 13 13q0 12 -13 12zM528 232q0 44 -43 44q-42 0 -42 -44t42 -44q43 0 43 44zM766 249l7 17
q-23 10 -38 10q-13 0 -20.5 -7.5t-7.5 -18.5q0 -20 24 -27q18 -4 18 -10t-7 -6q-13 0 -30 10l-9 -17q16 -12 40 -12q31 0 31 26q0 19 -23 27q-21 7 -21 11q0 5 8 5q7 0 28 -8zM898 197l-8 18q-15 -7 -27 -7q-20 0 -20 24q0 23 21 23q11 0 24 -4l6 16q-14 9 -31 9
q-43 0 -43 -44t42 -44q16 0 36 9zM987 232q0 44 -43 44q-20 0 -31.5 -11.5t-11.5 -32.5q0 -44 43 -44t43 44zM254 189h24l-4 85h-25l-20 -46q-1 -2 -1 -6l-3 6l-19 46h-26l-3 -85h24v49l20 -49h13l20 49v-49zM338 216l31 58h-24l-14 -27q-1 -1 -2.5 -5t-2.5 -5q-1 1 -2.5 5
t-2.5 5l-14 27h-24l32 -58v-27h23v27zM398 237v16h38v21h-61v-85h23v28h33v20h-33zM617 189v85h-23v-48l-36 48h-20v-85h23v48l36 -48h20zM700 253v21h-75v-21h27v-64h22v64h26zM1073 189h25l-4 85h-26l-19 -46q0 -1 -0.5 -3t-1.5 -3q0 2 -2 6l-20 46h-25l-3 -85h23v49
l20 -49h13l20 49v-49zM505 232q0 -24 -20 -24t-20 24q0 23 20 23t20 -23zM964 232q0 -24 -20 -24t-20 24q0 23 20 23t20 -23zM800 213q-12 0 -12 -12q0 -13 12 -13q13 0 13 13q0 12 -13 12z" />
    <glyph glyph-name="asterisk" unicode="*" 
d="M1221 525h-1151v-451h1151v451zM108 487h1075v-375h-1075v375zM826 391l7 16q-20 10 -39 10q-13 0 -20.5 -7t-7.5 -18q0 -20 24 -27q19 -4 19 -10t-8 -6q-11 0 -30 10l-8 -17q17 -12 40 -12q31 0 31 26q0 19 -23 26q-22 7 -22 11q0 6 8 6t29 -8zM964 373q0 44 -43 44
t-43 -44q0 -43 43 -43t43 43zM208 378v17h38v21h-61v-85h23v27h33v20h-33zM334 416h-23v-44q0 -22 -17 -22q-15 0 -15 22v44h-23v-44q0 -42 38 -42q40 0 40 42v44zM407 331v21h-38v64h-22v-85h60zM478 331v21h-38v64h-22v-85h60zM569 331l32 85h-24l-18 -54l-3 -8q-2 6 -2 8
l-18 54h-25l33 -85h25zM672 331v21h-41v11h33v19h-33v13h39v21h-62v-85h64zM683 416v-85h22v26h11q8 0 17 -26h26q-9 28 -19 34q15 3 15 22q0 29 -37 29h-35zM868 331v85h-23v-85h23zM1053 331v85h-23v-49l-36 49h-20v-85h22v48l36 -48h21zM705 375v22h14q15 0 15 -11
t-14 -11h-15zM941 373q0 -23 -20 -23t-20 23q0 24 20 24t20 -24zM1083 397q-12 0 -12 -12q0 -13 12 -13q13 0 13 13q0 12 -13 12zM1083 355q-12 0 -12 -12q0 -13 12 -13q13 0 13 13q0 12 -13 12zM528 232q0 44 -43 44q-42 0 -42 -44t42 -44q43 0 43 44zM766 249l7 17
q-23 10 -38 10q-13 0 -20.5 -7.5t-7.5 -18.5q0 -20 24 -27q18 -4 18 -10t-7 -6q-13 0 -30 10l-9 -17q16 -12 40 -12q31 0 31 26q0 19 -23 27q-21 7 -21 11q0 5 8 5q7 0 28 -8zM898 197l-8 18q-15 -7 -27 -7q-20 0 -20 24q0 23 21 23q11 0 24 -4l6 16q-14 9 -31 9
q-43 0 -43 -44t42 -44q16 0 36 9zM987 232q0 44 -43 44q-20 0 -31.5 -11.5t-11.5 -32.5q0 -44 43 -44t43 44zM254 189h24l-4 85h-25l-20 -46q-1 -2 -1 -6l-3 6l-19 46h-26l-3 -85h24v49l20 -49h13l20 49v-49zM338 216l31 58h-24l-14 -27q-1 -1 -2.5 -5t-2.5 -5q-1 1 -2.5 5
t-2.5 5l-14 27h-24l32 -58v-27h23v27zM398 237v16h38v21h-61v-85h23v28h33v20h-33zM617 189v85h-23v-48l-36 48h-20v-85h23v48l36 -48h20zM700 253v21h-75v-21h27v-64h22v64h26zM1073 189h25l-4 85h-26l-19 -46q0 -1 -0.5 -3t-1.5 -3q0 2 -2 6l-20 46h-25l-3 -85h23v49
l20 -49h13l20 49v-49zM505 232q0 -24 -20 -24t-20 24q0 23 20 23t20 -23zM964 232q0 -24 -20 -24t-20 24q0 23 20 23t20 -23zM800 213q-12 0 -12 -12q0 -13 12 -13q13 0 13 13q0 12 -13 12z" />
    <glyph glyph-name="comma" unicode="," 
d="M1221 525h-1151v-451h1151v451zM108 487h1075v-375h-1075v375zM826 391l7 16q-20 10 -39 10q-13 0 -20.5 -7t-7.5 -18q0 -20 24 -27q19 -4 19 -10t-8 -6q-11 0 -30 10l-8 -17q17 -12 40 -12q31 0 31 26q0 19 -23 26q-22 7 -22 11q0 6 8 6t29 -8zM964 373q0 44 -43 44
t-43 -44q0 -43 43 -43t43 43zM208 378v17h38v21h-61v-85h23v27h33v20h-33zM334 416h-23v-44q0 -22 -17 -22q-15 0 -15 22v44h-23v-44q0 -42 38 -42q40 0 40 42v44zM407 331v21h-38v64h-22v-85h60zM478 331v21h-38v64h-22v-85h60zM569 331l32 85h-24l-18 -54l-3 -8q-2 6 -2 8
l-18 54h-25l33 -85h25zM672 331v21h-41v11h33v19h-33v13h39v21h-62v-85h64zM683 416v-85h22v26h11q8 0 17 -26h26q-9 28 -19 34q15 3 15 22q0 29 -37 29h-35zM868 331v85h-23v-85h23zM1053 331v85h-23v-49l-36 49h-20v-85h22v48l36 -48h21zM705 375v22h14q15 0 15 -11
t-14 -11h-15zM941 373q0 -23 -20 -23t-20 23q0 24 20 24t20 -24zM1083 397q-12 0 -12 -12q0 -13 12 -13q13 0 13 13q0 12 -13 12zM1083 355q-12 0 -12 -12q0 -13 12 -13q13 0 13 13q0 12 -13 12zM528 232q0 44 -43 44q-42 0 -42 -44t42 -44q43 0 43 44zM766 249l7 17
q-23 10 -38 10q-13 0 -20.5 -7.5t-7.5 -18.5q0 -20 24 -27q18 -4 18 -10t-7 -6q-13 0 -30 10l-9 -17q16 -12 40 -12q31 0 31 26q0 19 -23 27q-21 7 -21 11q0 5 8 5q7 0 28 -8zM898 197l-8 18q-15 -7 -27 -7q-20 0 -20 24q0 23 21 23q11 0 24 -4l6 16q-14 9 -31 9
q-43 0 -43 -44t42 -44q16 0 36 9zM987 232q0 44 -43 44q-20 0 -31.5 -11.5t-11.5 -32.5q0 -44 43 -44t43 44zM254 189h24l-4 85h-25l-20 -46q-1 -2 -1 -6l-3 6l-19 46h-26l-3 -85h24v49l20 -49h13l20 49v-49zM338 216l31 58h-24l-14 -27q-1 -1 -2.5 -5t-2.5 -5q-1 1 -2.5 5
t-2.5 5l-14 27h-24l32 -58v-27h23v27zM398 237v16h38v21h-61v-85h23v28h33v20h-33zM617 189v85h-23v-48l-36 48h-20v-85h23v48l36 -48h20zM700 253v21h-75v-21h27v-64h22v64h26zM1073 189h25l-4 85h-26l-19 -46q0 -1 -0.5 -3t-1.5 -3q0 2 -2 6l-20 46h-25l-3 -85h23v49
l20 -49h13l20 49v-49zM505 232q0 -24 -20 -24t-20 24q0 23 20 23t20 -23zM964 232q0 -24 -20 -24t-20 24q0 23 20 23t20 -23zM800 213q-12 0 -12 -12q0 -13 12 -13q13 0 13 13q0 12 -13 12z" />
    <glyph glyph-name="hyphen" unicode="-" 
d="M1221 525h-1151v-451h1151v451zM108 487h1075v-375h-1075v375zM826 391l7 16q-20 10 -39 10q-13 0 -20.5 -7t-7.5 -18q0 -20 24 -27q19 -4 19 -10t-8 -6q-11 0 -30 10l-8 -17q17 -12 40 -12q31 0 31 26q0 19 -23 26q-22 7 -22 11q0 6 8 6t29 -8zM964 373q0 44 -43 44
t-43 -44q0 -43 43 -43t43 43zM208 378v17h38v21h-61v-85h23v27h33v20h-33zM334 416h-23v-44q0 -22 -17 -22q-15 0 -15 22v44h-23v-44q0 -42 38 -42q40 0 40 42v44zM407 331v21h-38v64h-22v-85h60zM478 331v21h-38v64h-22v-85h60zM569 331l32 85h-24l-18 -54l-3 -8q-2 6 -2 8
l-18 54h-25l33 -85h25zM672 331v21h-41v11h33v19h-33v13h39v21h-62v-85h64zM683 416v-85h22v26h11q8 0 17 -26h26q-9 28 -19 34q15 3 15 22q0 29 -37 29h-35zM868 331v85h-23v-85h23zM1053 331v85h-23v-49l-36 49h-20v-85h22v48l36 -48h21zM705 375v22h14q15 0 15 -11
t-14 -11h-15zM941 373q0 -23 -20 -23t-20 23q0 24 20 24t20 -24zM1083 397q-12 0 -12 -12q0 -13 12 -13q13 0 13 13q0 12 -13 12zM1083 355q-12 0 -12 -12q0 -13 12 -13q13 0 13 13q0 12 -13 12zM528 232q0 44 -43 44q-42 0 -42 -44t42 -44q43 0 43 44zM766 249l7 17
q-23 10 -38 10q-13 0 -20.5 -7.5t-7.5 -18.5q0 -20 24 -27q18 -4 18 -10t-7 -6q-13 0 -30 10l-9 -17q16 -12 40 -12q31 0 31 26q0 19 -23 27q-21 7 -21 11q0 5 8 5q7 0 28 -8zM898 197l-8 18q-15 -7 -27 -7q-20 0 -20 24q0 23 21 23q11 0 24 -4l6 16q-14 9 -31 9
q-43 0 -43 -44t42 -44q16 0 36 9zM987 232q0 44 -43 44q-20 0 -31.5 -11.5t-11.5 -32.5q0 -44 43 -44t43 44zM254 189h24l-4 85h-25l-20 -46q-1 -2 -1 -6l-3 6l-19 46h-26l-3 -85h24v49l20 -49h13l20 49v-49zM338 216l31 58h-24l-14 -27q-1 -1 -2.5 -5t-2.5 -5q-1 1 -2.5 5
t-2.5 5l-14 27h-24l32 -58v-27h23v27zM398 237v16h38v21h-61v-85h23v28h33v20h-33zM617 189v85h-23v-48l-36 48h-20v-85h23v48l36 -48h20zM700 253v21h-75v-21h27v-64h22v64h26zM1073 189h25l-4 85h-26l-19 -46q0 -1 -0.5 -3t-1.5 -3q0 2 -2 6l-20 46h-25l-3 -85h23v49
l20 -49h13l20 49v-49zM505 232q0 -24 -20 -24t-20 24q0 23 20 23t20 -23zM964 232q0 -24 -20 -24t-20 24q0 23 20 23t20 -23zM800 213q-12 0 -12 -12q0 -13 12 -13q13 0 13 13q0 12 -13 12z" />
    <glyph glyph-name="period" unicode="." 
d="M1221 525h-1151v-451h1151v451zM108 487h1075v-375h-1075v375zM826 391l7 16q-20 10 -39 10q-13 0 -20.5 -7t-7.5 -18q0 -20 24 -27q19 -4 19 -10t-8 -6q-11 0 -30 10l-8 -17q17 -12 40 -12q31 0 31 26q0 19 -23 26q-22 7 -22 11q0 6 8 6t29 -8zM964 373q0 44 -43 44
t-43 -44q0 -43 43 -43t43 43zM208 378v17h38v21h-61v-85h23v27h33v20h-33zM334 416h-23v-44q0 -22 -17 -22q-15 0 -15 22v44h-23v-44q0 -42 38 -42q40 0 40 42v44zM407 331v21h-38v64h-22v-85h60zM478 331v21h-38v64h-22v-85h60zM569 331l32 85h-24l-18 -54l-3 -8q-2 6 -2 8
l-18 54h-25l33 -85h25zM672 331v21h-41v11h33v19h-33v13h39v21h-62v-85h64zM683 416v-85h22v26h11q8 0 17 -26h26q-9 28 -19 34q15 3 15 22q0 29 -37 29h-35zM868 331v85h-23v-85h23zM1053 331v85h-23v-49l-36 49h-20v-85h22v48l36 -48h21zM705 375v22h14q15 0 15 -11
t-14 -11h-15zM941 373q0 -23 -20 -23t-20 23q0 24 20 24t20 -24zM1083 397q-12 0 -12 -12q0 -13 12 -13q13 0 13 13q0 12 -13 12zM1083 355q-12 0 -12 -12q0 -13 12 -13q13 0 13 13q0 12 -13 12zM528 232q0 44 -43 44q-42 0 -42 -44t42 -44q43 0 43 44zM766 249l7 17
q-23 10 -38 10q-13 0 -20.5 -7.5t-7.5 -18.5q0 -20 24 -27q18 -4 18 -10t-7 -6q-13 0 -30 10l-9 -17q16 -12 40 -12q31 0 31 26q0 19 -23 27q-21 7 -21 11q0 5 8 5q7 0 28 -8zM898 197l-8 18q-15 -7 -27 -7q-20 0 -20 24q0 23 21 23q11 0 24 -4l6 16q-14 9 -31 9
q-43 0 -43 -44t42 -44q16 0 36 9zM987 232q0 44 -43 44q-20 0 -31.5 -11.5t-11.5 -32.5q0 -44 43 -44t43 44zM254 189h24l-4 85h-25l-20 -46q-1 -2 -1 -6l-3 6l-19 46h-26l-3 -85h24v49l20 -49h13l20 49v-49zM338 216l31 58h-24l-14 -27q-1 -1 -2.5 -5t-2.5 -5q-1 1 -2.5 5
t-2.5 5l-14 27h-24l32 -58v-27h23v27zM398 237v16h38v21h-61v-85h23v28h33v20h-33zM617 189v85h-23v-48l-36 48h-20v-85h23v48l36 -48h20zM700 253v21h-75v-21h27v-64h22v64h26zM1073 189h25l-4 85h-26l-19 -46q0 -1 -0.5 -3t-1.5 -3q0 2 -2 6l-20 46h-25l-3 -85h23v49
l20 -49h13l20 49v-49zM505 232q0 -24 -20 -24t-20 24q0 23 20 23t20 -23zM964 232q0 -24 -20 -24t-20 24q0 23 20 23t20 -23zM800 213q-12 0 -12 -12q0 -13 12 -13q13 0 13 13q0 12 -13 12z" />
    <glyph glyph-name="slash" unicode="/" 
d="M1221 525h-1151v-451h1151v451zM108 487h1075v-375h-1075v375zM826 391l7 16q-20 10 -39 10q-13 0 -20.5 -7t-7.5 -18q0 -20 24 -27q19 -4 19 -10t-8 -6q-11 0 -30 10l-8 -17q17 -12 40 -12q31 0 31 26q0 19 -23 26q-22 7 -22 11q0 6 8 6t29 -8zM964 373q0 44 -43 44
t-43 -44q0 -43 43 -43t43 43zM208 378v17h38v21h-61v-85h23v27h33v20h-33zM334 416h-23v-44q0 -22 -17 -22q-15 0 -15 22v44h-23v-44q0 -42 38 -42q40 0 40 42v44zM407 331v21h-38v64h-22v-85h60zM478 331v21h-38v64h-22v-85h60zM569 331l32 85h-24l-18 -54l-3 -8q-2 6 -2 8
l-18 54h-25l33 -85h25zM672 331v21h-41v11h33v19h-33v13h39v21h-62v-85h64zM683 416v-85h22v26h11q8 0 17 -26h26q-9 28 -19 34q15 3 15 22q0 29 -37 29h-35zM868 331v85h-23v-85h23zM1053 331v85h-23v-49l-36 49h-20v-85h22v48l36 -48h21zM705 375v22h14q15 0 15 -11
t-14 -11h-15zM941 373q0 -23 -20 -23t-20 23q0 24 20 24t20 -24zM1083 397q-12 0 -12 -12q0 -13 12 -13q13 0 13 13q0 12 -13 12zM1083 355q-12 0 -12 -12q0 -13 12 -13q13 0 13 13q0 12 -13 12zM528 232q0 44 -43 44q-42 0 -42 -44t42 -44q43 0 43 44zM766 249l7 17
q-23 10 -38 10q-13 0 -20.5 -7.5t-7.5 -18.5q0 -20 24 -27q18 -4 18 -10t-7 -6q-13 0 -30 10l-9 -17q16 -12 40 -12q31 0 31 26q0 19 -23 27q-21 7 -21 11q0 5 8 5q7 0 28 -8zM898 197l-8 18q-15 -7 -27 -7q-20 0 -20 24q0 23 21 23q11 0 24 -4l6 16q-14 9 -31 9
q-43 0 -43 -44t42 -44q16 0 36 9zM987 232q0 44 -43 44q-20 0 -31.5 -11.5t-11.5 -32.5q0 -44 43 -44t43 44zM254 189h24l-4 85h-25l-20 -46q-1 -2 -1 -6l-3 6l-19 46h-26l-3 -85h24v49l20 -49h13l20 49v-49zM338 216l31 58h-24l-14 -27q-1 -1 -2.5 -5t-2.5 -5q-1 1 -2.5 5
t-2.5 5l-14 27h-24l32 -58v-27h23v27zM398 237v16h38v21h-61v-85h23v28h33v20h-33zM617 189v85h-23v-48l-36 48h-20v-85h23v48l36 -48h20zM700 253v21h-75v-21h27v-64h22v64h26zM1073 189h25l-4 85h-26l-19 -46q0 -1 -0.5 -3t-1.5 -3q0 2 -2 6l-20 46h-25l-3 -85h23v49
l20 -49h13l20 49v-49zM505 232q0 -24 -20 -24t-20 24q0 23 20 23t20 -23zM964 232q0 -24 -20 -24t-20 24q0 23 20 23t20 -23zM800 213q-12 0 -12 -12q0 -13 12 -13q13 0 13 13q0 12 -13 12z" />
    <glyph glyph-name="zero" unicode="0" horiz-adv-x="629" 
d="M314 620q285 0 285 -317q0 -312 -285 -312q-143 0 -214 80t-71 232q0 154 71 235.5t214 81.5zM314 158q55 0 75.5 34t20.5 111q0 80 -20.5 115t-75.5 35t-75.5 -35.5t-20.5 -114.5q0 -76 20.5 -110.5t75.5 -34.5z" />
    <glyph glyph-name="one" unicode="1" horiz-adv-x="514" 
d="M487 0h-454v156h146v250q-50 -11 -124 -23l-36 118q78 33 196 109h149v-454h123v-156z" />
    <glyph glyph-name="two" unicode="2" horiz-adv-x="543" 
d="M513 0h-485v131l67.5 53l63.5 49.5l52 42.5t46 40t32 33t22.5 31.5t6.5 25.5q0 29 -18.5 44t-47.5 15q-67 0 -192 -51l-49 130q92 40 153 58t122 18q101 0 162.5 -57.5t61.5 -152.5q0 -73 -57.5 -130.5t-175.5 -129.5q80 6 116 6h121z" />
    <glyph glyph-name="three" unicode="3" horiz-adv-x="568" 
d="M72 437l-37 122q142 61 259 61q98 0 161 -48.5t63 -125.5q0 -48 -23.5 -83t-61.5 -51q52 -21 76.5 -52t24.5 -78q0 -90 -66 -140.5t-180 -50.5q-152 0 -275 67l50 125q114 -48 216 -48q78 0 78 51q0 53 -120 53h-83v135h83q61 0 86 9.5t25 35.5q0 27 -21 42t-58 15
q-69 0 -197 -39z" />
    <glyph glyph-name="four" unicode="4" horiz-adv-x="626" 
d="M521 102v-102h-180v102h-319l-8 132l327 376h180v-358h85v-150h-85zM341 252v167q-13 -19 -46 -56l-46 -52q-25 -28 -60 -59h152z" />
    <glyph glyph-name="five" unicode="5" horiz-adv-x="574" 
d="M228 456l-8 -98q60 37 132 37q91 0 141 -50t50 -139q0 -102 -71 -158.5t-177 -56.5q-159 0 -282 67l50 134q111 -48 206 -48q40 0 68.5 19.5t28.5 51.5q0 28 -20 45t-55 17q-44 0 -86 -40l-150 22l21 351h441v-154h-289z" />
    <glyph glyph-name="six" unicode="6" horiz-adv-x="587" 
d="M544 578l-43 -129q-91 21 -147 21q-120 0 -140 -126q66 49 159 49q86 0 139 -51t53 -134q0 -100 -66 -158.5t-185 -58.5q-137 0 -211 76t-74 207q0 161 87 253.5t229 92.5q97 0 199 -42zM314 138q35 0 56.5 21.5t21.5 57.5q0 29 -22 46.5t-58 17.5q-60 0 -99 -45
q17 -98 101 -98z" />
    <glyph glyph-name="seven" unicode="7" horiz-adv-x="511" 
d="M498 610v-139q-134 -203 -209 -471h-217q103 282 226 454h-284v156h484z" />
    <glyph glyph-name="eight" unicode="8" horiz-adv-x="580" 
d="M435 335q67 -29 98.5 -65.5t31.5 -92.5q0 -88 -70.5 -137t-192.5 -49q-152 0 -219.5 47t-67.5 139q0 91 111 145q-85 50 -85 127q0 84 67 127.5t191 43.5q117 0 177 -42t60 -120q0 -80 -101 -123zM290 504q-31 0 -50.5 -14.5t-19.5 -37.5q0 -22 19 -36t70 -33
q59 27 59 72q0 22 -21.5 35.5t-56.5 13.5zM284 130q37 0 59.5 15t22.5 41q0 22 -24.5 38t-94.5 44q-53 -30 -53 -77q0 -30 24 -45.5t66 -15.5z" />
    <glyph glyph-name="nine" unicode="9" horiz-adv-x="587" 
d="M45 34l44 129q88 -21 147 -23q60 1 90.5 30.5t38.5 90.5q-61 -45 -150 -45q-86 0 -139 52t-53 135q0 100 66 158.5t185 58.5q135 0 205 -75.5t70 -207.5q1 -346 -304 -346q-97 0 -200 43zM276 330q48 0 91 40q-12 103 -93 103q-36 0 -57 -21.5t-21 -57.5q0 -29 22 -46.5
t58 -17.5z" />
    <glyph glyph-name="colon" unicode=":" 
d="M1221 525h-1151v-451h1151v451zM108 487h1075v-375h-1075v375zM826 391l7 16q-20 10 -39 10q-13 0 -20.5 -7t-7.5 -18q0 -20 24 -27q19 -4 19 -10t-8 -6q-11 0 -30 10l-8 -17q17 -12 40 -12q31 0 31 26q0 19 -23 26q-22 7 -22 11q0 6 8 6t29 -8zM964 373q0 44 -43 44
t-43 -44q0 -43 43 -43t43 43zM208 378v17h38v21h-61v-85h23v27h33v20h-33zM334 416h-23v-44q0 -22 -17 -22q-15 0 -15 22v44h-23v-44q0 -42 38 -42q40 0 40 42v44zM407 331v21h-38v64h-22v-85h60zM478 331v21h-38v64h-22v-85h60zM569 331l32 85h-24l-18 -54l-3 -8q-2 6 -2 8
l-18 54h-25l33 -85h25zM672 331v21h-41v11h33v19h-33v13h39v21h-62v-85h64zM683 416v-85h22v26h11q8 0 17 -26h26q-9 28 -19 34q15 3 15 22q0 29 -37 29h-35zM868 331v85h-23v-85h23zM1053 331v85h-23v-49l-36 49h-20v-85h22v48l36 -48h21zM705 375v22h14q15 0 15 -11
t-14 -11h-15zM941 373q0 -23 -20 -23t-20 23q0 24 20 24t20 -24zM1083 397q-12 0 -12 -12q0 -13 12 -13q13 0 13 13q0 12 -13 12zM1083 355q-12 0 -12 -12q0 -13 12 -13q13 0 13 13q0 12 -13 12zM528 232q0 44 -43 44q-42 0 -42 -44t42 -44q43 0 43 44zM766 249l7 17
q-23 10 -38 10q-13 0 -20.5 -7.5t-7.5 -18.5q0 -20 24 -27q18 -4 18 -10t-7 -6q-13 0 -30 10l-9 -17q16 -12 40 -12q31 0 31 26q0 19 -23 27q-21 7 -21 11q0 5 8 5q7 0 28 -8zM898 197l-8 18q-15 -7 -27 -7q-20 0 -20 24q0 23 21 23q11 0 24 -4l6 16q-14 9 -31 9
q-43 0 -43 -44t42 -44q16 0 36 9zM987 232q0 44 -43 44q-20 0 -31.5 -11.5t-11.5 -32.5q0 -44 43 -44t43 44zM254 189h24l-4 85h-25l-20 -46q-1 -2 -1 -6l-3 6l-19 46h-26l-3 -85h24v49l20 -49h13l20 49v-49zM338 216l31 58h-24l-14 -27q-1 -1 -2.5 -5t-2.5 -5q-1 1 -2.5 5
t-2.5 5l-14 27h-24l32 -58v-27h23v27zM398 237v16h38v21h-61v-85h23v28h33v20h-33zM617 189v85h-23v-48l-36 48h-20v-85h23v48l36 -48h20zM700 253v21h-75v-21h27v-64h22v64h26zM1073 189h25l-4 85h-26l-19 -46q0 -1 -0.5 -3t-1.5 -3q0 2 -2 6l-20 46h-25l-3 -85h23v49
l20 -49h13l20 49v-49zM505 232q0 -24 -20 -24t-20 24q0 23 20 23t20 -23zM964 232q0 -24 -20 -24t-20 24q0 23 20 23t20 -23zM800 213q-12 0 -12 -12q0 -13 12 -13q13 0 13 13q0 12 -13 12z" />
    <glyph glyph-name="semicolon" unicode=";" 
d="M1221 525h-1151v-451h1151v451zM108 487h1075v-375h-1075v375zM826 391l7 16q-20 10 -39 10q-13 0 -20.5 -7t-7.5 -18q0 -20 24 -27q19 -4 19 -10t-8 -6q-11 0 -30 10l-8 -17q17 -12 40 -12q31 0 31 26q0 19 -23 26q-22 7 -22 11q0 6 8 6t29 -8zM964 373q0 44 -43 44
t-43 -44q0 -43 43 -43t43 43zM208 378v17h38v21h-61v-85h23v27h33v20h-33zM334 416h-23v-44q0 -22 -17 -22q-15 0 -15 22v44h-23v-44q0 -42 38 -42q40 0 40 42v44zM407 331v21h-38v64h-22v-85h60zM478 331v21h-38v64h-22v-85h60zM569 331l32 85h-24l-18 -54l-3 -8q-2 6 -2 8
l-18 54h-25l33 -85h25zM672 331v21h-41v11h33v19h-33v13h39v21h-62v-85h64zM683 416v-85h22v26h11q8 0 17 -26h26q-9 28 -19 34q15 3 15 22q0 29 -37 29h-35zM868 331v85h-23v-85h23zM1053 331v85h-23v-49l-36 49h-20v-85h22v48l36 -48h21zM705 375v22h14q15 0 15 -11
t-14 -11h-15zM941 373q0 -23 -20 -23t-20 23q0 24 20 24t20 -24zM1083 397q-12 0 -12 -12q0 -13 12 -13q13 0 13 13q0 12 -13 12zM1083 355q-12 0 -12 -12q0 -13 12 -13q13 0 13 13q0 12 -13 12zM528 232q0 44 -43 44q-42 0 -42 -44t42 -44q43 0 43 44zM766 249l7 17
q-23 10 -38 10q-13 0 -20.5 -7.5t-7.5 -18.5q0 -20 24 -27q18 -4 18 -10t-7 -6q-13 0 -30 10l-9 -17q16 -12 40 -12q31 0 31 26q0 19 -23 27q-21 7 -21 11q0 5 8 5q7 0 28 -8zM898 197l-8 18q-15 -7 -27 -7q-20 0 -20 24q0 23 21 23q11 0 24 -4l6 16q-14 9 -31 9
q-43 0 -43 -44t42 -44q16 0 36 9zM987 232q0 44 -43 44q-20 0 -31.5 -11.5t-11.5 -32.5q0 -44 43 -44t43 44zM254 189h24l-4 85h-25l-20 -46q-1 -2 -1 -6l-3 6l-19 46h-26l-3 -85h24v49l20 -49h13l20 49v-49zM338 216l31 58h-24l-14 -27q-1 -1 -2.5 -5t-2.5 -5q-1 1 -2.5 5
t-2.5 5l-14 27h-24l32 -58v-27h23v27zM398 237v16h38v21h-61v-85h23v28h33v20h-33zM617 189v85h-23v-48l-36 48h-20v-85h23v48l36 -48h20zM700 253v21h-75v-21h27v-64h22v64h26zM1073 189h25l-4 85h-26l-19 -46q0 -1 -0.5 -3t-1.5 -3q0 2 -2 6l-20 46h-25l-3 -85h23v49
l20 -49h13l20 49v-49zM505 232q0 -24 -20 -24t-20 24q0 23 20 23t20 -23zM964 232q0 -24 -20 -24t-20 24q0 23 20 23t20 -23zM800 213q-12 0 -12 -12q0 -13 12 -13q13 0 13 13q0 12 -13 12z" />
    <glyph glyph-name="question" unicode="?" 
d="M1221 525h-1151v-451h1151v451zM108 487h1075v-375h-1075v375zM826 391l7 16q-20 10 -39 10q-13 0 -20.5 -7t-7.5 -18q0 -20 24 -27q19 -4 19 -10t-8 -6q-11 0 -30 10l-8 -17q17 -12 40 -12q31 0 31 26q0 19 -23 26q-22 7 -22 11q0 6 8 6t29 -8zM964 373q0 44 -43 44
t-43 -44q0 -43 43 -43t43 43zM208 378v17h38v21h-61v-85h23v27h33v20h-33zM334 416h-23v-44q0 -22 -17 -22q-15 0 -15 22v44h-23v-44q0 -42 38 -42q40 0 40 42v44zM407 331v21h-38v64h-22v-85h60zM478 331v21h-38v64h-22v-85h60zM569 331l32 85h-24l-18 -54l-3 -8q-2 6 -2 8
l-18 54h-25l33 -85h25zM672 331v21h-41v11h33v19h-33v13h39v21h-62v-85h64zM683 416v-85h22v26h11q8 0 17 -26h26q-9 28 -19 34q15 3 15 22q0 29 -37 29h-35zM868 331v85h-23v-85h23zM1053 331v85h-23v-49l-36 49h-20v-85h22v48l36 -48h21zM705 375v22h14q15 0 15 -11
t-14 -11h-15zM941 373q0 -23 -20 -23t-20 23q0 24 20 24t20 -24zM1083 397q-12 0 -12 -12q0 -13 12 -13q13 0 13 13q0 12 -13 12zM1083 355q-12 0 -12 -12q0 -13 12 -13q13 0 13 13q0 12 -13 12zM528 232q0 44 -43 44q-42 0 -42 -44t42 -44q43 0 43 44zM766 249l7 17
q-23 10 -38 10q-13 0 -20.5 -7.5t-7.5 -18.5q0 -20 24 -27q18 -4 18 -10t-7 -6q-13 0 -30 10l-9 -17q16 -12 40 -12q31 0 31 26q0 19 -23 27q-21 7 -21 11q0 5 8 5q7 0 28 -8zM898 197l-8 18q-15 -7 -27 -7q-20 0 -20 24q0 23 21 23q11 0 24 -4l6 16q-14 9 -31 9
q-43 0 -43 -44t42 -44q16 0 36 9zM987 232q0 44 -43 44q-20 0 -31.5 -11.5t-11.5 -32.5q0 -44 43 -44t43 44zM254 189h24l-4 85h-25l-20 -46q-1 -2 -1 -6l-3 6l-19 46h-26l-3 -85h24v49l20 -49h13l20 49v-49zM338 216l31 58h-24l-14 -27q-1 -1 -2.5 -5t-2.5 -5q-1 1 -2.5 5
t-2.5 5l-14 27h-24l32 -58v-27h23v27zM398 237v16h38v21h-61v-85h23v28h33v20h-33zM617 189v85h-23v-48l-36 48h-20v-85h23v48l36 -48h20zM700 253v21h-75v-21h27v-64h22v64h26zM1073 189h25l-4 85h-26l-19 -46q0 -1 -0.5 -3t-1.5 -3q0 2 -2 6l-20 46h-25l-3 -85h23v49
l20 -49h13l20 49v-49zM505 232q0 -24 -20 -24t-20 24q0 23 20 23t20 -23zM964 232q0 -24 -20 -24t-20 24q0 23 20 23t20 -23zM800 213q-12 0 -12 -12q0 -13 12 -13q13 0 13 13q0 12 -13 12z" />
    <glyph glyph-name="at" unicode="@" 
d="M1221 525h-1151v-451h1151v451zM108 487h1075v-375h-1075v375zM826 391l7 16q-20 10 -39 10q-13 0 -20.5 -7t-7.5 -18q0 -20 24 -27q19 -4 19 -10t-8 -6q-11 0 -30 10l-8 -17q17 -12 40 -12q31 0 31 26q0 19 -23 26q-22 7 -22 11q0 6 8 6t29 -8zM964 373q0 44 -43 44
t-43 -44q0 -43 43 -43t43 43zM208 378v17h38v21h-61v-85h23v27h33v20h-33zM334 416h-23v-44q0 -22 -17 -22q-15 0 -15 22v44h-23v-44q0 -42 38 -42q40 0 40 42v44zM407 331v21h-38v64h-22v-85h60zM478 331v21h-38v64h-22v-85h60zM569 331l32 85h-24l-18 -54l-3 -8q-2 6 -2 8
l-18 54h-25l33 -85h25zM672 331v21h-41v11h33v19h-33v13h39v21h-62v-85h64zM683 416v-85h22v26h11q8 0 17 -26h26q-9 28 -19 34q15 3 15 22q0 29 -37 29h-35zM868 331v85h-23v-85h23zM1053 331v85h-23v-49l-36 49h-20v-85h22v48l36 -48h21zM705 375v22h14q15 0 15 -11
t-14 -11h-15zM941 373q0 -23 -20 -23t-20 23q0 24 20 24t20 -24zM1083 397q-12 0 -12 -12q0 -13 12 -13q13 0 13 13q0 12 -13 12zM1083 355q-12 0 -12 -12q0 -13 12 -13q13 0 13 13q0 12 -13 12zM528 232q0 44 -43 44q-42 0 -42 -44t42 -44q43 0 43 44zM766 249l7 17
q-23 10 -38 10q-13 0 -20.5 -7.5t-7.5 -18.5q0 -20 24 -27q18 -4 18 -10t-7 -6q-13 0 -30 10l-9 -17q16 -12 40 -12q31 0 31 26q0 19 -23 27q-21 7 -21 11q0 5 8 5q7 0 28 -8zM898 197l-8 18q-15 -7 -27 -7q-20 0 -20 24q0 23 21 23q11 0 24 -4l6 16q-14 9 -31 9
q-43 0 -43 -44t42 -44q16 0 36 9zM987 232q0 44 -43 44q-20 0 -31.5 -11.5t-11.5 -32.5q0 -44 43 -44t43 44zM254 189h24l-4 85h-25l-20 -46q-1 -2 -1 -6l-3 6l-19 46h-26l-3 -85h24v49l20 -49h13l20 49v-49zM338 216l31 58h-24l-14 -27q-1 -1 -2.5 -5t-2.5 -5q-1 1 -2.5 5
t-2.5 5l-14 27h-24l32 -58v-27h23v27zM398 237v16h38v21h-61v-85h23v28h33v20h-33zM617 189v85h-23v-48l-36 48h-20v-85h23v48l36 -48h20zM700 253v21h-75v-21h27v-64h22v64h26zM1073 189h25l-4 85h-26l-19 -46q0 -1 -0.5 -3t-1.5 -3q0 2 -2 6l-20 46h-25l-3 -85h23v49
l20 -49h13l20 49v-49zM505 232q0 -24 -20 -24t-20 24q0 23 20 23t20 -23zM964 232q0 -24 -20 -24t-20 24q0 23 20 23t20 -23zM800 213q-12 0 -12 -12q0 -13 12 -13q13 0 13 13q0 12 -13 12z" />
    <glyph glyph-name="A" unicode="A" horiz-adv-x="707" 
d="M234 91l-29 -91h-198l219 610h255l219 -610h-197l-30 91h-239zM420 250l-48 146q-5 15 -19 64q-6 -25 -18 -64l-49 -146h134z" />
    <glyph glyph-name="B" unicode="B" horiz-adv-x="615" 
d="M49 610h264q115 0 177 -45.5t62 -129.5t-86 -118q125 -33 125 -151q0 -80 -70.5 -123t-200.5 -43h-271v610zM236 371h89q50 0 50 47q0 46 -62 46h-77v-93zM236 148h86q76 0 76 54q0 50 -73 50h-89v-104z" />
    <glyph glyph-name="C" unicode="C" horiz-adv-x="609" 
d="M538 199l60 -139q-134 -69 -262 -69q-143 0 -225 82t-82 230q0 151 84 234t233 83q120 0 231 -55l-55 -141q-113 29 -168 29q-136 0 -136 -150q1 -68 35 -106.5t92 -38.5q82 0 193 41z" />
    <glyph glyph-name="D" unicode="D" horiz-adv-x="657" 
d="M49 610h238q164 0 252.5 -79.5t88.5 -225.5t-88.5 -225.5t-252.5 -79.5h-238v610zM236 159h51q73 0 112.5 38t39.5 108t-39.5 108.5t-112.5 38.5h-51v-293z" />
    <glyph glyph-name="E" unicode="E" horiz-adv-x="558" 
d="M520 0h-471v610h463v-156h-278v-78h236v-146h-236v-73h286v-157z" />
    <glyph glyph-name="F" unicode="F" horiz-adv-x="528" 
d="M234 340h231v-161h-231v-179h-185v610h456v-169h-271v-101z" />
    <glyph glyph-name="G" unicode="G" horiz-adv-x="675" 
d="M635 354v-283q-155 -80 -301 -80q-141 0 -223 82t-82 230q1 147 83 232t225 85q142 0 271 -55l-45 -139q-131 31 -208 31q-64 0 -100 -41t-36 -113t33 -111.5t91 -39.5q70 0 131 18v49h-137v135h298z" />
    <glyph glyph-name="H" unicode="H" horiz-adv-x="669" 
d="M620 0h-187v221h-197v-221h-187v610h187v-219h197v219h187v-610z" />
    <glyph glyph-name="I" unicode="I" horiz-adv-x="285" 
d="M236 0h-187v610h187v-610z" />
    <glyph glyph-name="J" unicode="J" horiz-adv-x="487" 
d="M431 610v-364q0 -135 -49.5 -195t-163.5 -60q-98 0 -210 55l42 129q77 -21 124 -21q71 0 71 92v364h186z" />
    <glyph glyph-name="K" unicode="K" horiz-adv-x="660" 
d="M316 205l-80 -99v-106h-187v610h187v-243l198 243h200v-13l-190 -233l197 -346v-18h-208z" />
    <glyph glyph-name="L" unicode="L" horiz-adv-x="525" 
d="M498 0h-449v610h187v-440h262v-170z" />
    <glyph glyph-name="M" unicode="M" horiz-adv-x="836" 
d="M602 0l-4 286v30l-126 -316h-108l-124 316v-25l-7 -291h-185l25 610h207l122 -294q8 -17 16 -48q9 32 15 48l123 294h208l25 -610h-187z" />
    <glyph glyph-name="N" unicode="N" horiz-adv-x="683" 
d="M634 0h-169l-229 309v-309h-187v610h169l229 -309v309h187v-610z" />
    <glyph glyph-name="O" unicode="O" horiz-adv-x="689" 
d="M344 620q148 0 231.5 -83t83.5 -234q0 -149 -83.5 -230.5t-231.5 -81.5t-231.5 81.5t-83.5 230.5q0 151 83.5 234t231.5 83zM344 158q60 0 93 36.5t33 108.5q0 74 -33 112t-93 38t-93 -38t-33 -112q0 -71 33 -108t93 -37z" />
    <glyph glyph-name="P" unicode="P" horiz-adv-x="597" 
d="M49 610h255q132 0 203.5 -62.5t71.5 -177.5t-71 -177.5t-201 -62.5h-71v-130h-187v610zM236 282h71q43 0 67 23t24 65q0 39 -24.5 60t-70.5 21h-67v-169z" />
    <glyph glyph-name="Q" unicode="Q" horiz-adv-x="671" 
d="M642 303q0 -150 -80 -231t-226 -81q-147 0 -227 81t-80 231q0 152 80 234.5t227 82.5q146 0 226 -82.5t80 -234.5zM218 303q0 -145 118 -145q117 0 117 145q0 150 -117 150q-118 0 -118 -150zM255 -141l27 107q96 -18 155 -23.5t153 -5.5v-143q-159 0 -335 65z" />
    <glyph glyph-name="R" unicode="R" horiz-adv-x="615" 
d="M49 610h262q132 0 203.5 -60t71.5 -171q0 -134 -100 -192l121 -166v-21h-199l-112 153h-60v-153h-187v610zM236 302h87q38 0 58.5 20t20.5 57q0 36 -23 55.5t-66 19.5h-77v-152z" />
    <glyph glyph-name="S" unicode="S" horiz-adv-x="577" 
d="M543 575l-47 -141q-131 38 -202 37q-47 0 -47 -27q0 -9 4 -14.5t16 -11t24 -9.5l39.5 -13l51.5 -17q40 -14 64.5 -26t50.5 -33t38 -52t12 -73q0 -98 -63.5 -151t-173.5 -53q-145 0 -288 81l62 142q134 -69 217 -69q44 0 44 31q0 15 -16 23.5t-73 26.5l-43 14
q-90 30 -129 70.5t-39 116.5q0 97 59 145t167 48q132 0 272 -45z" />
    <glyph glyph-name="T" unicode="T" horiz-adv-x="586" 
d="M567 441h-181v-441h-186v441h-181v169h548v-169z" />
    <glyph glyph-name="U" unicode="U" horiz-adv-x="662" 
d="M616 610v-315q0 -156 -70 -230t-215 -74q-144 0 -214 74.5t-70 229.5v315h186v-315q0 -134 98 -134q50 0 74.5 32t24.5 102v315h186z" />
    <glyph glyph-name="V" unicode="V" horiz-adv-x="682" 
d="M448 0h-214l-227 610h209l106 -346q7 -22 19 -68q12 46 19 68l115 346h200z" />
    <glyph glyph-name="W" unicode="W" horiz-adv-x="942" 
d="M770 0h-222l-59 235q-8 36 -18 101q-10 -65 -18 -101l-58 -235h-223l-155 610h197l72 -337q8 -42 10 -71l12 71l63 337h201l63 -337l10 -70q6 48 11 71l72 336h197z" />
    <glyph glyph-name="X" unicode="X" horiz-adv-x="672" 
d="M664 0h-203l-106 163l-19 31l-19 -31l-106 -163h-203l185 306l-184 304h207l101 -155l19 -30q12 20 19 30l101 155h207l-184 -304z" />
    <glyph glyph-name="Y" unicode="Y" horiz-adv-x="657" 
d="M422 186v-186h-186v186l-229 424h196l84 -161q22 -41 42 -88q17 44 41 88l85 161h195z" />
    <glyph glyph-name="Z" unicode="Z" horiz-adv-x="611" 
d="M38 0v136l287 313q-77 -5 -138 -5h-126v166h512v-145l-264 -304q115 5 133 5h135v-166h-539z" />
    <glyph glyph-name="bracketleft" unicode="[" 
d="M1221 525h-1151v-451h1151v451zM108 487h1075v-375h-1075v375zM826 391l7 16q-20 10 -39 10q-13 0 -20.5 -7t-7.5 -18q0 -20 24 -27q19 -4 19 -10t-8 -6q-11 0 -30 10l-8 -17q17 -12 40 -12q31 0 31 26q0 19 -23 26q-22 7 -22 11q0 6 8 6t29 -8zM964 373q0 44 -43 44
t-43 -44q0 -43 43 -43t43 43zM208 378v17h38v21h-61v-85h23v27h33v20h-33zM334 416h-23v-44q0 -22 -17 -22q-15 0 -15 22v44h-23v-44q0 -42 38 -42q40 0 40 42v44zM407 331v21h-38v64h-22v-85h60zM478 331v21h-38v64h-22v-85h60zM569 331l32 85h-24l-18 -54l-3 -8q-2 6 -2 8
l-18 54h-25l33 -85h25zM672 331v21h-41v11h33v19h-33v13h39v21h-62v-85h64zM683 416v-85h22v26h11q8 0 17 -26h26q-9 28 -19 34q15 3 15 22q0 29 -37 29h-35zM868 331v85h-23v-85h23zM1053 331v85h-23v-49l-36 49h-20v-85h22v48l36 -48h21zM705 375v22h14q15 0 15 -11
t-14 -11h-15zM941 373q0 -23 -20 -23t-20 23q0 24 20 24t20 -24zM1083 397q-12 0 -12 -12q0 -13 12 -13q13 0 13 13q0 12 -13 12zM1083 355q-12 0 -12 -12q0 -13 12 -13q13 0 13 13q0 12 -13 12zM528 232q0 44 -43 44q-42 0 -42 -44t42 -44q43 0 43 44zM766 249l7 17
q-23 10 -38 10q-13 0 -20.5 -7.5t-7.5 -18.5q0 -20 24 -27q18 -4 18 -10t-7 -6q-13 0 -30 10l-9 -17q16 -12 40 -12q31 0 31 26q0 19 -23 27q-21 7 -21 11q0 5 8 5q7 0 28 -8zM898 197l-8 18q-15 -7 -27 -7q-20 0 -20 24q0 23 21 23q11 0 24 -4l6 16q-14 9 -31 9
q-43 0 -43 -44t42 -44q16 0 36 9zM987 232q0 44 -43 44q-20 0 -31.5 -11.5t-11.5 -32.5q0 -44 43 -44t43 44zM254 189h24l-4 85h-25l-20 -46q-1 -2 -1 -6l-3 6l-19 46h-26l-3 -85h24v49l20 -49h13l20 49v-49zM338 216l31 58h-24l-14 -27q-1 -1 -2.5 -5t-2.5 -5q-1 1 -2.5 5
t-2.5 5l-14 27h-24l32 -58v-27h23v27zM398 237v16h38v21h-61v-85h23v28h33v20h-33zM617 189v85h-23v-48l-36 48h-20v-85h23v48l36 -48h20zM700 253v21h-75v-21h27v-64h22v64h26zM1073 189h25l-4 85h-26l-19 -46q0 -1 -0.5 -3t-1.5 -3q0 2 -2 6l-20 46h-25l-3 -85h23v49
l20 -49h13l20 49v-49zM505 232q0 -24 -20 -24t-20 24q0 23 20 23t20 -23zM964 232q0 -24 -20 -24t-20 24q0 23 20 23t20 -23zM800 213q-12 0 -12 -12q0 -13 12 -13q13 0 13 13q0 12 -13 12z" />
    <glyph glyph-name="backslash" unicode="\" 
d="M1221 525h-1151v-451h1151v451zM108 487h1075v-375h-1075v375zM826 391l7 16q-20 10 -39 10q-13 0 -20.5 -7t-7.5 -18q0 -20 24 -27q19 -4 19 -10t-8 -6q-11 0 -30 10l-8 -17q17 -12 40 -12q31 0 31 26q0 19 -23 26q-22 7 -22 11q0 6 8 6t29 -8zM964 373q0 44 -43 44
t-43 -44q0 -43 43 -43t43 43zM208 378v17h38v21h-61v-85h23v27h33v20h-33zM334 416h-23v-44q0 -22 -17 -22q-15 0 -15 22v44h-23v-44q0 -42 38 -42q40 0 40 42v44zM407 331v21h-38v64h-22v-85h60zM478 331v21h-38v64h-22v-85h60zM569 331l32 85h-24l-18 -54l-3 -8q-2 6 -2 8
l-18 54h-25l33 -85h25zM672 331v21h-41v11h33v19h-33v13h39v21h-62v-85h64zM683 416v-85h22v26h11q8 0 17 -26h26q-9 28 -19 34q15 3 15 22q0 29 -37 29h-35zM868 331v85h-23v-85h23zM1053 331v85h-23v-49l-36 49h-20v-85h22v48l36 -48h21zM705 375v22h14q15 0 15 -11
t-14 -11h-15zM941 373q0 -23 -20 -23t-20 23q0 24 20 24t20 -24zM1083 397q-12 0 -12 -12q0 -13 12 -13q13 0 13 13q0 12 -13 12zM1083 355q-12 0 -12 -12q0 -13 12 -13q13 0 13 13q0 12 -13 12zM528 232q0 44 -43 44q-42 0 -42 -44t42 -44q43 0 43 44zM766 249l7 17
q-23 10 -38 10q-13 0 -20.5 -7.5t-7.5 -18.5q0 -20 24 -27q18 -4 18 -10t-7 -6q-13 0 -30 10l-9 -17q16 -12 40 -12q31 0 31 26q0 19 -23 27q-21 7 -21 11q0 5 8 5q7 0 28 -8zM898 197l-8 18q-15 -7 -27 -7q-20 0 -20 24q0 23 21 23q11 0 24 -4l6 16q-14 9 -31 9
q-43 0 -43 -44t42 -44q16 0 36 9zM987 232q0 44 -43 44q-20 0 -31.5 -11.5t-11.5 -32.5q0 -44 43 -44t43 44zM254 189h24l-4 85h-25l-20 -46q-1 -2 -1 -6l-3 6l-19 46h-26l-3 -85h24v49l20 -49h13l20 49v-49zM338 216l31 58h-24l-14 -27q-1 -1 -2.5 -5t-2.5 -5q-1 1 -2.5 5
t-2.5 5l-14 27h-24l32 -58v-27h23v27zM398 237v16h38v21h-61v-85h23v28h33v20h-33zM617 189v85h-23v-48l-36 48h-20v-85h23v48l36 -48h20zM700 253v21h-75v-21h27v-64h22v64h26zM1073 189h25l-4 85h-26l-19 -46q0 -1 -0.5 -3t-1.5 -3q0 2 -2 6l-20 46h-25l-3 -85h23v49
l20 -49h13l20 49v-49zM505 232q0 -24 -20 -24t-20 24q0 23 20 23t20 -23zM964 232q0 -24 -20 -24t-20 24q0 23 20 23t20 -23zM800 213q-12 0 -12 -12q0 -13 12 -13q13 0 13 13q0 12 -13 12z" />
    <glyph glyph-name="bracketright" unicode="]" 
d="M1221 525h-1151v-451h1151v451zM108 487h1075v-375h-1075v375zM826 391l7 16q-20 10 -39 10q-13 0 -20.5 -7t-7.5 -18q0 -20 24 -27q19 -4 19 -10t-8 -6q-11 0 -30 10l-8 -17q17 -12 40 -12q31 0 31 26q0 19 -23 26q-22 7 -22 11q0 6 8 6t29 -8zM964 373q0 44 -43 44
t-43 -44q0 -43 43 -43t43 43zM208 378v17h38v21h-61v-85h23v27h33v20h-33zM334 416h-23v-44q0 -22 -17 -22q-15 0 -15 22v44h-23v-44q0 -42 38 -42q40 0 40 42v44zM407 331v21h-38v64h-22v-85h60zM478 331v21h-38v64h-22v-85h60zM569 331l32 85h-24l-18 -54l-3 -8q-2 6 -2 8
l-18 54h-25l33 -85h25zM672 331v21h-41v11h33v19h-33v13h39v21h-62v-85h64zM683 416v-85h22v26h11q8 0 17 -26h26q-9 28 -19 34q15 3 15 22q0 29 -37 29h-35zM868 331v85h-23v-85h23zM1053 331v85h-23v-49l-36 49h-20v-85h22v48l36 -48h21zM705 375v22h14q15 0 15 -11
t-14 -11h-15zM941 373q0 -23 -20 -23t-20 23q0 24 20 24t20 -24zM1083 397q-12 0 -12 -12q0 -13 12 -13q13 0 13 13q0 12 -13 12zM1083 355q-12 0 -12 -12q0 -13 12 -13q13 0 13 13q0 12 -13 12zM528 232q0 44 -43 44q-42 0 -42 -44t42 -44q43 0 43 44zM766 249l7 17
q-23 10 -38 10q-13 0 -20.5 -7.5t-7.5 -18.5q0 -20 24 -27q18 -4 18 -10t-7 -6q-13 0 -30 10l-9 -17q16 -12 40 -12q31 0 31 26q0 19 -23 27q-21 7 -21 11q0 5 8 5q7 0 28 -8zM898 197l-8 18q-15 -7 -27 -7q-20 0 -20 24q0 23 21 23q11 0 24 -4l6 16q-14 9 -31 9
q-43 0 -43 -44t42 -44q16 0 36 9zM987 232q0 44 -43 44q-20 0 -31.5 -11.5t-11.5 -32.5q0 -44 43 -44t43 44zM254 189h24l-4 85h-25l-20 -46q-1 -2 -1 -6l-3 6l-19 46h-26l-3 -85h24v49l20 -49h13l20 49v-49zM338 216l31 58h-24l-14 -27q-1 -1 -2.5 -5t-2.5 -5q-1 1 -2.5 5
t-2.5 5l-14 27h-24l32 -58v-27h23v27zM398 237v16h38v21h-61v-85h23v28h33v20h-33zM617 189v85h-23v-48l-36 48h-20v-85h23v48l36 -48h20zM700 253v21h-75v-21h27v-64h22v64h26zM1073 189h25l-4 85h-26l-19 -46q0 -1 -0.5 -3t-1.5 -3q0 2 -2 6l-20 46h-25l-3 -85h23v49
l20 -49h13l20 49v-49zM505 232q0 -24 -20 -24t-20 24q0 23 20 23t20 -23zM964 232q0 -24 -20 -24t-20 24q0 23 20 23t20 -23zM800 213q-12 0 -12 -12q0 -13 12 -13q13 0 13 13q0 12 -13 12z" />
    <glyph glyph-name="underscore" unicode="_" 
d="M1221 525h-1151v-451h1151v451zM108 487h1075v-375h-1075v375zM826 391l7 16q-20 10 -39 10q-13 0 -20.5 -7t-7.5 -18q0 -20 24 -27q19 -4 19 -10t-8 -6q-11 0 -30 10l-8 -17q17 -12 40 -12q31 0 31 26q0 19 -23 26q-22 7 -22 11q0 6 8 6t29 -8zM964 373q0 44 -43 44
t-43 -44q0 -43 43 -43t43 43zM208 378v17h38v21h-61v-85h23v27h33v20h-33zM334 416h-23v-44q0 -22 -17 -22q-15 0 -15 22v44h-23v-44q0 -42 38 -42q40 0 40 42v44zM407 331v21h-38v64h-22v-85h60zM478 331v21h-38v64h-22v-85h60zM569 331l32 85h-24l-18 -54l-3 -8q-2 6 -2 8
l-18 54h-25l33 -85h25zM672 331v21h-41v11h33v19h-33v13h39v21h-62v-85h64zM683 416v-85h22v26h11q8 0 17 -26h26q-9 28 -19 34q15 3 15 22q0 29 -37 29h-35zM868 331v85h-23v-85h23zM1053 331v85h-23v-49l-36 49h-20v-85h22v48l36 -48h21zM705 375v22h14q15 0 15 -11
t-14 -11h-15zM941 373q0 -23 -20 -23t-20 23q0 24 20 24t20 -24zM1083 397q-12 0 -12 -12q0 -13 12 -13q13 0 13 13q0 12 -13 12zM1083 355q-12 0 -12 -12q0 -13 12 -13q13 0 13 13q0 12 -13 12zM528 232q0 44 -43 44q-42 0 -42 -44t42 -44q43 0 43 44zM766 249l7 17
q-23 10 -38 10q-13 0 -20.5 -7.5t-7.5 -18.5q0 -20 24 -27q18 -4 18 -10t-7 -6q-13 0 -30 10l-9 -17q16 -12 40 -12q31 0 31 26q0 19 -23 27q-21 7 -21 11q0 5 8 5q7 0 28 -8zM898 197l-8 18q-15 -7 -27 -7q-20 0 -20 24q0 23 21 23q11 0 24 -4l6 16q-14 9 -31 9
q-43 0 -43 -44t42 -44q16 0 36 9zM987 232q0 44 -43 44q-20 0 -31.5 -11.5t-11.5 -32.5q0 -44 43 -44t43 44zM254 189h24l-4 85h-25l-20 -46q-1 -2 -1 -6l-3 6l-19 46h-26l-3 -85h24v49l20 -49h13l20 49v-49zM338 216l31 58h-24l-14 -27q-1 -1 -2.5 -5t-2.5 -5q-1 1 -2.5 5
t-2.5 5l-14 27h-24l32 -58v-27h23v27zM398 237v16h38v21h-61v-85h23v28h33v20h-33zM617 189v85h-23v-48l-36 48h-20v-85h23v48l36 -48h20zM700 253v21h-75v-21h27v-64h22v64h26zM1073 189h25l-4 85h-26l-19 -46q0 -1 -0.5 -3t-1.5 -3q0 2 -2 6l-20 46h-25l-3 -85h23v49
l20 -49h13l20 49v-49zM505 232q0 -24 -20 -24t-20 24q0 23 20 23t20 -23zM964 232q0 -24 -20 -24t-20 24q0 23 20 23t20 -23zM800 213q-12 0 -12 -12q0 -13 12 -13q13 0 13 13q0 12 -13 12z" />
    <glyph glyph-name="a" unicode="a" horiz-adv-x="531" 
d="M95 338l-27 120q140 38 216 38q109 0 157.5 -47t48.5 -153v-296h-179v57q-58 -66 -132 -66q-80 0 -119.5 34.5t-39.5 119.5q0 151 206 151h85q0 33 -13 48t-48 15q-53 0 -155 -21zM311 211h-60q-63 0 -63 -43q0 -22 14.5 -34.5t37.5 -12.5q37 0 71 29v61z" />
    <glyph glyph-name="b" unicode="b" horiz-adv-x="576" 
d="M223 643v-216q68 68 149 68q91 0 135.5 -59.5t44.5 -186.5q0 -129 -54 -193.5t-136 -64.5q-51 0 -79 14.5t-60 49.5v-55h-181v643h181zM223 297v-113q30 -44 78 -44q72 0 72 109q0 95 -68 95q-46 0 -82 -47z" />
    <glyph glyph-name="c" unicode="c" horiz-adv-x="489" 
d="M427 170l54 -107q-52 -38 -102.5 -55t-119.5 -17q-102 0 -169.5 66.5t-67.5 183.5q0 122 65 188.5t173 66.5q111 0 204 -53l-49 -115q-69 26 -129 26q-40 0 -63 -30t-23 -83q0 -50 22.5 -79t62.5 -29q66 0 142 37z" />
    <glyph glyph-name="d" unicode="d" horiz-adv-x="577" 
d="M535 0h-181v55q-32 -35 -60 -49.5t-79 -14.5q-82 0 -136 64.5t-54 193.5q0 125 47 186t133 61q88 0 149 -61v208h181v-643zM354 184v113q-36 47 -82 47q-69 0 -69 -95q0 -108 72 -108q49 0 79 43z" />
    <glyph glyph-name="e" unicode="e" horiz-adv-x="531" 
d="M454 172l51 -103q-111 -78 -230 -78q-117 0 -183.5 64t-66.5 185q0 124 65.5 190t184.5 66q107 0 168.5 -61t61.5 -173q0 -30 -4 -67h-301q7 -34 26.5 -49.5t56.5 -15.5q81 0 171 42zM199 291h149q-3 81 -73 81q-64 0 -76 -81z" />
    <glyph glyph-name="f" unicode="f" horiz-adv-x="383" 
d="M72 487v10q0 99 49 144.5t155 45.5q54 0 108 -12l-12 -124l-61 1q-32 0 -45 -14.5t-13 -42.5v-8h116v-150h-116v-337h-181v337h-64v150h64z" />
    <glyph glyph-name="g" unicode="g" horiz-adv-x="574" 
d="M534 487v-399q0 -141 -62.5 -204t-192.5 -63q-122 0 -215 38l24 119q97 -21 165 -21q50 0 74 26t26 90q-31 -30 -63 -41t-84 -11q-86 0 -133.5 60.5t-47.5 175.5q0 239 180 239q71 0 148 -58v49h181zM353 197v108q-42 39 -81 39q-36 0 -52.5 -20t-16.5 -67
q0 -52 17.5 -74t54.5 -22q42 0 78 36z" />
    <glyph glyph-name="h" unicode="h" horiz-adv-x="570" 
d="M223 643v-226q91 78 166 78q76 0 108.5 -43t32.5 -142v-310h-181v253q0 39 -9 53t-36 14q-41 0 -81 -45v-275h-181v643h181z" />
    <glyph glyph-name="i" unicode="i" horiz-adv-x="281" 
d="M38 628q0 44 29.5 68.5t72.5 24.5t72.5 -24.5t29.5 -68.5t-30 -68t-72 -24t-72 24t-30 68zM231 0h-181v487h181v-487z" />
    <glyph glyph-name="j" unicode="j" horiz-adv-x="281" 
d="M139 536q-42 0 -72 24t-30 68t29.5 68.5t72.5 24.5t72.5 -24.5t29.5 -68.5t-30 -68t-72 -24zM231 487v-419q0 -103 -47 -162.5t-165 -84.5l-36 122q41 21 54 48t13 77v419h181z" />
    <glyph glyph-name="k" unicode="k" horiz-adv-x="569" 
d="M223 643v-308l134 152h195v-14l-171 -197l178 -261v-15h-198l-95 144l-43 -49v-95h-181v643h181z" />
    <glyph glyph-name="l" unicode="l" horiz-adv-x="265" 
d="M223 0h-181v643h181v-643z" />
    <glyph glyph-name="m" unicode="m" horiz-adv-x="846" 
d="M223 487v-66q80 74 152 74q101 0 128 -83q89 83 164 83t107.5 -43t32.5 -142v-310h-181v258q0 67 -42 67q-32 0 -68 -40v-285h-181v258q0 67 -43 67q-33 0 -69 -41v-284h-181v487h181z" />
    <glyph glyph-name="n" unicode="n" horiz-adv-x="570" 
d="M223 487v-65q93 73 166 73q76 0 108.5 -43t32.5 -142v-310h-181v258q0 39 -9 53t-36 14q-41 0 -81 -45v-280h-181v487h181z" />
    <glyph glyph-name="o" unicode="o" horiz-adv-x="562" 
d="M281 496q121 0 188.5 -66.5t67.5 -188.5q0 -119 -67.5 -184.5t-188.5 -65.5t-188.5 65.5t-67.5 184.5q0 122 67.5 188.5t188.5 66.5zM281 133q79 0 79 108q0 61 -20 87t-59 26t-59 -26t-20 -87q0 -58 20 -83t59 -25z" />
    <glyph glyph-name="p" unicode="p" horiz-adv-x="576" 
d="M223 487v-55q70 63 149 63q91 0 135.5 -59.5t44.5 -187.5q0 -129 -54 -193t-136 -64q-51 0 -79 14.5t-60 49.5v-207h-181v639h181zM223 297v-113q30 -44 78 -44q72 0 72 109q0 95 -68 95q-46 0 -82 -47z" />
    <glyph glyph-name="q" unicode="q" horiz-adv-x="576" 
d="M534 -152h-181v207q-32 -35 -59.5 -49.5t-78.5 -14.5q-82 0 -136 64.5t-54 193.5q0 127 45 187t135 60q78 0 148 -64v55h181v-639zM353 184v113q-36 47 -81 47q-68 0 -68 -95q0 -108 71 -108q50 0 78 43z" />
    <glyph glyph-name="r" unicode="r" horiz-adv-x="417" 
d="M223 487v-94q27 54 57 78t70 24q33 0 60 -3l-12 -184q-24 2 -57 2q-48 0 -76.5 -17.5t-41.5 -66.5v-226h-181v487h181z" />
    <glyph glyph-name="s" unicode="s" horiz-adv-x="483" 
d="M453 463l-43 -126q-103 31 -165 31q-30 0 -30 -20q0 -13 12 -19t51 -16l48 -13q70 -21 100.5 -53.5t30.5 -90.5q0 -79 -54.5 -122t-146.5 -43q-112 0 -238 62l44 122q118 -54 181 -54q34 0 34 18q0 12 -13.5 18.5t-52.5 17.5q-22 6 -35 10q-70 21 -100.5 56t-30.5 97
q0 72 48 115t129 43q114 0 231 -33z" />
    <glyph glyph-name="t" unicode="t" horiz-adv-x="404" 
d="M373 137l18 -109q-58 -36 -150 -36q-88 0 -127.5 44.5t-39.5 148.5v152h-66v149h66v104h181v-104h114v-149h-114v-144q0 -29 12 -43t44 -14q39 0 62 1z" />
    <glyph glyph-name="u" unicode="u" horiz-adv-x="573" 
d="M529 0h-181v57q-4 -3 -17.5 -12t-17 -11t-14.5 -9.5t-15 -9t-13.5 -7t-14 -6.5t-13 -4.5t-14.5 -4t-14 -1.5t-16 -1q-78 0 -118 44.5t-40 141.5v310h181v-262q0 -39 9 -53.5t36 -14.5q42 0 81 46v284h181v-487z" />
    <glyph glyph-name="v" unicode="v" horiz-adv-x="576" 
d="M388 0h-199l-181 486h187l73 -221q11 -37 20 -72l21 72l73 221h187z" />
    <glyph glyph-name="w" unicode="w" horiz-adv-x="785" 
d="M652 0h-201l-58 235l-59 -235h-200l-127 486h178l60 -255q1 -3 6 -49q7 36 10 49l68 255h126l69 -255q0 -3 4 -23t5 -30q4 36 8 53l59 255h178z" />
    <glyph glyph-name="x" unicode="x" horiz-adv-x="557" 
d="M200 487l68 -110l11 -19l5.5 10.5t4.5 8.5l68 109h193l-153 -242l154 -244h-189l-73 110l-10 19q-1 -2 -5 -8.5t-6 -10.5l-73 -110h-189l154 244l-153 243h193z" />
    <glyph glyph-name="y" unicode="y" horiz-adv-x="569" 
d="M375 486h192q-91 -282 -149 -393q-52 -98 -125.5 -161.5t-181.5 -98.5l-59 136q78 33 121 75l-172 442h187l73 -198l22 -75q44 94 92 273z" />
    <glyph glyph-name="z" unicode="z" horiz-adv-x="535" 
d="M499 0h-463v114l213 231q-11 0 -32.5 -1t-38 -1.5t-28.5 -0.5h-105v144h442v-110l-203 -236q65 3 110 3h105v-143z" />
    <glyph glyph-name="braceleft" unicode="{" 
d="M1221 525h-1151v-451h1151v451zM108 487h1075v-375h-1075v375zM826 391l7 16q-20 10 -39 10q-13 0 -20.5 -7t-7.5 -18q0 -20 24 -27q19 -4 19 -10t-8 -6q-11 0 -30 10l-8 -17q17 -12 40 -12q31 0 31 26q0 19 -23 26q-22 7 -22 11q0 6 8 6t29 -8zM964 373q0 44 -43 44
t-43 -44q0 -43 43 -43t43 43zM208 378v17h38v21h-61v-85h23v27h33v20h-33zM334 416h-23v-44q0 -22 -17 -22q-15 0 -15 22v44h-23v-44q0 -42 38 -42q40 0 40 42v44zM407 331v21h-38v64h-22v-85h60zM478 331v21h-38v64h-22v-85h60zM569 331l32 85h-24l-18 -54l-3 -8q-2 6 -2 8
l-18 54h-25l33 -85h25zM672 331v21h-41v11h33v19h-33v13h39v21h-62v-85h64zM683 416v-85h22v26h11q8 0 17 -26h26q-9 28 -19 34q15 3 15 22q0 29 -37 29h-35zM868 331v85h-23v-85h23zM1053 331v85h-23v-49l-36 49h-20v-85h22v48l36 -48h21zM705 375v22h14q15 0 15 -11
t-14 -11h-15zM941 373q0 -23 -20 -23t-20 23q0 24 20 24t20 -24zM1083 397q-12 0 -12 -12q0 -13 12 -13q13 0 13 13q0 12 -13 12zM1083 355q-12 0 -12 -12q0 -13 12 -13q13 0 13 13q0 12 -13 12zM528 232q0 44 -43 44q-42 0 -42 -44t42 -44q43 0 43 44zM766 249l7 17
q-23 10 -38 10q-13 0 -20.5 -7.5t-7.5 -18.5q0 -20 24 -27q18 -4 18 -10t-7 -6q-13 0 -30 10l-9 -17q16 -12 40 -12q31 0 31 26q0 19 -23 27q-21 7 -21 11q0 5 8 5q7 0 28 -8zM898 197l-8 18q-15 -7 -27 -7q-20 0 -20 24q0 23 21 23q11 0 24 -4l6 16q-14 9 -31 9
q-43 0 -43 -44t42 -44q16 0 36 9zM987 232q0 44 -43 44q-20 0 -31.5 -11.5t-11.5 -32.5q0 -44 43 -44t43 44zM254 189h24l-4 85h-25l-20 -46q-1 -2 -1 -6l-3 6l-19 46h-26l-3 -85h24v49l20 -49h13l20 49v-49zM338 216l31 58h-24l-14 -27q-1 -1 -2.5 -5t-2.5 -5q-1 1 -2.5 5
t-2.5 5l-14 27h-24l32 -58v-27h23v27zM398 237v16h38v21h-61v-85h23v28h33v20h-33zM617 189v85h-23v-48l-36 48h-20v-85h23v48l36 -48h20zM700 253v21h-75v-21h27v-64h22v64h26zM1073 189h25l-4 85h-26l-19 -46q0 -1 -0.5 -3t-1.5 -3q0 2 -2 6l-20 46h-25l-3 -85h23v49
l20 -49h13l20 49v-49zM505 232q0 -24 -20 -24t-20 24q0 23 20 23t20 -23zM964 232q0 -24 -20 -24t-20 24q0 23 20 23t20 -23zM800 213q-12 0 -12 -12q0 -13 12 -13q13 0 13 13q0 12 -13 12z" />
    <glyph glyph-name="braceright" unicode="}" 
d="M1221 525h-1151v-451h1151v451zM108 487h1075v-375h-1075v375zM826 391l7 16q-20 10 -39 10q-13 0 -20.5 -7t-7.5 -18q0 -20 24 -27q19 -4 19 -10t-8 -6q-11 0 -30 10l-8 -17q17 -12 40 -12q31 0 31 26q0 19 -23 26q-22 7 -22 11q0 6 8 6t29 -8zM964 373q0 44 -43 44
t-43 -44q0 -43 43 -43t43 43zM208 378v17h38v21h-61v-85h23v27h33v20h-33zM334 416h-23v-44q0 -22 -17 -22q-15 0 -15 22v44h-23v-44q0 -42 38 -42q40 0 40 42v44zM407 331v21h-38v64h-22v-85h60zM478 331v21h-38v64h-22v-85h60zM569 331l32 85h-24l-18 -54l-3 -8q-2 6 -2 8
l-18 54h-25l33 -85h25zM672 331v21h-41v11h33v19h-33v13h39v21h-62v-85h64zM683 416v-85h22v26h11q8 0 17 -26h26q-9 28 -19 34q15 3 15 22q0 29 -37 29h-35zM868 331v85h-23v-85h23zM1053 331v85h-23v-49l-36 49h-20v-85h22v48l36 -48h21zM705 375v22h14q15 0 15 -11
t-14 -11h-15zM941 373q0 -23 -20 -23t-20 23q0 24 20 24t20 -24zM1083 397q-12 0 -12 -12q0 -13 12 -13q13 0 13 13q0 12 -13 12zM1083 355q-12 0 -12 -12q0 -13 12 -13q13 0 13 13q0 12 -13 12zM528 232q0 44 -43 44q-42 0 -42 -44t42 -44q43 0 43 44zM766 249l7 17
q-23 10 -38 10q-13 0 -20.5 -7.5t-7.5 -18.5q0 -20 24 -27q18 -4 18 -10t-7 -6q-13 0 -30 10l-9 -17q16 -12 40 -12q31 0 31 26q0 19 -23 27q-21 7 -21 11q0 5 8 5q7 0 28 -8zM898 197l-8 18q-15 -7 -27 -7q-20 0 -20 24q0 23 21 23q11 0 24 -4l6 16q-14 9 -31 9
q-43 0 -43 -44t42 -44q16 0 36 9zM987 232q0 44 -43 44q-20 0 -31.5 -11.5t-11.5 -32.5q0 -44 43 -44t43 44zM254 189h24l-4 85h-25l-20 -46q-1 -2 -1 -6l-3 6l-19 46h-26l-3 -85h24v49l20 -49h13l20 49v-49zM338 216l31 58h-24l-14 -27q-1 -1 -2.5 -5t-2.5 -5q-1 1 -2.5 5
t-2.5 5l-14 27h-24l32 -58v-27h23v27zM398 237v16h38v21h-61v-85h23v28h33v20h-33zM617 189v85h-23v-48l-36 48h-20v-85h23v48l36 -48h20zM700 253v21h-75v-21h27v-64h22v64h26zM1073 189h25l-4 85h-26l-19 -46q0 -1 -0.5 -3t-1.5 -3q0 2 -2 6l-20 46h-25l-3 -85h23v49
l20 -49h13l20 49v-49zM505 232q0 -24 -20 -24t-20 24q0 23 20 23t20 -23zM964 232q0 -24 -20 -24t-20 24q0 23 20 23t20 -23zM800 213q-12 0 -12 -12q0 -13 12 -13q13 0 13 13q0 12 -13 12z" />
    <glyph glyph-name="exclamdown" unicode="&#xa1;" 
d="M1221 525h-1151v-451h1151v451zM108 487h1075v-375h-1075v375zM826 391l7 16q-20 10 -39 10q-13 0 -20.5 -7t-7.5 -18q0 -20 24 -27q19 -4 19 -10t-8 -6q-11 0 -30 10l-8 -17q17 -12 40 -12q31 0 31 26q0 19 -23 26q-22 7 -22 11q0 6 8 6t29 -8zM964 373q0 44 -43 44
t-43 -44q0 -43 43 -43t43 43zM208 378v17h38v21h-61v-85h23v27h33v20h-33zM334 416h-23v-44q0 -22 -17 -22q-15 0 -15 22v44h-23v-44q0 -42 38 -42q40 0 40 42v44zM407 331v21h-38v64h-22v-85h60zM478 331v21h-38v64h-22v-85h60zM569 331l32 85h-24l-18 -54l-3 -8q-2 6 -2 8
l-18 54h-25l33 -85h25zM672 331v21h-41v11h33v19h-33v13h39v21h-62v-85h64zM683 416v-85h22v26h11q8 0 17 -26h26q-9 28 -19 34q15 3 15 22q0 29 -37 29h-35zM868 331v85h-23v-85h23zM1053 331v85h-23v-49l-36 49h-20v-85h22v48l36 -48h21zM705 375v22h14q15 0 15 -11
t-14 -11h-15zM941 373q0 -23 -20 -23t-20 23q0 24 20 24t20 -24zM1083 397q-12 0 -12 -12q0 -13 12 -13q13 0 13 13q0 12 -13 12zM1083 355q-12 0 -12 -12q0 -13 12 -13q13 0 13 13q0 12 -13 12zM528 232q0 44 -43 44q-42 0 -42 -44t42 -44q43 0 43 44zM766 249l7 17
q-23 10 -38 10q-13 0 -20.5 -7.5t-7.5 -18.5q0 -20 24 -27q18 -4 18 -10t-7 -6q-13 0 -30 10l-9 -17q16 -12 40 -12q31 0 31 26q0 19 -23 27q-21 7 -21 11q0 5 8 5q7 0 28 -8zM898 197l-8 18q-15 -7 -27 -7q-20 0 -20 24q0 23 21 23q11 0 24 -4l6 16q-14 9 -31 9
q-43 0 -43 -44t42 -44q16 0 36 9zM987 232q0 44 -43 44q-20 0 -31.5 -11.5t-11.5 -32.5q0 -44 43 -44t43 44zM254 189h24l-4 85h-25l-20 -46q-1 -2 -1 -6l-3 6l-19 46h-26l-3 -85h24v49l20 -49h13l20 49v-49zM338 216l31 58h-24l-14 -27q-1 -1 -2.5 -5t-2.5 -5q-1 1 -2.5 5
t-2.5 5l-14 27h-24l32 -58v-27h23v27zM398 237v16h38v21h-61v-85h23v28h33v20h-33zM617 189v85h-23v-48l-36 48h-20v-85h23v48l36 -48h20zM700 253v21h-75v-21h27v-64h22v64h26zM1073 189h25l-4 85h-26l-19 -46q0 -1 -0.5 -3t-1.5 -3q0 2 -2 6l-20 46h-25l-3 -85h23v49
l20 -49h13l20 49v-49zM505 232q0 -24 -20 -24t-20 24q0 23 20 23t20 -23zM964 232q0 -24 -20 -24t-20 24q0 23 20 23t20 -23zM800 213q-12 0 -12 -12q0 -13 12 -13q13 0 13 13q0 12 -13 12z" />
    <glyph glyph-name="section" unicode="&#xa7;" 
d="M1221 525h-1151v-451h1151v451zM108 487h1075v-375h-1075v375zM826 391l7 16q-20 10 -39 10q-13 0 -20.5 -7t-7.5 -18q0 -20 24 -27q19 -4 19 -10t-8 -6q-11 0 -30 10l-8 -17q17 -12 40 -12q31 0 31 26q0 19 -23 26q-22 7 -22 11q0 6 8 6t29 -8zM964 373q0 44 -43 44
t-43 -44q0 -43 43 -43t43 43zM208 378v17h38v21h-61v-85h23v27h33v20h-33zM334 416h-23v-44q0 -22 -17 -22q-15 0 -15 22v44h-23v-44q0 -42 38 -42q40 0 40 42v44zM407 331v21h-38v64h-22v-85h60zM478 331v21h-38v64h-22v-85h60zM569 331l32 85h-24l-18 -54l-3 -8q-2 6 -2 8
l-18 54h-25l33 -85h25zM672 331v21h-41v11h33v19h-33v13h39v21h-62v-85h64zM683 416v-85h22v26h11q8 0 17 -26h26q-9 28 -19 34q15 3 15 22q0 29 -37 29h-35zM868 331v85h-23v-85h23zM1053 331v85h-23v-49l-36 49h-20v-85h22v48l36 -48h21zM705 375v22h14q15 0 15 -11
t-14 -11h-15zM941 373q0 -23 -20 -23t-20 23q0 24 20 24t20 -24zM1083 397q-12 0 -12 -12q0 -13 12 -13q13 0 13 13q0 12 -13 12zM1083 355q-12 0 -12 -12q0 -13 12 -13q13 0 13 13q0 12 -13 12zM528 232q0 44 -43 44q-42 0 -42 -44t42 -44q43 0 43 44zM766 249l7 17
q-23 10 -38 10q-13 0 -20.5 -7.5t-7.5 -18.5q0 -20 24 -27q18 -4 18 -10t-7 -6q-13 0 -30 10l-9 -17q16 -12 40 -12q31 0 31 26q0 19 -23 27q-21 7 -21 11q0 5 8 5q7 0 28 -8zM898 197l-8 18q-15 -7 -27 -7q-20 0 -20 24q0 23 21 23q11 0 24 -4l6 16q-14 9 -31 9
q-43 0 -43 -44t42 -44q16 0 36 9zM987 232q0 44 -43 44q-20 0 -31.5 -11.5t-11.5 -32.5q0 -44 43 -44t43 44zM254 189h24l-4 85h-25l-20 -46q-1 -2 -1 -6l-3 6l-19 46h-26l-3 -85h24v49l20 -49h13l20 49v-49zM338 216l31 58h-24l-14 -27q-1 -1 -2.5 -5t-2.5 -5q-1 1 -2.5 5
t-2.5 5l-14 27h-24l32 -58v-27h23v27zM398 237v16h38v21h-61v-85h23v28h33v20h-33zM617 189v85h-23v-48l-36 48h-20v-85h23v48l36 -48h20zM700 253v21h-75v-21h27v-64h22v64h26zM1073 189h25l-4 85h-26l-19 -46q0 -1 -0.5 -3t-1.5 -3q0 2 -2 6l-20 46h-25l-3 -85h23v49
l20 -49h13l20 49v-49zM505 232q0 -24 -20 -24t-20 24q0 23 20 23t20 -23zM964 232q0 -24 -20 -24t-20 24q0 23 20 23t20 -23zM800 213q-12 0 -12 -12q0 -13 12 -13q13 0 13 13q0 12 -13 12z" />
    <glyph glyph-name="guillemotleft" unicode="&#xab;" 
d="M1221 525h-1151v-451h1151v451zM108 487h1075v-375h-1075v375zM826 391l7 16q-20 10 -39 10q-13 0 -20.5 -7t-7.5 -18q0 -20 24 -27q19 -4 19 -10t-8 -6q-11 0 -30 10l-8 -17q17 -12 40 -12q31 0 31 26q0 19 -23 26q-22 7 -22 11q0 6 8 6t29 -8zM964 373q0 44 -43 44
t-43 -44q0 -43 43 -43t43 43zM208 378v17h38v21h-61v-85h23v27h33v20h-33zM334 416h-23v-44q0 -22 -17 -22q-15 0 -15 22v44h-23v-44q0 -42 38 -42q40 0 40 42v44zM407 331v21h-38v64h-22v-85h60zM478 331v21h-38v64h-22v-85h60zM569 331l32 85h-24l-18 -54l-3 -8q-2 6 -2 8
l-18 54h-25l33 -85h25zM672 331v21h-41v11h33v19h-33v13h39v21h-62v-85h64zM683 416v-85h22v26h11q8 0 17 -26h26q-9 28 -19 34q15 3 15 22q0 29 -37 29h-35zM868 331v85h-23v-85h23zM1053 331v85h-23v-49l-36 49h-20v-85h22v48l36 -48h21zM705 375v22h14q15 0 15 -11
t-14 -11h-15zM941 373q0 -23 -20 -23t-20 23q0 24 20 24t20 -24zM1083 397q-12 0 -12 -12q0 -13 12 -13q13 0 13 13q0 12 -13 12zM1083 355q-12 0 -12 -12q0 -13 12 -13q13 0 13 13q0 12 -13 12zM528 232q0 44 -43 44q-42 0 -42 -44t42 -44q43 0 43 44zM766 249l7 17
q-23 10 -38 10q-13 0 -20.5 -7.5t-7.5 -18.5q0 -20 24 -27q18 -4 18 -10t-7 -6q-13 0 -30 10l-9 -17q16 -12 40 -12q31 0 31 26q0 19 -23 27q-21 7 -21 11q0 5 8 5q7 0 28 -8zM898 197l-8 18q-15 -7 -27 -7q-20 0 -20 24q0 23 21 23q11 0 24 -4l6 16q-14 9 -31 9
q-43 0 -43 -44t42 -44q16 0 36 9zM987 232q0 44 -43 44q-20 0 -31.5 -11.5t-11.5 -32.5q0 -44 43 -44t43 44zM254 189h24l-4 85h-25l-20 -46q-1 -2 -1 -6l-3 6l-19 46h-26l-3 -85h24v49l20 -49h13l20 49v-49zM338 216l31 58h-24l-14 -27q-1 -1 -2.5 -5t-2.5 -5q-1 1 -2.5 5
t-2.5 5l-14 27h-24l32 -58v-27h23v27zM398 237v16h38v21h-61v-85h23v28h33v20h-33zM617 189v85h-23v-48l-36 48h-20v-85h23v48l36 -48h20zM700 253v21h-75v-21h27v-64h22v64h26zM1073 189h25l-4 85h-26l-19 -46q0 -1 -0.5 -3t-1.5 -3q0 2 -2 6l-20 46h-25l-3 -85h23v49
l20 -49h13l20 49v-49zM505 232q0 -24 -20 -24t-20 24q0 23 20 23t20 -23zM964 232q0 -24 -20 -24t-20 24q0 23 20 23t20 -23zM800 213q-12 0 -12 -12q0 -13 12 -13q13 0 13 13q0 12 -13 12z" />
    <glyph glyph-name="degree" unicode="&#xb0;" 
d="M1221 525h-1151v-451h1151v451zM108 487h1075v-375h-1075v375zM826 391l7 16q-20 10 -39 10q-13 0 -20.5 -7t-7.5 -18q0 -20 24 -27q19 -4 19 -10t-8 -6q-11 0 -30 10l-8 -17q17 -12 40 -12q31 0 31 26q0 19 -23 26q-22 7 -22 11q0 6 8 6t29 -8zM964 373q0 44 -43 44
t-43 -44q0 -43 43 -43t43 43zM208 378v17h38v21h-61v-85h23v27h33v20h-33zM334 416h-23v-44q0 -22 -17 -22q-15 0 -15 22v44h-23v-44q0 -42 38 -42q40 0 40 42v44zM407 331v21h-38v64h-22v-85h60zM478 331v21h-38v64h-22v-85h60zM569 331l32 85h-24l-18 -54l-3 -8q-2 6 -2 8
l-18 54h-25l33 -85h25zM672 331v21h-41v11h33v19h-33v13h39v21h-62v-85h64zM683 416v-85h22v26h11q8 0 17 -26h26q-9 28 -19 34q15 3 15 22q0 29 -37 29h-35zM868 331v85h-23v-85h23zM1053 331v85h-23v-49l-36 49h-20v-85h22v48l36 -48h21zM705 375v22h14q15 0 15 -11
t-14 -11h-15zM941 373q0 -23 -20 -23t-20 23q0 24 20 24t20 -24zM1083 397q-12 0 -12 -12q0 -13 12 -13q13 0 13 13q0 12 -13 12zM1083 355q-12 0 -12 -12q0 -13 12 -13q13 0 13 13q0 12 -13 12zM528 232q0 44 -43 44q-42 0 -42 -44t42 -44q43 0 43 44zM766 249l7 17
q-23 10 -38 10q-13 0 -20.5 -7.5t-7.5 -18.5q0 -20 24 -27q18 -4 18 -10t-7 -6q-13 0 -30 10l-9 -17q16 -12 40 -12q31 0 31 26q0 19 -23 27q-21 7 -21 11q0 5 8 5q7 0 28 -8zM898 197l-8 18q-15 -7 -27 -7q-20 0 -20 24q0 23 21 23q11 0 24 -4l6 16q-14 9 -31 9
q-43 0 -43 -44t42 -44q16 0 36 9zM987 232q0 44 -43 44q-20 0 -31.5 -11.5t-11.5 -32.5q0 -44 43 -44t43 44zM254 189h24l-4 85h-25l-20 -46q-1 -2 -1 -6l-3 6l-19 46h-26l-3 -85h24v49l20 -49h13l20 49v-49zM338 216l31 58h-24l-14 -27q-1 -1 -2.5 -5t-2.5 -5q-1 1 -2.5 5
t-2.5 5l-14 27h-24l32 -58v-27h23v27zM398 237v16h38v21h-61v-85h23v28h33v20h-33zM617 189v85h-23v-48l-36 48h-20v-85h23v48l36 -48h20zM700 253v21h-75v-21h27v-64h22v64h26zM1073 189h25l-4 85h-26l-19 -46q0 -1 -0.5 -3t-1.5 -3q0 2 -2 6l-20 46h-25l-3 -85h23v49
l20 -49h13l20 49v-49zM505 232q0 -24 -20 -24t-20 24q0 23 20 23t20 -23zM964 232q0 -24 -20 -24t-20 24q0 23 20 23t20 -23zM800 213q-12 0 -12 -12q0 -13 12 -13q13 0 13 13q0 12 -13 12z" />
    <glyph glyph-name="periodcentered" unicode="&#xb7;" 
d="M1221 525h-1151v-451h1151v451zM108 487h1075v-375h-1075v375zM826 391l7 16q-20 10 -39 10q-13 0 -20.5 -7t-7.5 -18q0 -20 24 -27q19 -4 19 -10t-8 -6q-11 0 -30 10l-8 -17q17 -12 40 -12q31 0 31 26q0 19 -23 26q-22 7 -22 11q0 6 8 6t29 -8zM964 373q0 44 -43 44
t-43 -44q0 -43 43 -43t43 43zM208 378v17h38v21h-61v-85h23v27h33v20h-33zM334 416h-23v-44q0 -22 -17 -22q-15 0 -15 22v44h-23v-44q0 -42 38 -42q40 0 40 42v44zM407 331v21h-38v64h-22v-85h60zM478 331v21h-38v64h-22v-85h60zM569 331l32 85h-24l-18 -54l-3 -8q-2 6 -2 8
l-18 54h-25l33 -85h25zM672 331v21h-41v11h33v19h-33v13h39v21h-62v-85h64zM683 416v-85h22v26h11q8 0 17 -26h26q-9 28 -19 34q15 3 15 22q0 29 -37 29h-35zM868 331v85h-23v-85h23zM1053 331v85h-23v-49l-36 49h-20v-85h22v48l36 -48h21zM705 375v22h14q15 0 15 -11
t-14 -11h-15zM941 373q0 -23 -20 -23t-20 23q0 24 20 24t20 -24zM1083 397q-12 0 -12 -12q0 -13 12 -13q13 0 13 13q0 12 -13 12zM1083 355q-12 0 -12 -12q0 -13 12 -13q13 0 13 13q0 12 -13 12zM528 232q0 44 -43 44q-42 0 -42 -44t42 -44q43 0 43 44zM766 249l7 17
q-23 10 -38 10q-13 0 -20.5 -7.5t-7.5 -18.5q0 -20 24 -27q18 -4 18 -10t-7 -6q-13 0 -30 10l-9 -17q16 -12 40 -12q31 0 31 26q0 19 -23 27q-21 7 -21 11q0 5 8 5q7 0 28 -8zM898 197l-8 18q-15 -7 -27 -7q-20 0 -20 24q0 23 21 23q11 0 24 -4l6 16q-14 9 -31 9
q-43 0 -43 -44t42 -44q16 0 36 9zM987 232q0 44 -43 44q-20 0 -31.5 -11.5t-11.5 -32.5q0 -44 43 -44t43 44zM254 189h24l-4 85h-25l-20 -46q-1 -2 -1 -6l-3 6l-19 46h-26l-3 -85h24v49l20 -49h13l20 49v-49zM338 216l31 58h-24l-14 -27q-1 -1 -2.5 -5t-2.5 -5q-1 1 -2.5 5
t-2.5 5l-14 27h-24l32 -58v-27h23v27zM398 237v16h38v21h-61v-85h23v28h33v20h-33zM617 189v85h-23v-48l-36 48h-20v-85h23v48l36 -48h20zM700 253v21h-75v-21h27v-64h22v64h26zM1073 189h25l-4 85h-26l-19 -46q0 -1 -0.5 -3t-1.5 -3q0 2 -2 6l-20 46h-25l-3 -85h23v49
l20 -49h13l20 49v-49zM505 232q0 -24 -20 -24t-20 24q0 23 20 23t20 -23zM964 232q0 -24 -20 -24t-20 24q0 23 20 23t20 -23zM800 213q-12 0 -12 -12q0 -13 12 -13q13 0 13 13q0 12 -13 12z" />
    <glyph glyph-name="guillemotright" unicode="&#xbb;" 
d="M1221 525h-1151v-451h1151v451zM108 487h1075v-375h-1075v375zM826 391l7 16q-20 10 -39 10q-13 0 -20.5 -7t-7.5 -18q0 -20 24 -27q19 -4 19 -10t-8 -6q-11 0 -30 10l-8 -17q17 -12 40 -12q31 0 31 26q0 19 -23 26q-22 7 -22 11q0 6 8 6t29 -8zM964 373q0 44 -43 44
t-43 -44q0 -43 43 -43t43 43zM208 378v17h38v21h-61v-85h23v27h33v20h-33zM334 416h-23v-44q0 -22 -17 -22q-15 0 -15 22v44h-23v-44q0 -42 38 -42q40 0 40 42v44zM407 331v21h-38v64h-22v-85h60zM478 331v21h-38v64h-22v-85h60zM569 331l32 85h-24l-18 -54l-3 -8q-2 6 -2 8
l-18 54h-25l33 -85h25zM672 331v21h-41v11h33v19h-33v13h39v21h-62v-85h64zM683 416v-85h22v26h11q8 0 17 -26h26q-9 28 -19 34q15 3 15 22q0 29 -37 29h-35zM868 331v85h-23v-85h23zM1053 331v85h-23v-49l-36 49h-20v-85h22v48l36 -48h21zM705 375v22h14q15 0 15 -11
t-14 -11h-15zM941 373q0 -23 -20 -23t-20 23q0 24 20 24t20 -24zM1083 397q-12 0 -12 -12q0 -13 12 -13q13 0 13 13q0 12 -13 12zM1083 355q-12 0 -12 -12q0 -13 12 -13q13 0 13 13q0 12 -13 12zM528 232q0 44 -43 44q-42 0 -42 -44t42 -44q43 0 43 44zM766 249l7 17
q-23 10 -38 10q-13 0 -20.5 -7.5t-7.5 -18.5q0 -20 24 -27q18 -4 18 -10t-7 -6q-13 0 -30 10l-9 -17q16 -12 40 -12q31 0 31 26q0 19 -23 27q-21 7 -21 11q0 5 8 5q7 0 28 -8zM898 197l-8 18q-15 -7 -27 -7q-20 0 -20 24q0 23 21 23q11 0 24 -4l6 16q-14 9 -31 9
q-43 0 -43 -44t42 -44q16 0 36 9zM987 232q0 44 -43 44q-20 0 -31.5 -11.5t-11.5 -32.5q0 -44 43 -44t43 44zM254 189h24l-4 85h-25l-20 -46q-1 -2 -1 -6l-3 6l-19 46h-26l-3 -85h24v49l20 -49h13l20 49v-49zM338 216l31 58h-24l-14 -27q-1 -1 -2.5 -5t-2.5 -5q-1 1 -2.5 5
t-2.5 5l-14 27h-24l32 -58v-27h23v27zM398 237v16h38v21h-61v-85h23v28h33v20h-33zM617 189v85h-23v-48l-36 48h-20v-85h23v48l36 -48h20zM700 253v21h-75v-21h27v-64h22v64h26zM1073 189h25l-4 85h-26l-19 -46q0 -1 -0.5 -3t-1.5 -3q0 2 -2 6l-20 46h-25l-3 -85h23v49
l20 -49h13l20 49v-49zM505 232q0 -24 -20 -24t-20 24q0 23 20 23t20 -23zM964 232q0 -24 -20 -24t-20 24q0 23 20 23t20 -23zM800 213q-12 0 -12 -12q0 -13 12 -13q13 0 13 13q0 12 -13 12z" />
    <glyph glyph-name="questiondown" unicode="&#xbf;" 
d="M1221 525h-1151v-451h1151v451zM108 487h1075v-375h-1075v375zM826 391l7 16q-20 10 -39 10q-13 0 -20.5 -7t-7.5 -18q0 -20 24 -27q19 -4 19 -10t-8 -6q-11 0 -30 10l-8 -17q17 -12 40 -12q31 0 31 26q0 19 -23 26q-22 7 -22 11q0 6 8 6t29 -8zM964 373q0 44 -43 44
t-43 -44q0 -43 43 -43t43 43zM208 378v17h38v21h-61v-85h23v27h33v20h-33zM334 416h-23v-44q0 -22 -17 -22q-15 0 -15 22v44h-23v-44q0 -42 38 -42q40 0 40 42v44zM407 331v21h-38v64h-22v-85h60zM478 331v21h-38v64h-22v-85h60zM569 331l32 85h-24l-18 -54l-3 -8q-2 6 -2 8
l-18 54h-25l33 -85h25zM672 331v21h-41v11h33v19h-33v13h39v21h-62v-85h64zM683 416v-85h22v26h11q8 0 17 -26h26q-9 28 -19 34q15 3 15 22q0 29 -37 29h-35zM868 331v85h-23v-85h23zM1053 331v85h-23v-49l-36 49h-20v-85h22v48l36 -48h21zM705 375v22h14q15 0 15 -11
t-14 -11h-15zM941 373q0 -23 -20 -23t-20 23q0 24 20 24t20 -24zM1083 397q-12 0 -12 -12q0 -13 12 -13q13 0 13 13q0 12 -13 12zM1083 355q-12 0 -12 -12q0 -13 12 -13q13 0 13 13q0 12 -13 12zM528 232q0 44 -43 44q-42 0 -42 -44t42 -44q43 0 43 44zM766 249l7 17
q-23 10 -38 10q-13 0 -20.5 -7.5t-7.5 -18.5q0 -20 24 -27q18 -4 18 -10t-7 -6q-13 0 -30 10l-9 -17q16 -12 40 -12q31 0 31 26q0 19 -23 27q-21 7 -21 11q0 5 8 5q7 0 28 -8zM898 197l-8 18q-15 -7 -27 -7q-20 0 -20 24q0 23 21 23q11 0 24 -4l6 16q-14 9 -31 9
q-43 0 -43 -44t42 -44q16 0 36 9zM987 232q0 44 -43 44q-20 0 -31.5 -11.5t-11.5 -32.5q0 -44 43 -44t43 44zM254 189h24l-4 85h-25l-20 -46q-1 -2 -1 -6l-3 6l-19 46h-26l-3 -85h24v49l20 -49h13l20 49v-49zM338 216l31 58h-24l-14 -27q-1 -1 -2.5 -5t-2.5 -5q-1 1 -2.5 5
t-2.5 5l-14 27h-24l32 -58v-27h23v27zM398 237v16h38v21h-61v-85h23v28h33v20h-33zM617 189v85h-23v-48l-36 48h-20v-85h23v48l36 -48h20zM700 253v21h-75v-21h27v-64h22v64h26zM1073 189h25l-4 85h-26l-19 -46q0 -1 -0.5 -3t-1.5 -3q0 2 -2 6l-20 46h-25l-3 -85h23v49
l20 -49h13l20 49v-49zM505 232q0 -24 -20 -24t-20 24q0 23 20 23t20 -23zM964 232q0 -24 -20 -24t-20 24q0 23 20 23t20 -23zM800 213q-12 0 -12 -12q0 -13 12 -13q13 0 13 13q0 12 -13 12z" />
    <glyph glyph-name="Agrave" unicode="&#xc0;" 
d="M1221 525h-1151v-451h1151v451zM108 487h1075v-375h-1075v375zM826 391l7 16q-20 10 -39 10q-13 0 -20.5 -7t-7.5 -18q0 -20 24 -27q19 -4 19 -10t-8 -6q-11 0 -30 10l-8 -17q17 -12 40 -12q31 0 31 26q0 19 -23 26q-22 7 -22 11q0 6 8 6t29 -8zM964 373q0 44 -43 44
t-43 -44q0 -43 43 -43t43 43zM208 378v17h38v21h-61v-85h23v27h33v20h-33zM334 416h-23v-44q0 -22 -17 -22q-15 0 -15 22v44h-23v-44q0 -42 38 -42q40 0 40 42v44zM407 331v21h-38v64h-22v-85h60zM478 331v21h-38v64h-22v-85h60zM569 331l32 85h-24l-18 -54l-3 -8q-2 6 -2 8
l-18 54h-25l33 -85h25zM672 331v21h-41v11h33v19h-33v13h39v21h-62v-85h64zM683 416v-85h22v26h11q8 0 17 -26h26q-9 28 -19 34q15 3 15 22q0 29 -37 29h-35zM868 331v85h-23v-85h23zM1053 331v85h-23v-49l-36 49h-20v-85h22v48l36 -48h21zM705 375v22h14q15 0 15 -11
t-14 -11h-15zM941 373q0 -23 -20 -23t-20 23q0 24 20 24t20 -24zM1083 397q-12 0 -12 -12q0 -13 12 -13q13 0 13 13q0 12 -13 12zM1083 355q-12 0 -12 -12q0 -13 12 -13q13 0 13 13q0 12 -13 12zM528 232q0 44 -43 44q-42 0 -42 -44t42 -44q43 0 43 44zM766 249l7 17
q-23 10 -38 10q-13 0 -20.5 -7.5t-7.5 -18.5q0 -20 24 -27q18 -4 18 -10t-7 -6q-13 0 -30 10l-9 -17q16 -12 40 -12q31 0 31 26q0 19 -23 27q-21 7 -21 11q0 5 8 5q7 0 28 -8zM898 197l-8 18q-15 -7 -27 -7q-20 0 -20 24q0 23 21 23q11 0 24 -4l6 16q-14 9 -31 9
q-43 0 -43 -44t42 -44q16 0 36 9zM987 232q0 44 -43 44q-20 0 -31.5 -11.5t-11.5 -32.5q0 -44 43 -44t43 44zM254 189h24l-4 85h-25l-20 -46q-1 -2 -1 -6l-3 6l-19 46h-26l-3 -85h24v49l20 -49h13l20 49v-49zM338 216l31 58h-24l-14 -27q-1 -1 -2.5 -5t-2.5 -5q-1 1 -2.5 5
t-2.5 5l-14 27h-24l32 -58v-27h23v27zM398 237v16h38v21h-61v-85h23v28h33v20h-33zM617 189v85h-23v-48l-36 48h-20v-85h23v48l36 -48h20zM700 253v21h-75v-21h27v-64h22v64h26zM1073 189h25l-4 85h-26l-19 -46q0 -1 -0.5 -3t-1.5 -3q0 2 -2 6l-20 46h-25l-3 -85h23v49
l20 -49h13l20 49v-49zM505 232q0 -24 -20 -24t-20 24q0 23 20 23t20 -23zM964 232q0 -24 -20 -24t-20 24q0 23 20 23t20 -23zM800 213q-12 0 -12 -12q0 -13 12 -13q13 0 13 13q0 12 -13 12z" />
    <glyph glyph-name="Aacute" unicode="&#xc1;" 
d="M1221 525h-1151v-451h1151v451zM108 487h1075v-375h-1075v375zM826 391l7 16q-20 10 -39 10q-13 0 -20.5 -7t-7.5 -18q0 -20 24 -27q19 -4 19 -10t-8 -6q-11 0 -30 10l-8 -17q17 -12 40 -12q31 0 31 26q0 19 -23 26q-22 7 -22 11q0 6 8 6t29 -8zM964 373q0 44 -43 44
t-43 -44q0 -43 43 -43t43 43zM208 378v17h38v21h-61v-85h23v27h33v20h-33zM334 416h-23v-44q0 -22 -17 -22q-15 0 -15 22v44h-23v-44q0 -42 38 -42q40 0 40 42v44zM407 331v21h-38v64h-22v-85h60zM478 331v21h-38v64h-22v-85h60zM569 331l32 85h-24l-18 -54l-3 -8q-2 6 -2 8
l-18 54h-25l33 -85h25zM672 331v21h-41v11h33v19h-33v13h39v21h-62v-85h64zM683 416v-85h22v26h11q8 0 17 -26h26q-9 28 -19 34q15 3 15 22q0 29 -37 29h-35zM868 331v85h-23v-85h23zM1053 331v85h-23v-49l-36 49h-20v-85h22v48l36 -48h21zM705 375v22h14q15 0 15 -11
t-14 -11h-15zM941 373q0 -23 -20 -23t-20 23q0 24 20 24t20 -24zM1083 397q-12 0 -12 -12q0 -13 12 -13q13 0 13 13q0 12 -13 12zM1083 355q-12 0 -12 -12q0 -13 12 -13q13 0 13 13q0 12 -13 12zM528 232q0 44 -43 44q-42 0 -42 -44t42 -44q43 0 43 44zM766 249l7 17
q-23 10 -38 10q-13 0 -20.5 -7.5t-7.5 -18.5q0 -20 24 -27q18 -4 18 -10t-7 -6q-13 0 -30 10l-9 -17q16 -12 40 -12q31 0 31 26q0 19 -23 27q-21 7 -21 11q0 5 8 5q7 0 28 -8zM898 197l-8 18q-15 -7 -27 -7q-20 0 -20 24q0 23 21 23q11 0 24 -4l6 16q-14 9 -31 9
q-43 0 -43 -44t42 -44q16 0 36 9zM987 232q0 44 -43 44q-20 0 -31.5 -11.5t-11.5 -32.5q0 -44 43 -44t43 44zM254 189h24l-4 85h-25l-20 -46q-1 -2 -1 -6l-3 6l-19 46h-26l-3 -85h24v49l20 -49h13l20 49v-49zM338 216l31 58h-24l-14 -27q-1 -1 -2.5 -5t-2.5 -5q-1 1 -2.5 5
t-2.5 5l-14 27h-24l32 -58v-27h23v27zM398 237v16h38v21h-61v-85h23v28h33v20h-33zM617 189v85h-23v-48l-36 48h-20v-85h23v48l36 -48h20zM700 253v21h-75v-21h27v-64h22v64h26zM1073 189h25l-4 85h-26l-19 -46q0 -1 -0.5 -3t-1.5 -3q0 2 -2 6l-20 46h-25l-3 -85h23v49
l20 -49h13l20 49v-49zM505 232q0 -24 -20 -24t-20 24q0 23 20 23t20 -23zM964 232q0 -24 -20 -24t-20 24q0 23 20 23t20 -23zM800 213q-12 0 -12 -12q0 -13 12 -13q13 0 13 13q0 12 -13 12z" />
    <glyph glyph-name="Acircumflex" unicode="&#xc2;" 
d="M1221 525h-1151v-451h1151v451zM108 487h1075v-375h-1075v375zM826 391l7 16q-20 10 -39 10q-13 0 -20.5 -7t-7.5 -18q0 -20 24 -27q19 -4 19 -10t-8 -6q-11 0 -30 10l-8 -17q17 -12 40 -12q31 0 31 26q0 19 -23 26q-22 7 -22 11q0 6 8 6t29 -8zM964 373q0 44 -43 44
t-43 -44q0 -43 43 -43t43 43zM208 378v17h38v21h-61v-85h23v27h33v20h-33zM334 416h-23v-44q0 -22 -17 -22q-15 0 -15 22v44h-23v-44q0 -42 38 -42q40 0 40 42v44zM407 331v21h-38v64h-22v-85h60zM478 331v21h-38v64h-22v-85h60zM569 331l32 85h-24l-18 -54l-3 -8q-2 6 -2 8
l-18 54h-25l33 -85h25zM672 331v21h-41v11h33v19h-33v13h39v21h-62v-85h64zM683 416v-85h22v26h11q8 0 17 -26h26q-9 28 -19 34q15 3 15 22q0 29 -37 29h-35zM868 331v85h-23v-85h23zM1053 331v85h-23v-49l-36 49h-20v-85h22v48l36 -48h21zM705 375v22h14q15 0 15 -11
t-14 -11h-15zM941 373q0 -23 -20 -23t-20 23q0 24 20 24t20 -24zM1083 397q-12 0 -12 -12q0 -13 12 -13q13 0 13 13q0 12 -13 12zM1083 355q-12 0 -12 -12q0 -13 12 -13q13 0 13 13q0 12 -13 12zM528 232q0 44 -43 44q-42 0 -42 -44t42 -44q43 0 43 44zM766 249l7 17
q-23 10 -38 10q-13 0 -20.5 -7.5t-7.5 -18.5q0 -20 24 -27q18 -4 18 -10t-7 -6q-13 0 -30 10l-9 -17q16 -12 40 -12q31 0 31 26q0 19 -23 27q-21 7 -21 11q0 5 8 5q7 0 28 -8zM898 197l-8 18q-15 -7 -27 -7q-20 0 -20 24q0 23 21 23q11 0 24 -4l6 16q-14 9 -31 9
q-43 0 -43 -44t42 -44q16 0 36 9zM987 232q0 44 -43 44q-20 0 -31.5 -11.5t-11.5 -32.5q0 -44 43 -44t43 44zM254 189h24l-4 85h-25l-20 -46q-1 -2 -1 -6l-3 6l-19 46h-26l-3 -85h24v49l20 -49h13l20 49v-49zM338 216l31 58h-24l-14 -27q-1 -1 -2.5 -5t-2.5 -5q-1 1 -2.5 5
t-2.5 5l-14 27h-24l32 -58v-27h23v27zM398 237v16h38v21h-61v-85h23v28h33v20h-33zM617 189v85h-23v-48l-36 48h-20v-85h23v48l36 -48h20zM700 253v21h-75v-21h27v-64h22v64h26zM1073 189h25l-4 85h-26l-19 -46q0 -1 -0.5 -3t-1.5 -3q0 2 -2 6l-20 46h-25l-3 -85h23v49
l20 -49h13l20 49v-49zM505 232q0 -24 -20 -24t-20 24q0 23 20 23t20 -23zM964 232q0 -24 -20 -24t-20 24q0 23 20 23t20 -23zM800 213q-12 0 -12 -12q0 -13 12 -13q13 0 13 13q0 12 -13 12z" />
    <glyph glyph-name="Atilde" unicode="&#xc3;" 
d="M1221 525h-1151v-451h1151v451zM108 487h1075v-375h-1075v375zM826 391l7 16q-20 10 -39 10q-13 0 -20.5 -7t-7.5 -18q0 -20 24 -27q19 -4 19 -10t-8 -6q-11 0 -30 10l-8 -17q17 -12 40 -12q31 0 31 26q0 19 -23 26q-22 7 -22 11q0 6 8 6t29 -8zM964 373q0 44 -43 44
t-43 -44q0 -43 43 -43t43 43zM208 378v17h38v21h-61v-85h23v27h33v20h-33zM334 416h-23v-44q0 -22 -17 -22q-15 0 -15 22v44h-23v-44q0 -42 38 -42q40 0 40 42v44zM407 331v21h-38v64h-22v-85h60zM478 331v21h-38v64h-22v-85h60zM569 331l32 85h-24l-18 -54l-3 -8q-2 6 -2 8
l-18 54h-25l33 -85h25zM672 331v21h-41v11h33v19h-33v13h39v21h-62v-85h64zM683 416v-85h22v26h11q8 0 17 -26h26q-9 28 -19 34q15 3 15 22q0 29 -37 29h-35zM868 331v85h-23v-85h23zM1053 331v85h-23v-49l-36 49h-20v-85h22v48l36 -48h21zM705 375v22h14q15 0 15 -11
t-14 -11h-15zM941 373q0 -23 -20 -23t-20 23q0 24 20 24t20 -24zM1083 397q-12 0 -12 -12q0 -13 12 -13q13 0 13 13q0 12 -13 12zM1083 355q-12 0 -12 -12q0 -13 12 -13q13 0 13 13q0 12 -13 12zM528 232q0 44 -43 44q-42 0 -42 -44t42 -44q43 0 43 44zM766 249l7 17
q-23 10 -38 10q-13 0 -20.5 -7.5t-7.5 -18.5q0 -20 24 -27q18 -4 18 -10t-7 -6q-13 0 -30 10l-9 -17q16 -12 40 -12q31 0 31 26q0 19 -23 27q-21 7 -21 11q0 5 8 5q7 0 28 -8zM898 197l-8 18q-15 -7 -27 -7q-20 0 -20 24q0 23 21 23q11 0 24 -4l6 16q-14 9 -31 9
q-43 0 -43 -44t42 -44q16 0 36 9zM987 232q0 44 -43 44q-20 0 -31.5 -11.5t-11.5 -32.5q0 -44 43 -44t43 44zM254 189h24l-4 85h-25l-20 -46q-1 -2 -1 -6l-3 6l-19 46h-26l-3 -85h24v49l20 -49h13l20 49v-49zM338 216l31 58h-24l-14 -27q-1 -1 -2.5 -5t-2.5 -5q-1 1 -2.5 5
t-2.5 5l-14 27h-24l32 -58v-27h23v27zM398 237v16h38v21h-61v-85h23v28h33v20h-33zM617 189v85h-23v-48l-36 48h-20v-85h23v48l36 -48h20zM700 253v21h-75v-21h27v-64h22v64h26zM1073 189h25l-4 85h-26l-19 -46q0 -1 -0.5 -3t-1.5 -3q0 2 -2 6l-20 46h-25l-3 -85h23v49
l20 -49h13l20 49v-49zM505 232q0 -24 -20 -24t-20 24q0 23 20 23t20 -23zM964 232q0 -24 -20 -24t-20 24q0 23 20 23t20 -23zM800 213q-12 0 -12 -12q0 -13 12 -13q13 0 13 13q0 12 -13 12z" />
    <glyph glyph-name="Adieresis" unicode="&#xc4;" 
d="M1221 525h-1151v-451h1151v451zM108 487h1075v-375h-1075v375zM826 391l7 16q-20 10 -39 10q-13 0 -20.5 -7t-7.5 -18q0 -20 24 -27q19 -4 19 -10t-8 -6q-11 0 -30 10l-8 -17q17 -12 40 -12q31 0 31 26q0 19 -23 26q-22 7 -22 11q0 6 8 6t29 -8zM964 373q0 44 -43 44
t-43 -44q0 -43 43 -43t43 43zM208 378v17h38v21h-61v-85h23v27h33v20h-33zM334 416h-23v-44q0 -22 -17 -22q-15 0 -15 22v44h-23v-44q0 -42 38 -42q40 0 40 42v44zM407 331v21h-38v64h-22v-85h60zM478 331v21h-38v64h-22v-85h60zM569 331l32 85h-24l-18 -54l-3 -8q-2 6 -2 8
l-18 54h-25l33 -85h25zM672 331v21h-41v11h33v19h-33v13h39v21h-62v-85h64zM683 416v-85h22v26h11q8 0 17 -26h26q-9 28 -19 34q15 3 15 22q0 29 -37 29h-35zM868 331v85h-23v-85h23zM1053 331v85h-23v-49l-36 49h-20v-85h22v48l36 -48h21zM705 375v22h14q15 0 15 -11
t-14 -11h-15zM941 373q0 -23 -20 -23t-20 23q0 24 20 24t20 -24zM1083 397q-12 0 -12 -12q0 -13 12 -13q13 0 13 13q0 12 -13 12zM1083 355q-12 0 -12 -12q0 -13 12 -13q13 0 13 13q0 12 -13 12zM528 232q0 44 -43 44q-42 0 -42 -44t42 -44q43 0 43 44zM766 249l7 17
q-23 10 -38 10q-13 0 -20.5 -7.5t-7.5 -18.5q0 -20 24 -27q18 -4 18 -10t-7 -6q-13 0 -30 10l-9 -17q16 -12 40 -12q31 0 31 26q0 19 -23 27q-21 7 -21 11q0 5 8 5q7 0 28 -8zM898 197l-8 18q-15 -7 -27 -7q-20 0 -20 24q0 23 21 23q11 0 24 -4l6 16q-14 9 -31 9
q-43 0 -43 -44t42 -44q16 0 36 9zM987 232q0 44 -43 44q-20 0 -31.5 -11.5t-11.5 -32.5q0 -44 43 -44t43 44zM254 189h24l-4 85h-25l-20 -46q-1 -2 -1 -6l-3 6l-19 46h-26l-3 -85h24v49l20 -49h13l20 49v-49zM338 216l31 58h-24l-14 -27q-1 -1 -2.5 -5t-2.5 -5q-1 1 -2.5 5
t-2.5 5l-14 27h-24l32 -58v-27h23v27zM398 237v16h38v21h-61v-85h23v28h33v20h-33zM617 189v85h-23v-48l-36 48h-20v-85h23v48l36 -48h20zM700 253v21h-75v-21h27v-64h22v64h26zM1073 189h25l-4 85h-26l-19 -46q0 -1 -0.5 -3t-1.5 -3q0 2 -2 6l-20 46h-25l-3 -85h23v49
l20 -49h13l20 49v-49zM505 232q0 -24 -20 -24t-20 24q0 23 20 23t20 -23zM964 232q0 -24 -20 -24t-20 24q0 23 20 23t20 -23zM800 213q-12 0 -12 -12q0 -13 12 -13q13 0 13 13q0 12 -13 12z" />
    <glyph glyph-name="Aring" unicode="&#xc5;" 
d="M1221 525h-1151v-451h1151v451zM108 487h1075v-375h-1075v375zM826 391l7 16q-20 10 -39 10q-13 0 -20.5 -7t-7.5 -18q0 -20 24 -27q19 -4 19 -10t-8 -6q-11 0 -30 10l-8 -17q17 -12 40 -12q31 0 31 26q0 19 -23 26q-22 7 -22 11q0 6 8 6t29 -8zM964 373q0 44 -43 44
t-43 -44q0 -43 43 -43t43 43zM208 378v17h38v21h-61v-85h23v27h33v20h-33zM334 416h-23v-44q0 -22 -17 -22q-15 0 -15 22v44h-23v-44q0 -42 38 -42q40 0 40 42v44zM407 331v21h-38v64h-22v-85h60zM478 331v21h-38v64h-22v-85h60zM569 331l32 85h-24l-18 -54l-3 -8q-2 6 -2 8
l-18 54h-25l33 -85h25zM672 331v21h-41v11h33v19h-33v13h39v21h-62v-85h64zM683 416v-85h22v26h11q8 0 17 -26h26q-9 28 -19 34q15 3 15 22q0 29 -37 29h-35zM868 331v85h-23v-85h23zM1053 331v85h-23v-49l-36 49h-20v-85h22v48l36 -48h21zM705 375v22h14q15 0 15 -11
t-14 -11h-15zM941 373q0 -23 -20 -23t-20 23q0 24 20 24t20 -24zM1083 397q-12 0 -12 -12q0 -13 12 -13q13 0 13 13q0 12 -13 12zM1083 355q-12 0 -12 -12q0 -13 12 -13q13 0 13 13q0 12 -13 12zM528 232q0 44 -43 44q-42 0 -42 -44t42 -44q43 0 43 44zM766 249l7 17
q-23 10 -38 10q-13 0 -20.5 -7.5t-7.5 -18.5q0 -20 24 -27q18 -4 18 -10t-7 -6q-13 0 -30 10l-9 -17q16 -12 40 -12q31 0 31 26q0 19 -23 27q-21 7 -21 11q0 5 8 5q7 0 28 -8zM898 197l-8 18q-15 -7 -27 -7q-20 0 -20 24q0 23 21 23q11 0 24 -4l6 16q-14 9 -31 9
q-43 0 -43 -44t42 -44q16 0 36 9zM987 232q0 44 -43 44q-20 0 -31.5 -11.5t-11.5 -32.5q0 -44 43 -44t43 44zM254 189h24l-4 85h-25l-20 -46q-1 -2 -1 -6l-3 6l-19 46h-26l-3 -85h24v49l20 -49h13l20 49v-49zM338 216l31 58h-24l-14 -27q-1 -1 -2.5 -5t-2.5 -5q-1 1 -2.5 5
t-2.5 5l-14 27h-24l32 -58v-27h23v27zM398 237v16h38v21h-61v-85h23v28h33v20h-33zM617 189v85h-23v-48l-36 48h-20v-85h23v48l36 -48h20zM700 253v21h-75v-21h27v-64h22v64h26zM1073 189h25l-4 85h-26l-19 -46q0 -1 -0.5 -3t-1.5 -3q0 2 -2 6l-20 46h-25l-3 -85h23v49
l20 -49h13l20 49v-49zM505 232q0 -24 -20 -24t-20 24q0 23 20 23t20 -23zM964 232q0 -24 -20 -24t-20 24q0 23 20 23t20 -23zM800 213q-12 0 -12 -12q0 -13 12 -13q13 0 13 13q0 12 -13 12z" />
    <glyph glyph-name="AE" unicode="&#xc6;" 
d="M1221 525h-1151v-451h1151v451zM108 487h1075v-375h-1075v375zM826 391l7 16q-20 10 -39 10q-13 0 -20.5 -7t-7.5 -18q0 -20 24 -27q19 -4 19 -10t-8 -6q-11 0 -30 10l-8 -17q17 -12 40 -12q31 0 31 26q0 19 -23 26q-22 7 -22 11q0 6 8 6t29 -8zM964 373q0 44 -43 44
t-43 -44q0 -43 43 -43t43 43zM208 378v17h38v21h-61v-85h23v27h33v20h-33zM334 416h-23v-44q0 -22 -17 -22q-15 0 -15 22v44h-23v-44q0 -42 38 -42q40 0 40 42v44zM407 331v21h-38v64h-22v-85h60zM478 331v21h-38v64h-22v-85h60zM569 331l32 85h-24l-18 -54l-3 -8q-2 6 -2 8
l-18 54h-25l33 -85h25zM672 331v21h-41v11h33v19h-33v13h39v21h-62v-85h64zM683 416v-85h22v26h11q8 0 17 -26h26q-9 28 -19 34q15 3 15 22q0 29 -37 29h-35zM868 331v85h-23v-85h23zM1053 331v85h-23v-49l-36 49h-20v-85h22v48l36 -48h21zM705 375v22h14q15 0 15 -11
t-14 -11h-15zM941 373q0 -23 -20 -23t-20 23q0 24 20 24t20 -24zM1083 397q-12 0 -12 -12q0 -13 12 -13q13 0 13 13q0 12 -13 12zM1083 355q-12 0 -12 -12q0 -13 12 -13q13 0 13 13q0 12 -13 12zM528 232q0 44 -43 44q-42 0 -42 -44t42 -44q43 0 43 44zM766 249l7 17
q-23 10 -38 10q-13 0 -20.5 -7.5t-7.5 -18.5q0 -20 24 -27q18 -4 18 -10t-7 -6q-13 0 -30 10l-9 -17q16 -12 40 -12q31 0 31 26q0 19 -23 27q-21 7 -21 11q0 5 8 5q7 0 28 -8zM898 197l-8 18q-15 -7 -27 -7q-20 0 -20 24q0 23 21 23q11 0 24 -4l6 16q-14 9 -31 9
q-43 0 -43 -44t42 -44q16 0 36 9zM987 232q0 44 -43 44q-20 0 -31.5 -11.5t-11.5 -32.5q0 -44 43 -44t43 44zM254 189h24l-4 85h-25l-20 -46q-1 -2 -1 -6l-3 6l-19 46h-26l-3 -85h24v49l20 -49h13l20 49v-49zM338 216l31 58h-24l-14 -27q-1 -1 -2.5 -5t-2.5 -5q-1 1 -2.5 5
t-2.5 5l-14 27h-24l32 -58v-27h23v27zM398 237v16h38v21h-61v-85h23v28h33v20h-33zM617 189v85h-23v-48l-36 48h-20v-85h23v48l36 -48h20zM700 253v21h-75v-21h27v-64h22v64h26zM1073 189h25l-4 85h-26l-19 -46q0 -1 -0.5 -3t-1.5 -3q0 2 -2 6l-20 46h-25l-3 -85h23v49
l20 -49h13l20 49v-49zM505 232q0 -24 -20 -24t-20 24q0 23 20 23t20 -23zM964 232q0 -24 -20 -24t-20 24q0 23 20 23t20 -23zM800 213q-12 0 -12 -12q0 -13 12 -13q13 0 13 13q0 12 -13 12z" />
    <glyph glyph-name="Ccedilla" unicode="&#xc7;" 
d="M1221 525h-1151v-451h1151v451zM108 487h1075v-375h-1075v375zM826 391l7 16q-20 10 -39 10q-13 0 -20.5 -7t-7.5 -18q0 -20 24 -27q19 -4 19 -10t-8 -6q-11 0 -30 10l-8 -17q17 -12 40 -12q31 0 31 26q0 19 -23 26q-22 7 -22 11q0 6 8 6t29 -8zM964 373q0 44 -43 44
t-43 -44q0 -43 43 -43t43 43zM208 378v17h38v21h-61v-85h23v27h33v20h-33zM334 416h-23v-44q0 -22 -17 -22q-15 0 -15 22v44h-23v-44q0 -42 38 -42q40 0 40 42v44zM407 331v21h-38v64h-22v-85h60zM478 331v21h-38v64h-22v-85h60zM569 331l32 85h-24l-18 -54l-3 -8q-2 6 -2 8
l-18 54h-25l33 -85h25zM672 331v21h-41v11h33v19h-33v13h39v21h-62v-85h64zM683 416v-85h22v26h11q8 0 17 -26h26q-9 28 -19 34q15 3 15 22q0 29 -37 29h-35zM868 331v85h-23v-85h23zM1053 331v85h-23v-49l-36 49h-20v-85h22v48l36 -48h21zM705 375v22h14q15 0 15 -11
t-14 -11h-15zM941 373q0 -23 -20 -23t-20 23q0 24 20 24t20 -24zM1083 397q-12 0 -12 -12q0 -13 12 -13q13 0 13 13q0 12 -13 12zM1083 355q-12 0 -12 -12q0 -13 12 -13q13 0 13 13q0 12 -13 12zM528 232q0 44 -43 44q-42 0 -42 -44t42 -44q43 0 43 44zM766 249l7 17
q-23 10 -38 10q-13 0 -20.5 -7.5t-7.5 -18.5q0 -20 24 -27q18 -4 18 -10t-7 -6q-13 0 -30 10l-9 -17q16 -12 40 -12q31 0 31 26q0 19 -23 27q-21 7 -21 11q0 5 8 5q7 0 28 -8zM898 197l-8 18q-15 -7 -27 -7q-20 0 -20 24q0 23 21 23q11 0 24 -4l6 16q-14 9 -31 9
q-43 0 -43 -44t42 -44q16 0 36 9zM987 232q0 44 -43 44q-20 0 -31.5 -11.5t-11.5 -32.5q0 -44 43 -44t43 44zM254 189h24l-4 85h-25l-20 -46q-1 -2 -1 -6l-3 6l-19 46h-26l-3 -85h24v49l20 -49h13l20 49v-49zM338 216l31 58h-24l-14 -27q-1 -1 -2.5 -5t-2.5 -5q-1 1 -2.5 5
t-2.5 5l-14 27h-24l32 -58v-27h23v27zM398 237v16h38v21h-61v-85h23v28h33v20h-33zM617 189v85h-23v-48l-36 48h-20v-85h23v48l36 -48h20zM700 253v21h-75v-21h27v-64h22v64h26zM1073 189h25l-4 85h-26l-19 -46q0 -1 -0.5 -3t-1.5 -3q0 2 -2 6l-20 46h-25l-3 -85h23v49
l20 -49h13l20 49v-49zM505 232q0 -24 -20 -24t-20 24q0 23 20 23t20 -23zM964 232q0 -24 -20 -24t-20 24q0 23 20 23t20 -23zM800 213q-12 0 -12 -12q0 -13 12 -13q13 0 13 13q0 12 -13 12z" />
    <glyph glyph-name="Egrave" unicode="&#xc8;" 
d="M1221 525h-1151v-451h1151v451zM108 487h1075v-375h-1075v375zM826 391l7 16q-20 10 -39 10q-13 0 -20.5 -7t-7.5 -18q0 -20 24 -27q19 -4 19 -10t-8 -6q-11 0 -30 10l-8 -17q17 -12 40 -12q31 0 31 26q0 19 -23 26q-22 7 -22 11q0 6 8 6t29 -8zM964 373q0 44 -43 44
t-43 -44q0 -43 43 -43t43 43zM208 378v17h38v21h-61v-85h23v27h33v20h-33zM334 416h-23v-44q0 -22 -17 -22q-15 0 -15 22v44h-23v-44q0 -42 38 -42q40 0 40 42v44zM407 331v21h-38v64h-22v-85h60zM478 331v21h-38v64h-22v-85h60zM569 331l32 85h-24l-18 -54l-3 -8q-2 6 -2 8
l-18 54h-25l33 -85h25zM672 331v21h-41v11h33v19h-33v13h39v21h-62v-85h64zM683 416v-85h22v26h11q8 0 17 -26h26q-9 28 -19 34q15 3 15 22q0 29 -37 29h-35zM868 331v85h-23v-85h23zM1053 331v85h-23v-49l-36 49h-20v-85h22v48l36 -48h21zM705 375v22h14q15 0 15 -11
t-14 -11h-15zM941 373q0 -23 -20 -23t-20 23q0 24 20 24t20 -24zM1083 397q-12 0 -12 -12q0 -13 12 -13q13 0 13 13q0 12 -13 12zM1083 355q-12 0 -12 -12q0 -13 12 -13q13 0 13 13q0 12 -13 12zM528 232q0 44 -43 44q-42 0 -42 -44t42 -44q43 0 43 44zM766 249l7 17
q-23 10 -38 10q-13 0 -20.5 -7.5t-7.5 -18.5q0 -20 24 -27q18 -4 18 -10t-7 -6q-13 0 -30 10l-9 -17q16 -12 40 -12q31 0 31 26q0 19 -23 27q-21 7 -21 11q0 5 8 5q7 0 28 -8zM898 197l-8 18q-15 -7 -27 -7q-20 0 -20 24q0 23 21 23q11 0 24 -4l6 16q-14 9 -31 9
q-43 0 -43 -44t42 -44q16 0 36 9zM987 232q0 44 -43 44q-20 0 -31.5 -11.5t-11.5 -32.5q0 -44 43 -44t43 44zM254 189h24l-4 85h-25l-20 -46q-1 -2 -1 -6l-3 6l-19 46h-26l-3 -85h24v49l20 -49h13l20 49v-49zM338 216l31 58h-24l-14 -27q-1 -1 -2.5 -5t-2.5 -5q-1 1 -2.5 5
t-2.5 5l-14 27h-24l32 -58v-27h23v27zM398 237v16h38v21h-61v-85h23v28h33v20h-33zM617 189v85h-23v-48l-36 48h-20v-85h23v48l36 -48h20zM700 253v21h-75v-21h27v-64h22v64h26zM1073 189h25l-4 85h-26l-19 -46q0 -1 -0.5 -3t-1.5 -3q0 2 -2 6l-20 46h-25l-3 -85h23v49
l20 -49h13l20 49v-49zM505 232q0 -24 -20 -24t-20 24q0 23 20 23t20 -23zM964 232q0 -24 -20 -24t-20 24q0 23 20 23t20 -23zM800 213q-12 0 -12 -12q0 -13 12 -13q13 0 13 13q0 12 -13 12z" />
    <glyph glyph-name="Eacute" unicode="&#xc9;" 
d="M1221 525h-1151v-451h1151v451zM108 487h1075v-375h-1075v375zM826 391l7 16q-20 10 -39 10q-13 0 -20.5 -7t-7.5 -18q0 -20 24 -27q19 -4 19 -10t-8 -6q-11 0 -30 10l-8 -17q17 -12 40 -12q31 0 31 26q0 19 -23 26q-22 7 -22 11q0 6 8 6t29 -8zM964 373q0 44 -43 44
t-43 -44q0 -43 43 -43t43 43zM208 378v17h38v21h-61v-85h23v27h33v20h-33zM334 416h-23v-44q0 -22 -17 -22q-15 0 -15 22v44h-23v-44q0 -42 38 -42q40 0 40 42v44zM407 331v21h-38v64h-22v-85h60zM478 331v21h-38v64h-22v-85h60zM569 331l32 85h-24l-18 -54l-3 -8q-2 6 -2 8
l-18 54h-25l33 -85h25zM672 331v21h-41v11h33v19h-33v13h39v21h-62v-85h64zM683 416v-85h22v26h11q8 0 17 -26h26q-9 28 -19 34q15 3 15 22q0 29 -37 29h-35zM868 331v85h-23v-85h23zM1053 331v85h-23v-49l-36 49h-20v-85h22v48l36 -48h21zM705 375v22h14q15 0 15 -11
t-14 -11h-15zM941 373q0 -23 -20 -23t-20 23q0 24 20 24t20 -24zM1083 397q-12 0 -12 -12q0 -13 12 -13q13 0 13 13q0 12 -13 12zM1083 355q-12 0 -12 -12q0 -13 12 -13q13 0 13 13q0 12 -13 12zM528 232q0 44 -43 44q-42 0 -42 -44t42 -44q43 0 43 44zM766 249l7 17
q-23 10 -38 10q-13 0 -20.5 -7.5t-7.5 -18.5q0 -20 24 -27q18 -4 18 -10t-7 -6q-13 0 -30 10l-9 -17q16 -12 40 -12q31 0 31 26q0 19 -23 27q-21 7 -21 11q0 5 8 5q7 0 28 -8zM898 197l-8 18q-15 -7 -27 -7q-20 0 -20 24q0 23 21 23q11 0 24 -4l6 16q-14 9 -31 9
q-43 0 -43 -44t42 -44q16 0 36 9zM987 232q0 44 -43 44q-20 0 -31.5 -11.5t-11.5 -32.5q0 -44 43 -44t43 44zM254 189h24l-4 85h-25l-20 -46q-1 -2 -1 -6l-3 6l-19 46h-26l-3 -85h24v49l20 -49h13l20 49v-49zM338 216l31 58h-24l-14 -27q-1 -1 -2.5 -5t-2.5 -5q-1 1 -2.5 5
t-2.5 5l-14 27h-24l32 -58v-27h23v27zM398 237v16h38v21h-61v-85h23v28h33v20h-33zM617 189v85h-23v-48l-36 48h-20v-85h23v48l36 -48h20zM700 253v21h-75v-21h27v-64h22v64h26zM1073 189h25l-4 85h-26l-19 -46q0 -1 -0.5 -3t-1.5 -3q0 2 -2 6l-20 46h-25l-3 -85h23v49
l20 -49h13l20 49v-49zM505 232q0 -24 -20 -24t-20 24q0 23 20 23t20 -23zM964 232q0 -24 -20 -24t-20 24q0 23 20 23t20 -23zM800 213q-12 0 -12 -12q0 -13 12 -13q13 0 13 13q0 12 -13 12z" />
    <glyph glyph-name="Ecircumflex" unicode="&#xca;" 
d="M1221 525h-1151v-451h1151v451zM108 487h1075v-375h-1075v375zM826 391l7 16q-20 10 -39 10q-13 0 -20.5 -7t-7.5 -18q0 -20 24 -27q19 -4 19 -10t-8 -6q-11 0 -30 10l-8 -17q17 -12 40 -12q31 0 31 26q0 19 -23 26q-22 7 -22 11q0 6 8 6t29 -8zM964 373q0 44 -43 44
t-43 -44q0 -43 43 -43t43 43zM208 378v17h38v21h-61v-85h23v27h33v20h-33zM334 416h-23v-44q0 -22 -17 -22q-15 0 -15 22v44h-23v-44q0 -42 38 -42q40 0 40 42v44zM407 331v21h-38v64h-22v-85h60zM478 331v21h-38v64h-22v-85h60zM569 331l32 85h-24l-18 -54l-3 -8q-2 6 -2 8
l-18 54h-25l33 -85h25zM672 331v21h-41v11h33v19h-33v13h39v21h-62v-85h64zM683 416v-85h22v26h11q8 0 17 -26h26q-9 28 -19 34q15 3 15 22q0 29 -37 29h-35zM868 331v85h-23v-85h23zM1053 331v85h-23v-49l-36 49h-20v-85h22v48l36 -48h21zM705 375v22h14q15 0 15 -11
t-14 -11h-15zM941 373q0 -23 -20 -23t-20 23q0 24 20 24t20 -24zM1083 397q-12 0 -12 -12q0 -13 12 -13q13 0 13 13q0 12 -13 12zM1083 355q-12 0 -12 -12q0 -13 12 -13q13 0 13 13q0 12 -13 12zM528 232q0 44 -43 44q-42 0 -42 -44t42 -44q43 0 43 44zM766 249l7 17
q-23 10 -38 10q-13 0 -20.5 -7.5t-7.5 -18.5q0 -20 24 -27q18 -4 18 -10t-7 -6q-13 0 -30 10l-9 -17q16 -12 40 -12q31 0 31 26q0 19 -23 27q-21 7 -21 11q0 5 8 5q7 0 28 -8zM898 197l-8 18q-15 -7 -27 -7q-20 0 -20 24q0 23 21 23q11 0 24 -4l6 16q-14 9 -31 9
q-43 0 -43 -44t42 -44q16 0 36 9zM987 232q0 44 -43 44q-20 0 -31.5 -11.5t-11.5 -32.5q0 -44 43 -44t43 44zM254 189h24l-4 85h-25l-20 -46q-1 -2 -1 -6l-3 6l-19 46h-26l-3 -85h24v49l20 -49h13l20 49v-49zM338 216l31 58h-24l-14 -27q-1 -1 -2.5 -5t-2.5 -5q-1 1 -2.5 5
t-2.5 5l-14 27h-24l32 -58v-27h23v27zM398 237v16h38v21h-61v-85h23v28h33v20h-33zM617 189v85h-23v-48l-36 48h-20v-85h23v48l36 -48h20zM700 253v21h-75v-21h27v-64h22v64h26zM1073 189h25l-4 85h-26l-19 -46q0 -1 -0.5 -3t-1.5 -3q0 2 -2 6l-20 46h-25l-3 -85h23v49
l20 -49h13l20 49v-49zM505 232q0 -24 -20 -24t-20 24q0 23 20 23t20 -23zM964 232q0 -24 -20 -24t-20 24q0 23 20 23t20 -23zM800 213q-12 0 -12 -12q0 -13 12 -13q13 0 13 13q0 12 -13 12z" />
    <glyph glyph-name="Edieresis" unicode="&#xcb;" 
d="M1221 525h-1151v-451h1151v451zM108 487h1075v-375h-1075v375zM826 391l7 16q-20 10 -39 10q-13 0 -20.5 -7t-7.5 -18q0 -20 24 -27q19 -4 19 -10t-8 -6q-11 0 -30 10l-8 -17q17 -12 40 -12q31 0 31 26q0 19 -23 26q-22 7 -22 11q0 6 8 6t29 -8zM964 373q0 44 -43 44
t-43 -44q0 -43 43 -43t43 43zM208 378v17h38v21h-61v-85h23v27h33v20h-33zM334 416h-23v-44q0 -22 -17 -22q-15 0 -15 22v44h-23v-44q0 -42 38 -42q40 0 40 42v44zM407 331v21h-38v64h-22v-85h60zM478 331v21h-38v64h-22v-85h60zM569 331l32 85h-24l-18 -54l-3 -8q-2 6 -2 8
l-18 54h-25l33 -85h25zM672 331v21h-41v11h33v19h-33v13h39v21h-62v-85h64zM683 416v-85h22v26h11q8 0 17 -26h26q-9 28 -19 34q15 3 15 22q0 29 -37 29h-35zM868 331v85h-23v-85h23zM1053 331v85h-23v-49l-36 49h-20v-85h22v48l36 -48h21zM705 375v22h14q15 0 15 -11
t-14 -11h-15zM941 373q0 -23 -20 -23t-20 23q0 24 20 24t20 -24zM1083 397q-12 0 -12 -12q0 -13 12 -13q13 0 13 13q0 12 -13 12zM1083 355q-12 0 -12 -12q0 -13 12 -13q13 0 13 13q0 12 -13 12zM528 232q0 44 -43 44q-42 0 -42 -44t42 -44q43 0 43 44zM766 249l7 17
q-23 10 -38 10q-13 0 -20.5 -7.5t-7.5 -18.5q0 -20 24 -27q18 -4 18 -10t-7 -6q-13 0 -30 10l-9 -17q16 -12 40 -12q31 0 31 26q0 19 -23 27q-21 7 -21 11q0 5 8 5q7 0 28 -8zM898 197l-8 18q-15 -7 -27 -7q-20 0 -20 24q0 23 21 23q11 0 24 -4l6 16q-14 9 -31 9
q-43 0 -43 -44t42 -44q16 0 36 9zM987 232q0 44 -43 44q-20 0 -31.5 -11.5t-11.5 -32.5q0 -44 43 -44t43 44zM254 189h24l-4 85h-25l-20 -46q-1 -2 -1 -6l-3 6l-19 46h-26l-3 -85h24v49l20 -49h13l20 49v-49zM338 216l31 58h-24l-14 -27q-1 -1 -2.5 -5t-2.5 -5q-1 1 -2.5 5
t-2.5 5l-14 27h-24l32 -58v-27h23v27zM398 237v16h38v21h-61v-85h23v28h33v20h-33zM617 189v85h-23v-48l-36 48h-20v-85h23v48l36 -48h20zM700 253v21h-75v-21h27v-64h22v64h26zM1073 189h25l-4 85h-26l-19 -46q0 -1 -0.5 -3t-1.5 -3q0 2 -2 6l-20 46h-25l-3 -85h23v49
l20 -49h13l20 49v-49zM505 232q0 -24 -20 -24t-20 24q0 23 20 23t20 -23zM964 232q0 -24 -20 -24t-20 24q0 23 20 23t20 -23zM800 213q-12 0 -12 -12q0 -13 12 -13q13 0 13 13q0 12 -13 12z" />
    <glyph glyph-name="Igrave" unicode="&#xcc;" 
d="M1221 525h-1151v-451h1151v451zM108 487h1075v-375h-1075v375zM826 391l7 16q-20 10 -39 10q-13 0 -20.5 -7t-7.5 -18q0 -20 24 -27q19 -4 19 -10t-8 -6q-11 0 -30 10l-8 -17q17 -12 40 -12q31 0 31 26q0 19 -23 26q-22 7 -22 11q0 6 8 6t29 -8zM964 373q0 44 -43 44
t-43 -44q0 -43 43 -43t43 43zM208 378v17h38v21h-61v-85h23v27h33v20h-33zM334 416h-23v-44q0 -22 -17 -22q-15 0 -15 22v44h-23v-44q0 -42 38 -42q40 0 40 42v44zM407 331v21h-38v64h-22v-85h60zM478 331v21h-38v64h-22v-85h60zM569 331l32 85h-24l-18 -54l-3 -8q-2 6 -2 8
l-18 54h-25l33 -85h25zM672 331v21h-41v11h33v19h-33v13h39v21h-62v-85h64zM683 416v-85h22v26h11q8 0 17 -26h26q-9 28 -19 34q15 3 15 22q0 29 -37 29h-35zM868 331v85h-23v-85h23zM1053 331v85h-23v-49l-36 49h-20v-85h22v48l36 -48h21zM705 375v22h14q15 0 15 -11
t-14 -11h-15zM941 373q0 -23 -20 -23t-20 23q0 24 20 24t20 -24zM1083 397q-12 0 -12 -12q0 -13 12 -13q13 0 13 13q0 12 -13 12zM1083 355q-12 0 -12 -12q0 -13 12 -13q13 0 13 13q0 12 -13 12zM528 232q0 44 -43 44q-42 0 -42 -44t42 -44q43 0 43 44zM766 249l7 17
q-23 10 -38 10q-13 0 -20.5 -7.5t-7.5 -18.5q0 -20 24 -27q18 -4 18 -10t-7 -6q-13 0 -30 10l-9 -17q16 -12 40 -12q31 0 31 26q0 19 -23 27q-21 7 -21 11q0 5 8 5q7 0 28 -8zM898 197l-8 18q-15 -7 -27 -7q-20 0 -20 24q0 23 21 23q11 0 24 -4l6 16q-14 9 -31 9
q-43 0 -43 -44t42 -44q16 0 36 9zM987 232q0 44 -43 44q-20 0 -31.5 -11.5t-11.5 -32.5q0 -44 43 -44t43 44zM254 189h24l-4 85h-25l-20 -46q-1 -2 -1 -6l-3 6l-19 46h-26l-3 -85h24v49l20 -49h13l20 49v-49zM338 216l31 58h-24l-14 -27q-1 -1 -2.5 -5t-2.5 -5q-1 1 -2.5 5
t-2.5 5l-14 27h-24l32 -58v-27h23v27zM398 237v16h38v21h-61v-85h23v28h33v20h-33zM617 189v85h-23v-48l-36 48h-20v-85h23v48l36 -48h20zM700 253v21h-75v-21h27v-64h22v64h26zM1073 189h25l-4 85h-26l-19 -46q0 -1 -0.5 -3t-1.5 -3q0 2 -2 6l-20 46h-25l-3 -85h23v49
l20 -49h13l20 49v-49zM505 232q0 -24 -20 -24t-20 24q0 23 20 23t20 -23zM964 232q0 -24 -20 -24t-20 24q0 23 20 23t20 -23zM800 213q-12 0 -12 -12q0 -13 12 -13q13 0 13 13q0 12 -13 12z" />
    <glyph glyph-name="Iacute" unicode="&#xcd;" 
d="M1221 525h-1151v-451h1151v451zM108 487h1075v-375h-1075v375zM826 391l7 16q-20 10 -39 10q-13 0 -20.5 -7t-7.5 -18q0 -20 24 -27q19 -4 19 -10t-8 -6q-11 0 -30 10l-8 -17q17 -12 40 -12q31 0 31 26q0 19 -23 26q-22 7 -22 11q0 6 8 6t29 -8zM964 373q0 44 -43 44
t-43 -44q0 -43 43 -43t43 43zM208 378v17h38v21h-61v-85h23v27h33v20h-33zM334 416h-23v-44q0 -22 -17 -22q-15 0 -15 22v44h-23v-44q0 -42 38 -42q40 0 40 42v44zM407 331v21h-38v64h-22v-85h60zM478 331v21h-38v64h-22v-85h60zM569 331l32 85h-24l-18 -54l-3 -8q-2 6 -2 8
l-18 54h-25l33 -85h25zM672 331v21h-41v11h33v19h-33v13h39v21h-62v-85h64zM683 416v-85h22v26h11q8 0 17 -26h26q-9 28 -19 34q15 3 15 22q0 29 -37 29h-35zM868 331v85h-23v-85h23zM1053 331v85h-23v-49l-36 49h-20v-85h22v48l36 -48h21zM705 375v22h14q15 0 15 -11
t-14 -11h-15zM941 373q0 -23 -20 -23t-20 23q0 24 20 24t20 -24zM1083 397q-12 0 -12 -12q0 -13 12 -13q13 0 13 13q0 12 -13 12zM1083 355q-12 0 -12 -12q0 -13 12 -13q13 0 13 13q0 12 -13 12zM528 232q0 44 -43 44q-42 0 -42 -44t42 -44q43 0 43 44zM766 249l7 17
q-23 10 -38 10q-13 0 -20.5 -7.5t-7.5 -18.5q0 -20 24 -27q18 -4 18 -10t-7 -6q-13 0 -30 10l-9 -17q16 -12 40 -12q31 0 31 26q0 19 -23 27q-21 7 -21 11q0 5 8 5q7 0 28 -8zM898 197l-8 18q-15 -7 -27 -7q-20 0 -20 24q0 23 21 23q11 0 24 -4l6 16q-14 9 -31 9
q-43 0 -43 -44t42 -44q16 0 36 9zM987 232q0 44 -43 44q-20 0 -31.5 -11.5t-11.5 -32.5q0 -44 43 -44t43 44zM254 189h24l-4 85h-25l-20 -46q-1 -2 -1 -6l-3 6l-19 46h-26l-3 -85h24v49l20 -49h13l20 49v-49zM338 216l31 58h-24l-14 -27q-1 -1 -2.5 -5t-2.5 -5q-1 1 -2.5 5
t-2.5 5l-14 27h-24l32 -58v-27h23v27zM398 237v16h38v21h-61v-85h23v28h33v20h-33zM617 189v85h-23v-48l-36 48h-20v-85h23v48l36 -48h20zM700 253v21h-75v-21h27v-64h22v64h26zM1073 189h25l-4 85h-26l-19 -46q0 -1 -0.5 -3t-1.5 -3q0 2 -2 6l-20 46h-25l-3 -85h23v49
l20 -49h13l20 49v-49zM505 232q0 -24 -20 -24t-20 24q0 23 20 23t20 -23zM964 232q0 -24 -20 -24t-20 24q0 23 20 23t20 -23zM800 213q-12 0 -12 -12q0 -13 12 -13q13 0 13 13q0 12 -13 12z" />
    <glyph glyph-name="Icircumflex" unicode="&#xce;" 
d="M1221 525h-1151v-451h1151v451zM108 487h1075v-375h-1075v375zM826 391l7 16q-20 10 -39 10q-13 0 -20.5 -7t-7.5 -18q0 -20 24 -27q19 -4 19 -10t-8 -6q-11 0 -30 10l-8 -17q17 -12 40 -12q31 0 31 26q0 19 -23 26q-22 7 -22 11q0 6 8 6t29 -8zM964 373q0 44 -43 44
t-43 -44q0 -43 43 -43t43 43zM208 378v17h38v21h-61v-85h23v27h33v20h-33zM334 416h-23v-44q0 -22 -17 -22q-15 0 -15 22v44h-23v-44q0 -42 38 -42q40 0 40 42v44zM407 331v21h-38v64h-22v-85h60zM478 331v21h-38v64h-22v-85h60zM569 331l32 85h-24l-18 -54l-3 -8q-2 6 -2 8
l-18 54h-25l33 -85h25zM672 331v21h-41v11h33v19h-33v13h39v21h-62v-85h64zM683 416v-85h22v26h11q8 0 17 -26h26q-9 28 -19 34q15 3 15 22q0 29 -37 29h-35zM868 331v85h-23v-85h23zM1053 331v85h-23v-49l-36 49h-20v-85h22v48l36 -48h21zM705 375v22h14q15 0 15 -11
t-14 -11h-15zM941 373q0 -23 -20 -23t-20 23q0 24 20 24t20 -24zM1083 397q-12 0 -12 -12q0 -13 12 -13q13 0 13 13q0 12 -13 12zM1083 355q-12 0 -12 -12q0 -13 12 -13q13 0 13 13q0 12 -13 12zM528 232q0 44 -43 44q-42 0 -42 -44t42 -44q43 0 43 44zM766 249l7 17
q-23 10 -38 10q-13 0 -20.5 -7.5t-7.5 -18.5q0 -20 24 -27q18 -4 18 -10t-7 -6q-13 0 -30 10l-9 -17q16 -12 40 -12q31 0 31 26q0 19 -23 27q-21 7 -21 11q0 5 8 5q7 0 28 -8zM898 197l-8 18q-15 -7 -27 -7q-20 0 -20 24q0 23 21 23q11 0 24 -4l6 16q-14 9 -31 9
q-43 0 -43 -44t42 -44q16 0 36 9zM987 232q0 44 -43 44q-20 0 -31.5 -11.5t-11.5 -32.5q0 -44 43 -44t43 44zM254 189h24l-4 85h-25l-20 -46q-1 -2 -1 -6l-3 6l-19 46h-26l-3 -85h24v49l20 -49h13l20 49v-49zM338 216l31 58h-24l-14 -27q-1 -1 -2.5 -5t-2.5 -5q-1 1 -2.5 5
t-2.5 5l-14 27h-24l32 -58v-27h23v27zM398 237v16h38v21h-61v-85h23v28h33v20h-33zM617 189v85h-23v-48l-36 48h-20v-85h23v48l36 -48h20zM700 253v21h-75v-21h27v-64h22v64h26zM1073 189h25l-4 85h-26l-19 -46q0 -1 -0.5 -3t-1.5 -3q0 2 -2 6l-20 46h-25l-3 -85h23v49
l20 -49h13l20 49v-49zM505 232q0 -24 -20 -24t-20 24q0 23 20 23t20 -23zM964 232q0 -24 -20 -24t-20 24q0 23 20 23t20 -23zM800 213q-12 0 -12 -12q0 -13 12 -13q13 0 13 13q0 12 -13 12z" />
    <glyph glyph-name="Idieresis" unicode="&#xcf;" 
d="M1221 525h-1151v-451h1151v451zM108 487h1075v-375h-1075v375zM826 391l7 16q-20 10 -39 10q-13 0 -20.5 -7t-7.5 -18q0 -20 24 -27q19 -4 19 -10t-8 -6q-11 0 -30 10l-8 -17q17 -12 40 -12q31 0 31 26q0 19 -23 26q-22 7 -22 11q0 6 8 6t29 -8zM964 373q0 44 -43 44
t-43 -44q0 -43 43 -43t43 43zM208 378v17h38v21h-61v-85h23v27h33v20h-33zM334 416h-23v-44q0 -22 -17 -22q-15 0 -15 22v44h-23v-44q0 -42 38 -42q40 0 40 42v44zM407 331v21h-38v64h-22v-85h60zM478 331v21h-38v64h-22v-85h60zM569 331l32 85h-24l-18 -54l-3 -8q-2 6 -2 8
l-18 54h-25l33 -85h25zM672 331v21h-41v11h33v19h-33v13h39v21h-62v-85h64zM683 416v-85h22v26h11q8 0 17 -26h26q-9 28 -19 34q15 3 15 22q0 29 -37 29h-35zM868 331v85h-23v-85h23zM1053 331v85h-23v-49l-36 49h-20v-85h22v48l36 -48h21zM705 375v22h14q15 0 15 -11
t-14 -11h-15zM941 373q0 -23 -20 -23t-20 23q0 24 20 24t20 -24zM1083 397q-12 0 -12 -12q0 -13 12 -13q13 0 13 13q0 12 -13 12zM1083 355q-12 0 -12 -12q0 -13 12 -13q13 0 13 13q0 12 -13 12zM528 232q0 44 -43 44q-42 0 -42 -44t42 -44q43 0 43 44zM766 249l7 17
q-23 10 -38 10q-13 0 -20.5 -7.5t-7.5 -18.5q0 -20 24 -27q18 -4 18 -10t-7 -6q-13 0 -30 10l-9 -17q16 -12 40 -12q31 0 31 26q0 19 -23 27q-21 7 -21 11q0 5 8 5q7 0 28 -8zM898 197l-8 18q-15 -7 -27 -7q-20 0 -20 24q0 23 21 23q11 0 24 -4l6 16q-14 9 -31 9
q-43 0 -43 -44t42 -44q16 0 36 9zM987 232q0 44 -43 44q-20 0 -31.5 -11.5t-11.5 -32.5q0 -44 43 -44t43 44zM254 189h24l-4 85h-25l-20 -46q-1 -2 -1 -6l-3 6l-19 46h-26l-3 -85h24v49l20 -49h13l20 49v-49zM338 216l31 58h-24l-14 -27q-1 -1 -2.5 -5t-2.5 -5q-1 1 -2.5 5
t-2.5 5l-14 27h-24l32 -58v-27h23v27zM398 237v16h38v21h-61v-85h23v28h33v20h-33zM617 189v85h-23v-48l-36 48h-20v-85h23v48l36 -48h20zM700 253v21h-75v-21h27v-64h22v64h26zM1073 189h25l-4 85h-26l-19 -46q0 -1 -0.5 -3t-1.5 -3q0 2 -2 6l-20 46h-25l-3 -85h23v49
l20 -49h13l20 49v-49zM505 232q0 -24 -20 -24t-20 24q0 23 20 23t20 -23zM964 232q0 -24 -20 -24t-20 24q0 23 20 23t20 -23zM800 213q-12 0 -12 -12q0 -13 12 -13q13 0 13 13q0 12 -13 12z" />
    <glyph glyph-name="Eth" unicode="&#xd0;" 
d="M1221 525h-1151v-451h1151v451zM108 487h1075v-375h-1075v375zM826 391l7 16q-20 10 -39 10q-13 0 -20.5 -7t-7.5 -18q0 -20 24 -27q19 -4 19 -10t-8 -6q-11 0 -30 10l-8 -17q17 -12 40 -12q31 0 31 26q0 19 -23 26q-22 7 -22 11q0 6 8 6t29 -8zM964 373q0 44 -43 44
t-43 -44q0 -43 43 -43t43 43zM208 378v17h38v21h-61v-85h23v27h33v20h-33zM334 416h-23v-44q0 -22 -17 -22q-15 0 -15 22v44h-23v-44q0 -42 38 -42q40 0 40 42v44zM407 331v21h-38v64h-22v-85h60zM478 331v21h-38v64h-22v-85h60zM569 331l32 85h-24l-18 -54l-3 -8q-2 6 -2 8
l-18 54h-25l33 -85h25zM672 331v21h-41v11h33v19h-33v13h39v21h-62v-85h64zM683 416v-85h22v26h11q8 0 17 -26h26q-9 28 -19 34q15 3 15 22q0 29 -37 29h-35zM868 331v85h-23v-85h23zM1053 331v85h-23v-49l-36 49h-20v-85h22v48l36 -48h21zM705 375v22h14q15 0 15 -11
t-14 -11h-15zM941 373q0 -23 -20 -23t-20 23q0 24 20 24t20 -24zM1083 397q-12 0 -12 -12q0 -13 12 -13q13 0 13 13q0 12 -13 12zM1083 355q-12 0 -12 -12q0 -13 12 -13q13 0 13 13q0 12 -13 12zM528 232q0 44 -43 44q-42 0 -42 -44t42 -44q43 0 43 44zM766 249l7 17
q-23 10 -38 10q-13 0 -20.5 -7.5t-7.5 -18.5q0 -20 24 -27q18 -4 18 -10t-7 -6q-13 0 -30 10l-9 -17q16 -12 40 -12q31 0 31 26q0 19 -23 27q-21 7 -21 11q0 5 8 5q7 0 28 -8zM898 197l-8 18q-15 -7 -27 -7q-20 0 -20 24q0 23 21 23q11 0 24 -4l6 16q-14 9 -31 9
q-43 0 -43 -44t42 -44q16 0 36 9zM987 232q0 44 -43 44q-20 0 -31.5 -11.5t-11.5 -32.5q0 -44 43 -44t43 44zM254 189h24l-4 85h-25l-20 -46q-1 -2 -1 -6l-3 6l-19 46h-26l-3 -85h24v49l20 -49h13l20 49v-49zM338 216l31 58h-24l-14 -27q-1 -1 -2.5 -5t-2.5 -5q-1 1 -2.5 5
t-2.5 5l-14 27h-24l32 -58v-27h23v27zM398 237v16h38v21h-61v-85h23v28h33v20h-33zM617 189v85h-23v-48l-36 48h-20v-85h23v48l36 -48h20zM700 253v21h-75v-21h27v-64h22v64h26zM1073 189h25l-4 85h-26l-19 -46q0 -1 -0.5 -3t-1.5 -3q0 2 -2 6l-20 46h-25l-3 -85h23v49
l20 -49h13l20 49v-49zM505 232q0 -24 -20 -24t-20 24q0 23 20 23t20 -23zM964 232q0 -24 -20 -24t-20 24q0 23 20 23t20 -23zM800 213q-12 0 -12 -12q0 -13 12 -13q13 0 13 13q0 12 -13 12z" />
    <glyph glyph-name="Ntilde" unicode="&#xd1;" 
d="M1221 525h-1151v-451h1151v451zM108 487h1075v-375h-1075v375zM826 391l7 16q-20 10 -39 10q-13 0 -20.5 -7t-7.5 -18q0 -20 24 -27q19 -4 19 -10t-8 -6q-11 0 -30 10l-8 -17q17 -12 40 -12q31 0 31 26q0 19 -23 26q-22 7 -22 11q0 6 8 6t29 -8zM964 373q0 44 -43 44
t-43 -44q0 -43 43 -43t43 43zM208 378v17h38v21h-61v-85h23v27h33v20h-33zM334 416h-23v-44q0 -22 -17 -22q-15 0 -15 22v44h-23v-44q0 -42 38 -42q40 0 40 42v44zM407 331v21h-38v64h-22v-85h60zM478 331v21h-38v64h-22v-85h60zM569 331l32 85h-24l-18 -54l-3 -8q-2 6 -2 8
l-18 54h-25l33 -85h25zM672 331v21h-41v11h33v19h-33v13h39v21h-62v-85h64zM683 416v-85h22v26h11q8 0 17 -26h26q-9 28 -19 34q15 3 15 22q0 29 -37 29h-35zM868 331v85h-23v-85h23zM1053 331v85h-23v-49l-36 49h-20v-85h22v48l36 -48h21zM705 375v22h14q15 0 15 -11
t-14 -11h-15zM941 373q0 -23 -20 -23t-20 23q0 24 20 24t20 -24zM1083 397q-12 0 -12 -12q0 -13 12 -13q13 0 13 13q0 12 -13 12zM1083 355q-12 0 -12 -12q0 -13 12 -13q13 0 13 13q0 12 -13 12zM528 232q0 44 -43 44q-42 0 -42 -44t42 -44q43 0 43 44zM766 249l7 17
q-23 10 -38 10q-13 0 -20.5 -7.5t-7.5 -18.5q0 -20 24 -27q18 -4 18 -10t-7 -6q-13 0 -30 10l-9 -17q16 -12 40 -12q31 0 31 26q0 19 -23 27q-21 7 -21 11q0 5 8 5q7 0 28 -8zM898 197l-8 18q-15 -7 -27 -7q-20 0 -20 24q0 23 21 23q11 0 24 -4l6 16q-14 9 -31 9
q-43 0 -43 -44t42 -44q16 0 36 9zM987 232q0 44 -43 44q-20 0 -31.5 -11.5t-11.5 -32.5q0 -44 43 -44t43 44zM254 189h24l-4 85h-25l-20 -46q-1 -2 -1 -6l-3 6l-19 46h-26l-3 -85h24v49l20 -49h13l20 49v-49zM338 216l31 58h-24l-14 -27q-1 -1 -2.5 -5t-2.5 -5q-1 1 -2.5 5
t-2.5 5l-14 27h-24l32 -58v-27h23v27zM398 237v16h38v21h-61v-85h23v28h33v20h-33zM617 189v85h-23v-48l-36 48h-20v-85h23v48l36 -48h20zM700 253v21h-75v-21h27v-64h22v64h26zM1073 189h25l-4 85h-26l-19 -46q0 -1 -0.5 -3t-1.5 -3q0 2 -2 6l-20 46h-25l-3 -85h23v49
l20 -49h13l20 49v-49zM505 232q0 -24 -20 -24t-20 24q0 23 20 23t20 -23zM964 232q0 -24 -20 -24t-20 24q0 23 20 23t20 -23zM800 213q-12 0 -12 -12q0 -13 12 -13q13 0 13 13q0 12 -13 12z" />
    <glyph glyph-name="Ograve" unicode="&#xd2;" 
d="M1221 525h-1151v-451h1151v451zM108 487h1075v-375h-1075v375zM826 391l7 16q-20 10 -39 10q-13 0 -20.5 -7t-7.5 -18q0 -20 24 -27q19 -4 19 -10t-8 -6q-11 0 -30 10l-8 -17q17 -12 40 -12q31 0 31 26q0 19 -23 26q-22 7 -22 11q0 6 8 6t29 -8zM964 373q0 44 -43 44
t-43 -44q0 -43 43 -43t43 43zM208 378v17h38v21h-61v-85h23v27h33v20h-33zM334 416h-23v-44q0 -22 -17 -22q-15 0 -15 22v44h-23v-44q0 -42 38 -42q40 0 40 42v44zM407 331v21h-38v64h-22v-85h60zM478 331v21h-38v64h-22v-85h60zM569 331l32 85h-24l-18 -54l-3 -8q-2 6 -2 8
l-18 54h-25l33 -85h25zM672 331v21h-41v11h33v19h-33v13h39v21h-62v-85h64zM683 416v-85h22v26h11q8 0 17 -26h26q-9 28 -19 34q15 3 15 22q0 29 -37 29h-35zM868 331v85h-23v-85h23zM1053 331v85h-23v-49l-36 49h-20v-85h22v48l36 -48h21zM705 375v22h14q15 0 15 -11
t-14 -11h-15zM941 373q0 -23 -20 -23t-20 23q0 24 20 24t20 -24zM1083 397q-12 0 -12 -12q0 -13 12 -13q13 0 13 13q0 12 -13 12zM1083 355q-12 0 -12 -12q0 -13 12 -13q13 0 13 13q0 12 -13 12zM528 232q0 44 -43 44q-42 0 -42 -44t42 -44q43 0 43 44zM766 249l7 17
q-23 10 -38 10q-13 0 -20.5 -7.5t-7.5 -18.5q0 -20 24 -27q18 -4 18 -10t-7 -6q-13 0 -30 10l-9 -17q16 -12 40 -12q31 0 31 26q0 19 -23 27q-21 7 -21 11q0 5 8 5q7 0 28 -8zM898 197l-8 18q-15 -7 -27 -7q-20 0 -20 24q0 23 21 23q11 0 24 -4l6 16q-14 9 -31 9
q-43 0 -43 -44t42 -44q16 0 36 9zM987 232q0 44 -43 44q-20 0 -31.5 -11.5t-11.5 -32.5q0 -44 43 -44t43 44zM254 189h24l-4 85h-25l-20 -46q-1 -2 -1 -6l-3 6l-19 46h-26l-3 -85h24v49l20 -49h13l20 49v-49zM338 216l31 58h-24l-14 -27q-1 -1 -2.5 -5t-2.5 -5q-1 1 -2.5 5
t-2.5 5l-14 27h-24l32 -58v-27h23v27zM398 237v16h38v21h-61v-85h23v28h33v20h-33zM617 189v85h-23v-48l-36 48h-20v-85h23v48l36 -48h20zM700 253v21h-75v-21h27v-64h22v64h26zM1073 189h25l-4 85h-26l-19 -46q0 -1 -0.5 -3t-1.5 -3q0 2 -2 6l-20 46h-25l-3 -85h23v49
l20 -49h13l20 49v-49zM505 232q0 -24 -20 -24t-20 24q0 23 20 23t20 -23zM964 232q0 -24 -20 -24t-20 24q0 23 20 23t20 -23zM800 213q-12 0 -12 -12q0 -13 12 -13q13 0 13 13q0 12 -13 12z" />
    <glyph glyph-name="Oacute" unicode="&#xd3;" 
d="M1221 525h-1151v-451h1151v451zM108 487h1075v-375h-1075v375zM826 391l7 16q-20 10 -39 10q-13 0 -20.5 -7t-7.5 -18q0 -20 24 -27q19 -4 19 -10t-8 -6q-11 0 -30 10l-8 -17q17 -12 40 -12q31 0 31 26q0 19 -23 26q-22 7 -22 11q0 6 8 6t29 -8zM964 373q0 44 -43 44
t-43 -44q0 -43 43 -43t43 43zM208 378v17h38v21h-61v-85h23v27h33v20h-33zM334 416h-23v-44q0 -22 -17 -22q-15 0 -15 22v44h-23v-44q0 -42 38 -42q40 0 40 42v44zM407 331v21h-38v64h-22v-85h60zM478 331v21h-38v64h-22v-85h60zM569 331l32 85h-24l-18 -54l-3 -8q-2 6 -2 8
l-18 54h-25l33 -85h25zM672 331v21h-41v11h33v19h-33v13h39v21h-62v-85h64zM683 416v-85h22v26h11q8 0 17 -26h26q-9 28 -19 34q15 3 15 22q0 29 -37 29h-35zM868 331v85h-23v-85h23zM1053 331v85h-23v-49l-36 49h-20v-85h22v48l36 -48h21zM705 375v22h14q15 0 15 -11
t-14 -11h-15zM941 373q0 -23 -20 -23t-20 23q0 24 20 24t20 -24zM1083 397q-12 0 -12 -12q0 -13 12 -13q13 0 13 13q0 12 -13 12zM1083 355q-12 0 -12 -12q0 -13 12 -13q13 0 13 13q0 12 -13 12zM528 232q0 44 -43 44q-42 0 -42 -44t42 -44q43 0 43 44zM766 249l7 17
q-23 10 -38 10q-13 0 -20.5 -7.5t-7.5 -18.5q0 -20 24 -27q18 -4 18 -10t-7 -6q-13 0 -30 10l-9 -17q16 -12 40 -12q31 0 31 26q0 19 -23 27q-21 7 -21 11q0 5 8 5q7 0 28 -8zM898 197l-8 18q-15 -7 -27 -7q-20 0 -20 24q0 23 21 23q11 0 24 -4l6 16q-14 9 -31 9
q-43 0 -43 -44t42 -44q16 0 36 9zM987 232q0 44 -43 44q-20 0 -31.5 -11.5t-11.5 -32.5q0 -44 43 -44t43 44zM254 189h24l-4 85h-25l-20 -46q-1 -2 -1 -6l-3 6l-19 46h-26l-3 -85h24v49l20 -49h13l20 49v-49zM338 216l31 58h-24l-14 -27q-1 -1 -2.5 -5t-2.5 -5q-1 1 -2.5 5
t-2.5 5l-14 27h-24l32 -58v-27h23v27zM398 237v16h38v21h-61v-85h23v28h33v20h-33zM617 189v85h-23v-48l-36 48h-20v-85h23v48l36 -48h20zM700 253v21h-75v-21h27v-64h22v64h26zM1073 189h25l-4 85h-26l-19 -46q0 -1 -0.5 -3t-1.5 -3q0 2 -2 6l-20 46h-25l-3 -85h23v49
l20 -49h13l20 49v-49zM505 232q0 -24 -20 -24t-20 24q0 23 20 23t20 -23zM964 232q0 -24 -20 -24t-20 24q0 23 20 23t20 -23zM800 213q-12 0 -12 -12q0 -13 12 -13q13 0 13 13q0 12 -13 12z" />
    <glyph glyph-name="Ocircumflex" unicode="&#xd4;" 
d="M1221 525h-1151v-451h1151v451zM108 487h1075v-375h-1075v375zM826 391l7 16q-20 10 -39 10q-13 0 -20.5 -7t-7.5 -18q0 -20 24 -27q19 -4 19 -10t-8 -6q-11 0 -30 10l-8 -17q17 -12 40 -12q31 0 31 26q0 19 -23 26q-22 7 -22 11q0 6 8 6t29 -8zM964 373q0 44 -43 44
t-43 -44q0 -43 43 -43t43 43zM208 378v17h38v21h-61v-85h23v27h33v20h-33zM334 416h-23v-44q0 -22 -17 -22q-15 0 -15 22v44h-23v-44q0 -42 38 -42q40 0 40 42v44zM407 331v21h-38v64h-22v-85h60zM478 331v21h-38v64h-22v-85h60zM569 331l32 85h-24l-18 -54l-3 -8q-2 6 -2 8
l-18 54h-25l33 -85h25zM672 331v21h-41v11h33v19h-33v13h39v21h-62v-85h64zM683 416v-85h22v26h11q8 0 17 -26h26q-9 28 -19 34q15 3 15 22q0 29 -37 29h-35zM868 331v85h-23v-85h23zM1053 331v85h-23v-49l-36 49h-20v-85h22v48l36 -48h21zM705 375v22h14q15 0 15 -11
t-14 -11h-15zM941 373q0 -23 -20 -23t-20 23q0 24 20 24t20 -24zM1083 397q-12 0 -12 -12q0 -13 12 -13q13 0 13 13q0 12 -13 12zM1083 355q-12 0 -12 -12q0 -13 12 -13q13 0 13 13q0 12 -13 12zM528 232q0 44 -43 44q-42 0 -42 -44t42 -44q43 0 43 44zM766 249l7 17
q-23 10 -38 10q-13 0 -20.5 -7.5t-7.5 -18.5q0 -20 24 -27q18 -4 18 -10t-7 -6q-13 0 -30 10l-9 -17q16 -12 40 -12q31 0 31 26q0 19 -23 27q-21 7 -21 11q0 5 8 5q7 0 28 -8zM898 197l-8 18q-15 -7 -27 -7q-20 0 -20 24q0 23 21 23q11 0 24 -4l6 16q-14 9 -31 9
q-43 0 -43 -44t42 -44q16 0 36 9zM987 232q0 44 -43 44q-20 0 -31.5 -11.5t-11.5 -32.5q0 -44 43 -44t43 44zM254 189h24l-4 85h-25l-20 -46q-1 -2 -1 -6l-3 6l-19 46h-26l-3 -85h24v49l20 -49h13l20 49v-49zM338 216l31 58h-24l-14 -27q-1 -1 -2.5 -5t-2.5 -5q-1 1 -2.5 5
t-2.5 5l-14 27h-24l32 -58v-27h23v27zM398 237v16h38v21h-61v-85h23v28h33v20h-33zM617 189v85h-23v-48l-36 48h-20v-85h23v48l36 -48h20zM700 253v21h-75v-21h27v-64h22v64h26zM1073 189h25l-4 85h-26l-19 -46q0 -1 -0.5 -3t-1.5 -3q0 2 -2 6l-20 46h-25l-3 -85h23v49
l20 -49h13l20 49v-49zM505 232q0 -24 -20 -24t-20 24q0 23 20 23t20 -23zM964 232q0 -24 -20 -24t-20 24q0 23 20 23t20 -23zM800 213q-12 0 -12 -12q0 -13 12 -13q13 0 13 13q0 12 -13 12z" />
    <glyph glyph-name="Otilde" unicode="&#xd5;" 
d="M1221 525h-1151v-451h1151v451zM108 487h1075v-375h-1075v375zM826 391l7 16q-20 10 -39 10q-13 0 -20.5 -7t-7.5 -18q0 -20 24 -27q19 -4 19 -10t-8 -6q-11 0 -30 10l-8 -17q17 -12 40 -12q31 0 31 26q0 19 -23 26q-22 7 -22 11q0 6 8 6t29 -8zM964 373q0 44 -43 44
t-43 -44q0 -43 43 -43t43 43zM208 378v17h38v21h-61v-85h23v27h33v20h-33zM334 416h-23v-44q0 -22 -17 -22q-15 0 -15 22v44h-23v-44q0 -42 38 -42q40 0 40 42v44zM407 331v21h-38v64h-22v-85h60zM478 331v21h-38v64h-22v-85h60zM569 331l32 85h-24l-18 -54l-3 -8q-2 6 -2 8
l-18 54h-25l33 -85h25zM672 331v21h-41v11h33v19h-33v13h39v21h-62v-85h64zM683 416v-85h22v26h11q8 0 17 -26h26q-9 28 -19 34q15 3 15 22q0 29 -37 29h-35zM868 331v85h-23v-85h23zM1053 331v85h-23v-49l-36 49h-20v-85h22v48l36 -48h21zM705 375v22h14q15 0 15 -11
t-14 -11h-15zM941 373q0 -23 -20 -23t-20 23q0 24 20 24t20 -24zM1083 397q-12 0 -12 -12q0 -13 12 -13q13 0 13 13q0 12 -13 12zM1083 355q-12 0 -12 -12q0 -13 12 -13q13 0 13 13q0 12 -13 12zM528 232q0 44 -43 44q-42 0 -42 -44t42 -44q43 0 43 44zM766 249l7 17
q-23 10 -38 10q-13 0 -20.5 -7.5t-7.5 -18.5q0 -20 24 -27q18 -4 18 -10t-7 -6q-13 0 -30 10l-9 -17q16 -12 40 -12q31 0 31 26q0 19 -23 27q-21 7 -21 11q0 5 8 5q7 0 28 -8zM898 197l-8 18q-15 -7 -27 -7q-20 0 -20 24q0 23 21 23q11 0 24 -4l6 16q-14 9 -31 9
q-43 0 -43 -44t42 -44q16 0 36 9zM987 232q0 44 -43 44q-20 0 -31.5 -11.5t-11.5 -32.5q0 -44 43 -44t43 44zM254 189h24l-4 85h-25l-20 -46q-1 -2 -1 -6l-3 6l-19 46h-26l-3 -85h24v49l20 -49h13l20 49v-49zM338 216l31 58h-24l-14 -27q-1 -1 -2.5 -5t-2.5 -5q-1 1 -2.5 5
t-2.5 5l-14 27h-24l32 -58v-27h23v27zM398 237v16h38v21h-61v-85h23v28h33v20h-33zM617 189v85h-23v-48l-36 48h-20v-85h23v48l36 -48h20zM700 253v21h-75v-21h27v-64h22v64h26zM1073 189h25l-4 85h-26l-19 -46q0 -1 -0.5 -3t-1.5 -3q0 2 -2 6l-20 46h-25l-3 -85h23v49
l20 -49h13l20 49v-49zM505 232q0 -24 -20 -24t-20 24q0 23 20 23t20 -23zM964 232q0 -24 -20 -24t-20 24q0 23 20 23t20 -23zM800 213q-12 0 -12 -12q0 -13 12 -13q13 0 13 13q0 12 -13 12z" />
    <glyph glyph-name="Odieresis" unicode="&#xd6;" 
d="M1221 525h-1151v-451h1151v451zM108 487h1075v-375h-1075v375zM826 391l7 16q-20 10 -39 10q-13 0 -20.5 -7t-7.5 -18q0 -20 24 -27q19 -4 19 -10t-8 -6q-11 0 -30 10l-8 -17q17 -12 40 -12q31 0 31 26q0 19 -23 26q-22 7 -22 11q0 6 8 6t29 -8zM964 373q0 44 -43 44
t-43 -44q0 -43 43 -43t43 43zM208 378v17h38v21h-61v-85h23v27h33v20h-33zM334 416h-23v-44q0 -22 -17 -22q-15 0 -15 22v44h-23v-44q0 -42 38 -42q40 0 40 42v44zM407 331v21h-38v64h-22v-85h60zM478 331v21h-38v64h-22v-85h60zM569 331l32 85h-24l-18 -54l-3 -8q-2 6 -2 8
l-18 54h-25l33 -85h25zM672 331v21h-41v11h33v19h-33v13h39v21h-62v-85h64zM683 416v-85h22v26h11q8 0 17 -26h26q-9 28 -19 34q15 3 15 22q0 29 -37 29h-35zM868 331v85h-23v-85h23zM1053 331v85h-23v-49l-36 49h-20v-85h22v48l36 -48h21zM705 375v22h14q15 0 15 -11
t-14 -11h-15zM941 373q0 -23 -20 -23t-20 23q0 24 20 24t20 -24zM1083 397q-12 0 -12 -12q0 -13 12 -13q13 0 13 13q0 12 -13 12zM1083 355q-12 0 -12 -12q0 -13 12 -13q13 0 13 13q0 12 -13 12zM528 232q0 44 -43 44q-42 0 -42 -44t42 -44q43 0 43 44zM766 249l7 17
q-23 10 -38 10q-13 0 -20.5 -7.5t-7.5 -18.5q0 -20 24 -27q18 -4 18 -10t-7 -6q-13 0 -30 10l-9 -17q16 -12 40 -12q31 0 31 26q0 19 -23 27q-21 7 -21 11q0 5 8 5q7 0 28 -8zM898 197l-8 18q-15 -7 -27 -7q-20 0 -20 24q0 23 21 23q11 0 24 -4l6 16q-14 9 -31 9
q-43 0 -43 -44t42 -44q16 0 36 9zM987 232q0 44 -43 44q-20 0 -31.5 -11.5t-11.5 -32.5q0 -44 43 -44t43 44zM254 189h24l-4 85h-25l-20 -46q-1 -2 -1 -6l-3 6l-19 46h-26l-3 -85h24v49l20 -49h13l20 49v-49zM338 216l31 58h-24l-14 -27q-1 -1 -2.5 -5t-2.5 -5q-1 1 -2.5 5
t-2.5 5l-14 27h-24l32 -58v-27h23v27zM398 237v16h38v21h-61v-85h23v28h33v20h-33zM617 189v85h-23v-48l-36 48h-20v-85h23v48l36 -48h20zM700 253v21h-75v-21h27v-64h22v64h26zM1073 189h25l-4 85h-26l-19 -46q0 -1 -0.5 -3t-1.5 -3q0 2 -2 6l-20 46h-25l-3 -85h23v49
l20 -49h13l20 49v-49zM505 232q0 -24 -20 -24t-20 24q0 23 20 23t20 -23zM964 232q0 -24 -20 -24t-20 24q0 23 20 23t20 -23zM800 213q-12 0 -12 -12q0 -13 12 -13q13 0 13 13q0 12 -13 12z" />
    <glyph glyph-name="Oslash" unicode="&#xd8;" 
d="M1221 525h-1151v-451h1151v451zM108 487h1075v-375h-1075v375zM826 391l7 16q-20 10 -39 10q-13 0 -20.5 -7t-7.5 -18q0 -20 24 -27q19 -4 19 -10t-8 -6q-11 0 -30 10l-8 -17q17 -12 40 -12q31 0 31 26q0 19 -23 26q-22 7 -22 11q0 6 8 6t29 -8zM964 373q0 44 -43 44
t-43 -44q0 -43 43 -43t43 43zM208 378v17h38v21h-61v-85h23v27h33v20h-33zM334 416h-23v-44q0 -22 -17 -22q-15 0 -15 22v44h-23v-44q0 -42 38 -42q40 0 40 42v44zM407 331v21h-38v64h-22v-85h60zM478 331v21h-38v64h-22v-85h60zM569 331l32 85h-24l-18 -54l-3 -8q-2 6 -2 8
l-18 54h-25l33 -85h25zM672 331v21h-41v11h33v19h-33v13h39v21h-62v-85h64zM683 416v-85h22v26h11q8 0 17 -26h26q-9 28 -19 34q15 3 15 22q0 29 -37 29h-35zM868 331v85h-23v-85h23zM1053 331v85h-23v-49l-36 49h-20v-85h22v48l36 -48h21zM705 375v22h14q15 0 15 -11
t-14 -11h-15zM941 373q0 -23 -20 -23t-20 23q0 24 20 24t20 -24zM1083 397q-12 0 -12 -12q0 -13 12 -13q13 0 13 13q0 12 -13 12zM1083 355q-12 0 -12 -12q0 -13 12 -13q13 0 13 13q0 12 -13 12zM528 232q0 44 -43 44q-42 0 -42 -44t42 -44q43 0 43 44zM766 249l7 17
q-23 10 -38 10q-13 0 -20.5 -7.5t-7.5 -18.5q0 -20 24 -27q18 -4 18 -10t-7 -6q-13 0 -30 10l-9 -17q16 -12 40 -12q31 0 31 26q0 19 -23 27q-21 7 -21 11q0 5 8 5q7 0 28 -8zM898 197l-8 18q-15 -7 -27 -7q-20 0 -20 24q0 23 21 23q11 0 24 -4l6 16q-14 9 -31 9
q-43 0 -43 -44t42 -44q16 0 36 9zM987 232q0 44 -43 44q-20 0 -31.5 -11.5t-11.5 -32.5q0 -44 43 -44t43 44zM254 189h24l-4 85h-25l-20 -46q-1 -2 -1 -6l-3 6l-19 46h-26l-3 -85h24v49l20 -49h13l20 49v-49zM338 216l31 58h-24l-14 -27q-1 -1 -2.5 -5t-2.5 -5q-1 1 -2.5 5
t-2.5 5l-14 27h-24l32 -58v-27h23v27zM398 237v16h38v21h-61v-85h23v28h33v20h-33zM617 189v85h-23v-48l-36 48h-20v-85h23v48l36 -48h20zM700 253v21h-75v-21h27v-64h22v64h26zM1073 189h25l-4 85h-26l-19 -46q0 -1 -0.5 -3t-1.5 -3q0 2 -2 6l-20 46h-25l-3 -85h23v49
l20 -49h13l20 49v-49zM505 232q0 -24 -20 -24t-20 24q0 23 20 23t20 -23zM964 232q0 -24 -20 -24t-20 24q0 23 20 23t20 -23zM800 213q-12 0 -12 -12q0 -13 12 -13q13 0 13 13q0 12 -13 12z" />
    <glyph glyph-name="Ugrave" unicode="&#xd9;" 
d="M1221 525h-1151v-451h1151v451zM108 487h1075v-375h-1075v375zM826 391l7 16q-20 10 -39 10q-13 0 -20.5 -7t-7.5 -18q0 -20 24 -27q19 -4 19 -10t-8 -6q-11 0 -30 10l-8 -17q17 -12 40 -12q31 0 31 26q0 19 -23 26q-22 7 -22 11q0 6 8 6t29 -8zM964 373q0 44 -43 44
t-43 -44q0 -43 43 -43t43 43zM208 378v17h38v21h-61v-85h23v27h33v20h-33zM334 416h-23v-44q0 -22 -17 -22q-15 0 -15 22v44h-23v-44q0 -42 38 -42q40 0 40 42v44zM407 331v21h-38v64h-22v-85h60zM478 331v21h-38v64h-22v-85h60zM569 331l32 85h-24l-18 -54l-3 -8q-2 6 -2 8
l-18 54h-25l33 -85h25zM672 331v21h-41v11h33v19h-33v13h39v21h-62v-85h64zM683 416v-85h22v26h11q8 0 17 -26h26q-9 28 -19 34q15 3 15 22q0 29 -37 29h-35zM868 331v85h-23v-85h23zM1053 331v85h-23v-49l-36 49h-20v-85h22v48l36 -48h21zM705 375v22h14q15 0 15 -11
t-14 -11h-15zM941 373q0 -23 -20 -23t-20 23q0 24 20 24t20 -24zM1083 397q-12 0 -12 -12q0 -13 12 -13q13 0 13 13q0 12 -13 12zM1083 355q-12 0 -12 -12q0 -13 12 -13q13 0 13 13q0 12 -13 12zM528 232q0 44 -43 44q-42 0 -42 -44t42 -44q43 0 43 44zM766 249l7 17
q-23 10 -38 10q-13 0 -20.5 -7.5t-7.5 -18.5q0 -20 24 -27q18 -4 18 -10t-7 -6q-13 0 -30 10l-9 -17q16 -12 40 -12q31 0 31 26q0 19 -23 27q-21 7 -21 11q0 5 8 5q7 0 28 -8zM898 197l-8 18q-15 -7 -27 -7q-20 0 -20 24q0 23 21 23q11 0 24 -4l6 16q-14 9 -31 9
q-43 0 -43 -44t42 -44q16 0 36 9zM987 232q0 44 -43 44q-20 0 -31.5 -11.5t-11.5 -32.5q0 -44 43 -44t43 44zM254 189h24l-4 85h-25l-20 -46q-1 -2 -1 -6l-3 6l-19 46h-26l-3 -85h24v49l20 -49h13l20 49v-49zM338 216l31 58h-24l-14 -27q-1 -1 -2.5 -5t-2.5 -5q-1 1 -2.5 5
t-2.5 5l-14 27h-24l32 -58v-27h23v27zM398 237v16h38v21h-61v-85h23v28h33v20h-33zM617 189v85h-23v-48l-36 48h-20v-85h23v48l36 -48h20zM700 253v21h-75v-21h27v-64h22v64h26zM1073 189h25l-4 85h-26l-19 -46q0 -1 -0.5 -3t-1.5 -3q0 2 -2 6l-20 46h-25l-3 -85h23v49
l20 -49h13l20 49v-49zM505 232q0 -24 -20 -24t-20 24q0 23 20 23t20 -23zM964 232q0 -24 -20 -24t-20 24q0 23 20 23t20 -23zM800 213q-12 0 -12 -12q0 -13 12 -13q13 0 13 13q0 12 -13 12z" />
    <glyph glyph-name="Uacute" unicode="&#xda;" 
d="M1221 525h-1151v-451h1151v451zM108 487h1075v-375h-1075v375zM826 391l7 16q-20 10 -39 10q-13 0 -20.5 -7t-7.5 -18q0 -20 24 -27q19 -4 19 -10t-8 -6q-11 0 -30 10l-8 -17q17 -12 40 -12q31 0 31 26q0 19 -23 26q-22 7 -22 11q0 6 8 6t29 -8zM964 373q0 44 -43 44
t-43 -44q0 -43 43 -43t43 43zM208 378v17h38v21h-61v-85h23v27h33v20h-33zM334 416h-23v-44q0 -22 -17 -22q-15 0 -15 22v44h-23v-44q0 -42 38 -42q40 0 40 42v44zM407 331v21h-38v64h-22v-85h60zM478 331v21h-38v64h-22v-85h60zM569 331l32 85h-24l-18 -54l-3 -8q-2 6 -2 8
l-18 54h-25l33 -85h25zM672 331v21h-41v11h33v19h-33v13h39v21h-62v-85h64zM683 416v-85h22v26h11q8 0 17 -26h26q-9 28 -19 34q15 3 15 22q0 29 -37 29h-35zM868 331v85h-23v-85h23zM1053 331v85h-23v-49l-36 49h-20v-85h22v48l36 -48h21zM705 375v22h14q15 0 15 -11
t-14 -11h-15zM941 373q0 -23 -20 -23t-20 23q0 24 20 24t20 -24zM1083 397q-12 0 -12 -12q0 -13 12 -13q13 0 13 13q0 12 -13 12zM1083 355q-12 0 -12 -12q0 -13 12 -13q13 0 13 13q0 12 -13 12zM528 232q0 44 -43 44q-42 0 -42 -44t42 -44q43 0 43 44zM766 249l7 17
q-23 10 -38 10q-13 0 -20.5 -7.5t-7.5 -18.5q0 -20 24 -27q18 -4 18 -10t-7 -6q-13 0 -30 10l-9 -17q16 -12 40 -12q31 0 31 26q0 19 -23 27q-21 7 -21 11q0 5 8 5q7 0 28 -8zM898 197l-8 18q-15 -7 -27 -7q-20 0 -20 24q0 23 21 23q11 0 24 -4l6 16q-14 9 -31 9
q-43 0 -43 -44t42 -44q16 0 36 9zM987 232q0 44 -43 44q-20 0 -31.5 -11.5t-11.5 -32.5q0 -44 43 -44t43 44zM254 189h24l-4 85h-25l-20 -46q-1 -2 -1 -6l-3 6l-19 46h-26l-3 -85h24v49l20 -49h13l20 49v-49zM338 216l31 58h-24l-14 -27q-1 -1 -2.5 -5t-2.5 -5q-1 1 -2.5 5
t-2.5 5l-14 27h-24l32 -58v-27h23v27zM398 237v16h38v21h-61v-85h23v28h33v20h-33zM617 189v85h-23v-48l-36 48h-20v-85h23v48l36 -48h20zM700 253v21h-75v-21h27v-64h22v64h26zM1073 189h25l-4 85h-26l-19 -46q0 -1 -0.5 -3t-1.5 -3q0 2 -2 6l-20 46h-25l-3 -85h23v49
l20 -49h13l20 49v-49zM505 232q0 -24 -20 -24t-20 24q0 23 20 23t20 -23zM964 232q0 -24 -20 -24t-20 24q0 23 20 23t20 -23zM800 213q-12 0 -12 -12q0 -13 12 -13q13 0 13 13q0 12 -13 12z" />
    <glyph glyph-name="Ucircumflex" unicode="&#xdb;" 
d="M1221 525h-1151v-451h1151v451zM108 487h1075v-375h-1075v375zM826 391l7 16q-20 10 -39 10q-13 0 -20.5 -7t-7.5 -18q0 -20 24 -27q19 -4 19 -10t-8 -6q-11 0 -30 10l-8 -17q17 -12 40 -12q31 0 31 26q0 19 -23 26q-22 7 -22 11q0 6 8 6t29 -8zM964 373q0 44 -43 44
t-43 -44q0 -43 43 -43t43 43zM208 378v17h38v21h-61v-85h23v27h33v20h-33zM334 416h-23v-44q0 -22 -17 -22q-15 0 -15 22v44h-23v-44q0 -42 38 -42q40 0 40 42v44zM407 331v21h-38v64h-22v-85h60zM478 331v21h-38v64h-22v-85h60zM569 331l32 85h-24l-18 -54l-3 -8q-2 6 -2 8
l-18 54h-25l33 -85h25zM672 331v21h-41v11h33v19h-33v13h39v21h-62v-85h64zM683 416v-85h22v26h11q8 0 17 -26h26q-9 28 -19 34q15 3 15 22q0 29 -37 29h-35zM868 331v85h-23v-85h23zM1053 331v85h-23v-49l-36 49h-20v-85h22v48l36 -48h21zM705 375v22h14q15 0 15 -11
t-14 -11h-15zM941 373q0 -23 -20 -23t-20 23q0 24 20 24t20 -24zM1083 397q-12 0 -12 -12q0 -13 12 -13q13 0 13 13q0 12 -13 12zM1083 355q-12 0 -12 -12q0 -13 12 -13q13 0 13 13q0 12 -13 12zM528 232q0 44 -43 44q-42 0 -42 -44t42 -44q43 0 43 44zM766 249l7 17
q-23 10 -38 10q-13 0 -20.5 -7.5t-7.5 -18.5q0 -20 24 -27q18 -4 18 -10t-7 -6q-13 0 -30 10l-9 -17q16 -12 40 -12q31 0 31 26q0 19 -23 27q-21 7 -21 11q0 5 8 5q7 0 28 -8zM898 197l-8 18q-15 -7 -27 -7q-20 0 -20 24q0 23 21 23q11 0 24 -4l6 16q-14 9 -31 9
q-43 0 -43 -44t42 -44q16 0 36 9zM987 232q0 44 -43 44q-20 0 -31.5 -11.5t-11.5 -32.5q0 -44 43 -44t43 44zM254 189h24l-4 85h-25l-20 -46q-1 -2 -1 -6l-3 6l-19 46h-26l-3 -85h24v49l20 -49h13l20 49v-49zM338 216l31 58h-24l-14 -27q-1 -1 -2.5 -5t-2.5 -5q-1 1 -2.5 5
t-2.5 5l-14 27h-24l32 -58v-27h23v27zM398 237v16h38v21h-61v-85h23v28h33v20h-33zM617 189v85h-23v-48l-36 48h-20v-85h23v48l36 -48h20zM700 253v21h-75v-21h27v-64h22v64h26zM1073 189h25l-4 85h-26l-19 -46q0 -1 -0.5 -3t-1.5 -3q0 2 -2 6l-20 46h-25l-3 -85h23v49
l20 -49h13l20 49v-49zM505 232q0 -24 -20 -24t-20 24q0 23 20 23t20 -23zM964 232q0 -24 -20 -24t-20 24q0 23 20 23t20 -23zM800 213q-12 0 -12 -12q0 -13 12 -13q13 0 13 13q0 12 -13 12z" />
    <glyph glyph-name="Udieresis" unicode="&#xdc;" 
d="M1221 525h-1151v-451h1151v451zM108 487h1075v-375h-1075v375zM826 391l7 16q-20 10 -39 10q-13 0 -20.5 -7t-7.5 -18q0 -20 24 -27q19 -4 19 -10t-8 -6q-11 0 -30 10l-8 -17q17 -12 40 -12q31 0 31 26q0 19 -23 26q-22 7 -22 11q0 6 8 6t29 -8zM964 373q0 44 -43 44
t-43 -44q0 -43 43 -43t43 43zM208 378v17h38v21h-61v-85h23v27h33v20h-33zM334 416h-23v-44q0 -22 -17 -22q-15 0 -15 22v44h-23v-44q0 -42 38 -42q40 0 40 42v44zM407 331v21h-38v64h-22v-85h60zM478 331v21h-38v64h-22v-85h60zM569 331l32 85h-24l-18 -54l-3 -8q-2 6 -2 8
l-18 54h-25l33 -85h25zM672 331v21h-41v11h33v19h-33v13h39v21h-62v-85h64zM683 416v-85h22v26h11q8 0 17 -26h26q-9 28 -19 34q15 3 15 22q0 29 -37 29h-35zM868 331v85h-23v-85h23zM1053 331v85h-23v-49l-36 49h-20v-85h22v48l36 -48h21zM705 375v22h14q15 0 15 -11
t-14 -11h-15zM941 373q0 -23 -20 -23t-20 23q0 24 20 24t20 -24zM1083 397q-12 0 -12 -12q0 -13 12 -13q13 0 13 13q0 12 -13 12zM1083 355q-12 0 -12 -12q0 -13 12 -13q13 0 13 13q0 12 -13 12zM528 232q0 44 -43 44q-42 0 -42 -44t42 -44q43 0 43 44zM766 249l7 17
q-23 10 -38 10q-13 0 -20.5 -7.5t-7.5 -18.5q0 -20 24 -27q18 -4 18 -10t-7 -6q-13 0 -30 10l-9 -17q16 -12 40 -12q31 0 31 26q0 19 -23 27q-21 7 -21 11q0 5 8 5q7 0 28 -8zM898 197l-8 18q-15 -7 -27 -7q-20 0 -20 24q0 23 21 23q11 0 24 -4l6 16q-14 9 -31 9
q-43 0 -43 -44t42 -44q16 0 36 9zM987 232q0 44 -43 44q-20 0 -31.5 -11.5t-11.5 -32.5q0 -44 43 -44t43 44zM254 189h24l-4 85h-25l-20 -46q-1 -2 -1 -6l-3 6l-19 46h-26l-3 -85h24v49l20 -49h13l20 49v-49zM338 216l31 58h-24l-14 -27q-1 -1 -2.5 -5t-2.5 -5q-1 1 -2.5 5
t-2.5 5l-14 27h-24l32 -58v-27h23v27zM398 237v16h38v21h-61v-85h23v28h33v20h-33zM617 189v85h-23v-48l-36 48h-20v-85h23v48l36 -48h20zM700 253v21h-75v-21h27v-64h22v64h26zM1073 189h25l-4 85h-26l-19 -46q0 -1 -0.5 -3t-1.5 -3q0 2 -2 6l-20 46h-25l-3 -85h23v49
l20 -49h13l20 49v-49zM505 232q0 -24 -20 -24t-20 24q0 23 20 23t20 -23zM964 232q0 -24 -20 -24t-20 24q0 23 20 23t20 -23zM800 213q-12 0 -12 -12q0 -13 12 -13q13 0 13 13q0 12 -13 12z" />
    <glyph glyph-name="Yacute" unicode="&#xdd;" 
d="M1221 525h-1151v-451h1151v451zM108 487h1075v-375h-1075v375zM826 391l7 16q-20 10 -39 10q-13 0 -20.5 -7t-7.5 -18q0 -20 24 -27q19 -4 19 -10t-8 -6q-11 0 -30 10l-8 -17q17 -12 40 -12q31 0 31 26q0 19 -23 26q-22 7 -22 11q0 6 8 6t29 -8zM964 373q0 44 -43 44
t-43 -44q0 -43 43 -43t43 43zM208 378v17h38v21h-61v-85h23v27h33v20h-33zM334 416h-23v-44q0 -22 -17 -22q-15 0 -15 22v44h-23v-44q0 -42 38 -42q40 0 40 42v44zM407 331v21h-38v64h-22v-85h60zM478 331v21h-38v64h-22v-85h60zM569 331l32 85h-24l-18 -54l-3 -8q-2 6 -2 8
l-18 54h-25l33 -85h25zM672 331v21h-41v11h33v19h-33v13h39v21h-62v-85h64zM683 416v-85h22v26h11q8 0 17 -26h26q-9 28 -19 34q15 3 15 22q0 29 -37 29h-35zM868 331v85h-23v-85h23zM1053 331v85h-23v-49l-36 49h-20v-85h22v48l36 -48h21zM705 375v22h14q15 0 15 -11
t-14 -11h-15zM941 373q0 -23 -20 -23t-20 23q0 24 20 24t20 -24zM1083 397q-12 0 -12 -12q0 -13 12 -13q13 0 13 13q0 12 -13 12zM1083 355q-12 0 -12 -12q0 -13 12 -13q13 0 13 13q0 12 -13 12zM528 232q0 44 -43 44q-42 0 -42 -44t42 -44q43 0 43 44zM766 249l7 17
q-23 10 -38 10q-13 0 -20.5 -7.5t-7.5 -18.5q0 -20 24 -27q18 -4 18 -10t-7 -6q-13 0 -30 10l-9 -17q16 -12 40 -12q31 0 31 26q0 19 -23 27q-21 7 -21 11q0 5 8 5q7 0 28 -8zM898 197l-8 18q-15 -7 -27 -7q-20 0 -20 24q0 23 21 23q11 0 24 -4l6 16q-14 9 -31 9
q-43 0 -43 -44t42 -44q16 0 36 9zM987 232q0 44 -43 44q-20 0 -31.5 -11.5t-11.5 -32.5q0 -44 43 -44t43 44zM254 189h24l-4 85h-25l-20 -46q-1 -2 -1 -6l-3 6l-19 46h-26l-3 -85h24v49l20 -49h13l20 49v-49zM338 216l31 58h-24l-14 -27q-1 -1 -2.5 -5t-2.5 -5q-1 1 -2.5 5
t-2.5 5l-14 27h-24l32 -58v-27h23v27zM398 237v16h38v21h-61v-85h23v28h33v20h-33zM617 189v85h-23v-48l-36 48h-20v-85h23v48l36 -48h20zM700 253v21h-75v-21h27v-64h22v64h26zM1073 189h25l-4 85h-26l-19 -46q0 -1 -0.5 -3t-1.5 -3q0 2 -2 6l-20 46h-25l-3 -85h23v49
l20 -49h13l20 49v-49zM505 232q0 -24 -20 -24t-20 24q0 23 20 23t20 -23zM964 232q0 -24 -20 -24t-20 24q0 23 20 23t20 -23zM800 213q-12 0 -12 -12q0 -13 12 -13q13 0 13 13q0 12 -13 12z" />
    <glyph glyph-name="Thorn" unicode="&#xde;" 
d="M1221 525h-1151v-451h1151v451zM108 487h1075v-375h-1075v375zM826 391l7 16q-20 10 -39 10q-13 0 -20.5 -7t-7.5 -18q0 -20 24 -27q19 -4 19 -10t-8 -6q-11 0 -30 10l-8 -17q17 -12 40 -12q31 0 31 26q0 19 -23 26q-22 7 -22 11q0 6 8 6t29 -8zM964 373q0 44 -43 44
t-43 -44q0 -43 43 -43t43 43zM208 378v17h38v21h-61v-85h23v27h33v20h-33zM334 416h-23v-44q0 -22 -17 -22q-15 0 -15 22v44h-23v-44q0 -42 38 -42q40 0 40 42v44zM407 331v21h-38v64h-22v-85h60zM478 331v21h-38v64h-22v-85h60zM569 331l32 85h-24l-18 -54l-3 -8q-2 6 -2 8
l-18 54h-25l33 -85h25zM672 331v21h-41v11h33v19h-33v13h39v21h-62v-85h64zM683 416v-85h22v26h11q8 0 17 -26h26q-9 28 -19 34q15 3 15 22q0 29 -37 29h-35zM868 331v85h-23v-85h23zM1053 331v85h-23v-49l-36 49h-20v-85h22v48l36 -48h21zM705 375v22h14q15 0 15 -11
t-14 -11h-15zM941 373q0 -23 -20 -23t-20 23q0 24 20 24t20 -24zM1083 397q-12 0 -12 -12q0 -13 12 -13q13 0 13 13q0 12 -13 12zM1083 355q-12 0 -12 -12q0 -13 12 -13q13 0 13 13q0 12 -13 12zM528 232q0 44 -43 44q-42 0 -42 -44t42 -44q43 0 43 44zM766 249l7 17
q-23 10 -38 10q-13 0 -20.5 -7.5t-7.5 -18.5q0 -20 24 -27q18 -4 18 -10t-7 -6q-13 0 -30 10l-9 -17q16 -12 40 -12q31 0 31 26q0 19 -23 27q-21 7 -21 11q0 5 8 5q7 0 28 -8zM898 197l-8 18q-15 -7 -27 -7q-20 0 -20 24q0 23 21 23q11 0 24 -4l6 16q-14 9 -31 9
q-43 0 -43 -44t42 -44q16 0 36 9zM987 232q0 44 -43 44q-20 0 -31.5 -11.5t-11.5 -32.5q0 -44 43 -44t43 44zM254 189h24l-4 85h-25l-20 -46q-1 -2 -1 -6l-3 6l-19 46h-26l-3 -85h24v49l20 -49h13l20 49v-49zM338 216l31 58h-24l-14 -27q-1 -1 -2.5 -5t-2.5 -5q-1 1 -2.5 5
t-2.5 5l-14 27h-24l32 -58v-27h23v27zM398 237v16h38v21h-61v-85h23v28h33v20h-33zM617 189v85h-23v-48l-36 48h-20v-85h23v48l36 -48h20zM700 253v21h-75v-21h27v-64h22v64h26zM1073 189h25l-4 85h-26l-19 -46q0 -1 -0.5 -3t-1.5 -3q0 2 -2 6l-20 46h-25l-3 -85h23v49
l20 -49h13l20 49v-49zM505 232q0 -24 -20 -24t-20 24q0 23 20 23t20 -23zM964 232q0 -24 -20 -24t-20 24q0 23 20 23t20 -23zM800 213q-12 0 -12 -12q0 -13 12 -13q13 0 13 13q0 12 -13 12z" />
    <glyph glyph-name="germandbls" unicode="&#xdf;" 
d="M1221 525h-1151v-451h1151v451zM108 487h1075v-375h-1075v375zM826 391l7 16q-20 10 -39 10q-13 0 -20.5 -7t-7.5 -18q0 -20 24 -27q19 -4 19 -10t-8 -6q-11 0 -30 10l-8 -17q17 -12 40 -12q31 0 31 26q0 19 -23 26q-22 7 -22 11q0 6 8 6t29 -8zM964 373q0 44 -43 44
t-43 -44q0 -43 43 -43t43 43zM208 378v17h38v21h-61v-85h23v27h33v20h-33zM334 416h-23v-44q0 -22 -17 -22q-15 0 -15 22v44h-23v-44q0 -42 38 -42q40 0 40 42v44zM407 331v21h-38v64h-22v-85h60zM478 331v21h-38v64h-22v-85h60zM569 331l32 85h-24l-18 -54l-3 -8q-2 6 -2 8
l-18 54h-25l33 -85h25zM672 331v21h-41v11h33v19h-33v13h39v21h-62v-85h64zM683 416v-85h22v26h11q8 0 17 -26h26q-9 28 -19 34q15 3 15 22q0 29 -37 29h-35zM868 331v85h-23v-85h23zM1053 331v85h-23v-49l-36 49h-20v-85h22v48l36 -48h21zM705 375v22h14q15 0 15 -11
t-14 -11h-15zM941 373q0 -23 -20 -23t-20 23q0 24 20 24t20 -24zM1083 397q-12 0 -12 -12q0 -13 12 -13q13 0 13 13q0 12 -13 12zM1083 355q-12 0 -12 -12q0 -13 12 -13q13 0 13 13q0 12 -13 12zM528 232q0 44 -43 44q-42 0 -42 -44t42 -44q43 0 43 44zM766 249l7 17
q-23 10 -38 10q-13 0 -20.5 -7.5t-7.5 -18.5q0 -20 24 -27q18 -4 18 -10t-7 -6q-13 0 -30 10l-9 -17q16 -12 40 -12q31 0 31 26q0 19 -23 27q-21 7 -21 11q0 5 8 5q7 0 28 -8zM898 197l-8 18q-15 -7 -27 -7q-20 0 -20 24q0 23 21 23q11 0 24 -4l6 16q-14 9 -31 9
q-43 0 -43 -44t42 -44q16 0 36 9zM987 232q0 44 -43 44q-20 0 -31.5 -11.5t-11.5 -32.5q0 -44 43 -44t43 44zM254 189h24l-4 85h-25l-20 -46q-1 -2 -1 -6l-3 6l-19 46h-26l-3 -85h24v49l20 -49h13l20 49v-49zM338 216l31 58h-24l-14 -27q-1 -1 -2.5 -5t-2.5 -5q-1 1 -2.5 5
t-2.5 5l-14 27h-24l32 -58v-27h23v27zM398 237v16h38v21h-61v-85h23v28h33v20h-33zM617 189v85h-23v-48l-36 48h-20v-85h23v48l36 -48h20zM700 253v21h-75v-21h27v-64h22v64h26zM1073 189h25l-4 85h-26l-19 -46q0 -1 -0.5 -3t-1.5 -3q0 2 -2 6l-20 46h-25l-3 -85h23v49
l20 -49h13l20 49v-49zM505 232q0 -24 -20 -24t-20 24q0 23 20 23t20 -23zM964 232q0 -24 -20 -24t-20 24q0 23 20 23t20 -23zM800 213q-12 0 -12 -12q0 -13 12 -13q13 0 13 13q0 12 -13 12z" />
    <glyph glyph-name="agrave" unicode="&#xe0;" 
d="M1221 525h-1151v-451h1151v451zM108 487h1075v-375h-1075v375zM826 391l7 16q-20 10 -39 10q-13 0 -20.5 -7t-7.5 -18q0 -20 24 -27q19 -4 19 -10t-8 -6q-11 0 -30 10l-8 -17q17 -12 40 -12q31 0 31 26q0 19 -23 26q-22 7 -22 11q0 6 8 6t29 -8zM964 373q0 44 -43 44
t-43 -44q0 -43 43 -43t43 43zM208 378v17h38v21h-61v-85h23v27h33v20h-33zM334 416h-23v-44q0 -22 -17 -22q-15 0 -15 22v44h-23v-44q0 -42 38 -42q40 0 40 42v44zM407 331v21h-38v64h-22v-85h60zM478 331v21h-38v64h-22v-85h60zM569 331l32 85h-24l-18 -54l-3 -8q-2 6 -2 8
l-18 54h-25l33 -85h25zM672 331v21h-41v11h33v19h-33v13h39v21h-62v-85h64zM683 416v-85h22v26h11q8 0 17 -26h26q-9 28 -19 34q15 3 15 22q0 29 -37 29h-35zM868 331v85h-23v-85h23zM1053 331v85h-23v-49l-36 49h-20v-85h22v48l36 -48h21zM705 375v22h14q15 0 15 -11
t-14 -11h-15zM941 373q0 -23 -20 -23t-20 23q0 24 20 24t20 -24zM1083 397q-12 0 -12 -12q0 -13 12 -13q13 0 13 13q0 12 -13 12zM1083 355q-12 0 -12 -12q0 -13 12 -13q13 0 13 13q0 12 -13 12zM528 232q0 44 -43 44q-42 0 -42 -44t42 -44q43 0 43 44zM766 249l7 17
q-23 10 -38 10q-13 0 -20.5 -7.5t-7.5 -18.5q0 -20 24 -27q18 -4 18 -10t-7 -6q-13 0 -30 10l-9 -17q16 -12 40 -12q31 0 31 26q0 19 -23 27q-21 7 -21 11q0 5 8 5q7 0 28 -8zM898 197l-8 18q-15 -7 -27 -7q-20 0 -20 24q0 23 21 23q11 0 24 -4l6 16q-14 9 -31 9
q-43 0 -43 -44t42 -44q16 0 36 9zM987 232q0 44 -43 44q-20 0 -31.5 -11.5t-11.5 -32.5q0 -44 43 -44t43 44zM254 189h24l-4 85h-25l-20 -46q-1 -2 -1 -6l-3 6l-19 46h-26l-3 -85h24v49l20 -49h13l20 49v-49zM338 216l31 58h-24l-14 -27q-1 -1 -2.5 -5t-2.5 -5q-1 1 -2.5 5
t-2.5 5l-14 27h-24l32 -58v-27h23v27zM398 237v16h38v21h-61v-85h23v28h33v20h-33zM617 189v85h-23v-48l-36 48h-20v-85h23v48l36 -48h20zM700 253v21h-75v-21h27v-64h22v64h26zM1073 189h25l-4 85h-26l-19 -46q0 -1 -0.5 -3t-1.5 -3q0 2 -2 6l-20 46h-25l-3 -85h23v49
l20 -49h13l20 49v-49zM505 232q0 -24 -20 -24t-20 24q0 23 20 23t20 -23zM964 232q0 -24 -20 -24t-20 24q0 23 20 23t20 -23zM800 213q-12 0 -12 -12q0 -13 12 -13q13 0 13 13q0 12 -13 12z" />
    <glyph glyph-name="aacute" unicode="&#xe1;" 
d="M1221 525h-1151v-451h1151v451zM108 487h1075v-375h-1075v375zM826 391l7 16q-20 10 -39 10q-13 0 -20.5 -7t-7.5 -18q0 -20 24 -27q19 -4 19 -10t-8 -6q-11 0 -30 10l-8 -17q17 -12 40 -12q31 0 31 26q0 19 -23 26q-22 7 -22 11q0 6 8 6t29 -8zM964 373q0 44 -43 44
t-43 -44q0 -43 43 -43t43 43zM208 378v17h38v21h-61v-85h23v27h33v20h-33zM334 416h-23v-44q0 -22 -17 -22q-15 0 -15 22v44h-23v-44q0 -42 38 -42q40 0 40 42v44zM407 331v21h-38v64h-22v-85h60zM478 331v21h-38v64h-22v-85h60zM569 331l32 85h-24l-18 -54l-3 -8q-2 6 -2 8
l-18 54h-25l33 -85h25zM672 331v21h-41v11h33v19h-33v13h39v21h-62v-85h64zM683 416v-85h22v26h11q8 0 17 -26h26q-9 28 -19 34q15 3 15 22q0 29 -37 29h-35zM868 331v85h-23v-85h23zM1053 331v85h-23v-49l-36 49h-20v-85h22v48l36 -48h21zM705 375v22h14q15 0 15 -11
t-14 -11h-15zM941 373q0 -23 -20 -23t-20 23q0 24 20 24t20 -24zM1083 397q-12 0 -12 -12q0 -13 12 -13q13 0 13 13q0 12 -13 12zM1083 355q-12 0 -12 -12q0 -13 12 -13q13 0 13 13q0 12 -13 12zM528 232q0 44 -43 44q-42 0 -42 -44t42 -44q43 0 43 44zM766 249l7 17
q-23 10 -38 10q-13 0 -20.5 -7.5t-7.5 -18.5q0 -20 24 -27q18 -4 18 -10t-7 -6q-13 0 -30 10l-9 -17q16 -12 40 -12q31 0 31 26q0 19 -23 27q-21 7 -21 11q0 5 8 5q7 0 28 -8zM898 197l-8 18q-15 -7 -27 -7q-20 0 -20 24q0 23 21 23q11 0 24 -4l6 16q-14 9 -31 9
q-43 0 -43 -44t42 -44q16 0 36 9zM987 232q0 44 -43 44q-20 0 -31.5 -11.5t-11.5 -32.5q0 -44 43 -44t43 44zM254 189h24l-4 85h-25l-20 -46q-1 -2 -1 -6l-3 6l-19 46h-26l-3 -85h24v49l20 -49h13l20 49v-49zM338 216l31 58h-24l-14 -27q-1 -1 -2.5 -5t-2.5 -5q-1 1 -2.5 5
t-2.5 5l-14 27h-24l32 -58v-27h23v27zM398 237v16h38v21h-61v-85h23v28h33v20h-33zM617 189v85h-23v-48l-36 48h-20v-85h23v48l36 -48h20zM700 253v21h-75v-21h27v-64h22v64h26zM1073 189h25l-4 85h-26l-19 -46q0 -1 -0.5 -3t-1.5 -3q0 2 -2 6l-20 46h-25l-3 -85h23v49
l20 -49h13l20 49v-49zM505 232q0 -24 -20 -24t-20 24q0 23 20 23t20 -23zM964 232q0 -24 -20 -24t-20 24q0 23 20 23t20 -23zM800 213q-12 0 -12 -12q0 -13 12 -13q13 0 13 13q0 12 -13 12z" />
    <glyph glyph-name="acircumflex" unicode="&#xe2;" 
d="M1221 525h-1151v-451h1151v451zM108 487h1075v-375h-1075v375zM826 391l7 16q-20 10 -39 10q-13 0 -20.5 -7t-7.5 -18q0 -20 24 -27q19 -4 19 -10t-8 -6q-11 0 -30 10l-8 -17q17 -12 40 -12q31 0 31 26q0 19 -23 26q-22 7 -22 11q0 6 8 6t29 -8zM964 373q0 44 -43 44
t-43 -44q0 -43 43 -43t43 43zM208 378v17h38v21h-61v-85h23v27h33v20h-33zM334 416h-23v-44q0 -22 -17 -22q-15 0 -15 22v44h-23v-44q0 -42 38 -42q40 0 40 42v44zM407 331v21h-38v64h-22v-85h60zM478 331v21h-38v64h-22v-85h60zM569 331l32 85h-24l-18 -54l-3 -8q-2 6 -2 8
l-18 54h-25l33 -85h25zM672 331v21h-41v11h33v19h-33v13h39v21h-62v-85h64zM683 416v-85h22v26h11q8 0 17 -26h26q-9 28 -19 34q15 3 15 22q0 29 -37 29h-35zM868 331v85h-23v-85h23zM1053 331v85h-23v-49l-36 49h-20v-85h22v48l36 -48h21zM705 375v22h14q15 0 15 -11
t-14 -11h-15zM941 373q0 -23 -20 -23t-20 23q0 24 20 24t20 -24zM1083 397q-12 0 -12 -12q0 -13 12 -13q13 0 13 13q0 12 -13 12zM1083 355q-12 0 -12 -12q0 -13 12 -13q13 0 13 13q0 12 -13 12zM528 232q0 44 -43 44q-42 0 -42 -44t42 -44q43 0 43 44zM766 249l7 17
q-23 10 -38 10q-13 0 -20.5 -7.5t-7.5 -18.5q0 -20 24 -27q18 -4 18 -10t-7 -6q-13 0 -30 10l-9 -17q16 -12 40 -12q31 0 31 26q0 19 -23 27q-21 7 -21 11q0 5 8 5q7 0 28 -8zM898 197l-8 18q-15 -7 -27 -7q-20 0 -20 24q0 23 21 23q11 0 24 -4l6 16q-14 9 -31 9
q-43 0 -43 -44t42 -44q16 0 36 9zM987 232q0 44 -43 44q-20 0 -31.5 -11.5t-11.5 -32.5q0 -44 43 -44t43 44zM254 189h24l-4 85h-25l-20 -46q-1 -2 -1 -6l-3 6l-19 46h-26l-3 -85h24v49l20 -49h13l20 49v-49zM338 216l31 58h-24l-14 -27q-1 -1 -2.5 -5t-2.5 -5q-1 1 -2.5 5
t-2.5 5l-14 27h-24l32 -58v-27h23v27zM398 237v16h38v21h-61v-85h23v28h33v20h-33zM617 189v85h-23v-48l-36 48h-20v-85h23v48l36 -48h20zM700 253v21h-75v-21h27v-64h22v64h26zM1073 189h25l-4 85h-26l-19 -46q0 -1 -0.5 -3t-1.5 -3q0 2 -2 6l-20 46h-25l-3 -85h23v49
l20 -49h13l20 49v-49zM505 232q0 -24 -20 -24t-20 24q0 23 20 23t20 -23zM964 232q0 -24 -20 -24t-20 24q0 23 20 23t20 -23zM800 213q-12 0 -12 -12q0 -13 12 -13q13 0 13 13q0 12 -13 12z" />
    <glyph glyph-name="atilde" unicode="&#xe3;" 
d="M1221 525h-1151v-451h1151v451zM108 487h1075v-375h-1075v375zM826 391l7 16q-20 10 -39 10q-13 0 -20.5 -7t-7.5 -18q0 -20 24 -27q19 -4 19 -10t-8 -6q-11 0 -30 10l-8 -17q17 -12 40 -12q31 0 31 26q0 19 -23 26q-22 7 -22 11q0 6 8 6t29 -8zM964 373q0 44 -43 44
t-43 -44q0 -43 43 -43t43 43zM208 378v17h38v21h-61v-85h23v27h33v20h-33zM334 416h-23v-44q0 -22 -17 -22q-15 0 -15 22v44h-23v-44q0 -42 38 -42q40 0 40 42v44zM407 331v21h-38v64h-22v-85h60zM478 331v21h-38v64h-22v-85h60zM569 331l32 85h-24l-18 -54l-3 -8q-2 6 -2 8
l-18 54h-25l33 -85h25zM672 331v21h-41v11h33v19h-33v13h39v21h-62v-85h64zM683 416v-85h22v26h11q8 0 17 -26h26q-9 28 -19 34q15 3 15 22q0 29 -37 29h-35zM868 331v85h-23v-85h23zM1053 331v85h-23v-49l-36 49h-20v-85h22v48l36 -48h21zM705 375v22h14q15 0 15 -11
t-14 -11h-15zM941 373q0 -23 -20 -23t-20 23q0 24 20 24t20 -24zM1083 397q-12 0 -12 -12q0 -13 12 -13q13 0 13 13q0 12 -13 12zM1083 355q-12 0 -12 -12q0 -13 12 -13q13 0 13 13q0 12 -13 12zM528 232q0 44 -43 44q-42 0 -42 -44t42 -44q43 0 43 44zM766 249l7 17
q-23 10 -38 10q-13 0 -20.5 -7.5t-7.5 -18.5q0 -20 24 -27q18 -4 18 -10t-7 -6q-13 0 -30 10l-9 -17q16 -12 40 -12q31 0 31 26q0 19 -23 27q-21 7 -21 11q0 5 8 5q7 0 28 -8zM898 197l-8 18q-15 -7 -27 -7q-20 0 -20 24q0 23 21 23q11 0 24 -4l6 16q-14 9 -31 9
q-43 0 -43 -44t42 -44q16 0 36 9zM987 232q0 44 -43 44q-20 0 -31.5 -11.5t-11.5 -32.5q0 -44 43 -44t43 44zM254 189h24l-4 85h-25l-20 -46q-1 -2 -1 -6l-3 6l-19 46h-26l-3 -85h24v49l20 -49h13l20 49v-49zM338 216l31 58h-24l-14 -27q-1 -1 -2.5 -5t-2.5 -5q-1 1 -2.5 5
t-2.5 5l-14 27h-24l32 -58v-27h23v27zM398 237v16h38v21h-61v-85h23v28h33v20h-33zM617 189v85h-23v-48l-36 48h-20v-85h23v48l36 -48h20zM700 253v21h-75v-21h27v-64h22v64h26zM1073 189h25l-4 85h-26l-19 -46q0 -1 -0.5 -3t-1.5 -3q0 2 -2 6l-20 46h-25l-3 -85h23v49
l20 -49h13l20 49v-49zM505 232q0 -24 -20 -24t-20 24q0 23 20 23t20 -23zM964 232q0 -24 -20 -24t-20 24q0 23 20 23t20 -23zM800 213q-12 0 -12 -12q0 -13 12 -13q13 0 13 13q0 12 -13 12z" />
    <glyph glyph-name="adieresis" unicode="&#xe4;" 
d="M1221 525h-1151v-451h1151v451zM108 487h1075v-375h-1075v375zM826 391l7 16q-20 10 -39 10q-13 0 -20.5 -7t-7.5 -18q0 -20 24 -27q19 -4 19 -10t-8 -6q-11 0 -30 10l-8 -17q17 -12 40 -12q31 0 31 26q0 19 -23 26q-22 7 -22 11q0 6 8 6t29 -8zM964 373q0 44 -43 44
t-43 -44q0 -43 43 -43t43 43zM208 378v17h38v21h-61v-85h23v27h33v20h-33zM334 416h-23v-44q0 -22 -17 -22q-15 0 -15 22v44h-23v-44q0 -42 38 -42q40 0 40 42v44zM407 331v21h-38v64h-22v-85h60zM478 331v21h-38v64h-22v-85h60zM569 331l32 85h-24l-18 -54l-3 -8q-2 6 -2 8
l-18 54h-25l33 -85h25zM672 331v21h-41v11h33v19h-33v13h39v21h-62v-85h64zM683 416v-85h22v26h11q8 0 17 -26h26q-9 28 -19 34q15 3 15 22q0 29 -37 29h-35zM868 331v85h-23v-85h23zM1053 331v85h-23v-49l-36 49h-20v-85h22v48l36 -48h21zM705 375v22h14q15 0 15 -11
t-14 -11h-15zM941 373q0 -23 -20 -23t-20 23q0 24 20 24t20 -24zM1083 397q-12 0 -12 -12q0 -13 12 -13q13 0 13 13q0 12 -13 12zM1083 355q-12 0 -12 -12q0 -13 12 -13q13 0 13 13q0 12 -13 12zM528 232q0 44 -43 44q-42 0 -42 -44t42 -44q43 0 43 44zM766 249l7 17
q-23 10 -38 10q-13 0 -20.5 -7.5t-7.5 -18.5q0 -20 24 -27q18 -4 18 -10t-7 -6q-13 0 -30 10l-9 -17q16 -12 40 -12q31 0 31 26q0 19 -23 27q-21 7 -21 11q0 5 8 5q7 0 28 -8zM898 197l-8 18q-15 -7 -27 -7q-20 0 -20 24q0 23 21 23q11 0 24 -4l6 16q-14 9 -31 9
q-43 0 -43 -44t42 -44q16 0 36 9zM987 232q0 44 -43 44q-20 0 -31.5 -11.5t-11.5 -32.5q0 -44 43 -44t43 44zM254 189h24l-4 85h-25l-20 -46q-1 -2 -1 -6l-3 6l-19 46h-26l-3 -85h24v49l20 -49h13l20 49v-49zM338 216l31 58h-24l-14 -27q-1 -1 -2.5 -5t-2.5 -5q-1 1 -2.5 5
t-2.5 5l-14 27h-24l32 -58v-27h23v27zM398 237v16h38v21h-61v-85h23v28h33v20h-33zM617 189v85h-23v-48l-36 48h-20v-85h23v48l36 -48h20zM700 253v21h-75v-21h27v-64h22v64h26zM1073 189h25l-4 85h-26l-19 -46q0 -1 -0.5 -3t-1.5 -3q0 2 -2 6l-20 46h-25l-3 -85h23v49
l20 -49h13l20 49v-49zM505 232q0 -24 -20 -24t-20 24q0 23 20 23t20 -23zM964 232q0 -24 -20 -24t-20 24q0 23 20 23t20 -23zM800 213q-12 0 -12 -12q0 -13 12 -13q13 0 13 13q0 12 -13 12z" />
    <glyph glyph-name="aring" unicode="&#xe5;" 
d="M1221 525h-1151v-451h1151v451zM108 487h1075v-375h-1075v375zM826 391l7 16q-20 10 -39 10q-13 0 -20.5 -7t-7.5 -18q0 -20 24 -27q19 -4 19 -10t-8 -6q-11 0 -30 10l-8 -17q17 -12 40 -12q31 0 31 26q0 19 -23 26q-22 7 -22 11q0 6 8 6t29 -8zM964 373q0 44 -43 44
t-43 -44q0 -43 43 -43t43 43zM208 378v17h38v21h-61v-85h23v27h33v20h-33zM334 416h-23v-44q0 -22 -17 -22q-15 0 -15 22v44h-23v-44q0 -42 38 -42q40 0 40 42v44zM407 331v21h-38v64h-22v-85h60zM478 331v21h-38v64h-22v-85h60zM569 331l32 85h-24l-18 -54l-3 -8q-2 6 -2 8
l-18 54h-25l33 -85h25zM672 331v21h-41v11h33v19h-33v13h39v21h-62v-85h64zM683 416v-85h22v26h11q8 0 17 -26h26q-9 28 -19 34q15 3 15 22q0 29 -37 29h-35zM868 331v85h-23v-85h23zM1053 331v85h-23v-49l-36 49h-20v-85h22v48l36 -48h21zM705 375v22h14q15 0 15 -11
t-14 -11h-15zM941 373q0 -23 -20 -23t-20 23q0 24 20 24t20 -24zM1083 397q-12 0 -12 -12q0 -13 12 -13q13 0 13 13q0 12 -13 12zM1083 355q-12 0 -12 -12q0 -13 12 -13q13 0 13 13q0 12 -13 12zM528 232q0 44 -43 44q-42 0 -42 -44t42 -44q43 0 43 44zM766 249l7 17
q-23 10 -38 10q-13 0 -20.5 -7.5t-7.5 -18.5q0 -20 24 -27q18 -4 18 -10t-7 -6q-13 0 -30 10l-9 -17q16 -12 40 -12q31 0 31 26q0 19 -23 27q-21 7 -21 11q0 5 8 5q7 0 28 -8zM898 197l-8 18q-15 -7 -27 -7q-20 0 -20 24q0 23 21 23q11 0 24 -4l6 16q-14 9 -31 9
q-43 0 -43 -44t42 -44q16 0 36 9zM987 232q0 44 -43 44q-20 0 -31.5 -11.5t-11.5 -32.5q0 -44 43 -44t43 44zM254 189h24l-4 85h-25l-20 -46q-1 -2 -1 -6l-3 6l-19 46h-26l-3 -85h24v49l20 -49h13l20 49v-49zM338 216l31 58h-24l-14 -27q-1 -1 -2.5 -5t-2.5 -5q-1 1 -2.5 5
t-2.5 5l-14 27h-24l32 -58v-27h23v27zM398 237v16h38v21h-61v-85h23v28h33v20h-33zM617 189v85h-23v-48l-36 48h-20v-85h23v48l36 -48h20zM700 253v21h-75v-21h27v-64h22v64h26zM1073 189h25l-4 85h-26l-19 -46q0 -1 -0.5 -3t-1.5 -3q0 2 -2 6l-20 46h-25l-3 -85h23v49
l20 -49h13l20 49v-49zM505 232q0 -24 -20 -24t-20 24q0 23 20 23t20 -23zM964 232q0 -24 -20 -24t-20 24q0 23 20 23t20 -23zM800 213q-12 0 -12 -12q0 -13 12 -13q13 0 13 13q0 12 -13 12z" />
    <glyph glyph-name="ae" unicode="&#xe6;" 
d="M1221 525h-1151v-451h1151v451zM108 487h1075v-375h-1075v375zM826 391l7 16q-20 10 -39 10q-13 0 -20.5 -7t-7.5 -18q0 -20 24 -27q19 -4 19 -10t-8 -6q-11 0 -30 10l-8 -17q17 -12 40 -12q31 0 31 26q0 19 -23 26q-22 7 -22 11q0 6 8 6t29 -8zM964 373q0 44 -43 44
t-43 -44q0 -43 43 -43t43 43zM208 378v17h38v21h-61v-85h23v27h33v20h-33zM334 416h-23v-44q0 -22 -17 -22q-15 0 -15 22v44h-23v-44q0 -42 38 -42q40 0 40 42v44zM407 331v21h-38v64h-22v-85h60zM478 331v21h-38v64h-22v-85h60zM569 331l32 85h-24l-18 -54l-3 -8q-2 6 -2 8
l-18 54h-25l33 -85h25zM672 331v21h-41v11h33v19h-33v13h39v21h-62v-85h64zM683 416v-85h22v26h11q8 0 17 -26h26q-9 28 -19 34q15 3 15 22q0 29 -37 29h-35zM868 331v85h-23v-85h23zM1053 331v85h-23v-49l-36 49h-20v-85h22v48l36 -48h21zM705 375v22h14q15 0 15 -11
t-14 -11h-15zM941 373q0 -23 -20 -23t-20 23q0 24 20 24t20 -24zM1083 397q-12 0 -12 -12q0 -13 12 -13q13 0 13 13q0 12 -13 12zM1083 355q-12 0 -12 -12q0 -13 12 -13q13 0 13 13q0 12 -13 12zM528 232q0 44 -43 44q-42 0 -42 -44t42 -44q43 0 43 44zM766 249l7 17
q-23 10 -38 10q-13 0 -20.5 -7.5t-7.5 -18.5q0 -20 24 -27q18 -4 18 -10t-7 -6q-13 0 -30 10l-9 -17q16 -12 40 -12q31 0 31 26q0 19 -23 27q-21 7 -21 11q0 5 8 5q7 0 28 -8zM898 197l-8 18q-15 -7 -27 -7q-20 0 -20 24q0 23 21 23q11 0 24 -4l6 16q-14 9 -31 9
q-43 0 -43 -44t42 -44q16 0 36 9zM987 232q0 44 -43 44q-20 0 -31.5 -11.5t-11.5 -32.5q0 -44 43 -44t43 44zM254 189h24l-4 85h-25l-20 -46q-1 -2 -1 -6l-3 6l-19 46h-26l-3 -85h24v49l20 -49h13l20 49v-49zM338 216l31 58h-24l-14 -27q-1 -1 -2.5 -5t-2.5 -5q-1 1 -2.5 5
t-2.5 5l-14 27h-24l32 -58v-27h23v27zM398 237v16h38v21h-61v-85h23v28h33v20h-33zM617 189v85h-23v-48l-36 48h-20v-85h23v48l36 -48h20zM700 253v21h-75v-21h27v-64h22v64h26zM1073 189h25l-4 85h-26l-19 -46q0 -1 -0.5 -3t-1.5 -3q0 2 -2 6l-20 46h-25l-3 -85h23v49
l20 -49h13l20 49v-49zM505 232q0 -24 -20 -24t-20 24q0 23 20 23t20 -23zM964 232q0 -24 -20 -24t-20 24q0 23 20 23t20 -23zM800 213q-12 0 -12 -12q0 -13 12 -13q13 0 13 13q0 12 -13 12z" />
    <glyph glyph-name="ccedilla" unicode="&#xe7;" 
d="M1221 525h-1151v-451h1151v451zM108 487h1075v-375h-1075v375zM826 391l7 16q-20 10 -39 10q-13 0 -20.5 -7t-7.5 -18q0 -20 24 -27q19 -4 19 -10t-8 -6q-11 0 -30 10l-8 -17q17 -12 40 -12q31 0 31 26q0 19 -23 26q-22 7 -22 11q0 6 8 6t29 -8zM964 373q0 44 -43 44
t-43 -44q0 -43 43 -43t43 43zM208 378v17h38v21h-61v-85h23v27h33v20h-33zM334 416h-23v-44q0 -22 -17 -22q-15 0 -15 22v44h-23v-44q0 -42 38 -42q40 0 40 42v44zM407 331v21h-38v64h-22v-85h60zM478 331v21h-38v64h-22v-85h60zM569 331l32 85h-24l-18 -54l-3 -8q-2 6 -2 8
l-18 54h-25l33 -85h25zM672 331v21h-41v11h33v19h-33v13h39v21h-62v-85h64zM683 416v-85h22v26h11q8 0 17 -26h26q-9 28 -19 34q15 3 15 22q0 29 -37 29h-35zM868 331v85h-23v-85h23zM1053 331v85h-23v-49l-36 49h-20v-85h22v48l36 -48h21zM705 375v22h14q15 0 15 -11
t-14 -11h-15zM941 373q0 -23 -20 -23t-20 23q0 24 20 24t20 -24zM1083 397q-12 0 -12 -12q0 -13 12 -13q13 0 13 13q0 12 -13 12zM1083 355q-12 0 -12 -12q0 -13 12 -13q13 0 13 13q0 12 -13 12zM528 232q0 44 -43 44q-42 0 -42 -44t42 -44q43 0 43 44zM766 249l7 17
q-23 10 -38 10q-13 0 -20.5 -7.5t-7.5 -18.5q0 -20 24 -27q18 -4 18 -10t-7 -6q-13 0 -30 10l-9 -17q16 -12 40 -12q31 0 31 26q0 19 -23 27q-21 7 -21 11q0 5 8 5q7 0 28 -8zM898 197l-8 18q-15 -7 -27 -7q-20 0 -20 24q0 23 21 23q11 0 24 -4l6 16q-14 9 -31 9
q-43 0 -43 -44t42 -44q16 0 36 9zM987 232q0 44 -43 44q-20 0 -31.5 -11.5t-11.5 -32.5q0 -44 43 -44t43 44zM254 189h24l-4 85h-25l-20 -46q-1 -2 -1 -6l-3 6l-19 46h-26l-3 -85h24v49l20 -49h13l20 49v-49zM338 216l31 58h-24l-14 -27q-1 -1 -2.5 -5t-2.5 -5q-1 1 -2.5 5
t-2.5 5l-14 27h-24l32 -58v-27h23v27zM398 237v16h38v21h-61v-85h23v28h33v20h-33zM617 189v85h-23v-48l-36 48h-20v-85h23v48l36 -48h20zM700 253v21h-75v-21h27v-64h22v64h26zM1073 189h25l-4 85h-26l-19 -46q0 -1 -0.5 -3t-1.5 -3q0 2 -2 6l-20 46h-25l-3 -85h23v49
l20 -49h13l20 49v-49zM505 232q0 -24 -20 -24t-20 24q0 23 20 23t20 -23zM964 232q0 -24 -20 -24t-20 24q0 23 20 23t20 -23zM800 213q-12 0 -12 -12q0 -13 12 -13q13 0 13 13q0 12 -13 12z" />
    <glyph glyph-name="egrave" unicode="&#xe8;" 
d="M1221 525h-1151v-451h1151v451zM108 487h1075v-375h-1075v375zM826 391l7 16q-20 10 -39 10q-13 0 -20.5 -7t-7.5 -18q0 -20 24 -27q19 -4 19 -10t-8 -6q-11 0 -30 10l-8 -17q17 -12 40 -12q31 0 31 26q0 19 -23 26q-22 7 -22 11q0 6 8 6t29 -8zM964 373q0 44 -43 44
t-43 -44q0 -43 43 -43t43 43zM208 378v17h38v21h-61v-85h23v27h33v20h-33zM334 416h-23v-44q0 -22 -17 -22q-15 0 -15 22v44h-23v-44q0 -42 38 -42q40 0 40 42v44zM407 331v21h-38v64h-22v-85h60zM478 331v21h-38v64h-22v-85h60zM569 331l32 85h-24l-18 -54l-3 -8q-2 6 -2 8
l-18 54h-25l33 -85h25zM672 331v21h-41v11h33v19h-33v13h39v21h-62v-85h64zM683 416v-85h22v26h11q8 0 17 -26h26q-9 28 -19 34q15 3 15 22q0 29 -37 29h-35zM868 331v85h-23v-85h23zM1053 331v85h-23v-49l-36 49h-20v-85h22v48l36 -48h21zM705 375v22h14q15 0 15 -11
t-14 -11h-15zM941 373q0 -23 -20 -23t-20 23q0 24 20 24t20 -24zM1083 397q-12 0 -12 -12q0 -13 12 -13q13 0 13 13q0 12 -13 12zM1083 355q-12 0 -12 -12q0 -13 12 -13q13 0 13 13q0 12 -13 12zM528 232q0 44 -43 44q-42 0 -42 -44t42 -44q43 0 43 44zM766 249l7 17
q-23 10 -38 10q-13 0 -20.5 -7.5t-7.5 -18.5q0 -20 24 -27q18 -4 18 -10t-7 -6q-13 0 -30 10l-9 -17q16 -12 40 -12q31 0 31 26q0 19 -23 27q-21 7 -21 11q0 5 8 5q7 0 28 -8zM898 197l-8 18q-15 -7 -27 -7q-20 0 -20 24q0 23 21 23q11 0 24 -4l6 16q-14 9 -31 9
q-43 0 -43 -44t42 -44q16 0 36 9zM987 232q0 44 -43 44q-20 0 -31.5 -11.5t-11.5 -32.5q0 -44 43 -44t43 44zM254 189h24l-4 85h-25l-20 -46q-1 -2 -1 -6l-3 6l-19 46h-26l-3 -85h24v49l20 -49h13l20 49v-49zM338 216l31 58h-24l-14 -27q-1 -1 -2.5 -5t-2.5 -5q-1 1 -2.5 5
t-2.5 5l-14 27h-24l32 -58v-27h23v27zM398 237v16h38v21h-61v-85h23v28h33v20h-33zM617 189v85h-23v-48l-36 48h-20v-85h23v48l36 -48h20zM700 253v21h-75v-21h27v-64h22v64h26zM1073 189h25l-4 85h-26l-19 -46q0 -1 -0.5 -3t-1.5 -3q0 2 -2 6l-20 46h-25l-3 -85h23v49
l20 -49h13l20 49v-49zM505 232q0 -24 -20 -24t-20 24q0 23 20 23t20 -23zM964 232q0 -24 -20 -24t-20 24q0 23 20 23t20 -23zM800 213q-12 0 -12 -12q0 -13 12 -13q13 0 13 13q0 12 -13 12z" />
    <glyph glyph-name="eacute" unicode="&#xe9;" 
d="M1221 525h-1151v-451h1151v451zM108 487h1075v-375h-1075v375zM826 391l7 16q-20 10 -39 10q-13 0 -20.5 -7t-7.5 -18q0 -20 24 -27q19 -4 19 -10t-8 -6q-11 0 -30 10l-8 -17q17 -12 40 -12q31 0 31 26q0 19 -23 26q-22 7 -22 11q0 6 8 6t29 -8zM964 373q0 44 -43 44
t-43 -44q0 -43 43 -43t43 43zM208 378v17h38v21h-61v-85h23v27h33v20h-33zM334 416h-23v-44q0 -22 -17 -22q-15 0 -15 22v44h-23v-44q0 -42 38 -42q40 0 40 42v44zM407 331v21h-38v64h-22v-85h60zM478 331v21h-38v64h-22v-85h60zM569 331l32 85h-24l-18 -54l-3 -8q-2 6 -2 8
l-18 54h-25l33 -85h25zM672 331v21h-41v11h33v19h-33v13h39v21h-62v-85h64zM683 416v-85h22v26h11q8 0 17 -26h26q-9 28 -19 34q15 3 15 22q0 29 -37 29h-35zM868 331v85h-23v-85h23zM1053 331v85h-23v-49l-36 49h-20v-85h22v48l36 -48h21zM705 375v22h14q15 0 15 -11
t-14 -11h-15zM941 373q0 -23 -20 -23t-20 23q0 24 20 24t20 -24zM1083 397q-12 0 -12 -12q0 -13 12 -13q13 0 13 13q0 12 -13 12zM1083 355q-12 0 -12 -12q0 -13 12 -13q13 0 13 13q0 12 -13 12zM528 232q0 44 -43 44q-42 0 -42 -44t42 -44q43 0 43 44zM766 249l7 17
q-23 10 -38 10q-13 0 -20.5 -7.5t-7.5 -18.5q0 -20 24 -27q18 -4 18 -10t-7 -6q-13 0 -30 10l-9 -17q16 -12 40 -12q31 0 31 26q0 19 -23 27q-21 7 -21 11q0 5 8 5q7 0 28 -8zM898 197l-8 18q-15 -7 -27 -7q-20 0 -20 24q0 23 21 23q11 0 24 -4l6 16q-14 9 -31 9
q-43 0 -43 -44t42 -44q16 0 36 9zM987 232q0 44 -43 44q-20 0 -31.5 -11.5t-11.5 -32.5q0 -44 43 -44t43 44zM254 189h24l-4 85h-25l-20 -46q-1 -2 -1 -6l-3 6l-19 46h-26l-3 -85h24v49l20 -49h13l20 49v-49zM338 216l31 58h-24l-14 -27q-1 -1 -2.5 -5t-2.5 -5q-1 1 -2.5 5
t-2.5 5l-14 27h-24l32 -58v-27h23v27zM398 237v16h38v21h-61v-85h23v28h33v20h-33zM617 189v85h-23v-48l-36 48h-20v-85h23v48l36 -48h20zM700 253v21h-75v-21h27v-64h22v64h26zM1073 189h25l-4 85h-26l-19 -46q0 -1 -0.5 -3t-1.5 -3q0 2 -2 6l-20 46h-25l-3 -85h23v49
l20 -49h13l20 49v-49zM505 232q0 -24 -20 -24t-20 24q0 23 20 23t20 -23zM964 232q0 -24 -20 -24t-20 24q0 23 20 23t20 -23zM800 213q-12 0 -12 -12q0 -13 12 -13q13 0 13 13q0 12 -13 12z" />
    <glyph glyph-name="ecircumflex" unicode="&#xea;" 
d="M1221 525h-1151v-451h1151v451zM108 487h1075v-375h-1075v375zM826 391l7 16q-20 10 -39 10q-13 0 -20.5 -7t-7.5 -18q0 -20 24 -27q19 -4 19 -10t-8 -6q-11 0 -30 10l-8 -17q17 -12 40 -12q31 0 31 26q0 19 -23 26q-22 7 -22 11q0 6 8 6t29 -8zM964 373q0 44 -43 44
t-43 -44q0 -43 43 -43t43 43zM208 378v17h38v21h-61v-85h23v27h33v20h-33zM334 416h-23v-44q0 -22 -17 -22q-15 0 -15 22v44h-23v-44q0 -42 38 -42q40 0 40 42v44zM407 331v21h-38v64h-22v-85h60zM478 331v21h-38v64h-22v-85h60zM569 331l32 85h-24l-18 -54l-3 -8q-2 6 -2 8
l-18 54h-25l33 -85h25zM672 331v21h-41v11h33v19h-33v13h39v21h-62v-85h64zM683 416v-85h22v26h11q8 0 17 -26h26q-9 28 -19 34q15 3 15 22q0 29 -37 29h-35zM868 331v85h-23v-85h23zM1053 331v85h-23v-49l-36 49h-20v-85h22v48l36 -48h21zM705 375v22h14q15 0 15 -11
t-14 -11h-15zM941 373q0 -23 -20 -23t-20 23q0 24 20 24t20 -24zM1083 397q-12 0 -12 -12q0 -13 12 -13q13 0 13 13q0 12 -13 12zM1083 355q-12 0 -12 -12q0 -13 12 -13q13 0 13 13q0 12 -13 12zM528 232q0 44 -43 44q-42 0 -42 -44t42 -44q43 0 43 44zM766 249l7 17
q-23 10 -38 10q-13 0 -20.5 -7.5t-7.5 -18.5q0 -20 24 -27q18 -4 18 -10t-7 -6q-13 0 -30 10l-9 -17q16 -12 40 -12q31 0 31 26q0 19 -23 27q-21 7 -21 11q0 5 8 5q7 0 28 -8zM898 197l-8 18q-15 -7 -27 -7q-20 0 -20 24q0 23 21 23q11 0 24 -4l6 16q-14 9 -31 9
q-43 0 -43 -44t42 -44q16 0 36 9zM987 232q0 44 -43 44q-20 0 -31.5 -11.5t-11.5 -32.5q0 -44 43 -44t43 44zM254 189h24l-4 85h-25l-20 -46q-1 -2 -1 -6l-3 6l-19 46h-26l-3 -85h24v49l20 -49h13l20 49v-49zM338 216l31 58h-24l-14 -27q-1 -1 -2.5 -5t-2.5 -5q-1 1 -2.5 5
t-2.5 5l-14 27h-24l32 -58v-27h23v27zM398 237v16h38v21h-61v-85h23v28h33v20h-33zM617 189v85h-23v-48l-36 48h-20v-85h23v48l36 -48h20zM700 253v21h-75v-21h27v-64h22v64h26zM1073 189h25l-4 85h-26l-19 -46q0 -1 -0.5 -3t-1.5 -3q0 2 -2 6l-20 46h-25l-3 -85h23v49
l20 -49h13l20 49v-49zM505 232q0 -24 -20 -24t-20 24q0 23 20 23t20 -23zM964 232q0 -24 -20 -24t-20 24q0 23 20 23t20 -23zM800 213q-12 0 -12 -12q0 -13 12 -13q13 0 13 13q0 12 -13 12z" />
    <glyph glyph-name="edieresis" unicode="&#xeb;" 
d="M1221 525h-1151v-451h1151v451zM108 487h1075v-375h-1075v375zM826 391l7 16q-20 10 -39 10q-13 0 -20.5 -7t-7.5 -18q0 -20 24 -27q19 -4 19 -10t-8 -6q-11 0 -30 10l-8 -17q17 -12 40 -12q31 0 31 26q0 19 -23 26q-22 7 -22 11q0 6 8 6t29 -8zM964 373q0 44 -43 44
t-43 -44q0 -43 43 -43t43 43zM208 378v17h38v21h-61v-85h23v27h33v20h-33zM334 416h-23v-44q0 -22 -17 -22q-15 0 -15 22v44h-23v-44q0 -42 38 -42q40 0 40 42v44zM407 331v21h-38v64h-22v-85h60zM478 331v21h-38v64h-22v-85h60zM569 331l32 85h-24l-18 -54l-3 -8q-2 6 -2 8
l-18 54h-25l33 -85h25zM672 331v21h-41v11h33v19h-33v13h39v21h-62v-85h64zM683 416v-85h22v26h11q8 0 17 -26h26q-9 28 -19 34q15 3 15 22q0 29 -37 29h-35zM868 331v85h-23v-85h23zM1053 331v85h-23v-49l-36 49h-20v-85h22v48l36 -48h21zM705 375v22h14q15 0 15 -11
t-14 -11h-15zM941 373q0 -23 -20 -23t-20 23q0 24 20 24t20 -24zM1083 397q-12 0 -12 -12q0 -13 12 -13q13 0 13 13q0 12 -13 12zM1083 355q-12 0 -12 -12q0 -13 12 -13q13 0 13 13q0 12 -13 12zM528 232q0 44 -43 44q-42 0 -42 -44t42 -44q43 0 43 44zM766 249l7 17
q-23 10 -38 10q-13 0 -20.5 -7.5t-7.5 -18.5q0 -20 24 -27q18 -4 18 -10t-7 -6q-13 0 -30 10l-9 -17q16 -12 40 -12q31 0 31 26q0 19 -23 27q-21 7 -21 11q0 5 8 5q7 0 28 -8zM898 197l-8 18q-15 -7 -27 -7q-20 0 -20 24q0 23 21 23q11 0 24 -4l6 16q-14 9 -31 9
q-43 0 -43 -44t42 -44q16 0 36 9zM987 232q0 44 -43 44q-20 0 -31.5 -11.5t-11.5 -32.5q0 -44 43 -44t43 44zM254 189h24l-4 85h-25l-20 -46q-1 -2 -1 -6l-3 6l-19 46h-26l-3 -85h24v49l20 -49h13l20 49v-49zM338 216l31 58h-24l-14 -27q-1 -1 -2.5 -5t-2.5 -5q-1 1 -2.5 5
t-2.5 5l-14 27h-24l32 -58v-27h23v27zM398 237v16h38v21h-61v-85h23v28h33v20h-33zM617 189v85h-23v-48l-36 48h-20v-85h23v48l36 -48h20zM700 253v21h-75v-21h27v-64h22v64h26zM1073 189h25l-4 85h-26l-19 -46q0 -1 -0.5 -3t-1.5 -3q0 2 -2 6l-20 46h-25l-3 -85h23v49
l20 -49h13l20 49v-49zM505 232q0 -24 -20 -24t-20 24q0 23 20 23t20 -23zM964 232q0 -24 -20 -24t-20 24q0 23 20 23t20 -23zM800 213q-12 0 -12 -12q0 -13 12 -13q13 0 13 13q0 12 -13 12z" />
    <glyph glyph-name="igrave" unicode="&#xec;" 
d="M1221 525h-1151v-451h1151v451zM108 487h1075v-375h-1075v375zM826 391l7 16q-20 10 -39 10q-13 0 -20.5 -7t-7.5 -18q0 -20 24 -27q19 -4 19 -10t-8 -6q-11 0 -30 10l-8 -17q17 -12 40 -12q31 0 31 26q0 19 -23 26q-22 7 -22 11q0 6 8 6t29 -8zM964 373q0 44 -43 44
t-43 -44q0 -43 43 -43t43 43zM208 378v17h38v21h-61v-85h23v27h33v20h-33zM334 416h-23v-44q0 -22 -17 -22q-15 0 -15 22v44h-23v-44q0 -42 38 -42q40 0 40 42v44zM407 331v21h-38v64h-22v-85h60zM478 331v21h-38v64h-22v-85h60zM569 331l32 85h-24l-18 -54l-3 -8q-2 6 -2 8
l-18 54h-25l33 -85h25zM672 331v21h-41v11h33v19h-33v13h39v21h-62v-85h64zM683 416v-85h22v26h11q8 0 17 -26h26q-9 28 -19 34q15 3 15 22q0 29 -37 29h-35zM868 331v85h-23v-85h23zM1053 331v85h-23v-49l-36 49h-20v-85h22v48l36 -48h21zM705 375v22h14q15 0 15 -11
t-14 -11h-15zM941 373q0 -23 -20 -23t-20 23q0 24 20 24t20 -24zM1083 397q-12 0 -12 -12q0 -13 12 -13q13 0 13 13q0 12 -13 12zM1083 355q-12 0 -12 -12q0 -13 12 -13q13 0 13 13q0 12 -13 12zM528 232q0 44 -43 44q-42 0 -42 -44t42 -44q43 0 43 44zM766 249l7 17
q-23 10 -38 10q-13 0 -20.5 -7.5t-7.5 -18.5q0 -20 24 -27q18 -4 18 -10t-7 -6q-13 0 -30 10l-9 -17q16 -12 40 -12q31 0 31 26q0 19 -23 27q-21 7 -21 11q0 5 8 5q7 0 28 -8zM898 197l-8 18q-15 -7 -27 -7q-20 0 -20 24q0 23 21 23q11 0 24 -4l6 16q-14 9 -31 9
q-43 0 -43 -44t42 -44q16 0 36 9zM987 232q0 44 -43 44q-20 0 -31.5 -11.5t-11.5 -32.5q0 -44 43 -44t43 44zM254 189h24l-4 85h-25l-20 -46q-1 -2 -1 -6l-3 6l-19 46h-26l-3 -85h24v49l20 -49h13l20 49v-49zM338 216l31 58h-24l-14 -27q-1 -1 -2.5 -5t-2.5 -5q-1 1 -2.5 5
t-2.5 5l-14 27h-24l32 -58v-27h23v27zM398 237v16h38v21h-61v-85h23v28h33v20h-33zM617 189v85h-23v-48l-36 48h-20v-85h23v48l36 -48h20zM700 253v21h-75v-21h27v-64h22v64h26zM1073 189h25l-4 85h-26l-19 -46q0 -1 -0.5 -3t-1.5 -3q0 2 -2 6l-20 46h-25l-3 -85h23v49
l20 -49h13l20 49v-49zM505 232q0 -24 -20 -24t-20 24q0 23 20 23t20 -23zM964 232q0 -24 -20 -24t-20 24q0 23 20 23t20 -23zM800 213q-12 0 -12 -12q0 -13 12 -13q13 0 13 13q0 12 -13 12z" />
    <glyph glyph-name="iacute" unicode="&#xed;" 
d="M1221 525h-1151v-451h1151v451zM108 487h1075v-375h-1075v375zM826 391l7 16q-20 10 -39 10q-13 0 -20.5 -7t-7.5 -18q0 -20 24 -27q19 -4 19 -10t-8 -6q-11 0 -30 10l-8 -17q17 -12 40 -12q31 0 31 26q0 19 -23 26q-22 7 -22 11q0 6 8 6t29 -8zM964 373q0 44 -43 44
t-43 -44q0 -43 43 -43t43 43zM208 378v17h38v21h-61v-85h23v27h33v20h-33zM334 416h-23v-44q0 -22 -17 -22q-15 0 -15 22v44h-23v-44q0 -42 38 -42q40 0 40 42v44zM407 331v21h-38v64h-22v-85h60zM478 331v21h-38v64h-22v-85h60zM569 331l32 85h-24l-18 -54l-3 -8q-2 6 -2 8
l-18 54h-25l33 -85h25zM672 331v21h-41v11h33v19h-33v13h39v21h-62v-85h64zM683 416v-85h22v26h11q8 0 17 -26h26q-9 28 -19 34q15 3 15 22q0 29 -37 29h-35zM868 331v85h-23v-85h23zM1053 331v85h-23v-49l-36 49h-20v-85h22v48l36 -48h21zM705 375v22h14q15 0 15 -11
t-14 -11h-15zM941 373q0 -23 -20 -23t-20 23q0 24 20 24t20 -24zM1083 397q-12 0 -12 -12q0 -13 12 -13q13 0 13 13q0 12 -13 12zM1083 355q-12 0 -12 -12q0 -13 12 -13q13 0 13 13q0 12 -13 12zM528 232q0 44 -43 44q-42 0 -42 -44t42 -44q43 0 43 44zM766 249l7 17
q-23 10 -38 10q-13 0 -20.5 -7.5t-7.5 -18.5q0 -20 24 -27q18 -4 18 -10t-7 -6q-13 0 -30 10l-9 -17q16 -12 40 -12q31 0 31 26q0 19 -23 27q-21 7 -21 11q0 5 8 5q7 0 28 -8zM898 197l-8 18q-15 -7 -27 -7q-20 0 -20 24q0 23 21 23q11 0 24 -4l6 16q-14 9 -31 9
q-43 0 -43 -44t42 -44q16 0 36 9zM987 232q0 44 -43 44q-20 0 -31.5 -11.5t-11.5 -32.5q0 -44 43 -44t43 44zM254 189h24l-4 85h-25l-20 -46q-1 -2 -1 -6l-3 6l-19 46h-26l-3 -85h24v49l20 -49h13l20 49v-49zM338 216l31 58h-24l-14 -27q-1 -1 -2.5 -5t-2.5 -5q-1 1 -2.5 5
t-2.5 5l-14 27h-24l32 -58v-27h23v27zM398 237v16h38v21h-61v-85h23v28h33v20h-33zM617 189v85h-23v-48l-36 48h-20v-85h23v48l36 -48h20zM700 253v21h-75v-21h27v-64h22v64h26zM1073 189h25l-4 85h-26l-19 -46q0 -1 -0.5 -3t-1.5 -3q0 2 -2 6l-20 46h-25l-3 -85h23v49
l20 -49h13l20 49v-49zM505 232q0 -24 -20 -24t-20 24q0 23 20 23t20 -23zM964 232q0 -24 -20 -24t-20 24q0 23 20 23t20 -23zM800 213q-12 0 -12 -12q0 -13 12 -13q13 0 13 13q0 12 -13 12z" />
    <glyph glyph-name="icircumflex" unicode="&#xee;" 
d="M1221 525h-1151v-451h1151v451zM108 487h1075v-375h-1075v375zM826 391l7 16q-20 10 -39 10q-13 0 -20.5 -7t-7.5 -18q0 -20 24 -27q19 -4 19 -10t-8 -6q-11 0 -30 10l-8 -17q17 -12 40 -12q31 0 31 26q0 19 -23 26q-22 7 -22 11q0 6 8 6t29 -8zM964 373q0 44 -43 44
t-43 -44q0 -43 43 -43t43 43zM208 378v17h38v21h-61v-85h23v27h33v20h-33zM334 416h-23v-44q0 -22 -17 -22q-15 0 -15 22v44h-23v-44q0 -42 38 -42q40 0 40 42v44zM407 331v21h-38v64h-22v-85h60zM478 331v21h-38v64h-22v-85h60zM569 331l32 85h-24l-18 -54l-3 -8q-2 6 -2 8
l-18 54h-25l33 -85h25zM672 331v21h-41v11h33v19h-33v13h39v21h-62v-85h64zM683 416v-85h22v26h11q8 0 17 -26h26q-9 28 -19 34q15 3 15 22q0 29 -37 29h-35zM868 331v85h-23v-85h23zM1053 331v85h-23v-49l-36 49h-20v-85h22v48l36 -48h21zM705 375v22h14q15 0 15 -11
t-14 -11h-15zM941 373q0 -23 -20 -23t-20 23q0 24 20 24t20 -24zM1083 397q-12 0 -12 -12q0 -13 12 -13q13 0 13 13q0 12 -13 12zM1083 355q-12 0 -12 -12q0 -13 12 -13q13 0 13 13q0 12 -13 12zM528 232q0 44 -43 44q-42 0 -42 -44t42 -44q43 0 43 44zM766 249l7 17
q-23 10 -38 10q-13 0 -20.5 -7.5t-7.5 -18.5q0 -20 24 -27q18 -4 18 -10t-7 -6q-13 0 -30 10l-9 -17q16 -12 40 -12q31 0 31 26q0 19 -23 27q-21 7 -21 11q0 5 8 5q7 0 28 -8zM898 197l-8 18q-15 -7 -27 -7q-20 0 -20 24q0 23 21 23q11 0 24 -4l6 16q-14 9 -31 9
q-43 0 -43 -44t42 -44q16 0 36 9zM987 232q0 44 -43 44q-20 0 -31.5 -11.5t-11.5 -32.5q0 -44 43 -44t43 44zM254 189h24l-4 85h-25l-20 -46q-1 -2 -1 -6l-3 6l-19 46h-26l-3 -85h24v49l20 -49h13l20 49v-49zM338 216l31 58h-24l-14 -27q-1 -1 -2.5 -5t-2.5 -5q-1 1 -2.5 5
t-2.5 5l-14 27h-24l32 -58v-27h23v27zM398 237v16h38v21h-61v-85h23v28h33v20h-33zM617 189v85h-23v-48l-36 48h-20v-85h23v48l36 -48h20zM700 253v21h-75v-21h27v-64h22v64h26zM1073 189h25l-4 85h-26l-19 -46q0 -1 -0.5 -3t-1.5 -3q0 2 -2 6l-20 46h-25l-3 -85h23v49
l20 -49h13l20 49v-49zM505 232q0 -24 -20 -24t-20 24q0 23 20 23t20 -23zM964 232q0 -24 -20 -24t-20 24q0 23 20 23t20 -23zM800 213q-12 0 -12 -12q0 -13 12 -13q13 0 13 13q0 12 -13 12z" />
    <glyph glyph-name="idieresis" unicode="&#xef;" 
d="M1221 525h-1151v-451h1151v451zM108 487h1075v-375h-1075v375zM826 391l7 16q-20 10 -39 10q-13 0 -20.5 -7t-7.5 -18q0 -20 24 -27q19 -4 19 -10t-8 -6q-11 0 -30 10l-8 -17q17 -12 40 -12q31 0 31 26q0 19 -23 26q-22 7 -22 11q0 6 8 6t29 -8zM964 373q0 44 -43 44
t-43 -44q0 -43 43 -43t43 43zM208 378v17h38v21h-61v-85h23v27h33v20h-33zM334 416h-23v-44q0 -22 -17 -22q-15 0 -15 22v44h-23v-44q0 -42 38 -42q40 0 40 42v44zM407 331v21h-38v64h-22v-85h60zM478 331v21h-38v64h-22v-85h60zM569 331l32 85h-24l-18 -54l-3 -8q-2 6 -2 8
l-18 54h-25l33 -85h25zM672 331v21h-41v11h33v19h-33v13h39v21h-62v-85h64zM683 416v-85h22v26h11q8 0 17 -26h26q-9 28 -19 34q15 3 15 22q0 29 -37 29h-35zM868 331v85h-23v-85h23zM1053 331v85h-23v-49l-36 49h-20v-85h22v48l36 -48h21zM705 375v22h14q15 0 15 -11
t-14 -11h-15zM941 373q0 -23 -20 -23t-20 23q0 24 20 24t20 -24zM1083 397q-12 0 -12 -12q0 -13 12 -13q13 0 13 13q0 12 -13 12zM1083 355q-12 0 -12 -12q0 -13 12 -13q13 0 13 13q0 12 -13 12zM528 232q0 44 -43 44q-42 0 -42 -44t42 -44q43 0 43 44zM766 249l7 17
q-23 10 -38 10q-13 0 -20.5 -7.5t-7.5 -18.5q0 -20 24 -27q18 -4 18 -10t-7 -6q-13 0 -30 10l-9 -17q16 -12 40 -12q31 0 31 26q0 19 -23 27q-21 7 -21 11q0 5 8 5q7 0 28 -8zM898 197l-8 18q-15 -7 -27 -7q-20 0 -20 24q0 23 21 23q11 0 24 -4l6 16q-14 9 -31 9
q-43 0 -43 -44t42 -44q16 0 36 9zM987 232q0 44 -43 44q-20 0 -31.5 -11.5t-11.5 -32.5q0 -44 43 -44t43 44zM254 189h24l-4 85h-25l-20 -46q-1 -2 -1 -6l-3 6l-19 46h-26l-3 -85h24v49l20 -49h13l20 49v-49zM338 216l31 58h-24l-14 -27q-1 -1 -2.5 -5t-2.5 -5q-1 1 -2.5 5
t-2.5 5l-14 27h-24l32 -58v-27h23v27zM398 237v16h38v21h-61v-85h23v28h33v20h-33zM617 189v85h-23v-48l-36 48h-20v-85h23v48l36 -48h20zM700 253v21h-75v-21h27v-64h22v64h26zM1073 189h25l-4 85h-26l-19 -46q0 -1 -0.5 -3t-1.5 -3q0 2 -2 6l-20 46h-25l-3 -85h23v49
l20 -49h13l20 49v-49zM505 232q0 -24 -20 -24t-20 24q0 23 20 23t20 -23zM964 232q0 -24 -20 -24t-20 24q0 23 20 23t20 -23zM800 213q-12 0 -12 -12q0 -13 12 -13q13 0 13 13q0 12 -13 12z" />
    <glyph glyph-name="eth" unicode="&#xf0;" 
d="M1221 525h-1151v-451h1151v451zM108 487h1075v-375h-1075v375zM826 391l7 16q-20 10 -39 10q-13 0 -20.5 -7t-7.5 -18q0 -20 24 -27q19 -4 19 -10t-8 -6q-11 0 -30 10l-8 -17q17 -12 40 -12q31 0 31 26q0 19 -23 26q-22 7 -22 11q0 6 8 6t29 -8zM964 373q0 44 -43 44
t-43 -44q0 -43 43 -43t43 43zM208 378v17h38v21h-61v-85h23v27h33v20h-33zM334 416h-23v-44q0 -22 -17 -22q-15 0 -15 22v44h-23v-44q0 -42 38 -42q40 0 40 42v44zM407 331v21h-38v64h-22v-85h60zM478 331v21h-38v64h-22v-85h60zM569 331l32 85h-24l-18 -54l-3 -8q-2 6 -2 8
l-18 54h-25l33 -85h25zM672 331v21h-41v11h33v19h-33v13h39v21h-62v-85h64zM683 416v-85h22v26h11q8 0 17 -26h26q-9 28 -19 34q15 3 15 22q0 29 -37 29h-35zM868 331v85h-23v-85h23zM1053 331v85h-23v-49l-36 49h-20v-85h22v48l36 -48h21zM705 375v22h14q15 0 15 -11
t-14 -11h-15zM941 373q0 -23 -20 -23t-20 23q0 24 20 24t20 -24zM1083 397q-12 0 -12 -12q0 -13 12 -13q13 0 13 13q0 12 -13 12zM1083 355q-12 0 -12 -12q0 -13 12 -13q13 0 13 13q0 12 -13 12zM528 232q0 44 -43 44q-42 0 -42 -44t42 -44q43 0 43 44zM766 249l7 17
q-23 10 -38 10q-13 0 -20.5 -7.5t-7.5 -18.5q0 -20 24 -27q18 -4 18 -10t-7 -6q-13 0 -30 10l-9 -17q16 -12 40 -12q31 0 31 26q0 19 -23 27q-21 7 -21 11q0 5 8 5q7 0 28 -8zM898 197l-8 18q-15 -7 -27 -7q-20 0 -20 24q0 23 21 23q11 0 24 -4l6 16q-14 9 -31 9
q-43 0 -43 -44t42 -44q16 0 36 9zM987 232q0 44 -43 44q-20 0 -31.5 -11.5t-11.5 -32.5q0 -44 43 -44t43 44zM254 189h24l-4 85h-25l-20 -46q-1 -2 -1 -6l-3 6l-19 46h-26l-3 -85h24v49l20 -49h13l20 49v-49zM338 216l31 58h-24l-14 -27q-1 -1 -2.5 -5t-2.5 -5q-1 1 -2.5 5
t-2.5 5l-14 27h-24l32 -58v-27h23v27zM398 237v16h38v21h-61v-85h23v28h33v20h-33zM617 189v85h-23v-48l-36 48h-20v-85h23v48l36 -48h20zM700 253v21h-75v-21h27v-64h22v64h26zM1073 189h25l-4 85h-26l-19 -46q0 -1 -0.5 -3t-1.5 -3q0 2 -2 6l-20 46h-25l-3 -85h23v49
l20 -49h13l20 49v-49zM505 232q0 -24 -20 -24t-20 24q0 23 20 23t20 -23zM964 232q0 -24 -20 -24t-20 24q0 23 20 23t20 -23zM800 213q-12 0 -12 -12q0 -13 12 -13q13 0 13 13q0 12 -13 12z" />
    <glyph glyph-name="ntilde" unicode="&#xf1;" 
d="M1221 525h-1151v-451h1151v451zM108 487h1075v-375h-1075v375zM826 391l7 16q-20 10 -39 10q-13 0 -20.5 -7t-7.5 -18q0 -20 24 -27q19 -4 19 -10t-8 -6q-11 0 -30 10l-8 -17q17 -12 40 -12q31 0 31 26q0 19 -23 26q-22 7 -22 11q0 6 8 6t29 -8zM964 373q0 44 -43 44
t-43 -44q0 -43 43 -43t43 43zM208 378v17h38v21h-61v-85h23v27h33v20h-33zM334 416h-23v-44q0 -22 -17 -22q-15 0 -15 22v44h-23v-44q0 -42 38 -42q40 0 40 42v44zM407 331v21h-38v64h-22v-85h60zM478 331v21h-38v64h-22v-85h60zM569 331l32 85h-24l-18 -54l-3 -8q-2 6 -2 8
l-18 54h-25l33 -85h25zM672 331v21h-41v11h33v19h-33v13h39v21h-62v-85h64zM683 416v-85h22v26h11q8 0 17 -26h26q-9 28 -19 34q15 3 15 22q0 29 -37 29h-35zM868 331v85h-23v-85h23zM1053 331v85h-23v-49l-36 49h-20v-85h22v48l36 -48h21zM705 375v22h14q15 0 15 -11
t-14 -11h-15zM941 373q0 -23 -20 -23t-20 23q0 24 20 24t20 -24zM1083 397q-12 0 -12 -12q0 -13 12 -13q13 0 13 13q0 12 -13 12zM1083 355q-12 0 -12 -12q0 -13 12 -13q13 0 13 13q0 12 -13 12zM528 232q0 44 -43 44q-42 0 -42 -44t42 -44q43 0 43 44zM766 249l7 17
q-23 10 -38 10q-13 0 -20.5 -7.5t-7.5 -18.5q0 -20 24 -27q18 -4 18 -10t-7 -6q-13 0 -30 10l-9 -17q16 -12 40 -12q31 0 31 26q0 19 -23 27q-21 7 -21 11q0 5 8 5q7 0 28 -8zM898 197l-8 18q-15 -7 -27 -7q-20 0 -20 24q0 23 21 23q11 0 24 -4l6 16q-14 9 -31 9
q-43 0 -43 -44t42 -44q16 0 36 9zM987 232q0 44 -43 44q-20 0 -31.5 -11.5t-11.5 -32.5q0 -44 43 -44t43 44zM254 189h24l-4 85h-25l-20 -46q-1 -2 -1 -6l-3 6l-19 46h-26l-3 -85h24v49l20 -49h13l20 49v-49zM338 216l31 58h-24l-14 -27q-1 -1 -2.5 -5t-2.5 -5q-1 1 -2.5 5
t-2.5 5l-14 27h-24l32 -58v-27h23v27zM398 237v16h38v21h-61v-85h23v28h33v20h-33zM617 189v85h-23v-48l-36 48h-20v-85h23v48l36 -48h20zM700 253v21h-75v-21h27v-64h22v64h26zM1073 189h25l-4 85h-26l-19 -46q0 -1 -0.5 -3t-1.5 -3q0 2 -2 6l-20 46h-25l-3 -85h23v49
l20 -49h13l20 49v-49zM505 232q0 -24 -20 -24t-20 24q0 23 20 23t20 -23zM964 232q0 -24 -20 -24t-20 24q0 23 20 23t20 -23zM800 213q-12 0 -12 -12q0 -13 12 -13q13 0 13 13q0 12 -13 12z" />
    <glyph glyph-name="ograve" unicode="&#xf2;" 
d="M1221 525h-1151v-451h1151v451zM108 487h1075v-375h-1075v375zM826 391l7 16q-20 10 -39 10q-13 0 -20.5 -7t-7.5 -18q0 -20 24 -27q19 -4 19 -10t-8 -6q-11 0 -30 10l-8 -17q17 -12 40 -12q31 0 31 26q0 19 -23 26q-22 7 -22 11q0 6 8 6t29 -8zM964 373q0 44 -43 44
t-43 -44q0 -43 43 -43t43 43zM208 378v17h38v21h-61v-85h23v27h33v20h-33zM334 416h-23v-44q0 -22 -17 -22q-15 0 -15 22v44h-23v-44q0 -42 38 -42q40 0 40 42v44zM407 331v21h-38v64h-22v-85h60zM478 331v21h-38v64h-22v-85h60zM569 331l32 85h-24l-18 -54l-3 -8q-2 6 -2 8
l-18 54h-25l33 -85h25zM672 331v21h-41v11h33v19h-33v13h39v21h-62v-85h64zM683 416v-85h22v26h11q8 0 17 -26h26q-9 28 -19 34q15 3 15 22q0 29 -37 29h-35zM868 331v85h-23v-85h23zM1053 331v85h-23v-49l-36 49h-20v-85h22v48l36 -48h21zM705 375v22h14q15 0 15 -11
t-14 -11h-15zM941 373q0 -23 -20 -23t-20 23q0 24 20 24t20 -24zM1083 397q-12 0 -12 -12q0 -13 12 -13q13 0 13 13q0 12 -13 12zM1083 355q-12 0 -12 -12q0 -13 12 -13q13 0 13 13q0 12 -13 12zM528 232q0 44 -43 44q-42 0 -42 -44t42 -44q43 0 43 44zM766 249l7 17
q-23 10 -38 10q-13 0 -20.5 -7.5t-7.5 -18.5q0 -20 24 -27q18 -4 18 -10t-7 -6q-13 0 -30 10l-9 -17q16 -12 40 -12q31 0 31 26q0 19 -23 27q-21 7 -21 11q0 5 8 5q7 0 28 -8zM898 197l-8 18q-15 -7 -27 -7q-20 0 -20 24q0 23 21 23q11 0 24 -4l6 16q-14 9 -31 9
q-43 0 -43 -44t42 -44q16 0 36 9zM987 232q0 44 -43 44q-20 0 -31.5 -11.5t-11.5 -32.5q0 -44 43 -44t43 44zM254 189h24l-4 85h-25l-20 -46q-1 -2 -1 -6l-3 6l-19 46h-26l-3 -85h24v49l20 -49h13l20 49v-49zM338 216l31 58h-24l-14 -27q-1 -1 -2.5 -5t-2.5 -5q-1 1 -2.5 5
t-2.5 5l-14 27h-24l32 -58v-27h23v27zM398 237v16h38v21h-61v-85h23v28h33v20h-33zM617 189v85h-23v-48l-36 48h-20v-85h23v48l36 -48h20zM700 253v21h-75v-21h27v-64h22v64h26zM1073 189h25l-4 85h-26l-19 -46q0 -1 -0.5 -3t-1.5 -3q0 2 -2 6l-20 46h-25l-3 -85h23v49
l20 -49h13l20 49v-49zM505 232q0 -24 -20 -24t-20 24q0 23 20 23t20 -23zM964 232q0 -24 -20 -24t-20 24q0 23 20 23t20 -23zM800 213q-12 0 -12 -12q0 -13 12 -13q13 0 13 13q0 12 -13 12z" />
    <glyph glyph-name="oacute" unicode="&#xf3;" 
d="M1221 525h-1151v-451h1151v451zM108 487h1075v-375h-1075v375zM826 391l7 16q-20 10 -39 10q-13 0 -20.5 -7t-7.5 -18q0 -20 24 -27q19 -4 19 -10t-8 -6q-11 0 -30 10l-8 -17q17 -12 40 -12q31 0 31 26q0 19 -23 26q-22 7 -22 11q0 6 8 6t29 -8zM964 373q0 44 -43 44
t-43 -44q0 -43 43 -43t43 43zM208 378v17h38v21h-61v-85h23v27h33v20h-33zM334 416h-23v-44q0 -22 -17 -22q-15 0 -15 22v44h-23v-44q0 -42 38 -42q40 0 40 42v44zM407 331v21h-38v64h-22v-85h60zM478 331v21h-38v64h-22v-85h60zM569 331l32 85h-24l-18 -54l-3 -8q-2 6 -2 8
l-18 54h-25l33 -85h25zM672 331v21h-41v11h33v19h-33v13h39v21h-62v-85h64zM683 416v-85h22v26h11q8 0 17 -26h26q-9 28 -19 34q15 3 15 22q0 29 -37 29h-35zM868 331v85h-23v-85h23zM1053 331v85h-23v-49l-36 49h-20v-85h22v48l36 -48h21zM705 375v22h14q15 0 15 -11
t-14 -11h-15zM941 373q0 -23 -20 -23t-20 23q0 24 20 24t20 -24zM1083 397q-12 0 -12 -12q0 -13 12 -13q13 0 13 13q0 12 -13 12zM1083 355q-12 0 -12 -12q0 -13 12 -13q13 0 13 13q0 12 -13 12zM528 232q0 44 -43 44q-42 0 -42 -44t42 -44q43 0 43 44zM766 249l7 17
q-23 10 -38 10q-13 0 -20.5 -7.5t-7.5 -18.5q0 -20 24 -27q18 -4 18 -10t-7 -6q-13 0 -30 10l-9 -17q16 -12 40 -12q31 0 31 26q0 19 -23 27q-21 7 -21 11q0 5 8 5q7 0 28 -8zM898 197l-8 18q-15 -7 -27 -7q-20 0 -20 24q0 23 21 23q11 0 24 -4l6 16q-14 9 -31 9
q-43 0 -43 -44t42 -44q16 0 36 9zM987 232q0 44 -43 44q-20 0 -31.5 -11.5t-11.5 -32.5q0 -44 43 -44t43 44zM254 189h24l-4 85h-25l-20 -46q-1 -2 -1 -6l-3 6l-19 46h-26l-3 -85h24v49l20 -49h13l20 49v-49zM338 216l31 58h-24l-14 -27q-1 -1 -2.5 -5t-2.5 -5q-1 1 -2.5 5
t-2.5 5l-14 27h-24l32 -58v-27h23v27zM398 237v16h38v21h-61v-85h23v28h33v20h-33zM617 189v85h-23v-48l-36 48h-20v-85h23v48l36 -48h20zM700 253v21h-75v-21h27v-64h22v64h26zM1073 189h25l-4 85h-26l-19 -46q0 -1 -0.5 -3t-1.5 -3q0 2 -2 6l-20 46h-25l-3 -85h23v49
l20 -49h13l20 49v-49zM505 232q0 -24 -20 -24t-20 24q0 23 20 23t20 -23zM964 232q0 -24 -20 -24t-20 24q0 23 20 23t20 -23zM800 213q-12 0 -12 -12q0 -13 12 -13q13 0 13 13q0 12 -13 12z" />
    <glyph glyph-name="ocircumflex" unicode="&#xf4;" 
d="M1221 525h-1151v-451h1151v451zM108 487h1075v-375h-1075v375zM826 391l7 16q-20 10 -39 10q-13 0 -20.5 -7t-7.5 -18q0 -20 24 -27q19 -4 19 -10t-8 -6q-11 0 -30 10l-8 -17q17 -12 40 -12q31 0 31 26q0 19 -23 26q-22 7 -22 11q0 6 8 6t29 -8zM964 373q0 44 -43 44
t-43 -44q0 -43 43 -43t43 43zM208 378v17h38v21h-61v-85h23v27h33v20h-33zM334 416h-23v-44q0 -22 -17 -22q-15 0 -15 22v44h-23v-44q0 -42 38 -42q40 0 40 42v44zM407 331v21h-38v64h-22v-85h60zM478 331v21h-38v64h-22v-85h60zM569 331l32 85h-24l-18 -54l-3 -8q-2 6 -2 8
l-18 54h-25l33 -85h25zM672 331v21h-41v11h33v19h-33v13h39v21h-62v-85h64zM683 416v-85h22v26h11q8 0 17 -26h26q-9 28 -19 34q15 3 15 22q0 29 -37 29h-35zM868 331v85h-23v-85h23zM1053 331v85h-23v-49l-36 49h-20v-85h22v48l36 -48h21zM705 375v22h14q15 0 15 -11
t-14 -11h-15zM941 373q0 -23 -20 -23t-20 23q0 24 20 24t20 -24zM1083 397q-12 0 -12 -12q0 -13 12 -13q13 0 13 13q0 12 -13 12zM1083 355q-12 0 -12 -12q0 -13 12 -13q13 0 13 13q0 12 -13 12zM528 232q0 44 -43 44q-42 0 -42 -44t42 -44q43 0 43 44zM766 249l7 17
q-23 10 -38 10q-13 0 -20.5 -7.5t-7.5 -18.5q0 -20 24 -27q18 -4 18 -10t-7 -6q-13 0 -30 10l-9 -17q16 -12 40 -12q31 0 31 26q0 19 -23 27q-21 7 -21 11q0 5 8 5q7 0 28 -8zM898 197l-8 18q-15 -7 -27 -7q-20 0 -20 24q0 23 21 23q11 0 24 -4l6 16q-14 9 -31 9
q-43 0 -43 -44t42 -44q16 0 36 9zM987 232q0 44 -43 44q-20 0 -31.5 -11.5t-11.5 -32.5q0 -44 43 -44t43 44zM254 189h24l-4 85h-25l-20 -46q-1 -2 -1 -6l-3 6l-19 46h-26l-3 -85h24v49l20 -49h13l20 49v-49zM338 216l31 58h-24l-14 -27q-1 -1 -2.5 -5t-2.5 -5q-1 1 -2.5 5
t-2.5 5l-14 27h-24l32 -58v-27h23v27zM398 237v16h38v21h-61v-85h23v28h33v20h-33zM617 189v85h-23v-48l-36 48h-20v-85h23v48l36 -48h20zM700 253v21h-75v-21h27v-64h22v64h26zM1073 189h25l-4 85h-26l-19 -46q0 -1 -0.5 -3t-1.5 -3q0 2 -2 6l-20 46h-25l-3 -85h23v49
l20 -49h13l20 49v-49zM505 232q0 -24 -20 -24t-20 24q0 23 20 23t20 -23zM964 232q0 -24 -20 -24t-20 24q0 23 20 23t20 -23zM800 213q-12 0 -12 -12q0 -13 12 -13q13 0 13 13q0 12 -13 12z" />
    <glyph glyph-name="otilde" unicode="&#xf5;" 
d="M1221 525h-1151v-451h1151v451zM108 487h1075v-375h-1075v375zM826 391l7 16q-20 10 -39 10q-13 0 -20.5 -7t-7.5 -18q0 -20 24 -27q19 -4 19 -10t-8 -6q-11 0 -30 10l-8 -17q17 -12 40 -12q31 0 31 26q0 19 -23 26q-22 7 -22 11q0 6 8 6t29 -8zM964 373q0 44 -43 44
t-43 -44q0 -43 43 -43t43 43zM208 378v17h38v21h-61v-85h23v27h33v20h-33zM334 416h-23v-44q0 -22 -17 -22q-15 0 -15 22v44h-23v-44q0 -42 38 -42q40 0 40 42v44zM407 331v21h-38v64h-22v-85h60zM478 331v21h-38v64h-22v-85h60zM569 331l32 85h-24l-18 -54l-3 -8q-2 6 -2 8
l-18 54h-25l33 -85h25zM672 331v21h-41v11h33v19h-33v13h39v21h-62v-85h64zM683 416v-85h22v26h11q8 0 17 -26h26q-9 28 -19 34q15 3 15 22q0 29 -37 29h-35zM868 331v85h-23v-85h23zM1053 331v85h-23v-49l-36 49h-20v-85h22v48l36 -48h21zM705 375v22h14q15 0 15 -11
t-14 -11h-15zM941 373q0 -23 -20 -23t-20 23q0 24 20 24t20 -24zM1083 397q-12 0 -12 -12q0 -13 12 -13q13 0 13 13q0 12 -13 12zM1083 355q-12 0 -12 -12q0 -13 12 -13q13 0 13 13q0 12 -13 12zM528 232q0 44 -43 44q-42 0 -42 -44t42 -44q43 0 43 44zM766 249l7 17
q-23 10 -38 10q-13 0 -20.5 -7.5t-7.5 -18.5q0 -20 24 -27q18 -4 18 -10t-7 -6q-13 0 -30 10l-9 -17q16 -12 40 -12q31 0 31 26q0 19 -23 27q-21 7 -21 11q0 5 8 5q7 0 28 -8zM898 197l-8 18q-15 -7 -27 -7q-20 0 -20 24q0 23 21 23q11 0 24 -4l6 16q-14 9 -31 9
q-43 0 -43 -44t42 -44q16 0 36 9zM987 232q0 44 -43 44q-20 0 -31.5 -11.5t-11.5 -32.5q0 -44 43 -44t43 44zM254 189h24l-4 85h-25l-20 -46q-1 -2 -1 -6l-3 6l-19 46h-26l-3 -85h24v49l20 -49h13l20 49v-49zM338 216l31 58h-24l-14 -27q-1 -1 -2.5 -5t-2.5 -5q-1 1 -2.5 5
t-2.5 5l-14 27h-24l32 -58v-27h23v27zM398 237v16h38v21h-61v-85h23v28h33v20h-33zM617 189v85h-23v-48l-36 48h-20v-85h23v48l36 -48h20zM700 253v21h-75v-21h27v-64h22v64h26zM1073 189h25l-4 85h-26l-19 -46q0 -1 -0.5 -3t-1.5 -3q0 2 -2 6l-20 46h-25l-3 -85h23v49
l20 -49h13l20 49v-49zM505 232q0 -24 -20 -24t-20 24q0 23 20 23t20 -23zM964 232q0 -24 -20 -24t-20 24q0 23 20 23t20 -23zM800 213q-12 0 -12 -12q0 -13 12 -13q13 0 13 13q0 12 -13 12z" />
    <glyph glyph-name="odieresis" unicode="&#xf6;" 
d="M1221 525h-1151v-451h1151v451zM108 487h1075v-375h-1075v375zM826 391l7 16q-20 10 -39 10q-13 0 -20.5 -7t-7.5 -18q0 -20 24 -27q19 -4 19 -10t-8 -6q-11 0 -30 10l-8 -17q17 -12 40 -12q31 0 31 26q0 19 -23 26q-22 7 -22 11q0 6 8 6t29 -8zM964 373q0 44 -43 44
t-43 -44q0 -43 43 -43t43 43zM208 378v17h38v21h-61v-85h23v27h33v20h-33zM334 416h-23v-44q0 -22 -17 -22q-15 0 -15 22v44h-23v-44q0 -42 38 -42q40 0 40 42v44zM407 331v21h-38v64h-22v-85h60zM478 331v21h-38v64h-22v-85h60zM569 331l32 85h-24l-18 -54l-3 -8q-2 6 -2 8
l-18 54h-25l33 -85h25zM672 331v21h-41v11h33v19h-33v13h39v21h-62v-85h64zM683 416v-85h22v26h11q8 0 17 -26h26q-9 28 -19 34q15 3 15 22q0 29 -37 29h-35zM868 331v85h-23v-85h23zM1053 331v85h-23v-49l-36 49h-20v-85h22v48l36 -48h21zM705 375v22h14q15 0 15 -11
t-14 -11h-15zM941 373q0 -23 -20 -23t-20 23q0 24 20 24t20 -24zM1083 397q-12 0 -12 -12q0 -13 12 -13q13 0 13 13q0 12 -13 12zM1083 355q-12 0 -12 -12q0 -13 12 -13q13 0 13 13q0 12 -13 12zM528 232q0 44 -43 44q-42 0 -42 -44t42 -44q43 0 43 44zM766 249l7 17
q-23 10 -38 10q-13 0 -20.5 -7.5t-7.5 -18.5q0 -20 24 -27q18 -4 18 -10t-7 -6q-13 0 -30 10l-9 -17q16 -12 40 -12q31 0 31 26q0 19 -23 27q-21 7 -21 11q0 5 8 5q7 0 28 -8zM898 197l-8 18q-15 -7 -27 -7q-20 0 -20 24q0 23 21 23q11 0 24 -4l6 16q-14 9 -31 9
q-43 0 -43 -44t42 -44q16 0 36 9zM987 232q0 44 -43 44q-20 0 -31.5 -11.5t-11.5 -32.5q0 -44 43 -44t43 44zM254 189h24l-4 85h-25l-20 -46q-1 -2 -1 -6l-3 6l-19 46h-26l-3 -85h24v49l20 -49h13l20 49v-49zM338 216l31 58h-24l-14 -27q-1 -1 -2.5 -5t-2.5 -5q-1 1 -2.5 5
t-2.5 5l-14 27h-24l32 -58v-27h23v27zM398 237v16h38v21h-61v-85h23v28h33v20h-33zM617 189v85h-23v-48l-36 48h-20v-85h23v48l36 -48h20zM700 253v21h-75v-21h27v-64h22v64h26zM1073 189h25l-4 85h-26l-19 -46q0 -1 -0.5 -3t-1.5 -3q0 2 -2 6l-20 46h-25l-3 -85h23v49
l20 -49h13l20 49v-49zM505 232q0 -24 -20 -24t-20 24q0 23 20 23t20 -23zM964 232q0 -24 -20 -24t-20 24q0 23 20 23t20 -23zM800 213q-12 0 -12 -12q0 -13 12 -13q13 0 13 13q0 12 -13 12z" />
    <glyph glyph-name="oslash" unicode="&#xf8;" 
d="M1221 525h-1151v-451h1151v451zM108 487h1075v-375h-1075v375zM826 391l7 16q-20 10 -39 10q-13 0 -20.5 -7t-7.5 -18q0 -20 24 -27q19 -4 19 -10t-8 -6q-11 0 -30 10l-8 -17q17 -12 40 -12q31 0 31 26q0 19 -23 26q-22 7 -22 11q0 6 8 6t29 -8zM964 373q0 44 -43 44
t-43 -44q0 -43 43 -43t43 43zM208 378v17h38v21h-61v-85h23v27h33v20h-33zM334 416h-23v-44q0 -22 -17 -22q-15 0 -15 22v44h-23v-44q0 -42 38 -42q40 0 40 42v44zM407 331v21h-38v64h-22v-85h60zM478 331v21h-38v64h-22v-85h60zM569 331l32 85h-24l-18 -54l-3 -8q-2 6 -2 8
l-18 54h-25l33 -85h25zM672 331v21h-41v11h33v19h-33v13h39v21h-62v-85h64zM683 416v-85h22v26h11q8 0 17 -26h26q-9 28 -19 34q15 3 15 22q0 29 -37 29h-35zM868 331v85h-23v-85h23zM1053 331v85h-23v-49l-36 49h-20v-85h22v48l36 -48h21zM705 375v22h14q15 0 15 -11
t-14 -11h-15zM941 373q0 -23 -20 -23t-20 23q0 24 20 24t20 -24zM1083 397q-12 0 -12 -12q0 -13 12 -13q13 0 13 13q0 12 -13 12zM1083 355q-12 0 -12 -12q0 -13 12 -13q13 0 13 13q0 12 -13 12zM528 232q0 44 -43 44q-42 0 -42 -44t42 -44q43 0 43 44zM766 249l7 17
q-23 10 -38 10q-13 0 -20.5 -7.5t-7.5 -18.5q0 -20 24 -27q18 -4 18 -10t-7 -6q-13 0 -30 10l-9 -17q16 -12 40 -12q31 0 31 26q0 19 -23 27q-21 7 -21 11q0 5 8 5q7 0 28 -8zM898 197l-8 18q-15 -7 -27 -7q-20 0 -20 24q0 23 21 23q11 0 24 -4l6 16q-14 9 -31 9
q-43 0 -43 -44t42 -44q16 0 36 9zM987 232q0 44 -43 44q-20 0 -31.5 -11.5t-11.5 -32.5q0 -44 43 -44t43 44zM254 189h24l-4 85h-25l-20 -46q-1 -2 -1 -6l-3 6l-19 46h-26l-3 -85h24v49l20 -49h13l20 49v-49zM338 216l31 58h-24l-14 -27q-1 -1 -2.5 -5t-2.5 -5q-1 1 -2.5 5
t-2.5 5l-14 27h-24l32 -58v-27h23v27zM398 237v16h38v21h-61v-85h23v28h33v20h-33zM617 189v85h-23v-48l-36 48h-20v-85h23v48l36 -48h20zM700 253v21h-75v-21h27v-64h22v64h26zM1073 189h25l-4 85h-26l-19 -46q0 -1 -0.5 -3t-1.5 -3q0 2 -2 6l-20 46h-25l-3 -85h23v49
l20 -49h13l20 49v-49zM505 232q0 -24 -20 -24t-20 24q0 23 20 23t20 -23zM964 232q0 -24 -20 -24t-20 24q0 23 20 23t20 -23zM800 213q-12 0 -12 -12q0 -13 12 -13q13 0 13 13q0 12 -13 12z" />
    <glyph glyph-name="ugrave" unicode="&#xf9;" 
d="M1221 525h-1151v-451h1151v451zM108 487h1075v-375h-1075v375zM826 391l7 16q-20 10 -39 10q-13 0 -20.5 -7t-7.5 -18q0 -20 24 -27q19 -4 19 -10t-8 -6q-11 0 -30 10l-8 -17q17 -12 40 -12q31 0 31 26q0 19 -23 26q-22 7 -22 11q0 6 8 6t29 -8zM964 373q0 44 -43 44
t-43 -44q0 -43 43 -43t43 43zM208 378v17h38v21h-61v-85h23v27h33v20h-33zM334 416h-23v-44q0 -22 -17 -22q-15 0 -15 22v44h-23v-44q0 -42 38 -42q40 0 40 42v44zM407 331v21h-38v64h-22v-85h60zM478 331v21h-38v64h-22v-85h60zM569 331l32 85h-24l-18 -54l-3 -8q-2 6 -2 8
l-18 54h-25l33 -85h25zM672 331v21h-41v11h33v19h-33v13h39v21h-62v-85h64zM683 416v-85h22v26h11q8 0 17 -26h26q-9 28 -19 34q15 3 15 22q0 29 -37 29h-35zM868 331v85h-23v-85h23zM1053 331v85h-23v-49l-36 49h-20v-85h22v48l36 -48h21zM705 375v22h14q15 0 15 -11
t-14 -11h-15zM941 373q0 -23 -20 -23t-20 23q0 24 20 24t20 -24zM1083 397q-12 0 -12 -12q0 -13 12 -13q13 0 13 13q0 12 -13 12zM1083 355q-12 0 -12 -12q0 -13 12 -13q13 0 13 13q0 12 -13 12zM528 232q0 44 -43 44q-42 0 -42 -44t42 -44q43 0 43 44zM766 249l7 17
q-23 10 -38 10q-13 0 -20.5 -7.5t-7.5 -18.5q0 -20 24 -27q18 -4 18 -10t-7 -6q-13 0 -30 10l-9 -17q16 -12 40 -12q31 0 31 26q0 19 -23 27q-21 7 -21 11q0 5 8 5q7 0 28 -8zM898 197l-8 18q-15 -7 -27 -7q-20 0 -20 24q0 23 21 23q11 0 24 -4l6 16q-14 9 -31 9
q-43 0 -43 -44t42 -44q16 0 36 9zM987 232q0 44 -43 44q-20 0 -31.5 -11.5t-11.5 -32.5q0 -44 43 -44t43 44zM254 189h24l-4 85h-25l-20 -46q-1 -2 -1 -6l-3 6l-19 46h-26l-3 -85h24v49l20 -49h13l20 49v-49zM338 216l31 58h-24l-14 -27q-1 -1 -2.5 -5t-2.5 -5q-1 1 -2.5 5
t-2.5 5l-14 27h-24l32 -58v-27h23v27zM398 237v16h38v21h-61v-85h23v28h33v20h-33zM617 189v85h-23v-48l-36 48h-20v-85h23v48l36 -48h20zM700 253v21h-75v-21h27v-64h22v64h26zM1073 189h25l-4 85h-26l-19 -46q0 -1 -0.5 -3t-1.5 -3q0 2 -2 6l-20 46h-25l-3 -85h23v49
l20 -49h13l20 49v-49zM505 232q0 -24 -20 -24t-20 24q0 23 20 23t20 -23zM964 232q0 -24 -20 -24t-20 24q0 23 20 23t20 -23zM800 213q-12 0 -12 -12q0 -13 12 -13q13 0 13 13q0 12 -13 12z" />
    <glyph glyph-name="uacute" unicode="&#xfa;" 
d="M1221 525h-1151v-451h1151v451zM108 487h1075v-375h-1075v375zM826 391l7 16q-20 10 -39 10q-13 0 -20.5 -7t-7.5 -18q0 -20 24 -27q19 -4 19 -10t-8 -6q-11 0 -30 10l-8 -17q17 -12 40 -12q31 0 31 26q0 19 -23 26q-22 7 -22 11q0 6 8 6t29 -8zM964 373q0 44 -43 44
t-43 -44q0 -43 43 -43t43 43zM208 378v17h38v21h-61v-85h23v27h33v20h-33zM334 416h-23v-44q0 -22 -17 -22q-15 0 -15 22v44h-23v-44q0 -42 38 -42q40 0 40 42v44zM407 331v21h-38v64h-22v-85h60zM478 331v21h-38v64h-22v-85h60zM569 331l32 85h-24l-18 -54l-3 -8q-2 6 -2 8
l-18 54h-25l33 -85h25zM672 331v21h-41v11h33v19h-33v13h39v21h-62v-85h64zM683 416v-85h22v26h11q8 0 17 -26h26q-9 28 -19 34q15 3 15 22q0 29 -37 29h-35zM868 331v85h-23v-85h23zM1053 331v85h-23v-49l-36 49h-20v-85h22v48l36 -48h21zM705 375v22h14q15 0 15 -11
t-14 -11h-15zM941 373q0 -23 -20 -23t-20 23q0 24 20 24t20 -24zM1083 397q-12 0 -12 -12q0 -13 12 -13q13 0 13 13q0 12 -13 12zM1083 355q-12 0 -12 -12q0 -13 12 -13q13 0 13 13q0 12 -13 12zM528 232q0 44 -43 44q-42 0 -42 -44t42 -44q43 0 43 44zM766 249l7 17
q-23 10 -38 10q-13 0 -20.5 -7.5t-7.5 -18.5q0 -20 24 -27q18 -4 18 -10t-7 -6q-13 0 -30 10l-9 -17q16 -12 40 -12q31 0 31 26q0 19 -23 27q-21 7 -21 11q0 5 8 5q7 0 28 -8zM898 197l-8 18q-15 -7 -27 -7q-20 0 -20 24q0 23 21 23q11 0 24 -4l6 16q-14 9 -31 9
q-43 0 -43 -44t42 -44q16 0 36 9zM987 232q0 44 -43 44q-20 0 -31.5 -11.5t-11.5 -32.5q0 -44 43 -44t43 44zM254 189h24l-4 85h-25l-20 -46q-1 -2 -1 -6l-3 6l-19 46h-26l-3 -85h24v49l20 -49h13l20 49v-49zM338 216l31 58h-24l-14 -27q-1 -1 -2.5 -5t-2.5 -5q-1 1 -2.5 5
t-2.5 5l-14 27h-24l32 -58v-27h23v27zM398 237v16h38v21h-61v-85h23v28h33v20h-33zM617 189v85h-23v-48l-36 48h-20v-85h23v48l36 -48h20zM700 253v21h-75v-21h27v-64h22v64h26zM1073 189h25l-4 85h-26l-19 -46q0 -1 -0.5 -3t-1.5 -3q0 2 -2 6l-20 46h-25l-3 -85h23v49
l20 -49h13l20 49v-49zM505 232q0 -24 -20 -24t-20 24q0 23 20 23t20 -23zM964 232q0 -24 -20 -24t-20 24q0 23 20 23t20 -23zM800 213q-12 0 -12 -12q0 -13 12 -13q13 0 13 13q0 12 -13 12z" />
    <glyph glyph-name="ucircumflex" unicode="&#xfb;" 
d="M1221 525h-1151v-451h1151v451zM108 487h1075v-375h-1075v375zM826 391l7 16q-20 10 -39 10q-13 0 -20.5 -7t-7.5 -18q0 -20 24 -27q19 -4 19 -10t-8 -6q-11 0 -30 10l-8 -17q17 -12 40 -12q31 0 31 26q0 19 -23 26q-22 7 -22 11q0 6 8 6t29 -8zM964 373q0 44 -43 44
t-43 -44q0 -43 43 -43t43 43zM208 378v17h38v21h-61v-85h23v27h33v20h-33zM334 416h-23v-44q0 -22 -17 -22q-15 0 -15 22v44h-23v-44q0 -42 38 -42q40 0 40 42v44zM407 331v21h-38v64h-22v-85h60zM478 331v21h-38v64h-22v-85h60zM569 331l32 85h-24l-18 -54l-3 -8q-2 6 -2 8
l-18 54h-25l33 -85h25zM672 331v21h-41v11h33v19h-33v13h39v21h-62v-85h64zM683 416v-85h22v26h11q8 0 17 -26h26q-9 28 -19 34q15 3 15 22q0 29 -37 29h-35zM868 331v85h-23v-85h23zM1053 331v85h-23v-49l-36 49h-20v-85h22v48l36 -48h21zM705 375v22h14q15 0 15 -11
t-14 -11h-15zM941 373q0 -23 -20 -23t-20 23q0 24 20 24t20 -24zM1083 397q-12 0 -12 -12q0 -13 12 -13q13 0 13 13q0 12 -13 12zM1083 355q-12 0 -12 -12q0 -13 12 -13q13 0 13 13q0 12 -13 12zM528 232q0 44 -43 44q-42 0 -42 -44t42 -44q43 0 43 44zM766 249l7 17
q-23 10 -38 10q-13 0 -20.5 -7.5t-7.5 -18.5q0 -20 24 -27q18 -4 18 -10t-7 -6q-13 0 -30 10l-9 -17q16 -12 40 -12q31 0 31 26q0 19 -23 27q-21 7 -21 11q0 5 8 5q7 0 28 -8zM898 197l-8 18q-15 -7 -27 -7q-20 0 -20 24q0 23 21 23q11 0 24 -4l6 16q-14 9 -31 9
q-43 0 -43 -44t42 -44q16 0 36 9zM987 232q0 44 -43 44q-20 0 -31.5 -11.5t-11.5 -32.5q0 -44 43 -44t43 44zM254 189h24l-4 85h-25l-20 -46q-1 -2 -1 -6l-3 6l-19 46h-26l-3 -85h24v49l20 -49h13l20 49v-49zM338 216l31 58h-24l-14 -27q-1 -1 -2.5 -5t-2.5 -5q-1 1 -2.5 5
t-2.5 5l-14 27h-24l32 -58v-27h23v27zM398 237v16h38v21h-61v-85h23v28h33v20h-33zM617 189v85h-23v-48l-36 48h-20v-85h23v48l36 -48h20zM700 253v21h-75v-21h27v-64h22v64h26zM1073 189h25l-4 85h-26l-19 -46q0 -1 -0.5 -3t-1.5 -3q0 2 -2 6l-20 46h-25l-3 -85h23v49
l20 -49h13l20 49v-49zM505 232q0 -24 -20 -24t-20 24q0 23 20 23t20 -23zM964 232q0 -24 -20 -24t-20 24q0 23 20 23t20 -23zM800 213q-12 0 -12 -12q0 -13 12 -13q13 0 13 13q0 12 -13 12z" />
    <glyph glyph-name="udieresis" unicode="&#xfc;" 
d="M1221 525h-1151v-451h1151v451zM108 487h1075v-375h-1075v375zM826 391l7 16q-20 10 -39 10q-13 0 -20.5 -7t-7.5 -18q0 -20 24 -27q19 -4 19 -10t-8 -6q-11 0 -30 10l-8 -17q17 -12 40 -12q31 0 31 26q0 19 -23 26q-22 7 -22 11q0 6 8 6t29 -8zM964 373q0 44 -43 44
t-43 -44q0 -43 43 -43t43 43zM208 378v17h38v21h-61v-85h23v27h33v20h-33zM334 416h-23v-44q0 -22 -17 -22q-15 0 -15 22v44h-23v-44q0 -42 38 -42q40 0 40 42v44zM407 331v21h-38v64h-22v-85h60zM478 331v21h-38v64h-22v-85h60zM569 331l32 85h-24l-18 -54l-3 -8q-2 6 -2 8
l-18 54h-25l33 -85h25zM672 331v21h-41v11h33v19h-33v13h39v21h-62v-85h64zM683 416v-85h22v26h11q8 0 17 -26h26q-9 28 -19 34q15 3 15 22q0 29 -37 29h-35zM868 331v85h-23v-85h23zM1053 331v85h-23v-49l-36 49h-20v-85h22v48l36 -48h21zM705 375v22h14q15 0 15 -11
t-14 -11h-15zM941 373q0 -23 -20 -23t-20 23q0 24 20 24t20 -24zM1083 397q-12 0 -12 -12q0 -13 12 -13q13 0 13 13q0 12 -13 12zM1083 355q-12 0 -12 -12q0 -13 12 -13q13 0 13 13q0 12 -13 12zM528 232q0 44 -43 44q-42 0 -42 -44t42 -44q43 0 43 44zM766 249l7 17
q-23 10 -38 10q-13 0 -20.5 -7.5t-7.5 -18.5q0 -20 24 -27q18 -4 18 -10t-7 -6q-13 0 -30 10l-9 -17q16 -12 40 -12q31 0 31 26q0 19 -23 27q-21 7 -21 11q0 5 8 5q7 0 28 -8zM898 197l-8 18q-15 -7 -27 -7q-20 0 -20 24q0 23 21 23q11 0 24 -4l6 16q-14 9 -31 9
q-43 0 -43 -44t42 -44q16 0 36 9zM987 232q0 44 -43 44q-20 0 -31.5 -11.5t-11.5 -32.5q0 -44 43 -44t43 44zM254 189h24l-4 85h-25l-20 -46q-1 -2 -1 -6l-3 6l-19 46h-26l-3 -85h24v49l20 -49h13l20 49v-49zM338 216l31 58h-24l-14 -27q-1 -1 -2.5 -5t-2.5 -5q-1 1 -2.5 5
t-2.5 5l-14 27h-24l32 -58v-27h23v27zM398 237v16h38v21h-61v-85h23v28h33v20h-33zM617 189v85h-23v-48l-36 48h-20v-85h23v48l36 -48h20zM700 253v21h-75v-21h27v-64h22v64h26zM1073 189h25l-4 85h-26l-19 -46q0 -1 -0.5 -3t-1.5 -3q0 2 -2 6l-20 46h-25l-3 -85h23v49
l20 -49h13l20 49v-49zM505 232q0 -24 -20 -24t-20 24q0 23 20 23t20 -23zM964 232q0 -24 -20 -24t-20 24q0 23 20 23t20 -23zM800 213q-12 0 -12 -12q0 -13 12 -13q13 0 13 13q0 12 -13 12z" />
    <glyph glyph-name="yacute" unicode="&#xfd;" 
d="M1221 525h-1151v-451h1151v451zM108 487h1075v-375h-1075v375zM826 391l7 16q-20 10 -39 10q-13 0 -20.5 -7t-7.5 -18q0 -20 24 -27q19 -4 19 -10t-8 -6q-11 0 -30 10l-8 -17q17 -12 40 -12q31 0 31 26q0 19 -23 26q-22 7 -22 11q0 6 8 6t29 -8zM964 373q0 44 -43 44
t-43 -44q0 -43 43 -43t43 43zM208 378v17h38v21h-61v-85h23v27h33v20h-33zM334 416h-23v-44q0 -22 -17 -22q-15 0 -15 22v44h-23v-44q0 -42 38 -42q40 0 40 42v44zM407 331v21h-38v64h-22v-85h60zM478 331v21h-38v64h-22v-85h60zM569 331l32 85h-24l-18 -54l-3 -8q-2 6 -2 8
l-18 54h-25l33 -85h25zM672 331v21h-41v11h33v19h-33v13h39v21h-62v-85h64zM683 416v-85h22v26h11q8 0 17 -26h26q-9 28 -19 34q15 3 15 22q0 29 -37 29h-35zM868 331v85h-23v-85h23zM1053 331v85h-23v-49l-36 49h-20v-85h22v48l36 -48h21zM705 375v22h14q15 0 15 -11
t-14 -11h-15zM941 373q0 -23 -20 -23t-20 23q0 24 20 24t20 -24zM1083 397q-12 0 -12 -12q0 -13 12 -13q13 0 13 13q0 12 -13 12zM1083 355q-12 0 -12 -12q0 -13 12 -13q13 0 13 13q0 12 -13 12zM528 232q0 44 -43 44q-42 0 -42 -44t42 -44q43 0 43 44zM766 249l7 17
q-23 10 -38 10q-13 0 -20.5 -7.5t-7.5 -18.5q0 -20 24 -27q18 -4 18 -10t-7 -6q-13 0 -30 10l-9 -17q16 -12 40 -12q31 0 31 26q0 19 -23 27q-21 7 -21 11q0 5 8 5q7 0 28 -8zM898 197l-8 18q-15 -7 -27 -7q-20 0 -20 24q0 23 21 23q11 0 24 -4l6 16q-14 9 -31 9
q-43 0 -43 -44t42 -44q16 0 36 9zM987 232q0 44 -43 44q-20 0 -31.5 -11.5t-11.5 -32.5q0 -44 43 -44t43 44zM254 189h24l-4 85h-25l-20 -46q-1 -2 -1 -6l-3 6l-19 46h-26l-3 -85h24v49l20 -49h13l20 49v-49zM338 216l31 58h-24l-14 -27q-1 -1 -2.5 -5t-2.5 -5q-1 1 -2.5 5
t-2.5 5l-14 27h-24l32 -58v-27h23v27zM398 237v16h38v21h-61v-85h23v28h33v20h-33zM617 189v85h-23v-48l-36 48h-20v-85h23v48l36 -48h20zM700 253v21h-75v-21h27v-64h22v64h26zM1073 189h25l-4 85h-26l-19 -46q0 -1 -0.5 -3t-1.5 -3q0 2 -2 6l-20 46h-25l-3 -85h23v49
l20 -49h13l20 49v-49zM505 232q0 -24 -20 -24t-20 24q0 23 20 23t20 -23zM964 232q0 -24 -20 -24t-20 24q0 23 20 23t20 -23zM800 213q-12 0 -12 -12q0 -13 12 -13q13 0 13 13q0 12 -13 12z" />
    <glyph glyph-name="thorn" unicode="&#xfe;" 
d="M1221 525h-1151v-451h1151v451zM108 487h1075v-375h-1075v375zM826 391l7 16q-20 10 -39 10q-13 0 -20.5 -7t-7.5 -18q0 -20 24 -27q19 -4 19 -10t-8 -6q-11 0 -30 10l-8 -17q17 -12 40 -12q31 0 31 26q0 19 -23 26q-22 7 -22 11q0 6 8 6t29 -8zM964 373q0 44 -43 44
t-43 -44q0 -43 43 -43t43 43zM208 378v17h38v21h-61v-85h23v27h33v20h-33zM334 416h-23v-44q0 -22 -17 -22q-15 0 -15 22v44h-23v-44q0 -42 38 -42q40 0 40 42v44zM407 331v21h-38v64h-22v-85h60zM478 331v21h-38v64h-22v-85h60zM569 331l32 85h-24l-18 -54l-3 -8q-2 6 -2 8
l-18 54h-25l33 -85h25zM672 331v21h-41v11h33v19h-33v13h39v21h-62v-85h64zM683 416v-85h22v26h11q8 0 17 -26h26q-9 28 -19 34q15 3 15 22q0 29 -37 29h-35zM868 331v85h-23v-85h23zM1053 331v85h-23v-49l-36 49h-20v-85h22v48l36 -48h21zM705 375v22h14q15 0 15 -11
t-14 -11h-15zM941 373q0 -23 -20 -23t-20 23q0 24 20 24t20 -24zM1083 397q-12 0 -12 -12q0 -13 12 -13q13 0 13 13q0 12 -13 12zM1083 355q-12 0 -12 -12q0 -13 12 -13q13 0 13 13q0 12 -13 12zM528 232q0 44 -43 44q-42 0 -42 -44t42 -44q43 0 43 44zM766 249l7 17
q-23 10 -38 10q-13 0 -20.5 -7.5t-7.5 -18.5q0 -20 24 -27q18 -4 18 -10t-7 -6q-13 0 -30 10l-9 -17q16 -12 40 -12q31 0 31 26q0 19 -23 27q-21 7 -21 11q0 5 8 5q7 0 28 -8zM898 197l-8 18q-15 -7 -27 -7q-20 0 -20 24q0 23 21 23q11 0 24 -4l6 16q-14 9 -31 9
q-43 0 -43 -44t42 -44q16 0 36 9zM987 232q0 44 -43 44q-20 0 -31.5 -11.5t-11.5 -32.5q0 -44 43 -44t43 44zM254 189h24l-4 85h-25l-20 -46q-1 -2 -1 -6l-3 6l-19 46h-26l-3 -85h24v49l20 -49h13l20 49v-49zM338 216l31 58h-24l-14 -27q-1 -1 -2.5 -5t-2.5 -5q-1 1 -2.5 5
t-2.5 5l-14 27h-24l32 -58v-27h23v27zM398 237v16h38v21h-61v-85h23v28h33v20h-33zM617 189v85h-23v-48l-36 48h-20v-85h23v48l36 -48h20zM700 253v21h-75v-21h27v-64h22v64h26zM1073 189h25l-4 85h-26l-19 -46q0 -1 -0.5 -3t-1.5 -3q0 2 -2 6l-20 46h-25l-3 -85h23v49
l20 -49h13l20 49v-49zM505 232q0 -24 -20 -24t-20 24q0 23 20 23t20 -23zM964 232q0 -24 -20 -24t-20 24q0 23 20 23t20 -23zM800 213q-12 0 -12 -12q0 -13 12 -13q13 0 13 13q0 12 -13 12z" />
    <glyph glyph-name="ydieresis" unicode="&#xff;" 
d="M1221 525h-1151v-451h1151v451zM108 487h1075v-375h-1075v375zM826 391l7 16q-20 10 -39 10q-13 0 -20.5 -7t-7.5 -18q0 -20 24 -27q19 -4 19 -10t-8 -6q-11 0 -30 10l-8 -17q17 -12 40 -12q31 0 31 26q0 19 -23 26q-22 7 -22 11q0 6 8 6t29 -8zM964 373q0 44 -43 44
t-43 -44q0 -43 43 -43t43 43zM208 378v17h38v21h-61v-85h23v27h33v20h-33zM334 416h-23v-44q0 -22 -17 -22q-15 0 -15 22v44h-23v-44q0 -42 38 -42q40 0 40 42v44zM407 331v21h-38v64h-22v-85h60zM478 331v21h-38v64h-22v-85h60zM569 331l32 85h-24l-18 -54l-3 -8q-2 6 -2 8
l-18 54h-25l33 -85h25zM672 331v21h-41v11h33v19h-33v13h39v21h-62v-85h64zM683 416v-85h22v26h11q8 0 17 -26h26q-9 28 -19 34q15 3 15 22q0 29 -37 29h-35zM868 331v85h-23v-85h23zM1053 331v85h-23v-49l-36 49h-20v-85h22v48l36 -48h21zM705 375v22h14q15 0 15 -11
t-14 -11h-15zM941 373q0 -23 -20 -23t-20 23q0 24 20 24t20 -24zM1083 397q-12 0 -12 -12q0 -13 12 -13q13 0 13 13q0 12 -13 12zM1083 355q-12 0 -12 -12q0 -13 12 -13q13 0 13 13q0 12 -13 12zM528 232q0 44 -43 44q-42 0 -42 -44t42 -44q43 0 43 44zM766 249l7 17
q-23 10 -38 10q-13 0 -20.5 -7.5t-7.5 -18.5q0 -20 24 -27q18 -4 18 -10t-7 -6q-13 0 -30 10l-9 -17q16 -12 40 -12q31 0 31 26q0 19 -23 27q-21 7 -21 11q0 5 8 5q7 0 28 -8zM898 197l-8 18q-15 -7 -27 -7q-20 0 -20 24q0 23 21 23q11 0 24 -4l6 16q-14 9 -31 9
q-43 0 -43 -44t42 -44q16 0 36 9zM987 232q0 44 -43 44q-20 0 -31.5 -11.5t-11.5 -32.5q0 -44 43 -44t43 44zM254 189h24l-4 85h-25l-20 -46q-1 -2 -1 -6l-3 6l-19 46h-26l-3 -85h24v49l20 -49h13l20 49v-49zM338 216l31 58h-24l-14 -27q-1 -1 -2.5 -5t-2.5 -5q-1 1 -2.5 5
t-2.5 5l-14 27h-24l32 -58v-27h23v27zM398 237v16h38v21h-61v-85h23v28h33v20h-33zM617 189v85h-23v-48l-36 48h-20v-85h23v48l36 -48h20zM700 253v21h-75v-21h27v-64h22v64h26zM1073 189h25l-4 85h-26l-19 -46q0 -1 -0.5 -3t-1.5 -3q0 2 -2 6l-20 46h-25l-3 -85h23v49
l20 -49h13l20 49v-49zM505 232q0 -24 -20 -24t-20 24q0 23 20 23t20 -23zM964 232q0 -24 -20 -24t-20 24q0 23 20 23t20 -23zM800 213q-12 0 -12 -12q0 -13 12 -13q13 0 13 13q0 12 -13 12z" />
    <glyph glyph-name="Amacron" unicode="&#x100;" 
d="M1221 525h-1151v-451h1151v451zM108 487h1075v-375h-1075v375zM826 391l7 16q-20 10 -39 10q-13 0 -20.5 -7t-7.5 -18q0 -20 24 -27q19 -4 19 -10t-8 -6q-11 0 -30 10l-8 -17q17 -12 40 -12q31 0 31 26q0 19 -23 26q-22 7 -22 11q0 6 8 6t29 -8zM964 373q0 44 -43 44
t-43 -44q0 -43 43 -43t43 43zM208 378v17h38v21h-61v-85h23v27h33v20h-33zM334 416h-23v-44q0 -22 -17 -22q-15 0 -15 22v44h-23v-44q0 -42 38 -42q40 0 40 42v44zM407 331v21h-38v64h-22v-85h60zM478 331v21h-38v64h-22v-85h60zM569 331l32 85h-24l-18 -54l-3 -8q-2 6 -2 8
l-18 54h-25l33 -85h25zM672 331v21h-41v11h33v19h-33v13h39v21h-62v-85h64zM683 416v-85h22v26h11q8 0 17 -26h26q-9 28 -19 34q15 3 15 22q0 29 -37 29h-35zM868 331v85h-23v-85h23zM1053 331v85h-23v-49l-36 49h-20v-85h22v48l36 -48h21zM705 375v22h14q15 0 15 -11
t-14 -11h-15zM941 373q0 -23 -20 -23t-20 23q0 24 20 24t20 -24zM1083 397q-12 0 -12 -12q0 -13 12 -13q13 0 13 13q0 12 -13 12zM1083 355q-12 0 -12 -12q0 -13 12 -13q13 0 13 13q0 12 -13 12zM528 232q0 44 -43 44q-42 0 -42 -44t42 -44q43 0 43 44zM766 249l7 17
q-23 10 -38 10q-13 0 -20.5 -7.5t-7.5 -18.5q0 -20 24 -27q18 -4 18 -10t-7 -6q-13 0 -30 10l-9 -17q16 -12 40 -12q31 0 31 26q0 19 -23 27q-21 7 -21 11q0 5 8 5q7 0 28 -8zM898 197l-8 18q-15 -7 -27 -7q-20 0 -20 24q0 23 21 23q11 0 24 -4l6 16q-14 9 -31 9
q-43 0 -43 -44t42 -44q16 0 36 9zM987 232q0 44 -43 44q-20 0 -31.5 -11.5t-11.5 -32.5q0 -44 43 -44t43 44zM254 189h24l-4 85h-25l-20 -46q-1 -2 -1 -6l-3 6l-19 46h-26l-3 -85h24v49l20 -49h13l20 49v-49zM338 216l31 58h-24l-14 -27q-1 -1 -2.5 -5t-2.5 -5q-1 1 -2.5 5
t-2.5 5l-14 27h-24l32 -58v-27h23v27zM398 237v16h38v21h-61v-85h23v28h33v20h-33zM617 189v85h-23v-48l-36 48h-20v-85h23v48l36 -48h20zM700 253v21h-75v-21h27v-64h22v64h26zM1073 189h25l-4 85h-26l-19 -46q0 -1 -0.5 -3t-1.5 -3q0 2 -2 6l-20 46h-25l-3 -85h23v49
l20 -49h13l20 49v-49zM505 232q0 -24 -20 -24t-20 24q0 23 20 23t20 -23zM964 232q0 -24 -20 -24t-20 24q0 23 20 23t20 -23zM800 213q-12 0 -12 -12q0 -13 12 -13q13 0 13 13q0 12 -13 12z" />
    </font>
</defs>
</svg>
