<?xml version="1.0" standalone="no"?>
<!DOCTYPE svg PUBLIC "-//W3C//DTD SVG 1.1//EN" "http://www.w3.org/Graphics/SVG/1.1/DTD/svg11.dtd" >
<svg>
<metadata>
Created by FontForge 20090622 at Thu Jun 16 15:10:39 2016
 By deploy user
Copyright &#194;&#169; 2013 by Rene Bieder. All rights reserved.
</metadata>
<defs>
<font id="Gentona-ExtraBoldItalic" horiz-adv-x="498" >
  <font-face 
    font-family="Gentona ExtraBold Italic"
    font-weight="800"
    font-style="italic"
    font-stretch="normal"
    units-per-em="1000"
    panose-1="0 0 9 0 0 0 0 0 0 0"
    ascent="800"
    descent="-200"
    x-height="487"
    cap-height="610"
    bbox="-151 -242 1345 895"
    underline-thickness="50"
    underline-position="-50"
    slope="-8"
    unicode-range="U+0020-U+FB02"
  />
<missing-glyph horiz-adv-x="763" 
d="M718 610l-86 -610h-565l86 610h565zM672 570h-485l-74 -530h485zM307 413l-7 29q70 26 121 26q46 0 71.5 -24.5t19.5 -65.5t-40 -67t-83 -34l-6 -41h-33l5 66q110 12 119 76q4 26 -12 41.5t-46 15.5q-45 0 -109 -22zM358 179q22 0 19 -22q-3 -24 -25 -24q-23 0 -20 24
q3 22 26 22z" />
    <glyph glyph-name="fi" unicode="fi" horiz-adv-x="656" 
d="M576 721q45 0 73 -27.5t22 -75.5q-6 -40 -36.5 -61t-70.5 -21q-45 0 -72.5 27.5t-21.5 75.5q6 40 36 61t70 21zM637 487l-68 -487h-181l47 337h-167l-47 -337h-181l48 337h-66l20 150h67l1 7q14 102 67 147.5t157 45.5q41 0 111 -14l-24 -122l-61 1q-61 0 -70 -62l-1 -3
h348z" />
    <glyph glyph-name="fl" unicode="fl" horiz-adv-x="644" 
d="M663 677l-95 -677h-181l77 550q-40 2 -105 2q-61 0 -70 -62v-4h114l-21 -149h-114l-47 -337h-181l48 337h-67l21 149h67l1 8q14 101 67 147t156 46q48 0 147 -24l2 15z" />
    <glyph glyph-name="f_f" unicode="ff" horiz-adv-x="756" 
d="M814 674l-23 -123q-21 1 -59 1q-63 0 -72 -62v-3h116l-21 -150h-116l-47 -337h-181l47 337h-192l-47 -337h-181l48 337h-64l20 150h65l1 7q14 102 68 147.5t158 45.5q50 0 107 -13l-23 -123q-21 1 -58 1q-63 0 -72 -62l-1 -3h192l2 7q14 102 67.5 147.5t157.5 45.5
q51 0 108 -13z" />
    <glyph glyph-name="f_f_i" unicode="ffi" horiz-adv-x="1019" 
d="M939 721q45 0 73 -27.5t22 -75.5q-6 -40 -36.5 -61t-70.5 -21q-45 0 -72.5 27.5t-21.5 75.5q6 40 36 61t70 21zM1001 487l-68 -487h-181l47 337h-170l-47 -337h-181l47 337h-182l-47 -337h-181l48 337h-64l20 150h65l1 7q14 102 68 147.5t158 45.5q50 0 107 -13l-23 -123
q-21 1 -58 1q-63 0 -72 -62l-1 -3h182l2 7q14 102 67 147.5t157 45.5q40 0 102 -14l-22 -122q-23 1 -54 1q-62 0 -71 -62v-3h351z" />
    <glyph glyph-name="f_f_l" unicode="ffl" horiz-adv-x="1010" 
d="M1028 677l-95 -677h-181l78 550q-42 2 -108 2q-62 0 -71 -62v-4h114l-21 -149h-114l-47 -337h-181l48 337h-184l-47 -337h-181l48 337h-65l21 149h65l1 8q14 101 67.5 147t157.5 46q43 0 108 -13l-23 -123q-11 0 -30.5 0.5t-28.5 0.5q-63 0 -72 -63v-3h184l1 8
q14 101 67 147t156 46q51 0 150 -25l3 16z" />
    <glyph glyph-name=".notdef" horiz-adv-x="763" 
d="M718 610l-86 -610h-565l86 610h565zM672 570h-485l-74 -530h485zM307 413l-7 29q70 26 121 26q46 0 71.5 -24.5t19.5 -65.5t-40 -67t-83 -34l-6 -41h-33l5 66q110 12 119 76q4 26 -12 41.5t-46 15.5q-45 0 -109 -22zM358 179q22 0 19 -22q-3 -24 -25 -24q-23 0 -20 24
q3 22 26 22z" />
    <glyph glyph-name=".null" horiz-adv-x="0" 
 />
    <glyph glyph-name="nonmarkingreturn" horiz-adv-x="333" 
 />
    <glyph glyph-name="space" unicode=" " horiz-adv-x="195" 
 />
    <glyph glyph-name="exclam" unicode="!" horiz-adv-x="276" 
d="M207 224h-142l27 386h195zM120 162q40 0 61.5 -27.5t16.5 -67.5q-5 -32 -29 -53.5t-59 -21.5q-40 0 -62 27.5t-16 67.5q5 32 29 53.5t59 21.5z" />
    <glyph glyph-name="quotedbl" unicode="&#x22;" horiz-adv-x="444" 
d="M110 643h164l-77 -256h-123zM295 643h164l-76 -256h-124z" />
    <glyph glyph-name="numbersign" unicode="#" horiz-adv-x="714" 
d="M564 323l-22 -96h98l-32 -133h-96l-22 -94h-143l22 94h-103l-22 -94h-143l21 94h-96l32 133h95l21 96h-94l32 134h93l22 93h143l-21 -93h103l21 93h143l-21 -93h99l-32 -134h-98zM421 323h-103l-22 -96h103z" />
    <glyph glyph-name="dollar" unicode="$" horiz-adv-x="553" 
d="M535 508l-51 -124q-129 43 -185 43q-52 0 -57 -31q-2 -15 19 -25.5t101 -36.5q86 -27 118.5 -67t22.5 -113q-10 -69 -64.5 -111.5t-144.5 -49.5l-8 -54h-117l8 61q-90 16 -178 68l69 126q117 -66 195 -66q62 0 65 32q1 15 -22.5 27.5t-94.5 36.5q-89 29 -120.5 72.5
t-21.5 111.5q9 63 58 103t129 47l8 55h117l-9 -60q75 -12 163 -45z" />
    <glyph glyph-name="percent" unicode="%" horiz-adv-x="887" 
d="M248 621q88 0 126.5 -51.5t25.5 -148.5q-27 -183 -196 -183q-88 0 -126.5 51t-24.5 146q25 186 195 186zM609 610h104l-425 -610h-104zM211 343q34 0 50 22.5t22 69.5q5 43 -4 62t-37 19q-34 0 -51 -23.5t-22 -71.5q-6 -41 3.5 -59.5t38.5 -18.5zM701 374q178 0 152 -200
q-14 -92 -61.5 -137.5t-133.5 -45.5q-89 0 -127.5 51t-24.5 147q25 185 195 185zM664 96q34 0 50 23t22 70q5 43 -3.5 62t-37.5 19q-34 0 -50.5 -23.5t-22.5 -72.5q-5 -41 4 -59.5t38 -18.5z" />
    <glyph glyph-name="ampersand" unicode="&#x26;" horiz-adv-x="678" 
d="M549 1l-73 63q-47 -41 -93 -57t-107 -16q-136 0 -200 49t-51 144q7 49 38.5 84.5t100.5 68.5q-46 57 -35 129q10 75 70 114.5t162 39.5q85 0 132 -44t37 -115q-14 -95 -130 -144l68 -52l54 70l111 -82q-32 -46 -54 -74l69 -53zM355 504q-26 0 -44.5 -15t-22.5 -39
q-4 -30 19 -56q81 26 87 69q6 41 -39 41zM368 156l-116 100q-44 -30 -48 -63q-4 -63 82 -63q46 0 82 26z" />
    <glyph glyph-name="quotesingle" unicode="'" horiz-adv-x="269" 
d="M115 643h164l-77 -256h-123z" />
    <glyph glyph-name="parenleft" unicode="(" horiz-adv-x="352" 
d="M274 665l108 -68q-140 -187 -164 -363q-25 -176 60 -359l-116 -52q-138 189 -105 425q34 234 217 417z" />
    <glyph glyph-name="parenright" unicode=")" horiz-adv-x="343" 
d="M72 -177l-109 68q139 187 165 364q24 177 -60 358l116 52q137 -190 104 -425q-33 -234 -216 -417z" />
    <glyph glyph-name="asterisk" unicode="*" horiz-adv-x="459" 
d="M333 372l38 -112l-78 -38l-64 111l-113 -63l-49 71l90 79l-88 73l47 72l100 -54l39 105l91 -24l-19 -111l115 -3l5 -86z" />
    <glyph glyph-name="plus" unicode="+" horiz-adv-x="514" 
d="M456 179h-144l-20 -144h-129l20 144h-144l18 130h144l21 144h129l-21 -144h145z" />
    <glyph glyph-name="comma" unicode="," horiz-adv-x="291" 
d="M37 -139l-42 61q60 43 82 78q-61 26 -53 98q5 42 35.5 70t74.5 28q47 0 72 -32.5t20 -82.5v-2q-8 -57 -59.5 -117t-129.5 -101z" />
    <glyph glyph-name="hyphen" unicode="-" horiz-adv-x="414" 
d="M70 355h305l-23 -160h-304z" />
    <glyph glyph-name="period" unicode="." horiz-adv-x="288" 
d="M22 99q5 42 35.5 70t74.5 28q46 0 72 -30.5t21 -76.5q-5 -42 -35.5 -70t-74.5 -28q-47 0 -72.5 30.5t-20.5 76.5z" />
    <glyph glyph-name="slash" unicode="/" horiz-adv-x="439" 
d="M326 653h156l-393 -852h-153z" />
    <glyph glyph-name="zero" unicode="0" horiz-adv-x="629" 
d="M362 620q144 0 205.5 -84t39.5 -240q-43 -305 -323 -305q-144 0 -205 83t-40 237q45 309 323 309zM297 158q56 0 84 37.5t39 115.5q10 78 -3.5 110t-67.5 32q-56 0 -83.5 -38t-39.5 -119q-10 -75 4 -106.5t67 -31.5z" />
    <glyph glyph-name="one" unicode="1" horiz-adv-x="514" 
d="M474 156l-21 -156h-454l21 156h147l35 249q-47 -10 -123 -23l-27 121q91 37 212 107h151l-64 -454h123z" />
    <glyph glyph-name="two" unicode="2" horiz-adv-x="544" 
d="M88 412l-39 133q96 40 159.5 57.5t125.5 17.5q103 0 158 -60.5t41 -157.5q-10 -70 -73.5 -125.5t-190.5 -126.5q56 6 108 6h124l-21 -156h-486l17 132l59.5 42.5l56.5 40l49.5 36t46 34.5l38 30.5t33.5 29t23.5 24.5t17.5 23.5t7 20.5q4 27 -10.5 39.5t-43.5 12.5
q-65 0 -200 -53z" />
    <glyph glyph-name="three" unicode="3" horiz-adv-x="568" 
d="M104 436l-29 125q147 58 267 58q99 0 157 -50.5t47 -130.5q-6 -41 -32.5 -73.5t-63.5 -51.5q43 -17 62 -53.5t13 -84.5q-13 -88 -83.5 -136t-183.5 -48q-147 0 -269 69l62 121q103 -46 208 -46q38 0 62.5 15.5t28.5 42.5q4 25 -22.5 35.5t-89.5 10.5h-85l19 136h82
q112 0 120 51q6 50 -68 50q-63 0 -202 -40z" />
    <glyph glyph-name="four" unicode="4" horiz-adv-x="626" 
d="M502 103l-15 -103h-180l15 103h-324l14 131l380 376h181l-51 -360h85l-20 -147h-85zM342 250l24 163q-20 -24 -50 -53l-56 -52q-15 -16 -65 -58h147z" />
    <glyph glyph-name="five" unicode="5" horiz-adv-x="575" 
d="M256 456l-22 -95q59 35 134 35q92 0 136.5 -53t31.5 -144q-14 -100 -90 -154t-181 -54q-154 0 -276 69l64 130q102 -46 192 -46q48 0 80 21t38 57q3 26 -12.5 41t-46.5 15q-48 0 -97 -44l-149 25l70 351h441l-22 -154h-291z" />
    <glyph glyph-name="six" unicode="6" horiz-adv-x="588" 
d="M589 576l-56 -126q-83 21 -142 21q-120 -1 -162 -124q67 46 162 46q86 0 133 -54t35 -138q-14 -98 -85.5 -154t-189.5 -56q-138 0 -202.5 79t-46.5 212q23 160 120.5 249t241.5 89q92 0 192 -44zM294 138q36 0 62.5 24t31.5 62q4 27 -13 42t-53 15q-27 0 -57.5 -14.5
t-52.5 -38.5q2 -90 82 -90z" />
    <glyph glyph-name="seven" unicode="7" horiz-adv-x="511" 
d="M550 610l-20 -145q-181 -233 -270 -465h-218q131 275 282 454h-280l22 156h484z" />
    <glyph glyph-name="eight" unicode="8" horiz-adv-x="580" 
d="M347 620q117 0 173.5 -45.5t45.5 -124.5q-6 -40 -33.5 -68t-84.5 -52q61 -28 87.5 -65.5t18.5 -94.5q-12 -87 -87 -133t-196 -46q-152 0 -214.5 49.5t-49.5 143.5q13 90 132 143q-80 50 -68 130q11 81 82 122t194 41zM337 504q-38 0 -62 -16t-26 -42q-2 -19 13.5 -32.5
t60.5 -31.5q75 28 77 78q0 44 -63 44zM260 268q-67 -32 -75 -84q-4 -28 16.5 -41t61.5 -13q39 0 66.5 17t29.5 46q2 21 -18 35.5t-81 39.5z" />
    <glyph glyph-name="nine" unicode="9" horiz-adv-x="588" 
d="M18 36l56 126q82 -22 142 -22q113 1 150 118q-60 -42 -150 -42q-87 0 -134.5 55t-35.5 139q14 99 86 154.5t191 55.5q136 0 196.5 -78.5t42.5 -212.5q-47 -338 -348 -338q-96 0 -196 45zM312 473q-37 0 -64 -19.5t-32 -51.5q-4 -28 15 -47.5t53 -19.5q55 0 101 41
q2 50 -15.5 73.5t-57.5 23.5z" />
    <glyph glyph-name="colon" unicode=":" horiz-adv-x="289" 
d="M63 390q5 42 35.5 70t74.5 28q46 0 72 -30.5t21 -76.5q-5 -42 -35.5 -70t-74.5 -28q-47 0 -72.5 30.5t-20.5 76.5zM22 99q5 42 35.5 70t74.5 28q46 0 72 -30.5t21 -76.5q-5 -42 -35.5 -70t-74.5 -28q-47 0 -72.5 30.5t-20.5 76.5z" />
    <glyph glyph-name="semicolon" unicode=";" horiz-adv-x="304" 
d="M185 488q47 0 72.5 -30.5t20.5 -76.5q-5 -42 -35.5 -70t-74.5 -28q-46 0 -72 30.5t-21 75.5q5 43 35.5 71t74.5 28zM39 -139l-41 61q60 43 81 78q-28 12 -42 38.5t-10 59.5q5 43 35.5 70.5t74.5 27.5q46 0 71.5 -33t20.5 -82l-1 -2q-7 -57 -58.5 -117t-130.5 -101z" />
    <glyph glyph-name="less" unicode="&#x3c;" horiz-adv-x="420" 
d="M267 280l-42 -26l30 -22l108 -93l-92 -96l-242 217l297 217l69 -98z" />
    <glyph glyph-name="equal" unicode="=" horiz-adv-x="504" 
d="M460 277h-407l15 112h409zM436 103h-407l15 112h408z" />
    <glyph glyph-name="greater" unicode="&#x3e;" horiz-adv-x="420" 
d="M395 260l-297 -217l-70 98l128 98l42 26q-2 2 -12.5 10t-16.5 13l-108 93l92 96z" />
    <glyph glyph-name="question" unicode="?" horiz-adv-x="549" 
d="M98 412l-39 133q96 40 159.5 57.5t125.5 17.5q101 0 157 -57.5t43 -142.5q-19 -142 -230 -183l-5 -40h-145l5 154h22q88 1 122.5 17.5t38.5 44.5q4 27 -10.5 40t-43.5 13q-62 0 -200 -54zM226 161q40 0 61.5 -27.5t16.5 -67.5q-5 -32 -29 -53t-59 -21q-40 0 -62 27.5
t-16 67.5q5 32 29 53t59 21z" />
    <glyph glyph-name="at" unicode="@" horiz-adv-x="876" 
d="M628 -70l18 -63q-121 -59 -279 -59q-179 0 -273.5 110.5t-68.5 290.5q26 185 158.5 298t319.5 113q178 0 272 -105t71 -273q-10 -67 -33.5 -116t-49.5 -74t-59.5 -40t-56 -18t-47.5 -3q-29 0 -48.5 3t-39.5 16.5t-29 37.5q-46 -34 -78 -45.5t-78 -11.5q-159 0 -128 220
q15 106 64 161.5t126 55.5q63 0 121 -48l6 41h156l-39 -276q-6 -47 -2.5 -58t18.5 -11q14 0 28 6t33 22t35 54t25 93q20 137 -53 218.5t-218 81.5q-157 0 -266.5 -96.5t-131.5 -253.5q-21 -149 51 -233t220 -84q121 0 256 46zM478 148l16 122q-31 27 -64 27q-34 0 -53 -21
t-26 -73t4 -71.5t43 -19.5q42 0 80 36z" />
    <glyph glyph-name="A" unicode="A" horiz-adv-x="707" 
d="M453 91h-238l-43 -91h-200l305 610h255l133 -610h-195zM423 250l-27 146q-7 34 -10 63h-1q-8 -25 -28 -67l-67 -142h133z" />
    <glyph glyph-name="B" unicode="B" horiz-adv-x="615" 
d="M101 610h270q110 0 161.5 -43.5t45.5 -123.5q-6 -91 -88 -126q98 -30 89 -136q-5 -98 -75 -139.5t-217 -41.5h-272zM254 371h65q78 0 81 51q2 21 -11 31t-44 10h-79zM222 147h75q90 0 96 59q2 24 -13 35t-49 11h-94z" />
    <glyph glyph-name="C" unicode="C" horiz-adv-x="610" 
d="M528 201l48 -143q-138 -67 -270 -67q-137 0 -208 75.5t-60 213.5q10 157 105 248.5t246 91.5q122 0 231 -57l-69 -137q-101 27 -161 27q-71 0 -114.5 -44.5t-49.5 -124.5q-5 -58 21 -91.5t81 -33.5q82 0 200 42z" />
    <glyph glyph-name="D" unicode="D" horiz-adv-x="659" 
d="M101 610h240q153 0 229.5 -71t67.5 -199q-11 -158 -108.5 -249t-259.5 -91h-255zM224 159h48q166 0 178 173q6 62 -24.5 91t-101.5 29h-59z" />
    <glyph glyph-name="E" unicode="E" horiz-adv-x="559" 
d="M263 450l-10 -74h236l-21 -146h-236l-10 -73h286l-22 -157h-471l86 610h463l-22 -160h-279z" />
    <glyph glyph-name="F" unicode="F" horiz-adv-x="528" 
d="M262 441l-14 -101h231l-23 -161h-231l-25 -179h-185l86 610h455l-23 -169h-271z" />
    <glyph glyph-name="G" unicode="G" horiz-adv-x="675" 
d="M653 354l-38 -285q-163 -78 -310 -78q-138 0 -208.5 78t-58.5 207q10 158 103 251t244 93q142 0 266 -57l-58 -135q-123 30 -203 30q-69 0 -114 -49.5t-50 -127.5q-5 -60 22.5 -93.5t80.5 -33.5q76 0 134 17l7 48h-136l19 135h300z" />
    <glyph glyph-name="H" unicode="H" horiz-adv-x="669" 
d="M671 610l-85 -610h-187l31 221h-198l-30 -221h-187l86 610h186l-31 -219h198l31 219h186z" />
    <glyph glyph-name="I" unicode="I" horiz-adv-x="285" 
d="M287 610l-85 -610h-187l86 610h186z" />
    <glyph glyph-name="J" unicode="J" horiz-adv-x="480" 
d="M483 610l-51 -366q-20 -137 -76 -195t-168 -58q-96 0 -205 57l54 126q70 -20 119 -20q75 0 90 94l50 362h187z" />
    <glyph glyph-name="K" unicode="K" horiz-adv-x="660" 
d="M684 596l-241 -253l169 -328l-3 -15h-202l-98 202l-93 -99l-14 -103h-187l86 610h186l-34 -243l231 243h204z" />
    <glyph glyph-name="L" unicode="L" horiz-adv-x="525" 
d="M488 170l-23 -170h-450l86 610h186l-62 -440h263z" />
    <glyph glyph-name="M" unicode="M" horiz-adv-x="836" 
d="M755 0h-186l34 286l6 30l-169 -316h-109l-81 316l-3 -25l-47 -291h-186l110 610h206l78 -289q10 -37 11 -53q8 19 25 53l163 289h208z" />
    <glyph glyph-name="N" unicode="N" horiz-adv-x="683" 
d="M599 0h-167l-188 309q-1 -10 -3.5 -29t-3.5 -29l-35 -251h-187l86 610h167l189 -309q2 28 6 55l36 254h186z" />
    <glyph glyph-name="O" unicode="O" horiz-adv-x="689" 
d="M393 620q151 0 223.5 -83t50.5 -235q-21 -149 -113 -230t-239 -81q-152 0 -224.5 83.5t-50.5 236.5q21 149 113 229t240 80zM329 159q63 0 102.5 39.5t48.5 112.5q8 70 -19 106t-86 36q-62 0 -100.5 -39t-47.5 -112q-8 -70 18.5 -106.5t83.5 -36.5z" />
    <glyph glyph-name="P" unicode="P" horiz-adv-x="597" 
d="M101 610h251q132 0 193 -57.5t53 -169.5q-7 -122 -81.5 -187.5t-206.5 -65.5h-90l-18 -130h-187zM241 282h73q47 0 74 25.5t30 72.5q2 34 -18 52.5t-64 18.5h-71z" />
    <glyph glyph-name="Q" unicode="Q" horiz-adv-x="689" 
d="M393 620q151 0 223.5 -83t50.5 -235q-21 -149 -113 -230t-239 -81q-152 0 -224.5 83.5t-50.5 236.5q21 149 113 229t240 80zM329 159q63 0 102.5 39.5t48.5 112.5q8 70 -19 106t-86 36q-62 0 -100.5 -39t-47.5 -112q-8 -70 18.5 -106.5t83.5 -36.5zM545 -63l-13 -143
q-185 0 -328 67l36 104q95 -19 150 -23.5t155 -4.5z" />
    <glyph glyph-name="R" unicode="R" horiz-adv-x="621" 
d="M101 610h253q139 0 199.5 -54.5t53.5 -163.5q-9 -149 -125 -209l96 -169l-4 -14h-198l-75 153h-78l-21 -153h-187zM244 301h88q88 0 91 88q2 30 -19 47t-63 18h-76z" />
    <glyph glyph-name="S" unicode="S" horiz-adv-x="620" 
d="M615 568l-59 -137q-140 42 -220 42q-59 0 -62 -31q0 -6 0.5 -10t3 -8t5.5 -6.5t10 -5.5t13.5 -5.5t18.5 -6t23.5 -6.5t30.5 -8.5l36 -10.5q93 -29 128 -70.5t30 -117.5q-5 -85 -81.5 -140.5t-196.5 -55.5q-141 0 -294 83l76 138q135 -67 228 -67q66 0 66 34
q1 17 -23.5 29.5t-107.5 37.5q-101 32 -135 70.5t-29 117.5q5 84 79.5 135t183.5 51q71 0 130.5 -11t145.5 -41z" />
    <glyph glyph-name="T" unicode="T" horiz-adv-x="586" 
d="M595 441h-181l-62 -441h-186l61 441h-180l24 169h548z" />
    <glyph glyph-name="U" unicode="U" horiz-adv-x="663" 
d="M668 610l-45 -314q-22 -156 -100.5 -230.5t-221.5 -74.5q-289 0 -246 309l43 310h187l-45 -314q-10 -70 8.5 -102.5t66.5 -32.5q104 0 123 139l43 310h187z" />
    <glyph glyph-name="V" unicode="V" horiz-adv-x="682" 
d="M425 0h-225l-141 610h207l57 -351q6 -29 9 -62q0 1 29 71l165 342h201z" />
    <glyph glyph-name="W" unicode="W" horiz-adv-x="942" 
d="M750 0h-235l-25 240q-3 27 -5 96q-24 -83 -32 -105l-91 -231h-225l-70 610h198l23 -342q2 -22 2 -65l21 75l110 332h201l15 -342q1 -22 1 -64q10 40 21 75l120 331h201z" />
    <glyph glyph-name="X" unicode="X" horiz-adv-x="673" 
d="M488 306l141 -306h-200l-82 168q-11 22 -13 28q-12 -20 -26 -37l-130 -159h-206l230 306l-140 304h204l78 -158q5 -8 12 -28q11 18 26 36l124 150h211z" />
    <glyph glyph-name="Y" unicode="Y" horiz-adv-x="657" 
d="M414 189l-26 -189h-186l26 190l-169 420h193l60 -165q15 -37 30 -83q20 38 55 92l108 156h198z" />
    <glyph glyph-name="Z" unicode="Z" horiz-adv-x="611" 
d="M606 465l-304 -304q115 5 125 5h139l-23 -166h-539l18 136l328 312q-69 -3 -131 -3h-129l23 165h512z" />
    <glyph glyph-name="bracketleft" unicode="[" horiz-adv-x="400" 
d="M441 660l-20 -140h-134l-78 -560h133l-19 -139h-299l118 839h299z" />
    <glyph glyph-name="backslash" unicode="\" horiz-adv-x="467" 
d="M222 653l208 -862h-149l-212 862h153z" />
    <glyph glyph-name="bracketright" unicode="]" horiz-adv-x="400" 
d="M-39 -179l20 140h134l79 560h-134l20 139h299l-118 -839h-300z" />
    <glyph glyph-name="asciicircum" unicode="^" horiz-adv-x="515" 
d="M491 334h-143l-33 97q-14 40 -20 63q-11 -27 -40 -72l-61 -88h-149l210 309l2 -4l1 4h111l-1 -6z" />
    <glyph glyph-name="underscore" unicode="_" horiz-adv-x="497" 
d="M386 -161h-392l19 129h391z" />
    <glyph glyph-name="grave" unicode="`" 
d="M410 568l-47 -44q-109 40 -188 103v33l124 79z" />
    <glyph glyph-name="a" unicode="a" horiz-adv-x="577" 
d="M569 487l-68 -487h-181l5 41q-37 -28 -65 -39t-73 -11q-85 0 -131.5 67t-28.5 198q34 240 207 240q78 0 148 -52l6 43h181zM344 178l19 134q-33 32 -69 32q-76 0 -89 -102q-8 -54 4.5 -77.5t44.5 -23.5q42 0 90 37z" />
    <glyph glyph-name="b" unicode="b" horiz-adv-x="577" 
d="M280 643l-29 -204q75 56 149 56q186 0 151 -254q-18 -127 -78 -188.5t-140 -61.5q-50 0 -77.5 14t-59.5 47l-7 -52h-181l91 643h181zM231 301l-18 -131q27 -30 66 -30q38 0 63 29t33 86q7 48 -5.5 68.5t-43.5 20.5q-44 0 -95 -43z" />
    <glyph glyph-name="c" unicode="c" horiz-adv-x="492" 
d="M416 174l46 -114q-57 -38 -109.5 -53.5t-121.5 -15.5q-103 0 -162.5 69t-42.5 188q17 120 89 184t178 64q107 0 199 -56l-59 -110q-65 24 -124 24q-91 0 -107 -117q-8 -53 8 -76t58 -23q70 0 148 36z" />
    <glyph glyph-name="d" unicode="d" horiz-adv-x="577" 
d="M592 643l-91 -643h-181l6 41q-36 -28 -65 -39t-74 -11q-85 0 -131.5 66.5t-28.5 197.5q34 240 207 240q84 0 148 -55l29 203h181zM345 177l19 134q-34 33 -70 33q-77 0 -90 -102q-15 -101 50 -101q44 0 91 36z" />
    <glyph glyph-name="e" unicode="e" horiz-adv-x="532" 
d="M441 174l42 -108q-116 -75 -238 -75q-118 0 -177 67t-42 189t89.5 185.5t190.5 63.5q109 0 163.5 -63t36.5 -177q-4 -28 -12 -61h-301q0 -36 16 -50.5t54 -14.5q78 0 178 44zM207 292h149q13 80 -55 80t-94 -80z" />
    <glyph glyph-name="f" unicode="f" horiz-adv-x="383" 
d="M441 674l-23 -123q-21 1 -58 1q-63 0 -72 -62l-1 -3h116l-20 -150h-117l-47 -337h-181l48 337h-64l20 150h65l1 7q14 102 68 147.5t158 45.5q50 0 107 -13z" />
    <glyph glyph-name="g" unicode="g" horiz-adv-x="574" 
d="M569 487l-57 -398q-20 -141 -89 -204.5t-197 -63.5q-119 0 -212 40l34 117q95 -21 160 -21q49 0 78.5 26.5t41.5 85.5q-33 -28 -64 -38t-82 -10q-88 0 -129.5 63t-24.5 180q17 120 67.5 176t137.5 56q78 0 147 -64l8 55h181zM348 202l15 106q-30 36 -70 36q-76 0 -89 -94
q-7 -51 6 -69.5t47 -18.5q48 0 91 40z" />
    <glyph glyph-name="h" unicode="h" horiz-adv-x="569" 
d="M279 643l-30 -215q99 68 168 68q78 0 106.5 -45.5t14.5 -145.5l-43 -305h-181l36 258q5 37 -0.5 49.5t-28.5 12.5q-42 0 -93 -42l-39 -278h-181l90 643h181z" />
    <glyph glyph-name="i" unicode="i" horiz-adv-x="281" 
d="M94 639q6 40 36 61t70 21q45 0 73 -27.5t22 -75.5q-6 -40 -36 -61t-70 -21q-45 0 -73 27.5t-22 75.5zM265 487l-68 -487h-181l68 487h181z" />
    <glyph glyph-name="j" unicode="j" horiz-adv-x="281" 
d="M199 721q45 0 73 -27.5t21 -75.5q-6 -40 -36 -61t-70 -21q-45 0 -73 27.5t-22 75.5q6 40 36.5 61t70.5 21zM265 487l-59 -418q-15 -105 -68.5 -164.5t-174.5 -84.5l-25 125q44 22 62.5 50.5t25.5 77.5l58 414h181z" />
    <glyph glyph-name="k" unicode="k" horiz-adv-x="569" 
d="M584 472l-204 -203l143 -251l-3 -18h-186l-83 142l-49 -48l-13 -94h-181l91 643h181l-44 -306l153 150h199z" />
    <glyph glyph-name="l" unicode="l" horiz-adv-x="265" 
d="M280 643l-91 -643h-181l91 643h181z" />
    <glyph glyph-name="m" unicode="m" horiz-adv-x="846" 
d="M257 487l-7 -52q91 61 153 61q99 0 120 -78q102 78 173 78q77 0 105.5 -45.5t14.5 -144.5l-43 -306h-181l36 263q9 62 -27 62q-34 0 -78 -34l-41 -291h-181l36 263q9 62 -28 62q-30 0 -80 -37l-40 -288h-181l68 487h181z" />
    <glyph glyph-name="n" unicode="n" horiz-adv-x="570" 
d="M257 487l-7 -54q101 62 168 62q78 0 106.5 -45.5t14.5 -144.5l-43 -305h-181l37 263q5 35 -1.5 48.5t-30.5 13.5q-37 0 -91 -41l-40 -284h-181l68 487h181z" />
    <glyph glyph-name="o" unicode="o" horiz-adv-x="562" 
d="M311 496q127 0 184.5 -66.5t40.5 -191.5q-16 -121 -90 -184t-196 -63q-127 0 -184 66.5t-40 188.5q17 123 90.5 186.5t194.5 63.5zM259 133q85 0 101 116q7 56 -8 80.5t-52 24.5q-84 0 -100 -118q-8 -55 7 -79t52 -24z" />
    <glyph glyph-name="p" unicode="p" horiz-adv-x="576" 
d="M258 487l-6 -43q77 51 149 51q186 0 150 -254q-18 -127 -78 -188.5t-140 -61.5q-34 0 -59.5 8.5t-39 18t-38.5 32.5l-28 -202h-182l91 639h181zM232 303l-19 -135q28 -28 67 -28q37 0 62 29t33 86q7 48 -5.5 68.5t-43.5 20.5q-38 0 -94 -41z" />
    <glyph glyph-name="q" unicode="q" horiz-adv-x="577" 
d="M569 487l-90 -638h-181l27 191q-37 -27 -65.5 -38t-72.5 -11q-85 0 -131.5 67t-28.5 198q18 126 68.5 183t138.5 57q40 0 73 -14.5t74 -46.5l7 52h181zM344 178l19 133q-34 33 -70 33q-76 0 -89 -102q-15 -101 50 -101q42 0 90 37z" />
    <glyph glyph-name="r" unicode="r" horiz-adv-x="418" 
d="M257 487l-10 -73q36 44 66.5 62.5t67.5 18.5q21 0 61 -3l-31 -183q-22 1 -56 1q-86 0 -132 -69l-34 -241h-181l68 487h181z" />
    <glyph glyph-name="s" unicode="s" horiz-adv-x="493" 
d="M487 451l-56 -122q-111 39 -168 39q-38 0 -39 -25q-1 -13 14 -19.5t74 -21.5q12 -3 18 -5q74 -19 103 -52.5t21 -92.5q-11 -81 -70.5 -121t-158.5 -40q-112 0 -233 64l56 118q101 -52 182 -52q43 0 44 24q1 10 -15 16.5t-82 25.5q-79 23 -105 58.5t-16 102.5
q10 70 63 109t136 39q111 0 232 -45z" />
    <glyph glyph-name="t" unicode="t" horiz-adv-x="404" 
d="M268 337l-20 -146q-4 -29 4 -41.5t39 -12.5q40 0 63 1l10 -112q-60 -34 -154 -34q-89 0 -123.5 48t-20.5 152l21 145h-66l21 150h66l15 103h181l-15 -103h114l-21 -150h-114z" />
    <glyph glyph-name="u" unicode="u" horiz-adv-x="574" 
d="M563 487l-68 -487h-181l6 46q-92 -55 -150 -55q-165 0 -139 191l43 305h181l-37 -267q-5 -35 1 -49t28 -14q36 0 95 41l40 289h181z" />
    <glyph glyph-name="v" unicode="v" horiz-adv-x="577" 
d="M361 0h-205l-113 486h183l41 -226q2 -11 10 -67l32 77l104 217h191z" />
    <glyph glyph-name="w" unicode="w" horiz-adv-x="785" 
d="M218 487l24 -261q1 -15 -1 -42l17 52l105 251h127l31 -261q2 -17 2 -47q2 6 4.5 18t5 21.5t5.5 17.5l95 251h180l-189 -487h-205l-26 235l-92 -235h-200l-58 487h175z" />
    <glyph glyph-name="x" unicode="x" horiz-adv-x="557" 
d="M232 486l51 -110l9 -19l10.5 15.5l8.5 12.5l78 102h196l-190 -245l120 -242h-186l-54 110l-11 22l-16 -23l-85 -109h-193l192 245l-119 242z" />
    <glyph glyph-name="y" unicode="y" horiz-adv-x="569" 
d="M410 487l192 -1l-48.5 -104.5l-55 -117.5t-44 -86.5t-52.5 -91.5q-126 -186 -339 -272l-58 139q88 40 142 89l-111 444h186l44 -203q10 -50 13 -74q49 80 131 278z" />
    <glyph glyph-name="z" unicode="z" horiz-adv-x="535" 
d="M507 377l-238 -237q63 3 108 3h109l-20 -143h-464l15 114l247 231q-32 -2 -96 -2h-109l20 144h442z" />
    <glyph glyph-name="braceleft" unicode="{" horiz-adv-x="412" 
d="M327 445l-5 -37q-12 -81 -47 -118.5t-99 -49.5q61 -14 85 -53t13 -117l-5 -37q-7 -51 8 -68t79 -24l-20 -127q-144 2 -199 53.5t-38 172.5l4 34q8 55 -10 75.5t-81 27.5l11 74l9 56q62 6 86.5 29t32.5 76l5 37q18 123 85.5 170t217.5 49l-19 -129q-63 -7 -85 -27t-28 -67
z" />
    <glyph glyph-name="bar" unicode="|" horiz-adv-x="356" 
d="M191 -200h-151l119 843h150z" />
    <glyph glyph-name="braceright" unicode="}" horiz-adv-x="412" 
d="M388 231l-9 -56q-62 -6 -86.5 -29t-32.5 -76l-5 -37q-18 -123 -85.5 -170t-217.5 -49l19 129q63 7 85 27t28 67l5 37q12 80 47 118t99 50q-61 14 -85 53t-13 117l5 37q7 51 -7.5 67.5t-79.5 24.5l21 127q143 -2 198.5 -53.5t38.5 -172.5l-5 -34q-7 -55 11 -75.5t81 -27.5
z" />
    <glyph glyph-name="asciitilde" unicode="~" horiz-adv-x="533" 
d="M433 376l63 -56q-39 -57 -75 -83t-69 -26t-71 13l-66 28q-23 12 -46 2.5t-57 -48.5l-62 55q39 57 74 82.5t68 25.5t71 -14l66 -28q23 -11 47 -0.5t57 49.5z" />
    <glyph glyph-name="exclamdown" unicode="&#xa1;" horiz-adv-x="276" 
d="M157 327q-40 0 -61.5 27.5t-16.5 67.5q5 32 29 53.5t59 21.5q40 0 62 -27.5t16 -67.5q-5 -32 -29 -53.5t-59 -21.5zM70 265h142l-27 -387h-196z" />
    <glyph glyph-name="cent" unicode="&#xa2;" horiz-adv-x="518" 
d="M434 177l48 -116q-86 -57 -175 -67l-7 -50h-117l8 53q-86 18 -131 91t-28 196q16 114 80 186t157 86l8 54h117l-8 -56q62 -12 136 -50l-59 -114q-62 25 -126 25q-50 0 -84 -37.5t-44 -113.5q-10 -69 9.5 -98.5t64.5 -29.5q71 0 151 41z" />
    <glyph glyph-name="sterling" unicode="&#xa3;" horiz-adv-x="590" 
d="M604 507l-59 -113q-67 27 -124 27q-81 0 -115 -114h152l-12 -72h-159l-20 -85h248l-20 -150h-490l20 134l60 10l22 91h-68l12 72h73q35 133 102 195t174 62q112 0 204 -57z" />
    <glyph glyph-name="yen" unicode="&#xa5;" horiz-adv-x="597" 
d="M459 286h98l-9 -56h-126l-24 -36h144l-8 -56h-157l-20 -138h-186l20 138h-146l9 56h132l-14 36h-112l9 56h82l-100 265h188l47 -143q8 -24 22 -77q25 54 46 86l87 134h193z" />
    <glyph glyph-name="brokenbar" unicode="&#xa6;" horiz-adv-x="356" 
d="M261 297h-151l49 346h150zM191 -200h-151l49 346h150z" />
    <glyph glyph-name="section" unicode="&#xa7;" horiz-adv-x="613" 
d="M554 573l-58 -126q-91 46 -159 46q-52 0 -52 -26q-1 -15 16.5 -23.5t92.5 -32.5q105 -31 141.5 -66.5t28.5 -91.5q-6 -36 -30.5 -59.5t-67.5 -42.5q33 -40 24 -108q-10 -68 -66 -110t-148 -42q-127 0 -248 72l58 126q97 -63 184 -63q53 0 54 28q1 12 -10.5 18t-61.5 22
l-39 13q-105 31 -141 66.5t-28 91.5q5 39 30 62t69 41q-34 40 -25 108q9 66 63 105t143 39q114 0 230 -47zM206 274q1 -10 16.5 -17.5t59.5 -20t71 -22.5l26 -9q28 22 23 41q-1 6 -8.5 11.5t-21.5 10.5t-29.5 10t-41 12.5t-47.5 15.5l-24 8q-26 -23 -24 -40z" />
    <glyph glyph-name="dieresis" unicode="&#xa8;" 
d="M200 705q39 0 62 -25t18 -67q-5 -35 -29.5 -53t-59.5 -18q-37 0 -61.5 25t-18.5 66q5 34 31 53t58 19zM413 705q37 0 61.5 -25.5t18.5 -66.5q-5 -34 -30.5 -52.5t-57.5 -18.5q-39 0 -62.5 25t-17.5 66q5 35 29.5 53.5t58.5 18.5z" />
    <glyph glyph-name="copyright" unicode="&#xa9;" horiz-adv-x="730" 
d="M370 -9q-131 0 -222.5 91.5t-91.5 222.5t91.5 223t222.5 92q130 0 221.5 -92t91.5 -223t-91 -222.5t-222 -91.5zM370 31q114 0 194 80t80 194t-80 194.5t-194 80.5t-194 -80.5t-80 -194.5t80 -194t194 -80zM482 253l28 -77q-78 -53 -165 -53q-75 0 -117.5 48t-30.5 131
q12 86 65.5 134.5t132.5 48.5q77 0 141 -38l-47 -83q-55 21 -90 21q-34 0 -52.5 -19.5t-24.5 -63.5q-11 -78 54 -78q46 0 106 29z" />
    <glyph glyph-name="ordfeminine" unicode="&#xaa;" horiz-adv-x="395" 
d="M118 507l-15 87q103 26 157 26q79 0 111.5 -35.5t21.5 -109.5l-29 -209h-130l4 28q-47 -35 -91 -35q-60 0 -87 27t-18 90q7 53 45 77t112 24h65l1 2q3 26 -3 35t-31 9q-40 0 -113 -16zM256 420h-35q-52 0 -58 -42q-2 -14 4.5 -19.5t21.5 -5.5q26 0 60 19z" />
    <glyph glyph-name="guillemotleft" unicode="&#xab;" horiz-adv-x="641" 
d="M365 387l-106 -97q-17 -16 -47 -37q16 -13 33 -32l84 -91l-100 -87l-200 217l256 217zM617 387l-105 -97q-15 -13 -47 -37q23 -21 32 -32l84 -91l-100 -87l-200 217l256 217z" />
    <glyph glyph-name="registered" unicode="&#xae;" horiz-adv-x="730" 
d="M370 -9q-131 0 -222.5 91.5t-91.5 222.5t91.5 223t222.5 92q130 0 221.5 -92t91.5 -223t-91 -222.5t-222 -91.5zM370 31q114 0 194 80t80 194t-80 194.5t-194 80.5t-194 -80.5t-80 -194.5t80 -194t194 -80zM247 480h152q80 0 116.5 -33t28.5 -93q-11 -71 -73 -89
q46 -28 53 -132h-133q-1 6 -1.5 16t-1 15.5t-2 14t-2.5 13.5t-3 11t-4.5 9.5t-5.5 6.5t-7.5 4.5t-10.5 1.5h-32l-13 -92h-109zM342 310h39q40 0 45 40q6 40 -39 40h-34z" />
    <glyph glyph-name="macron" unicode="&#xaf;" 
d="M475 687l-19 -128h-326l19 128h326z" />
    <glyph glyph-name="degree" unicode="&#xb0;" horiz-adv-x="378" 
d="M235 620q73 0 111 -45.5t27 -119.5q-9 -65 -54 -103.5t-114 -38.5q-73 0 -111 45t-27 117q9 67 54 106t114 39zM213 411q28 0 44.5 17.5t16.5 46.5q0 48 -46 48q-28 0 -44.5 -18.5t-17.5 -49.5q2 -44 47 -44z" />
    <glyph glyph-name="plusminus" unicode="&#xb1;" horiz-adv-x="514" 
d="M487 389l-17 -112h-153l-16 -114h-111l15 114h-152l15 112h153l16 114h112l-16 -114h154zM35 122h409l-16 -111h-408z" />
    <glyph glyph-name="twosuperior" unicode="&#xb2;" horiz-adv-x="361" 
d="M104 589l-28 85q111 46 178 46q63 0 97.5 -39t26.5 -100q-6 -42 -45 -76t-115 -76q42 4 62 4h79l-14 -98h-301l10 83q141 101 169 127q32 31 35 50q3 16 -5 22.5t-26 6.5q-39 0 -123 -35z" />
    <glyph glyph-name="threesuperior" unicode="&#xb3;" horiz-adv-x="365" 
d="M104 608l-21 79q92 34 164 34q62 0 98.5 -32t29.5 -82q-7 -55 -68 -77q64 -24 55 -86q-7 -55 -49.5 -83.5t-112.5 -28.5q-90 0 -167 45l36 74q62 -30 128 -30q51 0 58 39q2 14 -13.5 20t-55.5 6h-54l12 85h50q71 0 75 34q2 16 -7.5 21.5t-32.5 5.5q-42 0 -125 -24z" />
    <glyph glyph-name="acute" unicode="&#xb4;" 
d="M347 739l104 -79l-2 -39q-97 -61 -214 -101l-43 48z" />
    <glyph glyph-name="paragraph" unicode="&#xb6;" horiz-adv-x="605" 
d="M600 473l-90 -16l-64 -457h-168l25 186h-17q-132 1 -188.5 54.5t-40.5 164.5q14 107 82 155.5t203 49.5h277z" />
    <glyph glyph-name="periodcentered" unicode="&#xb7;" horiz-adv-x="293" 
d="M38 273q5 42 35.5 70t74.5 28q46 0 72 -30.5t21 -76.5q-5 -42 -35.5 -70t-74.5 -28q-47 0 -72.5 30.5t-20.5 76.5z" />
    <glyph glyph-name="cedilla" unicode="&#xb8;" 
d="M232 35l-9 -61q59 -3 74.5 -21t8.5 -73q-5 -39 -32.5 -63t-73.5 -24q-57 0 -127 25l18 64q40 -8 69 -8q40 0 45 32q2 15 -5.5 19t-34.5 4h-34l35 106h66z" />
    <glyph glyph-name="onesuperior" unicode="&#xb9;" horiz-adv-x="349" 
d="M333 331h-284l14 98h87l22 149q-28 -5 -80 -13l-19 80q81 29 137 67l95 -2l-39 -281h80z" />
    <glyph glyph-name="ordmasculine" unicode="&#xba;" horiz-adv-x="424" 
d="M260 620q89 0 131.5 -47.5t29.5 -136.5q-12 -84 -64.5 -130.5t-136.5 -46.5q-88 0 -131 49.5t-31 136.5q12 86 64.5 130.5t137.5 44.5zM223 362q62 0 75 84q9 73 -42 73q-33 0 -51 -19.5t-23 -63.5q-11 -74 41 -74z" />
    <glyph glyph-name="guillemotright" unicode="&#xbb;" horiz-adv-x="641" 
d="M364 260l-257 -217l-80 87l105 98q19 17 48 37q-22 20 -31 32l-85 90l100 90zM617 260l-258 -217l-80 87l105 98q15 13 49 37q-17 15 -32 32l-85 90l100 90z" />
    <glyph glyph-name="onequarter" unicode="&#xbc;" horiz-adv-x="881" 
d="M36 231l13 98h87l22 149q-22 -4 -80 -13l-18 80q78 28 137 67l95 -2l-40 -281h81l-14 -98h-283zM722 610l-425 -610h-104l425 610h104zM827 151l-13 -88h-53l-8 -63h-112l9 63h-202l8 79l237 237h113l-32 -228h53zM662 151l15 105q-16 -18 -28 -30l-43 -40
q-18 -20 -40 -35h96z" />
    <glyph glyph-name="onehalf" unicode="&#xbd;" horiz-adv-x="907" 
d="M36 231l13 98h87l22 149q-22 -4 -80 -13l-18 80q78 28 137 67l95 -2l-40 -281h81l-14 -98h-283zM722 610l-425 -610h-104l425 610h104zM587 254l-28 85q111 46 178 46q63 0 97.5 -39t26.5 -100q-6 -42 -45 -76t-115 -76q42 4 62 4h79l-14 -98h-301l10 83q141 101 169 127
q32 31 35 50q3 16 -5 22.5t-26 6.5q-39 0 -123 -35z" />
    <glyph glyph-name="threequarters" unicode="&#xbe;" horiz-adv-x="876" 
d="M95 506l-21 79q90 35 165 35q62 0 98.5 -32t29.5 -82q-7 -55 -68 -78q63 -23 55 -86q-7 -55 -49.5 -83t-113.5 -28q-93 0 -166 44l35 74q60 -29 128 -29q53 0 58 38q2 15 -13.5 20.5t-55.5 5.5h-54l12 86h51q69 0 75 34q2 15 -7.5 21t-33.5 6q-37 0 -125 -25zM720 610
l-425 -610h-104l425 610h104zM832 151l-13 -89h-52l-9 -62h-112l9 62h-202l8 79l237 238h113l-31 -228h52zM668 151l15 105q-16 -18 -29 -31l-43 -39q-18 -20 -40 -35h97z" />
    <glyph glyph-name="questiondown" unicode="&#xbf;" horiz-adv-x="549" 
d="M317 327q-40 0 -62 27.5t-17 67.5q5 32 29.5 53.5t59.5 21.5q40 0 61.5 -27.5t16.5 -67.5q-5 -32 -29 -53.5t-59 -21.5zM445 77l39 -134q-96 -39 -160 -56.5t-125 -17.5q-101 0 -157 57.5t-44 142.5q10 70 69.5 116.5t160.5 66.5l6 40h145l-5 -154h-22
q-88 -1 -122.5 -17.5t-38.5 -44.5q-4 -27 10.5 -40t43.5 -13q62 0 200 54z" />
    <glyph glyph-name="Agrave" unicode="&#xc0;" horiz-adv-x="707" 
d="M520 683l-47 -45q-111 38 -188 94v33l139 71zM453 91h-238l-43 -91h-200l305 610h255l133 -610h-195zM423 250l-27 146q-7 34 -10 63h-1q-6 -20 -27 -67l-68 -142h133z" />
    <glyph glyph-name="Aacute" unicode="&#xc1;" horiz-adv-x="707" 
d="M565 767l-2 -39q-91 -54 -213 -92l-42 48l134 153zM453 91h-238l-43 -91h-200l305 610h255l133 -610h-195zM423 250l-27 146q-7 34 -10 63h-1q-6 -20 -27 -67l-68 -142h133z" />
    <glyph glyph-name="Acircumflex" unicode="&#xc2;" horiz-adv-x="707" 
d="M273 636l-42 47l153 141h102l115 -141l-49 -47l-130 78zM453 91h-238l-43 -91h-200l305 610h255l133 -610h-195zM423 250l-27 146q-7 34 -10 63h-1q-6 -20 -27 -67l-68 -142h133z" />
    <glyph glyph-name="Atilde" unicode="&#xc3;" horiz-adv-x="707" 
d="M420 669l-51 27q-10 6 -17.5 6.5t-16.5 -5t-16 -13l-21 -22.5l-62 10q9 50 30.5 82t49.5 42t55.5 8.5t52.5 -13.5l50 -26q10 -5 18 -5.5t18 5.5t16.5 13l21.5 23l66 -10q-8 -51 -31 -83.5t-52.5 -42.5t-58 -9t-52.5 13zM453 91h-238l-43 -91h-200l305 610h255l133 -610
h-195zM423 250l-27 146q-7 34 -10 63h-1q-6 -20 -27 -67l-68 -142h133z" />
    <glyph glyph-name="Adieresis" unicode="&#xc4;" horiz-adv-x="707" 
d="M313 660q-34 0 -57.5 24t-18.5 63q5 32 30 50.5t54 18.5q38 0 60 -24.5t17 -64.5q-5 -32 -28.5 -49.5t-56.5 -17.5zM527 660q-38 0 -60 23.5t-17 63.5q5 33 28.5 51t56.5 18q34 0 57.5 -25t17.5 -64q-4 -32 -28.5 -49.5t-54.5 -17.5zM453 91h-238l-43 -91h-200l305 610
h255l133 -610h-195zM423 250l-27 146q-7 34 -10 63h-1q-8 -25 -28 -67l-67 -142h133z" />
    <glyph glyph-name="Aring" unicode="&#xc5;" horiz-adv-x="707" 
d="M418 651q-51 0 -80.5 29.5t-25.5 74.5q3 47 37 77t85 30t80 -29.5t26 -75.5t-37 -76t-85 -30zM385 757q-2 -18 8 -29.5t29 -11.5t31 11.5t14 29.5t-8 29.5t-29 11.5t-31.5 -11.5t-13.5 -29.5zM453 91h-238l-43 -91h-200l305 610h255l133 -610h-195zM423 250l-27 146
q-7 34 -10 63h-1q-6 -20 -27 -67l-68 -142h133z" />
    <glyph glyph-name="AE" unicode="&#xc6;" horiz-adv-x="958" 
d="M663 450l-11 -74h236l-20 -146h-236l-11 -73h287l-22 -157h-471l12 91h-183l-61 -91h-211l461 610h530l-22 -160h-278zM450 250l25 183l-123 -183h98z" />
    <glyph glyph-name="Ccedilla" unicode="&#xc7;" horiz-adv-x="610" 
d="M528 201l48 -143q-138 -67 -270 -67h-8l-3 -17q59 -3 74.5 -21t8.5 -73q-5 -38 -32.5 -62.5t-73.5 -24.5q-59 0 -127 26l18 63q40 -8 69 -8q40 0 45 33q2 14 -5.5 18t-34.5 4h-34l23 70q-99 20 -148.5 92.5t-39.5 188.5q10 157 105 248.5t246 91.5q122 0 231 -57
l-69 -137q-101 27 -161 27q-71 0 -114.5 -44.5t-49.5 -124.5q-5 -58 21 -91.5t81 -33.5q82 0 200 42z" />
    <glyph glyph-name="Egrave" unicode="&#xc8;" horiz-adv-x="559" 
d="M439 683l-47 -45q-111 38 -188 94v33l139 71zM263 450l-10 -74h236l-21 -146h-236l-10 -73h286l-22 -157h-471l86 610h463l-22 -160h-279z" />
    <glyph glyph-name="Eacute" unicode="&#xc9;" horiz-adv-x="559" 
d="M484 767l-2 -39q-91 -54 -213 -92l-42 48l134 153zM263 450l-10 -74h236l-21 -146h-236l-10 -73h286l-22 -157h-471l86 610h463l-22 -160h-279z" />
    <glyph glyph-name="Ecircumflex" unicode="&#xca;" horiz-adv-x="559" 
d="M192 636l-42 47l153 141h102l115 -141l-49 -47l-130 78zM263 450l-10 -74h236l-21 -146h-236l-10 -73h286l-22 -157h-471l86 610h463l-22 -160h-279z" />
    <glyph glyph-name="Edieresis" unicode="&#xcb;" horiz-adv-x="559" 
d="M232 660q-34 0 -57.5 24t-18.5 63q5 32 30 50.5t54 18.5q38 0 60 -24.5t17 -64.5q-5 -32 -28.5 -49.5t-56.5 -17.5zM446 660q-38 0 -60 23.5t-17 63.5q5 33 28.5 51t56.5 18q34 0 57.5 -25t17.5 -64q-4 -32 -28.5 -49.5t-54.5 -17.5zM263 450l-10 -74h236l-21 -146h-236
l-10 -73h286l-22 -157h-471l86 610h463l-22 -160h-279z" />
    <glyph glyph-name="Igrave" unicode="&#xcc;" horiz-adv-x="285" 
d="M308 683l-46 -45q-110 38 -189 94v33l140 71zM287 610l-85 -610h-187l86 610h186z" />
    <glyph glyph-name="Iacute" unicode="&#xcd;" horiz-adv-x="285" 
d="M230 837l123 -70l-1 -39q-92 -54 -213 -92l-43 48zM287 610l-85 -610h-187l86 610h186z" />
    <glyph glyph-name="Icircumflex" unicode="&#xce;" horiz-adv-x="285" 
d="M389 683l-48 -47l-131 78l-149 -78l-41 47l153 141h101zM101 610h186l-85 -610h-187z" />
    <glyph glyph-name="Idieresis" unicode="&#xcf;" horiz-adv-x="285" 
d="M110 816q37 0 59.5 -24.5t16.5 -64.5q-4 -32 -27.5 -49.5t-56.5 -17.5q-35 0 -58 24t-18 63q4 33 29 51t55 18zM323 816q35 0 58.5 -25t17.5 -64q-5 -32 -29.5 -49.5t-54.5 -17.5q-37 0 -59.5 24t-16.5 63q4 33 28 51t56 18zM287 610l-85 -610h-187l86 610h186z" />
    <glyph glyph-name="Eth" unicode="&#xd0;" horiz-adv-x="664" 
d="M106 610h240q154 0 230 -71t68 -199q-11 -158 -108.5 -249t-259.5 -91h-256l33 233h-52l21 143h51zM229 159h49q166 0 178 173q5 62 -25.5 91t-101.5 29h-59l-10 -76h81l-21 -143h-80z" />
    <glyph glyph-name="Ntilde" unicode="&#xd1;" horiz-adv-x="683" 
d="M535 801l66 -10q-8 -51 -31 -83.5t-52.5 -42.5t-58 -9t-52.5 13l-51 27q-10 6 -17.5 6.5t-16.5 -5t-16 -13l-21 -22.5l-62 10q9 50 30.5 82t49.5 42t55.5 8.5t52.5 -13.5l50 -26q10 -5 18 -5.5t18 5.5t16.5 13zM599 0h-167l-188 309q-1 -10 -3.5 -29t-3.5 -29l-35 -251
h-187l86 610h167l189 -309q2 28 6 55l36 254h186z" />
    <glyph glyph-name="Ograve" unicode="&#xd2;" horiz-adv-x="689" 
d="M510 683l-47 -45q-111 38 -188 94v33l139 71zM393 620q151 0 223.5 -83t50.5 -235q-21 -149 -113 -230t-239 -81q-152 0 -224.5 83.5t-50.5 236.5q21 149 113 229t240 80zM329 159q63 0 102.5 39.5t48.5 112.5q8 70 -19 106t-86 36q-62 0 -100.5 -39t-47.5 -112
q-8 -70 18.5 -106.5t83.5 -36.5z" />
    <glyph glyph-name="Oacute" unicode="&#xd3;" horiz-adv-x="689" 
d="M432 837l123 -70l-2 -39q-91 -54 -213 -92l-42 48zM393 620q151 0 223.5 -83t50.5 -235q-21 -149 -113 -230t-239 -81q-152 0 -224.5 83.5t-50.5 236.5q21 149 113 229t240 80zM329 159q63 0 102.5 39.5t48.5 112.5q8 70 -19 106t-86 36q-62 0 -100.5 -39t-47.5 -112
q-8 -70 18.5 -106.5t83.5 -36.5z" />
    <glyph glyph-name="Ocircumflex" unicode="&#xd4;" horiz-adv-x="689" 
d="M263 636l-42 47l153 141h102l115 -141l-49 -47l-130 78zM393 620q151 0 223.5 -83t50.5 -235q-21 -149 -113 -230t-239 -81q-152 0 -224.5 83.5t-50.5 236.5q21 149 113 229t240 80zM480 311q8 70 -19 106t-86 36q-62 0 -100.5 -39t-47.5 -112q-8 -70 18.5 -106.5
t83.5 -36.5q63 0 102.5 39.5t48.5 112.5z" />
    <glyph glyph-name="Otilde" unicode="&#xd5;" horiz-adv-x="689" 
d="M538 801l66 -10q-8 -51 -31 -83.5t-52.5 -42.5t-58 -9t-52.5 13l-51 27q-10 6 -17.5 6.5t-16.5 -5t-16 -13l-21 -22.5l-62 10q9 50 30.5 82t49.5 42t55.5 8.5t52.5 -13.5l50 -26q10 -5 18 -5.5t18 5.5t16.5 13zM393 620q151 0 223.5 -83t50.5 -235q-21 -149 -113 -230
t-239 -81q-152 0 -224.5 83.5t-50.5 236.5q21 149 113 229t240 80zM329 159q63 0 102.5 39.5t48.5 112.5q8 70 -19 106t-86 36q-62 0 -100.5 -39t-47.5 -112q-8 -70 18.5 -106.5t83.5 -36.5z" />
    <glyph glyph-name="Odieresis" unicode="&#xd6;" horiz-adv-x="689" 
d="M311 816q38 0 60 -24.5t17 -64.5q-5 -32 -28.5 -49.5t-56.5 -17.5q-34 0 -57.5 24t-18.5 63q5 32 30 50.5t54 18.5zM525 816q34 0 57.5 -25t17.5 -64q-4 -32 -28.5 -49.5t-54.5 -17.5q-38 0 -60 23.5t-17 63.5q5 33 28.5 51t56.5 18zM393 620q151 0 223.5 -83t50.5 -235
q-21 -149 -113 -230t-239 -81q-152 0 -224.5 83.5t-50.5 236.5q21 149 113 229t240 80zM329 159q63 0 102.5 39.5t48.5 112.5q8 70 -19 106t-86 36q-62 0 -100.5 -39t-47.5 -112q-8 -70 18.5 -106.5t83.5 -36.5z" />
    <glyph glyph-name="multiply" unicode="&#xd7;" horiz-adv-x="503" 
d="M344 247l92 -106l-104 -90l-91 105l-118 -104l-81 92l119 104l-92 107l102 93l93 -109l125 110l79 -92z" />
    <glyph glyph-name="Oslash" unicode="&#xd8;" horiz-adv-x="689" 
d="M699 554l-58 -52q42 -79 26 -200q-21 -149 -113 -230t-240 -81q-116 0 -187 50l-55 -49l-58 64l55 49q-47 79 -29 205q21 149 113.5 229.5t239.5 80.5q120 0 191 -53l58 52zM226 246l213 191q-25 16 -64 16q-62 0 -101 -39t-48 -112q-3 -31 0 -56zM481 358l-209 -187
q24 -12 56 -12q63 0 103 39t49 112q3 24 1 48z" />
    <glyph glyph-name="Ugrave" unicode="&#xd9;" horiz-adv-x="663" 
d="M497 683l-47 -45q-111 38 -188 94v33l139 71zM668 610l-45 -314q-22 -156 -100.5 -230.5t-221.5 -74.5q-289 0 -246 309l43 310h187l-45 -314q-10 -70 8.5 -102.5t66.5 -32.5q104 0 123 139l43 310h187z" />
    <glyph glyph-name="Uacute" unicode="&#xda;" horiz-adv-x="663" 
d="M419 837l123 -70l-2 -39q-91 -54 -213 -92l-42 48zM668 610l-45 -314q-22 -156 -100.5 -230.5t-221.5 -74.5q-289 0 -246 309l43 310h187l-45 -314q-10 -70 8.5 -102.5t66.5 -32.5q104 0 123 139l43 310h187z" />
    <glyph glyph-name="Ucircumflex" unicode="&#xdb;" horiz-adv-x="663" 
d="M250 636l-42 47l153 141h102l115 -141l-49 -47l-130 78zM668 610l-45 -314q-22 -156 -100.5 -230.5t-221.5 -74.5q-289 0 -246 309l43 310h187l-45 -314q-10 -70 8.5 -102.5t66.5 -32.5q104 0 123 139l43 310h187z" />
    <glyph glyph-name="Udieresis" unicode="&#xdc;" horiz-adv-x="663" 
d="M298 816q38 0 60 -24.5t17 -64.5q-5 -32 -28.5 -49.5t-56.5 -17.5q-34 0 -57.5 24t-18.5 63q5 32 30 50.5t54 18.5zM512 816q34 0 57.5 -25t17.5 -64q-4 -32 -28.5 -49.5t-54.5 -17.5q-38 0 -60 23.5t-17 63.5q5 33 28.5 51t56.5 18zM668 610l-45 -314
q-22 -156 -100.5 -230.5t-221.5 -74.5q-289 0 -246 309l43 310h187l-45 -314q-10 -70 8.5 -102.5t66.5 -32.5q104 0 123 139l43 310h187z" />
    <glyph glyph-name="Yacute" unicode="&#xdd;" horiz-adv-x="657" 
d="M538 767l-1 -39q-92 -54 -213 -92l-43 48l134 153zM414 189l-26 -189h-186l26 190l-169 420h193l60 -165q15 -37 30 -83q20 38 55 92l108 156h198z" />
    <glyph glyph-name="Thorn" unicode="&#xde;" horiz-adv-x="598" 
d="M276 534h65q134 0 194.5 -53.5t52.5 -163.5q-15 -243 -289 -243h-87l-10 -74h-187l86 610h186zM233 222h70q98 0 104 92q4 33 -15.5 47.5t-66.5 14.5h-71z" />
    <glyph glyph-name="germandbls" unicode="&#xdf;" horiz-adv-x="628" 
d="M34 487l71 -1q39 69 112.5 107.5t168.5 38.5q104 0 163 -50.5t49 -129.5q-14 -94 -106 -127q117 -34 99 -167q-11 -76 -70 -121.5t-148 -45.5q-68 0 -120 18l23 126q48 -5 74 -5q33 0 54 17t26 46q4 29 -23.5 38t-90.5 9h-21l18 130h18q38 0 65 19.5t32 51.5
q3 22 -12 33.5t-43 11.5q-52 0 -83.5 -29t-39.5 -80l-53 -377h-181l49 347l-49 8z" />
    <glyph glyph-name="agrave" unicode="&#xe0;" horiz-adv-x="577" 
d="M447 568l-46 -44q-112 41 -188 103v33l124 79zM569 487l-68 -487h-181l5 41q-37 -28 -65 -39t-73 -11q-85 0 -131.5 67t-28.5 198q34 240 207 240q78 0 148 -52l6 43h181zM344 178l19 134q-33 32 -69 32q-76 0 -89 -102q-8 -54 4.5 -77.5t44.5 -23.5q42 0 90 37z" />
    <glyph glyph-name="aacute" unicode="&#xe1;" horiz-adv-x="577" 
d="M488 660l-2 -39q-94 -60 -214 -101l-42 48l154 171zM569 487l-68 -487h-181l5 41q-37 -28 -65 -39t-73 -11q-85 0 -131.5 67t-28.5 198q34 240 207 240q78 0 148 -52l6 43h181zM344 178l19 134q-33 32 -69 32q-76 0 -89 -102q-8 -54 4.5 -77.5t44.5 -23.5q42 0 90 37z
" />
    <glyph glyph-name="acircumflex" unicode="&#xe2;" horiz-adv-x="577" 
d="M509 577l-45 -45q-24 15 -66 38t-57 32l-132 -69l-43 46l137 135h96zM569 487l-68 -487h-181l5 41q-37 -28 -65 -39t-73 -11q-85 0 -131.5 67t-28.5 198q34 240 207 240q78 0 148 -52l6 43h181zM344 178l19 134q-33 32 -69 32q-76 0 -89 -102q-8 -54 4.5 -77.5
t44.5 -23.5q42 0 90 37z" />
    <glyph glyph-name="atilde" unicode="&#xe3;" horiz-adv-x="577" 
d="M336 568l-51 28q-9 6 -16.5 6.5t-16.5 -5t-16 -13l-21 -22.5l-62 10q8 50 29.5 82t49.5 41.5t55.5 8t53.5 -13.5l50 -26q21 -7 33 -1t36 31q3 4 5 6l66 -10q-9 -51 -32 -83.5t-52 -42.5t-57.5 -9t-53.5 13zM569 487l-68 -487h-181l5 41q-37 -28 -65 -39t-73 -11
q-85 0 -131.5 67t-28.5 198q34 240 207 240q78 0 148 -52l6 43h181zM344 178l19 134q-33 32 -69 32q-76 0 -89 -102q-8 -54 4.5 -77.5t44.5 -23.5q42 0 90 37z" />
    <glyph glyph-name="adieresis" unicode="&#xe4;" horiz-adv-x="577" 
d="M229 542q-37 0 -61.5 25t-18.5 66q5 34 30.5 53t57.5 19q39 0 62.5 -25t17.5 -67q-5 -34 -29.5 -52.5t-58.5 -18.5zM442 542q-39 0 -62.5 25t-16.5 66q5 35 29.5 53.5t58.5 18.5q37 0 61.5 -25.5t18.5 -66.5q-5 -34 -31 -52.5t-58 -18.5zM569 487l-68 -487h-181l5 41
q-37 -28 -65 -39t-73 -11q-85 0 -131.5 67t-28.5 198q34 240 207 240q78 0 148 -52l6 43h181zM344 178l19 134q-33 32 -69 32q-76 0 -89 -102q-8 -54 4.5 -77.5t44.5 -23.5q42 0 90 37z" />
    <glyph glyph-name="aring" unicode="&#xe5;" horiz-adv-x="577" 
d="M332 535q-52 0 -81.5 33t-21.5 84q6 46 39 73.5t81 27.5q53 0 81.5 -33.5t21.5 -87.5q-6 -44 -39 -70.5t-81 -26.5zM299 645q-2 -18 8 -29.5t29 -11.5q40 0 45 39q2 18 -7.5 30t-28.5 12t-31.5 -11t-14.5 -29zM569 487l-68 -487h-181l5 41q-37 -28 -65 -39t-73 -11
q-85 0 -131.5 67t-28.5 198q34 240 207 240q78 0 148 -52l6 43h181zM344 178l19 134q-33 32 -69 32q-76 0 -89 -102q-8 -54 4.5 -77.5t44.5 -23.5q42 0 90 37z" />
    <glyph glyph-name="ae" unicode="&#xe6;" horiz-adv-x="816" 
d="M113 340l-19 119q136 37 218 37q88 0 129 -34q62 34 149 34q109 0 163.5 -63t36.5 -177q-5 -31 -13 -61h-300q0 -36 15.5 -50.5t53.5 -14.5q79 0 178 44l43 -108q-117 -75 -239 -75q-107 0 -165 55q-99 -55 -194 -55q-96 0 -135.5 37t-27.5 127q10 70 64 103t155 33h91
l1 5q5 34 -4 49.5t-41 15.5q-57 0 -159 -21zM491 292h149q13 80 -55 80t-94 -80zM302 195h-52q-39 0 -55.5 -9t-19.5 -33q-2 -16 9 -24t34 -8q43 0 94 17q-6 26 -6 57h-4z" />
    <glyph glyph-name="ccedilla" unicode="&#xe7;" horiz-adv-x="492" 
d="M416 174l45 -114q-54 -36 -104 -52t-115 -17l-2 -17q58 -3 74 -21.5t9 -72.5q-6 -39 -33.5 -63t-73.5 -24q-60 0 -126 26l17 63q40 -8 70 -8q40 0 44 33q2 14 -5 18t-34 4h-34l22 69q-78 20 -118 85t-26 165q17 120 89 184t178 64q107 0 199 -56l-59 -110q-65 24 -124 24
q-91 0 -107 -117q-8 -53 8 -76t58 -23q70 0 148 36z" />
    <glyph glyph-name="egrave" unicode="&#xe8;" horiz-adv-x="532" 
d="M424 568l-47 -44q-109 40 -188 103v33l124 79zM441 174l42 -108q-116 -75 -238 -75q-118 0 -177 67t-42 189t89.5 185.5t190.5 63.5q109 0 163.5 -63t36.5 -177q-4 -28 -12 -61h-301q0 -36 16 -50.5t54 -14.5q78 0 178 44zM207 292h149q13 80 -55 80t-94 -80z" />
    <glyph glyph-name="eacute" unicode="&#xe9;" horiz-adv-x="532" 
d="M465 660l-2 -39q-97 -61 -214 -101l-43 48l155 171zM441 174l42 -108q-116 -75 -238 -75q-118 0 -177 67t-42 189t89.5 185.5t190.5 63.5q109 0 163.5 -63t36.5 -177q-4 -28 -12 -61h-301q0 -36 16 -50.5t54 -14.5q78 0 178 44zM207 292h149q13 80 -55 80t-94 -80z" />
    <glyph glyph-name="ecircumflex" unicode="&#xea;" horiz-adv-x="532" 
d="M485 577l-44 -45l-63 36l-60 34l-133 -69l-43 46l137 135h97zM441 174l42 -108q-116 -75 -238 -75q-118 0 -177 67t-42 189t89.5 185.5t190.5 63.5q109 0 163.5 -63t36.5 -177q-4 -28 -12 -61h-301q0 -36 16 -50.5t54 -14.5q78 0 178 44zM207 292h149q13 80 -55 80
t-94 -80z" />
    <glyph glyph-name="edieresis" unicode="&#xeb;" horiz-adv-x="532" 
d="M205 542q-37 0 -61.5 25t-18.5 66q5 34 31 53t58 19q39 0 62 -25t18 -67q-5 -35 -29.5 -53t-59.5 -18zM419 542q-39 0 -62.5 25t-17.5 66q5 35 29.5 53.5t58.5 18.5q37 0 61.5 -25.5t18.5 -66.5q-5 -34 -30.5 -52.5t-57.5 -18.5zM441 174l42 -108q-116 -75 -238 -75
q-118 0 -177 67t-42 189t89.5 185.5t190.5 63.5q109 0 163.5 -63t36.5 -177q-4 -28 -12 -61h-301q0 -36 16 -50.5t54 -14.5q78 0 178 44zM207 292h149q13 80 -55 80t-94 -80z" />
    <glyph glyph-name="igrave" unicode="&#xec;" horiz-adv-x="281" 
d="M301 568l-46 -44q-112 41 -188 103v33l124 79zM265 487l-68 -487h-181l68 487h181z" />
    <glyph glyph-name="iacute" unicode="&#xed;" horiz-adv-x="281" 
d="M238 739l104 -79l-2 -39q-94 -60 -214 -101l-42 48zM265 487l-68 -487h-181l68 487h181z" />
    <glyph glyph-name="icircumflex" unicode="&#xee;" horiz-adv-x="281" 
d="M363 577l-45 -45q-24 15 -66 38t-57 32l-132 -69l-43 46l137 135h96zM84 487h181l-68 -487h-181z" />
    <glyph glyph-name="idieresis" unicode="&#xef;" horiz-adv-x="281" 
d="M91 705q39 0 62.5 -25t17.5 -67q-5 -34 -29.5 -52.5t-58.5 -18.5q-37 0 -61.5 25t-18.5 66q5 34 30.5 53t57.5 19zM305 705q37 0 61.5 -25.5t18.5 -66.5q-5 -34 -31 -52.5t-58 -18.5q-39 0 -62.5 25t-16.5 66q5 35 29.5 53.5t58.5 18.5zM265 487l-68 -487h-181l68 487
h181z" />
    <glyph glyph-name="eth" unicode="&#xf0;" horiz-adv-x="562" 
d="M495 605l-59 -22q65 -84 90.5 -161.5t10.5 -185.5q-17 -119 -91.5 -182t-194.5 -63q-122 0 -182 68t-43 189q14 100 88 162.5t192 59.5q-18 24 -43 49l-101 -37l-13 59l64 24q-11 10 -47 37v21l186 61l44 -52l86 32zM261 133q84 0 99 113q8 66 -2 114q-81 -3 -114.5 -33
t-43.5 -102q-7 -52 8 -72.5t53 -19.5z" />
    <glyph glyph-name="ntilde" unicode="&#xf1;" horiz-adv-x="570" 
d="M335 568l-51 28q-10 6 -17.5 6.5t-16.5 -5t-16 -13l-21 -22.5l-62 10q9 50 30.5 82t49.5 41.5t55.5 8t52.5 -13.5l50 -26q19 -10 32.5 -2t41.5 38l66 -10q-8 -51 -31 -83.5t-52.5 -42.5t-58 -9t-52.5 13zM257 487l-7 -54q101 62 168 62q78 0 106.5 -45.5t14.5 -144.5
l-43 -305h-181l37 263q5 35 -1.5 48.5t-30.5 13.5q-37 0 -91 -41l-40 -284h-181l68 487h181z" />
    <glyph glyph-name="ograve" unicode="&#xf2;" horiz-adv-x="562" 
d="M442 568l-47 -44q-109 40 -188 103v33l124 79zM311 496q127 0 184.5 -66.5t40.5 -191.5q-16 -121 -90 -184t-196 -63q-127 0 -184 66.5t-40 188.5q17 123 90.5 186.5t194.5 63.5zM259 133q85 0 101 116q7 56 -8 80.5t-52 24.5q-84 0 -100 -118q-8 -55 7 -79t52 -24z" />
    <glyph glyph-name="oacute" unicode="&#xf3;" horiz-adv-x="562" 
d="M379 739l104 -79l-2 -39q-97 -61 -214 -101l-43 48zM311 496q127 0 184.5 -66.5t40.5 -191.5q-16 -121 -90 -184t-196 -63q-127 0 -184 66.5t-40 188.5q17 123 90.5 186.5t194.5 63.5zM259 133q85 0 101 116q7 56 -8 80.5t-52 24.5q-84 0 -100 -118q-8 -55 7 -79t52 -24z
" />
    <glyph glyph-name="ocircumflex" unicode="&#xf4;" horiz-adv-x="562" 
d="M503 577l-44 -45l-63 36l-60 34l-133 -69l-43 46l137 135h97zM311 496q127 0 184.5 -66.5t40.5 -191.5q-16 -121 -90 -184t-196 -63q-127 0 -184 66.5t-40 188.5q17 123 90.5 186.5t194.5 63.5zM360 249q7 56 -8 80.5t-52 24.5q-84 0 -100 -118q-8 -55 7 -79t52 -24
q85 0 101 116z" />
    <glyph glyph-name="otilde" unicode="&#xf5;" horiz-adv-x="562" 
d="M459 700l66 -10q-8 -51 -31 -83.5t-52.5 -42.5t-58 -9t-52.5 13l-51 28q-10 6 -17.5 6.5t-16.5 -5t-16 -13l-21 -22.5l-62 10q9 50 30.5 82t49.5 41.5t55.5 8t52.5 -13.5l50 -26q19 -10 32.5 -2t41.5 38zM311 496q127 0 184.5 -66.5t40.5 -191.5q-16 -121 -90 -184
t-196 -63q-127 0 -184 66.5t-40 188.5q17 123 90.5 186.5t194.5 63.5zM259 133q85 0 101 116q7 56 -8 80.5t-52 24.5q-84 0 -100 -118q-8 -55 7 -79t52 -24z" />
    <glyph glyph-name="odieresis" unicode="&#xf6;" horiz-adv-x="562" 
d="M232 705q39 0 62 -25t18 -67q-5 -35 -29.5 -53t-59.5 -18q-37 0 -61.5 25t-18.5 66q5 34 31 53t58 19zM445 705q37 0 61.5 -25.5t18.5 -66.5q-5 -34 -30.5 -52.5t-57.5 -18.5q-39 0 -62.5 25t-17.5 66q5 35 29.5 53.5t58.5 18.5zM311 496q127 0 184.5 -66.5t40.5 -191.5
q-16 -121 -90 -184t-196 -63q-127 0 -184 66.5t-40 188.5q17 123 90.5 186.5t194.5 63.5zM259 133q85 0 101 116q7 56 -8 80.5t-52 24.5q-84 0 -100 -118q-8 -55 7 -79t52 -24z" />
    <glyph glyph-name="divide" unicode="&#xf7;" horiz-adv-x="505" 
d="M212 420q4 22 21 36.5t41 14.5q30 0 46 -20.5t12 -51.5q-3 -22 -20 -36.5t-42 -14.5q-29 0 -46 21t-12 51zM447 182h-408l18 129h409zM172 93q3 23 19.5 37t41.5 14q29 0 45.5 -20.5t12.5 -50.5q-3 -23 -19.5 -37t-41.5 -14q-30 0 -46.5 20.5t-11.5 50.5z" />
    <glyph glyph-name="oslash" unicode="&#xf8;" horiz-adv-x="562" 
d="M549 448l-40 -36q42 -65 27 -174q-16 -122 -90 -184.5t-196 -62.5q-103 0 -161 44l-43 -39l-42 47l44 39q-37 64 -22 164q17 123 90.5 186.5t194.5 63.5q95 0 154 -39l42 37zM198 217l141 127q-15 9 -39 9q-84 0 -100 -117zM362 280l-148 -132q15 -15 45 -15
q85 0 101 115q2 24 2 32z" />
    <glyph glyph-name="ugrave" unicode="&#xf9;" horiz-adv-x="574" 
d="M448 568l-47 -44q-109 40 -188 103v33l124 79zM563 487l-68 -487h-181l6 46q-92 -55 -150 -55q-165 0 -139 191l43 305h181l-37 -267q-5 -35 1 -49t28 -14q36 0 95 41l40 289h181z" />
    <glyph glyph-name="uacute" unicode="&#xfa;" horiz-adv-x="574" 
d="M489 660l-2 -39q-97 -61 -214 -101l-43 48l155 171zM563 487l-68 -487h-181l6 46q-92 -55 -150 -55q-165 0 -139 191l43 305h181l-37 -267q-5 -35 1 -49t28 -14q36 0 95 41l40 289h181z" />
    <glyph glyph-name="ucircumflex" unicode="&#xfb;" horiz-adv-x="574" 
d="M509 577l-44 -45l-63 36l-60 34l-133 -69l-43 46l137 135h97zM563 487l-68 -487h-181l6 46q-92 -55 -150 -55q-165 0 -138 191l43 305h181l-38 -267q-5 -36 1 -49.5t29 -13.5q35 0 94 41l40 289h181z" />
    <glyph glyph-name="udieresis" unicode="&#xfc;" horiz-adv-x="574" 
d="M229 542q-37 0 -61.5 25t-18.5 66q5 34 31 53t58 19q39 0 62 -25t18 -67q-5 -35 -29.5 -53t-59.5 -18zM443 542q-39 0 -62.5 25t-17.5 66q5 35 29.5 53.5t58.5 18.5q37 0 61.5 -25.5t18.5 -66.5q-5 -34 -30.5 -52.5t-57.5 -18.5zM563 487l-68 -487h-181l6 46
q-92 -55 -150 -55q-165 0 -139 191l43 305h181l-37 -267q-5 -35 1 -49t28 -14q36 0 95 41l40 289h181z" />
    <glyph glyph-name="yacute" unicode="&#xfd;" horiz-adv-x="569" 
d="M487 660l-2 -39q-97 -61 -214 -101l-43 48l155 171zM410 487l192 -1l-48.5 -104.5l-55 -117.5t-44 -86.5t-52.5 -91.5q-126 -186 -339 -272l-58 139q88 40 142 89l-111 444h186l44 -203q10 -50 13 -74q49 80 131 278z" />
    <glyph glyph-name="thorn" unicode="&#xfe;" horiz-adv-x="574" 
d="M277 625l-25 -177q79 47 146 47q186 0 151 -254q-18 -127 -78 -188.5t-140 -61.5q-33 0 -58.5 7.5t-39.5 17t-38 30.5l-27 -198h-182l110 777h181zM232 306l-20 -142q30 -24 66 -24q37 0 61.5 29t32.5 86q7 48 -5 68.5t-43 20.5q-38 0 -92 -38z" />
    <glyph glyph-name="ydieresis" unicode="&#xff;" horiz-adv-x="569" 
d="M227 542q-37 0 -61.5 25t-18.5 66q5 34 31 53t58 19q39 0 62 -25t18 -67q-5 -35 -29.5 -53t-59.5 -18zM441 542q-39 0 -62.5 25t-17.5 66q5 35 29.5 53.5t58.5 18.5q37 0 61.5 -25.5t18.5 -66.5q-5 -34 -30.5 -52.5t-57.5 -18.5zM410 487l192 -1l-48.5 -104.5l-55 -117.5
t-44 -86.5t-52.5 -91.5q-126 -186 -339 -272l-58 139q88 40 142 89l-111 444h186l44 -203q10 -50 13 -74q49 80 131 278z" />
    <glyph glyph-name="Amacron" unicode="&#x100;" horiz-adv-x="707" 
d="M573 669h-317l17 124h317zM453 91h-238l-43 -91h-200l305 610h255l133 -610h-195zM423 250l-27 146q-7 34 -10 63h-1q-8 -25 -28 -67l-67 -142h133z" />
    <glyph glyph-name="amacron" unicode="&#x101;" horiz-adv-x="577" 
d="M494 559h-326l18 128h326zM569 487l-68 -487h-181l5 41q-37 -28 -65 -39t-73 -11q-85 0 -131.5 67t-28.5 198q34 240 207 240q78 0 148 -52l6 43h181zM344 178l19 134q-33 32 -69 32q-76 0 -89 -102q-8 -54 4.5 -77.5t44.5 -23.5q42 0 90 37z" />
    <glyph glyph-name="Abreve" unicode="&#x102;" horiz-adv-x="707" 
d="M486 801h101q-20 -144 -169 -144q-77 0 -115 38.5t-29 105.5h99q-2 -46 47 -46q28 0 45 13.5t21 32.5zM453 91h-238l-43 -91h-200l305 610h255l133 -610h-195zM423 250l-27 146q-7 34 -10 63h-1q-8 -25 -28 -67l-67 -142h133z" />
    <glyph glyph-name="abreve" unicode="&#x103;" horiz-adv-x="577" 
d="M415 690h101q-10 -70 -53 -107t-117 -37q-77 0 -115 38.5t-28 105.5h99q-4 -46 46 -46q28 0 45 13t22 33zM569 487l-68 -487h-181l5 41q-37 -28 -65 -39t-73 -11q-85 0 -131.5 67t-28.5 198q34 240 207 240q78 0 148 -52l6 43h181zM344 178l19 134q-33 32 -69 32
q-76 0 -89 -102q-8 -54 4.5 -77.5t44.5 -23.5q42 0 90 37z" />
    <glyph glyph-name="Aogonek" unicode="&#x104;" horiz-adv-x="713" 
d="M665 0h-67q-45 -2 -73 -16.5t-32 -40.5q-3 -25 49 -25q10 0 87 11l13 -89q-74 -28 -151 -28q-58 0 -90 28.5t-26 73.5q10 67 92 99l-14 78h-238l-43 -91h-200l305 610h255zM423 250l-27 146q-7 34 -10 63h-1q-6 -20 -27 -67l-68 -142h133z" />
    <glyph glyph-name="aogonek" unicode="&#x105;" horiz-adv-x="577" 
d="M501 0h-47q-41 -2 -68 -17t-31 -40q-3 -26 49 -26q15 0 87 12l13 -90q-71 -27 -152 -27q-58 0 -90 28.5t-25 73.5q10 64 84 97l4 30q-37 -28 -65 -39t-73 -11q-85 0 -131.5 67t-28.5 198q34 240 207 240q78 0 148 -52l6 43h181zM344 178l19 134q-33 32 -69 32
q-76 0 -89 -102q-8 -54 4.5 -77.5t44.5 -23.5q42 0 90 37z" />
    <glyph glyph-name="Cacute" unicode="&#x106;" horiz-adv-x="610" 
d="M423 846l123 -70l-2 -39q-91 -54 -213 -92l-42 48zM528 201l48 -143q-138 -67 -270 -67q-137 0 -208 75.5t-60 213.5q10 157 105 248.5t246 91.5q122 0 231 -57l-69 -137q-101 27 -161 27q-71 0 -114.5 -44.5t-49.5 -124.5q-5 -58 21 -91.5t81 -33.5q82 0 200 42z" />
    <glyph glyph-name="cacute" unicode="&#x107;" horiz-adv-x="492" 
d="M358 739l104 -79l-2 -39q-94 -60 -214 -101l-42 48zM416 174l46 -114q-57 -38 -109.5 -53.5t-121.5 -15.5q-103 0 -162.5 69t-42.5 188q17 120 89 184t178 64q107 0 199 -56l-59 -110q-65 24 -124 24q-91 0 -107 -117q-8 -53 8 -76t58 -23q70 0 148 36z" />
    <glyph glyph-name="Cdotaccent" unicode="&#x10a;" horiz-adv-x="610" 
d="M410 832q39 0 64 -26.5t19 -69.5q-5 -35 -32.5 -55t-60.5 -20q-41 0 -65.5 26t-18.5 69q6 37 32 56.5t62 19.5zM528 201l48 -143q-138 -67 -270 -67q-137 0 -208 75.5t-60 213.5q10 157 105 248.5t246 91.5q122 0 231 -57l-69 -137q-101 27 -161 27q-71 0 -114.5 -44.5
t-49.5 -124.5q-5 -58 21 -91.5t81 -33.5q82 0 200 42z" />
    <glyph glyph-name="cdotaccent" unicode="&#x10b;" horiz-adv-x="492" 
d="M320 718q39 0 66 -28t21 -73q-5 -37 -34 -58.5t-64 -21.5q-43 0 -68.5 27.5t-18.5 72.5q5 39 32.5 60t65.5 21zM416 174l46 -114q-57 -38 -109.5 -53.5t-121.5 -15.5q-103 0 -162.5 69t-42.5 188q17 120 89 184t178 64q107 0 199 -56l-59 -110q-65 24 -124 24
q-91 0 -107 -117q-8 -53 8 -76t58 -23q70 0 148 36z" />
    <glyph glyph-name="Ccaron" unicode="&#x10c;" horiz-adv-x="610" 
d="M342 651l-115 141l49 47l130 -79l149 79l41 -47l-152 -141h-102zM620 563l-69 -137q-101 27 -161 27q-71 0 -114.5 -44.5t-49.5 -124.5q-5 -58 21 -91.5t81 -33.5q82 0 200 42l48 -143q-138 -67 -270 -67q-137 0 -208 75.5t-60 213.5q10 157 105 248.5t246 91.5
q122 0 231 -57z" />
    <glyph glyph-name="ccaron" unicode="&#x10d;" horiz-adv-x="492" 
d="M254 531l-109 143l45 42q23 -15 65 -40t53 -32l149 77l41 -47l-147 -143h-97zM492 440l-59 -110q-65 24 -124 24q-91 0 -107 -117q-8 -53 8 -76t58 -23q70 0 148 36l46 -114q-57 -38 -109.5 -53.5t-121.5 -15.5q-103 0 -162.5 69t-42.5 188q17 120 89 184t178 64
q107 0 199 -56z" />
    <glyph glyph-name="Dcaron" unicode="&#x10e;" horiz-adv-x="659" 
d="M301 642l-115 141l49 47l130 -79l149 79l41 -47l-152 -141h-102zM101 610h240q153 0 229.5 -71t67.5 -199q-11 -158 -108.5 -249t-259.5 -91h-255zM224 159h48q166 0 178 173q6 62 -24.5 91t-101.5 29h-59z" />
    <glyph glyph-name="dcaron" unicode="&#x10f;" horiz-adv-x="610" 
d="M411 643h181l-91 -643h-181l6 41q-36 -28 -65 -39t-74 -11q-85 0 -131.5 66.5t-28.5 197.5q34 240 207 240q84 0 148 -55zM756 643l-2 -17q-23 -101 -73 -172h-81l28 189h128zM345 177l19 134q-34 33 -70 33q-77 0 -90 -102q-15 -101 50 -101q44 0 91 36z" />
    <glyph glyph-name="Dcroat" unicode="&#x110;" horiz-adv-x="664" 
d="M106 610h240q154 0 230 -71t68 -199q-11 -158 -108.5 -249t-259.5 -91h-256l33 233h-52l21 143h51zM229 159h49q166 0 178 173q5 62 -25.5 91t-101.5 29h-59l-10 -76h81l-21 -143h-80z" />
    <glyph glyph-name="dcroat" unicode="&#x111;" horiz-adv-x="612" 
d="M636 514h-63l-72 -514h-181l6 41q-36 -28 -65 -39t-74 -11q-85 0 -131.5 66.5t-28.5 197.5q34 240 207 240q84 0 148 -55l10 74h-81l12 82h81l7 47h181l-7 -47h62zM345 177l19 134q-34 33 -70 33q-77 0 -90 -102q-15 -101 50 -101q44 0 91 36z" />
    <glyph glyph-name="Emacron" unicode="&#x112;" horiz-adv-x="559" 
d="M492 669h-317l17 124h317zM263 450l-10 -74h236l-21 -146h-236l-10 -73h286l-22 -157h-471l86 610h463l-22 -160h-279z" />
    <glyph glyph-name="emacron" unicode="&#x113;" horiz-adv-x="532" 
d="M470 559h-326l19 128h326zM441 174l42 -108q-116 -75 -238 -75q-118 0 -177 67t-42 189t89.5 185.5t190.5 63.5q109 0 163.5 -63t36.5 -177q-4 -28 -12 -61h-301q0 -36 16 -50.5t54 -14.5q78 0 178 44zM207 292h149q13 80 -55 80t-94 -80z" />
    <glyph glyph-name="Edotaccent" unicode="&#x116;" horiz-adv-x="559" 
d="M338 652q-41 0 -65.5 26t-18.5 69q6 37 32 56.5t62 19.5q39 0 64 -26.5t19 -69.5q-5 -35 -32.5 -55t-60.5 -20zM263 450l-10 -74h236l-21 -146h-236l-10 -73h286l-22 -157h-471l86 610h463l-22 -160h-279z" />
    <glyph glyph-name="edotaccent" unicode="&#x117;" horiz-adv-x="532" 
d="M312 537q-43 0 -69 27.5t-19 72.5q6 39 33 60t65 21q40 0 66.5 -28t20.5 -73q-5 -37 -34 -58.5t-63 -21.5zM441 174l42 -108q-116 -75 -238 -75q-118 0 -177 67t-42 189t89.5 185.5t190.5 63.5q109 0 163.5 -63t36.5 -177q-4 -28 -12 -61h-301q0 -36 16 -50.5t54 -14.5
q78 0 178 44zM207 292h149q13 80 -55 80t-94 -80z" />
    <glyph glyph-name="Eogonek" unicode="&#x118;" horiz-adv-x="559" 
d="M263 449l-10 -74h235l-20 -145h-236l-10 -74h286l-22 -156h-79q-41 -2 -68 -17t-31 -40q-3 -26 49 -26q15 0 87 12l13 -90q-71 -27 -151 -27q-58 0 -90 28.5t-25 73.5q8 54 63 86h-239l86 610h463l-22 -160z" />
    <glyph glyph-name="eogonek" unicode="&#x119;" horiz-adv-x="532" 
d="M364 -71l13 -89q-74 -28 -151 -28q-58 0 -90 28.5t-25 73.5q6 52 60 85q-82 19 -121 83t-24 165q17 122 89.5 185.5t190.5 63.5q109 0 163.5 -63t36.5 -177q-4 -28 -12 -61h-301q0 -36 16 -50.5t54 -14.5q78 0 178 44l42 -108q-101 -65 -202 -74q-49 -15 -53 -49
q-3 -26 49 -26q15 0 87 12zM207 292h149q13 80 -55 80t-94 -80z" />
    <glyph glyph-name="Ecaron" unicode="&#x11a;" horiz-adv-x="559" 
d="M280 642l-115 141l49 47l130 -79l149 79l41 -47l-152 -141h-102zM263 450l-10 -74h236l-21 -146h-236l-10 -73h286l-22 -157h-471l86 610h463l-22 -160h-279z" />
    <glyph glyph-name="ecaron" unicode="&#x11b;" horiz-adv-x="532" 
d="M257 531l-110 143l45 42l119 -72l148 77l41 -47l-147 -143h-96zM441 174l42 -108q-116 -75 -238 -75q-118 0 -177 67t-42 189t89.5 185.5t190.5 63.5q109 0 163.5 -63t36.5 -177q-4 -28 -12 -61h-301q0 -36 16 -50.5t54 -14.5q78 0 178 44zM207 292h149q13 80 -55 80
t-94 -80z" />
    <glyph glyph-name="Gbreve" unicode="&#x11e;" horiz-adv-x="675" 
d="M468 801h101q-20 -144 -169 -144q-77 0 -115 38.5t-29 105.5h99q-2 -46 47 -46q28 0 45 13.5t21 32.5zM653 354l-38 -285q-163 -78 -310 -78q-138 0 -208.5 78t-58.5 207q10 158 103 251t244 93q142 0 266 -57l-58 -135q-123 30 -203 30q-69 0 -114 -49.5t-50 -127.5
q-5 -60 22.5 -93.5t80.5 -33.5q76 0 134 17l7 48h-136l19 135h300z" />
    <glyph glyph-name="gbreve" unicode="&#x11f;" horiz-adv-x="574" 
d="M418 690h101q-20 -144 -169 -144q-77 0 -115 38.5t-29 105.5h99q-2 -46 47 -46q28 0 45 13.5t21 32.5zM569 487l-57 -398q-20 -141 -89 -204.5t-197 -63.5q-119 0 -212 40l34 117q95 -21 160 -21q49 0 78.5 26.5t41.5 85.5q-33 -28 -64 -38t-82 -10q-88 0 -129.5 63
t-24.5 180q17 120 67.5 176t137.5 56q78 0 147 -64l8 55h181zM348 202l15 106q-30 36 -70 36q-76 0 -89 -94q-7 -51 6 -69.5t47 -18.5q48 0 91 40z" />
    <glyph glyph-name="Gdotaccent" unicode="&#x120;" horiz-adv-x="675" 
d="M411 823q39 0 64 -26.5t19 -69.5q-5 -35 -32.5 -55t-60.5 -20q-41 0 -65.5 26t-18.5 69q6 37 32 56.5t62 19.5zM653 354l-38 -285q-163 -78 -310 -78q-138 0 -208.5 78t-58.5 207q10 158 103 251t244 93q142 0 266 -57l-58 -135q-123 30 -203 30q-69 0 -114 -49.5
t-50 -127.5q-5 -60 22.5 -93.5t80.5 -33.5q76 0 134 17l7 48h-136l19 135h300z" />
    <glyph glyph-name="gdotaccent" unicode="&#x121;" horiz-adv-x="574" 
d="M339 537q-43 0 -69 27.5t-19 72.5q6 39 33 60t65 21q40 0 66.5 -28t20.5 -73q-5 -37 -34 -58.5t-63 -21.5zM569 487l-57 -398q-20 -141 -89 -204.5t-197 -63.5q-119 0 -212 40l34 117q95 -21 160 -21q49 0 78.5 26.5t41.5 85.5q-33 -28 -64 -38t-82 -10q-88 0 -129.5 63
t-24.5 180q17 120 67.5 176t137.5 56q78 0 147 -64l8 55h181zM348 202l15 106q-30 36 -70 36q-76 0 -89 -94q-7 -51 6 -69.5t47 -18.5q48 0 91 40z" />
    <glyph glyph-name="Gcommaaccent" unicode="&#x122;" horiz-adv-x="675" 
d="M653 354l-38 -285q-163 -78 -310 -78q-138 0 -208.5 78t-58.5 207q10 158 103 251t244 93q142 0 266 -57l-58 -135q-123 30 -203 30q-69 0 -114 -49.5t-50 -127.5q-5 -60 22.5 -93.5t80.5 -33.5q76 0 134 17l7 48h-136l19 135h300zM226 -242l-18 46q31 15 46 30
q-41 21 -33 72q3 27 22.5 43.5t48.5 16.5q33 0 51.5 -24.5t13.5 -61.5v-2q-15 -90 -131 -120z" />
    <glyph glyph-name="gcommaaccent" unicode="&#x123;" horiz-adv-x="574" 
d="M376 777l19 -54q-30 -13 -51 -32q46 -25 38 -82q-5 -30 -28 -50t-55 -20q-37 0 -58 28.5t-15 69.5q7 49 40.5 80.5t109.5 59.5zM569 487l-57 -398q-20 -141 -89 -204.5t-197 -63.5q-119 0 -212 40l34 117q95 -21 160 -21q49 0 78.5 26.5t41.5 85.5q-33 -28 -64 -38
t-82 -10q-88 0 -129.5 63t-24.5 180q17 120 67.5 176t137.5 56q78 0 147 -64l8 55h181zM348 202l15 106q-30 36 -70 36q-76 0 -89 -94q-7 -51 6 -69.5t47 -18.5q48 0 91 40z" />
    <glyph glyph-name="Hbar" unicode="&#x126;" horiz-adv-x="684" 
d="M693 413h-42l-57 -413h-187l26 186h-198l-26 -186h-186l57 413h-42l17 122h42l11 75h186l-11 -75h199l11 75h186l-11 -75h42zM465 413h-199l-9 -66h199z" />
    <glyph glyph-name="hbar" unicode="&#x127;" horiz-adv-x="568" 
d="M259 514l-12 -86q100 68 169 68q78 0 106.5 -45.5t14.5 -145.5l-43 -305h-181l36 258q5 37 -1 49.5t-29 12.5q-41 0 -93 -42l-39 -278h-181l72 514h-32l12 82h32l7 47h181l-7 -47h111l-12 -82h-111z" />
    <glyph glyph-name="Imacron" unicode="&#x12a;" horiz-adv-x="285" 
d="M379 793l-17 -124h-318l17 124h318zM287 610l-85 -610h-187l86 610h186z" />
    <glyph glyph-name="imacron" unicode="&#x12b;" horiz-adv-x="281" 
d="M366 687l-18 -128h-326l18 128h326zM265 487l-68 -487h-181l68 487h181z" />
    <glyph glyph-name="Iogonek" unicode="&#x12e;" horiz-adv-x="285" 
d="M202 0h-34q-41 -2 -68 -16.5t-31 -40.5q-3 -25 49 -25q10 0 87 11l13 -89q-74 -28 -152 -28q-58 0 -90 28.5t-25 73.5q8 53 64 86l86 610h186z" />
    <glyph glyph-name="iogonek" unicode="&#x12f;" horiz-adv-x="281" 
d="M200 718q39 0 66 -28t21 -73q-5 -37 -34 -58.5t-64 -21.5q-43 0 -68.5 27.5t-18.5 72.5q5 39 32.5 60t65.5 21zM197 0h-20q-41 -2 -68 -17t-31 -40q-3 -26 49 -26q15 0 87 12l13 -90q-71 -27 -151 -27q-58 0 -90 28.5t-25 73.5q8 54 63 86h-8l68 487h181z" />
    <glyph glyph-name="Idotaccent" unicode="&#x130;" horiz-adv-x="285" 
d="M217 823q38 0 64 -26t20 -70q-5 -35 -32.5 -55t-60.5 -20q-41 0 -65.5 26t-18.5 69q5 37 31 56.5t62 19.5zM287 610l-85 -610h-187l86 610h186z" />
    <glyph glyph-name="dotlessi" unicode="&#x131;" horiz-adv-x="281" 
d="M265 487l-68 -487h-181l68 487h181z" />
    <glyph glyph-name="IJ" unicode="&#x132;" horiz-adv-x="756" 
d="M287 610l-85 -610h-187l86 610h186zM759 610l-51 -366q-20 -137 -75.5 -195t-168.5 -58q-95 0 -204 57l54 126q69 -20 119 -20q75 0 89 94l51 362h186z" />
    <glyph glyph-name="ij" unicode="&#x133;" horiz-adv-x="545" 
d="M94 639q6 40 36 61t70 21q45 0 73 -27.5t22 -75.5q-6 -40 -36 -61t-70 -21q-45 0 -73 27.5t-22 75.5zM463 721q45 0 73 -27.5t22 -75.5q-6 -40 -36.5 -61t-70.5 -21q-45 0 -72.5 27.5t-21.5 75.5q6 40 36 61t70 21zM265 487l-68 -487h-181l68 487h181zM529 487l-59 -418
q-14 -104 -68 -164t-174 -85l-25 125q44 22 62 50t25 78l58 414h181z" />
    <glyph glyph-name="Kcommaaccent" unicode="&#x136;" horiz-adv-x="660" 
d="M684 596l-241 -253l169 -328l-3 -15h-202l-98 202l-93 -99l-14 -103h-187l86 610h186l-34 -243l231 243h204zM214 -242l-17 46q32 16 46 30q-19 10 -28 29.5t-6 42.5q4 27 23.5 43.5t47.5 16.5q33 0 51.5 -24.5t13.5 -61.5v-2q-15 -90 -131 -120z" />
    <glyph glyph-name="kcommaaccent" unicode="&#x137;" horiz-adv-x="569" 
d="M584 472l-204 -203l143 -251l-3 -18h-186l-83 142l-49 -48l-13 -94h-181l91 643h181l-44 -306l153 150h199zM171 -241l-18 45q31 15 46 30q-41 21 -33 72q3 27 22.5 43.5t48.5 16.5q33 0 51.5 -24.5t13.5 -61.5v-2q-15 -90 -131 -119z" />
    <glyph glyph-name="Lacute" unicode="&#x139;" horiz-adv-x="525" 
d="M367 767l-1 -39q-92 -54 -213 -92l-43 48l134 153zM488 170l-23 -170h-450l86 610h186l-62 -440h263z" />
    <glyph glyph-name="lacute" unicode="&#x13a;" horiz-adv-x="265" 
d="M258 895l104 -79l-2 -39q-94 -60 -214 -101l-42 48zM280 643l-91 -643h-181l91 643h181z" />
    <glyph glyph-name="Lcommaaccent" unicode="&#x13b;" horiz-adv-x="525" 
d="M488 170l-23 -170h-450l86 610h186l-62 -440h263zM150 -242l-17 46q32 16 46 30q-19 10 -28 29.5t-6 42.5q4 27 23.5 43.5t47.5 16.5q33 0 51.5 -24.5t13.5 -61.5v-2q-15 -90 -131 -120z" />
    <glyph glyph-name="lcommaaccent" unicode="&#x13c;" horiz-adv-x="265" 
d="M280 643l-91 -643h-181l91 643h181zM21 -242l-18 46q31 15 46 30q-41 21 -33 72q3 27 22.5 43.5t48.5 16.5q33 0 51.5 -24.5t13.5 -61.5v-2q-15 -90 -131 -120z" />
    <glyph glyph-name="Lcaron" unicode="&#x13d;" horiz-adv-x="525" 
d="M488 170l-23 -170h-450l86 610h186l-62 -440h263zM475 610l-3 -16q-22 -103 -73 -172h-81l28 188h129z" />
    <glyph glyph-name="lcaron" unicode="&#x13e;" horiz-adv-x="300" 
d="M280 643l-91 -643h-181l91 643h181zM321 643h128l-2 -17q-23 -101 -73 -172h-81z" />
    <glyph glyph-name="Ldot" unicode="&#x13f;" horiz-adv-x="525" 
d="M225 170h263l-23 -170h-450l86 610h186zM421 447q46 0 72 -30.5t21 -76.5q-5 -42 -35.5 -70t-74.5 -28q-47 0 -72.5 30.5t-20.5 76.5q5 42 35.5 70t74.5 28z" />
    <glyph glyph-name="ldot" unicode="&#x140;" horiz-adv-x="477" 
d="M280 643l-91 -643h-181l91 643h181zM274 322q5 42 35.5 70t74.5 28q46 0 72 -30.5t21 -76.5q-5 -42 -35.5 -70t-74.5 -28q-47 0 -72.5 30.5t-20.5 76.5z" />
    <glyph glyph-name="Lslash" unicode="&#x141;" horiz-adv-x="528" 
d="M491 170l-23 -170h-450l31 224l-47 -12l20 143l47 12l35 243h186l-27 -193l118 30l-20 -144l-118 -30l-15 -103h263z" />
    <glyph glyph-name="lslash" unicode="&#x142;" horiz-adv-x="265" 
d="M278 303l-48 -15l-41 -288h-181l32 229l-45 -13l21 143l45 14l38 270h181l-30 -211l48 15z" />
    <glyph glyph-name="Nacute" unicode="&#x143;" horiz-adv-x="683" 
d="M429 837l123 -70l-2 -39q-91 -54 -213 -92l-42 48zM599 0h-167l-188 309q-1 -10 -3.5 -29t-3.5 -29l-35 -251h-187l86 610h167l189 -309q2 28 6 55l36 254h186z" />
    <glyph glyph-name="nacute" unicode="&#x144;" horiz-adv-x="570" 
d="M487 660l-2 -39q-97 -61 -214 -101l-43 48l155 171zM257 487l-7 -54q101 62 168 62q78 0 106.5 -45.5t14.5 -144.5l-43 -305h-181l37 263q5 35 -1.5 48.5t-30.5 13.5q-37 0 -91 -41l-40 -284h-181l68 487h181z" />
    <glyph glyph-name="Ncommaaccent" unicode="&#x145;" horiz-adv-x="683" 
d="M685 610l-86 -610h-167l-188 309q-1 -10 -3.5 -29t-3.5 -29l-35 -251h-187l86 610h167l189 -309q2 28 6 55l36 254h186zM228 -241l-17 45q32 16 46 30q-19 10 -28 29.5t-6 42.5q4 27 23.5 43.5t47.5 16.5q33 0 51.5 -24.5t13.5 -61.5v-2q-15 -91 -131 -119z" />
    <glyph glyph-name="ncommaaccent" unicode="&#x146;" horiz-adv-x="570" 
d="M257 487l-7 -54q101 62 168 62q78 0 106.5 -45.5t14.5 -144.5l-43 -305h-181l37 263q5 35 -1.5 48.5t-30.5 13.5q-37 0 -91 -41l-40 -284h-181l68 487h181zM171 -241l-17 45q31 15 46 30q-41 21 -33 72q3 27 22.5 43.5t48.5 16.5q33 0 51.5 -24.5t13.5 -61.5v-2
q-15 -91 -132 -119z" />
    <glyph glyph-name="Ncaron" unicode="&#x147;" horiz-adv-x="683" 
d="M328 642l-115 141l49 47l130 -79l149 79l41 -47l-152 -141h-102zM685 610l-86 -610h-167l-188 309q-1 -10 -3.5 -29t-3.5 -29l-35 -251h-187l86 610h167l189 -309q2 28 6 55l36 254h186z" />
    <glyph glyph-name="ncaron" unicode="&#x148;" horiz-adv-x="570" 
d="M279 531l-110 143l45 42l119 -72l148 77l41 -47l-147 -143h-96zM257 487l-7 -54q103 63 168 63q78 0 106.5 -45.5t14.5 -145.5l-43 -305h-181l37 263q5 35 -1.5 48.5t-30.5 13.5q-37 0 -91 -41l-40 -284h-181l68 487h181z" />
    <glyph glyph-name="Omacron" unicode="&#x14c;" horiz-adv-x="689" 
d="M580 793l-17 -124h-317l17 124h317zM393 620q151 0 223.5 -83t50.5 -235q-21 -149 -113 -230t-239 -81q-152 0 -224.5 83.5t-50.5 236.5q21 149 113 229t240 80zM329 159q63 0 102.5 39.5t48.5 112.5q8 70 -19 106t-86 36q-62 0 -100.5 -39t-47.5 -112
q-8 -70 18.5 -106.5t83.5 -36.5z" />
    <glyph glyph-name="omacron" unicode="&#x14d;" horiz-adv-x="562" 
d="M507 687l-19 -128h-326l19 128h326zM311 496q127 0 184.5 -66.5t40.5 -191.5q-16 -121 -90 -184t-196 -63q-127 0 -184 66.5t-40 188.5q17 123 90.5 186.5t194.5 63.5zM259 133q85 0 101 116q7 56 -8 80.5t-52 24.5q-84 0 -100 -118q-8 -55 7 -79t52 -24z" />
    <glyph glyph-name="Ohungarumlaut" unicode="&#x150;" horiz-adv-x="689" 
d="M344 841l109 -60l-2 -37q-93 -65 -161 -105l-59 41zM540 841l109 -60l-1 -37q-100 -69 -162 -105l-59 41zM393 620q151 0 223.5 -83t50.5 -235q-21 -149 -113 -230t-239 -81q-152 0 -224.5 83.5t-50.5 236.5q21 149 113 229t240 80zM329 159q63 0 102.5 39.5t48.5 112.5
q8 70 -19 106t-86 36q-62 0 -100.5 -39t-47.5 -112q-8 -70 18.5 -106.5t83.5 -36.5z" />
    <glyph glyph-name="ohungarumlaut" unicode="&#x151;" horiz-adv-x="562" 
d="M276 738l100 -59l-2 -39q-70 -58 -163 -113l-49 41zM464 738l100 -59l-2 -39q-66 -54 -163 -113l-50 41zM311 496q127 0 184.5 -66.5t40.5 -191.5q-16 -121 -90 -184t-196 -63q-127 0 -184 66.5t-40 188.5q17 123 90.5 186.5t194.5 63.5zM259 133q85 0 101 116
q7 56 -8 80.5t-52 24.5q-84 0 -100 -118q-8 -55 7 -79t52 -24z" />
    <glyph glyph-name="OE" unicode="&#x152;" horiz-adv-x="902" 
d="M606 449l-10 -74h235l-20 -145h-236l-10 -74h286l-22 -156h-431q-33 -9 -85 -9q-148 0 -221.5 84t-52.5 233q22 151 114.5 231.5t240.5 80.5q37 0 77 -10h436l-22 -160zM382 168l39 280q-22 5 -43 5q-61 0 -101 -38t-50 -111q-10 -72 16.5 -109t85.5 -37q29 0 53 10z" />
    <glyph glyph-name="oe" unicode="&#x153;" horiz-adv-x="868" 
d="M777 174l43 -108q-117 -75 -239 -75q-98 0 -156 47q-70 -47 -175 -47q-127 0 -184 66.5t-40 188.5q17 123 90.5 186.5t194.5 63.5q105 0 163 -46q69 46 169 46q109 0 163.5 -63t36.5 -177q-5 -31 -13 -61h-301q1 -36 16.5 -50.5t53.5 -14.5q79 0 178 44zM544 291h149
q11 81 -55 81q-68 0 -94 -81zM259 133q85 0 101 115q7 57 -8 81t-52 24q-84 0 -100 -117q-8 -55 7 -79t52 -24z" />
    <glyph glyph-name="Racute" unicode="&#x154;" horiz-adv-x="621" 
d="M505 767l-1 -39q-92 -54 -213 -92l-43 48l134 153zM101 610h253q139 0 199.5 -54.5t53.5 -163.5q-9 -149 -125 -209l96 -169l-4 -14h-198l-75 153h-78l-21 -153h-187zM244 301h88q88 0 91 88q2 30 -19 47t-63 18h-76z" />
    <glyph glyph-name="racute" unicode="&#x155;" horiz-adv-x="418" 
d="M407 660l-2 -39q-97 -61 -214 -101l-43 48l155 171zM257 487l-10 -73q36 44 66.5 62.5t67.5 18.5q21 0 61 -3l-31 -183q-22 1 -56 1q-86 0 -132 -69l-34 -241h-181l68 487h181z" />
    <glyph glyph-name="Rcommaaccent" unicode="&#x156;" horiz-adv-x="621" 
d="M101 610h253q139 0 199.5 -54.5t53.5 -163.5q-9 -149 -125 -209l96 -169l-4 -14h-198l-75 153h-78l-21 -153h-187zM244 301h88q88 0 91 88q2 30 -19 47t-63 18h-76zM194 -242l-17 46q30 15 45 30q-41 21 -33 72q4 26 23.5 43t47.5 17q33 0 51.5 -25t13.5 -61v-2
q-15 -90 -131 -120z" />
    <glyph glyph-name="rcommaaccent" unicode="&#x157;" horiz-adv-x="418" 
d="M257 487l-10 -73q36 44 66.5 62.5t67.5 18.5q21 0 61 -3l-31 -183q-22 1 -56 1q-86 0 -132 -69l-34 -241h-181l68 487h181zM21 -242l-17 46q30 15 45 30q-41 21 -33 72q4 26 23.5 43t47.5 17q33 0 51.5 -25t13.5 -61v-2q-15 -90 -131 -120z" />
    <glyph glyph-name="Rcaron" unicode="&#x158;" horiz-adv-x="621" 
d="M302 642l-116 141l49 47l130 -79l150 79l41 -47l-153 -141h-101zM101 610h253q139 0 199.5 -54.5t53.5 -163.5q-9 -149 -125 -209l96 -169l-4 -14h-198l-75 153h-78l-21 -153h-187zM244 301h88q88 0 91 88q2 30 -19 47t-63 18h-76z" />
    <glyph glyph-name="rcaron" unicode="&#x159;" horiz-adv-x="418" 
d="M199 531l-110 143l45 42l119 -72l148 77l41 -47l-147 -143h-96zM257 487l-10 -73q36 44 67 63t67 19q25 0 61 -4l-31 -183q-22 1 -56 1q-86 0 -132 -69l-34 -241h-181l68 487h181z" />
    <glyph glyph-name="Sacute" unicode="&#x15a;" horiz-adv-x="620" 
d="M397 837l123 -70l-2 -39q-91 -54 -213 -92l-42 48zM615 568l-59 -137q-140 42 -220 42q-59 0 -62 -31q0 -6 0.5 -10t3 -8t5.5 -6.5t10 -5.5t13.5 -5.5t18.5 -6t23.5 -6.5t30.5 -8.5l36 -10.5q93 -29 128 -70.5t30 -117.5q-5 -85 -81.5 -140.5t-196.5 -55.5
q-141 0 -294 83l76 138q135 -67 228 -67q66 0 66 34q1 17 -23.5 29.5t-107.5 37.5q-101 32 -135 70.5t-29 117.5q5 84 79.5 135t183.5 51q71 0 130.5 -11t145.5 -41z" />
    <glyph glyph-name="sacute" unicode="&#x15b;" horiz-adv-x="493" 
d="M342 739l104 -79l-2 -39q-94 -60 -214 -101l-42 48zM487 451l-56 -122q-111 39 -168 39q-38 0 -39 -25q-1 -13 14 -19.5t74 -21.5q12 -3 18 -5q74 -19 103 -52.5t21 -92.5q-11 -81 -70.5 -121t-158.5 -40q-112 0 -233 64l56 118q101 -52 182 -52q43 0 44 24
q1 10 -15 16.5t-82 25.5q-79 23 -105 58.5t-16 102.5q10 70 63 109t136 39q111 0 232 -45z" />
    <glyph glyph-name="Scedilla" unicode="&#x15e;" horiz-adv-x="620" 
d="M615 568l-59 -137q-140 42 -220 42q-61 0 -62 -31q-1 -19 12.5 -26.5t65.5 -22.5l63 -18q93 -29 128 -70.5t30 -117.5q-6 -85 -82 -140.5t-196 -55.5h-12l-3 -17q59 -3 74.5 -21t8.5 -73q-5 -39 -32.5 -63t-73.5 -24q-57 0 -127 25l18 64q40 -8 69 -8q40 0 45 32
q2 15 -5.5 19t-34.5 4h-34l23 70q-107 20 -210 75l76 138q135 -67 228 -67q66 0 66 34q1 17 -23.5 29.5t-107.5 37.5q-101 32 -135 70.5t-29 117.5q5 84 79.5 135t183.5 51q71 0 130.5 -11t145.5 -41z" />
    <glyph glyph-name="scedilla" unicode="&#x15f;" horiz-adv-x="493" 
d="M487 451l-56 -122q-111 39 -168 39q-38 0 -39 -25q-1 -13 13.5 -19.5t73.5 -21.5q12 -3 18 -5q74 -19 103.5 -52.5t21.5 -92.5q-11 -81 -70.5 -121t-158.5 -40h-6l-2 -17q58 -3 74 -21.5t9 -72.5q-6 -39 -33.5 -63t-73.5 -24q-60 0 -126 26l17 63q40 -8 70 -8q40 0 44 33
q2 14 -5 18t-34 4h-34l22 70q-82 17 -155 56l56 118q101 -52 182 -52q43 0 44 24q1 10 -15 16.5t-82 25.5q-79 23 -105 58.5t-16 102.5q10 70 63 109t136 39q111 0 232 -45z" />
    <glyph glyph-name="Scaron" unicode="&#x160;" horiz-adv-x="620" 
d="M316 642l-115 141l49 47l130 -79l149 79l41 -47l-152 -141h-102zM615 568l-59 -137q-140 42 -220 42q-59 0 -62 -31q0 -6 0.5 -10t3 -8t5.5 -6.5t10 -5.5t13.5 -5.5t18.5 -6t23.5 -6.5t30.5 -8.5l36 -10.5q93 -29 128 -70.5t30 -117.5q-5 -85 -81.5 -140.5t-196.5 -55.5
q-141 0 -294 83l76 138q135 -67 228 -67q66 0 66 34q1 17 -23.5 29.5t-107.5 37.5q-101 32 -135 70.5t-29 117.5q5 84 79.5 135t183.5 51q71 0 130.5 -11t145.5 -41z" />
    <glyph glyph-name="scaron" unicode="&#x161;" horiz-adv-x="493" 
d="M238 531l-109 143l45 42q23 -15 65 -40t53 -32l149 77l41 -47l-147 -143h-97zM487 451l-56 -122q-111 39 -168 39q-38 0 -39 -25q-1 -13 14 -19.5t74 -21.5q12 -3 18 -5q74 -19 103 -52.5t21 -92.5q-11 -81 -70.5 -121t-158.5 -40q-113 0 -232 64l55 118q101 -52 182 -52
q43 0 44 24q1 10 -15 16.5t-82 25.5q-79 23 -105 58.5t-16 102.5q10 70 63 109t136 39q111 0 232 -45z" />
    <glyph glyph-name="Tcaron" unicode="&#x164;" horiz-adv-x="586" 
d="M300 642l-115 141l49 47l130 -79l149 79l41 -47l-152 -141h-102zM595 441h-181l-62 -441h-186l61 441h-180l24 169h548z" />
    <glyph glyph-name="tcaron" unicode="&#x165;" horiz-adv-x="411" 
d="M482 704l-3 -17q-22 -101 -73 -172h-81l28 189h129zM289 487h114l-21 -150h-114l-20 -146q-4 -29 4 -41.5t39 -12.5q40 0 63 1l10 -112q-60 -34 -154 -34q-89 0 -123.5 48t-20.5 152l21 145h-66l21 150h66l15 103h181z" />
    <glyph glyph-name="Umacron" unicode="&#x16a;" horiz-adv-x="663" 
d="M567 793l-17 -124h-317l17 124h317zM668 610l-45 -314q-22 -156 -100.5 -230.5t-221.5 -74.5q-289 0 -246 309l43 310h187l-45 -314q-10 -70 8.5 -102.5t66.5 -32.5q104 0 123 139l43 310h187z" />
    <glyph glyph-name="umacron" unicode="&#x16b;" horiz-adv-x="574" 
d="M494 559h-326l19 128h326zM563 487l-68 -487h-181l6 46q-92 -55 -150 -55q-165 0 -139 191l43 305h181l-37 -267q-5 -35 1 -49t28 -14q36 0 95 41l40 289h181z" />
    <glyph glyph-name="Uring" unicode="&#x16e;" horiz-adv-x="663" 
d="M406 862q51 0 80 -29.5t26 -75.5t-37 -76t-85 -30t-80.5 29.5t-25.5 74.5q3 47 37 77t85 30zM402 798q-19 0 -31.5 -11.5t-13.5 -29.5q-2 -18 8 -29.5t29 -11.5t31 11.5t14 29.5t-8 29.5t-29 11.5zM668 610l-45 -314q-22 -156 -100.5 -230.5t-221.5 -74.5
q-289 0 -246 309l43 310h187l-45 -314q-10 -70 8.5 -102.5t66.5 -32.5q104 0 123 139l43 310h187z" />
    <glyph glyph-name="uring" unicode="&#x16f;" horiz-adv-x="574" 
d="M334 535q-52 0 -81 33t-21 84q6 46 38.5 73.5t80.5 27.5q53 0 81.5 -33.5t21.5 -87.5q-6 -44 -39 -70.5t-81 -26.5zM302 645q-2 -18 8 -29.5t29 -11.5q40 0 45 39q2 18 -8 30t-29 12t-31 -11t-14 -29zM563 487l-68 -487h-181l6 46q-92 -55 -150 -55q-165 0 -139 191
l43 305h181l-37 -267q-5 -35 1 -49t28 -14q36 0 95 41l40 289h181z" />
    <glyph glyph-name="Uhungarumlaut" unicode="&#x170;" horiz-adv-x="663" 
d="M331 841l109 -60l-2 -37q-93 -65 -161 -105l-59 41zM527 841l109 -60l-1 -37q-100 -69 -162 -105l-59 41zM668 610l-45 -314q-22 -156 -100.5 -230.5t-221.5 -74.5q-289 0 -246 309l43 310h187l-45 -314q-10 -70 8.5 -102.5t66.5 -32.5q104 0 123 139l43 310h187z" />
    <glyph glyph-name="uhungarumlaut" unicode="&#x171;" horiz-adv-x="574" 
d="M382 679l-2 -39q-70 -58 -163 -113l-49 41l114 170zM570 679l-2 -39q-66 -54 -163 -113l-50 41l115 170zM382 487h181l-68 -487h-181l6 46q-92 -55 -150 -55q-165 0 -139 191l43 305h181l-37 -267q-5 -35 1 -49t28 -14q36 0 95 41z" />
    <glyph glyph-name="Uogonek" unicode="&#x172;" horiz-adv-x="663" 
d="M667 610l-44 -314q-20 -148 -91.5 -222.5t-200.5 -81.5q-46 -14 -52 -49q-3 -25 49 -25q10 0 87 11l13 -89q-74 -28 -151 -28q-58 0 -90 28.5t-25 73.5q8 51 59 84q-203 39 -166 302l43 310h187l-45 -314q-10 -70 8.5 -102.5t66.5 -32.5q104 0 123 139l43 310h186z" />
    <glyph glyph-name="uogonek" unicode="&#x173;" horiz-adv-x="574" 
d="M495 0h-68q-41 -2 -68 -16.5t-31 -40.5q-3 -25 49 -25q10 0 87 11l13 -89q-74 -28 -151 -28q-58 0 -90 28.5t-25 73.5q5 35 33 63t73 42l3 27q-92 -55 -150 -55q-165 0 -139 191l43 305h181l-37 -267q-5 -35 1 -49t28 -14q36 0 95 41l40 289h181z" />
    <glyph glyph-name="Wcircumflex" unicode="&#x174;" horiz-adv-x="942" 
d="M390 636l-42 47l153 141h102l115 -141l-49 -47l-130 78zM980 610l-230 -610h-235l-25 240q-3 27 -5 96q-24 -83 -32 -105l-91 -231h-225l-70 610h198l23 -342q2 -22 2 -65l21 75l110 332h201l15 -342q1 -22 1 -64q10 40 21 75l120 331h201z" />
    <glyph glyph-name="wcircumflex" unicode="&#x175;" horiz-adv-x="785" 
d="M616 577l-45 -45q-24 15 -66 38t-57 32l-132 -69l-43 46l137 135h96zM813 487l-189 -487h-205l-26 235l-92 -235h-200l-58 487h175l24 -261q1 -15 -1 -42l17 52l105 251h127l31 -261q2 -17 2 -47q2 6 4.5 18t5 21.5t5.5 17.5l95 251h180z" />
    <glyph glyph-name="Ycircumflex" unicode="&#x176;" horiz-adv-x="657" 
d="M246 636l-41 47l153 141h101l115 -141l-48 -47l-130 78zM414 189l-26 -189h-186l26 190l-169 420h193l60 -165q15 -37 30 -83q17 32 54 92l108 156h198z" />
    <glyph glyph-name="ycircumflex" unicode="&#x177;" horiz-adv-x="569" 
d="M507 577l-44 -45l-63 36l-60 34l-133 -69l-43 46l137 135h97zM410 487l192 -1l-48.5 -104.5l-55 -117.5t-44 -86.5t-52.5 -91.5q-126 -186 -339 -272l-58 139q88 40 142 89l-111 445h186l44 -203q10 -54 13 -75q49 80 131 278z" />
    <glyph glyph-name="Ydieresis" unicode="&#x178;" horiz-adv-x="657" 
d="M287 660q-34 0 -57.5 24t-18.5 63q5 32 30 50.5t54 18.5q38 0 60 -24.5t17 -64.5q-5 -32 -28.5 -49.5t-56.5 -17.5zM501 660q-38 0 -60 23.5t-17 63.5q5 33 28.5 51t56.5 18q34 0 57.5 -25t17.5 -64q-4 -32 -28.5 -49.5t-54.5 -17.5zM414 189l-26 -189h-186l26 190
l-169 420h193l60 -165q15 -37 30 -83q20 38 55 92l108 156h198z" />
    <glyph glyph-name="Zacute" unicode="&#x179;" horiz-adv-x="611" 
d="M394 837l123 -70l-2 -39q-91 -54 -213 -92l-42 48zM606 465l-304 -304q115 5 125 5h139l-23 -166h-539l18 136l328 312q-69 -3 -131 -3h-129l23 165h512z" />
    <glyph glyph-name="zacute" unicode="&#x17a;" horiz-adv-x="535" 
d="M366 739l104 -79l-2 -39q-97 -61 -214 -101l-43 48zM507 377l-238 -237q63 3 108 3h109l-20 -143h-464l15 114l247 231q-32 -2 -96 -2h-109l20 144h442z" />
    <glyph glyph-name="Zdotaccent" unicode="&#x17b;" horiz-adv-x="611" 
d="M381 823q39 0 64 -26.5t19 -69.5q-5 -35 -32.5 -55t-60.5 -20q-41 0 -65.5 26t-18.5 69q6 37 32 56.5t62 19.5zM606 465l-304 -304q115 5 125 5h139l-23 -166h-539l18 136l328 312q-69 -3 -131 -3h-129l23 165h512z" />
    <glyph glyph-name="zdotaccent" unicode="&#x17c;" horiz-adv-x="535" 
d="M327 718q40 0 66.5 -28t20.5 -73q-5 -37 -34 -58.5t-63 -21.5q-43 0 -69 27.5t-19 72.5q6 39 33 60t65 21zM506 377l-237 -237q63 3 107 3h109l-20 -143h-464l16 114l247 231q-32 -2 -96 -2h-109l20 144h442z" />
    <glyph glyph-name="Zcaron" unicode="&#x17d;" horiz-adv-x="611" 
d="M313 642l-115 141l49 47l130 -79l149 79l41 -47l-152 -141h-102zM606 465l-304 -304q115 5 125 5h139l-23 -166h-539l18 136l328 312q-69 -3 -131 -3h-129l23 165h512z" />
    <glyph glyph-name="zcaron" unicode="&#x17e;" horiz-adv-x="535" 
d="M262 531l-110 143l45 42l119 -72l148 77l41 -47l-147 -143h-96zM506 377l-237 -237q63 3 107 3h109l-20 -143h-464l16 114l247 231q-32 -2 -96 -2h-109l20 144h442z" />
    <glyph glyph-name="florin" unicode="&#x192;" horiz-adv-x="586" 
d="M609 507l-59 -108q-73 21 -125 21q-97 0 -141 -139h174l-39 -116h-173l-54 -165h-181l52 165h-53l40 116h50l3 7q46 143 119 209.5t182 66.5q107 0 205 -57z" />
    <glyph glyph-name="Acaron" unicode="&#x1cd;" horiz-adv-x="707" 
d="M361 642l-115 141l49 47l130 -79l149 79l41 -47l-152 -141h-102zM453 91h-238l-43 -91h-200l305 610h255l133 -610h-195zM423 250l-27 146q-7 34 -10 63h-1q-6 -20 -27 -67l-68 -142h133z" />
    <glyph glyph-name="Scommaaccent" unicode="&#x218;" horiz-adv-x="620" 
d="M615 568l-59 -137q-140 42 -220 42q-59 0 -62 -31q0 -6 0.5 -10t3 -8t5.5 -6.5t10 -5.5t13.5 -5.5t18.5 -6t23.5 -6.5t30.5 -8.5l36 -10.5q93 -29 128 -70.5t30 -117.5q-5 -85 -81.5 -140.5t-196.5 -55.5q-141 0 -294 83l76 138q135 -67 228 -67q66 0 66 34
q1 17 -23.5 29.5t-107.5 37.5q-101 32 -135 70.5t-29 117.5q5 84 79.5 135t183.5 51q71 0 130.5 -11t145.5 -41zM196 -242l-18 46q31 15 46 30q-41 21 -33 72q3 27 22.5 43.5t48.5 16.5q33 0 51.5 -24.5t13.5 -61.5v-2q-15 -90 -131 -120z" />
    <glyph glyph-name="scommaaccent" unicode="&#x219;" horiz-adv-x="493" 
d="M487 451l-56 -122q-111 39 -168 39q-38 0 -39 -25q-1 -13 14 -19.5t74 -21.5q12 -3 18 -5q74 -19 103 -52.5t21 -92.5q-11 -81 -70.5 -121t-158.5 -40q-112 0 -233 64l56 118q101 -52 182 -52q43 0 44 24q1 10 -15 16.5t-82 25.5q-79 23 -105 58.5t-16 102.5
q10 70 63 109t136 39q111 0 232 -45zM132 -242l-17 46q32 16 46 30q-19 10 -28 29.5t-6 42.5q4 27 23.5 43.5t47.5 16.5q33 0 51.5 -24.5t13.5 -61.5v-2q-15 -90 -131 -120z" />
    <glyph glyph-name="uni021A" unicode="&#x21a;" horiz-adv-x="586" 
d="M595 441h-181l-62 -441h-186l61 441h-180l24 169h548zM181 -242l-17 46q32 16 46 30q-19 10 -28 29.5t-6 42.5q4 27 23.5 43.5t47.5 16.5q33 0 51.5 -24.5t13.5 -61.5v-2q-15 -90 -131 -120z" />
    <glyph glyph-name="uni021B" unicode="&#x21b;" horiz-adv-x="404" 
d="M268 337l-20 -146q-4 -29 4 -41.5t39 -12.5q40 0 63 1l10 -112q-60 -34 -154 -34q-89 0 -123.5 48t-20.5 152l21 145h-66l21 150h66l15 103h181l-15 -103h114l-21 -150h-114zM100 -240l-18 46q32 15 46 29q-41 21 -33 73q3 26 22.5 43t48.5 17q33 0 51.5 -25t13.5 -61v-3
q-15 -90 -131 -119z" />
    <glyph glyph-name="circumflex" unicode="&#x2c6;" 
d="M471 577l-44 -45l-63 36l-60 34l-133 -69l-43 46l137 135h97z" />
    <glyph glyph-name="caron" unicode="&#x2c7;" 
d="M486 674l-147 -143h-96l-110 143l45 42l119 -72l148 77z" />
    <glyph glyph-name="breve" unicode="&#x2d8;" 
d="M377 690h101q-20 -144 -169 -144q-77 0 -115 38.5t-29 105.5h99q-2 -46 47 -46q28 0 45 13.5t21 32.5z" />
    <glyph glyph-name="dotaccent" unicode="&#x2d9;" 
d="M308 718q40 0 66.5 -28t20.5 -73q-5 -37 -34 -58.5t-63 -21.5q-43 0 -69 27.5t-19 72.5q6 39 33 60t65 21z" />
    <glyph glyph-name="ring" unicode="&#x2da;" 
d="M313 753q53 0 81.5 -33.5t21.5 -87.5q-6 -44 -39 -70.5t-81 -26.5q-52 0 -81 33t-21 84q6 46 38.5 73.5t80.5 27.5zM309 685q-19 0 -31 -11t-14 -29t8 -29.5t29 -11.5q40 0 45 39q2 18 -8 30t-29 12z" />
    <glyph glyph-name="ogonek" unicode="&#x2db;" 
d="M315 -71l13 -90q-71 -27 -152 -27q-58 0 -90 28.5t-25 73.5q7 48 54.5 81t118.5 35l44 -30q-41 -2 -68 -17t-31 -40q-3 -26 49 -26q15 0 87 12z" />
    <glyph glyph-name="tilde" unicode="&#x2dc;" 
d="M427 700l66 -10q-8 -51 -31 -83.5t-52.5 -42.5t-58 -9t-52.5 13l-51 28q-10 6 -17.5 6.5t-16.5 -5t-16 -13l-21 -22.5l-62 10q9 50 30.5 82t49.5 41.5t55.5 8t52.5 -13.5l50 -26q19 -10 32.5 -2t41.5 38z" />
    <glyph glyph-name="hungarumlaut" unicode="&#x2dd;" 
d="M242 738l100 -59l-2 -39q-66 -54 -163 -113l-50 41zM429 738l100 -59l-2 -39q-70 -58 -163 -113l-49 41z" />
    <glyph glyph-name="commaturnedabovecomb" unicode="&#x312;" horiz-adv-x="0" 
d="M371 777l19 -54q-30 -13 -51 -32q46 -25 38 -82q-5 -30 -28 -50t-55 -20q-37 0 -58 28.5t-15 69.5q7 49 40.5 80.5t109.5 59.5z" />
    <glyph glyph-name="commaaccentcomb" unicode="&#x326;" horiz-adv-x="0" 
d="M136 -242l-18 46q31 15 46 30q-41 21 -33 72q3 27 22.5 43.5t48.5 16.5q33 0 51.5 -24.5t13.5 -61.5v-2q-15 -90 -131 -120z" />
    <glyph glyph-name="Wgrave" unicode="&#x1e80;" horiz-adv-x="942" 
d="M637 683l-47 -45q-111 38 -188 94v33l139 71zM750 0h-235l-25 240q-3 27 -5 96q-24 -83 -32 -105l-91 -231h-225l-70 610h198l23 -342q2 -22 2 -65l21 75l110 332h201l15 -342q1 -22 1 -64q10 40 21 75l120 331h201z" />
    <glyph glyph-name="wgrave" unicode="&#x1e81;" horiz-adv-x="785" 
d="M554 568l-46 -44q-112 41 -188 103v33l124 79zM218 487l24 -261q1 -15 -1 -42l17 52l105 251h127l31 -261q2 -17 2 -47q2 6 4.5 18t5 21.5t5.5 17.5l95 251h180l-189 -487h-205l-26 235l-92 -235h-200l-58 487h175z" />
    <glyph glyph-name="Wacute" unicode="&#x1e82;" horiz-adv-x="942" 
d="M559 837l123 -70l-2 -39q-91 -54 -213 -92l-42 48zM750 0h-235l-25 240q-3 27 -5 96q-24 -83 -32 -105l-91 -231h-225l-70 610h198l23 -342q2 -22 2 -65l21 75l110 332h201l15 -342q1 -22 1 -64q10 40 21 75l120 331h201z" />
    <glyph glyph-name="wacute" unicode="&#x1e83;" horiz-adv-x="785" 
d="M491 739l104 -79l-2 -39q-94 -60 -214 -101l-42 48zM218 487l24 -261q1 -15 -1 -42l17 52l105 251h127l31 -261q2 -17 2 -47q2 6 4.5 18t5 21.5t5.5 17.5l95 251h180l-189 -487h-205l-26 235l-92 -235h-200l-58 487h175z" />
    <glyph glyph-name="Wdieresis" unicode="&#x1e84;" horiz-adv-x="942" 
d="M438 816q38 0 60 -24.5t17 -64.5q-5 -32 -28.5 -49.5t-56.5 -17.5q-34 0 -57.5 24t-18.5 63q5 32 30 50.5t54 18.5zM652 816q34 0 57.5 -25t17.5 -64q-4 -32 -28.5 -49.5t-54.5 -17.5q-38 0 -60 23.5t-17 63.5q5 33 28.5 51t56.5 18zM750 0h-235l-25 240q-3 27 -5 96
q-24 -83 -32 -105l-91 -231h-225l-70 610h198l23 -342q2 -22 2 -65l21 75l110 332h201l15 -342q1 -22 1 -64q10 40 21 75l120 331h201z" />
    <glyph glyph-name="wdieresis" unicode="&#x1e85;" horiz-adv-x="785" 
d="M344 705q39 0 62.5 -25t17.5 -67q-5 -34 -29.5 -52.5t-58.5 -18.5q-37 0 -61.5 25t-18.5 66q5 34 30.5 53t57.5 19zM558 705q37 0 61.5 -25.5t18.5 -66.5q-5 -34 -31 -52.5t-58 -18.5q-39 0 -62.5 25t-16.5 66q5 35 29.5 53.5t58.5 18.5zM218 487l24 -261q1 -15 -1 -42
l17 52l105 251h127l31 -261q2 -17 2 -47q2 6 4.5 18t5 21.5t5.5 17.5l95 251h180l-189 -487h-205l-26 235l-92 -235h-200l-58 487h175z" />
    <glyph glyph-name="Ygrave" unicode="&#x1ef2;" horiz-adv-x="657" 
d="M483 683l-46 -45q-110 38 -189 94v33l140 71zM414 189l-26 -189h-186l26 190l-169 420h193l60 -165q15 -37 30 -83q20 38 55 92l108 156h198z" />
    <glyph glyph-name="ygrave" unicode="&#x1ef3;" horiz-adv-x="569" 
d="M446 568l-47 -44q-109 40 -188 103v33l124 79zM410 487l192 -1l-48.5 -104.5l-55 -117.5t-44 -86.5t-52.5 -91.5q-126 -186 -339 -272l-58 139q88 40 142 89l-111 444h186l44 -203q10 -50 13 -74q49 80 131 278z" />
    <glyph glyph-name="uni2009" unicode="&#x2009;" horiz-adv-x="83" 
 />
    <glyph glyph-name="endash" unicode="&#x2013;" 
d="M67 337h390l-19 -134h-390z" />
    <glyph glyph-name="emdash" unicode="&#x2014;" horiz-adv-x="938" 
d="M67 337h830l-19 -134h-830z" />
    <glyph glyph-name="quoteleft" unicode="&#x2018;" horiz-adv-x="290" 
d="M264 662l41 -61q-60 -43 -81 -78q28 -11 42 -37.5t10 -60.5q-5 -42 -35.5 -70t-74.5 -28q-46 0 -71.5 33.5t-20.5 82.5l1 2q7 57 58.5 116.5t130.5 100.5z" />
    <glyph glyph-name="quoteright" unicode="&#x2019;" horiz-adv-x="291" 
d="M102 326l-42 61q61 42 82 78q-28 11 -42.5 37.5t-10.5 60.5q5 42 35.5 70t74.5 28q46 0 71.5 -33t20.5 -83v-2q-7 -57 -58.5 -116.5t-130.5 -100.5z" />
    <glyph glyph-name="quotesinglbase" unicode="&#x201a;" horiz-adv-x="291" 
d="M37 -135l-41 61q60 43 81 78q-28 12 -42 38.5t-10 59.5q5 43 35.5 70.5t74.5 27.5q46 0 71.5 -33t20.5 -82l-1 -2q-7 -57 -58.5 -117t-130.5 -101z" />
    <glyph glyph-name="quotedblleft" unicode="&#x201c;" horiz-adv-x="530" 
d="M264 662l41 -61q-60 -43 -81 -78q28 -11 42 -37.5t10 -60.5q-5 -42 -35.5 -70t-74.5 -28q-46 0 -71.5 33.5t-20.5 82.5l1 2q7 57 58.5 116.5t130.5 100.5zM504 662l42 -61q-61 -42 -82 -78q28 -11 42.5 -37.5t10.5 -60.5q-5 -42 -35.5 -70t-74.5 -28q-46 0 -71.5 33
t-20.5 83v2q7 57 58.5 116.5t130.5 100.5z" />
    <glyph glyph-name="quotedblright" unicode="&#x201d;" horiz-adv-x="531" 
d="M102 326l-42 61q61 42 82 78q-28 11 -42.5 37.5t-10.5 60.5q5 42 35.5 70t74.5 28q46 0 71.5 -33t20.5 -83v-2q-7 -57 -58.5 -116.5t-130.5 -100.5zM342 326l-42 61q61 42 82 78q-28 11 -42.5 37.5t-10.5 60.5q5 42 35.5 70t74.5 28q46 0 71.5 -33t20.5 -83v-2
q-7 -57 -58.5 -116.5t-130.5 -100.5z" />
    <glyph glyph-name="quotedblbase" unicode="&#x201e;" horiz-adv-x="531" 
d="M37 -135l-41 61q60 43 81 78q-28 12 -42 38.5t-10 59.5q5 43 35.5 70.5t74.5 27.5q46 0 71.5 -33t20.5 -82l-1 -2q-7 -57 -58.5 -117t-130.5 -101zM277 -135l-42 61q61 42 82 78q-28 12 -42.5 38.5t-10.5 59.5q5 42 35.5 70t74.5 28q47 0 72 -32.5t20 -82.5v-2
q-7 -57 -58.5 -117t-130.5 -101z" />
    <glyph glyph-name="dagger" unicode="&#x2020;" horiz-adv-x="528" 
d="M497 323l-162 -12l-72 -412h-95l44 412l-160 12l13 95l165 11l38 181h95l-14 -181l162 -11z" />
    <glyph glyph-name="daggerdbl" unicode="&#x2021;" horiz-adv-x="528" 
d="M337 312l-16 -109l158 -11l-14 -95l-164 -11l-38 -181h-94l13 181l-161 11l13 95l160 11l16 109l-158 11l13 95l165 11l38 181h95l-14 -181l162 -11l-14 -95z" />
    <glyph glyph-name="bullet" unicode="&#x2022;" horiz-adv-x="357" 
d="M47 270q6 56 46.5 93t99.5 37q60 0 94 -39.5t28 -99.5q-6 -56 -47 -92.5t-99 -36.5q-60 0 -94 39.5t-28 98.5z" />
    <glyph glyph-name="ellipsis" unicode="&#x2026;" horiz-adv-x="859" 
d="M132 197q46 0 72 -30.5t21 -76.5q-5 -42 -35.5 -70t-74.5 -28q-47 0 -72.5 30.5t-20.5 76.5q5 42 35.5 70t74.5 28zM417 197q47 0 72.5 -30.5t20.5 -76.5q-5 -42 -35.5 -70t-74.5 -28q-46 0 -72 30.5t-21 76.5q5 42 35.5 70t74.5 28zM703 197q46 0 72 -30.5t21 -76.5
q-5 -42 -35.5 -70t-74.5 -28q-47 0 -72.5 30.5t-20.5 76.5q5 42 35.5 70t74.5 28z" />
    <glyph glyph-name="perthousand" unicode="&#x2030;" horiz-adv-x="1282" 
d="M248 621q88 0 126.5 -51.5t25.5 -148.5q-27 -183 -196 -183q-88 0 -126.5 51t-24.5 146q25 186 195 186zM609 610h104l-425 -610h-104zM211 343q34 0 50 22.5t22 69.5q5 43 -4 62t-37 19q-34 0 -51 -23.5t-22 -71.5q-6 -41 3.5 -59.5t38.5 -18.5zM703 374q177 0 151 -200
q-14 -92 -61.5 -137.5t-133.5 -45.5q-88 0 -126.5 51t-25.5 147q14 94 61.5 139.5t134.5 45.5zM1097 374q89 0 127 -51t24 -149q-26 -183 -195 -183q-88 0 -126.5 51t-25.5 147q14 94 61.5 139.5t134.5 45.5zM666 96q33 0 49.5 23t22.5 70q5 43 -4 62t-38 19
q-33 0 -50 -23.5t-22 -72.5q-6 -41 3.5 -59.5t38.5 -18.5zM1060 96q34 0 50 23t22 70q5 43 -4 62t-37 19q-34 0 -51 -23.5t-22 -72.5q-6 -41 3.5 -59.5t38.5 -18.5z" />
    <glyph glyph-name="guilsinglleft" unicode="&#x2039;" horiz-adv-x="388" 
d="M365 387l-106 -97q-17 -16 -47 -37q16 -13 33 -32l84 -91l-100 -87l-200 217l256 217z" />
    <glyph glyph-name="guilsinglright" unicode="&#x203a;" horiz-adv-x="388" 
d="M364 260l-257 -217l-80 87l105 98q19 17 48 37q-22 20 -31 32l-85 90l100 90z" />
    <glyph glyph-name="fraction" unicode="&#x2044;" horiz-adv-x="210" 
d="M274 610h104l-426 -610h-103z" />
    <glyph glyph-name="Euro" unicode="&#x20ac;" horiz-adv-x="553" 
d="M375 195l-132 -1q7 -61 75 -61q69 0 152 44l48 -116q-57 -39 -110 -54.5t-123 -15.5q-91 0 -151.5 51.5t-68.5 151.5h-55l8 56h47q2 24 4 34v4h-47l8 56h51q30 101 102.5 158.5t167.5 57.5q103 0 206 -57l-59 -113q-71 27 -125 27q-72 0 -106 -73h171l-25 -56h-164
l-4 -24q0 -2 -0.5 -6.5t-1.5 -6.5h155z" />
    <glyph glyph-name="uni2116" unicode="&#x2116;" horiz-adv-x="1146" 
d="M599 0h-167l-188 309q-1 -10 -3.5 -29t-3.5 -29l-35 -251h-187l86 610h167l189 -309q2 28 6 55l36 254h186zM931 573q96 0 141.5 -53.5t31.5 -149.5q-13 -87 -67.5 -133t-144.5 -46q-96 0 -141 52.5t-32 146.5q13 88 67.5 135.5t144.5 47.5zM896 311q57 0 66 79
q7 61 -35 61q-57 0 -66 -81q-7 -59 35 -59zM1051 135l-18 -135h-349l19 135h348z" />
    <glyph glyph-name="trademark" unicode="&#x2122;" horiz-adv-x="790" 
d="M363 516h-97l-29 -207h-107l29 207h-98l13 94h302zM673 452l-78 -143h-77l-36 143l-24 -143h-104l56 301h116l44 -154l5 -25q1 2 4.5 11t6.5 14l88 154h115l-28 -301h-106z" />
    <glyph glyph-name="oneeighth" unicode="&#x215b;" horiz-adv-x="910" 
d="M36 231l13 98h87l22 149q-22 -4 -80 -13l-18 80q78 28 137 67l95 -2l-40 -281h81l-14 -98h-283zM722 610l-425 -610h-104l425 610h104zM855 275q-7 -48 -73 -75q74 -35 65 -101q-7 -53 -52.5 -81t-120.5 -27q-95 0 -135 32t-31 91q7 54 82 87q-49 30 -41 82q13 98 168 98
q73 0 108.5 -28t29.5 -78zM749 284q1 12 -9 18.5t-29 6.5q-21 0 -35.5 -10.5t-17.5 -28.5q-1 -12 7.5 -19.5t32.5 -16.5q49 20 51 50zM726 119q2 13 -10 22.5t-46 21.5q-46 -21 -52 -53q-2 -16 10.5 -24t36.5 -8t41 11.5t20 29.5z" />
    <glyph glyph-name="threeeighths" unicode="&#x215c;" horiz-adv-x="906" 
d="M95 506l-21 79q90 35 165 35q62 0 98.5 -32t29.5 -82q-7 -55 -68 -78q63 -23 54 -86q-7 -55 -49.5 -83t-112.5 -28q-92 0 -167 44l36 74q60 -29 128 -29q52 0 58 38q1 15 -14 20.5t-55 5.5h-54l12 86h50q71 0 75 34q2 15 -7.5 21t-32.5 6q-38 0 -125 -25zM721 610
l-425 -610h-104l425 610h104zM854 274q-6 -47 -73 -74q75 -35 66 -101q-7 -53 -53 -81t-121 -27q-95 0 -134.5 32t-30.5 90q7 56 81 88q-49 30 -41 81q13 99 168 99q73 0 109 -28.5t29 -78.5zM749 284q1 12 -9 18.5t-29 6.5q-22 0 -36.5 -11t-16.5 -28q-2 -12 6.5 -19.5
t32.5 -16.5q50 20 52 50zM725 118q2 14 -10 23.5t-46 21.5q-45 -21 -51 -54q-3 -16 9.5 -23.5t36.5 -7.5q25 0 41.5 11t19.5 29z" />
    <glyph glyph-name="fiveeighths" unicode="&#x215d;" horiz-adv-x="931" 
d="M191 514l-14 -57q42 22 84 22q58 0 86 -34t20 -93q-9 -62 -55 -94t-111 -32q-96 0 -172 45l36 79q64 -29 122 -29q26 0 47 14.5t24 35.5q3 16 -6 24.5t-28 8.5q-28 0 -62 -26l-94 15l43 217h276l-14 -96h-182zM728 610l-425 -610h-104l425 610h104zM870 274
q-6 -47 -73 -74q75 -35 66 -101q-7 -53 -53 -81t-121 -27q-95 0 -134.5 32t-30.5 90q7 56 81 88q-49 30 -41 81q13 99 168 99q73 0 109 -28.5t29 -78.5zM765 284q1 12 -9 18.5t-29 6.5q-22 0 -36.5 -11t-16.5 -28q-2 -12 6.5 -19.5t32.5 -16.5q50 20 52 50zM741 118
q2 14 -10 23.5t-46 21.5q-45 -21 -51 -54q-3 -16 9.5 -23.5t36.5 -7.5q25 0 41.5 11t19.5 29z" />
    <glyph glyph-name="seveneighths" unicode="&#x215e;" horiz-adv-x="838" 
d="M372 610l-11 -88q-110 -144 -172 -291h-136q91 183 177 285h-172l14 94h300zM535 610h104l-426 -610h-103zM646 381q73 0 108.5 -28.5t29.5 -78.5q-7 -47 -73 -74q74 -35 65 -101q-7 -53 -52.5 -81t-120.5 -27q-95 0 -135 32t-31 90q7 55 82 88q-49 30 -41 81
q13 99 168 99zM640 309q-21 0 -35.5 -11t-17.5 -28q-1 -12 7.5 -19.5t32.5 -16.5q49 20 51 50q1 12 -9 18.5t-29 6.5zM599 163q-46 -21 -52 -54q-2 -16 10.5 -23.5t36.5 -7.5t41 11t20 29q2 14 -10 23.5t-46 21.5z" />
    <glyph glyph-name="arrowleft" unicode="&#x2190;" horiz-adv-x="643" 
d="M626 223h-329l118 -119l-106 -106l-288 300l288 301l106 -106l-119 -120h330v-150z" />
    <glyph glyph-name="arrowup" unicode="&#x2191;" horiz-adv-x="661" 
d="M531 230l-124 118v-348h-152v349l-125 -119l-105 106l306 283l305 -283z" />
    <glyph glyph-name="arrowright" unicode="&#x2192;" horiz-adv-x="643" 
d="M622 298l-288 -300l-106 106l118 119h-329v150h330l-119 120l106 106z" />
    <glyph glyph-name="arrowdown" unicode="&#x2193;" horiz-adv-x="661" 
d="M636 274l-305 -283l-306 283l105 106l125 -119v349h152v-348l124 118z" />
    <glyph glyph-name="arrowupleft" unicode="&#x2196;" horiz-adv-x="673" 
d="M545 1l-356 356l3 -190h-149v443h442v-149l-190 3l357 -357z" />
    <glyph glyph-name="arrowupright" unicode="&#x2197;" horiz-adv-x="673" 
d="M631 610v-443h-150l3 190l-356 -356l-107 106l357 357l-190 -3v149h443z" />
    <glyph glyph-name="arrowdownright" unicode="&#x2198;" horiz-adv-x="673" 
d="M631 444v-444h-443v149l190 -3l-357 358l107 105l356 -356l-3 191h150z" />
    <glyph glyph-name="arrowdownleft" unicode="&#x2199;" horiz-adv-x="673" 
d="M295 146l190 3v-149h-442v444h149l-3 -191l356 356l107 -105z" />
    <glyph glyph-name="minus" unicode="&#x2212;" horiz-adv-x="505" 
d="M447 180h-408l18 129h409z" />
    <glyph glyph-name="J.ss01" horiz-adv-x="315" 
d="M318 610l-66 -470q-16 -110 -63 -168t-153 -103l-66 124q46 28 65.5 51t25.5 70l70 496h187z" />
    <glyph glyph-name="K.ss02" horiz-adv-x="655" 
d="M676 596l-217 -288l141 -289l-4 -19h-202l-92 204h-72l-28 -204h-187l86 610h186l-30 -213h58l154 213h210z" />
    <glyph glyph-name="Kcommaaccent.ss02" horiz-adv-x="655" 
d="M676 596l-217 -288l141 -289l-4 -19h-202l-92 204h-72l-28 -204h-187l86 610h186l-30 -213h58l154 213h210zM209 -242l-17 46q30 15 45 30q-41 21 -33 72q4 27 23.5 43.5t47.5 16.5q33 0 51.5 -24.5t13.5 -61.5v-2q-15 -90 -131 -120z" />
    <glyph glyph-name="Q.ss03" horiz-adv-x="689" 
d="M594 -21l-140 -95q-49 65 -76 111q-27 -4 -63 -4q-152 0 -224.5 83.5t-50.5 236.5q21 149 113 229t240 80q151 0 223.5 -83t50.5 -235q-24 -168 -136 -248q13 -17 63 -75zM227 302q-8 -70 18.5 -106.5t83.5 -36.5q63 0 102.5 39.5t48.5 112.5q8 70 -19 106t-86 36
q-62 0 -100.5 -39t-47.5 -112z" />
    <glyph glyph-name="R.ss04" horiz-adv-x="631" 
d="M100 610h259q134 0 194.5 -54.5t53.5 -159.5q-7 -150 -124 -178q27 -14 45 -40.5t26 -62.5t10.5 -58.5t4.5 -56.5h-210q-2 37 -5.5 59.5t-11 46.5t-22.5 35.5t-37 11.5h-61l-21 -153h-186zM243 301h82q45 0 70.5 22t27.5 63q2 34 -18 51t-65 17h-75z" />
    <glyph glyph-name="Racute.ss04" horiz-adv-x="631" 
d="M516 767l-1 -39q-92 -54 -213 -92l-43 48l134 153zM100 610h259q134 0 194.5 -54.5t53.5 -159.5q-7 -150 -124 -178q27 -14 45 -40.5t26 -62.5t10.5 -58.5t4.5 -56.5h-210q-2 37 -5.5 59.5t-11 46.5t-22.5 35.5t-37 11.5h-61l-21 -153h-186zM243 301h82q45 0 70.5 22
t27.5 63q2 34 -18 51t-65 17h-75z" />
    <glyph glyph-name="Rcaron.ss04" horiz-adv-x="631" 
d="M313 642l-116 141l49 47l130 -79l150 79l41 -47l-153 -141h-101zM100 610h259q134 0 194.5 -54.5t53.5 -159.5q-7 -150 -124 -178q27 -14 45 -40.5t26 -62.5t10.5 -58.5t4.5 -56.5h-210q-2 37 -5.5 59.5t-11 46.5t-22.5 35.5t-37 11.5h-61l-21 -153h-186zM243 301h82
q45 0 70.5 22t27.5 63q2 34 -18 51t-65 17h-75z" />
    <glyph glyph-name="Rcommaaccent.ss04" horiz-adv-x="631" 
d="M100 610h259q134 0 194.5 -54.5t53.5 -159.5q-7 -150 -124 -178q27 -14 45 -40.5t26 -62.5t10.5 -58.5t4.5 -56.5h-210q-2 37 -5.5 59.5t-11 46.5t-22.5 35.5t-37 11.5h-61l-21 -153h-186zM243 301h82q45 0 70.5 22t27.5 63q2 34 -18 51t-65 17h-75zM193 -242l-17 46
q30 15 45 30q-41 21 -33 72q4 26 23.5 43t47.5 17q33 0 51.5 -25t13.5 -61v-2q-15 -90 -131 -120z" />
    <glyph glyph-name="k.ss02" horiz-adv-x="567" 
d="M581 473l-172 -217l114 -240l-2 -16h-196l-69 169h-43l-24 -169h-181l91 643h181l-44 -307h43l110 151h194z" />
    <glyph glyph-name="kcommaaccent.ss02" horiz-adv-x="567" 
d="M581 473l-172 -217l114 -240l-2 -16h-196l-69 169h-43l-24 -169h-181l91 643h181l-44 -307h43l110 151h194zM164 -242l-18 46q31 15 46 30q-41 21 -33 72q3 27 22.5 43.5t48.5 16.5q33 0 51.5 -24.5t13.5 -61.5v-2q-15 -90 -131 -120z" />
    <glyph glyph-name="a.ss05" horiz-adv-x="530" 
d="M113 340l-20 119q135 37 221 37q109 0 153 -49t30 -153l-42 -294h-179l6 41q-71 -50 -132 -50q-83 0 -119.5 37t-24.5 124q11 75 65.5 109.5t156.5 34.5h90l1 2q5 35 -4.5 49t-44.5 14q-55 0 -157 -21zM306 211h-53q-71 0 -78 -51q-3 -20 7.5 -29.5t32.5 -9.5q34 0 82 25
z" />
    <glyph glyph-name="aacute.ss05" horiz-adv-x="530" 
d="M468 660l-2 -39q-94 -60 -214 -101l-42 48l154 171zM113 340l-20 119q135 37 221 37q109 0 153 -49t30 -153l-42 -294h-179l6 41q-71 -50 -132 -50q-83 0 -119.5 37t-24.5 124q11 75 65.5 109.5t156.5 34.5h90l1 2q5 35 -4.5 49t-44.5 14q-55 0 -157 -21zM306 211h-53
q-71 0 -78 -51q-3 -20 7.5 -29.5t32.5 -9.5q34 0 82 25z" />
    <glyph glyph-name="abreve.ss05" horiz-adv-x="530" 
d="M395 690h101q-10 -70 -53 -107t-117 -37q-77 0 -115 38.5t-28 105.5h99q-4 -46 46 -46q28 0 45 13t22 33zM113 340l-20 119q135 37 221 37q109 0 153 -49t30 -153l-42 -294h-179l6 41q-71 -50 -132 -50q-83 0 -119.5 37t-24.5 124q11 75 65.5 109.5t156.5 34.5h90l1 2
q5 35 -4.5 49t-44.5 14q-55 0 -157 -21zM306 211h-53q-71 0 -78 -51q-3 -20 7.5 -29.5t32.5 -9.5q34 0 82 25z" />
    <glyph glyph-name="acircumflex.ss05" horiz-adv-x="530" 
d="M489 577l-45 -45q-24 15 -66 38t-57 32l-132 -69l-43 46l137 135h96zM113 340l-20 119q131 37 221 37q109 0 153 -49t30 -153l-42 -294h-179l6 41q-71 -50 -132 -50q-83 0 -119.5 37t-24.5 124q11 75 65.5 109.5t156.5 34.5h90l1 2q5 35 -4.5 49t-44.5 14q-55 0 -157 -21
zM306 211h-53q-71 0 -78 -50q-6 -40 40 -40q34 0 82 25z" />
    <glyph glyph-name="adieresis.ss05" horiz-adv-x="530" 
d="M209 542q-37 0 -61.5 25t-18.5 66q5 34 30.5 53t57.5 19q39 0 62.5 -25t17.5 -67q-5 -34 -29.5 -52.5t-58.5 -18.5zM431 705q37 0 61.5 -25.5t18.5 -66.5q-5 -34 -31 -52.5t-58 -18.5q-39 0 -62.5 25t-16.5 66q5 35 29.5 53.5t58.5 18.5zM113 340l-20 119q135 37 221 37
q109 0 153 -49t30 -153l-42 -294h-179l6 41q-71 -50 -132 -50q-83 0 -119.5 37t-24.5 124q11 75 65.5 109.5t156.5 34.5h90l1 2q5 35 -4.5 49t-44.5 14q-55 0 -157 -21zM306 211h-53q-71 0 -78 -51q-3 -20 7.5 -29.5t32.5 -9.5q34 0 82 25z" />
    <glyph glyph-name="agrave.ss05" horiz-adv-x="530" 
d="M427 568l-46 -44q-112 41 -188 103v33l124 79zM113 340l-20 119q135 37 221 37q109 0 153 -49t30 -153l-42 -294h-179l6 41q-71 -50 -132 -50q-83 0 -119.5 37t-24.5 124q11 75 65.5 109.5t156.5 34.5h90l1 2q5 35 -4.5 49t-44.5 14q-55 0 -157 -21zM306 211h-53
q-71 0 -78 -51q-3 -20 7.5 -29.5t32.5 -9.5q34 0 82 25z" />
    <glyph glyph-name="amacron.ss05" horiz-adv-x="530" 
d="M474 559h-326l18 128h326zM113 340l-20 119q135 37 221 37q109 0 153 -49t30 -153l-42 -294h-179l6 41q-71 -50 -132 -50q-83 0 -119.5 37t-24.5 124q11 75 65.5 109.5t156.5 34.5h90l1 2q5 35 -4.5 49t-44.5 14q-55 0 -157 -21zM306 211h-53q-71 0 -78 -51
q-3 -20 7.5 -29.5t32.5 -9.5q34 0 82 25z" />
    <glyph glyph-name="aogonek.ss05" horiz-adv-x="530" 
d="M456 0h-25q-41 -2 -68 -17t-31 -40q-3 -26 49 -26q15 0 87 12l13 -90q-71 -27 -152 -27q-58 0 -90 28.5t-25 73.5q8 52 62 86l6 41q-71 -50 -132 -50q-83 0 -119.5 37t-24.5 124q11 75 65.5 109.5t156.5 34.5h90l1 2q5 35 -4.5 49t-44.5 14q-55 0 -157 -21l-19 119
q131 37 220 37q110 0 153.5 -49t29.5 -153zM306 211h-53q-71 0 -78 -51q-3 -20 7.5 -29.5t32.5 -9.5q34 0 82 25z" />
    <glyph glyph-name="aring.ss05" horiz-adv-x="530" 
d="M314 535q-52 0 -81.5 33t-21.5 84q6 46 39 73.5t81 27.5q53 0 81.5 -33.5t21.5 -87.5q-6 -44 -39 -70.5t-81 -26.5zM281 645q-2 -18 8 -29.5t29 -11.5q40 0 45 39q2 18 -7.5 30t-28.5 12t-31.5 -11t-14.5 -29zM113 340l-20 119q135 37 221 37q109 0 153 -49t30 -153
l-42 -294h-179l6 41q-71 -50 -132 -50q-83 0 -119.5 37t-24.5 124q11 75 65.5 109.5t156.5 34.5h90l1 2q5 35 -4.5 49t-44.5 14q-55 0 -157 -21zM306 211h-53q-71 0 -78 -51q-3 -20 7.5 -29.5t32.5 -9.5q34 0 82 25z" />
    <glyph glyph-name="atilde.ss05" horiz-adv-x="530" 
d="M316 568l-51 28q-9 6 -16.5 6.5t-16.5 -5t-16 -13l-21 -22.5l-62 10q8 50 29.5 82t49.5 41.5t55.5 8t53.5 -13.5l50 -26q21 -7 33 -1t36 31q3 4 5 6l66 -10q-9 -51 -32 -83.5t-52 -42.5t-57.5 -9t-53.5 13zM113 340l-20 119q135 37 221 37q109 0 153 -49t30 -153
l-42 -294h-179l6 41q-71 -50 -132 -50q-83 0 -119.5 37t-24.5 124q11 75 65.5 109.5t156.5 34.5h90l1 2q5 35 -4.5 49t-44.5 14q-55 0 -157 -21zM306 211h-53q-71 0 -78 -51q-3 -20 7.5 -29.5t32.5 -9.5q34 0 82 25z" />
    <glyph glyph-name="g.ss06" horiz-adv-x="591" 
d="M183 110l172 -1q103 0 137 -33.5t22 -119.5q-13 -96 -81.5 -135.5t-221.5 -39.5q-267 0 -249 124q4 36 22.5 55t55.5 27q-37 32 -32 103q3 34 22 58t74 40q-51 45 -36 142q12 89 70.5 127.5t174.5 38.5q86 0 137 -25q50 34 104 34q36 0 60 -13l-18 -96h-38q-20 0 -41 -5
q8 -33 2 -75q-13 -94 -73 -133.5t-173 -39.5q-76 0 -120 17q-17 -14 -18 -27q-1 -14 8 -18.5t40 -4.5zM349 330q4 27 -7 42.5t-34 15.5q-60 0 -69 -73q-4 -26 7 -40.5t33 -14.5q61 0 70 70zM337 -47h-155q-31 0 -56 3q-17 -9 -18 -31q-3 -23 24 -30t88 -7q76 0 105.5 10
t34.5 36q2 11 -3 15t-20 4z" />
    <glyph glyph-name="gbreve.ss06" horiz-adv-x="591" 
d="M423 690h101q-20 -144 -169 -144q-77 0 -115 38.5t-29 105.5h99q-2 -46 47 -46q28 0 45 13.5t21 32.5zM183 110l172 -1q103 0 137 -33.5t22 -119.5q-13 -96 -81.5 -135.5t-221.5 -39.5q-267 0 -249 124q4 36 22.5 55t55.5 27q-37 32 -32 103q3 34 22 58t74 40
q-51 45 -36 142q12 89 70.5 127.5t174.5 38.5q86 0 137 -25q50 34 104 34q36 0 60 -13l-18 -96h-38q-20 0 -41 -5q8 -33 2 -75q-13 -94 -73 -133.5t-173 -39.5q-76 0 -120 17q-17 -14 -18 -27q-1 -14 8 -18.5t40 -4.5zM349 330q4 27 -7 42.5t-34 15.5q-60 0 -69 -73
q-4 -26 7 -40.5t33 -14.5q61 0 70 70zM337 -47h-155q-31 0 -56 3q-17 -9 -18 -31q-3 -23 24 -30t88 -7q76 0 105.5 10t34.5 36q2 11 -3 15t-20 4z" />
    <glyph glyph-name="gcommaaccent.ss06" horiz-adv-x="591" 
d="M392 782l19 -54q-30 -13 -51 -32q46 -25 38 -82q-5 -30 -28 -50t-55 -20q-37 0 -58 28.5t-15 69.5q7 49 40.5 80.5t109.5 59.5zM183 110l172 -1q103 0 137 -33.5t22 -119.5q-13 -96 -81.5 -135.5t-221.5 -39.5q-267 0 -249 124q4 36 22.5 55t55.5 27q-37 32 -32 103
q3 34 22 58t74 40q-50 45 -37 142q13 89 71.5 127.5t173.5 38.5q87 0 138 -25q50 34 104 34q36 0 60 -13l-19 -96h-38q-19 0 -40 -5q8 -33 2 -75q-13 -94 -73 -133.5t-173 -39.5q-76 0 -120 17q-17 -14 -18 -27q-2 -14 7.5 -18.5t40.5 -4.5zM349 330q4 27 -7 42.5t-34 15.5
q-60 0 -69 -73q-4 -26 7 -40.5t33 -14.5q61 0 70 70zM337 -47h-155q-31 0 -56 3q-17 -9 -18 -31q-3 -23 24 -30t88 -7q76 0 105.5 10t34.5 36q2 11 -3 15t-20 4z" />
    <glyph glyph-name="gdotaccent.ss06" horiz-adv-x="591" 
d="M344 537q-43 0 -69 27.5t-19 72.5q6 39 33 60t65 21q40 0 66.5 -28t20.5 -73q-5 -37 -34 -58.5t-63 -21.5zM183 110l172 -1q103 0 137 -33.5t22 -119.5q-13 -96 -81.5 -135.5t-221.5 -39.5q-267 0 -249 124q4 36 22.5 55t55.5 27q-37 32 -32 103q3 34 22 58t74 40
q-51 45 -36 142q12 89 70.5 127.5t174.5 38.5q86 0 137 -25q50 34 104 34q36 0 60 -13l-18 -96h-38q-20 0 -41 -5q8 -33 2 -75q-13 -94 -73 -133.5t-173 -39.5q-76 0 -120 17q-17 -14 -18 -27q-1 -14 8 -18.5t40 -4.5zM349 330q4 27 -7 42.5t-34 15.5q-60 0 -69 -73
q-4 -26 7 -40.5t33 -14.5q61 0 70 70zM337 -47h-155q-31 0 -56 3q-17 -9 -18 -31q-3 -23 24 -30t88 -7q76 0 105.5 10t34.5 36q2 11 -3 15t-20 4z" />
    <glyph glyph-name="y.ss07" horiz-adv-x="591" 
d="M585 487l-57 -401q-20 -142 -88.5 -203.5t-197.5 -61.5q-119 0 -212 40l34 115q85 -20 160 -20q96 0 119 105q-33 -23 -64.5 -31.5t-80.5 -8.5q-92 0 -132 61.5t-23 179.5l32 225h181l-33 -229q-7 -53 5 -73.5t45 -20.5q41 0 91 38l41 285h180z" />
    <glyph glyph-name="yacute.ss07" horiz-adv-x="591" 
d="M500 660l-2 -39q-94 -60 -214 -101l-42 48l154 171zM585 487l-57 -401q-20 -142 -88.5 -203.5t-197.5 -61.5q-119 0 -212 40l34 115q85 -20 160 -20q96 0 119 105q-33 -23 -64.5 -31.5t-80.5 -8.5q-92 0 -132 61.5t-23 179.5l32 225h181l-33 -229q-7 -53 5 -73.5
t45 -20.5q41 0 91 38l41 285h180z" />
    <glyph glyph-name="ycircumflex.ss07" horiz-adv-x="591" 
d="M521 577l-45 -45q-24 15 -66 38t-57 32l-132 -69l-43 46l137 135h96zM586 487l-57 -401q-20 -142 -88.5 -203.5t-197.5 -61.5q-118 0 -213 40l34 115q85 -20 160 -20q96 0 119 105q-33 -23 -64.5 -31.5t-79.5 -8.5q-93 0 -132.5 61.5t-23.5 179.5l33 225h181l-33 -229
q-7 -53 4.5 -73.5t45.5 -20.5q40 0 90 38l41 285h181z" />
    <glyph glyph-name="ydieresis.ss07" horiz-adv-x="591" 
d="M241 542q-37 0 -61.5 25t-18.5 66q5 34 30.5 53t57.5 19q39 0 62.5 -25t17.5 -67q-5 -34 -29.5 -52.5t-58.5 -18.5zM454 542q-39 0 -62.5 25t-16.5 66q5 35 29.5 53.5t58.5 18.5q37 0 61.5 -25.5t18.5 -66.5q-5 -34 -31 -52.5t-58 -18.5zM585 487l-57 -401
q-20 -142 -88.5 -203.5t-197.5 -61.5q-119 0 -212 40l34 115q85 -20 160 -20q96 0 119 105q-33 -23 -64.5 -31.5t-80.5 -8.5q-92 0 -132 61.5t-23 179.5l32 225h181l-33 -229q-7 -53 5 -73.5t45 -20.5q41 0 91 38l41 285h180z" />
    <glyph glyph-name="ygrave.ss07" horiz-adv-x="591" 
d="M459 568l-46 -44q-112 41 -188 103v33l124 79zM585 487l-57 -401q-20 -142 -88.5 -203.5t-197.5 -61.5q-119 0 -212 40l34 115q85 -20 160 -20q96 0 119 105q-33 -23 -64.5 -31.5t-80.5 -8.5q-92 0 -132 61.5t-23 179.5l32 225h181l-33 -229q-7 -53 5 -73.5t45 -20.5
q41 0 91 38l41 285h180z" />
    <glyph glyph-name="uni00660062" horiz-adv-x="958" 
d="M665 678l-33 -235q75 52 150 52q186 0 151 -254q-18 -127 -78.5 -188.5t-139.5 -61.5q-50 0 -78.5 14t-59.5 46l-7 -51h-181l77 550q-41 2 -106 2q-61 0 -70 -62l-1 -4h114l-20 -149h-115l-47 -337h-181l48 337h-66l20 149h67l1 8q14 101 67 147t157 46q49 0 148 -25
l2 16h181zM612 301l-18 -131q27 -30 67 -30q37 0 61.5 29t32.5 86q7 48 -5 68.5t-43 20.5q-44 0 -95 -43z" />
    <glyph glyph-name="uni006600660062" horiz-adv-x="1313" 
d="M1020 678l-33 -235q75 52 149 52q187 0 151 -254q-18 -127 -78 -188.5t-140 -61.5q-50 0 -77.5 14t-59.5 47l-7 -52h-181l77 550q-41 1 -106 1q-62 0 -71 -61v-4h114l-21 -149h-114l-47 -337h-181l48 337h-177l-47 -337h-181l48 337h-65l21 149h65l1 8q14 101 67.5 147
t157.5 46q43 0 108 -13l-23 -123q-11 0 -30.5 0.5t-28.5 0.5q-63 0 -72 -63v-3h177l1 8q14 101 67 147t156 46q53 0 149 -25l2 16h181zM967 301l-18 -131q26 -29 67 -29q78 0 94 115q7 48 -5 68t-43 20q-44 0 -95 -43z" />
    <glyph glyph-name="uni006600660066" horiz-adv-x="1098" 
d="M1156 674l-23 -123q-21 1 -58 1q-63 0 -72 -62l-1 -3h116l-20 -150h-117l-47 -337h-181l48 337h-177l-47 -337h-181l47 337h-177l-47 -337h-181l48 337h-64l20 150h65l1 7q14 102 68 147.5t158 45.5q50 0 107 -13l-23 -123q-21 1 -58 1q-63 0 -72 -62l-1 -3h177l2 7
q14 102 67.5 147.5t157.5 45.5q51 0 108 -13l-23 -123q-21 1 -59 1q-63 0 -72 -62v-3h177l1 7q14 102 68 147.5t158 45.5q50 0 107 -13z" />
    <glyph glyph-name="uni006600660068" horiz-adv-x="1311" 
d="M1025 678l-35 -247q102 65 169 65q78 0 106.5 -45.5t14.5 -144.5l-43 -306h-181l36 263q5 37 -0.5 49.5t-28.5 12.5q-40 0 -93 -41l-40 -284h-181l77 550q-42 2 -109 2q-62 0 -71 -62v-4h114l-21 -149h-114l-47 -337h-181l48 337h-179l-47 -337h-181l48 337h-65l21 149
h65l1 8q14 101 67.5 147t157.5 46q43 0 108 -13l-23 -123q-11 0 -30.5 0.5t-28.5 0.5q-63 0 -72 -63v-3h179l1 8q14 101 67 147t156 46q51 0 152 -25l2 16h181z" />
    <glyph glyph-name="uni00660066006A" horiz-adv-x="1018" 
d="M936 721q45 0 73 -27.5t21 -75.5q-6 -40 -36 -61t-70 -21q-45 0 -73 27.5t-22 75.5q6 40 36.5 61t70.5 21zM997 487l-59 -421q-15 -106 -68 -163.5t-174 -82.5l-25 125q44 22 62 50t24 75l38 267h-170l-47 -337h-181l48 337h-179l-47 -337h-181l48 337h-64l20 150h65l1 7
q14 102 68 147.5t158 45.5q50 0 107 -13l-23 -123q-21 1 -58 1q-63 0 -72 -62l-1 -3h179l1 7q14 102 67 147.5t157 45.5q40 0 102 -14l-22 -122q-23 1 -54 1q-61 0 -70 -62l-1 -3h351z" />
    <glyph glyph-name="uni00660066006B" horiz-adv-x="1323" 
d="M1345 487l-216 -215q103 -142 158 -272h-197q-42 89 -86 147l-56 -56l-12 -91h-181l77 550q-42 2 -110 2q-61 0 -70 -62l-1 -4h114l-20 -149h-115l-47 -337h-181l48 337h-184l-47 -337h-181l48 337h-64l20 149h65l1 8q14 101 68 147t158 46q42 0 107 -13l-23 -123
q-11 0 -30 0.5t-28 0.5q-63 0 -72 -63l-1 -3h184l1 8q14 101 67 147t157 46q54 0 151 -25l3 16h181l-49 -344l154 153h209z" />
    <glyph glyph-name="uni006600660074" horiz-adv-x="1111" 
d="M975 337l-20 -146q-4 -29 4.5 -41.5t39.5 -12.5q40 0 63 1l9 -112q-60 -34 -153 -34q-89 0 -123.5 48t-20.5 152l20 145h-171l-47 -337h-181l47 337h-176l-47 -337h-181l48 337h-64l20 150h65l1 7q14 102 68 147.5t158 45.5q50 0 107 -13l-23 -123q-21 1 -58 1
q-63 0 -72 -62l-1 -3h176l2 7q14 102 67.5 147.5t157.5 45.5q51 0 108 -13l-23 -123q-21 1 -59 1q-63 0 -72 -62v-3h171l15 103h181l-15 -103h114l-20 -150h-115z" />
    <glyph glyph-name="uni00660068" horiz-adv-x="951" 
d="M665 678l-35 -247q100 65 169 65q78 0 106.5 -45.5t14.5 -144.5l-43 -306h-181l37 263q5 37 -1 49.5t-28 12.5q-41 0 -94 -41l-40 -284h-181l77 550q-41 2 -106 2q-61 0 -70 -62l-1 -4h114l-20 -149h-115l-47 -337h-181l48 337h-66l20 149h67l1 8q14 101 67 147t157 46
q49 0 148 -25l2 16h181z" />
    <glyph glyph-name="uni0066006A" horiz-adv-x="658" 
d="M576 721q45 0 73 -27.5t22 -75.5q-6 -40 -36.5 -61t-70.5 -21q-45 0 -72.5 27.5t-21.5 75.5q6 40 36 61t70 21zM637 487l-59 -421q-15 -106 -68 -163.5t-174 -82.5l-25 125q44 22 62 50t24 75l38 267h-167l-47 -337h-181l48 337h-66l20 150h67l1 7q14 102 67 147.5
t157 45.5q41 0 111 -14l-24 -122l-61 1q-61 0 -70 -62l-1 -3h348z" />
    <glyph glyph-name="uni0066006B" horiz-adv-x="958" 
d="M980 487l-216 -215q101 -138 158 -272h-197q-42 88 -87 148l-55 -55l-13 -93h-181l77 550q-41 2 -106 2q-61 0 -70 -62l-1 -4h114l-20 -149h-115l-47 -337h-181l48 337h-66l20 149h67l1 8q14 101 67 147t157 46q49 0 148 -25l2 16h181l-48 -342l154 151h209z" />
    <glyph glyph-name="uni00660074" horiz-adv-x="741" 
d="M605 337l-20 -146q-4 -29 4.5 -41.5t39.5 -12.5q40 0 63 1l9 -112q-60 -34 -153 -34q-90 0 -124.5 48t-20.5 152l21 145h-158l-47 -337h-181l48 337h-64l20 150h65l1 7q14 102 68 147.5t158 45.5q50 0 107 -13l-23 -123q-21 1 -58 1q-63 0 -72 -62l-1 -3h158l15 103h181
l-15 -103h114l-20 -150h-115z" />
    <glyph glyph-name="uni00720066" horiz-adv-x="805" 
d="M863 672l-26 -121q-27 1 -66 1q-62 0 -71 -62v-3h114l-20 -150h-115l-47 -337h-181l47 337h-48l21 150h48l2 7q14 102 67 147.5t157 45.5q51 0 118 -15zM257 487l-10 -73q36 44 66.5 62.5t67.5 18.5q21 0 61 -3l-31 -183q-22 1 -56 1q-86 0 -132 -69l-34 -241h-181
l68 487h181z" />
    <glyph glyph-name="uni00720074" horiz-adv-x="818" 
d="M681 337l-20 -149q-4 -28 4 -39.5t38 -11.5q43 0 65 1l10 -112q-60 -34 -151 -34t-126 47t-21 151l20 147h-46l20 150h47l15 103h181l-15 -103h115l-21 -150h-115zM257 487l-10 -73q36 44 66.5 62.5t67.5 18.5q21 0 61 -3l-31 -183q-22 1 -56 1q-86 0 -132 -69l-34 -241
h-181l68 487h181z" />
    <glyph glyph-name="zero.osf" horiz-adv-x="609" 
d="M340 538q136 0 197.5 -77.5t43.5 -205.5q-17 -122 -95.5 -193t-211.5 -71q-135 0 -196.5 76.5t-44.5 201.5q18 124 96 196.5t211 72.5zM287 158q48 0 74 31.5t33 79.5q7 49 -6.5 75.5t-59.5 26.5q-48 0 -74 -32.5t-33 -83.5q-7 -46 6.5 -71.5t59.5 -25.5z" />
    <glyph glyph-name="one.osf" horiz-adv-x="521" 
d="M481 156l-21 -156h-453l22 156h145l24 164q-54 -12 -131 -23l-26 124q116 42 218 107h153l-52 -372h121z" />
    <glyph glyph-name="two.osf" horiz-adv-x="543" 
d="M77 330l-39 133q95 40 158.5 57.5t125.5 17.5q102 0 158 -54t44 -138q-11 -74 -71 -118.5t-167 -75.5q47 4 90 4h125l-22 -156h-486l18 132q201 92 254 127q61 39 65 72q4 27 -11 39.5t-43 12.5q-61 0 -199 -53z" />
    <glyph glyph-name="three.osf" horiz-adv-x="564" 
d="M92 354l-28 125q146 59 262 59q99 0 157 -51t47 -130q-14 -91 -91 -130q83 -36 70 -134q-13 -89 -83.5 -136.5t-183.5 -47.5q-145 0 -264 69l62 121q106 -48 202 -48q38 0 63 16.5t29 43.5q4 24 -22 35t-85 11h-85l19 136h77q112 0 119 51q4 26 -13 38t-53 12
q-58 0 -199 -40z" />
    <glyph glyph-name="four.osf" horiz-adv-x="623" 
d="M482 0l-13 -95h-180l13 95h-318l13 126l378 392h180l-52 -376h86l-21 -142h-86zM323 142l26 181q-42 -45 -50 -53l-66 -66q-42 -42 -67 -62h157z" />
    <glyph glyph-name="five.osf" horiz-adv-x="575" 
d="M240 365l-21 -97q64 35 136 35q91 0 136 -52.5t32 -144.5q-14 -100 -90.5 -154t-180.5 -54q-154 0 -276 69l63 131q107 -49 197 -49q40 0 74 23.5t39 56.5q4 26 -11.5 41t-47.5 15q-50 0 -96 -43l-150 25l70 351h441l-22 -153h-293z" />
    <glyph glyph-name="six.osf" horiz-adv-x="588" 
d="M585 576l-56 -126q-83 21 -142 21q-120 -1 -162 -124q67 46 162 46q86 0 133 -54t35 -138q-14 -98 -85.5 -154t-189.5 -56q-138 0 -202.5 79t-46.5 212q23 160 120.5 249t241.5 89q92 0 192 -44zM290 138q36 0 62.5 24t31.5 62q4 27 -13 42t-53 15q-27 0 -57.5 -14.5
t-52.5 -38.5q2 -90 82 -90z" />
    <glyph glyph-name="seven.osf" horiz-adv-x="512" 
d="M537 518l-18 -141q-181 -225 -276 -456h-218q133 265 287 444h-280l22 153h483z" />
    <glyph glyph-name="eight.osf" horiz-adv-x="580" 
d="M347 620q117 0 173.5 -45.5t45.5 -124.5q-6 -40 -33.5 -68t-84.5 -52q61 -28 87.5 -65.5t18.5 -94.5q-12 -87 -87 -133t-196 -46q-152 0 -214.5 49.5t-49.5 143.5q13 90 132 143q-80 50 -68 130q11 81 82 122t194 41zM337 504q-38 0 -62 -16t-26 -42q-2 -19 13.5 -32.5
t60.5 -31.5q75 28 77 78q0 44 -63 44zM260 268q-67 -32 -75 -84q-4 -28 16.5 -41t61.5 -13q39 0 66.5 17t29.5 46q2 21 -18 35.5t-81 39.5z" />
    <glyph glyph-name="nine.osf" horiz-adv-x="588" 
d="M10 -46l56 126q82 -22 142 -22q113 1 150 117q-60 -42 -150 -42q-87 0 -134.5 55t-35.5 140q14 98 86 154t191 56q136 0 196.5 -78.5t42.5 -212.5q-47 -339 -348 -339q-94 0 -196 46zM304 391q-37 -1 -64 -20.5t-32 -51.5q-4 -28 15 -47.5t53 -19.5q53 0 101 41
q3 98 -73 98z" />
    <glyph glyph-name="zero.tf" horiz-adv-x="568" 
d="M332 620q138 0 198 -84.5t38 -239.5q-43 -305 -314 -305q-139 0 -199 83.5t-38 236.5q45 309 315 309zM267 158q50 0 76.5 38t37.5 115q10 77 -2 109.5t-60 32.5q-50 0 -76.5 -38.5t-38.5 -118.5q-10 -75 2.5 -106.5t60.5 -31.5z" />
    <glyph glyph-name="one.tf" horiz-adv-x="568" 
d="M496 156l-21 -156h-448l22 156h140l34 244q-63 -13 -129 -21l-27 124q113 41 219 107h152l-63 -454h121z" />
    <glyph glyph-name="two.tf" horiz-adv-x="568" 
d="M100 412l-39 133q96 40 159.5 57.5t125.5 17.5q103 0 158 -60.5t41 -157.5q-10 -70 -74 -125.5t-190 -126.5q55 6 107 6h125l-22 -156h-485l17 132l59.5 42.5l56.5 40l49.5 36t46 34.5l38 30.5t33.5 29t23.5 24.5t17.5 23.5t7 20.5q4 27 -11 39.5t-44 12.5
q-66 0 -199 -53z" />
    <glyph glyph-name="three.tf" horiz-adv-x="568" 
d="M110 436l-29 125q147 58 267 58q99 0 157 -50.5t47 -130.5q-6 -41 -32.5 -73.5t-63.5 -51.5q43 -17 62 -53.5t13 -84.5q-13 -88 -83.5 -136t-183.5 -48q-147 0 -269 69l62 121q103 -46 208 -46q38 0 62.5 15.5t28.5 42.5q4 25 -22.5 35.5t-89.5 10.5h-85l19 136h82
q112 0 120 51q6 50 -68 50q-63 0 -202 -40z" />
    <glyph glyph-name="four.tf" horiz-adv-x="568" 
d="M474 103l-14 -103h-180l14 103h-302l14 125l359 382h180l-51 -364h68l-20 -143h-68zM314 246l25 176q-23 -28 -26 -32l-98 -106l-39 -38h138z" />
    <glyph glyph-name="five.tf" horiz-adv-x="568" 
d="M256 456l-23 -95q61 35 135 35q91 0 135.5 -53t31.5 -144q-14 -100 -89.5 -154t-180.5 -54q-154 0 -276 69l63 130q102 -46 192 -46q48 0 80.5 21t37.5 57q4 26 -11.5 41t-46.5 15q-49 0 -98 -44l-149 25l70 351h441l-21 -154h-291z" />
    <glyph glyph-name="six.tf" horiz-adv-x="568" 
d="M572 576l-56 -126q-83 21 -141 21q-120 -1 -162 -124q66 46 161 46q87 0 134 -54t35 -138q-14 -98 -86 -154t-189 -56q-138 0 -203 79t-46 212q22 160 119.5 249t241.5 89q94 0 192 -44zM277 138q36 0 63 24t32 62q4 28 -13.5 42.5t-53.5 14.5q-27 0 -57.5 -14.5
t-51.5 -38.5q2 -90 81 -90z" />
    <glyph glyph-name="seven.tf" horiz-adv-x="568" 
d="M576 610l-20 -140q-165 -207 -275 -470h-218q148 295 287 459h-280l23 151h483z" />
    <glyph glyph-name="eight.tf" horiz-adv-x="568" 
d="M340 620q117 0 173.5 -45.5t45.5 -124.5q-5 -40 -33 -68t-85 -52q62 -28 88.5 -65.5t18.5 -94.5q-12 -86 -87 -132.5t-196 -46.5q-152 0 -214.5 49.5t-49.5 143.5q11 89 131 143q-80 50 -68 130q11 81 82 122t194 41zM331 504q-38 0 -62 -16t-26 -42q-2 -19 13 -32.5
t60 -31.5q77 29 77 78q1 20 -15.5 32t-46.5 12zM253 268q-68 -33 -74 -84q-7 -54 77 -54q39 0 66.5 17t30.5 46q1 21 -19 35.5t-81 39.5z" />
    <glyph glyph-name="nine.tf" horiz-adv-x="568" 
d="M17 36l55 126q83 -22 143 -22q111 1 150 118q-61 -42 -151 -42q-87 0 -134 55t-35 139q14 99 85.5 154.5t190.5 55.5q136 0 196.5 -78.5t42.5 -212.5q-47 -338 -347 -338q-98 0 -196 45zM311 473q-38 0 -65 -19.5t-31 -51.5q-5 -28 14 -47.5t54 -19.5q55 0 101 41
q3 97 -73 97z" />
    <glyph glyph-name="zero.zero" horiz-adv-x="629" 
d="M362 620q144 0 205.5 -84t39.5 -240q-43 -305 -323 -305q-144 0 -205 83t-40 237q45 309 323 309zM224 282l176 159q-18 12 -51 12q-56 0 -84 -38.5t-39 -118.5zM423 344l-185 -167q18 -19 59 -19q56 0 83.5 37.5t38.5 115.5z" />
    <glyph glyph-name="zero.dnom" horiz-adv-x="401" 
d="M215 381q89 0 128 -53t26 -150q-28 -187 -199 -187q-90 0 -129 52.5t-25 149.5q26 188 199 188zM175 96q35 0 53 24t24 73q7 45 -2 64.5t-39 19.5q-36 0 -54 -24t-25 -75q-7 -44 2.5 -63t40.5 -19z" />
    <glyph glyph-name="one.dnom" horiz-adv-x="349" 
d="M306 98l-13 -98h-284l14 98h87l22 149q-28 -5 -80 -13l-19 80q81 29 137 67l95 -2l-39 -281h80z" />
    <glyph glyph-name="two.dnom" horiz-adv-x="361" 
d="M55 254l-28 85q111 46 178 46q63 0 97.5 -39t26.5 -100q-6 -42 -45 -76t-115 -76q42 4 62 4h79l-14 -98h-302l11 83q141 101 169 127q32 31 35 50q3 16 -5 22.5t-26 6.5q-39 0 -123 -35z" />
    <glyph glyph-name="three.dnom" horiz-adv-x="365" 
d="M56 267l-21 79q92 34 164 34q62 0 98.5 -32t29.5 -82q-7 -55 -68 -77q64 -24 55 -86q-7 -55 -49.5 -83.5t-112.5 -28.5q-91 0 -167 45l36 74q62 -30 128 -30q51 0 58 39q2 14 -13.5 20t-55.5 6h-54l12 85h50q71 0 75 34q2 16 -7.5 21.5t-32.5 5.5q-42 0 -125 -24z" />
    <glyph glyph-name="four.dnom" horiz-adv-x="404" 
d="M305 63l-8 -63h-112l9 63h-202l8 79l237 237h113l-32 -228h53l-13 -88h-53zM206 151l15 105q-17 -19 -29 -30l-42 -40q-18 -20 -40 -35h96z" />
    <glyph glyph-name="five.dnom" horiz-adv-x="377" 
d="M157 279l-14 -57q42 22 85 22q57 0 85.5 -34t20.5 -93q-9 -62 -55 -94t-112 -32q-94 0 -172 45l37 79q63 -29 121 -29q26 0 47 14.5t25 35.5q2 16 -7 24.5t-28 8.5q-28 0 -61 -26l-94 15l43 217h275l-13 -96h-183z" />
    <glyph glyph-name="six.dnom" horiz-adv-x="379" 
d="M356 354l-32 -79q-48 12 -87 12q-76 0 -103 -77q44 30 98 30t84.5 -34.5t23.5 -86.5q-8 -60 -52 -94t-118 -34q-86 0 -127 50.5t-29 132.5q13 99 72.5 153t148.5 54q56 0 121 -27zM173 83q23 1 41.5 15.5t21.5 37.5q2 16 -9 25.5t-31 9.5q-39 0 -72 -33q0 -55 49 -55z
" />
    <glyph glyph-name="seven.dnom" horiz-adv-x="337" 
d="M336 379l-12 -88q-110 -146 -171 -291h-136q93 186 176 285h-172l14 94h301z" />
    <glyph glyph-name="eight.dnom" horiz-adv-x="385" 
d="M212 381q73 0 109 -28.5t29 -77.5q-6 -48 -73 -75q75 -35 66 -101q-7 -53 -53 -81t-121 -27q-95 0 -134.5 32t-30.5 90q7 56 81 88q-49 30 -41 82q15 98 168 98zM207 309q-22 0 -36.5 -10.5t-16.5 -28.5q-2 -12 6.5 -19.5t32.5 -16.5q50 20 52 50q1 12 -9 18.5t-29 6.5z
M165 163q-45 -21 -51 -53q-3 -16 9.5 -24t36.5 -8q25 0 41.5 11.5t19.5 29.5q2 13 -10 22.5t-46 21.5z" />
    <glyph glyph-name="nine.dnom" horiz-adv-x="369" 
d="M4 20l32 77q53 -12 88 -12q68 0 95 73q-36 -23 -86 -23q-55 0 -87 33.5t-25 85.5q8 60 52 93.5t117 33.5q86 0 124 -49t26 -133q-29 -208 -213 -208q-60 0 -123 29zM126 239q-2 -17 8 -27t32 -10q35 0 63 28q8 60 -41 60q-54 0 -62 -51z" />
    <glyph glyph-name="zero.numr" horiz-adv-x="401" 
d="M246 620q89 0 128 -53t26 -150q-28 -187 -199 -187q-90 0 -129 52.5t-25 149.5q26 188 199 188zM206 335q35 0 53 24t24 73q7 45 -2 64.5t-39 19.5q-36 0 -54 -24t-25 -75q-7 -44 2.5 -63t40.5 -19z" />
    <glyph glyph-name="one.numr" horiz-adv-x="349" 
d="M319 231h-283l13 98h87l22 149q-22 -4 -80 -13l-18 80q78 28 137 67l95 -2l-40 -281h81z" />
    <glyph glyph-name="two.numr" horiz-adv-x="361" 
d="M92 489l-28 85q111 46 178 46q63 0 97.5 -39t26.5 -100q-6 -42 -45 -76t-115 -76q42 4 62 4h79l-13 -98h-302l10 83q142 101 171 129q32 29 34 48q2 16 -6 22.5t-25 6.5q-38 0 -124 -35z" />
    <glyph glyph-name="three.numr" horiz-adv-x="365" 
d="M95 506l-21 79q90 35 165 35q62 0 98.5 -32t29.5 -82q-7 -55 -68 -78q63 -23 55 -86q-7 -55 -49.5 -83t-113.5 -28q-93 0 -166 44l35 74q60 -29 128 -29q53 0 58 38q2 15 -13.5 20.5t-55.5 5.5h-54l12 86h51q69 0 75 34q2 15 -7.5 21t-33.5 6q-37 0 -125 -25z" />
    <glyph glyph-name="four.numr" horiz-adv-x="404" 
d="M341 294l-9 -63h-112l9 63h-201l8 79l237 237h112l-31 -228h52l-12 -88h-53zM242 382l15 105q-17 -19 -29 -30l-43 -40q-18 -20 -40 -35h97z" />
    <glyph glyph-name="five.numr" horiz-adv-x="377" 
d="M191 514l-14 -57q42 22 85 22q57 0 85.5 -34t20.5 -93q-9 -62 -55 -94t-112 -32q-94 0 -172 45l37 79q63 -29 121 -29q26 0 47 14.5t25 35.5q2 16 -7 24.5t-28 8.5q-28 0 -61 -26l-94 15l43 217h275l-13 -96h-183z" />
    <glyph glyph-name="six.numr" horiz-adv-x="379" 
d="M387 593l-33 -79q-48 12 -87 12q-76 0 -103 -77q44 30 99 30q54 0 84.5 -34.5t22.5 -86.5q-8 -60 -51.5 -94t-117.5 -34q-86 0 -127 50t-30 133q14 99 73.5 153t147.5 54q55 0 122 -27zM204 322q23 1 41 15.5t21 37.5q2 16 -8.5 25.5t-30.5 9.5q-40 0 -73 -33
q0 -55 50 -55z" />
    <glyph glyph-name="seven.numr" horiz-adv-x="337" 
d="M372 610l-11 -88q-110 -144 -172 -291h-136q91 183 177 285h-172l14 94h300z" />
    <glyph glyph-name="eight.numr" horiz-adv-x="385" 
d="M243 620q73 0 108.5 -28t29.5 -78q-7 -48 -73 -75q74 -35 65 -101q-7 -53 -52.5 -81t-120.5 -27q-95 0 -135 32t-31 90q7 55 82 88q-49 30 -41 82q13 98 168 98zM237 548q-21 0 -35.5 -11t-17.5 -28q-1 -12 7.5 -19.5t32.5 -16.5q49 20 51 50q1 12 -9 18.5t-29 6.5z
M196 402q-46 -21 -52 -53q-2 -16 10.5 -24t36.5 -8t41 11.5t20 29.5q2 13 -10 22.5t-46 21.5z" />
    <glyph glyph-name="nine.numr" horiz-adv-x="369" 
d="M41 259l32 77q53 -12 88 -12q68 0 95 73q-36 -23 -86 -23q-55 0 -87 33.5t-25 85.5q8 60 52 93.5t117 33.5q86 0 124 -49t26 -133q-29 -208 -213 -208q-60 0 -123 29zM163 478q-2 -17 8 -27t32 -10q35 0 63 28q8 60 -41 60q-55 0 -62 -51z" />
    <glyph glyph-name="backslash.case" horiz-adv-x="454" 
d="M198 653l225 -713h-150l-228 713h153z" />
    <glyph glyph-name="bullet.case" horiz-adv-x="357" 
d="M51 300q6 56 46.5 93t99.5 37q60 0 94 -39.5t28 -99.5q-6 -56 -47 -92.5t-99 -36.5q-60 0 -94 39.5t-28 98.5z" />
    <glyph glyph-name="exclamdown.case" horiz-adv-x="276" 
d="M174 449q-40 0 -62 27.5t-16 67.5q5 32 29 53t59 21q40 0 61.5 -27.5t16.5 -67.5q-5 -32 -29 -53t-59 -21zM87 386h142l-28 -386h-195z" />
    <glyph glyph-name="periodcentered.case" horiz-adv-x="293" 
d="M43 311q5 43 35.5 70.5t74.5 27.5q47 0 72.5 -30.5t20.5 -75.5q-5 -43 -35.5 -70.5t-74.5 -27.5q-46 0 -72 30.5t-21 75.5z" />
    <glyph glyph-name="questiondown.case" horiz-adv-x="549" 
d="M334 450q-40 0 -61.5 27.5t-16.5 67.5q5 32 29 53t59 21q40 0 62 -27.5t16 -67.5q-5 -32 -29 -53t-59 -21zM462 199l39 -133q-96 -40 -159.5 -57.5t-125.5 -17.5q-101 0 -157 57.5t-43 142.5q19 142 230 183l5 40h145l-5 -154h-22q-88 -1 -122 -17t-39 -45
q-4 -27 11 -39.5t44 -12.5q61 0 199 53z" />
    <glyph glyph-name="slash.case" horiz-adv-x="461" 
d="M321 653h156l-329 -714h-153z" />
    <glyph glyph-name="braceleft.case" horiz-adv-x="414" 
d="M332 476l-1 -13q-12 -77 -46.5 -112.5t-98.5 -44.5q61 -12 86 -49.5t13 -116.5l-2 -13q-5 -36 11.5 -50t80.5 -22l-21 -127q-143 1 -199.5 50t-41.5 159l2 13q7 52 -10.5 68t-82.5 23l11 74l8 57q62 6 87 27.5t32 68.5l2 13q16 110 83.5 154.5t216.5 46.5l-19 -129
q-62 -7 -84 -24.5t-27 -52.5z" />
    <glyph glyph-name="braceright.case" horiz-adv-x="414" 
d="M398 295l-8 -57q-62 -6 -87 -27.5t-32 -68.5l-2 -13q-16 -110 -83.5 -154.5t-216.5 -46.5l19 129q62 7 84 24.5t27 52.5l1 13q12 77 46.5 112t98.5 44q-61 13 -86 50.5t-13 116.5l2 13q5 36 -11 50t-80 22l20 127q143 -1 200 -50.5t41 -158.5l-2 -13q-7 -52 11 -68
t83 -23z" />
    <glyph glyph-name="bracketleft.case" horiz-adv-x="400" 
d="M441 660l-20 -140h-134l-61 -439h133l-19 -140h-299l101 719h299z" />
    <glyph glyph-name="bracketright.case" horiz-adv-x="400" 
d="M-22 -59l20 141h134l62 439h-134l20 139h299l-101 -719h-300z" />
    <glyph glyph-name="parenleft.case" horiz-adv-x="346" 
d="M273 665l103 -68q-39 -49 -53.5 -68.5t-39.5 -60.5t-37.5 -81.5t-20.5 -92.5q-5 -35 -6 -64t3.5 -56t9 -46.5t15.5 -45.5t18.5 -41.5t23.5 -45.5l-112 -52q-73 99 -101 176t-11 189q15 111 62.5 186.5t145.5 170.5z" />
    <glyph glyph-name="parenright.case" horiz-adv-x="338" 
d="M84 -57l-104 68q39 48 54 68.5t40 61t37.5 81.5t20.5 93q5 34 6 63.5t-3.5 56t-9 46t-15.5 45.5t-18.5 41.5t-23.5 45.5l112 52q73 -99 101 -176t11 -189q-15 -110 -62.5 -185.5t-145.5 -171.5z" />
    <glyph glyph-name="emdash.case" horiz-adv-x="938" 
d="M73 376h829l-18 -134h-830z" />
    <glyph glyph-name="endash.case" 
d="M73 376h389l-18 -134h-390z" />
    <glyph glyph-name="hyphen.case" horiz-adv-x="414" 
d="M76 394h305l-23 -160h-305z" />
    <glyph glyph-name="guillemotleft.case" horiz-adv-x="641" 
d="M371 430l-106 -97q-17 -16 -47 -37q16 -13 33 -32l84 -91l-100 -87l-200 217l256 217zM623 430l-105 -97q-15 -13 -47 -37q23 -21 32 -32l84 -91l-100 -87l-200 217l256 217z" />
    <glyph glyph-name="guillemotright.case" horiz-adv-x="641" 
d="M370 303l-257 -217l-80 87l105 98q19 17 48 37q-22 20 -31 32l-85 90l100 90zM623 303l-258 -217l-80 87l105 98q15 13 49 37q-17 15 -32 32l-85 90l100 90z" />
    <glyph glyph-name="guilsinglleft.case" horiz-adv-x="388" 
d="M371 430l-106 -97q-17 -16 -47 -37q16 -13 33 -32l84 -91l-100 -87l-200 217l256 217z" />
    <glyph glyph-name="guilsinglright.case" horiz-adv-x="388" 
d="M370 303l-257 -217l-80 87l105 98q19 17 48 37q-22 20 -31 32l-85 90l100 90z" />
    <glyph glyph-name="florin.tf" horiz-adv-x="568" 
d="M594 507l-59 -108q-73 21 -125 21q-97 0 -141 -139h174l-39 -116h-173l-54 -165h-181l53 165h-53l39 116h51l2 7q46 143 119 209.5t183 66.5q106 0 204 -57z" />
    <glyph glyph-name="cent.tf" horiz-adv-x="568" 
d="M456 177l48 -116q-86 -57 -175 -67l-7 -50h-117l7 53q-85 18 -130 91t-28 197q16 112 80 184t157 87l7 54h117l-7 -56q63 -12 136 -50l-60 -114q-61 25 -126 25q-105 0 -126 -151q-10 -70 8.5 -99t64.5 -29q71 0 151 41z" />
    <glyph glyph-name="dollar.tf" horiz-adv-x="568" 
d="M542 508l-52 -123q-129 42 -185 42q-52 0 -57 -35q-2 -13 16.5 -21.5t103.5 -36.5q86 -27 118.5 -67.5t22.5 -112.5q-9 -69 -63 -111.5t-145 -49.5l-8 -54h-117l8 61q-90 16 -178 68l69 125q118 -65 195 -65q62 0 65 36q1 13 -20.5 24t-96.5 37q-89 28 -121 72t-21 111
q9 63 58 103t129 47l8 55h117l-9 -60q68 -10 163 -45z" />
    <glyph glyph-name="Euro.tf" horiz-adv-x="568" 
d="M380 195l-132 -1q7 -61 75 -61q69 0 152 44l48 -116q-57 -39 -110 -54.5t-123 -15.5q-91 0 -151.5 51.5t-68.5 151.5h-55l8 56h47q2 24 4 34v4h-47l8 56h51q30 101 102.5 158.5t167.5 57.5q103 0 206 -57l-59 -113q-71 27 -125 27q-72 0 -106 -73h171l-25 -56h-164
l-4 -24q0 -2 -0.5 -6.5t-1.5 -6.5h155z" />
    <glyph glyph-name="sterling.tf" horiz-adv-x="568" 
d="M592 507l-60 -113q-68 27 -124 27q-81 0 -115 -114h152l-12 -72h-158l-21 -85h248l-20 -150h-490l21 134l59 10l22 91h-68l12 72h74q35 133 102 195t173 62q113 0 205 -57z" />
    <glyph glyph-name="yen.tf" horiz-adv-x="568" 
d="M441 286h96l-9 -56h-122l-22 -36h139l-9 -56h-151l-19 -138h-186l19 138h-152l9 56h140l-13 36h-121l9 56h93l-89 265h188l37 -143q10 -36 17 -77q18 45 40 86l78 134h193z" />
    <glyph glyph-name="arrowdown.ss08" horiz-adv-x="629" 
d="M315 568q119 0 204 -85t85 -204q0 -120 -85 -205t-204 -85q-120 0 -205 85t-85 205q0 119 85 204t205 85zM278 420v-167l-63 60l-52 -53l152 -140l152 140l-53 53l-62 -60v167h-74z" />
    <glyph glyph-name="arrowdownleft.ss08" horiz-adv-x="629" 
d="M604 278q0 120 -85 205t-204 86q-120 -1 -205 -86t-85 -205q0 -119 85 -204t205 -85q119 0 204 85t85 204zM193 159v214h75v-87l120 118l52 -52l-118 -120h86v-73h-215z" />
    <glyph glyph-name="arrowdownright.ss08" horiz-adv-x="629" 
d="M604 278q0 120 -85 205t-204 86q-120 -1 -205 -86t-85 -205q0 -119 85 -204t205 -85q119 0 204 85t85 204zM220 232h86l-118 120l53 52l119 -118v87h75v-214h-215v73z" />
    <glyph glyph-name="arrowleft.ss08" horiz-adv-x="629" 
d="M315 569q119 -1 204 -86t85 -205q0 -119 -85 -204t-204 -85q-120 0 -205 85t-85 204q0 120 85 205t205 86zM156 278l140 -152l53 53l-60 62h167v74h-167l60 63l-53 53z" />
    <glyph glyph-name="arrowright.ss08" horiz-adv-x="629" 
d="M314 569q120 -1 205 -86t85 -205q0 -119 -85 -204t-205 -85q-119 0 -204 85t-85 204q0 120 85 205t204 86zM280 378l60 -63h-166v-74h166l-60 -62l53 -53l140 152l-140 153z" />
    <glyph glyph-name="arrowup.ss08" horiz-adv-x="629" 
d="M315 568q119 0 204 -85t85 -205q0 -119 -85 -204t-204 -85q-120 0 -205 85t-85 204q0 120 85 205t205 85zM163 297l52 -53l63 60v-166h74v166l62 -60l53 53l-152 140z" />
    <glyph glyph-name="arrowupleft.ss08" horiz-adv-x="629" 
d="M604 280q0 119 -85 204t-204 85q-120 0 -205 -85t-85 -204q0 -120 85 -205t205 -86q119 1 204 86t85 205zM408 326h-86l118 -120l-52 -52l-120 118v-87h-75v214h215v-73z" />
    <glyph glyph-name="arrowupright.ss08" horiz-adv-x="629" 
d="M604 280q0 119 -85 204t-205 85q-119 0 -204 -85t-85 -204q0 -120 85 -205t204 -86q120 1 205 86t85 205zM436 399v-214h-75v87l-120 -118l-52 52l118 120h-86v73h215z" />
    <glyph glyph-name="arrowdown.ss13" horiz-adv-x="488" 
d="M245 498q89 0 153.5 -64.5t64.5 -154.5q0 -91 -64.5 -155t-153.5 -64q-91 0 -155.5 64t-64.5 155q0 90 64.5 154.5t155.5 64.5zM245 456q-73 0 -125.5 -52t-52.5 -125t52.5 -125.5t125.5 -52.5q72 0 124 52.5t52 125.5t-52 125t-124 52zM216 386v-126l-46 45l-41 -40
l116 -106l115 106l-42 40l-45 -45v126h-57z" />
    <glyph glyph-name="arrowdownleft.ss13" horiz-adv-x="488" 
d="M245 498q89 0 153.5 -64.5t64.5 -154.5q0 -91 -64.5 -155t-153.5 -64q-91 0 -155.5 64t-64.5 155q0 90 64.5 154.5t155.5 64.5zM245 456q-73 0 -125.5 -52t-52.5 -125t52.5 -125.5t125.5 -52.5q72 0 124 52.5t52 125.5t-52 125t-124 52zM347 334l-89 -90h64v-54h-162v161
h56v-66l91 89z" />
    <glyph glyph-name="arrowdownright.ss13" horiz-adv-x="488" 
d="M244 498q90 0 154.5 -64.5t64.5 -154.5q0 -91 -64.5 -155t-154.5 -64t-154.5 64t-64.5 155q0 90 64.5 154.5t154.5 64.5zM244 456q-73 0 -125 -52t-52 -125t52 -125.5t125 -52.5t125 52.5t52 125.5t-52 125t-125 52zM272 285v66h57v-161h-163v54h64l-89 90l40 40z" />
    <glyph glyph-name="arrowleft.ss13" horiz-adv-x="488" 
d="M245 498q89 0 153.5 -64.5t64.5 -154.5q0 -91 -64.5 -155t-153.5 -64q-91 0 -155.5 64t-64.5 155q0 90 64.5 154.5t155.5 64.5zM245 456q-73 0 -125.5 -52t-52.5 -125t52.5 -125.5t125.5 -52.5q72 0 124 52.5t52 125.5t-52 125t-124 52zM351 306h-126l46 46l-41 42
l-106 -116l106 -115l41 42l-46 45h126v56z" />
    <glyph glyph-name="arrowright.ss13" horiz-adv-x="488" 
d="M244 498q90 0 154.5 -64.5t64.5 -154.5q0 -91 -64.5 -155t-154.5 -64t-154.5 64t-64.5 155q0 90 64.5 154.5t154.5 64.5zM244 456q-73 0 -125 -52t-52 -125t52 -125.5t125 -52.5t125 52.5t52 125.5t-52 125t-125 52zM263 250l-46 -45l41 -42l106 115l-106 116l-41 -42
l46 -46h-126v-56h126z" />
    <glyph glyph-name="arrowup.ss13" horiz-adv-x="488" 
d="M245 60q-91 0 -155.5 64t-64.5 154q0 91 64.5 155.5t155.5 64.5q89 0 153.5 -64.5t64.5 -155.5q0 -90 -64.5 -154t-153.5 -64zM245 101q72 0 124 52.5t52 124.5q0 73 -52 125.5t-124 52.5q-73 0 -125.5 -52t-52.5 -126q0 -72 52.5 -124.5t125.5 -52.5zM273 297l45 -45
l42 40l-115 107l-116 -107l41 -40l46 45v-125h57v125z" />
    <glyph glyph-name="arrowupleft.ss13" horiz-adv-x="488" 
d="M245 60q-91 0 -155.5 64t-64.5 154q0 91 64.5 155.5t155.5 64.5q89 0 153.5 -64.5t64.5 -155.5q0 -90 -64.5 -154t-153.5 -64zM245 101q72 0 124 52t52 125t-52 125.5t-124 52.5q-73 0 -125.5 -52t-52.5 -126q0 -73 52.5 -125t125.5 -52zM217 272v-66h-57v162h162v-55
h-64l89 -90l-40 -40z" />
    <glyph glyph-name="arrowupright.ss13" horiz-adv-x="488" 
d="M244 60q-90 0 -154.5 64t-64.5 154q0 91 64.5 155.5t154.5 64.5t154.5 -64.5t64.5 -155.5q0 -90 -64.5 -154t-154.5 -64zM244 101q73 0 125 52t52 125t-52 125.5t-125 52.5t-125 -52.5t-52 -125.5t52 -125t125 -52zM141 223l89 90h-64v54h163v-161h-57v66l-91 -89z" />
    <glyph glyph-name="at.case" horiz-adv-x="876" 
d="M638 2l18 -63q-118 -59 -279 -59q-179 0 -273 110t-69 290q26 185 158.5 298t319.5 113q178 0 272 -105t71 -272q-10 -67 -33.5 -116t-49.5 -74.5t-59.5 -40t-56 -18t-47.5 -3.5q-95 0 -117 58q-46 -35 -78 -46.5t-78 -11.5q-159 0 -128 221q15 105 64 161t126 56
q61 0 121 -48l6 40h156l-39 -276q-6 -46 -2.5 -57.5t18.5 -11.5q14 0 28 6t33 22t35 54t25 93q20 137 -53 219t-218 82q-156 0 -266 -97t-132 -253q-21 -150 51 -234t220 -84q118 0 256 47zM488 220l16 121q-32 28 -64 28q-34 0 -53 -21.5t-26 -72.5q-7 -52 4 -71.5
t43 -19.5q42 0 80 36z" />
    <glyph glyph-name="registered.ss04" horiz-adv-x="730" 
d="M370 620q130 0 221.5 -92t91.5 -223t-91 -222.5t-222 -91.5t-222.5 91.5t-91.5 222.5t91.5 223t222.5 92zM370 31q114 0 194 80t80 194t-80 194.5t-194 80.5t-194 -80.5t-80 -194.5t80 -194t194 -80zM252 483h152q78 0 114 -33t28 -93q-11 -81 -74 -110l54 -117h-124
l-39 100h-37l-15 -101h-109zM338 317h50q45 0 50 36q3 20 -8 30.5t-37 10.5h-45z" />
    <glyph glyph-name="ampersand.ss09" horiz-adv-x="637" 
d="M632 295l-19 -148l-71 3q-32 -82 -94.5 -120.5t-176.5 -38.5q-136 0 -200 49t-51 144q7 49 36 83t96 67q-48 58 -36 134q10 74 70 113t162 39q85 0 132 -44t37 -113q-7 -51 -41.5 -91t-107.5 -75l-50.5 -20l-42 -16t-30 -13t-24 -15t-13.5 -17t-8 -23q-2 -14 2 -23
t10.5 -14t20.5 -7.5t23.5 -3t27.5 -0.5q71 0 93.5 30.5t34.5 119.5h220zM274 448q-4 -28 20 -54q80 26 86 68t-38 42q-28 0 -46 -15t-22 -41z" />
    <glyph glyph-name="ampersand.ss10" horiz-adv-x="522" 
d="M441 178l44 -131q-89 -40 -175 -51l-8 -57h-134l7 55q-93 10 -134.5 51.5t-30.5 110.5q7 54 37 84.5t87 43.5q-66 33 -55 113q9 66 53.5 107t120.5 52l8 57h135l-9 -59q68 -9 138 -43l-62 -122q-88 30 -153 30q-74 0 -78 -42q-3 -18 12.5 -26t55.5 -8h86l-18 -127h-100
q-78 0 -84 -46q-2 -18 14 -25.5t51 -7.5q51 0 88 8.5t104 32.5z" />
    <glyph glyph-name="copyright.ss11" horiz-adv-x="473" 
d="M257 230q-81 0 -137.5 57t-56.5 138t56.5 138t137.5 57t137.5 -57t56.5 -138t-56.5 -138t-137.5 -57zM257 262q67 0 114.5 48t47.5 115q0 68 -47.5 116t-114.5 48t-114.5 -48t-47.5 -116q0 -67 47.5 -115t114.5 -48zM325 393l18 -48q-51 -33 -102 -33q-46 0 -72 30
t-19 80q7 54 40 84t82 30q47 0 88 -24l-30 -53q-35 14 -55 14q-21 0 -31.5 -12t-14.5 -39q-7 -46 32 -46q25 0 64 17z" />
    <glyph glyph-name="registered.ss12" horiz-adv-x="474" 
d="M257 230q-81 0 -137.5 57t-56.5 138t56.5 138t137.5 57t137.5 -57t56.5 -138t-56.5 -138t-137.5 -57zM257 262q67 0 114.5 48t47.5 115q0 68 -47.5 116t-114.5 48t-114.5 -48t-47.5 -116q0 -67 47.5 -115t114.5 -48zM185 531h91q48 0 70 -19.5t17 -54.5q-6 -43 -43 -54
q26 -16 31 -78h-80q0 4 -1 12.5t-1.5 12l-1.5 10t-2.5 9l-3.5 6t-5.5 5t-7.5 1.5h-17l-8 -56h-66zM243 430h23q22 0 26 24q3 23 -23 23h-19z" />
    <glyph glyph-name="caron.alt" 
d="M250 720h128l-2 -17q-23 -101 -73 -172h-81z" />
    <glyph glyph-name="acute.case" 
d="M343 837l123 -70l-2 -39q-91 -54 -213 -92l-42 48z" />
    <glyph glyph-name="breve.case" 
d="M381 801h101q-10 -70 -53 -107t-117 -37q-77 0 -115 38.5t-28 105.5h99q-4 -46 46 -46q28 0 45 13t22 33z" />
    <glyph glyph-name="caron.case" 
d="M510 783l-153 -141h-101l-116 141l49 47l130 -79l150 79z" />
    <glyph glyph-name="circumflex.case" 
d="M447 636l-131 78l-149 -78l-41 47l153 141h101l115 -141z" />
    <glyph glyph-name="dieresis.case" 
d="M216 816q37 0 59.5 -24.5t16.5 -64.5q-4 -32 -27.5 -49.5t-56.5 -17.5q-35 0 -58 24t-18 63q4 33 29 51t55 18zM429 816q35 0 58.5 -25t17.5 -64q-5 -32 -29.5 -49.5t-54.5 -17.5q-37 0 -59.5 24t-16.5 63q4 33 28 51t56 18z" />
    <glyph glyph-name="dotaccent.case" 
d="M323 823q38 0 64 -26t20 -70q-5 -35 -32.5 -55t-60.5 -20q-41 0 -65.5 26t-18.5 69q5 37 31 56.5t62 19.5z" />
    <glyph glyph-name="grave.case" 
d="M408 683l-46 -45q-110 38 -189 94v33l140 71z" />
    <glyph glyph-name="hungarumlaut.case" 
d="M229 841l110 -60l-2 -37q-88 -62 -162 -105l-59 41zM425 841l110 -60l-2 -37q-88 -62 -162 -105l-59 41z" />
    <glyph glyph-name="macron.case" 
d="M485 793l-17 -124h-318l17 124h318z" />
    <glyph glyph-name="ring.case" 
d="M328 862q52 0 81 -29.5t25 -75.5q-3 -46 -37 -76t-85 -30t-80 29.5t-25 74.5q3 47 36.5 77t84.5 30zM324 798q-18 0 -30.5 -11.5t-14.5 -29.5t8 -29.5t29 -11.5t31.5 11.5t13.5 29.5q2 18 -8 29.5t-29 11.5z" />
    <glyph glyph-name="tilde.case" 
d="M442 801l66 -10q-8 -51 -31 -83.5t-52.5 -42.5t-58 -9t-52.5 13l-51 27q-10 6 -17.5 6.5t-16.5 -5t-16 -13l-21 -22.5l-62 10q9 50 30.5 82t49.5 42t55.5 8.5t52.5 -13.5l50 -26q10 -5 18 -5.5t18 5.5t16.5 13z" />
    </font>
</defs>
</svg>
