<?xml version="1.0" standalone="no"?>
<!DOCTYPE svg PUBLIC "-//W3C//DTD SVG 1.1//EN" "http://www.w3.org/Graphics/SVG/1.1/DTD/svg11.dtd" >
<svg>
<metadata>
Created by FontForge 20090622 at Thu Jun 16 16:46:50 2016
 By deploy user
Copyright &#194;&#169; 2013 by Rene Bieder. All rights reserved.
</metadata>
<defs>
<font id="Gentona-MediumItalic" horiz-adv-x="559" >
  <font-face 
    font-family="Gentona Medium Italic"
    font-weight="400"
    font-style="italic"
    font-stretch="normal"
    units-per-em="1000"
    panose-1="0 0 5 0 0 0 0 0 0 0"
    ascent="800"
    descent="-200"
    x-height="476"
    cap-height="610"
    bbox="-143 -227 1215 888"
    underline-thickness="50"
    underline-position="-50"
    slope="-8"
    unicode-range="U+0020-U+FB02"
  />
<missing-glyph horiz-adv-x="755" 
d="M707 610l-86 -610h-565l86 610h565zM661 570h-485l-74 -530h485zM296 413l-7 29q70 26 121 26q46 0 71.5 -24.5t19.5 -65.5q-5 -41 -39.5 -67t-83.5 -34l-6 -41h-33l5 66q110 12 119 76q4 26 -12 41.5t-46 15.5q-45 0 -109 -22zM347 179q22 0 19 -22q-3 -24 -25 -24
q-23 0 -20 24q3 22 26 22z" />
    <glyph glyph-name="fi" unicode="fi" horiz-adv-x="592" 
d="M550 476l-66 -476h-114l54 381h-205l-54 -381h-113l54 381h-68l13 95h68l5 31q12 88 56 128.5t132 40.5q31 0 109 -13l-19 -80q-55 4 -78 4q-43 0 -62.5 -20t-25.5 -63l-4 -28h318zM522 674q29 0 46 -16.5t13 -46.5q-4 -27 -24.5 -42.5t-47.5 -15.5q-28 0 -45.5 17
t-13.5 47q4 27 24.5 42t47.5 15z" />
    <glyph glyph-name="fl" unicode="fl" horiz-adv-x="579" 
d="M577 670l-95 -670h-113l82 579q-73 8 -127 8q-43 0 -62.5 -20t-25.5 -63l-4 -28h135l-13 -95h-135l-54 -381h-113l54 381h-68l13 95h68l5 31q12 88 56 128.5t132 40.5q36 0 149 -22l2 16h114z" />
    <glyph glyph-name="f_f" unicode="ff" horiz-adv-x="694" 
d="M745 666l-17 -82q-33 3 -67 3q-43 0 -63.5 -20.5t-26.5 -62.5l-4 -28h138l-13 -95h-138l-54 -381h-113l54 381h-225l-53 -381h-114l54 381h-65l13 95h66l4 31q12 88 57.5 128.5t133.5 40.5q51 0 96 -10l-18 -82q-32 3 -66 3q-44 0 -64 -20.5t-26 -62.5l-4 -28h224l5 31
q12 88 57.5 128.5t133.5 40.5q52 0 95 -10z" />
    <glyph glyph-name="f_f_i" unicode="ffi" horiz-adv-x="919" 
d="M878 476l-66 -476h-114l54 381h-206l-54 -381h-113l54 381h-217l-53 -381h-114l54 381h-65l13 95h66l4 31q12 88 57.5 128.5t133.5 40.5q51 0 96 -10l-18 -82q-32 3 -66 3q-44 0 -64 -20.5t-26 -62.5l-4 -28h216l5 31q12 88 56.5 128.5t132.5 40.5q34 0 101 -12l-18 -78
q-38 4 -71 4q-43 0 -62.5 -21.5t-26.5 -64.5l-4 -28h319zM849 674q29 0 46 -16.5t13 -46.5q-4 -27 -24.5 -42.5t-47.5 -15.5q-28 0 -45.5 17t-13.5 47q4 27 24.5 42t47.5 15z" />
    <glyph glyph-name="f_f_l" unicode="ffl" horiz-adv-x="905" 
d="M903 670l-94 -670h-114l82 579q-73 8 -128 8q-43 0 -62 -20.5t-25 -62.5l-4 -28h134l-12 -95h-135l-54 -381h-113l53 381h-215l-53 -381h-114l54 381h-65l13 95h66l4 31q12 88 57.5 128.5t133.5 40.5q51 0 96 -10l-18 -82q-32 3 -66 3q-44 0 -64 -20.5t-26 -62.5l-4 -28
h215l4 31q13 88 57.5 128.5t131.5 40.5q36 0 149 -22l3 16h113z" />
    <glyph glyph-name=".notdef" horiz-adv-x="755" 
d="M707 610l-86 -610h-565l86 610h565zM661 570h-485l-74 -530h485zM296 413l-7 29q70 26 121 26q46 0 71.5 -24.5t19.5 -65.5q-5 -41 -39.5 -67t-83.5 -34l-6 -41h-33l5 66q110 12 119 76q4 26 -12 41.5t-46 15.5q-45 0 -109 -22zM347 179q22 0 19 -22q-3 -24 -25 -24
q-23 0 -20 24q3 22 26 22z" />
    <glyph glyph-name=".null" horiz-adv-x="0" 
 />
    <glyph glyph-name="nonmarkingreturn" horiz-adv-x="333" 
 />
    <glyph glyph-name="space" unicode=" " horiz-adv-x="213" 
 />
    <glyph glyph-name="exclam" unicode="!" horiz-adv-x="234" 
d="M155 205h-89l41 405h121zM95 109q26 0 40 -17t10 -43q-3 -23 -20.5 -38.5t-41.5 -15.5q-26 0 -40 17.5t-10 42.5q3 23 20 38.5t42 15.5z" />
    <glyph glyph-name="quotedbl" unicode="&#x22;" horiz-adv-x="350" 
d="M115 650h103l-63 -256h-76zM249 650h104l-64 -256h-76z" />
    <glyph glyph-name="numbersign" unicode="#" horiz-adv-x="697" 
d="M532 348l-32 -145h116l-15 -83h-119l-27 -120h-90l26 120h-144l-26 -120h-91l26 120h-110l15 83h113l32 145h-110l16 83h112l26 119h92l-26 -119h144l26 119h91l-27 -119h117l-16 -83h-119zM441 348h-144l-32 -145h144z" />
    <glyph glyph-name="dollar" unicode="$" horiz-adv-x="536" 
d="M502 498l-36 -78q-112 46 -182 46q-40 0 -66 -16.5t-30 -43.5q-4 -30 20.5 -46.5t111.5 -44.5q93 -28 127 -66.5t25 -103.5q-9 -67 -65 -108.5t-145 -44.5l-8 -57h-76l9 61q-101 14 -180 78l48 79q96 -74 200 -74q47 0 75.5 18t32.5 48q4 31 -22.5 50t-112.5 47
q-92 31 -124.5 67.5t-22.5 99.5q8 60 57.5 98.5t126.5 42.5l9 62h75l-9 -66q75 -9 162 -48z" />
    <glyph glyph-name="percent" unicode="%" horiz-adv-x="854" 
d="M240 620q160 0 133 -188q-24 -180 -181 -180q-159 0 -133 186q26 182 181 182zM608 610h68l-438 -610h-67zM199 320q84 0 100 118q15 114 -65 114q-85 0 -100 -120q-15 -112 65 -112zM668 359q159 0 133 -188q-25 -180 -181 -180q-160 0 -134 186q26 182 182 182zM626 59
q84 0 100 118q15 114 -65 114q-83 0 -100 -120q-15 -112 65 -112z" />
    <glyph glyph-name="ampersand" unicode="&#x26;" horiz-adv-x="654" 
d="M546 0l-83 76q-49 -46 -99.5 -65.5t-113.5 -19.5q-115 0 -172 46t-45 134q7 50 44 85t115 70q-65 71 -54 148q10 69 65 107.5t143 38.5q79 0 121.5 -42t32.5 -112q-6 -47 -43.5 -89.5t-106.5 -70.5l113 -100q21 26 71 95l72 -50q-47 -68 -76 -103l80 -70zM239 467
q-7 -48 46 -103l12 5q106 39 114 99q5 38 -13.5 57.5t-58.5 19.5q-38 0 -66.5 -21.5t-33.5 -56.5zM397 136l-145 133q-53 -23 -78 -43t-29 -48q-7 -48 24 -73.5t89 -25.5q76 0 139 57z" />
    <glyph glyph-name="quotesingle" unicode="'" horiz-adv-x="215" 
d="M116 650h103l-63 -256h-76z" />
    <glyph glyph-name="parenleft" unicode="(" horiz-adv-x="325" 
d="M282 661l66 -42q-149 -180 -177 -379q-28 -196 69 -376l-74 -39q-130 185 -96 420q32 233 212 416z" />
    <glyph glyph-name="parenright" unicode=")" horiz-adv-x="320" 
d="M40 -175l-66 43q149 178 177 379q28 196 -69 376l74 38q130 -185 96 -420q-32 -233 -212 -416z" />
    <glyph glyph-name="asterisk" unicode="*" horiz-adv-x="431" 
d="M290 406l44 -115l-50 -24l-62 114l-111 -68l-31 46l95 78l-94 75l30 46l103 -60l38 114l58 -15l-24 -119l121 1l4 -56z" />
    <glyph glyph-name="plus" unicode="+" horiz-adv-x="485" 
d="M438 198h-161l-23 -161h-82l23 161h-161l12 83h160l23 161h82l-23 -162h162z" />
    <glyph glyph-name="comma" unicode="," horiz-adv-x="265" 
d="M31 -131l-26 35q55 41 79 95q-45 15 -39 66q4 28 24 46t49 18q30 0 46.5 -21.5t11.5 -54.5q-7 -48 -47 -99t-98 -85z" />
    <glyph glyph-name="hyphen" unicode="-" horiz-adv-x="399" 
d="M76 329h278l-14 -100h-277z" />
    <glyph glyph-name="period" unicode="." horiz-adv-x="258" 
d="M39 65q4 28 24.5 46t49.5 18q30 0 46 -19.5t12 -50.5q-4 -28 -24 -46t-49 -18q-30 0 -47 20t-12 50z" />
    <glyph glyph-name="slash" unicode="/" horiz-adv-x="359" 
d="M317 660h98l-384 -863h-95z" />
    <glyph glyph-name="zero" unicode="0" horiz-adv-x="618" 
d="M361 620q132 0 188.5 -82t35.5 -237q-22 -151 -99.5 -230.5t-208.5 -79.5q-132 0 -189 81.5t-35 234.5q21 152 99 232.5t209 80.5zM287 95q151 0 182 212q29 209 -118 209q-153 0 -182 -215q-29 -206 118 -206z" />
    <glyph glyph-name="one" unicode="1" horiz-adv-x="492" 
d="M429 97l-14 -97h-388l14 97h146l55 387q-78 -22 -159 -40l-15 70q93 35 214 96h91l-72 -513h128z" />
    <glyph glyph-name="two" unicode="2" horiz-adv-x="526" 
d="M457 0h-461l11 83l111 79t108.5 78l80 64t65 66t24.5 56q6 45 -18.5 71t-69.5 26q-91 0 -221 -53l-23 83q156 67 262 67q94 0 143.5 -55t36.5 -145q-3 -25 -15 -50t-27 -46t-42 -45.5t-50 -43t-61.5 -44.5l-65 -43l-72.5 -46l-16 -10q60 5 101 5h213z" />
    <glyph glyph-name="three" unicode="3" horiz-adv-x="542" 
d="M94 482l-17 78q133 58 253 58q93 0 144 -47.5t40 -125.5q-6 -46 -36.5 -80.5t-74.5 -51.5q105 -34 90 -145q-12 -82 -79.5 -129.5t-171.5 -47.5q-140 0 -251 63l42 78q98 -49 213 -49q58 0 95 24.5t43 68.5q6 45 -29 67.5t-108 22.5h-88l13 91h86q139 0 152 82
q5 41 -21.5 65t-75.5 24q-95 0 -219 -46z" />
    <glyph glyph-name="four" unicode="4" horiz-adv-x="606" 
d="M466 128l-18 -128h-114l18 128h-345l7 87l406 395h113l-53 -386h97l-14 -96h-97zM366 224l36 253q-24 -27 -58 -61l-134 -129q-35 -35 -67 -63h223z" />
    <glyph glyph-name="five" unicode="5" horiz-adv-x="551" 
d="M223 513l-38 -172q74 38 152 38q91 0 137 -51t33 -138q-12 -92 -85 -145.5t-173 -53.5q-141 0 -252 63l43 83q99 -49 203 -49q61 0 105 31t51 82q7 45 -21.5 73.5t-82.5 28.5q-61 0 -134 -42l-93 15l70 334h405l-14 -97h-306z" />
    <glyph glyph-name="six" unicode="6" horiz-adv-x="574" 
d="M560 584l-38 -81q-74 23 -137 23q-85 -1 -144.5 -56.5t-80.5 -153.5q81 76 196 76q91 0 139.5 -53t36.5 -139q-14 -98 -84.5 -153.5t-177.5 -55.5q-130 0 -188.5 76.5t-39.5 213.5q22 156 118 247.5t231 91.5q88 0 169 -36zM279 83q56 0 96.5 34t49.5 94q7 48 -22.5 73.5
t-87.5 25.5q-94 0 -164 -91q-1 -64 31.5 -100t96.5 -36z" />
    <glyph glyph-name="seven" unicode="7" horiz-adv-x="476" 
d="M519 610l-12 -91q-94 -105 -180.5 -245t-141.5 -274h-134q64 139 150.5 276.5t177.5 235.5h-330l14 98h456z" />
    <glyph glyph-name="eight" unicode="8" horiz-adv-x="581" 
d="M348 620q108 0 162.5 -43.5t43.5 -118.5q-14 -92 -137 -132q72 -24 102.5 -63t21.5 -98q-11 -83 -85 -128.5t-192 -45.5q-135 0 -195 46.5t-48 133.5q14 102 153 150q-99 45 -85 138q10 76 79 118.5t180 42.5zM337 545q-56 0 -94 -25.5t-43 -65.5q-5 -37 22 -59t98 -39
q120 29 128 106q5 38 -25 60.5t-86 22.5zM264 287q-120 -35 -132 -114q-6 -45 29 -69.5t102 -24.5q66 0 108.5 26t49.5 71q5 41 -29 65t-128 46z" />
    <glyph glyph-name="nine" unicode="9" horiz-adv-x="574" 
d="M32 28l38 80q74 -23 137 -23q86 1 145.5 56t79.5 152q-77 -75 -197 -75q-91 0 -139.5 53.5t-36.5 139.5q14 98 84.5 153.5t178.5 55.5q122 0 182.5 -79.5t42.5 -210.5q-23 -159 -115.5 -249t-227.5 -90q-92 0 -172 37zM276 301q40 0 87 22t79 67q2 65 -31.5 101.5
t-97.5 36.5q-57 0 -97.5 -34t-49.5 -94q-7 -48 22.5 -73.5t87.5 -25.5z" />
    <glyph glyph-name="colon" unicode=":" horiz-adv-x="258" 
d="M88 386q4 28 24 46t49 18q30 0 46.5 -20t12.5 -50q-4 -28 -24 -46t-49 -18q-30 0 -47 20t-12 50zM43 65q4 28 24 46t49 18q30 0 46.5 -20t12.5 -50q-4 -27 -24.5 -45.5t-49.5 -18.5q-30 0 -46.5 20t-11.5 50z" />
    <glyph glyph-name="semicolon" unicode=";" horiz-adv-x="275" 
d="M95 385q4 28 24 46.5t49 18.5q30 0 47 -20t12 -50q-4 -28 -24.5 -46t-49.5 -18q-30 0 -46.5 19.5t-11.5 49.5zM25 -131l-25 35q56 41 78 95q-21 7 -31.5 24.5t-6.5 41.5q4 28 24 46t49 18q30 0 46 -21.5t12 -54.5q-7 -48 -47 -99t-99 -85z" />
    <glyph glyph-name="less" unicode="&#x3c;" horiz-adv-x="406" 
d="M203 270l-38 -25q3 -2 12.5 -10t15.5 -12l133 -122l-59 -60l-228 208l285 209l45 -64z" />
    <glyph glyph-name="equal" unicode="=" horiz-adv-x="475" 
d="M441 288h-396l11 72h395zM419 133h-395l10 72h395z" />
    <glyph glyph-name="greater" unicode="&#x3e;" horiz-adv-x="418" 
d="M369 250l-284 -209l-45 65l166 124l38 24q-2 2 -12.5 10t-16.5 13l-133 122l59 59z" />
    <glyph glyph-name="question" unicode="?" horiz-adv-x="522" 
d="M84 469l-25 84q156 67 262 67q93 0 143 -53t39 -137q-10 -70 -71 -116.5t-165 -64.5l-8 -63h-91l3 141q199 12 212 97q6 44 -19 70t-73 26q-58 0 -207 -51zM202 109q26 0 39.5 -17t10.5 -43q-3 -23 -20.5 -38.5t-41.5 -15.5q-26 0 -40 17.5t-10 42.5q3 23 20 38.5
t42 15.5z" />
    <glyph glyph-name="at" unicode="@" horiz-adv-x="902" 
d="M642 -89l14 -42q-117 -65 -270 -65q-182 0 -278 111.5t-71 292.5q26 184 160.5 298t319.5 114q179 0 272 -102.5t70 -269.5q-9 -61 -29 -108t-43.5 -74.5t-52.5 -45t-54 -23.5t-49 -6q-84 0 -99 60q-50 -33 -86.5 -46.5t-84.5 -13.5q-165 0 -135 220q15 105 68.5 159
t135.5 54q72 0 137 -50l6 42h98l-42 -299q-6 -40 2 -55t32 -15q42 0 85 49t60 157q20 146 -58.5 232.5t-235.5 86.5q-166 0 -284 -102.5t-141 -267.5q-22 -158 60 -252t240 -94q128 0 253 55zM533 131l23 163q-50 47 -104 47q-111 0 -130 -135q-11 -76 9.5 -106.5
t70.5 -30.5q35 0 64 15.5t67 46.5z" />
    <glyph glyph-name="A" unicode="A" horiz-adv-x="672" 
d="M469 128h-298l-68 -128h-125l331 610h156l159 -610h-123zM442 234l-55 222q-5 22 -13 67h-1q-12 -36 -29 -70l-117 -219h215z" />
    <glyph glyph-name="B" unicode="B" horiz-adv-x="616" 
d="M128 610h226q115 0 167.5 -43.5t40.5 -128.5q-5 -40 -32.5 -72t-68.5 -46q57 -13 84 -51t19 -94q-12 -90 -80 -132.5t-205 -42.5h-237zM229 508l-20 -145h127q106 0 116 69q5 39 -20 57.5t-87 18.5h-116zM172 103h123q74 0 109.5 18t42.5 62t-21 63t-99 19h-132z" />
    <glyph glyph-name="C" unicode="C" horiz-adv-x="618" 
d="M534 152l30 -89q-119 -72 -263 -72q-138 0 -204 83t-44 233q21 151 110.5 232t232.5 81q124 0 215 -54l-47 -87q-88 35 -174 35q-94 0 -150 -54t-70 -159q-14 -95 25.5 -149.5t122.5 -54.5q107 0 216 55z" />
    <glyph glyph-name="D" unicode="D" horiz-adv-x="655" 
d="M121 610h199q161 0 238.5 -80.5t57.5 -224.5t-117 -224.5t-254 -80.5h-210zM166 105h89q105 0 167 52.5t77 153.5q13 99 -33.5 146.5t-156.5 47.5h-87z" />
    <glyph glyph-name="E" unicode="E" horiz-adv-x="556" 
d="M222 503l-21 -147h268l-15 -104h-267l-21 -148h317l-14 -104h-434l86 610h424l-14 -107h-309z" />
    <glyph glyph-name="F" unicode="F" horiz-adv-x="523" 
d="M222 503l-24 -168h261l-15 -104h-260l-33 -231h-116l86 610h416l-15 -107h-300z" />
    <glyph glyph-name="G" unicode="G" horiz-adv-x="670" 
d="M630 327l-35 -256q-150 -80 -298 -80q-135 0 -200.5 83t-43.5 233q20 144 111 228.5t227 84.5q134 0 244 -49l-42 -90q-104 34 -202 34q-90 0 -148.5 -56.5t-72.5 -156.5q-14 -97 24 -150.5t118 -53.5q113 0 185 38l13 92h-188l14 99h294z" />
    <glyph glyph-name="H" unicode="H" horiz-adv-x="679" 
d="M657 610l-86 -610h-116l36 256h-297l-36 -256h-116l86 610h116l-35 -247h297l35 247h116z" />
    <glyph glyph-name="I" unicode="I" horiz-adv-x="266" 
d="M237 610l-86 -610h-116l86 610h116z" />
    <glyph glyph-name="J" unicode="J" horiz-adv-x="482" 
d="M458 610l-55 -390q-32 -229 -225 -229q-88 0 -188 53l41 89q78 -33 134 -33q52 0 83.5 31t39.5 92l54 387h116z" />
    <glyph glyph-name="K" unicode="K" horiz-adv-x="633" 
d="M650 604l-257 -251l187 -346l-2 -7h-117l-152 271l-139 -136l-19 -135h-116l86 610h116l-44 -315l327 315h131z" />
    <glyph glyph-name="L" unicode="L" horiz-adv-x="511" 
d="M457 108l-16 -108h-406l86 610h116l-71 -502h291z" />
    <glyph glyph-name="M" unicode="M" horiz-adv-x="835" 
d="M726 0h-118l42 380l5 31l-233 -411h-81l-118 411l-3 -28l-66 -383h-117l108 610h135l115 -405q1 -4 9 -38q7 19 20 41l229 402h135z" />
    <glyph glyph-name="N" unicode="N" horiz-adv-x="688" 
d="M576 0h-105l-259 415q-1 -15 -5 -40l-53 -375h-115l86 610h105l258 -418l4 29l55 389h115z" />
    <glyph glyph-name="O" unicode="O" horiz-adv-x="678" 
d="M391 620q141 0 208 -83.5t46 -235.5q-21 -148 -110 -229t-228 -81q-142 0 -209 82.5t-45 233.5q21 150 109.5 231.5t228.5 81.5zM319 97q87 0 141.5 53.5t67.5 156.5q13 102 -25.5 154.5t-124.5 52.5q-87 0 -141 -54.5t-67 -158.5q-13 -100 25.5 -152t123.5 -52z" />
    <glyph glyph-name="P" unicode="P" horiz-adv-x="581" 
d="M121 610h221q125 0 182.5 -60t43.5 -170q-13 -106 -85.5 -163t-194.5 -57h-114l-23 -160h-116zM188 263h112q68 0 108.5 31.5t47.5 90.5t-24 90t-103 31h-107z" />
    <glyph glyph-name="Q" unicode="Q" horiz-adv-x="668" 
d="M382 620q141 0 206.5 -83t44.5 -236q-21 -149 -108.5 -229.5t-227.5 -80.5q-141 0 -206.5 82.5t-44.5 233.5q21 150 108.5 231.5t227.5 81.5zM310 97q87 0 140 53.5t66 156.5q13 102 -24.5 154.5t-122.5 52.5q-87 0 -140 -54.5t-66 -158.5q-13 -101 24.5 -152.5
t122.5 -51.5zM526 -94l-13 -97q-175 0 -303 81l30 72q77 -33 136.5 -44.5t149.5 -11.5z" />
    <glyph glyph-name="R" unicode="R" horiz-adv-x="614" 
d="M121 610h240q121 0 178 -57t45 -158q-21 -159 -158 -201l123 -184l-3 -10h-128l-119 181h-122l-26 -181h-116zM191 284h145q58 0 92.5 29.5t39.5 82.5q10 110 -117 110h-129z" />
    <glyph glyph-name="S" unicode="S" horiz-adv-x="591" 
d="M570 572l-41 -91q-108 41 -209 41q-47 0 -76 -17t-33 -45q-4 -33 26 -52.5t132 -53.5q97 -33 135.5 -79.5t28.5 -116.5q-11 -75 -79.5 -121t-171.5 -46q-61 0 -137.5 24.5t-134.5 65.5l56 86q113 -72 226 -72q50 0 82.5 18.5t36.5 50.5t-27 54t-124 52q-102 32 -142 76.5
t-29 119.5q10 69 76.5 111.5t163.5 42.5q115 0 241 -48z" />
    <glyph glyph-name="T" unicode="T" horiz-adv-x="557" 
d="M578 503h-205l-71 -503h-115l70 503h-204l15 107h525z" />
    <glyph glyph-name="U" unicode="U" horiz-adv-x="663" 
d="M651 610l-47 -329q-20 -143 -97.5 -216.5t-207.5 -73.5q-131 0 -189 75t-38 218l46 326h115l-46 -329q-24 -183 123 -183q70 0 118.5 50t60.5 136l46 326h116z" />
    <glyph glyph-name="V" unicode="V" horiz-adv-x="649" 
d="M358 0h-140l-159 610h130l100 -424l13 -70q10 29 30 72l219 422h131z" />
    <glyph glyph-name="W" unicode="W" horiz-adv-x="905" 
d="M683 0h-158l-46 360q-2 22 -4 80q-19 -60 -27 -82l-148 -358h-157l-84 610h128l51 -418q1 -12 4 -80q6 26 26 83l167 415h126l50 -418l5 -79q11 47 24 82l168 415h130z" />
    <glyph glyph-name="X" unicode="X" horiz-adv-x="622" 
d="M410 310l161 -310h-134l-112 216q-6 10 -13 25l-21 -27l-175 -214h-135l249 310l-157 300h135l108 -202q6 -9 12 -26q12 17 22 29l165 199h138z" />
    <glyph glyph-name="Y" unicode="Y" horiz-adv-x="599" 
d="M352 197l-28 -197h-115l28 197l-172 413h122l102 -243q12 -28 20 -59q19 37 36 62l171 240h123z" />
    <glyph glyph-name="Z" unicode="Z" horiz-adv-x="594" 
d="M585 518l-395 -415q74 4 104 4h238l-15 -107h-507l11 87l408 420q-74 -4 -108 -4h-221l15 107h483z" />
    <glyph glyph-name="bracketleft" unicode="[" horiz-adv-x="371" 
d="M400 660l-13 -88h-151l-93 -661h151l-12 -88h-254l118 837h254z" />
    <glyph glyph-name="backslash" unicode="\" horiz-adv-x="432" 
d="M195 660l141 -867h-94l-143 867h96z" />
    <glyph glyph-name="bracketright" unicode="]" horiz-adv-x="371" 
d="M-26 -177l13 89h151l93 660h-151l12 88h254l-118 -837h-254z" />
    <glyph glyph-name="asciicircum" unicode="^" horiz-adv-x="486" 
d="M455 341h-90l-57 161q-15 41 -18 63q-10 -25 -37 -66l-103 -158h-91l206 309h72v-1z" />
    <glyph glyph-name="underscore" unicode="_" horiz-adv-x="473" 
d="M365 -129h-361l12 82h361z" />
    <glyph glyph-name="grave" unicode="`" horiz-adv-x="490" 
d="M380 564l-33 -35q-95 49 -169 106l-2 22l83 56z" />
    <glyph glyph-name="a" unicode="a" horiz-adv-x="568" 
d="M543 476l-67 -476h-113l7 50q-34 -23 -50 -32.5t-44.5 -18t-62.5 -8.5q-86 0 -136.5 63t-32.5 189q33 241 217 241q82 0 162 -57l6 49h114zM382 141l28 198q-36 26 -62.5 38.5t-58.5 12.5q-113 0 -134 -152q-11 -78 16 -115.5t78 -37.5q37 0 63 12.5t70 43.5z" />
    <glyph glyph-name="b" unicode="b" horiz-adv-x="567" 
d="M228 650l-32 -229q91 63 175 63q186 0 152 -246q-18 -125 -82 -186t-147 -61q-51 0 -81.5 14.5t-68.5 48.5l-8 -54h-113l92 650h113zM182 322l-25 -177q58 -60 111 -60q54 0 93.5 38.5t50.5 119.5q20 147 -89 147q-56 0 -141 -68z" />
    <glyph glyph-name="c" unicode="c" horiz-adv-x="494" 
d="M413 132l30 -72q-56 -39 -104 -54t-113 -15q-100 0 -153.5 67t-37.5 180q16 114 89 180.5t177 66.5q98 0 175 -49l-43 -73q-63 29 -133 29q-60 0 -102 -43.5t-52 -116.5q-10 -68 18.5 -107.5t86.5 -39.5q80 0 162 47z" />
    <glyph glyph-name="d" unicode="d" horiz-adv-x="568" 
d="M557 650l-92 -650h-113l7 50q-34 -23 -50.5 -32.5t-45 -18t-62.5 -8.5q-40 0 -73.5 14.5t-58.5 43.5t-35.5 79t-1.5 115q17 124 76.5 183t147.5 59q83 0 155 -63l32 228h114zM373 148l26 191q-65 51 -121 51q-114 0 -135 -152q-11 -78 16 -114t79 -36q25 0 50 9.5
t40.5 19.5t44.5 31z" />
    <glyph glyph-name="e" unicode="e" horiz-adv-x="526" 
d="M425 132l27 -68q-56 -40 -105 -56.5t-110 -16.5q-108 0 -163 68t-39 184q16 117 85 179.5t178 62.5q101 0 149.5 -60.5t35.5 -172.5l-10 -46h-335q-4 -126 111 -126q89 0 176 52zM150 284h239q8 116 -98 116q-108 0 -141 -116z" />
    <glyph glyph-name="f" unicode="f" horiz-adv-x="357" 
d="M408 666l-18 -82q-32 3 -66 3q-44 0 -64 -20.5t-26 -62.5l-4 -28h137l-13 -95h-138l-53 -381h-114l54 381h-65l13 95h66l4 31q12 88 57.5 128.5t133.5 40.5q51 0 96 -10z" />
    <glyph glyph-name="g" unicode="g" horiz-adv-x="556" 
d="M538 476l-56 -401q-18 -121 -84 -180.5t-173 -59.5q-121 0 -205 48l28 83q93 -37 171 -37q65 0 101.5 34t48.5 114v4q-43 -32 -79.5 -46t-88.5 -14q-87 0 -132.5 57t-29.5 170q34 237 217 237q76 0 161 -62l8 53h113zM381 167l24 171q-37 27 -63 39.5t-58 12.5
q-114 0 -134 -148q-10 -70 17.5 -101.5t80.5 -31.5q25 0 50.5 10t38.5 18t44 30z" />
    <glyph glyph-name="h" unicode="h" 
d="M231 650l-32 -230q49 35 86.5 49.5t82.5 14.5q75 0 112.5 -48.5t25.5 -138.5l-43 -297h-113l38 267q8 60 -6 84t-58 24q-61 0 -139 -56l-45 -319h-114l92 650h113z" />
    <glyph glyph-name="i" unicode="i" horiz-adv-x="246" 
d="M111 617q4 27 24 42t47 15q29 0 46.5 -16.5t13.5 -46.5q-4 -27 -24.5 -42.5t-47.5 -15.5q-29 0 -46.5 17.5t-12.5 46.5zM214 476l-67 -476h-113l66 476h114z" />
    <glyph glyph-name="j" unicode="j" horiz-adv-x="247" 
d="M178 674q29 0 46 -16.5t13 -46.5q-4 -27 -24.5 -42.5t-47.5 -15.5q-28 0 -45.5 17t-13.5 47q4 27 24.5 42t47.5 15zM209 476l-61 -439q-13 -91 -52.5 -140t-125.5 -69l-14 84q39 18 54.5 44.5t24.5 83.5l61 436h113z" />
    <glyph glyph-name="k" unicode="k" horiz-adv-x="535" 
d="M535 469l-213 -193l171 -270l-2 -6h-126l-128 198l-84 -76l-17 -122h-113l91 650h113l-52 -374l228 200h133z" />
    <glyph glyph-name="l" unicode="l" horiz-adv-x="239" 
d="M233 650l-91 -650h-113l91 650h113z" />
    <glyph glyph-name="m" unicode="m" horiz-adv-x="846" 
d="M206 476l-6 -43q78 51 149 51q93 0 127 -72q54 40 93.5 56t85.5 16q75 0 112.5 -48.5t24.5 -137.5l-42 -298h-113l38 271q8 59 -6 83t-57 24q-55 0 -121 -46q-2 -22 -3 -34l-43 -298h-113l38 271q9 58 -6 82.5t-57 24.5q-56 0 -121 -45l-46 -333h-114l67 476h113z" />
    <glyph glyph-name="n" unicode="n" 
d="M206 476l-7 -54q49 34 86.5 48t82.5 14q75 0 112.5 -48.5t25.5 -138.5l-43 -297h-113l40 277q9 60 -5 84t-59 24q-55 0 -141 -63l-45 -322h-114l67 476h113z" />
    <glyph glyph-name="o" unicode="o" 
d="M312 485q112 0 168.5 -68.5t39.5 -184.5q-15 -111 -89 -176t-185 -65t-167.5 67t-40.5 180q16 114 90 180.5t184 66.5zM256 85q61 0 103 40.5t52 112.5q10 80 -16 116.5t-92 36.5q-61 0 -103 -42t-52 -117q-10 -77 16 -112t92 -35z" />
    <glyph glyph-name="p" unicode="p" horiz-adv-x="567" 
d="M203 476l-7 -51q98 59 175 59q185 0 152 -247q-18 -124 -82 -185t-147 -61q-51 0 -81 14.5t-69 47.5l-30 -212h-114l90 635h113zM183 331l-27 -190q23 -20 34.5 -29t33 -18t45.5 -9q54 0 93 38.5t50 119.5q20 147 -89 147q-51 0 -140 -59z" />
    <glyph glyph-name="q" unicode="q" horiz-adv-x="567" 
d="M538 476l-89 -635h-114l30 208q-46 -31 -80 -44.5t-84 -13.5q-84 0 -132 62.5t-30 189.5q33 242 217 242q80 0 161 -61l8 52h113zM378 147l27 187q-69 56 -121 56q-113 0 -134 -152q-11 -78 15.5 -113.5t79.5 -35.5q60 0 133 58z" />
    <glyph glyph-name="r" unicode="r" horiz-adv-x="389" 
d="M203 476l-11 -76q71 84 148 84q34 0 61 -3l-23 -113q-23 2 -55 2q-86 0 -148 -93l-39 -277h-113l67 476h113z" />
    <glyph glyph-name="s" unicode="s" horiz-adv-x="465" 
d="M440 442l-37 -79q-106 36 -161 36q-34 0 -55.5 -12t-23.5 -32q-3 -26 17.5 -39t86.5 -36l18 -6q76 -26 105.5 -59t21.5 -92q-8 -63 -59 -97.5t-143 -34.5q-120 0 -208 67l41 74q100 -56 173 -56q39 0 62 14t25 37q2 22 -20 37.5t-80 33.5q-87 28 -118.5 61.5t-23.5 92.5
q9 66 56 99.5t123 33.5q100 0 200 -43z" />
    <glyph glyph-name="t" unicode="t" horiz-adv-x="372" 
d="M220 381l-30 -216q-9 -72 60 -72q33 0 77 4l9 -78q-63 -24 -129 -24q-74 0 -108.5 44t-23.5 124l31 218h-70l13 95h70l16 114h113l-15 -114h132l-13 -95h-132z" />
    <glyph glyph-name="u" unicode="u" 
d="M528 476l-67 -476h-113l7 52q-48 -33 -84 -46.5t-79 -13.5q-76 0 -116.5 48.5t-27.5 137.5l42 298h113l-38 -272q-9 -59 7.5 -83.5t61.5 -24.5q60 0 135 53l46 327h113z" />
    <glyph glyph-name="v" unicode="v" horiz-adv-x="533" 
d="M293 0h-125l-122 476h114l71 -284q5 -20 14 -73q18 42 35 75l150 282h119z" />
    <glyph glyph-name="w" unicode="w" horiz-adv-x="744" 
d="M556 0h-133l-42 302l-127 -302h-134l-76 476h107l50 -300q5 -40 6 -62q8 28 23 64l127 298h94l42 -300q3 -22 7 -62q11 34 22 64l134 298h110z" />
    <glyph glyph-name="x" unicode="x" horiz-adv-x="504" 
d="M339 0l-78 136q-13 24 -17 34q-11 -15 -29 -37l-117 -133h-122l204 239l-133 237h123l73 -134q15 -27 18 -34l28 37l111 131h124l-199 -237l135 -239h-121z" />
    <glyph glyph-name="y" unicode="y" horiz-adv-x="525" 
d="M431 476h122l-53 -103.5l-57 -110.5l-51.5 -93.5t-56.5 -93.5q-115 -170 -282 -229l-28 92q84 38 135 89l-122 449h118l71 -271q9 -33 16 -72q69 105 188 343z" />
    <glyph glyph-name="z" unicode="z" horiz-adv-x="508" 
d="M437 0h-433l10 73l318 311q-39 -3 -89 -3h-177l12 95h417l-10 -71l-317 -315q12 0 49.5 1.5t51.5 1.5h182z" />
    <glyph glyph-name="braceleft" unicode="{" horiz-adv-x="392" 
d="M179 411l9 60q13 95 70 139.5t170 49.5l-12 -79q-64 -9 -89.5 -34.5t-33.5 -78.5l-8 -59q-12 -81 -43.5 -118t-93.5 -48q59 -12 80.5 -49.5t9.5 -117.5l-8 -60q-8 -52 10.5 -77t80.5 -34l-11 -79q-111 5 -155 50.5t-31 142.5l8 60q10 71 -10 96t-88 29l12 80q69 4 96 30
t37 97z" />
    <glyph glyph-name="bar" unicode="|" horiz-adv-x="315" 
d="M140 -200h-94l119 850h94z" />
    <glyph glyph-name="braceright" unicode="}" horiz-adv-x="392" 
d="M270 467l-9 -59q-10 -71 10 -96t89 -29l-13 -80q-69 -4 -95.5 -30.5t-36.5 -97.5l-9 -60q-13 -95 -70.5 -139.5t-170.5 -49.5l12 79q65 9 90.5 35t32.5 78l8 60q12 81 43.5 117.5t93.5 47.5q-58 12 -80 49.5t-10 118.5l8 59q8 52 -10.5 77t-80.5 34l11 79
q111 -5 155.5 -51t31.5 -142z" />
    <glyph glyph-name="asciitilde" unicode="~" horiz-adv-x="468" 
d="M395 339l43 -34q-46 -67 -90 -84.5t-89 5.5l-74 35q-25 13 -48.5 4t-53.5 -47l-41 33q45 67 88 83.5t89 -6.5l75 -35q25 -13 49 -3t52 49z" />
    <glyph glyph-name="exclamdown" unicode="&#xa1;" horiz-adv-x="282" 
d="M163 372q-26 0 -40 17t-10 42q3 24 20 39.5t41 15.5q26 0 40.5 -17.5t10.5 -42.5q-4 -24 -21 -39t-41 -15zM103 275h89l-41 -404h-121z" />
    <glyph glyph-name="cent" unicode="&#xa2;" horiz-adv-x="515" 
d="M438 136l31 -70q-82 -65 -180 -73l-8 -55h-75l7 55q-87 11 -135.5 79.5t-30.5 199.5q18 125 85.5 195.5t158.5 81.5l9 61h75l-8 -61q75 -9 143 -53l-42 -71q-59 34 -138 34q-64 0 -111 -48.5t-61 -144.5q-14 -92 18.5 -137.5t94.5 -45.5q91 0 167 53z" />
    <glyph glyph-name="sterling" unicode="&#xa3;" horiz-adv-x="561" 
d="M571 500l-42 -72q-63 36 -133 36q-58 0 -95.5 -40t-59.5 -136l-2 -10h186l-10 -62h-190l-28 -122h287l-13 -94h-473l12 83l75 8l28 125h-83l9 62h88l3 13q32 138 95.5 200.5t164.5 62.5q107 0 181 -54z" />
    <glyph glyph-name="yen" unicode="&#xa5;" horiz-adv-x="548" 
d="M373 256h121l-9 -54h-150l-10 -14l-5 -32h158l-8 -54h-157l-15 -102h-115l14 102h-146l8 54h146l5 32l-6 14h-137l8 54h106l-125 290h118l91 -204l15 -52q15 28 32 54l147 202h120z" />
    <glyph glyph-name="brokenbar" unicode="&#xa6;" horiz-adv-x="315" 
d="M212 310h-95l48 340h94zM140 -200h-94l47 341h95z" />
    <glyph glyph-name="section" unicode="&#xa7;" horiz-adv-x="596" 
d="M528 576l-39 -79q-83 43 -159 43q-78 0 -85 -54q-3 -26 19.5 -39.5t100.5 -39.5q102 -31 140 -65t31 -88q-5 -36 -27 -60t-65 -47q30 -34 22 -88q-8 -62 -59 -99.5t-132 -37.5q-58 0 -119 20.5t-103 55.5l41 77q40 -32 90 -50t93 -18q37 0 59.5 14.5t25.5 40.5
q3 24 -20.5 38t-100.5 39q-102 32 -140 65.5t-31 87.5q6 35 28.5 59.5t64.5 47.5q-30 32 -22 88q8 61 57.5 97t128.5 36q108 0 201 -44zM329 209q38 -13 62 -24q41 35 43 60q4 31 -51 55q-20 9 -105 37q-36 12 -63 25q-39 -35 -43 -60q-3 -27 29 -44.5t112 -43.5
q10 -3 16 -5z" />
    <glyph glyph-name="dieresis" unicode="&#xa8;" horiz-adv-x="490" 
d="M200 672q26 0 41 -16t12 -43q-4 -25 -22 -39t-43 -14t-41 15.5t-12 42.5q4 25 23 39.5t42 14.5zM395 672q24 0 40 -16t12 -43q-4 -25 -22.5 -39t-41.5 -14q-26 0 -41 15.5t-11 42.5q4 25 21.5 39.5t42.5 14.5z" />
    <glyph glyph-name="copyright" unicode="&#xa9;" horiz-adv-x="737" 
d="M378 -9q-131 0 -222.5 91.5t-91.5 222.5t91.5 223t222.5 92q130 0 221.5 -92t91.5 -223t-91 -222.5t-222 -91.5zM378 23q117 0 200 82.5t83 199.5t-83 200t-200 83t-199.5 -83t-82.5 -200q0 -118 82.5 -200t199.5 -82zM496 230l22 -50q-74 -58 -161 -58q-75 0 -117 49
t-30 130q12 86 65 135.5t131 49.5q76 0 136 -42l-34 -53q-50 28 -101 28q-48 0 -78.5 -30.5t-38.5 -87.5q-8 -54 15.5 -83.5t70.5 -29.5q62 0 120 42z" />
    <glyph glyph-name="ordfeminine" unicode="&#xaa;" horiz-adv-x="387" 
d="M126 537l-7 59q86 24 143 24q73 0 99.5 -32.5t16.5 -110.5l-29 -203h-83l5 33q-69 -40 -116 -40q-116 0 -100 110q15 102 156 102h84l1 1q5 42 -6 57.5t-48 15.5q-42 0 -116 -16zM288 428h-72q-76 0 -83 -47q-4 -26 8.5 -38.5t43.5 -12.5q36 0 94 37z" />
    <glyph glyph-name="guillemotleft" unicode="&#xab;" horiz-adv-x="567" 
d="M332 400l-130 -119q-14 -12 -44 -34q16 -13 33 -32l99 -118l-67 -56l-182 208l238 209zM533 400l-131 -119q-22 -19 -44 -34q20 -17 34 -32l98 -118l-67 -56l-182 208l239 209z" />
    <glyph glyph-name="registered" unicode="&#xae;" horiz-adv-x="737" 
d="M373 -9q-131 0 -222.5 91.5t-91.5 222.5t91.5 223t222.5 92q130 0 221.5 -92t91.5 -223t-91 -222.5t-222 -91.5zM373 22q117 0 199.5 83t82.5 200t-83 200.5t-199 83.5q-117 0 -200 -83.5t-83 -200.5q0 -118 82.5 -200.5t200.5 -82.5zM263 481h140q77 0 109.5 -30
t24.5 -89q-12 -79 -86 -94q43 -23 67 -137h-86q-13 57 -25.5 84t-33.5 27h-72l-15 -111h-71zM315 301h76q62 0 70 59q4 29 -13 45t-53 16h-63z" />
    <glyph glyph-name="macron" unicode="&#xaf;" horiz-adv-x="490" 
d="M431 655l-11 -87h-270l12 87h269z" />
    <glyph glyph-name="degree" unicode="&#xb0;" horiz-adv-x="351" 
d="M226 620q61 0 91.5 -37t21.5 -98q-8 -56 -47.5 -89.5t-98.5 -33.5q-60 0 -90.5 35.5t-22.5 93.5q8 59 47.5 94t98.5 35zM200 425q31 0 51.5 18t23.5 48t-11.5 48t-44.5 18q-31 0 -51.5 -19.5t-23.5 -52.5q-2 -27 12.5 -43.5t43.5 -16.5z" />
    <glyph glyph-name="plusminus" unicode="&#xb1;" horiz-adv-x="485" 
d="M461 361l-10 -73h-166l-19 -131h-72l18 131h-166l11 73h165l19 131h73l-19 -131h166zM22 114h400l-11 -72h-400z" />
    <glyph glyph-name="twosuperior" unicode="&#xb2;" horiz-adv-x="348" 
d="M337 335h-287l7 55l50.5 35.5l48 34.5l41 30.5t37 30t27.5 27t20.5 27.5t8.5 25q8 57 -53 57q-52 0 -128 -33l-17 55q94 41 163 41q59 0 89 -34t23 -92q-3 -22 -17 -44t-28.5 -37.5t-49 -40t-52.5 -36l-65 -40.5q31 3 57 3h133z" />
    <glyph glyph-name="threesuperior" unicode="&#xb3;" horiz-adv-x="349" 
d="M104 634l-12 52q82 35 156 35q59 0 90.5 -29.5t24.5 -78.5q-9 -60 -77 -83q34 -11 51 -34.5t13 -54.5q-7 -53 -47.5 -81t-107.5 -28q-88 0 -155 40l26 50q62 -31 131 -31q35 0 56.5 15t25.5 42t-16 40.5t-65 13.5h-60l9 59h57q82 0 89 48q4 26 -11 39t-47 13
q-60 0 -131 -27z" />
    <glyph glyph-name="acute" unicode="&#xb4;" horiz-adv-x="490" 
d="M343 713l77 -56l-2 -24q-74 -53 -178 -106l-33 37z" />
    <glyph glyph-name="paragraph" unicode="&#xb6;" horiz-adv-x="563" 
d="M558 523l-102 -10l-72 -513h-106l28 201h-17q-133 0 -186 48.5t-37 156.5q15 110 80 157t198 47h226z" />
    <glyph glyph-name="periodcentered" unicode="&#xb7;" horiz-adv-x="278" 
d="M80 280q4 28 24 46t49 18q30 0 46.5 -20t12.5 -50q-4 -28 -24 -46t-49 -18q-30 0 -47 20t-12 50z" />
    <glyph glyph-name="cedilla" unicode="&#xb8;" horiz-adv-x="490" 
d="M217 20l-9 -54q55 -2 74.5 -19.5t13.5 -62.5q-5 -39 -32.5 -61t-72.5 -22q-60 0 -106 16l15 55q37 -8 67 -8q27 0 40 5.5t16 23.5t-7.5 22.5t-40.5 4.5h-43l30 100h55z" />
    <glyph glyph-name="onesuperior" unicode="&#xb9;" horiz-adv-x="327" 
d="M319 395l-9 -64h-261l10 64h96l33 234q-29 -8 -99 -23l-11 45q64 22 135 59h61l-44 -315h89z" />
    <glyph glyph-name="ordmasculine" unicode="&#xba;" horiz-adv-x="430" 
d="M269 620q83 0 122 -47.5t26 -134.5q-11 -82 -62 -126.5t-132 -44.5q-83 0 -122 46t-27 131t63 130.5t132 45.5zM228 336q94 0 110 108q8 53 -12 80.5t-63 27.5q-95 0 -109 -114q-8 -50 11.5 -76t62.5 -26z" />
    <glyph glyph-name="guillemotright" unicode="&#xbb;" horiz-adv-x="567" 
d="M519 249l-239 -208l-50 54l130 120q21 18 47 36q-17 14 -35 34l-99 117l64 56zM319 249l-240 -208l-49 54l130 120q18 17 46 36q-24 22 -34 34l-99 117l64 56z" />
    <glyph glyph-name="onequarter" unicode="&#xbc;" horiz-adv-x="883" 
d="M54 231l9 64h96l33 234q-29 -8 -99 -23l-10 45q69 25 134 59h61l-44 -315h89l-9 -64h-260zM705 610l-437 -610h-67l436 610h68zM817 134l-8 -58h-59l-10 -76h-73l11 76h-214l4 52l252 251h73l-34 -245h58zM686 134l24 163q-8 -9 -30 -31l-98 -93q-26 -26 -42 -39h146z
" />
    <glyph glyph-name="onehalf" unicode="&#xbd;" horiz-adv-x="895" 
d="M49 231l9 64h96l34 234q-26 -7 -100 -23l-10 45q67 24 135 59h60l-44 -315h90l-10 -64h-260zM700 610l-437 -610h-67l436 610h68zM586 289l-17 55q96 41 163 41q60 0 90 -34t22 -92q-8 -60 -101 -127q-28 -19 -110 -71q30 3 57 3h133l-9 -64h-286l7 55l50 36l48 34.5
l41 30t37 30l27 27t20.5 27.5t8.5 25q4 27 -9.5 42t-42.5 15q-51 0 -129 -33z" />
    <glyph glyph-name="threequarters" unicode="&#xbe;" horiz-adv-x="870" 
d="M101 534l-12 51q85 36 156 36q59 0 90.5 -29.5t24.5 -78.5q-8 -60 -77 -83q34 -11 51 -34.5t13 -54.5q-7 -53 -47.5 -81t-107.5 -28q-88 0 -155 40l26 50q59 -31 131 -31q74 0 82 57q4 26 -16 39.5t-65 13.5h-60l9 60h57q82 0 89 48q4 26 -11 39t-47 13q-55 0 -131 -27z
M700 610l-437 -610h-67l436 610h68zM812 134l-9 -58h-58l-10 -76h-73l10 76h-214l4 52l253 251h73l-34 -245h58zM681 134l23 163q-16 -18 -30 -31l-97 -93q-25 -26 -42 -39h146z" />
    <glyph glyph-name="questiondown" unicode="&#xbf;" horiz-adv-x="522" 
d="M306 372q-26 0 -40 17t-11 42q3 23 20.5 39t41.5 16q26 0 40.5 -17.5t10.5 -42.5q-4 -24 -21 -39t-41 -15zM423 12l25 -84q-156 -67 -261 -67q-94 0 -144 52.5t-38 136.5q10 71 70.5 117.5t165.5 63.5l8 64h91l-4 -141q-199 -12 -212 -97q-6 -44 19 -70t73 -26
q63 0 207 51z" />
    <glyph glyph-name="Agrave" unicode="&#xc0;" horiz-adv-x="672" 
d="M471 682l-34 -35q-90 45 -169 103l-2 22l87 54zM469 128h-298l-68 -128h-125l331 610h156l159 -610h-123zM442 234l-55 222q-5 22 -13 67h-1q-12 -36 -29 -70l-117 -219h215z" />
    <glyph glyph-name="Aacute" unicode="&#xc1;" horiz-adv-x="672" 
d="M537 773l-3 -23q-76 -54 -177 -104l-32 37l130 143zM469 128h-298l-68 -128h-125l331 610h156l159 -610h-123zM442 234l-55 222q-5 22 -13 67h-1q-12 -36 -29 -70l-117 -219h215z" />
    <glyph glyph-name="Acircumflex" unicode="&#xc2;" horiz-adv-x="672" 
d="M261 647l-33 38l144 125h71l107 -125l-40 -38l-112 79zM469 128h-298l-68 -128h-125l331 610h156l159 -610h-123zM442 234l-55 222q-5 22 -13 67h-1q-12 -36 -29 -70l-117 -219h215z" />
    <glyph glyph-name="Atilde" unicode="&#xc3;" horiz-adv-x="672" 
d="M411 685l-55 29q-26 13 -43 5t-36 -39l-51 7q14 52 44 79t62.5 26.5t64.5 -13.5l55 -28q26 -12 44 -3.5t38 41.5l52 -8q-14 -52 -45.5 -80.5t-65 -28.5t-64.5 13zM469 128h-298l-68 -128h-125l331 610h156l159 -610h-123zM442 234l-55 222q-5 22 -13 67h-1
q-12 -36 -29 -70l-117 -219h215z" />
    <glyph glyph-name="Adieresis" unicode="&#xc4;" horiz-adv-x="672" 
d="M295 680q-24 0 -39.5 15.5t-11.5 41.5q4 24 22 38t41 14q26 0 40.5 -15.5t11.5 -42.5q-4 -24 -21.5 -37.5t-42.5 -13.5zM490 680q-26 0 -40.5 15.5t-10.5 41.5q4 25 21.5 38.5t41.5 13.5t39.5 -15.5t11.5 -42.5q-4 -24 -22.5 -37.5t-40.5 -13.5zM469 128h-298l-68 -128
h-125l331 610h156l159 -610h-123zM442 234l-55 222q-5 22 -13 67h-1q-12 -36 -29 -70l-117 -219h215z" />
    <glyph glyph-name="Aring" unicode="&#xc5;" horiz-adv-x="672" 
d="M389 657q-46 0 -70.5 27t-18.5 71q7 45 38 71.5t75 26.5q46 0 70.5 -28.5t17.5 -74.5q-5 -41 -36.5 -67t-75.5 -26zM356 755q-3 -20 7.5 -32t32.5 -12q20 0 34 11t16 30q6 48 -40 48q-19 0 -33 -12.5t-17 -32.5zM469 128h-298l-68 -128h-125l331 610h156l159 -610h-123z
M442 234l-55 222q-5 22 -13 67h-1q-12 -36 -29 -70l-117 -219h215z" />
    <glyph glyph-name="AE" unicode="&#xc6;" horiz-adv-x="956" 
d="M622 503l-20 -147h267l-15 -104h-267l-21 -148h318l-15 -104h-433l18 127h-237l-103 -127h-136l512 610h456l-15 -107h-309zM469 233l34 244l-199 -244h165z" />
    <glyph glyph-name="Ccedilla" unicode="&#xc7;" horiz-adv-x="618" 
d="M534 152l30 -89q-119 -72 -263 -72h-15l-4 -25q55 -2 74.5 -19.5t13.5 -62.5q-5 -39 -32.5 -61t-72.5 -22q-60 0 -106 16l15 55q37 -8 67 -8q27 0 40 5.5t16 23.5t-7.5 22.5t-40.5 4.5h-43l23 78q-102 20 -148.5 100.5t-27.5 208.5q21 151 110.5 232t232.5 81
q124 0 215 -54l-47 -87q-88 35 -174 35q-94 0 -150 -54t-70 -159q-14 -95 25.5 -149.5t122.5 -54.5q107 0 216 55z" />
    <glyph glyph-name="Egrave" unicode="&#xc8;" horiz-adv-x="556" 
d="M410 682l-34 -35q-93 47 -169 103l-2 22l88 54zM222 503l-21 -147h268l-15 -104h-267l-21 -148h317l-14 -104h-434l86 610h424l-14 -107h-309z" />
    <glyph glyph-name="Eacute" unicode="&#xc9;" horiz-adv-x="556" 
d="M476 773l-2 -23q-78 -54 -178 -104l-32 37l130 143zM222 503l-21 -147h268l-15 -104h-267l-21 -148h317l-14 -104h-434l86 610h424l-14 -107h-309z" />
    <glyph glyph-name="Ecircumflex" unicode="&#xca;" horiz-adv-x="556" 
d="M201 647l-34 38l144 125h71l107 -125l-40 -38l-112 79zM222 503l-21 -147h268l-15 -104h-267l-21 -148h317l-14 -104h-434l86 610h424l-14 -107h-309z" />
    <glyph glyph-name="Edieresis" unicode="&#xcb;" horiz-adv-x="556" 
d="M234 680q-23 0 -39 15.5t-12 41.5q4 24 22 38t41 14q26 0 41 -15.5t11 -42.5q-4 -24 -21.5 -37.5t-42.5 -13.5zM429 680q-26 0 -40 15.5t-10 41.5q3 25 20.5 38.5t41.5 13.5t39.5 -15.5t11.5 -42.5q-4 -24 -22 -37.5t-41 -13.5zM222 503l-21 -147h268l-15 -104h-267
l-21 -148h317l-14 -104h-434l86 610h424l-14 -107h-309z" />
    <glyph glyph-name="Igrave" unicode="&#xcc;" horiz-adv-x="266" 
d="M268 682l-34 -35q-93 47 -169 103l-2 22l88 54zM237 610l-86 -610h-116l86 610h116z" />
    <glyph glyph-name="Iacute" unicode="&#xcd;" horiz-adv-x="266" 
d="M252 826l82 -53l-2 -23q-78 -54 -178 -104l-32 37zM237 610l-86 -610h-116l86 610h116z" />
    <glyph glyph-name="Icircumflex" unicode="&#xce;" horiz-adv-x="266" 
d="M347 685l-40 -38l-112 79l-136 -79l-34 38l144 125h71zM121 610h116l-86 -610h-116z" />
    <glyph glyph-name="Idieresis" unicode="&#xcf;" horiz-adv-x="266" 
d="M104 789q26 0 41 -15.5t11 -42.5q-4 -24 -21.5 -37.5t-42.5 -13.5q-23 0 -39 15.5t-12 41.5q4 24 22 38t41 14zM299 789q24 0 39.5 -15.5t11.5 -42.5q-4 -24 -22 -37.5t-41 -13.5q-26 0 -40 15.5t-10 41.5q3 25 20.5 38.5t41.5 13.5zM237 610l-86 -610h-116l86 610h116z
" />
    <glyph glyph-name="Eth" unicode="&#xd0;" horiz-adv-x="655" 
d="M121 610h199q161 0 238.5 -80.5t57.5 -224.5t-117 -224.5t-254 -80.5h-210l37 257h-66l13 90h65zM166 105h89q105 0 167 52.5t77 153.5q13 99 -33.5 146.5t-156.5 47.5h-87l-22 -158h112l-13 -90h-112z" />
    <glyph glyph-name="Ntilde" unicode="&#xd1;" horiz-adv-x="688" 
d="M542 789l52 -8q-14 -52 -45.5 -80.5t-65 -28.5t-64.5 13l-55 29q-26 13 -43 5t-36 -39l-51 7q14 52 44 79t62.5 26.5t64.5 -13.5l55 -28q26 -12 44 -3.5t38 41.5zM576 0h-105l-259 415q-1 -15 -5 -40l-53 -375h-115l86 610h105l258 -418l4 29l55 389h115z" />
    <glyph glyph-name="Ograve" unicode="&#xd2;" horiz-adv-x="678" 
d="M473 682l-33 -35q-94 47 -169 103l-2 22l87 54zM391 620q141 0 208 -83.5t46 -235.5q-21 -148 -110 -229t-228 -81q-142 0 -209 82.5t-45 233.5q21 150 109.5 231.5t228.5 81.5zM319 97q87 0 141.5 53.5t67.5 156.5q13 102 -25.5 154.5t-124.5 52.5q-87 0 -141 -54.5
t-67 -158.5q-13 -100 25.5 -152t123.5 -52z" />
    <glyph glyph-name="Oacute" unicode="&#xd3;" horiz-adv-x="678" 
d="M457 826l83 -53l-3 -23q-73 -51 -177 -104l-33 37zM391 620q141 0 208 -83.5t46 -235.5q-21 -148 -110 -229t-228 -81q-142 0 -209 82.5t-45 233.5q21 150 109.5 231.5t228.5 81.5zM319 97q87 0 141.5 53.5t67.5 156.5q13 102 -25.5 154.5t-124.5 52.5q-87 0 -141 -54.5
t-67 -158.5q-13 -100 25.5 -152t123.5 -52z" />
    <glyph glyph-name="Ocircumflex" unicode="&#xd4;" horiz-adv-x="678" 
d="M264 647l-34 38l144 125h71l108 -125l-41 -38l-111 79zM391 620q141 0 208 -83.5t46 -235.5q-21 -148 -110 -229t-228 -81q-142 0 -209 82.5t-45 233.5q21 150 109.5 231.5t228.5 81.5zM528 307q13 102 -25.5 154.5t-124.5 52.5q-87 0 -141 -54.5t-67 -158.5
q-13 -100 25.5 -152t123.5 -52q87 0 141.5 53.5t67.5 156.5z" />
    <glyph glyph-name="Otilde" unicode="&#xd5;" horiz-adv-x="678" 
d="M536 789l53 -8q-14 -52 -45.5 -80.5t-65 -28.5t-64.5 13l-55 29q-26 13 -43.5 5t-36.5 -39l-50 7q14 52 44 79t62.5 26.5t64.5 -13.5l54 -28q27 -12 45 -3.5t37 41.5zM391 620q141 0 208 -83.5t46 -235.5q-21 -148 -110 -229t-228 -81q-142 0 -209 82.5t-45 233.5
q21 150 109.5 231.5t228.5 81.5zM319 97q87 0 141.5 53.5t67.5 156.5q13 102 -25.5 154.5t-124.5 52.5q-87 0 -141 -54.5t-67 -158.5q-13 -100 25.5 -152t123.5 -52z" />
    <glyph glyph-name="Odieresis" unicode="&#xd6;" horiz-adv-x="678" 
d="M309 789q26 0 41 -15.5t11 -42.5q-4 -24 -21.5 -37.5t-41.5 -13.5t-39.5 15.5t-12.5 41.5q4 24 22.5 38t40.5 14zM504 789q24 0 39.5 -15.5t11.5 -42.5q-4 -24 -22 -37.5t-40 -13.5q-26 0 -40.5 15.5t-10.5 41.5q4 25 21 38.5t41 13.5zM391 620q141 0 208 -83.5
t46 -235.5q-21 -148 -110 -229t-228 -81q-142 0 -209 82.5t-45 233.5q21 150 109.5 231.5t228.5 81.5zM319 97q87 0 141.5 53.5t67.5 156.5q13 102 -25.5 154.5t-124.5 52.5q-87 0 -141 -54.5t-67 -158.5q-13 -100 25.5 -152t123.5 -52z" />
    <glyph glyph-name="multiply" unicode="&#xd7;" horiz-adv-x="478" 
d="M299 249l102 -117l-67 -58l-101 116l-132 -116l-52 58l133 117l-100 116l66 59l101 -117l133 117l49 -59z" />
    <glyph glyph-name="Oslash" unicode="&#xd8;" horiz-adv-x="678" 
d="M678 575l-61 -58q50 -83 31 -216q-21 -148 -110 -229t-228 -81q-118 0 -185 59l-60 -57l-39 43l61 58q-49 81 -31 213q21 150 110 231.5t228 81.5q119 0 186 -59l59 56zM181 183l311 294q-38 37 -111 37q-86 0 -140.5 -54.5t-67.5 -158.5q-9 -71 8 -118zM523 428
l-310 -295q37 -36 109 -36q88 0 142 53.5t67 156.5q10 72 -8 121z" />
    <glyph glyph-name="Ugrave" unicode="&#xd9;" horiz-adv-x="663" 
d="M466 682l-34 -35q-90 45 -169 103l-2 22l87 54zM651 610l-47 -329q-20 -143 -97.5 -216.5t-207.5 -73.5q-131 0 -189 75t-38 218l46 326h115l-46 -329q-24 -183 123 -183q70 0 118.5 50t60.5 136l46 326h116z" />
    <glyph glyph-name="Uacute" unicode="&#xda;" horiz-adv-x="663" 
d="M450 826l82 -53l-3 -23q-76 -54 -177 -104l-32 37zM651 610l-47 -329q-20 -143 -97.5 -216.5t-207.5 -73.5q-131 0 -189 75t-38 218l46 326h115l-46 -329q-24 -183 123 -183q70 0 118.5 50t60.5 136l46 326h116z" />
    <glyph glyph-name="Ucircumflex" unicode="&#xdb;" horiz-adv-x="663" 
d="M256 647l-33 38l144 125h71l107 -125l-40 -38l-112 79zM651 610l-47 -329q-20 -143 -97.5 -216.5t-207.5 -73.5q-131 0 -189 75t-38 218l46 326h115l-46 -329q-24 -183 123 -183q70 0 118.5 50t60.5 136l46 326h116z" />
    <glyph glyph-name="Udieresis" unicode="&#xdc;" horiz-adv-x="663" 
d="M302 789q26 0 40.5 -15.5t11.5 -42.5q-4 -24 -21.5 -37.5t-42.5 -13.5q-24 0 -39.5 15.5t-11.5 41.5q4 24 22 38t41 14zM497 789q24 0 39.5 -15.5t11.5 -42.5q-4 -24 -22.5 -37.5t-40.5 -13.5q-26 0 -40.5 15.5t-10.5 41.5q4 25 21.5 38.5t41.5 13.5zM651 610l-47 -329
q-20 -143 -97.5 -216.5t-207.5 -73.5q-131 0 -189 75t-38 218l46 326h115l-46 -329q-24 -183 123 -183q70 0 118.5 50t60.5 136l46 326h116z" />
    <glyph glyph-name="Yacute" unicode="&#xdd;" horiz-adv-x="599" 
d="M501 773l-3 -23q-73 -51 -177 -104l-33 37l130 143zM352 197l-28 -197h-115l28 197l-172 413h122l102 -243q12 -28 20 -59q19 37 36 62l171 240h123z" />
    <glyph glyph-name="Thorn" unicode="&#xde;" horiz-adv-x="582" 
d="M224 515h105q127 0 184.5 -56t41.5 -164q-15 -109 -82.5 -159.5t-196.5 -50.5h-113l-12 -85h-116l86 610h116zM176 178h110q140 0 158 122q8 60 -23 88t-105 28h-106z" />
    <glyph glyph-name="germandbls" unicode="&#xdf;" horiz-adv-x="599" 
d="M43 475h76q32 76 103 119.5t165 43.5q91 0 143 -46.5t41 -120.5q-6 -49 -40 -87.5t-80 -56.5q58 -14 88 -59.5t21 -109.5q-10 -75 -69 -121t-145 -46q-66 0 -119 16l18 81q50 -10 92 -10q49 0 81.5 27t38.5 71q7 47 -29.5 72.5t-105.5 25.5h-43l12 91h41q53 0 89 27
t42 71q6 39 -17 60.5t-67 21.5q-67 0 -111.5 -37.5t-53.5 -103.5l-57 -404h-113l54 385l-66 8z" />
    <glyph glyph-name="agrave" unicode="&#xe0;" horiz-adv-x="568" 
d="M425 564l-34 -35q-91 47 -169 106l-2 22l83 56zM543 476l-67 -476h-113l7 50q-34 -23 -50 -32.5t-44.5 -18t-62.5 -8.5q-86 0 -136.5 63t-32.5 189q33 241 217 241q82 0 162 -57l6 49h114zM382 141l28 198q-36 26 -62.5 38.5t-58.5 12.5q-113 0 -134 -152
q-11 -78 16 -115.5t78 -37.5q37 0 63 12.5t70 43.5z" />
    <glyph glyph-name="aacute" unicode="&#xe1;" horiz-adv-x="568" 
d="M465 657l-3 -24q-70 -51 -178 -106l-32 37l136 149zM543 476l-67 -476h-113l7 50q-34 -23 -50 -32.5t-44.5 -18t-62.5 -8.5q-86 0 -136.5 63t-32.5 189q33 241 217 241q82 0 162 -57l6 49h114zM382 141l28 198q-36 26 -62.5 38.5t-58.5 12.5q-113 0 -134 -152
q-11 -78 16 -115.5t78 -37.5q37 0 63 12.5t70 43.5z" />
    <glyph glyph-name="acircumflex" unicode="&#xe2;" horiz-adv-x="568" 
d="M448 531l-109 77l-131 -76l-35 37l139 124h70l106 -125zM543 476l-67 -476h-113l7 50q-34 -23 -50 -32.5t-44.5 -18t-62.5 -8.5q-86 0 -136.5 63t-32.5 189q33 241 217 241q82 0 162 -57l6 49h114zM382 141l28 198q-36 26 -62.5 38.5t-58.5 12.5q-113 0 -134 -152
q-11 -78 16 -115.5t78 -37.5q37 0 63 12.5t70 43.5z" />
    <glyph glyph-name="atilde" unicode="&#xe3;" horiz-adv-x="568" 
d="M345 578l-55 29q-26 13 -43 5t-36 -39l-51 7q14 52 44 79.5t62.5 27t64.5 -14.5l55 -28q26 -12 44 -3t38 41l52 -7q-14 -53 -45.5 -81.5t-65 -28.5t-64.5 13zM543 476l-67 -476h-113l7 50q-34 -23 -50 -32.5t-44.5 -18t-62.5 -8.5q-86 0 -136.5 63t-32.5 189
q33 241 217 241q82 0 162 -57l6 49h114zM382 141l28 198q-36 26 -62.5 38.5t-58.5 12.5q-113 0 -134 -152q-11 -78 16 -115.5t78 -37.5q37 0 63 12.5t70 43.5z" />
    <glyph glyph-name="adieresis" unicode="&#xe4;" horiz-adv-x="568" 
d="M232 560q-24 0 -40 16t-12 42q4 25 22.5 39.5t41.5 14.5q26 0 41.5 -16t11.5 -43q-4 -25 -22 -39t-43 -14zM427 560q-26 0 -40.5 15.5t-10.5 42.5q3 25 20.5 39.5t42.5 14.5q24 0 40 -16t12 -43q-4 -25 -22.5 -39t-41.5 -14zM543 476l-67 -476h-113l7 50
q-34 -23 -50 -32.5t-44.5 -18t-62.5 -8.5q-86 0 -136.5 63t-32.5 189q33 241 217 241q82 0 162 -57l6 49h114zM382 141l28 198q-36 26 -62.5 38.5t-58.5 12.5q-113 0 -134 -152q-11 -78 16 -115.5t78 -37.5q37 0 63 12.5t70 43.5z" />
    <glyph glyph-name="aring" unicode="&#xe5;" horiz-adv-x="568" 
d="M324 530q-46 0 -70.5 27.5t-18.5 71.5q7 45 38 71.5t75 26.5q46 0 70 -28.5t18 -75.5q-5 -41 -36.5 -67t-75.5 -26zM291 629q-6 -44 39 -44q44 0 51 40q3 23 -7.5 35.5t-32.5 12.5q-20 0 -33.5 -12t-16.5 -32zM543 476l-67 -476h-113l7 50q-34 -23 -50 -32.5t-44.5 -18
t-62.5 -8.5q-86 0 -136.5 63t-32.5 189q33 241 217 241q82 0 162 -57l6 49h114zM382 141l28 198q-36 26 -62.5 38.5t-58.5 12.5q-113 0 -134 -152q-11 -78 16 -115.5t78 -37.5q37 0 63 12.5t70 43.5z" />
    <glyph glyph-name="ae" unicode="&#xe6;" horiz-adv-x="842" 
d="M122 373l-9 79q129 33 202 33q95 0 129 -56q67 56 170 56q102 0 150.5 -60.5t34.5 -172.5q-4 -28 -9 -46h-336q-4 -126 112 -126q89 0 176 52l27 -68q-56 -40 -105 -56.5t-111 -16.5q-114 0 -167 75q-101 -75 -203 -75q-97 0 -134.5 35t-25.5 117q10 67 68 104t156 37
h108v1q9 62 -4.5 86.5t-64.5 24.5q-68 0 -164 -23zM467 284h238q9 116 -98 116t-140 -116zM343 206h-96q-110 0 -119 -61q-5 -36 15.5 -52.5t72.5 -16.5q56 0 141 52q-10 32 -8 78h-6z" />
    <glyph glyph-name="ccedilla" unicode="&#xe7;" horiz-adv-x="494" 
d="M413 132l30 -72q-56 -39 -103.5 -54t-112.5 -15l-4 -25q54 -2 74 -19.5t13 -62.5q-5 -39 -32 -61t-73 -22q-58 0 -106 16l15 55q37 -8 67 -8q27 0 40 5.5t16 23.5t-7.5 22.5t-40.5 4.5h-43l24 77q-74 18 -111 81.5t-24 159.5q16 114 89 180.5t177 66.5q98 0 175 -49
l-43 -73q-63 29 -133 29q-60 0 -102 -43.5t-52 -116.5q-10 -68 18.5 -107.5t86.5 -39.5q80 0 162 47z" />
    <glyph glyph-name="egrave" unicode="&#xe8;" horiz-adv-x="526" 
d="M397 565l-34 -36q-87 45 -169 107l-2 21l83 56zM425 132l27 -68q-56 -40 -105 -56.5t-110 -16.5q-108 0 -163 68t-39 184q16 117 85 179.5t178 62.5q101 0 149.5 -60.5t35.5 -172.5l-10 -46h-335q-4 -126 111 -126q89 0 176 52zM150 284h239q8 116 -98 116
q-108 0 -141 -116z" />
    <glyph glyph-name="eacute" unicode="&#xe9;" horiz-adv-x="526" 
d="M437 657l-3 -23q-77 -55 -178 -106l-32 37l136 148zM425 132l27 -68q-56 -40 -105 -56.5t-110 -16.5q-108 0 -163 68t-39 184q16 117 85 179.5t178 62.5q101 0 149.5 -60.5t35.5 -172.5l-10 -46h-335q-4 -126 111 -126q89 0 176 52zM150 284h239q8 116 -98 116
q-108 0 -141 -116z" />
    <glyph glyph-name="ecircumflex" unicode="&#xea;" horiz-adv-x="526" 
d="M420 532l-109 76l-131 -76l-35 37l139 125h70l106 -126zM425 132l27 -68q-56 -40 -105 -56.5t-110 -16.5q-108 0 -163 68t-39 184q16 117 85 179.5t178 62.5q101 0 149.5 -60.5t35.5 -172.5l-10 -46h-335q-4 -126 111 -126q89 0 176 52zM150 284h239q8 116 -98 116
q-108 0 -141 -116z" />
    <glyph glyph-name="edieresis" unicode="&#xeb;" horiz-adv-x="526" 
d="M204 561q-24 0 -40 16t-12 42q4 25 22.5 39t41.5 14q26 0 41.5 -16t11.5 -43q-4 -25 -22 -38.5t-43 -13.5zM399 561q-26 0 -40.5 15.5t-10.5 42.5q3 25 20.5 39t42.5 14t40.5 -16t11.5 -43q-4 -24 -22.5 -38t-41.5 -14zM425 132l27 -68q-56 -40 -105 -56.5t-110 -16.5
q-108 0 -163 68t-39 184q16 117 85 179.5t178 62.5q101 0 149.5 -60.5t35.5 -172.5l-10 -46h-335q-4 -126 111 -126q89 0 176 52zM150 284h239q8 116 -98 116q-108 0 -141 -116z" />
    <glyph glyph-name="igrave" unicode="&#xec;" horiz-adv-x="246" 
d="M259 564l-34 -35q-91 47 -169 106l-2 22l83 56zM207 476l-67 -476h-113l67 476h113z" />
    <glyph glyph-name="iacute" unicode="&#xed;" horiz-adv-x="246" 
d="M222 713l77 -56l-3 -24q-70 -51 -178 -106l-32 37zM207 476l-67 -476h-113l67 476h113z" />
    <glyph glyph-name="icircumflex" unicode="&#xee;" horiz-adv-x="246" 
d="M322 568l-40 -37l-109 77l-131 -76l-35 37l139 124h70zM94 476h113l-67 -476h-113z" />
    <glyph glyph-name="idieresis" unicode="&#xef;" horiz-adv-x="246" 
d="M78 672q26 0 41.5 -16t11.5 -43q-4 -25 -22 -39t-43 -14q-24 0 -40 16t-12 42q4 25 22.5 39.5t41.5 14.5zM273 672q24 0 40 -16t12 -43q-4 -25 -22.5 -39t-41.5 -14q-26 0 -40.5 15.5t-10.5 42.5q3 25 20.5 39.5t42.5 14.5zM207 476l-67 -476h-113l67 476h113z" />
    <glyph glyph-name="eth" unicode="&#xf0;" 
d="M473 615l-75 -33q77 -80 104 -159t12 -189q-16 -117 -88 -180t-186 -63q-116 0 -170.5 64.5t-38.5 182.5q16 109 94.5 170.5t224.5 60.5q-23 31 -60 67l-125 -54l-16 53l95 41l-64 47v14l113 42q45 -39 62 -55l101 44zM248 82q132 0 154 154q13 89 -11 157
q-131 -1 -184.5 -38.5t-65.5 -127.5q-10 -74 17 -110t90 -35z" />
    <glyph glyph-name="ntilde" unicode="&#xf1;" 
d="M343 578l-55 29q-26 13 -43 5t-36 -39l-51 7q14 52 44 79.5t62.5 27t64.5 -14.5l55 -28q26 -12 44 -3t38 41l52 -7q-14 -53 -45.5 -81.5t-65 -28.5t-64.5 13zM206 476l-7 -54q49 34 86.5 48t82.5 14q75 0 112.5 -48.5t25.5 -138.5l-43 -297h-113l40 277q9 60 -5 84
t-59 24q-55 0 -141 -63l-45 -322h-114l67 476h113z" />
    <glyph glyph-name="ograve" unicode="&#xf2;" 
d="M421 565l-33 -36q-91 47 -169 107l-2 21l83 56zM312 485q112 0 168.5 -68.5t39.5 -184.5q-15 -111 -89 -176t-185 -65t-167.5 67t-40.5 180q16 114 90 180.5t184 66.5zM256 85q61 0 103 40.5t52 112.5q10 80 -16 116.5t-92 36.5q-61 0 -103 -42t-52 -117q-10 -77 16 -112
t92 -35z" />
    <glyph glyph-name="oacute" unicode="&#xf3;" 
d="M384 713l77 -56l-2 -23q-81 -58 -178 -106l-33 37zM312 485q112 0 168.5 -68.5t39.5 -184.5q-15 -111 -89 -176t-185 -65t-167.5 67t-40.5 180q16 114 90 180.5t184 66.5zM256 85q61 0 103 40.5t52 112.5q10 80 -16 116.5t-92 36.5q-61 0 -103 -42t-52 -117
q-10 -77 16 -112t92 -35z" />
    <glyph glyph-name="ocircumflex" unicode="&#xf4;" 
d="M445 532l-109 76l-132 -76l-34 37l139 125h69l106 -126zM312 485q112 0 168.5 -68.5t39.5 -184.5q-15 -111 -89 -176t-185 -65t-167.5 67t-40.5 180q16 114 90 180.5t184 66.5zM411 238q10 80 -16 116.5t-92 36.5q-61 0 -103 -42t-52 -117q-10 -77 16 -112t92 -35
q61 0 103 40.5t52 112.5z" />
    <glyph glyph-name="otilde" unicode="&#xf5;" 
d="M464 683l53 -8q-14 -52 -45.5 -80.5t-65 -28.5t-64.5 13l-55 29q-26 13 -43.5 5t-36.5 -39l-50 7q14 52 44 79t62.5 26.5t64.5 -13.5l54 -28q27 -12 45 -3.5t37 41.5zM312 485q112 0 168.5 -68.5t39.5 -184.5q-15 -111 -89 -176t-185 -65t-167.5 67t-40.5 180
q16 114 90 180.5t184 66.5zM256 85q61 0 103 40.5t52 112.5q10 80 -16 116.5t-92 36.5q-61 0 -103 -42t-52 -117q-10 -77 16 -112t92 -35z" />
    <glyph glyph-name="odieresis" unicode="&#xf6;" 
d="M241 672q26 0 41 -15.5t12 -43.5q-4 -25 -22 -38.5t-43 -13.5t-41 15.5t-12 42.5q4 25 23 39t42 14zM436 672q25 0 40.5 -16t11.5 -43q-4 -24 -22.5 -38t-41.5 -14q-26 0 -41 15.5t-11 42.5q4 25 21.5 39t42.5 14zM312 485q112 0 168.5 -68.5t39.5 -184.5
q-15 -111 -89 -176t-185 -65t-167.5 67t-40.5 180q16 114 90 180.5t184 66.5zM256 85q61 0 103 40.5t52 112.5q10 80 -16 116.5t-92 36.5q-61 0 -103 -42t-52 -117q-10 -77 16 -112t92 -35z" />
    <glyph glyph-name="divide" unicode="&#xf7;" horiz-adv-x="479" 
d="M218 404q2 19 16.5 31.5t34.5 12.5q21 0 33 -14.5t9 -35.5q-3 -20 -17 -32.5t-35 -12.5t-33 14.5t-8 36.5zM435 199h-399l12 83h399zM173 88q3 20 17 32.5t34 12.5q22 0 33.5 -14.5t9.5 -36.5q-3 -19 -17 -31.5t-35 -12.5t-33 14.5t-9 35.5z" />
    <glyph glyph-name="oslash" unicode="&#xf8;" 
d="M526 450l-42 -39q53 -66 36 -179q-15 -111 -89 -176t-185 -65q-96 0 -152 51l-44 -41l-29 32l45 42q-41 64 -28 163q16 114 90 180.5t184 66.5q87 0 141 -43l43 41zM149 154l229 217q-26 20 -75 20q-61 0 -103 -42t-52 -117q-6 -48 1 -78zM405 336l-236 -222
q26 -29 87 -29t103 40.5t52 112.5q8 62 -6 98z" />
    <glyph glyph-name="ugrave" unicode="&#xf9;" 
d="M421 564l-34 -35q-91 47 -169 106l-2 22l83 56zM528 476l-67 -476h-113l7 52q-48 -33 -84 -46.5t-79 -13.5q-76 0 -116.5 48.5t-27.5 137.5l42 298h113l-38 -272q-9 -59 7.5 -83.5t61.5 -24.5q60 0 135 53l46 327h113z" />
    <glyph glyph-name="uacute" unicode="&#xfa;" 
d="M461 657l-3 -24q-70 -51 -178 -106l-32 37l136 149zM528 476l-67 -476h-113l7 52q-48 -33 -84 -46.5t-79 -13.5q-76 0 -116.5 48.5t-27.5 137.5l42 298h113l-38 -272q-9 -59 7.5 -83.5t61.5 -24.5q60 0 135 53l46 327h113z" />
    <glyph glyph-name="ucircumflex" unicode="&#xfb;" 
d="M444 531l-109 77l-131 -76l-35 37l139 124h70l106 -125zM528 476l-67 -476h-113l7 52q-48 -33 -84 -46.5t-79 -13.5q-76 0 -116.5 48.5t-27.5 137.5l42 298h113l-38 -272q-9 -59 7.5 -83.5t61.5 -24.5q60 0 135 53l46 327h113z" />
    <glyph glyph-name="udieresis" unicode="&#xfc;" 
d="M228 560q-24 0 -40 16t-12 42q4 25 22.5 39.5t41.5 14.5q26 0 41.5 -16t11.5 -43q-4 -25 -22 -39t-43 -14zM423 560q-26 0 -40.5 15.5t-10.5 42.5q3 25 20.5 39.5t42.5 14.5q24 0 40 -16t12 -43q-4 -25 -22.5 -39t-41.5 -14zM528 476l-67 -476h-113l7 52
q-48 -33 -84 -46.5t-79 -13.5q-76 0 -116.5 48.5t-27.5 137.5l42 298h113l-38 -272q-9 -59 7.5 -83.5t61.5 -24.5q60 0 135 53l46 327h113z" />
    <glyph glyph-name="yacute" unicode="&#xfd;" horiz-adv-x="525" 
d="M446 657l-2 -24q-74 -53 -178 -106l-33 37l136 149zM431 476h122l-53 -103.5l-57 -110.5l-51.5 -93.5t-56.5 -93.5q-115 -170 -282 -229l-28 92q84 38 135 89l-122 449h118l71 -271q9 -33 16 -72q69 105 188 343z" />
    <glyph glyph-name="thorn" unicode="&#xfe;" horiz-adv-x="564" 
d="M224 627l-27 -197q100 55 171 55q186 0 152 -247q-18 -125 -82 -186t-147 -61q-49 0 -79.5 13.5t-68.5 43.5l-29 -207h-114l111 786h113zM184 337l-29 -204l34.5 -25t32.5 -15.5t44 -7.5q53 0 92 38.5t50 119.5q20 147 -88 147q-46 0 -136 -53z" />
    <glyph glyph-name="ydieresis" unicode="&#xff;" horiz-adv-x="525" 
d="M214 560q-25 0 -41 15.5t-12 42.5q4 25 23 39.5t42 14.5q26 0 41 -16t12 -43q-4 -25 -22 -39t-43 -14zM409 560q-26 0 -41 15.5t-11 42.5q4 25 21.5 39.5t42.5 14.5q24 0 40 -16t12 -43q-4 -25 -22.5 -39t-41.5 -14zM431 476h122l-53 -103.5l-57 -110.5l-51.5 -93.5
t-56.5 -93.5q-115 -170 -282 -229l-28 92q84 38 135 89l-122 449h118l71 -271q9 -33 16 -72q69 105 188 343z" />
    <glyph glyph-name="Amacron" unicode="&#x100;" horiz-adv-x="672" 
d="M526 691h-267l11 86h267zM469 128h-298l-68 -128h-125l331 610h156l159 -610h-123zM442 234l-55 222q-5 22 -13 67h-1q-12 -36 -29 -70l-117 -219h215z" />
    <glyph glyph-name="amacron" unicode="&#x101;" horiz-adv-x="568" 
d="M464 568h-269l11 87h269zM543 476l-67 -476h-113l7 50q-34 -23 -50 -32.5t-44.5 -18t-62.5 -8.5q-86 0 -136.5 63t-32.5 189q33 241 217 241q82 0 162 -57l6 49h114zM382 141l28 198q-36 26 -62.5 38.5t-58.5 12.5q-113 0 -134 -152q-11 -78 16 -115.5t78 -37.5
q37 0 63 12.5t70 43.5z" />
    <glyph glyph-name="Abreve" unicode="&#x102;" horiz-adv-x="672" 
d="M469 787h73q-18 -127 -154 -127q-65 0 -97.5 35.5t-23.5 91.5h71q-3 -28 9 -42.5t44 -14.5q37 0 53.5 14.5t24.5 42.5zM469 128h-298l-68 -128h-125l331 610h156l159 -610h-123zM442 234l-55 222q-5 22 -13 67h-1q-12 -36 -29 -70l-117 -219h215z" />
    <glyph glyph-name="abreve" unicode="&#x103;" horiz-adv-x="568" 
d="M415 673h74q-20 -128 -155 -128q-65 0 -97 35.5t-23 92.5h70q-2 -29 9.5 -43.5t43.5 -14.5q37 0 54 15t24 43zM543 476l-67 -476h-113l7 50q-34 -23 -50 -32.5t-44.5 -18t-62.5 -8.5q-86 0 -136.5 63t-32.5 189q33 241 217 241q82 0 162 -57l6 49h114zM382 141l28 198
q-36 26 -62.5 38.5t-58.5 12.5q-113 0 -134 -152q-11 -78 16 -115.5t78 -37.5q37 0 63 12.5t70 43.5z" />
    <glyph glyph-name="Aogonek" unicode="&#x104;" horiz-adv-x="679" 
d="M628 0h-23q-67 -1 -102 -20.5t-37 -47.5q-1 -19 15.5 -29.5t43.5 -10.5q18 0 74 9l8 -65q-63 -21 -117 -21q-47 0 -77.5 26t-28.5 67q1 43 32 72.5t83 41.5l-27 106h-298l-68 -128h-125l331 610h157zM446 234l-56 222q-6 22 -13 67h-1q-14 -42 -29 -70l-116 -219h215z
" />
    <glyph glyph-name="aogonek" unicode="&#x105;" horiz-adv-x="568" 
d="M476 0h-43q-37 -6 -62 -24.5t-29 -43.5q-2 -21 9 -30t40 -9q22 0 72 10l6 -64q-55 -20 -113 -20q-50 0 -76 25t-20 66q5 33 33 61t71 42l6 37q-34 -23 -50 -32.5t-44.5 -18t-62.5 -8.5q-86 0 -136.5 63t-32.5 189q33 241 217 241q82 0 162 -57l6 49h114zM382 141l28 198
q-36 26 -62.5 38.5t-58.5 12.5q-113 0 -134 -152q-11 -78 16 -115.5t78 -37.5q37 0 63 12.5t70 43.5z" />
    <glyph glyph-name="Cacute" unicode="&#x106;" horiz-adv-x="618" 
d="M453 832l83 -54l-3 -23q-75 -53 -177 -103l-33 36zM534 152l30 -89q-119 -72 -263 -72q-138 0 -204 83t-44 233q21 151 110.5 232t232.5 81q124 0 215 -54l-47 -87q-88 35 -174 35q-94 0 -150 -54t-70 -159q-14 -95 25.5 -149.5t122.5 -54.5q107 0 216 55z" />
    <glyph glyph-name="cacute" unicode="&#x107;" horiz-adv-x="494" 
d="M360 713l77 -56l-3 -23q-77 -55 -178 -106l-32 37zM413 132l30 -72q-56 -39 -104 -54t-113 -15q-100 0 -153.5 67t-37.5 180q16 114 89 180.5t177 66.5q98 0 175 -49l-43 -73q-63 29 -133 29q-60 0 -102 -43.5t-52 -116.5q-10 -68 18.5 -107.5t86.5 -39.5q80 0 162 47z
" />
    <glyph glyph-name="Cdotaccent" unicode="&#x10a;" horiz-adv-x="618" 
d="M404 803q28 0 45.5 -18t12.5 -49q-4 -27 -25 -43t-47 -16q-29 0 -45.5 17.5t-12.5 47.5q4 29 24 45t48 16zM534 152l30 -89q-119 -72 -263 -72q-138 0 -204 83t-44 233q21 151 110.5 232t232.5 81q124 0 215 -54l-47 -87q-88 35 -174 35q-94 0 -150 -54t-70 -159
q-14 -95 25.5 -149.5t122.5 -54.5q107 0 216 55z" />
    <glyph glyph-name="cdotaccent" unicode="&#x10b;" horiz-adv-x="494" 
d="M315 683q28 0 46 -18.5t13 -49.5q-4 -28 -25.5 -44.5t-47.5 -16.5q-30 0 -47 18t-13 49q4 29 25 45.5t49 16.5zM413 132l30 -72q-56 -39 -104 -54t-113 -15q-100 0 -153.5 67t-37.5 180q16 114 89 180.5t177 66.5q98 0 175 -49l-43 -73q-63 29 -133 29q-60 0 -102 -43.5
t-52 -116.5q-10 -68 18.5 -107.5t86.5 -39.5q80 0 162 47z" />
    <glyph glyph-name="Ccaron" unicode="&#x10c;" horiz-adv-x="618" 
d="M351 661l-108 124l41 38l111 -78l127 80l37 -40l-137 -124h-71zM611 566l-47 -87q-88 35 -174 35q-94 0 -150 -54t-70 -159q-14 -95 25.5 -149.5t122.5 -54.5q107 0 216 55l30 -89q-119 -72 -263 -72q-138 0 -204 83t-44 233q21 151 110.5 232t232.5 81q124 0 215 -54z
" />
    <glyph glyph-name="ccaron" unicode="&#x10d;" horiz-adv-x="494" 
d="M262 533l-106 125l40 37l108 -76l127 79l36 -40l-135 -125h-70zM476 436l-43 -73q-63 29 -133 29q-60 0 -102 -43.5t-52 -116.5q-10 -68 18.5 -107.5t86.5 -39.5q80 0 162 47l30 -72q-56 -39 -104 -54t-113 -15q-100 0 -153.5 67t-37.5 180q16 114 89 180.5t177 66.5
q98 0 175 -49z" />
    <glyph glyph-name="Dcaron" unicode="&#x10e;" horiz-adv-x="655" 
d="M324 655l-108 125l41 38l111 -78l127 80l37 -40l-137 -125h-71zM121 610h199q161 0 238.5 -80.5t57.5 -224.5t-117 -224.5t-254 -80.5h-210zM166 105h89q105 0 167 52.5t77 153.5q13 99 -33.5 146.5t-156.5 47.5h-87z" />
    <glyph glyph-name="dcaron" unicode="&#x10f;" horiz-adv-x="607" 
d="M443 650h114l-92 -650h-113l7 50q-34 -23 -50.5 -32.5t-45 -18t-62.5 -8.5q-40 0 -73.5 14.5t-58.5 43.5t-35.5 79t-1.5 115q17 124 76.5 183t147.5 59q83 0 155 -63zM689 650l-2 -14q-20 -90 -58 -160h-59l30 174h89zM373 148l26 191q-65 51 -121 51q-114 0 -135 -152
q-11 -78 16 -114t79 -36q25 0 50 9.5t40.5 19.5t44.5 31z" />
    <glyph glyph-name="Dcroat" unicode="&#x110;" horiz-adv-x="655" 
d="M121 610h199q161 0 238.5 -80.5t57.5 -224.5t-117 -224.5t-254 -80.5h-210l37 257h-66l13 90h65zM166 105h89q105 0 167 52.5t77 153.5q13 99 -33.5 146.5t-156.5 47.5h-87l-22 -158h112l-13 -90h-112z" />
    <glyph glyph-name="dcroat" unicode="&#x111;" horiz-adv-x="613" 
d="M623 519h-85l-73 -519h-113l7 50q-34 -23 -50.5 -32.5t-45 -18t-62.5 -8.5q-40 0 -73.5 14.5t-58.5 43.5t-35.5 79t-1.5 115q17 124 76.5 183t147.5 59q83 0 155 -63l14 97h-87l10 69h87l8 62h114l-9 -62h84zM373 148l26 191q-65 51 -121 51q-114 0 -135 -152
q-11 -78 16 -114t79 -36q25 0 50 9.5t40.5 19.5t44.5 31z" />
    <glyph glyph-name="Emacron" unicode="&#x112;" horiz-adv-x="556" 
d="M465 691h-267l11 86h267zM222 503l-21 -147h268l-15 -104h-267l-21 -148h317l-14 -104h-434l86 610h424l-14 -107h-309z" />
    <glyph glyph-name="emacron" unicode="&#x113;" horiz-adv-x="526" 
d="M436 568h-269l11 87h269zM425 132l27 -68q-56 -40 -105 -56.5t-110 -16.5q-108 0 -163 68t-39 184q16 117 85 179.5t178 62.5q101 0 149.5 -60.5t35.5 -172.5l-10 -46h-335q-4 -126 111 -126q89 0 176 52zM150 284h239q8 116 -98 116q-108 0 -141 -116z" />
    <glyph glyph-name="Edotaccent" unicode="&#x116;" horiz-adv-x="556" 
d="M331 671q-29 0 -46 18t-13 48q4 28 24.5 44.5t48.5 16.5t45 -18t13 -49q-4 -27 -25.5 -43.5t-46.5 -16.5zM222 503l-21 -147h268l-15 -104h-267l-21 -148h317l-14 -104h-434l86 610h424l-14 -107h-309z" />
    <glyph glyph-name="edotaccent" unicode="&#x117;" horiz-adv-x="526" 
d="M301 554q-30 0 -47 18t-13 49q4 29 25 45.5t49 16.5t46 -18.5t13 -49.5q-4 -28 -25.5 -44.5t-47.5 -16.5zM425 132l27 -68q-56 -40 -105 -56.5t-110 -16.5q-108 0 -163 68t-39 184q16 117 85 179.5t178 62.5q101 0 149.5 -60.5t35.5 -172.5l-10 -46h-335
q-4 -126 111 -126q89 0 176 52zM150 284h239q8 116 -98 116q-108 0 -141 -116z" />
    <glyph glyph-name="Eogonek" unicode="&#x118;" horiz-adv-x="556" 
d="M222 503l-21 -147h268l-15 -104h-267l-21 -148h317l-14 -104h-59q-37 -6 -62 -24.5t-29 -43.5q-2 -21 9 -30t40 -9q22 0 72 10l6 -64q-55 -20 -113 -20q-50 0 -76 25t-20 66q8 57 74 90h-276l86 610h424l-14 -107h-309z" />
    <glyph glyph-name="eogonek" unicode="&#x119;" horiz-adv-x="526" 
d="M338 -97l7 -64q-57 -20 -113 -20q-50 0 -76 25t-20 66q6 49 62 84q-90 12 -134 78t-29 171q16 117 85 179.5t178 62.5q101 0 149.5 -60.5t35.5 -172.5l-10 -46h-335q-4 -126 111 -126q89 0 176 52l27 -68q-86 -61 -170 -71q-58 -20 -64 -61q-2 -21 8.5 -30t40.5 -9
q21 0 71 10zM150 284h239q8 116 -98 116q-108 0 -141 -116z" />
    <glyph glyph-name="Ecaron" unicode="&#x11a;" horiz-adv-x="556" 
d="M292 655l-108 125l41 38l111 -78l127 80l37 -40l-137 -125h-71zM222 503l-21 -147h268l-15 -104h-267l-21 -148h317l-14 -104h-434l86 610h424l-14 -107h-309z" />
    <glyph glyph-name="ecaron" unicode="&#x11b;" horiz-adv-x="526" 
d="M262 533l-106 125l40 37l108 -76l127 79l36 -40l-135 -125h-70zM425 132l27 -68q-56 -40 -105 -56.5t-110 -16.5q-108 0 -163 68t-39 184q16 117 85 179.5t178 62.5q101 0 149.5 -60.5t35.5 -172.5l-10 -46h-335q-4 -126 111 -126q89 0 176 52zM150 284h239
q8 116 -98 116q-108 0 -141 -116z" />
    <glyph glyph-name="Gbreve" unicode="&#x11e;" horiz-adv-x="670" 
d="M466 787h74q-20 -127 -155 -127q-65 0 -97 35.5t-23 91.5h70q-2 -29 9.5 -43t44.5 -14q37 0 53.5 15t23.5 42zM630 327l-35 -256q-150 -80 -298 -80q-135 0 -200.5 83t-43.5 233q20 144 111 228.5t227 84.5q134 0 244 -49l-42 -90q-104 34 -202 34q-90 0 -148.5 -56.5
t-72.5 -156.5q-14 -97 24 -150.5t118 -53.5q113 0 185 38l13 92h-188l14 99h294z" />
    <glyph glyph-name="gbreve" unicode="&#x11f;" horiz-adv-x="556" 
d="M412 673h73q-18 -127 -154 -127q-65 0 -97.5 35.5t-23.5 91.5h71q-3 -28 9 -42.5t44 -14.5q37 0 53.5 14.5t24.5 42.5zM538 476l-56 -401q-18 -121 -84 -180.5t-173 -59.5q-121 0 -205 48l28 83q93 -37 171 -37q65 0 101.5 34t48.5 114v4q-43 -32 -79.5 -46t-88.5 -14
q-87 0 -132.5 57t-29.5 170q34 237 217 237q76 0 161 -62l8 53h113zM381 167l24 171q-37 27 -63 39.5t-58 12.5q-114 0 -134 -148q-10 -70 17.5 -101.5t80.5 -31.5q25 0 50.5 10t38.5 18t44 30z" />
    <glyph glyph-name="Gdotaccent" unicode="&#x120;" horiz-adv-x="670" 
d="M403 798q28 0 45.5 -18t12.5 -49q-4 -27 -25 -43.5t-47 -16.5q-29 0 -45.5 18t-12.5 48q4 28 24 44.5t48 16.5zM630 327l-35 -256q-150 -80 -298 -80q-135 0 -200.5 83t-43.5 233q20 144 111 228.5t227 84.5q134 0 244 -49l-42 -90q-104 34 -202 34q-90 0 -148.5 -56.5
t-72.5 -156.5q-14 -97 24 -150.5t118 -53.5q113 0 185 38l13 92h-188l14 99h294z" />
    <glyph glyph-name="gdotaccent" unicode="&#x121;" horiz-adv-x="556" 
d="M325 554q-29 0 -46 18t-13 49q4 29 24.5 45.5t49.5 16.5q28 0 45.5 -18.5t13.5 -49.5q-4 -28 -25.5 -44.5t-48.5 -16.5zM538 476l-56 -401q-18 -121 -84 -180.5t-173 -59.5q-121 0 -205 48l28 83q93 -37 171 -37q65 0 101.5 34t48.5 114v4q-43 -32 -79.5 -46t-88.5 -14
q-87 0 -132.5 57t-29.5 170q34 237 217 237q76 0 161 -62l8 53h113zM381 167l24 171q-37 27 -63 39.5t-58 12.5q-114 0 -134 -148q-10 -70 17.5 -101.5t80.5 -31.5q25 0 50.5 10t38.5 18t44 30z" />
    <glyph glyph-name="Gcommaaccent" unicode="&#x122;" horiz-adv-x="670" 
d="M336 327h294l-35 -256q-150 -80 -298 -80q-135 0 -200.5 83t-43.5 233q20 144 111 228.5t227 84.5q134 0 244 -49l-42 -90q-104 34 -202 34q-90 0 -148.5 -56.5t-72.5 -156.5q-14 -97 24 -150.5t118 -53.5q113 0 185 38l13 92h-188zM230 -227l-19 28q40 32 56 60
q-16 5 -24.5 20t-5.5 33q2 23 18 37t40 14q25 0 38 -18t10 -44q-11 -75 -113 -130z" />
    <glyph glyph-name="gcommaaccent" unicode="&#x123;" horiz-adv-x="556" 
d="M372 725l13 -33q-38 -27 -53 -53q16 -5 24.5 -19.5t6.5 -33.5q-4 -22 -20 -36.5t-39 -14.5q-24 0 -38 18t-10 44q11 77 116 128zM538 476l-56 -401q-18 -121 -84 -180.5t-173 -59.5q-121 0 -205 48l28 83q93 -37 171 -37q65 0 101.5 34t48.5 114v4q-43 -32 -79.5 -46
t-88.5 -14q-87 0 -132.5 57t-29.5 170q34 237 217 237q76 0 161 -62l8 53h113zM381 167l24 171q-37 27 -63 39.5t-58 12.5q-114 0 -134 -148q-10 -70 17.5 -101.5t80.5 -31.5q25 0 50.5 10t38.5 18t44 30z" />
    <glyph glyph-name="Hbar" unicode="&#x126;" horiz-adv-x="679" 
d="M678 437h-47l-62 -437h-115l33 233h-299l-33 -233h-115l61 437h-47l12 84h47l12 89h116l-13 -89h299l13 89h115l-12 -89h46zM515 437h-298l-14 -100h298z" />
    <glyph glyph-name="hbar" unicode="&#x127;" 
d="M214 527l-15 -107q49 35 86.5 49.5t82.5 14.5q75 0 112.5 -48.5t25.5 -138.5l-43 -297h-113l38 267q8 60 -6 84t-58 24q-61 0 -139 -56l-45 -319h-114l75 527h-47l8 55h46l10 68h113l-9 -68h124l-8 -55h-124z" />
    <glyph glyph-name="Imacron" unicode="&#x12a;" horiz-adv-x="266" 
d="M334 777l-11 -86h-267l11 86h267zM237 610l-86 -610h-116l86 610h116z" />
    <glyph glyph-name="imacron" unicode="&#x12b;" horiz-adv-x="246" 
d="M309 655l-11 -87h-269l11 87h269zM207 476l-67 -476h-113l67 476h113z" />
    <glyph glyph-name="Iogonek" unicode="&#x12e;" horiz-adv-x="266" 
d="M151 0h-20q-37 -6 -62 -24.5t-29 -43.5q-3 -21 8 -30t41 -9q21 0 71 10l6 -64q-55 -20 -112 -20q-50 0 -76 25t-21 66q8 58 79 92l85 608h116z" />
    <glyph glyph-name="iogonek" unicode="&#x12f;" horiz-adv-x="246" 
d="M177 683q28 0 46 -19t13 -50q-4 -27 -25.5 -44t-47.5 -17q-30 0 -47 18t-13 49q4 30 25 46.5t49 16.5zM140 0h-13q-37 -6 -62 -24.5t-29 -43.5q-2 -21 8.5 -30t40.5 -9q21 0 71 10l7 -64q-57 -20 -113 -20q-50 0 -76 25t-20 66q8 57 73 90l67 476h113z" />
    <glyph glyph-name="Idotaccent" unicode="&#x130;" horiz-adv-x="266" 
d="M203 798q28 0 45 -18t13 -49q-4 -27 -25.5 -43.5t-46.5 -16.5q-29 0 -46 18t-13 48q4 28 24.5 44.5t48.5 16.5zM237 610l-86 -610h-116l86 610h116z" />
    <glyph glyph-name="dotlessi" unicode="&#x131;" horiz-adv-x="246" 
d="M207 476l-67 -476h-113l67 476h113z" />
    <glyph glyph-name="IJ" unicode="&#x132;" horiz-adv-x="736" 
d="M237 610l-86 -610h-116l86 610h116zM712 610l-55 -390q-32 -229 -224 -229q-89 0 -189 53l41 89q78 -33 134 -33q52 0 83.5 31t39.5 92l54 387h116z" />
    <glyph glyph-name="ij" unicode="&#x133;" horiz-adv-x="477" 
d="M111 617q4 27 24 42t47 15q29 0 46.5 -16.5t13.5 -46.5q-4 -27 -24.5 -42.5t-47.5 -15.5q-29 0 -46.5 17.5t-12.5 46.5zM408 674q29 0 46 -16.5t13 -46.5q-4 -27 -24.5 -42.5t-47.5 -15.5q-28 0 -45.5 17t-13.5 47q4 27 24.5 42t47.5 15zM439 476l-61 -439
q-13 -91 -52.5 -140t-125.5 -69l-14 84q39 18 55 44.5t24 83.5l61 436h113zM214 476l-67 -476h-113l66 476h114z" />
    <glyph glyph-name="Kcommaaccent" unicode="&#x136;" horiz-adv-x="633" 
d="M650 604l-257 -251l187 -346l-2 -7h-117l-152 271l-139 -136l-19 -135h-116l86 610h116l-44 -315l327 315h131zM210 -227l-18 28q41 32 55 60q-16 5 -24 20t-6 33q3 23 19 37t40 14t37.5 -18t9.5 -44q-10 -75 -113 -130z" />
    <glyph glyph-name="kcommaaccent" unicode="&#x137;" horiz-adv-x="535" 
d="M535 469l-213 -193l171 -270l-2 -6h-126l-128 198l-84 -76l-17 -122h-113l91 650h113l-52 -374l228 200h133zM166 -227l-19 28q40 32 56 60q-16 5 -24.5 20t-5.5 33q2 23 18 37t40 14q25 0 38 -18t10 -44q-11 -75 -113 -130z" />
    <glyph glyph-name="Lacute" unicode="&#x139;" horiz-adv-x="511" 
d="M342 773l-3 -23q-76 -54 -177 -104l-32 37l130 143zM457 108l-16 -108h-406l86 610h116l-71 -502h291z" />
    <glyph glyph-name="lacute" unicode="&#x13a;" horiz-adv-x="239" 
d="M268 888l77 -56l-2 -23q-81 -58 -178 -106l-33 37zM233 650l-91 -650h-113l91 650h113z" />
    <glyph glyph-name="Lcommaaccent" unicode="&#x13b;" horiz-adv-x="511" 
d="M457 108l-16 -108h-406l86 610h116l-71 -502h291zM159 -227l-18 28q41 32 55 60q-35 11 -30 53q2 23 18 37t41 14q24 0 37 -18t10 -44q-11 -75 -113 -130z" />
    <glyph glyph-name="lcommaaccent" unicode="&#x13c;" horiz-adv-x="239" 
d="M233 650l-91 -650h-113l91 650h113zM16 -227l-18 28q41 32 55 60q-35 11 -30 53q2 23 18 37t41 14q24 0 37 -18t10 -44q-11 -75 -113 -130z" />
    <glyph glyph-name="Lcaron" unicode="&#x13d;" horiz-adv-x="511" 
d="M457 108l-16 -108h-406l86 610h116l-71 -502h291zM403 610l-2 -14q-19 -87 -57 -161h-60l30 175h89z" />
    <glyph glyph-name="lcaron" unicode="&#x13e;" horiz-adv-x="286" 
d="M233 650l-91 -650h-113l91 650h113zM286 650h89l-2 -14q-19 -88 -57 -160h-60z" />
    <glyph glyph-name="Ldot" unicode="&#x13f;" horiz-adv-x="511" 
d="M457 108l-16 -108h-406l86 610h116l-71 -502h291zM354 254q-30 0 -47 20t-12 50q4 28 24.5 46t49.5 18q30 0 46 -19.5t12 -50.5q-4 -28 -24 -46t-49 -18z" />
    <glyph glyph-name="ldot" unicode="&#x140;" horiz-adv-x="379" 
d="M233 650l-91 -650h-113l91 650h113zM248 325q4 28 24.5 46t49.5 18q30 0 46 -19.5t12 -49.5q-4 -28 -24 -46t-49 -18q-30 0 -47 19.5t-12 49.5z" />
    <glyph glyph-name="Lslash" unicode="&#x141;" horiz-adv-x="511" 
d="M457 108l-16 -108h-406l36 252l-61 -18l13 91l61 18l37 267h116l-33 -233l148 43l-13 -91l-148 -42l-25 -179h291z" />
    <glyph glyph-name="lslash" unicode="&#x142;" horiz-adv-x="239" 
d="M239 331l-53 -20l-44 -311h-113l38 269l-53 -19l12 90l53 19l41 291h113l-34 -248l54 19z" />
    <glyph glyph-name="Nacute" unicode="&#x143;" horiz-adv-x="688" 
d="M463 826l82 -53l-3 -23q-76 -54 -177 -104l-32 37zM576 0h-105l-259 415q-1 -15 -5 -40l-53 -375h-115l86 610h105l258 -418l4 29l55 389h115z" />
    <glyph glyph-name="nacute" unicode="&#x144;" 
d="M463 657l-3 -24q-70 -51 -178 -106l-32 37l136 149zM206 476l-7 -54q49 34 86.5 48t82.5 14q75 0 112.5 -48.5t25.5 -138.5l-43 -297h-113l40 277q9 60 -5 84t-59 24q-55 0 -141 -63l-45 -322h-114l67 476h113z" />
    <glyph glyph-name="Ncommaaccent" unicode="&#x145;" horiz-adv-x="688" 
d="M662 610l-86 -610h-105l-259 415q-1 -15 -5 -40l-53 -375h-115l86 610h105l258 -418l4 29l55 389h115zM230 -227l-19 28q40 32 56 60q-16 5 -24.5 20t-5.5 33q2 23 18 37t40 14q25 0 38 -18t10 -44q-11 -75 -113 -130z" />
    <glyph glyph-name="ncommaaccent" unicode="&#x146;" 
d="M206 476l-7 -54q49 34 86.5 48t82.5 14q75 0 112.5 -48.5t25.5 -138.5l-43 -297h-113l40 277q9 60 -5 84t-59 24q-55 0 -141 -63l-45 -322h-114l67 476h113zM173 -227l-18 28q41 32 55 60q-35 11 -30 53q2 23 18 37t41 14q24 0 37 -18t10 -44q-11 -75 -113 -130z" />
    <glyph glyph-name="Ncaron" unicode="&#x147;" horiz-adv-x="688" 
d="M354 655l-108 125l41 38l111 -78l127 80l37 -40l-137 -125h-71zM662 610l-86 -610h-105l-259 415q-1 -15 -5 -40l-53 -375h-115l86 610h105l258 -418l4 29l55 389h115z" />
    <glyph glyph-name="ncaron" unicode="&#x148;" 
d="M288 533l-106 125l40 36l108 -76l127 80l36 -40l-135 -125h-70zM206 476l-7 -54q49 34 86.5 48t82.5 14q75 0 112.5 -48.5t25.5 -138.5l-43 -297h-113l40 277q9 60 -5 84t-59 24q-55 0 -141 -63l-45 -322h-114l67 476h113z" />
    <glyph glyph-name="Omacron" unicode="&#x14c;" horiz-adv-x="678" 
d="M540 777l-11 -86h-267l11 86h267zM391 620q141 0 208 -83.5t46 -235.5q-21 -148 -110 -229t-228 -81q-142 0 -209 82.5t-45 233.5q21 150 109.5 231.5t228.5 81.5zM319 97q87 0 141.5 53.5t67.5 156.5q13 102 -25.5 154.5t-124.5 52.5q-87 0 -141 -54.5t-67 -158.5
q-13 -100 25.5 -152t123.5 -52z" />
    <glyph glyph-name="omacron" unicode="&#x14d;" 
d="M472 655l-11 -87h-270l12 87h269zM312 485q112 0 168.5 -68.5t39.5 -184.5q-15 -111 -89 -176t-185 -65t-167.5 67t-40.5 180q16 114 90 180.5t184 66.5zM256 85q61 0 103 40.5t52 112.5q10 80 -16 116.5t-92 36.5q-61 0 -103 -42t-52 -117q-10 -77 16 -112t92 -35z" />
    <glyph glyph-name="Ohungarumlaut" unicode="&#x150;" horiz-adv-x="678" 
d="M547 828l69 -40l-3 -23l-148 -110l-35 26zM392 828l68 -40l-2 -23l-148 -110l-36 26zM391 620q141 0 208 -83.5t46 -235.5q-21 -148 -110 -229t-228 -81q-142 0 -209 82.5t-45 233.5q21 150 109.5 231.5t228.5 81.5zM319 97q87 0 141.5 53.5t67.5 156.5
q13 102 -25.5 154.5t-124.5 52.5q-87 0 -141 -54.5t-67 -158.5q-13 -100 25.5 -152t123.5 -52z" />
    <glyph glyph-name="ohungarumlaut" unicode="&#x151;" 
d="M479 712l66 -39l-4 -24q-64 -52 -148 -112l-32 25zM326 712l66 -39l-3 -24q-74 -60 -148 -112l-33 25zM312 485q112 0 168.5 -68.5t39.5 -184.5q-15 -111 -89 -176t-185 -65t-167.5 67t-40.5 180q16 114 90 180.5t184 66.5zM256 85q61 0 103 40.5t52 112.5
q10 80 -16 116.5t-92 36.5q-61 0 -103 -42t-52 -117q-10 -77 16 -112t92 -35z" />
    <glyph glyph-name="OE" unicode="&#x152;" horiz-adv-x="938" 
d="M566 503l-21 -147h267l-14 -104h-268l-21 -148h318l-15 -104h-433v1q-36 -10 -80 -10q-140 0 -207 82.5t-46 231.5q21 151 110 233t229 82q42 0 80 -11v1h424l-14 -107h-309zM395 112l55 389q-32 13 -78 13q-86 0 -140.5 -54.5t-68.5 -157.5q-14 -101 24 -153t124 -52
q47 0 84 15z" />
    <glyph glyph-name="oe" unicode="&#x153;" horiz-adv-x="907" 
d="M806 132l27 -68q-56 -40 -105 -56.5t-110 -16.5q-118 0 -172 80q-77 -80 -200 -80q-111 0 -167.5 67t-40.5 180q16 114 90 180.5t184 66.5q118 0 175 -77q71 77 192 77q101 0 149.5 -60.5t35.5 -172.5q-8 -38 -10 -46h-335q-4 -126 111 -126q89 0 176 52zM531 284h239
q8 116 -98 116q-108 0 -141 -116zM256 85q61 0 103 40.5t52 112.5q10 80 -16 116.5t-92 36.5q-61 0 -103 -42t-52 -117q-10 -77 16 -112t92 -35z" />
    <glyph glyph-name="Racute" unicode="&#x154;" horiz-adv-x="614" 
d="M494 773l-2 -23q-78 -54 -178 -104l-32 37l130 143zM121 610h240q121 0 178 -57t45 -158q-21 -159 -158 -201l123 -184l-3 -10h-128l-119 181h-122l-26 -181h-116zM191 284h145q58 0 92.5 29.5t39.5 82.5q10 110 -117 110h-129z" />
    <glyph glyph-name="racute" unicode="&#x155;" horiz-adv-x="392" 
d="M371 657l-3 -24q-70 -51 -178 -106l-32 37l136 149zM206 476l-10 -76q69 84 147 84q34 0 61 -3l-23 -113q-23 2 -55 2q-87 0 -148 -93l-38 -277h-114l67 476h113z" />
    <glyph glyph-name="Rcommaaccent" unicode="&#x156;" horiz-adv-x="614" 
d="M121 610h240q121 0 178 -57t45 -158q-21 -159 -158 -201l123 -184l-3 -10h-128l-119 181h-122l-26 -181h-116zM191 284h145q58 0 92.5 29.5t39.5 82.5q10 110 -117 110h-129zM196 -227l-18 28q41 32 55 60q-16 5 -24 20t-6 33q3 23 19 37t40 14t37.5 -18t9.5 -44
q-10 -75 -113 -130z" />
    <glyph glyph-name="rcommaaccent" unicode="&#x157;" horiz-adv-x="389" 
d="M203 476l-11 -76q71 84 148 84q34 0 61 -3l-23 -113q-23 2 -55 2q-86 0 -148 -93l-39 -277h-113l67 476h113zM8 -227l-18 28q41 32 55 60q-16 5 -24 20t-6 33q3 23 19 37t40 14t37.5 -18t9.5 -44q-10 -75 -113 -130z" />
    <glyph glyph-name="Rcaron" unicode="&#x158;" horiz-adv-x="614" 
d="M310 655l-108 125l41 38l111 -78l127 80l37 -40l-137 -125h-71zM121 610h240q121 0 178 -57t45 -158q-21 -159 -158 -201l123 -184l-3 -10h-128l-119 181h-122l-26 -181h-116zM191 284h145q58 0 92.5 29.5t39.5 82.5q10 110 -117 110h-129z" />
    <glyph glyph-name="rcaron" unicode="&#x159;" horiz-adv-x="389" 
d="M218 533l-106 125l39 36l108 -76l127 80l37 -40l-136 -125h-69zM203 476l-11 -76q71 84 148 84q34 0 61 -3l-23 -113q-23 2 -55 2q-86 0 -148 -93l-39 -277h-113l67 476h113z" />
    <glyph glyph-name="Sacute" unicode="&#x15a;" horiz-adv-x="591" 
d="M410 826l82 -53l-3 -23q-76 -54 -177 -104l-32 37zM570 572l-41 -91q-108 41 -209 41q-47 0 -76 -17t-33 -45q-4 -33 26 -52.5t132 -53.5q97 -33 135.5 -79.5t28.5 -116.5q-11 -75 -79.5 -121t-171.5 -46q-61 0 -137.5 24.5t-134.5 65.5l56 86q113 -72 226 -72
q50 0 82.5 18.5t36.5 50.5t-27 54t-124 52q-102 32 -142 76.5t-29 119.5q10 69 76.5 111.5t163.5 42.5q115 0 241 -48z" />
    <glyph glyph-name="sacute" unicode="&#x15b;" horiz-adv-x="479" 
d="M337 713l77 -56l-3 -23q-80 -58 -178 -106l-32 37zM440 442l-37 -79q-106 36 -161 36q-34 0 -55.5 -12t-23.5 -32q-3 -26 17.5 -39t86.5 -36l18 -6q76 -26 105.5 -59t21.5 -92q-8 -63 -59 -97.5t-143 -34.5q-120 0 -208 67l41 74q100 -56 173 -56q39 0 62 14t25 37
q2 22 -20 37.5t-80 33.5q-87 28 -118.5 61.5t-23.5 92.5q9 66 56 99.5t123 33.5q100 0 200 -43z" />
    <glyph glyph-name="Scedilla" unicode="&#x15e;" horiz-adv-x="591" 
d="M570 572l-41 -91q-108 41 -209 41q-47 0 -76 -17t-33 -45q-4 -33 26 -52.5t132 -53.5q97 -33 135.5 -79.5t28.5 -116.5q-11 -75 -79.5 -121t-171.5 -46q-19 0 -29 1l-4 -26q55 -2 74.5 -19.5t13.5 -62.5q-5 -39 -32.5 -61t-72.5 -22q-60 0 -106 16l15 55q37 -8 67 -8
q27 0 40 5.5t16 23.5t-7.5 22.5t-40.5 4.5h-43l24 81q-107 24 -187 80l56 86q113 -72 226 -72q50 0 82.5 18.5t36.5 50.5t-27 54t-124 52q-102 32 -142 76.5t-29 119.5q10 69 76.5 111.5t163.5 42.5q115 0 241 -48z" />
    <glyph glyph-name="scedilla" unicode="&#x15f;" horiz-adv-x="465" 
d="M440 442l-37 -79q-106 36 -161 36q-34 0 -55.5 -12t-23.5 -32q-3 -26 17.5 -39t86.5 -36l18 -6q76 -26 105.5 -59t21.5 -92q-8 -63 -59 -97.5t-143 -34.5h-17l-4 -25q54 -2 74 -19.5t14 -62.5q-5 -39 -32.5 -61t-72.5 -22q-60 0 -106 16l14 55q39 -8 68 -8q27 0 40 5.5
t16 23.5t-7.5 22.5t-40.5 4.5h-44l24 79q-77 16 -134 59l41 74q100 -56 173 -56q39 0 62 14t25 37q2 22 -20 37.5t-80 33.5q-87 28 -118.5 61.5t-23.5 92.5q9 66 56 99.5t123 33.5q100 0 200 -43z" />
    <glyph glyph-name="Scaron" unicode="&#x160;" horiz-adv-x="591" 
d="M307 655l-107 125l40 38l111 -78l128 80l36 -40l-137 -125h-71zM570 572l-41 -91q-108 41 -209 41q-47 0 -76 -17t-33 -45q-4 -33 26 -52.5t132 -53.5q97 -33 135.5 -79.5t28.5 -116.5q-11 -75 -79.5 -121t-171.5 -46q-61 0 -137.5 24.5t-134.5 65.5l56 86
q113 -72 226 -72q50 0 82.5 18.5t36.5 50.5t-27 54t-124 52q-102 32 -142 76.5t-29 119.5q10 69 76.5 111.5t163.5 42.5q115 0 241 -48z" />
    <glyph glyph-name="scaron" unicode="&#x161;" horiz-adv-x="465" 
d="M233 533l-106 125l39 37l108 -76l127 79l37 -40l-136 -125h-69zM440 442l-37 -79q-106 36 -161 36q-34 0 -55.5 -12t-23.5 -32q-3 -26 17.5 -39t86.5 -36l18 -6q76 -26 105.5 -59t21.5 -92q-8 -63 -59 -97.5t-143 -34.5q-120 0 -208 67l41 74q100 -56 173 -56q39 0 62 14
t25 37q2 22 -20 37.5t-80 33.5q-87 28 -118.5 61.5t-23.5 92.5q9 66 56 99.5t123 33.5q100 0 200 -43z" />
    <glyph glyph-name="Tcaron" unicode="&#x164;" horiz-adv-x="557" 
d="M294 655l-107 125l40 38l111 -78l128 80l36 -40l-137 -125h-71zM578 503h-205l-71 -503h-115l70 503h-204l15 107h525z" />
    <glyph glyph-name="tcaron" unicode="&#x165;" horiz-adv-x="375" 
d="M393 685l-2 -14q-20 -89 -58 -161h-59l30 175h89zM233 476h132l-13 -95h-132l-30 -216q-9 -72 60 -72q33 0 77 4l9 -78q-63 -24 -129 -24q-74 0 -108.5 44t-23.5 124l31 218h-70l13 95h70l16 114h113z" />
    <glyph glyph-name="Umacron" unicode="&#x16a;" horiz-adv-x="663" 
d="M532 777l-11 -86h-267l11 86h267zM651 610l-47 -329q-20 -143 -97.5 -216.5t-207.5 -73.5q-131 0 -189 75t-38 218l46 326h115l-46 -329q-24 -183 123 -183q70 0 118.5 50t60.5 136l46 326h116z" />
    <glyph glyph-name="umacron" unicode="&#x16b;" 
d="M460 568h-269l11 87h269zM528 476l-67 -476h-113l7 52q-48 -33 -84 -46.5t-79 -13.5q-76 0 -116.5 48.5t-27.5 137.5l42 298h113l-38 -272q-9 -59 7.5 -83.5t61.5 -24.5q60 0 135 53l46 327h113z" />
    <glyph glyph-name="Uring" unicode="&#x16e;" horiz-adv-x="663" 
d="M405 853q46 0 70 -28.5t18 -74.5q-5 -41 -36.5 -67t-75.5 -26q-46 0 -70.5 27t-18.5 71q7 45 38 71.5t75 26.5zM387 711q44 0 51 41q3 22 -7.5 35t-32.5 13q-20 0 -33.5 -12.5t-16.5 -32.5t7.5 -32t31.5 -12zM651 610l-47 -329q-20 -143 -97.5 -216.5t-207.5 -73.5
q-131 0 -189 75t-38 218l46 326h115l-46 -329q-24 -183 123 -183q70 0 118.5 50t60.5 136l46 326h116z" />
    <glyph glyph-name="uring" unicode="&#x16f;" 
d="M321 530q-46 0 -70.5 27.5t-18.5 71.5q7 45 38 71.5t75 26.5q46 0 70.5 -29t17.5 -75q-5 -41 -36.5 -67t-75.5 -26zM288 629q-6 -44 40 -44q20 0 34 11t16 29q6 48 -40 48q-20 0 -33.5 -12t-16.5 -32zM528 476l-67 -476h-113l7 52q-48 -33 -84 -46.5t-79 -13.5
q-76 0 -116.5 48.5t-27.5 137.5l42 298h113l-38 -272q-9 -59 7.5 -83.5t61.5 -24.5q60 0 135 53l46 327h113z" />
    <glyph glyph-name="Uhungarumlaut" unicode="&#x170;" horiz-adv-x="663" 
d="M539 828l69 -40l-3 -23l-148 -110l-35 26zM385 828l68 -40l-3 -23l-148 -110l-35 26zM651 610l-47 -329q-20 -143 -97.5 -216.5t-207.5 -73.5q-131 0 -189 75t-38 218l46 326h115l-46 -329q-24 -183 123 -183q70 0 118.5 50t60.5 136l46 326h116z" />
    <glyph glyph-name="uhungarumlaut" unicode="&#x171;" 
d="M391 672l-3 -24q-64 -52 -148 -112l-33 26l119 150zM544 672l-3 -24q-74 -60 -148 -112l-33 26l118 150zM415 476h113l-67 -476h-113l7 52q-48 -33 -84 -46.5t-79 -13.5q-76 0 -116.5 48.5t-27.5 137.5l42 298h113l-38 -272q-9 -59 7.5 -83.5t61.5 -24.5q60 0 135 53z
" />
    <glyph glyph-name="Uogonek" unicode="&#x172;" horiz-adv-x="663" 
d="M651 610l-47 -329q-19 -137 -91.5 -210t-192.5 -79q-53 -22 -59 -60q-2 -21 8.5 -30t40.5 -9q21 0 71 10l7 -64q-57 -20 -113 -20q-50 0 -76 25t-20 66q6 51 64 85q-101 15 -145 89t-26 200l46 326h115l-46 -329q-24 -183 123 -183q70 0 118.5 50t60.5 136l46 326h116z
" />
    <glyph glyph-name="uogonek" unicode="&#x173;" 
d="M461 0h-40q-37 -6 -62 -24.5t-29 -43.5q-2 -21 9 -30t40 -9q22 0 72 10l6 -64q-55 -20 -113 -20q-50 0 -76 25t-20 66q4 32 31.5 59.5t70.5 42.5l5 40q-48 -33 -84 -46.5t-79 -13.5q-76 0 -116.5 48.5t-27.5 137.5l42 298h113l-38 -272q-9 -59 7.5 -83.5t61.5 -24.5
q60 0 135 53l46 327h113z" />
    <glyph glyph-name="Wcircumflex" unicode="&#x174;" horiz-adv-x="905" 
d="M378 647l-34 38l144 125h71l107 -125l-40 -38l-112 79zM938 610l-255 -610h-158l-46 360q-2 22 -4 80q-19 -60 -27 -82l-148 -358h-157l-84 610h128l51 -418q1 -12 4 -80q6 26 26 83l167 415h126l50 -418l5 -79q11 47 24 82l168 415h130z" />
    <glyph glyph-name="wcircumflex" unicode="&#x175;" horiz-adv-x="744" 
d="M531 531l-109 77l-132 -76l-34 37l139 124h69l106 -125zM766 476l-210 -476h-133l-42 302l-127 -302h-134l-76 476h107l50 -300q5 -40 6 -62q8 28 23 64l127 298h94l42 -300q3 -22 7 -62q11 34 22 64l134 298h110z" />
    <glyph glyph-name="Ycircumflex" unicode="&#x176;" horiz-adv-x="599" 
d="M225 647l-34 38l144 125h71l108 -125l-41 -38l-111 79zM352 197l-28 -197h-115l28 197l-172 413h122l102 -243q12 -28 20 -59q19 37 36 62l171 240h123z" />
    <glyph glyph-name="ycircumflex" unicode="&#x177;" horiz-adv-x="525" 
d="M430 531l-109 77l-132 -76l-34 37l139 124h69l106 -125zM431 476h122l-53 -103.5l-57 -110.5l-51.5 -93.5t-56.5 -93.5q-115 -170 -282 -229l-28 92q84 38 135 89l-122 449h118l71 -271q9 -33 16 -72q69 105 188 343z" />
    <glyph glyph-name="Ydieresis" unicode="&#x178;" horiz-adv-x="599" 
d="M259 680q-24 0 -39.5 15.5t-12.5 41.5q4 24 22.5 38t40.5 14q26 0 41 -15.5t11 -42.5q-4 -24 -21.5 -37.5t-41.5 -13.5zM454 680q-26 0 -40.5 15.5t-10.5 41.5q4 25 21 38.5t41 13.5t39.5 -15.5t11.5 -42.5q-4 -24 -22 -37.5t-40 -13.5zM352 197l-28 -197h-115l28 197
l-172 413h122l102 -243q12 -28 20 -59q19 37 36 62l171 240h123z" />
    <glyph glyph-name="Zacute" unicode="&#x179;" horiz-adv-x="594" 
d="M416 826l82 -53l-3 -23q-76 -54 -177 -104l-32 37zM585 518l-395 -415q74 4 104 4h238l-15 -107h-507l11 87l408 420q-74 -4 -108 -4h-221l15 107h483z" />
    <glyph glyph-name="zacute" unicode="&#x17a;" horiz-adv-x="508" 
d="M359 713l77 -56l-2 -24q-74 -53 -178 -106l-33 37zM437 0h-433l10 73l318 311q-39 -3 -89 -3h-177l12 95h417l-10 -71l-317 -315q12 0 49.5 1.5t51.5 1.5h182z" />
    <glyph glyph-name="Zdotaccent" unicode="&#x17b;" horiz-adv-x="594" 
d="M366 798q28 0 45.5 -18t12.5 -49q-4 -27 -25 -43.5t-47 -16.5q-29 0 -45.5 18t-12.5 48q4 28 24.5 44.5t47.5 16.5zM585 518l-395 -415q74 4 104 4h238l-15 -107h-507l11 87l408 420q-74 -4 -108 -4h-221l15 107h483z" />
    <glyph glyph-name="zdotaccent" unicode="&#x17c;" horiz-adv-x="508" 
d="M315 683q28 0 45.5 -18.5t13.5 -50.5q-4 -28 -25.5 -44.5t-48.5 -16.5q-29 0 -46 18t-13 49q4 30 24.5 46.5t49.5 16.5zM437 0h-433l10 73l318 311q-39 -3 -89 -3h-177l12 95h417l-10 -71l-317 -315q12 0 49.5 1.5t51.5 1.5h182z" />
    <glyph glyph-name="Zcaron" unicode="&#x17d;" horiz-adv-x="594" 
d="M313 655l-107 125l40 38l111 -78l128 80l36 -40l-137 -125h-71zM585 518l-395 -415q74 4 104 4h238l-15 -107h-507l11 87l408 420q-74 -4 -108 -4h-221l15 107h483z" />
    <glyph glyph-name="zcaron" unicode="&#x17e;" horiz-adv-x="508" 
d="M262 533l-106 125l40 36l108 -76l126 80l37 -40l-135 -125h-70zM485 405l-317 -315q12 0 49.5 1.5t51.5 1.5h182l-14 -93h-433l10 73l318 311q-39 -3 -89 -3h-177l12 95h417z" />
    <glyph glyph-name="florin" unicode="&#x192;" horiz-adv-x="560" 
d="M575 500l-41 -69q-66 33 -133 33q-122 0 -180 -176l-8 -25h214l-25 -74h-214l-63 -189h-111l62 189h-60l26 74h58l10 28q45 136 114.5 199.5t169.5 63.5q103 0 181 -54z" />
    <glyph glyph-name="Acaron" unicode="&#x1cd;" horiz-adv-x="672" 
d="M352 655l-107 125l40 38l111 -78l128 80l36 -40l-137 -125h-71zM469 128h-298l-68 -128h-125l331 610h156l159 -610h-123zM442 234l-55 222q-5 22 -13 67h-1q-12 -36 -29 -70l-117 -219h215z" />
    <glyph glyph-name="Scommaaccent" unicode="&#x218;" horiz-adv-x="591" 
d="M570 572l-41 -91q-108 41 -209 41q-47 0 -76 -17t-33 -45q-4 -33 26 -52.5t132 -53.5q97 -33 135.5 -79.5t28.5 -116.5q-11 -75 -79.5 -121t-171.5 -46q-61 0 -137.5 24.5t-134.5 65.5l56 86q113 -72 226 -72q50 0 82.5 18.5t36.5 50.5t-27 54t-124 52q-102 32 -142 76.5
t-29 119.5q10 69 76.5 111.5t163.5 42.5q115 0 241 -48zM176 -227l-18 28q41 32 55 60q-16 5 -24 20t-6 33q3 23 19 37t40 14t37.5 -18t9.5 -44q-10 -75 -113 -130z" />
    <glyph glyph-name="scommaaccent" unicode="&#x219;" horiz-adv-x="465" 
d="M440 442l-37 -79q-106 36 -161 36q-34 0 -55.5 -12t-23.5 -32q-3 -26 17.5 -39t86.5 -36l18 -6q76 -26 105.5 -59t21.5 -92q-8 -63 -59 -97.5t-143 -34.5q-120 0 -208 67l41 74q100 -56 173 -56q39 0 62 14t25 37q2 22 -20 37.5t-80 33.5q-87 28 -118.5 61.5t-23.5 92.5
q9 66 56 99.5t123 33.5q100 0 200 -43zM116 -227l-18 28q41 32 55 60q-35 11 -30 53q2 23 18 37t41 14q24 0 37 -18t10 -44q-11 -75 -113 -130z" />
    <glyph glyph-name="uni021A" unicode="&#x21a;" horiz-adv-x="557" 
d="M578 503h-205l-71 -503h-115l70 503h-204l15 107h525zM168 -227l-18 28q41 32 55 60q-16 5 -24 20t-6 33q3 23 19 37t40 14t37.5 -18t9.5 -44q-10 -75 -113 -130z" />
    <glyph glyph-name="uni021B" unicode="&#x21b;" horiz-adv-x="372" 
d="M220 381l-30 -216q-9 -72 60 -72q33 0 77 4l9 -78q-63 -24 -129 -24q-74 0 -108.5 44t-23.5 124l31 218h-70l13 95h70l16 114h113l-15 -114h132l-13 -95h-132zM85 -222l-18 28q41 32 55 60q-35 11 -30 53q2 23 18 37t41 14q24 0 37 -18t10 -44q-11 -75 -113 -130z" />
    <glyph glyph-name="circumflex" unicode="&#x2c6;" horiz-adv-x="490" 
d="M404 531l-109 77l-132 -76l-34 37l139 124h69l106 -125z" />
    <glyph glyph-name="caron" unicode="&#x2c7;" horiz-adv-x="490" 
d="M451 658l-135 -125h-70l-106 125l40 36l108 -76l126 80z" />
    <glyph glyph-name="breve" unicode="&#x2d8;" horiz-adv-x="490" 
d="M371 673h73q-19 -128 -154 -128q-66 0 -98 35.5t-23 92.5h71q-6 -58 53 -58q37 0 53.5 15t24.5 43z" />
    <glyph glyph-name="dotaccent" unicode="&#x2d9;" horiz-adv-x="490" 
d="M299 683q28 0 45.5 -18.5t13.5 -50.5q-4 -28 -25.5 -44.5t-48.5 -16.5q-29 0 -46 18t-13 49q4 30 24.5 46.5t49.5 16.5z" />
    <glyph glyph-name="ring" unicode="&#x2da;" horiz-adv-x="490" 
d="M305 727q46 0 70 -28.5t18 -75.5q-5 -41 -36.5 -67t-75.5 -26q-46 0 -70.5 27.5t-18.5 71.5q7 45 38 71.5t75 26.5zM287 585q44 0 51 40q3 23 -7.5 35.5t-32.5 12.5q-20 0 -33.5 -12t-16.5 -32q-6 -44 39 -44z" />
    <glyph glyph-name="ogonek" unicode="&#x2db;" horiz-adv-x="490" 
d="M271 -97l7 -64q-57 -20 -113 -20q-50 0 -76 25t-20 66q5 40 45 72t99 40l29 -22q-37 -6 -62 -24.5t-29 -43.5q-2 -21 8.5 -30t40.5 -9q21 0 71 10z" />
    <glyph glyph-name="tilde" unicode="&#x2dc;" horiz-adv-x="490" 
d="M423 682l53 -7q-14 -53 -45.5 -81.5t-65 -28.5t-64.5 13l-55 29q-26 13 -43.5 5t-36.5 -39l-50 7q14 52 44 79.5t62.5 27t64.5 -14.5l54 -28q27 -12 45 -3t37 41z" />
    <glyph glyph-name="hungarumlaut" unicode="&#x2dd;" horiz-adv-x="490" 
d="M428 712l66 -40l-3 -24q-74 -60 -148 -112l-33 26zM276 712l65 -40l-3 -24q-64 -52 -148 -112l-33 26z" />
    <glyph glyph-name="commaturnedabovecomb" unicode="&#x312;" horiz-adv-x="0" 
d="M336 725l14 -33q-36 -24 -54 -53q37 -12 32 -53q-4 -22 -20.5 -36.5t-39.5 -14.5q-24 0 -37.5 18t-9.5 44q10 76 115 128z" />
    <glyph glyph-name="commaaccentcomb" unicode="&#x326;" horiz-adv-x="0" 
d="M131 -227l-19 28q40 32 56 60q-16 5 -24.5 20t-5.5 33q2 23 18 37t40 14q25 0 38 -18t10 -44q-11 -75 -113 -130z" />
    <glyph glyph-name="Wgrave" unicode="&#x1e80;" horiz-adv-x="905" 
d="M587 682l-34 -35q-93 47 -169 103l-2 22l88 54zM683 0h-158l-46 360q-2 22 -4 80q-19 -60 -27 -82l-148 -358h-157l-84 610h128l51 -418q1 -12 4 -80q6 26 26 83l167 415h126l50 -418l5 -79q11 47 24 82l168 415h130z" />
    <glyph glyph-name="wgrave" unicode="&#x1e81;" horiz-adv-x="744" 
d="M507 564l-33 -35q-95 49 -169 106l-2 22l83 56zM556 0h-133l-42 302l-127 -302h-134l-76 476h107l50 -300q5 -40 6 -62q8 28 23 64l127 298h94l42 -300q3 -22 7 -62q11 34 22 64l134 298h110z" />
    <glyph glyph-name="Wacute" unicode="&#x1e82;" horiz-adv-x="905" 
d="M571 826l82 -53l-2 -23q-78 -54 -178 -104l-32 37zM683 0h-158l-46 360q-2 22 -4 80q-19 -60 -27 -82l-148 -358h-157l-84 610h128l51 -418q1 -12 4 -80q6 26 26 83l167 415h126l50 -418l5 -79q11 47 24 82l168 415h130z" />
    <glyph glyph-name="wacute" unicode="&#x1e83;" horiz-adv-x="744" 
d="M470 713l77 -56l-2 -24q-74 -53 -178 -106l-33 37zM556 0h-133l-42 302l-127 -302h-134l-76 476h107l50 -300q5 -40 6 -62q8 28 23 64l127 298h94l42 -300q3 -22 7 -62q11 34 22 64l134 298h110z" />
    <glyph glyph-name="Wdieresis" unicode="&#x1e84;" horiz-adv-x="905" 
d="M423 789q26 0 41 -15.5t11 -42.5q-4 -24 -21.5 -37.5t-42.5 -13.5q-23 0 -39 15.5t-12 41.5q4 24 22 38t41 14zM618 789q24 0 39.5 -15.5t11.5 -42.5q-4 -24 -22 -37.5t-41 -13.5q-26 0 -40 15.5t-10 41.5q3 25 20.5 38.5t41.5 13.5zM683 0h-158l-46 360q-2 22 -4 80
q-19 -60 -27 -82l-148 -358h-157l-84 610h128l51 -418q1 -12 4 -80q6 26 26 83l167 415h126l50 -418l5 -79q11 47 24 82l168 415h130z" />
    <glyph glyph-name="wdieresis" unicode="&#x1e85;" horiz-adv-x="744" 
d="M327 672q26 0 41 -16t12 -43q-4 -25 -22 -39t-43 -14t-41 15.5t-12 42.5q4 25 23 39.5t42 14.5zM522 672q24 0 40 -16t12 -43q-4 -25 -22.5 -39t-41.5 -14q-26 0 -41 15.5t-11 42.5q4 25 21.5 39.5t42.5 14.5zM556 0h-133l-42 302l-127 -302h-134l-76 476h107l50 -300
q5 -40 6 -62q8 28 23 64l127 298h94l42 -300q3 -22 7 -62q11 34 22 64l134 298h110z" />
    <glyph glyph-name="Ygrave" unicode="&#x1ef2;" horiz-adv-x="599" 
d="M428 682l-34 -35q-90 45 -169 103l-2 22l87 54zM352 197l-28 -197h-115l28 197l-172 413h122l102 -243q12 -28 20 -59q19 37 36 62l171 240h123z" />
    <glyph glyph-name="ygrave" unicode="&#x1ef3;" horiz-adv-x="525" 
d="M406 564l-33 -35q-95 49 -169 106l-2 22l83 56zM431 476h122l-53 -103.5l-57 -110.5l-51.5 -93.5t-56.5 -93.5q-115 -170 -282 -229l-28 92q84 38 135 89l-122 449h118l71 -271q9 -33 16 -72q69 105 188 343z" />
    <glyph glyph-name="uni2009" unicode="&#x2009;" horiz-adv-x="90" 
 />
    <glyph glyph-name="endash" unicode="&#x2013;" horiz-adv-x="499" 
d="M72 317h377l-12 -86h-377z" />
    <glyph glyph-name="emdash" unicode="&#x2014;" horiz-adv-x="909" 
d="M72 317h787l-12 -86h-787z" />
    <glyph glyph-name="quoteleft" unicode="&#x2018;" horiz-adv-x="264" 
d="M245 665l25 -35q-57 -42 -78 -96q20 -6 31 -24t7 -41q-4 -28 -24 -46t-49 -18q-30 0 -46 21.5t-12 54.5q7 48 47 98.5t99 85.5z" />
    <glyph glyph-name="quoteright" unicode="&#x2019;" horiz-adv-x="265" 
d="M108 404l-26 35q56 41 79 96q-21 6 -31.5 24t-7.5 41q4 28 24 46t49 18q30 0 46.5 -21.5t11.5 -54.5q-7 -48 -46.5 -98.5t-98.5 -85.5z" />
    <glyph glyph-name="quotesinglbase" unicode="&#x201a;" horiz-adv-x="265" 
d="M34 -116l-25 35q57 42 78 96q-20 6 -31 24t-7 41q4 28 24 46t49 18q30 0 46 -21.5t12 -54.5q-7 -48 -47 -98.5t-99 -85.5z" />
    <glyph glyph-name="quotedblleft" unicode="&#x201c;" horiz-adv-x="444" 
d="M244 665l26 -35q-56 -41 -79 -96q21 -6 31.5 -24t7.5 -41q-4 -28 -24 -46t-49 -18q-30 0 -46.5 21.5t-11.5 54.5q7 48 46.5 98.5t98.5 85.5zM424 665l26 -35q-56 -41 -79 -96q21 -6 31.5 -24t7.5 -41q-4 -28 -24 -46t-49 -18q-30 0 -46.5 21.5t-11.5 54.5q7 48 46.5 98.5
t98.5 85.5z" />
    <glyph glyph-name="quotedblright" unicode="&#x201d;" horiz-adv-x="445" 
d="M108 404l-26 35q56 41 79 96q-21 6 -31.5 24t-7.5 41q4 28 24 46t49 18q30 0 46.5 -21.5t11.5 -54.5q-7 -48 -46.5 -98.5t-98.5 -85.5zM288 404l-26 35q56 41 79 96q-21 6 -31.5 24t-7.5 41q4 28 24 46t49 18q30 0 46.5 -21.5t11.5 -54.5q-7 -48 -46.5 -98.5t-98.5 -85.5
z" />
    <glyph glyph-name="quotedblbase" unicode="&#x201e;" horiz-adv-x="445" 
d="M28 -116l-26 35q56 41 79 96q-21 6 -31.5 24t-7.5 41q4 28 24 46t49 18q30 0 46.5 -21.5t11.5 -54.5q-7 -48 -46.5 -98.5t-98.5 -85.5zM208 -116l-26 35q56 41 79 96q-21 6 -31.5 24t-7.5 41q4 28 24 46t49 18q30 0 46.5 -21.5t11.5 -54.5q-7 -48 -46.5 -98.5
t-98.5 -85.5z" />
    <glyph glyph-name="dagger" unicode="&#x2020;" horiz-adv-x="513" 
d="M485 358l-173 -8l-72 -440h-60l53 440l-171 8l8 61l175 9l33 182h61l-17 -182l172 -9z" />
    <glyph glyph-name="daggerdbl" unicode="&#x2021;" horiz-adv-x="513" 
d="M313 350l-25 -176l170 -8l-9 -61l-174 -8l-34 -183h-60l17 183l-172 8l9 61l172 8l25 176l-170 8l8 61l175 9l33 182h61l-17 -182l172 -9l-9 -61z" />
    <glyph glyph-name="bullet" unicode="&#x2022;" horiz-adv-x="328" 
d="M78 278q6 39 34 64t68 25q41 0 63 -26.5t17 -67.5q-5 -39 -33 -64t-68 -25q-41 0 -63.5 27t-17.5 67z" />
    <glyph glyph-name="ellipsis" unicode="&#x2026;" horiz-adv-x="754" 
d="M121 129q30 0 46 -19.5t12 -50.5q-4 -28 -24 -46t-49 -18q-30 0 -47 20t-12 50q4 28 24.5 46t49.5 18zM369 129q30 0 46.5 -20t12.5 -50q-4 -27 -24.5 -45.5t-49.5 -18.5q-30 0 -46.5 20t-11.5 50q4 28 24 46t49 18zM617 129q30 0 46 -19.5t12 -50.5q-4 -28 -24 -46
t-49 -18q-30 0 -47 20t-12 50q4 28 24.5 46t49.5 18z" />
    <glyph glyph-name="perthousand" unicode="&#x2030;" horiz-adv-x="1238" 
d="M240 620q160 0 133 -188q-24 -180 -181 -180q-159 0 -133 186q26 182 181 182zM608 610h68l-438 -610h-67zM199 320q84 0 100 118q15 114 -65 114q-85 0 -100 -120q-15 -112 65 -112zM673 359q159 0 133 -188q-26 -180 -181 -180q-160 0 -133 186q26 182 181 182z
M1051 359q160 0 134 -188q-25 -180 -181 -180q-160 0 -134 186q26 182 181 182zM632 59q83 0 99 118q15 114 -65 114q-83 0 -100 -120q-14 -112 66 -112zM1011 59q83 0 99 118q8 58 -7.5 86t-57.5 28q-83 0 -100 -120q-14 -112 66 -112z" />
    <glyph glyph-name="guilsinglleft" unicode="&#x2039;" horiz-adv-x="368" 
d="M331 400l-131 -119q-13 -12 -43 -34q16 -13 33 -32l98 -118l-66 -56l-183 208l239 209z" />
    <glyph glyph-name="guilsinglright" unicode="&#x203a;" horiz-adv-x="368" 
d="M318 249l-240 -208l-49 54l129 120q21 18 47 36q-24 22 -34 34l-100 117l64 56z" />
    <glyph glyph-name="fraction" unicode="&#x2044;" horiz-adv-x="213" 
d="M294 610h68l-438 -610h-67z" />
    <glyph glyph-name="Euro" unicode="&#x20ac;" horiz-adv-x="578" 
d="M388 186h-185q11 -105 115 -105q89 0 168 55l31 -70q-51 -40 -102.5 -57.5t-120.5 -17.5q-83 0 -139.5 48t-62.5 147h-70l7 54h63q2 22 4 32l3 19h-62l8 54h67q32 101 102.5 153.5t156.5 52.5q106 0 186 -55l-41 -71q-64 36 -138 36q-47 0 -88 -27.5t-65 -88.5h227
l-22 -54h-220l-4 -25q-3 -13 -3 -26h206z" />
    <glyph glyph-name="uni2116" unicode="&#x2116;" horiz-adv-x="1147" 
d="M576 0h-105l-259 415q-1 -15 -5 -40l-53 -375h-115l86 610h105l258 -418l4 29l55 389h115zM923 550q88 0 132.5 -54.5t30.5 -146.5q-12 -89 -66 -138.5t-148 -49.5q-88 0 -132 52.5t-31 141.5q13 93 66.5 144t147.5 51zM880 244q95 0 111 111q15 110 -77 110
q-95 0 -111 -114q-14 -107 77 -107zM1029 85l-11 -85h-340l13 85h338z" />
    <glyph glyph-name="trademark" unicode="&#x2122;" horiz-adv-x="773" 
d="M372 549h-110l-32 -227h-69l32 227h-111l9 61h290zM685 507l-107 -185h-53l-55 186l-32 -186h-67l53 288h72l62 -192q1 -5 2 -13l2 -8q2 3 5 10.5t5 10.5l116 192h73l-28 -288h-68z" />
    <glyph glyph-name="oneeighth" unicode="&#x215b;" horiz-adv-x="921" 
d="M52 231l10 64h96l33 234q-29 -8 -99 -23l-11 45q64 22 135 59h61l-44 -315h89l-9 -64h-261zM704 610l-438 -610h-67l437 610h68zM850 281q-9 -57 -83 -83q85 -31 75 -100q-7 -50 -53 -79t-118 -28q-83 0 -121.5 30t-30.5 83q8 60 93 91q-58 30 -50 88q7 47 49 72.5
t111 25.5q67 0 100.5 -26.5t27.5 -73.5zM781 285q2 21 -15.5 33.5t-49.5 12.5q-34 0 -56.5 -14t-26.5 -39q-3 -22 13.5 -36t56.5 -25q73 21 78 68zM764 107q3 24 -19 39t-74 27q-72 -23 -79 -70q-4 -25 17 -39.5t60 -14.5t65 16t30 42z" />
    <glyph glyph-name="threeeighths" unicode="&#x215c;" horiz-adv-x="913" 
d="M108 534l-12 51q85 36 155 36q60 0 91.5 -29.5t24.5 -78.5q-8 -59 -77 -83q34 -11 50.5 -34.5t12.5 -54.5q-7 -53 -47.5 -81t-106.5 -28q-89 0 -156 40l27 50q59 -31 130 -31q75 0 83 57q4 26 -16.5 39.5t-65.5 13.5h-60l9 60h58q82 0 89 48q4 26 -11.5 39t-47.5 13
q-54 0 -130 -27zM707 610l-437 -610h-67l436 610h68zM847 281q-9 -57 -83 -83q85 -31 75 -100q-7 -50 -53 -79t-118 -28q-83 0 -121.5 30t-30.5 83q8 60 93 91q-58 30 -50 88q7 47 49 72.5t111 25.5q67 0 100.5 -26.5t27.5 -73.5zM778 285q2 21 -15.5 33.5t-49.5 12.5
q-34 0 -56.5 -14t-26.5 -39q-3 -22 13.5 -36t56.5 -25q73 21 78 68zM761 107q3 24 -19 39t-74 27q-72 -23 -79 -70q-4 -25 17 -39.5t60 -14.5t65 16t30 42z" />
    <glyph glyph-name="fiveeighths" unicode="&#x215d;" horiz-adv-x="931" 
d="M184 547l-24 -104q51 27 99 27q59 0 86.5 -31.5t19.5 -89.5q-8 -59 -51.5 -91t-107.5 -32q-89 0 -157 40l28 54q64 -32 124 -32q38 0 63.5 19t29.5 51q5 29 -11 45.5t-49 16.5q-36 0 -83 -26l-63 9l43 207h256l-9 -63h-194zM719 610l-438 -610h-67l437 610h68zM863 281
q-9 -57 -83 -83q85 -31 75 -100q-7 -50 -53 -79t-118 -28q-83 0 -121.5 30t-30.5 83q8 60 93 91q-58 30 -50 88q7 47 49 72.5t111 25.5q67 0 100.5 -26.5t27.5 -73.5zM794 285q2 21 -15.5 33.5t-49.5 12.5q-34 0 -56.5 -14t-26.5 -39q-3 -22 13.5 -36t56.5 -25q73 21 78 68z
M777 107q3 24 -19 39t-74 27q-72 -23 -79 -70q-4 -25 17 -39.5t60 -14.5t65 16t30 42z" />
    <glyph glyph-name="seveneighths" unicode="&#x215e;" horiz-adv-x="857" 
d="M378 610l-8 -61q-128 -142 -199 -318h-87q83 187 203 313h-202l10 66h283zM558 610h68l-437 -610h-67zM657 381q67 0 100.5 -26.5t27.5 -73.5q-7 -56 -82 -83q84 -32 74 -100q-7 -50 -53 -79t-117 -28q-83 0 -121.5 30t-31.5 83q10 61 94 91q-59 30 -51 88q7 47 49 72.5
t111 25.5zM651 331q-34 0 -56.5 -14.5t-25.5 -38.5q-4 -22 13 -36t57 -25q72 21 77 68q2 21 -15 33.5t-50 12.5zM606 173q-72 -23 -79 -70q-4 -25 17.5 -39.5t59.5 -14.5q39 0 65 16t30 42q3 24 -19 39t-74 27z" />
    <glyph glyph-name="arrowleft" unicode="&#x2190;" horiz-adv-x="657" 
d="M635 255h-438l179 -184l-67 -67l-284 298l284 299l67 -67l-179 -184h438v-95z" />
    <glyph glyph-name="arrowup" unicode="&#x2191;" horiz-adv-x="649" 
d="M542 287l-170 160v-447h-95v448l-170 -161l-67 67l285 264l284 -264z" />
    <glyph glyph-name="arrowright" unicode="&#x2192;" horiz-adv-x="657" 
d="M632 302l-284 -298l-67 67l179 184h-438v95h438l-178 184l67 67z" />
    <glyph glyph-name="arrowdown" unicode="&#x2193;" horiz-adv-x="649" 
d="M609 256l-284 -263l-285 263l67 67l170 -161v448h95v-447l170 160z" />
    <glyph glyph-name="arrowupleft" unicode="&#x2196;" horiz-adv-x="686" 
d="M594 -1l-452 452l3 -277h-95v436h436v-95l-277 3l452 -452z" />
    <glyph glyph-name="arrowupright" unicode="&#x2197;" horiz-adv-x="686" 
d="M636 610v-436h-95l3 277l-452 -452l-67 67l452 452l-277 -2v94h436z" />
    <glyph glyph-name="arrowdownright" unicode="&#x2198;" horiz-adv-x="686" 
d="M636 436v-436h-436v95l277 -3l-452 452l67 67l452 -452l-3 277h95z" />
    <glyph glyph-name="arrowdownleft" unicode="&#x2199;" horiz-adv-x="686" 
d="M209 92l277 3v-95h-436v436h95l-3 -277l452 452l67 -67z" />
    <glyph glyph-name="minus" unicode="&#x2212;" horiz-adv-x="479" 
d="M426 198h-399l12 82h399z" />
    <glyph glyph-name="J.ss01" horiz-adv-x="284" 
d="M261 610l-72 -514q-15 -102 -56.5 -153.5t-134.5 -85.5l-34 86q52 24 75.5 52.5t30.5 81.5l75 533h116z" />
    <glyph glyph-name="K.ss02" horiz-adv-x="617" 
d="M640 602l-249 -292l173 -299l-2 -11h-132l-141 249h-103l-35 -249h-116l86 610h116l-35 -247h98l215 247h127z" />
    <glyph glyph-name="Kcommaaccent.ss02" horiz-adv-x="617" 
d="M640 602l-249 -292l173 -299l-2 -11h-132l-141 249h-103l-35 -249h-116l86 610h116l-35 -247h98l215 247h127zM197 -227l-18 28q41 32 55 60q-35 11 -30 53q2 23 18 37t41 14q24 0 37 -18t10 -44q-11 -75 -113 -130z" />
    <glyph glyph-name="Q.ss03" horiz-adv-x="668" 
d="M564 -62l-88 -64q-66 81 -94 126q-39 -9 -85 -9q-141 0 -206.5 82.5t-44.5 233.5q21 150 108.5 231.5t227.5 81.5q141 0 206.5 -83t44.5 -236q-25 -185 -154 -264q37 -46 85 -99zM516 307q13 102 -24.5 154.5t-122.5 52.5q-87 0 -140 -54.5t-66 -158.5
q-13 -101 24.5 -152.5t122.5 -51.5q87 0 140 53.5t66 156.5z" />
    <glyph glyph-name="R.ss04" horiz-adv-x="638" 
d="M121 610h233q126 0 183.5 -57t45.5 -158q-9 -80 -44 -119t-98 -50q27 -13 46.5 -37.5t31 -59t17 -58t11.5 -59.5q1 -8 2 -12h-131q-7 38 -14 63.5t-20 57t-33.5 47.5t-47.5 16h-126l-26 -184h-116zM191 286h134q129 0 143 110q5 52 -25.5 81t-99.5 29h-121z" />
    <glyph glyph-name="Racute.ss04" horiz-adv-x="638" 
d="M500 773l-2 -23q-78 -54 -178 -104l-32 37l130 143zM121 610h233q126 0 183.5 -57t45.5 -158q-9 -80 -44 -119t-98 -50q27 -13 46.5 -37.5t31 -59t17 -58t11.5 -59.5q1 -8 2 -12h-131q-7 38 -14 63.5t-20 57t-33.5 47.5t-47.5 16h-126l-26 -184h-116zM191 286h134
q129 0 143 110q5 52 -25.5 81t-99.5 29h-121z" />
    <glyph glyph-name="Rcaron.ss04" horiz-adv-x="638" 
d="M316 655l-108 125l41 38l111 -78l127 80l37 -40l-137 -125h-71zM121 610h233q126 0 183.5 -57t45.5 -158q-9 -80 -44 -119t-98 -50q27 -13 46.5 -37.5t31 -59t17 -58t11.5 -59.5q1 -8 2 -12h-131q-7 38 -14 63.5t-20 57t-33.5 47.5t-47.5 16h-126l-26 -184h-116zM191 286
h134q129 0 143 110q5 52 -25.5 81t-99.5 29h-121z" />
    <glyph glyph-name="Rcommaaccent.ss04" horiz-adv-x="638" 
d="M121 610h233q126 0 183.5 -57t45.5 -158q-9 -80 -44 -119t-98 -50q27 -13 46.5 -37.5t31 -59t17 -58t11.5 -59.5q1 -8 2 -12h-131q-7 38 -14 63.5t-20 57t-33.5 47.5t-47.5 16h-126l-26 -184h-116zM191 286h134q129 0 143 110q5 52 -25.5 81t-99.5 29h-121zM192 -227
l-18 28q41 32 55 60q-16 5 -24 20t-6 33q3 23 19 37t40 14t37.5 -18t9.5 -44q-10 -75 -113 -130z" />
    <glyph glyph-name="k.ss02" horiz-adv-x="525" 
d="M535 469l-193 -218l137 -242l-2 -9h-124l-107 199h-82l-28 -199h-113l91 650h113l-49 -349h83l152 175h124z" />
    <glyph glyph-name="kcommaaccent.ss02" horiz-adv-x="525" 
d="M535 469l-193 -218l137 -242l-2 -9h-124l-107 199h-82l-28 -199h-113l91 650h113l-49 -349h83l152 175h124zM153 -227l-19 28q40 32 56 60q-16 5 -24.5 20t-5.5 33q2 23 18 37t40 14q25 0 38 -18t10 -44q-11 -75 -113 -130z" />
    <glyph glyph-name="a.ss05" horiz-adv-x="516" 
d="M110 372l-15 80q147 33 209 33q192 0 160 -220l-38 -265h-112l6 40q-100 -49 -160 -49q-82 0 -117 35t-24 114q21 148 219 148l117 -1q5 55 -11 82t-62 27q-44 0 -172 -24zM345 216h-101q-58 0 -86 -14.5t-34 -54.5q-5 -36 14 -52.5t63 -16.5q45 0 131 44z" />
    <glyph glyph-name="aacute.ss05" horiz-adv-x="516" 
d="M452 657l-2 -23q-81 -58 -178 -106l-33 37l136 148zM110 372l-15 80q147 33 209 33q192 0 160 -220l-38 -265h-112l6 40q-100 -49 -160 -49q-82 0 -117 35t-24 114q21 148 219 148l117 -1q5 55 -11 82t-62 27q-44 0 -172 -24zM345 216h-101q-58 0 -86 -14.5t-34 -54.5
q-5 -36 14 -52.5t63 -16.5q45 0 131 44z" />
    <glyph glyph-name="abreve.ss05" horiz-adv-x="516" 
d="M403 673h73q-18 -127 -154 -127q-65 0 -97.5 35.5t-23.5 91.5h71q-3 -28 9 -42.5t44 -14.5q37 0 53.5 14.5t24.5 42.5zM110 372l-15 80q147 33 209 33q192 0 160 -220l-38 -265h-112l6 40q-100 -49 -160 -49q-82 0 -117 35t-24 114q21 148 219 148l117 -1q5 55 -11 82
t-62 27q-44 0 -172 -24zM345 216h-101q-58 0 -86 -14.5t-34 -54.5q-5 -36 14 -52.5t63 -16.5q45 0 131 44z" />
    <glyph glyph-name="acircumflex.ss05" horiz-adv-x="516" 
d="M436 532l-109 76l-132 -76l-34 37l139 125h69l106 -126zM110 372l-15 80q147 33 209 33q192 0 160 -220l-38 -265h-112l6 40q-100 -49 -160 -49q-82 0 -117 35t-24 114q21 148 219 148l117 -1q5 55 -11 82t-62 27q-44 0 -172 -24zM345 216h-101q-58 0 -86 -14.5
t-34 -54.5q-5 -36 14 -52.5t63 -16.5q45 0 131 44z" />
    <glyph glyph-name="adieresis.ss05" horiz-adv-x="516" 
d="M220 561q-25 0 -41 15.5t-12 42.5q4 25 23 39t42 14q26 0 41 -15.5t12 -43.5q-4 -25 -22 -38.5t-43 -13.5zM427 672q25 0 40.5 -16t11.5 -43q-4 -24 -22.5 -38t-41.5 -14q-26 0 -41 15.5t-11 42.5q4 25 21.5 39t42.5 14zM110 372l-15 80q147 33 209 33q192 0 160 -220
l-38 -265h-112l6 40q-100 -49 -160 -49q-82 0 -117 35t-24 114q21 148 219 148l117 -1q5 55 -11 82t-62 27q-44 0 -172 -24zM345 216h-101q-58 0 -86 -14.5t-34 -54.5q-5 -36 14 -52.5t63 -16.5q45 0 131 44z" />
    <glyph glyph-name="agrave.ss05" horiz-adv-x="516" 
d="M412 565l-33 -36q-91 47 -169 107l-2 21l83 56zM110 372l-15 80q147 33 209 33q192 0 160 -220l-38 -265h-112l6 40q-100 -49 -160 -49q-82 0 -117 35t-24 114q21 148 219 148l117 -1q5 55 -11 82t-62 27q-44 0 -172 -24zM345 216h-101q-58 0 -86 -14.5t-34 -54.5
q-5 -36 14 -52.5t63 -16.5q45 0 131 44z" />
    <glyph glyph-name="amacron.ss05" horiz-adv-x="516" 
d="M452 568h-270l12 87h269zM110 372l-15 80q147 33 209 33q192 0 160 -220l-38 -265h-112l6 40q-100 -49 -160 -49q-82 0 -117 35t-24 114q21 148 219 148l117 -1q5 55 -11 82t-62 27q-44 0 -172 -24zM345 216h-101q-58 0 -86 -14.5t-34 -54.5q-5 -36 14 -52.5t63 -16.5
q45 0 131 44z" />
    <glyph glyph-name="aogonek.ss05" horiz-adv-x="516" 
d="M426 0h-3q-37 -6 -62 -24.5t-29 -43.5q-2 -21 8.5 -30t40.5 -9q21 0 71 10l7 -64q-57 -20 -113 -20q-50 0 -76 25t-20 66q8 57 74 90h-10l6 40q-100 -49 -160 -49q-82 0 -117 35t-24 114q21 148 219 148l117 -1q5 55 -11 82t-62 27q-44 0 -172 -24l-15 80q147 33 209 33
q192 0 160 -220zM345 216h-101q-58 0 -86 -14.5t-34 -54.5q-5 -36 14 -52.5t63 -16.5q45 0 131 44z" />
    <glyph glyph-name="aring.ss05" horiz-adv-x="516" 
d="M313 531q-46 0 -70.5 27.5t-18.5 71.5q7 44 38 70.5t75 26.5q46 0 70 -28t18 -75q-5 -41 -36.5 -67t-75.5 -26zM280 629q-3 -20 7.5 -32t31.5 -12q44 0 51 41q3 22 -7.5 35t-32.5 13q-20 0 -33.5 -12.5t-16.5 -32.5zM110 372l-15 80q147 33 209 33q192 0 160 -220
l-38 -265h-112l6 40q-100 -49 -160 -49q-82 0 -117 35t-24 114q21 148 219 148l117 -1q5 55 -11 82t-62 27q-44 0 -172 -24zM345 216h-101q-58 0 -86 -14.5t-34 -54.5q-5 -36 14 -52.5t63 -16.5q45 0 131 44z" />
    <glyph glyph-name="atilde.ss05" horiz-adv-x="516" 
d="M333 579l-55 29q-26 13 -43.5 5t-36.5 -39l-50 7q14 52 44 79t62.5 26.5t64.5 -13.5l54 -28q27 -12 45 -3.5t37 41.5l53 -8q-14 -52 -45.5 -80.5t-65 -28.5t-64.5 13zM110 372l-15 80q147 33 209 33q192 0 160 -220l-38 -265h-112l6 40q-100 -49 -160 -49q-82 0 -117 35
t-24 114q21 148 219 148l117 -1q5 55 -11 82t-62 27q-44 0 -172 -24zM345 216h-101q-58 0 -86 -14.5t-34 -54.5q-5 -36 14 -52.5t63 -16.5q45 0 131 44z" />
    <glyph glyph-name="g.ss06" horiz-adv-x="569" 
d="M172 83h167q90 0 126 -31t26 -99q-13 -92 -79.5 -132t-199.5 -40q-138 0 -192.5 28.5t-44.5 98.5q10 74 82 101q-28 27 -20 82q5 32 21 52t55 33q-50 43 -37 134q13 90 70.5 132.5t163.5 42.5q76 0 123 -24q47 28 92 28q33 0 60 -7l-15 -70q-19 1 -46 1q-18 0 -37 -4
q21 -41 12 -105q-12 -88 -69 -128.5t-164 -40.5q-68 0 -112 16q-26 -14 -29 -32q-3 -21 6.5 -28.5t40.5 -7.5zM393 310q7 51 -14.5 74.5t-74.5 23.5q-58 0 -85.5 -24t-35.5 -80q-7 -45 15 -66.5t75 -21.5q58 0 85.5 22t34.5 72zM327 -18h-164q-21 0 -30 1q-50 -8 -59 -60
q-4 -35 28 -47.5t120 -12.5q80 0 119.5 17t45.5 57q4 24 -10.5 34.5t-49.5 10.5z" />
    <glyph glyph-name="gbreve.ss06" horiz-adv-x="569" 
d="M418 673h74q-20 -128 -155 -128q-65 0 -97 35.5t-23 92.5h70q-2 -29 9.5 -43.5t43.5 -14.5q37 0 54 15t24 43zM172 83h167q90 0 126 -31t26 -99q-13 -92 -79.5 -132t-199.5 -40q-138 0 -192.5 28.5t-44.5 98.5q10 74 82 101q-28 27 -20 82q5 32 21 52t55 33
q-50 43 -37 134q13 90 70.5 132.5t163.5 42.5q76 0 123 -24q47 28 92 28q33 0 60 -7l-15 -70q-19 1 -46 1q-18 0 -37 -4q21 -41 12 -105q-12 -88 -69 -128.5t-164 -40.5q-68 0 -112 16q-26 -14 -29 -32q-3 -21 6.5 -28.5t40.5 -7.5zM393 310q7 51 -14.5 74.5t-74.5 23.5
q-58 0 -85.5 -24t-35.5 -80q-7 -45 15 -66.5t75 -21.5q58 0 85.5 22t34.5 72zM327 -18h-164q-21 0 -30 1q-50 -8 -59 -60q-4 -35 28 -47.5t120 -12.5q80 0 119.5 17t45.5 57q4 24 -10.5 34.5t-49.5 10.5z" />
    <glyph glyph-name="gcommaaccent.ss06" horiz-adv-x="569" 
d="M385 745l14 -33q-36 -24 -54 -53q37 -12 32 -53q-4 -22 -20.5 -36.5t-39.5 -14.5q-24 0 -37.5 18t-9.5 44q10 76 115 128zM172 83h167q90 0 126 -31t26 -99q-13 -92 -79.5 -132t-199.5 -40q-138 0 -192.5 28.5t-44.5 98.5q10 74 82 101q-28 27 -20 82q5 32 21 52t55 33
q-50 43 -37 134q13 90 70.5 132.5t163.5 42.5q76 0 123 -24q47 28 92 28q33 0 60 -7l-15 -70q-19 1 -46 1q-18 0 -37 -4q21 -41 12 -105q-12 -88 -69 -128.5t-164 -40.5q-68 0 -112 16q-26 -14 -29 -32q-3 -21 6.5 -28.5t40.5 -7.5zM393 310q7 51 -14.5 74.5t-74.5 23.5
q-58 0 -85.5 -24t-35.5 -80q-7 -45 15 -66.5t75 -21.5q58 0 85.5 22t34.5 72zM327 -18h-164q-21 0 -30 1q-50 -8 -59 -60q-4 -35 28 -47.5t120 -12.5q80 0 119.5 17t45.5 57q4 24 -10.5 34.5t-49.5 10.5z" />
    <glyph glyph-name="gdotaccent.ss06" horiz-adv-x="569" 
d="M332 553q-30 0 -47 18t-13 49q4 30 25 46.5t49 16.5t46 -19t13 -50q-4 -27 -25.5 -44t-47.5 -17zM172 83h167q90 0 126 -31t26 -99q-13 -92 -79.5 -132t-199.5 -40q-138 0 -192.5 28.5t-44.5 98.5q10 74 82 101q-28 27 -20 82q5 32 21 52t55 33q-50 43 -37 134
q13 90 70.5 132.5t163.5 42.5q76 0 123 -24q47 28 92 28q33 0 60 -7l-15 -70q-19 1 -46 1q-18 0 -37 -4q21 -41 12 -105q-12 -88 -69 -128.5t-164 -40.5q-68 0 -112 16q-26 -14 -29 -32q-3 -21 6.5 -28.5t40.5 -7.5zM393 310q7 51 -14.5 74.5t-74.5 23.5q-58 0 -85.5 -24
t-35.5 -80q-7 -45 15 -66.5t75 -21.5q58 0 85.5 22t34.5 72zM327 -18h-164q-21 0 -30 1q-50 -8 -59 -60q-4 -35 28 -47.5t120 -12.5q80 0 119.5 17t45.5 57q4 24 -10.5 34.5t-49.5 10.5z" />
    <glyph glyph-name="y.ss07" horiz-adv-x="577" 
d="M553 476l-56 -401q-17 -124 -80 -182t-177 -58q-121 0 -205 48l35 81q80 -35 164 -35q130 0 150 142q-46 -31 -87.5 -43.5t-98.5 -12.5q-81 0 -121 52.5t-26 149.5l39 259h113l-37 -247q-10 -64 7.5 -89.5t65.5 -25.5q81 0 158 55l43 307h113z" />
    <glyph glyph-name="yacute.ss07" horiz-adv-x="577" 
d="M469 657l-2 -24q-74 -53 -178 -106l-33 37l136 149zM553 476l-56 -401q-17 -124 -80 -182t-177 -58q-121 0 -205 48l35 81q80 -35 164 -35q130 0 150 142q-46 -31 -87.5 -43.5t-98.5 -12.5q-81 0 -121 52.5t-26 149.5l39 259h113l-37 -247q-10 -64 7.5 -89.5t65.5 -25.5
q81 0 158 55l43 307h113z" />
    <glyph glyph-name="ycircumflex.ss07" horiz-adv-x="577" 
d="M453 531l-109 77l-132 -76l-34 37l139 124h69l106 -125zM553 476l-56 -401q-17 -124 -80 -182t-177 -58q-121 0 -205 48l35 81q80 -35 164 -35q130 0 150 142q-46 -31 -87.5 -43.5t-98.5 -12.5q-81 0 -121 52.5t-26 149.5l39 259h113l-37 -247q-10 -64 7.5 -89.5
t65.5 -25.5q81 0 158 55l43 307h113z" />
    <glyph glyph-name="ydieresis.ss07" horiz-adv-x="577" 
d="M237 560q-25 0 -41 15.5t-12 42.5q4 25 23 39.5t42 14.5q26 0 41 -16t12 -43q-4 -25 -22 -39t-43 -14zM432 560q-26 0 -41 15.5t-11 42.5q4 25 21.5 39.5t42.5 14.5q24 0 40 -16t12 -43q-4 -25 -22.5 -39t-41.5 -14zM553 476l-56 -401q-17 -124 -80 -182t-177 -58
q-121 0 -205 48l35 81q80 -35 164 -35q130 0 150 142q-46 -31 -87.5 -43.5t-98.5 -12.5q-81 0 -121 52.5t-26 149.5l39 259h113l-37 -247q-10 -64 7.5 -89.5t65.5 -25.5q81 0 158 55l43 307h113z" />
    <glyph glyph-name="ygrave.ss07" horiz-adv-x="577" 
d="M429 564l-33 -35q-95 49 -169 106l-2 22l83 56zM553 476l-56 -401q-17 -124 -80 -182t-177 -58q-121 0 -205 48l35 81q80 -35 164 -35q130 0 150 142q-46 -31 -87.5 -43.5t-98.5 -12.5q-81 0 -121 52.5t-26 149.5l39 259h113l-37 -247q-10 -64 7.5 -89.5t65.5 -25.5
q81 0 158 55l43 307h113z" />
    <glyph glyph-name="uni00660062" horiz-adv-x="916" 
d="M579 670l-34 -247q91 61 174 61q187 0 153 -246q-18 -125 -82 -186t-147 -61q-36 0 -64 9t-44 19.5t-43 33.5l-7 -53h-113l81 579q-74 8 -129 8q-43 0 -62.5 -20t-25.5 -63l-4 -28h135l-13 -95h-135l-54 -381h-113l54 381h-68l13 95h68l5 31q12 88 56 128.5t132 40.5
q39 0 152 -23l2 17h113zM531 325l-26 -185q62 -55 112 -55q54 0 93.5 38.5t50.5 119.5q20 147 -89 147q-57 0 -141 -65z" />
    <glyph glyph-name="uni006600660062" horiz-adv-x="1228" 
d="M892 670l-35 -247q93 61 175 61q187 0 153 -246q-18 -125 -82 -186t-147 -61q-51 0 -81.5 14.5t-69.5 48.5l-7 -54h-114l82 579q-73 8 -129 8q-43 0 -62.5 -20.5t-25.5 -62.5l-4 -28h135l-13 -95h-135l-53 -381h-114l54 381h-203l-53 -381h-114l54 381h-65l13 95h66l4 31
q12 88 57.5 128.5t133.5 40.5q51 0 96 -10l-18 -82q-32 3 -66 3q-44 0 -64 -20.5t-26 -62.5l-4 -28h202l4 31q12 87 56.5 127t132.5 41q46 0 151 -22l3 17h113zM843 325l-25 -180q58 -60 112 -60t93.5 38.5t50.5 119.5q20 147 -89 147q-57 0 -142 -65z" />
    <glyph glyph-name="uni006600660066" horiz-adv-x="985" 
d="M1036 666l-17 -82q-33 3 -67 3q-43 0 -63.5 -20.5t-26.5 -62.5l-4 -28h138l-13 -95h-138l-54 -381h-113l54 381h-201l-54 -381h-113l54 381h-202l-53 -381h-114l54 381h-65l13 95h66l4 31q12 88 57.5 128.5t133.5 40.5q51 0 96 -10l-18 -82q-32 3 -66 3q-44 0 -64 -20.5
t-26 -62.5l-4 -28h201l4 31q12 88 57.5 128.5t133.5 40.5q51 0 96 -10l-17 -82q-33 3 -67 3q-43 0 -63.5 -20.5t-26.5 -62.5l-4 -28h201l5 31q12 88 57.5 128.5t133.5 40.5q52 0 95 -10z" />
    <glyph glyph-name="uni006600660068" horiz-adv-x="1234" 
d="M909 670l-36 -254q107 68 186 68t107 -44.5t14 -141.5l-42 -298h-113l38 271q8 59 -5 83t-59 24q-59 0 -141 -66l-44 -312h-113l81 579q-73 8 -129 8q-44 0 -63 -20.5t-25 -62.5l-4 -28h135l-13 -95h-135l-53 -381h-114l54 381h-219l-53 -381h-114l54 381h-65l13 95h66
l4 31q12 88 57.5 128.5t133.5 40.5q51 0 96 -10l-18 -82q-32 3 -66 3q-44 0 -64 -20.5t-26 -62.5l-4 -28h218l4 31q13 88 57.5 128.5t131.5 40.5q40 0 152 -23l2 17h114z" />
    <glyph glyph-name="uni00660066006A" horiz-adv-x="913" 
d="M872 476l-61 -439q-13 -91 -52.5 -140t-124.5 -69l-14 84q39 18 54 44.5t24 83.5l47 341h-204l-53 -381h-113l53 381h-212l-53 -381h-114l54 381h-65l13 95h66l4 31q12 88 57.5 128.5t133.5 40.5q51 0 96 -10l-18 -82q-32 3 -66 3q-44 0 -64 -20.5t-26 -62.5l-4 -28h211
l5 31q12 88 56.5 128.5t132.5 40.5q33 0 101 -12l-18 -81q-52 4 -72 4q-43 0 -62.5 -20t-25.5 -63l-4 -28h318zM844 674q29 0 46 -16.5t13 -46.5q-4 -27 -24.5 -42.5t-47.5 -15.5q-28 0 -45.5 17t-13.5 47q4 27 24.5 42t47.5 15z" />
    <glyph glyph-name="uni00660066006B" horiz-adv-x="1219" 
d="M1215 475l-215 -198q102 -134 174 -277h-127q-64 121 -131 200l-88 -80l-17 -120h-113l82 579q-65 8 -131 8q-43 0 -62 -20.5t-25 -62.5l-4 -28h134l-12 -95h-135l-54 -381h-113l53 381h-215l-53 -381h-114l54 381h-65l13 95h66l4 31q12 88 57.5 128.5t133.5 40.5
q51 0 96 -10l-18 -82q-32 3 -66 3q-44 0 -64 -20.5t-26 -62.5l-4 -28h215l4 31q13 88 57.5 128.5t131.5 40.5q49 0 152 -22l2 16h114l-57 -401l229 206h137z" />
    <glyph glyph-name="uni006600660074" horiz-adv-x="982" 
d="M829 381l-30 -216q-9 -72 61 -72q33 0 76 4l10 -78q-63 -24 -129 -24q-75 0 -109.5 44t-22.5 124l30 218h-188l-54 -381h-113l54 381h-198l-53 -381h-114l54 381h-65l13 95h66l4 31q12 88 57.5 128.5t133.5 40.5q51 0 96 -10l-18 -82q-32 3 -66 3q-44 0 -64 -20.5
t-26 -62.5l-4 -28h197l4 31q12 88 57.5 128.5t133.5 40.5q51 0 96 -10l-17 -82q-33 3 -67 3q-43 0 -63.5 -20.5t-26.5 -62.5l-4 -28h189l16 114h113l-16 -114h132l-12 -95h-133z" />
    <glyph glyph-name="uni00660068" horiz-adv-x="905" 
d="M579 670l-35 -254q107 68 186 68t107 -44.5t14 -141.5l-42 -298h-113l38 271q8 59 -5 83t-59 24q-58 0 -141 -67l-44 -311h-113l81 579q-74 8 -129 8q-43 0 -62.5 -20t-25.5 -63l-4 -28h135l-13 -95h-135l-54 -381h-113l54 381h-68l13 95h68l5 31q12 88 56 128.5
t132 40.5q39 0 152 -23l2 17h113z" />
    <glyph glyph-name="uni0066006A" horiz-adv-x="590" 
d="M550 476l-61 -439q-13 -91 -52.5 -140t-125.5 -69l-14 84q39 18 54.5 44.5t24.5 83.5l47 341h-204l-54 -381h-113l54 381h-68l13 95h68l5 31q12 88 56 128.5t132 40.5q31 0 109 -13l-19 -80q-55 4 -78 4q-43 0 -62.5 -20t-25.5 -63l-4 -28h318zM522 674q29 0 46 -16.5
t13 -46.5q-4 -27 -24.5 -42.5t-47.5 -15.5q-28 0 -45.5 17t-13.5 47q4 27 24.5 42t47.5 15z" />
    <glyph glyph-name="uni0066006B" horiz-adv-x="889" 
d="M889 475l-216 -197q101 -130 175 -278h-127q-64 121 -132 201l-87 -79l-17 -122h-113l81 579q-74 8 -129 8q-43 0 -62.5 -20t-25.5 -63l-4 -28h135l-13 -95h-135l-54 -381h-113l54 381h-68l13 95h68l5 31q12 88 56 128.5t132 40.5q39 0 152 -23l2 17h113l-56 -399
l229 204h137z" />
    <glyph glyph-name="uni00660074" horiz-adv-x="663" 
d="M511 381l-30 -216q-9 -72 60 -72q33 0 77 4l9 -78q-63 -24 -129 -24q-74 0 -108.5 44t-23.5 124l31 218h-181l-53 -381h-114l54 381h-65l13 95h66l4 31q12 88 57.5 128.5t133.5 40.5q51 0 96 -10l-18 -82q-32 3 -66 3q-44 0 -64 -20.5t-26 -62.5l-4 -28h180l16 114h113
l-15 -114h132l-13 -95h-132z" />
    <glyph glyph-name="uni00720066" horiz-adv-x="733" 
d="M790 662l-20 -78q-45 3 -78 3q-43 0 -62.5 -20.5t-25.5 -62.5l-4 -28h136l-13 -95h-136l-53 -381h-114l54 381h-57l12 95h58l4 31q13 88 57.5 128.5t132.5 40.5q58 0 109 -14zM203 476l-11 -76q71 84 148 84q34 0 61 -3l-23 -113q-23 2 -55 2q-86 0 -148 -93l-39 -277
h-113l67 476h113z" />
    <glyph glyph-name="uni00720074" horiz-adv-x="734" 
d="M581 381l-30 -216q-9 -72 61 -72q33 0 76 4l10 -78q-63 -24 -129 -24q-75 0 -109.5 44t-23.5 124l31 218h-54l12 95h55l16 114h114l-16 -114h132l-13 -95h-132zM203 476l-11 -76q71 84 148 84q34 0 61 -3l-23 -113q-23 2 -55 2q-86 0 -148 -93l-39 -277h-113l67 476h113z
" />
    <glyph glyph-name="zero.osf" horiz-adv-x="598" 
d="M338 530q126 0 182 -75t38 -199q-17 -120 -92 -192.5t-199 -72.5q-126 0 -182 74.5t-39 196.5t92.5 195t199.5 73zM277 95q71 0 113 46t52 121q10 74 -17 119t-97 45q-71 0 -113 -47t-53 -123q-10 -72 17.5 -116.5t97.5 -44.5z" />
    <glyph glyph-name="one.osf" horiz-adv-x="494" 
d="M420 0h-400l14 97h156l42 295q-89 -27 -162 -41l-14 73q110 38 214 97l94 -1l-59 -423h129z" />
    <glyph glyph-name="two.osf" horiz-adv-x="526" 
d="M457 0h-461l11 83q10 5 30 14l87 41l76 38t72 41t52.5 38.5t41 42.5t16.5 42q6 43 -17.5 68t-67.5 25q-95 0 -223 -53l-23 82q155 68 262 68q95 0 145 -51t37 -134q-5 -37 -26 -70t-48 -56.5t-70.5 -47.5t-81 -40t-92.5 -37q38 3 80 3h214z" />
    <glyph glyph-name="three.osf" horiz-adv-x="536" 
d="M81 394l-16 78q138 58 250 58q92 0 143.5 -48t40.5 -125q-6 -49 -39.5 -84t-81.5 -50q55 -16 81 -53t19 -90q-11 -83 -78.5 -130t-171.5 -47q-142 0 -250 63l42 78q105 -52 211 -52q56 0 93.5 26t44.5 70q6 45 -28.5 67.5t-106.5 22.5h-88l13 91h86q135 0 147 78
q6 43 -21 67.5t-79 24.5q-89 0 -211 -45z" />
    <glyph glyph-name="four.osf" horiz-adv-x="606" 
d="M451 0l-16 -110h-113l15 110h-345l7 79l409 431h115l-59 -420h97l-13 -90h-97zM350 90l41 290q-21 -25 -55 -61l-153 -165q-58 -55 -69 -64h236z" />
    <glyph glyph-name="five.osf" horiz-adv-x="551" 
d="M202 414l-38 -173q70 37 158 37q91 0 137 -50.5t34 -137.5q-13 -93 -85.5 -146t-173.5 -53q-144 0 -251 63l43 83q104 -52 203 -52q60 0 104 32.5t52 83.5q6 46 -22.5 73.5t-82.5 27.5q-62 0 -133 -41l-94 16l69 333h406l-13 -96h-313z" />
    <glyph glyph-name="six.osf" horiz-adv-x="574" 
d="M560 584l-37 -81q-74 23 -137 23q-85 -1 -144.5 -56.5t-80.5 -153.5q79 76 196 76q91 0 139.5 -53t36.5 -139q-14 -98 -84.5 -153.5t-177.5 -55.5q-130 0 -188.5 76.5t-39.5 213.5q22 156 118 247.5t230 91.5q90 0 169 -36zM280 83q56 0 96.5 34t49.5 94q7 48 -23 73.5
t-88 25.5q-93 0 -163 -91q-2 -64 31 -100t97 -36z" />
    <glyph glyph-name="seven.osf" horiz-adv-x="476" 
d="M505 510l-11 -88q-92 -104 -179 -245t-143 -277h-135q66 142 152 280t177 235h-330l14 95h455z" />
    <glyph glyph-name="eight.osf" horiz-adv-x="581" 
d="M345 620q108 0 162.5 -43.5t43.5 -118.5q-14 -92 -137 -132q72 -24 102.5 -63t21.5 -98q-11 -83 -85 -128.5t-192 -45.5q-135 0 -195 46.5t-48 133.5q14 102 153 150q-99 45 -85 138q10 76 79 118.5t180 42.5zM334 545q-56 0 -94 -25.5t-43 -65.5q-5 -37 22 -59t98 -39
q120 29 128 106q5 38 -25 60.5t-86 22.5zM261 287q-120 -35 -132 -114q-6 -45 29 -69.5t102 -24.5q66 0 108.5 26t49.5 71q5 41 -29 65t-128 46z" />
    <glyph glyph-name="nine.osf" horiz-adv-x="574" 
d="M25 -62l38 80q70 -23 137 -23q85 0 144.5 55t80.5 152q-78 -75 -198 -75q-91 0 -139 54t-36 140q13 98 84 153.5t179 55.5q122 0 182 -79.5t42 -211.5q-22 -159 -114.5 -248.5t-227.5 -89.5q-93 0 -172 37zM269 210q40 0 87 22.5t79 67.5q2 65 -32 101t-98 36
q-57 0 -97.5 -33.5t-49.5 -93.5q-7 -48 23 -74t88 -26z" />
    <glyph glyph-name="zero.tf" horiz-adv-x="560" 
d="M332 620q129 0 185 -82.5t34 -236.5q-21 -150 -98.5 -230t-204.5 -80q-129 0 -185 82t-35 234t98.5 232.5t205.5 80.5zM258 95q147 0 176 212q31 209 -113 209q-147 0 -176 -215q-29 -206 113 -206z" />
    <glyph glyph-name="one.tf" horiz-adv-x="560" 
d="M475 97l-14 -97h-402l14 97h149l54 382q-78 -25 -161 -40l-15 75q110 34 216 96h93l-72 -513h138z" />
    <glyph glyph-name="two.tf" horiz-adv-x="560" 
d="M106 470l-23 83q156 67 262 67q94 0 143.5 -55t36.5 -145q-3 -25 -15 -50t-27 -46t-42 -45.5t-50 -43t-61.5 -44.5l-65 -43l-72.5 -46l-16 -10q60 5 101 5h213l-14 -97h-461l11 83l111.5 79t108 78l80 64t65 66t24.5 56q6 45 -18.5 71t-69.5 26q-91 0 -221 -53z" />
    <glyph glyph-name="three.tf" horiz-adv-x="560" 
d="M111 482l-17 78q134 58 253 58q93 0 144 -47.5t41 -125.5q-6 -46 -37 -80.5t-75 -51.5q107 -34 90 -145q-11 -82 -78.5 -129.5t-171.5 -47.5q-141 0 -252 63l42 78q99 -49 214 -49q57 0 94 24.5t43 68.5q13 90 -137 90h-88l13 91h86q141 0 152 82q5 40 -21 64.5t-75 24.5
q-96 0 -220 -46z" />
    <glyph glyph-name="four.tf" horiz-adv-x="560" 
d="M448 128l-18 -128h-114l18 128h-335l6 79l396 403h115l-56 -392h88l-13 -90h-87zM384 483l-43 -49l-163 -164q-39 -39 -53 -52h222z" />
    <glyph glyph-name="five.tf" horiz-adv-x="560" 
d="M231 513l-38 -172q74 38 151 38q91 0 137 -51t34 -138q-12 -92 -85 -145.5t-173 -53.5q-141 0 -252 63l43 83q99 -49 203 -49q61 0 105 31t51 82q6 46 -22.5 74t-82.5 28q-60 0 -133 -42l-93 15l69 334h405l-13 -97h-306z" />
    <glyph glyph-name="six.tf" horiz-adv-x="560" 
d="M550 584l-37 -81q-74 23 -137 23q-85 -1 -144.5 -56.5t-80.5 -153.5q79 76 196 76q91 0 139.5 -53t36.5 -139q-14 -98 -84.5 -153.5t-177.5 -55.5q-130 0 -188.5 76.5t-39.5 213.5q22 156 118 247.5t230 91.5q90 0 169 -36zM270 83q56 0 96.5 34t49.5 94q7 48 -23 73.5
t-88 25.5q-93 0 -163 -91q-2 -64 31 -100t97 -36z" />
    <glyph glyph-name="seven.tf" horiz-adv-x="560" 
d="M561 610l-12 -92q-94 -104 -179.5 -243t-141.5 -275h-135q64 139 150.5 276t177.5 235h-330l14 99h456z" />
    <glyph glyph-name="eight.tf" horiz-adv-x="560" 
d="M337 620q108 0 162 -43.5t43 -118.5q-12 -92 -137 -132q72 -24 103 -63t22 -98q-11 -82 -85.5 -128t-191.5 -46q-135 0 -195 46.5t-49 133.5q16 102 154 150q-99 45 -85 138q10 76 79 118.5t180 42.5zM326 545q-56 0 -94 -25t-43 -66q-5 -37 22 -59t97 -39
q121 29 129 106q5 38 -25.5 60.5t-85.5 22.5zM252 287q-121 -36 -131 -114q-7 -45 28.5 -69.5t102.5 -24.5q65 0 107.5 26t49.5 71q5 41 -29 65t-128 46z" />
    <glyph glyph-name="nine.tf" horiz-adv-x="560" 
d="M29 28l38 80q74 -23 137 -23q86 1 145.5 56t79.5 152q-77 -75 -197 -75q-91 0 -139.5 53.5t-36.5 139.5q14 98 84.5 153.5t178.5 55.5q122 0 182.5 -79.5t42.5 -210.5q-23 -159 -115.5 -249t-227.5 -90q-92 0 -172 37zM273 301q40 0 87 22t79 67q2 65 -31.5 101.5
t-97.5 36.5q-57 0 -97.5 -34t-49.5 -94q-7 -48 22.5 -73.5t87.5 -25.5z" />
    <glyph glyph-name="zero.zero" horiz-adv-x="618" 
d="M360 620q132 0 188.5 -82.5t35.5 -236.5q-22 -151 -100 -230.5t-209 -79.5q-132 0 -188.5 81.5t-35.5 234.5q21 152 99 232.5t210 80.5zM164 213l278 267q-30 36 -93 36q-152 0 -181 -215q-7 -47 -4 -88zM468 424l-288 -275q28 -54 106 -54q152 0 181 212q10 68 1 117z
" />
    <glyph glyph-name="zero.dnom" horiz-adv-x="396" 
d="M216 381q83 0 118.5 -51t21.5 -147q-13 -93 -61 -142.5t-129 -49.5q-83 0 -118.5 51t-21.5 147q13 94 61 143t129 49zM171 59q49 0 75 32t35 98q9 64 -7 94.5t-63 30.5q-49 0 -75 -32t-35 -99q-9 -64 7 -94t63 -30z" />
    <glyph glyph-name="one.dnom" horiz-adv-x="327" 
d="M279 64l-9 -64h-261l10 64h96l33 234q-29 -8 -99 -23l-11 45q64 22 135 59h61l-44 -315h89z" />
    <glyph glyph-name="two.dnom" horiz-adv-x="348" 
d="M288 0h-287l7 55l50.5 35.5l48 34.5l41 30.5t37 30t27.5 27t20.5 27.5t8.5 25q8 57 -53 57q-52 0 -128 -33l-17 55q94 41 163 41q59 0 89 -34t23 -92q-3 -22 -17 -44t-28.5 -37.5t-49 -40t-52.5 -36l-65 -40.5q32 3 57 3h133z" />
    <glyph glyph-name="three.dnom" horiz-adv-x="349" 
d="M57 293l-12 52q82 35 156 35q59 0 90.5 -29.5t24.5 -78.5q-9 -60 -77 -83q34 -11 51 -34.5t13 -54.5q-7 -53 -47.5 -81t-107.5 -28q-88 0 -155 40l26 50q62 -31 131 -31q35 0 56.5 15t25.5 42t-16 40.5t-65 13.5h-60l9 59h57q82 0 89 48q4 26 -11 39t-47 13
q-60 0 -131 -27z" />
    <glyph glyph-name="four.dnom" horiz-adv-x="386" 
d="M284 76l-11 -76h-73l11 76h-214l4 52l253 251h72l-34 -245h58l-8 -58h-58zM219 134l24 163q-8 -9 -30 -31l-98 -93q-18 -20 -42 -39h146z" />
    <glyph glyph-name="five.dnom" horiz-adv-x="358" 
d="M132 312l-24 -104q51 27 99 27q59 0 87 -31.5t20 -89.5q-8 -59 -52 -91t-108 -32q-88 0 -156 40l28 54q64 -32 123 -32q38 0 63.5 19t30.5 51q4 29 -11.5 45.5t-48.5 16.5q-35 0 -84 -26l-62 9l43 207h256l-9 -63h-195z" />
    <glyph glyph-name="six.dnom" horiz-adv-x="375" 
d="M346 359l-23 -52q-40 12 -84 12q-55 0 -91.5 -34t-49.5 -94q43 47 115 47q62 0 93 -32.5t24 -86.5q-8 -58 -51.5 -93t-110.5 -35q-82 0 -120 48.5t-26 133.5q13 96 72.5 152t145.5 56q57 0 106 -22zM172 52q35 0 59.5 21t28.5 56q4 27 -13.5 43t-50.5 16q-69 0 -103 -60
q-1 -34 20 -55t59 -21z" />
    <glyph glyph-name="seven.dnom" horiz-adv-x="321" 
d="M321 379l-7 -61q-60 -67 -113.5 -151.5t-86.5 -166.5h-87q85 188 203 313h-202l11 66h282z" />
    <glyph glyph-name="eight.dnom" horiz-adv-x="378" 
d="M211 381q67 0 101 -26.5t28 -73.5q-9 -57 -83 -83q85 -31 75 -100q-7 -50 -53 -79t-118 -28q-83 0 -121.5 30t-30.5 83q8 60 93 91q-60 30 -50 88q7 47 48.5 72.5t110.5 25.5zM205 331q-34 0 -56 -14t-26 -39q-3 -22 13.5 -36t56.5 -25q72 21 78 68q2 21 -15.5 33.5
t-50.5 12.5zM160 173q-73 -23 -78 -70q-4 -25 17 -39.5t60 -14.5t65 16t30 42q3 24 -19 39t-75 27z" />
    <glyph glyph-name="nine.dnom" horiz-adv-x="367" 
d="M17 14l24 52q44 -13 84 -13q54 0 89.5 33.5t48.5 93.5q-42 -46 -113 -46q-62 0 -93 32.5t-24 86.5q8 58 51.5 93t111.5 35q81 0 117.5 -48t25.5 -133q-14 -99 -71.5 -154t-143.5 -55q-58 0 -107 23zM167 184q68 0 101 59q2 35 -18.5 56.5t-58.5 20.5q-35 0 -59.5 -20.5
t-28.5 -55.5q-4 -28 13.5 -44t50.5 -16z" />
    <glyph glyph-name="zero.numr" horiz-adv-x="396" 
d="M247 620q83 0 118.5 -51t21.5 -147q-13 -93 -61.5 -142.5t-129.5 -49.5q-83 0 -118.5 51t-21.5 147q28 192 191 192zM202 298q49 0 74.5 31.5t34.5 98.5q9 65 -6.5 95t-62.5 30q-49 0 -75 -32t-35 -99q-9 -64 7 -94t63 -30z" />
    <glyph glyph-name="one.numr" horiz-adv-x="327" 
d="M309 295l-10 -64h-260l9 64h96l34 234q-26 -7 -100 -23l-10 45q67 24 135 59h60l-44 -315h90z" />
    <glyph glyph-name="two.numr" horiz-adv-x="348" 
d="M317 235h-286l7 55l50 36l48 34.5l41 30t37 30l27 27t20.5 27.5t8.5 25q4 27 -9.5 42t-42.5 15q-51 0 -129 -33l-17 55q96 41 163 41q60 0 90 -34t22 -92q-8 -60 -101 -127q-28 -19 -110 -71q30 3 57 3h133z" />
    <glyph glyph-name="three.numr" horiz-adv-x="349" 
d="M88 534l-12 51q85 36 155 36q60 0 91.5 -29.5t24.5 -78.5q-8 -59 -77 -83q34 -11 50.5 -34.5t12.5 -54.5q-7 -53 -47.5 -81t-106.5 -28q-89 0 -156 40l27 50q59 -31 130 -31q75 0 83 57q4 26 -16.5 39.5t-65.5 13.5h-60l9 60h58q82 0 89 48q4 26 -11.5 39t-47.5 13
q-54 0 -130 -27z" />
    <glyph glyph-name="four.numr" horiz-adv-x="386" 
d="M313 307l-10 -76h-73l11 76h-214l4 52l252 251h73l-34 -245h58l-8 -58h-59zM249 365l24 163q-8 -9 -30 -31l-98 -93q-26 -25 -42 -39h146z" />
    <glyph glyph-name="five.numr" horiz-adv-x="358" 
d="M162 547l-24 -104q51 27 99 27q59 0 87 -31.5t20 -89.5q-9 -59 -52.5 -91t-107.5 -32q-88 0 -156 40l27 54q64 -32 124 -32q38 0 63.5 19t30.5 51q4 29 -12 45.5t-48 16.5q-35 0 -84 -26l-62 9l43 207h255l-8 -63h-195z" />
    <glyph glyph-name="six.numr" horiz-adv-x="375" 
d="M377 598l-24 -52q-39 12 -84 12q-54 0 -91 -34t-50 -94q44 47 116 47q62 0 93 -32.5t24 -86.5q-8 -58 -51.5 -93t-110.5 -35q-82 0 -120 48.5t-26 133.5q13 96 72.5 152t145.5 56q56 0 106 -22zM203 291q35 0 59.5 21t28.5 56q4 27 -14 43t-51 16q-68 0 -103 -60
q0 -35 21 -55.5t59 -20.5z" />
    <glyph glyph-name="seven.numr" horiz-adv-x="321" 
d="M351 610l-8 -61q-129 -146 -199 -318h-87q85 188 203 313h-202l10 66h283z" />
    <glyph glyph-name="eight.numr" horiz-adv-x="378" 
d="M242 620q67 0 100.5 -26.5t27.5 -73.5q-7 -56 -82 -83q84 -32 74 -100q-7 -50 -53 -79t-117 -28q-83 0 -121.5 30t-31.5 83q10 61 94 91q-59 30 -51 88q7 47 49 72.5t111 25.5zM236 570q-34 0 -56.5 -14.5t-25.5 -38.5q-4 -22 13 -36t57 -25q72 21 77 68q2 21 -15 33.5
t-50 12.5zM191 412q-72 -23 -79 -70q-4 -25 17.5 -39.5t59.5 -14.5q39 0 65 16t30 42q3 24 -19 39t-74 27z" />
    <glyph glyph-name="nine.numr" horiz-adv-x="367" 
d="M48 253l24 52q43 -13 84 -13q54 0 89.5 33.5t48.5 93.5q-43 -46 -114 -46q-61 0 -92.5 32.5t-23.5 86.5q8 58 51.5 93t110.5 35q82 0 118.5 -48t24.5 -133q-13 -99 -70.5 -154t-143.5 -55q-58 0 -107 23zM198 423q68 0 101 59q1 35 -19 56.5t-58 20.5q-35 0 -59.5 -20.5
t-29.5 -55.5q-4 -28 14 -44t51 -16z" />
    <glyph glyph-name="backslash.case" horiz-adv-x="422" 
d="M202 660l117 -727h-94l-119 727h96z" />
    <glyph glyph-name="bullet.case" horiz-adv-x="328" 
d="M84 308q6 39 34 64t68 25q42 0 64 -26.5t16 -67.5q-5 -39 -33 -64t-68 -25q-41 0 -63.5 27t-17.5 67z" />
    <glyph glyph-name="exclamdown.case" horiz-adv-x="282" 
d="M180 501q-26 0 -40 17t-10 43q3 23 20.5 38.5t41.5 15.5q26 0 40 -17.5t10 -42.5q-3 -23 -20 -38.5t-42 -15.5zM120 405h89l-41 -405h-121z" />
    <glyph glyph-name="periodcentered.case" horiz-adv-x="278" 
d="M84 315q4 28 24 46t49 18q30 0 46.5 -20t12.5 -50q-4 -28 -24 -46t-49 -18q-30 0 -47 20t-12 50z" />
    <glyph glyph-name="questiondown.case" horiz-adv-x="522" 
d="M324 502q-26 0 -39.5 17t-10.5 43q3 23 20.5 38.5t41.5 15.5q26 0 40 -17.5t10 -42.5q-3 -23 -20 -38.5t-42 -15.5zM442 142l25 -84q-156 -67 -262 -67q-93 0 -143 53t-39 137q10 70 71 116.5t165 64.5l8 63h91l-3 -141q-199 -12 -212 -97q-6 -44 19 -70t73 -26
q58 0 207 51z" />
    <glyph glyph-name="slash.case" horiz-adv-x="413" 
d="M324 660h97l-331 -740h-96z" />
    <glyph glyph-name="braceleft.case" horiz-adv-x="392" 
d="M290 489l-4 -25q-11 -80 -44.5 -115t-98.5 -43q63 -9 86.5 -45t11.5 -119l-4 -25q-6 -45 13 -68.5t80 -32.5l-11 -79q-110 5 -155.5 49.5t-32.5 133.5l4 25q10 69 -10 92.5t-89 27.5l13 80q68 4 95 29.5t36 92.5l4 25q13 89 70 131.5t169 47.5l-12 -79q-64 -9 -89.5 -33
t-31.5 -70z" />
    <glyph glyph-name="braceright.case" horiz-adv-x="387" 
d="M280 489l-4 -25q-10 -70 10 -93t89 -27l-13 -81q-68 -4 -95 -29.5t-36 -92.5l-4 -25q-13 -89 -70 -131.5t-169 -47.5l12 79q64 9 89.5 33.5t31.5 69.5l4 25q11 80 44.5 115t98.5 43q-63 9 -86.5 45t-11.5 119l4 25q6 46 -13 69t-80 32l11 79q111 -5 156 -49t32 -133z" />
    <glyph glyph-name="bracketleft.case" horiz-adv-x="371" 
d="M400 660l-13 -88h-151l-75 -538h150l-12 -88h-254l101 714h254z" />
    <glyph glyph-name="bracketright.case" horiz-adv-x="360" 
d="M-9 -54l13 88h150l76 537h-151l13 89h254l-101 -714h-254z" />
    <glyph glyph-name="parenleft.case" horiz-adv-x="322" 
d="M282 661l63 -42q-74 -79 -112.5 -147.5t-53.5 -171.5q-14 -101 5 -168.5t70 -147.5l-71 -39q-69 88 -95 167.5t-10 192.5q15 111 63.5 190t140.5 166z" />
    <glyph glyph-name="parenright.case" horiz-adv-x="311" 
d="M56 -55l-63 43q74 80 113 148t53 171q14 101 -5.5 169t-70.5 147l72 38q68 -88 94.5 -167.5t10.5 -192.5q-15 -111 -63 -189.5t-141 -166.5z" />
    <glyph glyph-name="emdash.case" horiz-adv-x="910" 
d="M75 355h787l-12 -85h-787z" />
    <glyph glyph-name="endash.case" horiz-adv-x="500" 
d="M75 355h377l-12 -85h-377z" />
    <glyph glyph-name="hyphen.case" horiz-adv-x="400" 
d="M79 365h278l-14 -100h-277z" />
    <glyph glyph-name="guillemotleft.case" horiz-adv-x="567" 
d="M340 453l-131 -119q-22 -19 -44 -34q21 -18 34 -33l98 -117l-67 -56l-182 208l239 209zM540 453l-131 -119q-13 -12 -43 -34q18 -15 33 -33l98 -117l-66 -56l-183 208l239 209z" />
    <glyph glyph-name="guillemotright.case" horiz-adv-x="567" 
d="M527 302l-240 -208l-49 54l129 119q21 18 47 36q-20 19 -34 35l-100 117l64 56zM326 302l-239 -208l-50 54l130 119q21 18 47 36q-13 11 -35 35l-99 117l64 56z" />
    <glyph glyph-name="guilsinglleft.case" horiz-adv-x="368" 
d="M340 453l-131 -119q-22 -19 -44 -34q21 -18 34 -33l98 -117l-67 -56l-182 208l239 209z" />
    <glyph glyph-name="guilsinglright.case" horiz-adv-x="368" 
d="M326 302l-239 -208l-50 54l130 119q21 18 47 36q-13 11 -35 35l-99 117l64 56z" />
    <glyph glyph-name="florin.tf" horiz-adv-x="560" 
d="M567 500l-41 -69q-66 33 -134 33q-122 0 -179 -176l-9 -25h215l-25 -74h-214l-63 -189h-111l62 189h-60l25 74h59l10 28q44 136 114 199.5t170 63.5q103 0 181 -54z" />
    <glyph glyph-name="cent.tf" horiz-adv-x="560" 
d="M457 136l32 -70q-82 -64 -181 -73l-8 -55h-75l8 55q-87 11 -135.5 80t-30.5 199q18 124 85 195t159 82l8 61h76l-8 -61q75 -9 143 -53l-42 -71q-59 34 -138 34q-63 0 -110 -47.5t-61 -145.5q-13 -92 18.5 -137.5t93.5 -45.5q92 0 166 53z" />
    <glyph glyph-name="dollar.tf" horiz-adv-x="560" 
d="M519 498l-35 -78q-112 46 -182 46q-40 0 -66 -17.5t-30 -45.5q-4 -29 19.5 -44t112.5 -44q93 -28 127 -66.5t25 -103.5q-9 -67 -65 -108.5t-145 -44.5l-8 -57h-76l9 61q-101 14 -180 78l48 78q98 -74 199 -74q47 0 76 19.5t33 50.5q4 30 -22 47.5t-113 46.5
q-92 31 -124.5 67.5t-23.5 99.5q8 61 57.5 98.5t127.5 41.5l8 63h76l-10 -66q77 -10 162 -48z" />
    <glyph glyph-name="Euro.tf" horiz-adv-x="560" 
d="M381 186h-185q12 -105 115 -105q89 0 168 55l32 -70q-52 -41 -103 -58t-121 -17q-83 0 -139.5 48t-62.5 147h-70l8 54h62q2 22 4 32l3 19h-62l8 54h67q32 101 103 153.5t157 52.5q104 0 186 -55l-42 -71q-63 36 -137 36q-108 0 -153 -116h226l-22 -54h-220l-4 -25
q-2 -18 -3 -26h206z" />
    <glyph glyph-name="sterling.tf" horiz-adv-x="560" 
d="M572 500l-42 -72q-63 36 -132 36q-59 0 -96.5 -40t-58.5 -136l-2 -10h185l-9 -62h-191l-27 -122h287l-13 -94h-473l11 83l76 8l28 125h-83l9 62h88l3 13q32 138 95.5 200.5t163.5 62.5q107 0 181 -54z" />
    <glyph glyph-name="yen.tf" horiz-adv-x="560" 
d="M382 256h117l-8 -54h-146l-9 -14l-5 -32h153l-8 -54h-153l-15 -102h-115l15 102h-152l8 54h152l4 32l-5 14h-143l8 54h113l-117 290h117l85 -205q8 -19 13 -51q12 29 29 54l141 202h120z" />
    <glyph glyph-name="arrowdown.ss08" horiz-adv-x="659" 
d="M330 568q119 0 204 -85t85 -204q0 -120 -85 -205t-204 -85q-120 0 -205 85t-85 205q0 119 85 204t205 85zM304 427v-214l-91 91l-37 -37l154 -146l154 146l-37 36l-91 -90v214h-52z" />
    <glyph glyph-name="arrowdownleft.ss08" horiz-adv-x="659" 
d="M619 279q0 119 -85 204t-204 86q-120 -1 -205 -86t-85 -204q0 -120 85 -205t205 -85q119 0 204 85t85 205zM213 162v217h51v-129l153 151l36 -36l-152 -152h129v-51h-217z" />
    <glyph glyph-name="arrowdownright.ss08" horiz-adv-x="659" 
d="M619 279q0 119 -85 204t-204 86q-120 -1 -205 -86t-85 -204q0 -120 85 -205t205 -85q119 0 204 85t85 205zM229 213h129l-152 152l36 36l153 -151v129h51v-217h-217v51z" />
    <glyph glyph-name="arrowleft.ss08" horiz-adv-x="659" 
d="M330 569q119 -1 204 -86t85 -204q0 -120 -85 -205t-204 -85q-120 0 -205 85t-85 205q0 119 85 204t205 86zM172 279l146 -154l37 36l-91 91h214v52h-214l91 92l-37 36z" />
    <glyph glyph-name="arrowright.ss08" horiz-adv-x="659" 
d="M330 569q119 -1 204 -86t85 -204q0 -120 -85 -205t-204 -85q-120 0 -205 85t-85 205q0 119 85 204t205 86zM305 396l90 -92h-214v-52h214l-90 -91l37 -36l146 154l-147 153z" />
    <glyph glyph-name="arrowup.ss08" horiz-adv-x="659" 
d="M330 568q119 0 204 -85t85 -204q0 -120 -85 -205t-204 -85q-120 0 -205 85t-85 205q0 119 85 204t205 85zM176 290l37 -36l91 90v-214h52v214l91 -90l37 37l-154 146z" />
    <glyph glyph-name="arrowupleft.ss08" horiz-adv-x="659" 
d="M619 280q0 119 -85 204t-204 85q-120 0 -205 -85t-85 -204q0 -120 85 -205.5t205 -85.5q119 0 204 85.5t85 205.5zM430 345h-129l152 -152l-36 -36l-153 151v-129h-51v217h217v-51z" />
    <glyph glyph-name="arrowupright.ss08" horiz-adv-x="659" 
d="M619 280q0 119 -85 204t-204 85q-120 0 -205 -85t-85 -204q0 -120 85 -205.5t205 -85.5q119 0 204 85.5t85 205.5zM447 396v-217h-52v129l-152 -151l-36 36l151 152h-128v51h217z" />
    <glyph glyph-name="arrowdown.ss13" horiz-adv-x="503" 
d="M252 490q87 0 149 -62t62 -149t-62 -149.5t-149 -62.5t-149.5 62.5t-62.5 149.5t62.5 149t149.5 62zM252 458q-74 0 -127 -52.5t-53 -126.5t53 -127t127 -53t126.5 53t52.5 127q0 73 -52.5 126t-126.5 53zM233 387v-154l-65 65l-28 -28l112 -107l112 107l-28 27l-65 -64
v154h-38z" />
    <glyph glyph-name="arrowdownleft.ss13" horiz-adv-x="503" 
d="M252 490q87 0 149 -62.5t62 -148.5q0 -87 -62 -149.5t-149 -62.5q-88 0 -150 62.5t-62 149.5q0 86 62 148.5t150 62.5zM252 458q-75 0 -127.5 -52.5t-52.5 -126.5t52.5 -127t127.5 -53q74 0 126.5 53t52.5 127t-52.5 126.5t-126.5 52.5zM346 342l-110 -111h92v-37h-158
v158h39v-92l109 109z" />
    <glyph glyph-name="arrowdownright.ss13" horiz-adv-x="503" 
d="M251 490q88 0 150 -62.5t62 -148.5q0 -87 -62 -149.5t-150 -62.5q-86 0 -148.5 62.5t-62.5 149.5t62.5 149t148.5 62zM251 458q-74 0 -126.5 -52.5t-52.5 -126.5t52.5 -127t126.5 -53q75 0 127.5 53t52.5 127t-52.5 126.5t-127.5 52.5zM294 260v92h39v-158h-158v38h92
l-110 110l28 27z" />
    <glyph glyph-name="arrowleft.ss13" horiz-adv-x="503" 
d="M252 490q87 0 149 -62t62 -149t-62 -149.5t-149 -62.5t-149.5 62.5t-62.5 149.5t62.5 149t149.5 62zM252 458q-74 0 -127 -52.5t-53 -126.5t53 -127t127 -53t126.5 53t52.5 127t-52.5 126.5t-126.5 52.5zM360 298h-154l65 64l-28 29l-107 -112l107 -113l27 29l-64 64h154
v39z" />
    <glyph glyph-name="arrowright.ss13" horiz-adv-x="503" 
d="M251 490q88 0 150 -62t62 -149t-62 -149.5t-150 -62.5q-86 0 -148.5 62.5t-62.5 149.5t62.5 149t148.5 62zM251 458q-74 0 -126.5 -52.5t-52.5 -126.5t52.5 -127t126.5 -53q75 0 127.5 53t52.5 127t-52.5 126.5t-127.5 52.5zM298 259l-65 -64l28 -29l106 113l-106 112
l-28 -29l65 -64h-155v-39h155z" />
    <glyph glyph-name="arrowup.ss13" horiz-adv-x="503" 
d="M252 67q-87 0 -149.5 62.5t-62.5 148.5q0 88 62.5 150t149.5 62t149 -62t62 -150q0 -86 -62 -148.5t-149 -62.5zM252 99q74 0 126.5 52.5t52.5 126.5t-52.5 127t-126.5 53t-127 -53t-53 -127t53 -126.5t127 -52.5zM271 325l65 -65l28 28l-112 106l-112 -106l28 -28l65 65
v-155h38v155z" />
    <glyph glyph-name="arrowupleft.ss13" horiz-adv-x="503" 
d="M252 67q-88 0 -150 62.5t-62 148.5q0 88 62.5 150t149.5 62t149 -62t62 -150q0 -86 -62 -148.5t-149 -62.5zM252 99q74 0 126.5 52.5t52.5 126.5q0 75 -52.5 127.5t-126.5 52.5t-127 -52.5t-53 -127.5q0 -74 53 -126.5t127 -52.5zM209 298v-93h-39v158h158v-37h-91
l109 -110l-27 -28z" />
    <glyph glyph-name="arrowupright.ss13" horiz-adv-x="503" 
d="M251 67q-86 0 -148.5 62.5t-62.5 148.5q0 88 62 150t149 62q88 0 150 -62t62 -150q0 -86 -62 -148.5t-150 -62.5zM251 99q75 0 127.5 52.5t52.5 126.5q0 75 -52.5 127.5t-127.5 52.5q-74 0 -126.5 -52.5t-52.5 -127.5q0 -74 53 -126.5t126 -52.5zM157 216l110 110h-92v37
h158v-158h-38v93l-110 -110z" />
    <glyph glyph-name="at.case" horiz-adv-x="902" 
d="M654 -13l14 -42q-117 -65 -270 -65q-182 0 -278.5 111t-70.5 292q26 185 160.5 299t319.5 114q179 0 272 -103t70 -269q-9 -61 -29 -108t-43.5 -74.5t-52.5 -45t-54 -23.5t-49 -6q-84 0 -99 60q-50 -33 -86.5 -46.5t-84.5 -13.5q-165 0 -135 220q15 105 68.5 159
t135.5 54q72 0 137 -50l6 42h98l-42 -299q-6 -40 2 -55t32 -15q42 0 85 48.5t60 157.5q20 145 -59 232t-235 87q-166 0 -284 -102.5t-141 -267.5q-22 -158 60 -252t240 -94q128 0 253 55zM545 207l23 163q-50 47 -104 47q-111 0 -130 -135q-11 -76 9.5 -107t70.5 -31
q35 0 64 15.5t67 47.5z" />
    <glyph glyph-name="registered.ss04" horiz-adv-x="737" 
d="M369 620q130 0 221.5 -92t91.5 -223t-91 -222.5t-222 -91.5t-222.5 91.5t-91.5 222.5t91.5 223t222.5 92zM369 23q117 0 200 82.5t83 199.5t-83 200.5t-200 83.5t-199.5 -83.5t-82.5 -200.5q0 -118 82 -200t200 -82zM260 482h140q67 0 104 -32t29 -85q-12 -87 -87 -112
l70 -123h-82l-62 115h-73l-17 -117h-71zM307 305h83q64 0 72 57q4 30 -13.5 45.5t-55.5 15.5h-70z" />
    <glyph glyph-name="ampersand.ss09" horiz-adv-x="612" 
d="M604 278l-11 -94q-34 0 -67 3q-28 -102 -92 -149t-184 -47q-119 0 -177.5 46t-45.5 134q7 50 42 85t112 70q-65 71 -54 149q10 68 64.5 106.5t142.5 38.5q78 0 120 -40.5t32 -109.5l-87 -4q10 79 -71 79q-41 0 -68.5 -21.5t-32.5 -57.5q-4 -26 6.5 -48.5t40.5 -53.5l12 5
q104 39 113 97l87 4q-16 -111 -156 -168q-120 -46 -142 -59q-44 -25 -49 -65q-7 -46 26.5 -68.5t94.5 -22.5q91 0 128.5 42t53.5 149h162z" />
    <glyph glyph-name="ampersand.ss10" horiz-adv-x="508" 
d="M498 514l-43 -79q-78 24 -142 24q-113 0 -125 -77q-5 -36 24 -51.5t99 -15.5h69l-12 -81h-89q-70 0 -105 -18t-41 -61q-5 -36 24 -54t93 -18q82 0 179 37l26 -81q-78 -36 -167 -46l-8 -58h-85l8 57q-101 6 -145 44.5t-34 107.5q14 107 132 133q-77 31 -64 117
q10 66 56.5 106t126.5 48l10 64h85l-9 -64q64 -5 137 -34z" />
    <glyph glyph-name="copyright.ss11" horiz-adv-x="480" 
d="M263 238q-80 0 -135.5 55.5t-55.5 135.5q0 79 55.5 135t135.5 56q79 0 134 -56t55 -135q0 -80 -55 -135.5t-134 -55.5zM263 265q67 0 114.5 48t47.5 116t-47.5 116t-114.5 48q-68 0 -116 -48t-48 -116t48 -116t116 -48zM330 387l14 -33q-46 -33 -96 -33q-45 0 -70 28
t-18 77q7 51 38.5 80t79.5 29q44 0 81 -25l-21 -35q-34 17 -60 17q-58 0 -65 -66q-9 -61 47 -61q33 0 70 22z" />
    <glyph glyph-name="registered.ss12" horiz-adv-x="480" 
d="M263 238q-80 0 -135.5 55.5t-55.5 135.5q0 79 55.5 135t135.5 56q79 0 134 -56t55 -135q0 -80 -55 -135.5t-134 -55.5zM263 265q67 0 114.5 48t47.5 116t-47.5 116t-114.5 48q-68 0 -116 -48t-48 -116t48 -116t116 -48zM198 534h83q44 0 65.5 -18t16.5 -51
q-8 -47 -50 -56q25 -14 37 -80h-54q-8 34 -15.5 50t-19.5 16h-38l-8 -66h-45zM232 430h44q35 0 38 33q2 17 -7 25.5t-31 8.5h-34z" />
    <glyph glyph-name="caron.alt" horiz-adv-x="490" 
d="M246 694h89l-2 -14q-20 -93 -57 -160h-59z" />
    <glyph glyph-name="acute.case" horiz-adv-x="490" 
d="M350 826l82 -53l-3 -23q-76 -54 -177 -104l-32 37z" />
    <glyph glyph-name="breve.case" horiz-adv-x="490" 
d="M378 787h73q-18 -127 -154 -127q-65 0 -97.5 35.5t-23.5 91.5h71q-3 -28 9 -42.5t44 -14.5q37 0 53.5 14.5t24.5 42.5z" />
    <glyph glyph-name="caron.case" horiz-adv-x="490" 
d="M469 780l-137 -125h-71l-107 125l40 38l111 -78l128 80z" />
    <glyph glyph-name="circumflex.case" horiz-adv-x="490" 
d="M419 647l-112 79l-137 -79l-33 38l144 125h71l107 -125z" />
    <glyph glyph-name="dieresis.case" horiz-adv-x="490" 
d="M216 789q26 0 40.5 -15.5t11.5 -42.5q-4 -24 -21.5 -37.5t-42.5 -13.5q-24 0 -39.5 15.5t-11.5 41.5q4 24 22 38t41 14zM411 789q24 0 39.5 -15.5t11.5 -42.5q-4 -24 -22.5 -37.5t-40.5 -13.5q-26 0 -40.5 15.5t-10.5 41.5q4 25 21.5 38.5t41.5 13.5z" />
    <glyph glyph-name="dotaccent.case" horiz-adv-x="490" 
d="M314 798q28 0 45.5 -18t12.5 -49q-4 -27 -25 -43.5t-47 -16.5q-29 0 -45.5 18t-12.5 48q4 28 24.5 44.5t47.5 16.5z" />
    <glyph glyph-name="grave.case" horiz-adv-x="490" 
d="M394 682l-34 -35q-93 47 -169 103l-2 22l88 54z" />
    <glyph glyph-name="hungarumlaut.case" horiz-adv-x="490" 
d="M434 828l68 -40l-3 -23l-148 -110l-35 26zM279 828l68 -40l-3 -23l-147 -110l-36 26z" />
    <glyph glyph-name="macron.case" horiz-adv-x="490" 
d="M446 777l-11 -86h-267l11 86h267z" />
    <glyph glyph-name="ring.case" horiz-adv-x="490" 
d="M322 853q46 0 70.5 -28.5t17.5 -74.5q-5 -41 -36.5 -67t-75.5 -26q-46 0 -70.5 27t-18.5 71q7 45 38 71.5t75 26.5zM305 711q20 0 34 11t16 30q6 48 -40 48q-19 0 -33 -12.5t-17 -32.5t7.5 -32t32.5 -12z" />
    <glyph glyph-name="tilde.case" horiz-adv-x="490" 
d="M443 789l52 -8q-14 -52 -45.5 -80.5t-65 -28.5t-64.5 13l-55 29q-26 13 -43 5t-36 -39l-51 7q14 52 44 79t62.5 26.5t64.5 -13.5l55 -28q26 -12 44 -3.5t38 41.5z" />
    </font>
</defs>
</svg>
