<?xml version="1.0" standalone="no"?>
<!DOCTYPE svg PUBLIC "-//W3C//DTD SVG 1.1//EN" "http://www.w3.org/Graphics/SVG/1.1/DTD/svg11.dtd" >
<svg>
<metadata>
Created by FontForge 20090622 at Thu Jun 16 15:14:17 2016
 By deploy user
Copyright &#194;&#169; 2013 by Rene Bieder. All rights reserved.
</metadata>
<defs>
<font id="Gentona-HeavyItalic" horiz-adv-x="500" >
  <font-face 
    font-family="Gentona Heavy Italic"
    font-weight="900"
    font-style="italic"
    font-stretch="normal"
    units-per-em="1000"
    panose-1="0 0 10 0 0 0 0 0 0 0"
    ascent="800"
    descent="-200"
    x-height="490"
    cap-height="610"
    bbox="-156 -251 1378 898"
    underline-thickness="50"
    underline-position="-50"
    slope="-8"
    unicode-range="U+0020-U+FB02"
  />
<missing-glyph horiz-adv-x="765" 
d="M718 610l-86 -610h-565l86 610h565zM672 570h-485l-74 -530h485zM307 413l-7 29q70 26 121 26q46 0 71.5 -24.5t19.5 -65.5t-40 -67t-83 -34l-6 -41h-33l5 66q110 12 119 76q4 26 -12 41.5t-46 15.5q-45 0 -109 -22zM358 179q22 0 19 -22q-3 -24 -25 -24q-23 0 -20 24
q3 22 26 22z" />
    <glyph glyph-name="fi" unicode="fi" horiz-adv-x="680" 
d="M595 736q50 0 81.5 -30.5t24.5 -84.5q-6 -45 -40 -68t-79 -23q-50 0 -81.5 30.5t-24.5 84.5q6 45 40 68t79 23zM665 490l-68 -490h-202l45 322h-157l-45 -322h-202l46 322h-66l23 168h67q15 105 71.5 153t165.5 48q43 0 110 -14l-26 -138h-57q-54 0 -63 -49h358z" />
    <glyph glyph-name="fl" unicode="fl" horiz-adv-x="666" 
d="M692 680l-95 -680h-202l75 539h-100q-54 0 -63 -49h108l-23 -168h-109l-45 -322h-202l46 322h-66l23 168h67q15 105 71.5 153t165.5 48q50 0 145 -26l2 15h202z" />
    <glyph glyph-name="f_f" unicode="ff" horiz-adv-x="780" 
d="M811 539h-57q-54 0 -63 -49h108l-23 -168h-109l-45 -322h-202l46 322h-183l-45 -322h-202l46 322h-66l23 168h67q15 105 71.5 153t165.5 48q43 0 110 -14l-26 -138h-57q-54 0 -63 -49h183q15 105 71.5 153t165.5 48q43 0 110 -14z" />
    <glyph glyph-name="f_f_i" unicode="ffi" horiz-adv-x="1047" 
d="M962 736q50 0 81.5 -30.5t24.5 -84.5q-6 -45 -40 -68t-79 -23q-50 0 -81.5 30.5t-24.5 84.5q6 45 40 68t79 23zM1033 490l-68 -490h-202l45 322h-163l-45 -322h-202l46 322h-161l-45 -322h-202l46 322h-66l23 168h67q15 105 71.5 153t165.5 48q43 0 110 -14l-26 -138h-57
q-54 0 -63 -49h161q15 105 71.5 153t165.5 48q43 0 103 -15l-23 -137h-53q-54 0 -63 -49h364z" />
    <glyph glyph-name="f_f_l" unicode="ffl" horiz-adv-x="1034" 
d="M1060 680l-95 -680h-202l75 539h-106q-54 0 -63 -49h108l-23 -168h-109l-45 -322h-202l46 322h-161l-45 -322h-202l46 322h-66l23 168h67q15 105 71.5 153t165.5 48q43 0 110 -14l-26 -138h-57q-54 0 -63 -49h161q15 105 71.5 153t165.5 48q46 0 151 -27l2 16h202z" />
    <glyph glyph-name=".notdef" horiz-adv-x="765" 
d="M718 610l-86 -610h-565l86 610h565zM672 570h-485l-74 -530h485zM307 413l-7 29q70 26 121 26q46 0 71.5 -24.5t19.5 -65.5t-40 -67t-83 -34l-6 -41h-33l5 66q110 12 119 76q4 26 -12 41.5t-46 15.5q-45 0 -109 -22zM358 179q22 0 19 -22q-3 -24 -25 -24q-23 0 -20 24
q3 22 26 22z" />
    <glyph glyph-name=".null" horiz-adv-x="0" 
 />
    <glyph glyph-name="nonmarkingreturn" horiz-adv-x="333" 
 />
    <glyph glyph-name="space" unicode=" " horiz-adv-x="190" 
 />
    <glyph glyph-name="exclam" unicode="!" horiz-adv-x="290" 
d="M223 230h-160l23 380h220zM128 179q44 0 68.5 -31t18.5 -75q-5 -35 -32.5 -58.5t-65.5 -23.5q-44 0 -68.5 31t-18.5 75q5 35 32.5 58.5t65.5 23.5z" />
    <glyph glyph-name="quotedbl" unicode="&#x22;" horiz-adv-x="475" 
d="M99 640h184l-81 -256h-139zM308 640h184l-81 -256h-139z" />
    <glyph glyph-name="numbersign" unicode="#" horiz-adv-x="720" 
d="M574 315l-20 -80h91l-42 -150h-89l-22 -85h-160l22 85h-90l-22 -85h-160l22 85h-91l42 150h89l20 80h-89l42 150h87l22 85h160l-22 -85h90l22 85h160l-22 -85h93l-42 -150h-91zM414 315h-90l-20 -80h90z" />
    <glyph glyph-name="dollar" unicode="$" horiz-adv-x="556" 
d="M547 511l-57 -138q-132 41 -186 41q-40 0 -43 -21q-1 -5 2.5 -9t19 -10.5t34.5 -13l62 -21.5q84 -28 114.5 -67.5t20.5 -113.5q-10 -69 -64 -112.5t-145 -51.5l-7 -53h-131l8 60q-89 18 -177 65l76 142q126 -63 194 -63q50 0 50 20q0 10 -22.5 20.5t-89.5 33.5
q-88 30 -119 74.5t-21 113.5q9 65 58 106t130 48l8 53h131l-8 -59q69 -10 162 -44z" />
    <glyph glyph-name="percent" unicode="%" horiz-adv-x="898" 
d="M250 621q91 0 130.5 -53t26.5 -149q-27 -188 -204 -188q-91 0 -130.5 52.5t-26.5 147.5q14 96 63.5 143t140.5 47zM607 610h116l-421 -610h-116zM212 348q30 0 44 20.5t20 62.5q5 40 -2.5 57t-31.5 17q-30 0 -44.5 -21t-20.5 -65q-7 -38 1 -54.5t34 -16.5zM713 381
q91 0 130.5 -53t26.5 -149q-27 -188 -204 -188q-91 0 -130.5 52.5t-26.5 147.5q14 96 63.5 143t140.5 47zM675 108q30 0 44 20.5t20 62.5q5 40 -2.5 57t-31.5 17q-30 0 -44.5 -21t-20.5 -65q-7 -38 1 -54.5t34 -16.5z" />
    <glyph glyph-name="ampersand" unicode="&#x26;" horiz-adv-x="685" 
d="M551 1l-72 60q-45 -39 -90.5 -54.5t-107.5 -15.5q-140 0 -206 49.5t-53 145.5q6 49 36 85.5t96 69.5q-38 51 -28 122q21 157 243 157q86 0 134 -45t38 -114q-13 -93 -129 -135l57 -42l49 63l124 -92l-47 -65l66 -49zM358 490q-45 0 -53 -46q-2 -22 12 -41q67 24 71 56
q2 17 -4.5 24t-25.5 7zM357 164l-106 88q-26 -25 -26 -52q0 -53 70 -53q35 0 62 17z" />
    <glyph glyph-name="quotesingle" unicode="'" horiz-adv-x="286" 
d="M109 640h184l-81 -256h-139z" />
    <glyph glyph-name="parenleft" unicode="(" horiz-adv-x="360" 
d="M269 666l121 -76q-136 -196 -159 -356q-23 -170 57 -354l-130 -58q-140 189 -108 424q34 236 219 420z" />
    <glyph glyph-name="parenright" unicode=")" horiz-adv-x="350" 
d="M87 -178l-121 76q136 196 159 356q23 170 -57 354l130 58q140 -189 108 -424q-34 -236 -219 -420z" />
    <glyph glyph-name="asterisk" unicode="*" horiz-adv-x="468" 
d="M344 361l36 -112l-88 -42l-65 111l-113 -63l-55 80l88 79l-86 72l53 81l99 -52l39 102l102 -27l-17 -108l113 -5l5 -96z" />
    <glyph glyph-name="plus" unicode="+" horiz-adv-x="523" 
d="M462 173h-138l-20 -138h-145l20 138h-138l19 145h139l20 139h145l-20 -139h139z" />
    <glyph glyph-name="comma" unicode="," horiz-adv-x="300" 
d="M41 -140l-46 71q63 47 79 69q-29 14 -44.5 42t-12.5 63q4 49 39 81.5t85 32.5t79 -35.5t24 -88.5q-5 -61 -61.5 -127t-141.5 -108z" />
    <glyph glyph-name="hyphen" unicode="-" horiz-adv-x="418" 
d="M69 363h314l-26 -180h-314z" />
    <glyph glyph-name="period" unicode="." horiz-adv-x="298" 
d="M15 105q5 49 39.5 81.5t84.5 32.5t79.5 -32.5t24.5 -81.5t-39.5 -81.5t-84.5 -32.5t-79.5 32.5t-24.5 81.5z" />
    <glyph glyph-name="slash" unicode="/" horiz-adv-x="478" 
d="M331 650h175l-393 -850h-171z" />
    <glyph glyph-name="zero" unicode="0" horiz-adv-x="632" 
d="M365 620q147 0 209 -84t40 -239q-21 -152 -102 -229t-228 -77t-209 82.5t-41 235.5q44 311 331 311zM303 179q48 0 69 31t31 99q12 66 1 94.5t-58 28.5q-48 0 -69.5 -32t-31.5 -103q-11 -63 0 -90.5t58 -27.5z" />
    <glyph glyph-name="one" unicode="1" horiz-adv-x="519" 
d="M489 175l-24 -175h-484l24 175h152l27 196q-49 -9 -109 -16l-28 144q104 40 210 111h171l-61 -435h122z" />
    <glyph glyph-name="two" unicode="2" horiz-adv-x="549" 
d="M85 393l-43 150q103 42 167 59.5t128 17.5q103 0 160 -62t43 -159q-10 -66 -66 -117.5t-161 -110.5q70 4 101 4h95l-24 -175h-494l20 147q8 6 24 17l80.5 57.5l66.5 48t59 45.5l41 35.5t31 32.5t11 24q3 22 -8.5 30.5t-35.5 8.5q-54 0 -195 -53z" />
    <glyph glyph-name="three" unicode="3" horiz-adv-x="577" 
d="M104 420l-32 141q152 59 274 59q100 0 159.5 -51.5t48.5 -129.5q-12 -84 -95 -127q87 -35 74 -132q-13 -93 -85 -141t-190 -48q-148 0 -271 71l68 136q108 -48 208 -48q30 0 50 13t23 33q3 19 -20.5 26t-84.5 7h-82l21 152h82q102 0 108 39q3 22 -11 30t-48 8
q-58 0 -197 -38z" />
    <glyph glyph-name="four" unicode="4" horiz-adv-x="633" 
d="M509 94l-13 -94h-200l13 94h-320l20 141l372 375h200l-49 -355h82l-22 -161h-83zM332 255l19 138q-21 -27 -47 -50l-37 -33q-23 -23 -63 -55h128z" />
    <glyph glyph-name="five" unicode="5" horiz-adv-x="582" 
d="M263 438l-17 -71q61 34 134 34q90 0 134 -53t31 -144q-14 -104 -92 -158.5t-185 -54.5q-158 0 -281 71l70 146q107 -48 186 -48q46 0 73.5 18t32.5 48q6 43 -41 43q-48 0 -87 -44l-167 28l70 357h453l-24 -172h-290z" />
    <glyph glyph-name="six" unicode="6" horiz-adv-x="592" 
d="M596 574l-62 -142q-88 20 -145 20q-101 -1 -138 -99q67 38 151 38q83 0 129.5 -52.5t34.5 -134.5q-14 -100 -86.5 -156.5t-195.5 -56.5q-139 0 -205.5 79t-48.5 209q23 162 121 251.5t244 89.5q93 0 201 -46zM299 156q28 0 49.5 20.5t25.5 49.5q3 22 -10 32.5t-44 10.5
q-19 0 -45.5 -10.5t-45.5 -27.5q5 -75 70 -75z" />
    <glyph glyph-name="seven" unicode="7" horiz-adv-x="523" 
d="M559 610l-22 -156q-173 -237 -249 -454h-246q117 256 262 434h-262l24 176h493z" />
    <glyph glyph-name="eight" unicode="8" horiz-adv-x="579" 
d="M349 620q119 0 175.5 -45.5t45.5 -125.5q-11 -75 -113 -117q59 -31 84.5 -67t17.5 -91q-13 -89 -89 -136t-199 -47q-157 0 -219.5 50t-49.5 145q13 89 126 142q-74 51 -64 125q23 167 285 167zM338 490q-72 0 -72 -43q0 -14 11.5 -25.5t47.5 -29.5q59 24 59 64
q0 34 -46 34zM260 260q-50 -29 -57 -70q-3 -24 12.5 -33.5t48.5 -9.5q30 0 52 13t22 36q0 17 -13.5 27.5t-64.5 36.5z" />
    <glyph glyph-name="nine" unicode="9" horiz-adv-x="592" 
d="M13 37l62 142q88 -20 145 -20q93 1 128 92q-61 -31 -139 -31q-85 0 -131.5 52.5t-34.5 134.5q14 100 86.5 156.5t195.5 56.5q138 0 200.5 -78.5t43.5 -209.5q-48 -341 -355 -341q-93 0 -201 46zM310 455q-29 0 -50 -16t-25 -44q-3 -23 12 -38t44 -15q40 0 79 29
q2 43 -12 63.5t-48 20.5z" />
    <glyph glyph-name="colon" unicode=":" horiz-adv-x="299" 
d="M55 386q5 49 39.5 81.5t84.5 32.5t79.5 -32.5t24.5 -81.5t-39.5 -81.5t-84.5 -32.5t-79.5 32.5t-24.5 81.5zM15 105q5 49 39.5 81.5t84.5 32.5t79.5 -32.5t24.5 -81.5t-39.5 -81.5t-84.5 -32.5t-79.5 32.5t-24.5 81.5z" />
    <glyph glyph-name="semicolon" unicode=";" horiz-adv-x="305" 
d="M180 500q50 0 79.5 -32.5t24.5 -81.5t-39.5 -81.5t-84.5 -32.5t-79.5 32.5t-24.5 81.5t39.5 81.5t84.5 32.5zM46 -140l-46 71q63 47 79 69q-29 14 -44.5 42t-12.5 63q4 49 39 81.5t85 32.5t79 -35.5t24 -88.5q-5 -61 -61.5 -127t-141.5 -108z" />
    <glyph glyph-name="less" unicode="&#x3c;" horiz-adv-x="425" 
d="M286 283l-41 -26l29 -22l99 -84l-103 -108l-247 220l301 220l78 -111z" />
    <glyph glyph-name="equal" unicode="=" horiz-adv-x="514" 
d="M466 273h-411l17 125h413zM441 93h-411l16 125h413z" />
    <glyph glyph-name="greater" unicode="&#x3e;" horiz-adv-x="424" 
d="M407 263l-301 -220l-78 111l116 89l41 26l-29 22l-99 84l103 108z" />
    <glyph glyph-name="question" unicode="?" horiz-adv-x="558" 
d="M100 393l-43 150q103 42 167 59.5t128 17.5q102 0 159.5 -59t45.5 -142q-10 -72 -69.5 -119.5t-161.5 -67.5l-2 -31h-163l12 160h25q59 0 91 7t40 15.5t10 23.5q3 22 -8.5 30.5t-35.5 8.5q-54 0 -195 -53zM233 179q44 0 68.5 -31t18.5 -75q-5 -35 -32.5 -58.5
t-65.5 -23.5q-44 0 -68.5 31t-18.5 75q5 35 32.5 58.5t65.5 23.5z" />
    <glyph glyph-name="at" unicode="@" horiz-adv-x="867" 
d="M625 -65l15 -67q-123 -58 -283 -58q-177 0 -269.5 108.5t-67.5 286.5q26 187 158.5 301t322.5 114q176 0 269.5 -104t70.5 -271q-38 -254 -255 -254q-47 0 -77.5 10.5t-44.5 46.5q-44 -35 -75 -46t-77 -11q-154 0 -123 216q16 116 60.5 169.5t123.5 53.5q61 0 117 -48
l6 40h175l-37 -266q-5 -31 -4 -47t5 -20t13 -4q11 0 22.5 4t29.5 18t33 49.5t23 88.5q20 137 -51.5 218t-214.5 81q-152 0 -258 -93.5t-127 -245.5q-21 -150 47.5 -231t216.5 -81q115 0 256 42zM459 156l14 101q-27 26 -54 26q-26 0 -39 -16t-19 -60q-7 -45 2 -62.5
t36 -17.5q37 0 60 26v3z" />
    <glyph glyph-name="A" unicode="A" horiz-adv-x="718" 
d="M447 84h-216l-38 -84h-222l295 610h288l125 -610h-218zM418 255l-19 112q-3 15 -9 72h-1q-8 -24 -29 -72l-51 -112h109z" />
    <glyph glyph-name="B" unicode="B" horiz-adv-x="616" 
d="M91 610h291q96 0 148 -43t52 -112q0 -102 -81 -141q83 -25 83 -109q0 -114 -72.5 -159.5t-219.5 -45.5h-286zM267 366h37q78 0 78 52q0 34 -48 34h-55zM238 160h56q80 0 80 54q0 22 -12.5 31t-41.5 9h-69z" />
    <glyph glyph-name="C" unicode="C" horiz-adv-x="607" 
d="M527 217l53 -160q-145 -66 -275 -66q-132 0 -203 66t-71 190q0 166 99 269.5t256 103.5q124 0 238 -58l-77 -155q-105 25 -160 25q-64 0 -103.5 -44t-39.5 -116q0 -93 90 -93q67 0 193 38z" />
    <glyph glyph-name="D" unicode="D" horiz-adv-x="660" 
d="M91 610h267q145 0 214.5 -60.5t69.5 -186.5q0 -165 -99.5 -264t-262.5 -99h-274zM240 174h38q75 0 114.5 45t39.5 133q0 45 -23 64.5t-73 19.5h-59z" />
    <glyph glyph-name="E" unicode="E" horiz-adv-x="557" 
d="M274 437l-8 -56h227l-21 -151h-227l-8 -57h277l-24 -173h-484l85 610h476l-24 -173h-269z" />
    <glyph glyph-name="F" unicode="F" horiz-adv-x="529" 
d="M272 420l-11 -79h221l-25 -181h-222l-22 -160h-207l85 610h469l-26 -190h-262z" />
    <glyph glyph-name="G" unicode="G" horiz-adv-x="677" 
d="M662 360l-40 -287q-92 -46 -165 -64t-152 -18q-134 0 -204 71t-70 177q0 177 92.5 279t261.5 102q141 0 273 -57l-65 -152q-130 26 -205 26q-66 0 -105 -49t-39 -123q0 -96 94 -96q52 0 113 13l6 37h-118l20 141h303z" />
    <glyph glyph-name="H" unicode="H" horiz-adv-x="665" 
d="M676 610l-85 -610h-210l29 209h-165l-29 -209h-210l85 610h210l-29 -210h165l29 210h210z" />
    <glyph glyph-name="I" unicode="I" horiz-adv-x="290" 
d="M301 610l-85 -610h-210l85 610h210z" />
    <glyph glyph-name="J" unicode="J" horiz-adv-x="474" 
d="M490 610l-50 -360q-20 -144 -76.5 -201.5t-175.5 -57.5q-96 0 -208 57l60 138q61 -17 114 -17q30 0 50 21t26 60l50 360h210z" />
    <glyph glyph-name="K" unicode="K" horiz-adv-x="668" 
d="M693 594l-235 -254l166 -323l-3 -17h-233l-78 180l-81 -88l-13 -92h-210l85 610h210l-30 -215l197 215h230z" />
    <glyph glyph-name="L" unicode="L" horiz-adv-x="529" 
d="M496 191l-26 -191h-464l85 610h210l-58 -419h253z" />
    <glyph glyph-name="M" unicode="M" horiz-adv-x="836" 
d="M762 0h-208l31 250l6 32l-146 -282h-120l-68 282l-3 -26l-40 -256h-208l111 610h231l62 -242q10 -40 13 -64q10 23 28 56l137 250h233z" />
    <glyph glyph-name="N" unicode="N" horiz-adv-x="680" 
d="M606 0h-187l-166 279q-2 -27 -8 -69l-29 -210h-210l85 610h187l166 -275q2 25 8 65l29 210h210z" />
    <glyph glyph-name="O" unicode="O" horiz-adv-x="692" 
d="M396 620q155 0 227.5 -81t51.5 -230q-21 -153 -114.5 -235.5t-245.5 -82.5q-156 0 -228.5 82.5t-51.5 235.5q21 149 115 230t246 81zM330 181q55 0 90 33.5t44 94.5q8 59 -15.5 91t-74.5 32q-53 0 -86 -32t-42 -91q-8 -62 13.5 -95t70.5 -33z" />
    <glyph glyph-name="P" unicode="P" horiz-adv-x="602" 
d="M91 610h262q255 0 255 -207q0 -136 -75.5 -209.5t-214.5 -73.5h-85l-17 -120h-210zM256 286h58q42 0 65 24.5t23 70.5q0 22 -17 36.5t-50 14.5h-59z" />
    <glyph glyph-name="Q" unicode="Q" horiz-adv-x="692" 
d="M396 620q155 0 227.5 -81t51.5 -230q-21 -153 -114.5 -235.5t-245.5 -82.5q-156 0 -228.5 82.5t-51.5 235.5q21 149 115 230t246 81zM330 181q55 0 90 33.5t44 94.5q8 59 -15.5 91t-74.5 32q-53 0 -86 -32t-42 -91q-8 -62 13.5 -95t70.5 -33zM550 -50l-15 -161
q-184 0 -335 62l39 118q66 -10 119.5 -14t83 -4.5t108.5 -0.5z" />
    <glyph glyph-name="R" unicode="R" horiz-adv-x="630" 
d="M91 610h257q147 0 206.5 -51t59.5 -155q0 -161 -117 -225l85 -160l-3 -19h-221l-59 145h-63l-20 -145h-210zM259 306h69q38 0 58 18.5t20 63.5q0 50 -72 50h-57z" />
    <glyph glyph-name="S" unicode="S" horiz-adv-x="628" 
d="M634 570l-64 -153q-153 39 -224 39q-24 0 -34.5 -5t-11.5 -17q-1 -13 13 -18.5t80 -23.5q23 -6 36 -10q92 -25 127 -62.5t35 -113.5q0 -91 -80 -153t-212 -62q-148 0 -300 81l84 157q138 -69 229 -69q50 0 50 23q0 12 -19.5 20t-80.5 26l-28 8q-94 28 -129 65.5
t-35 109.5q0 95 78 151.5t195 56.5q73 0 129.5 -10t161.5 -40z" />
    <glyph glyph-name="T" unicode="T" horiz-adv-x="596" 
d="M600 419h-173l-58 -419h-210l58 419h-173l27 191h556z" />
    <glyph glyph-name="U" unicode="U" horiz-adv-x="662" 
d="M673 610l-43 -305q-23 -160 -103 -237t-228 -77q-149 0 -211 77.5t-40 236.5l43 305h210l-43 -305q-9 -63 5.5 -91.5t55.5 -28.5q85 0 101 120l43 305h210z" />
    <glyph glyph-name="V" unicode="V" horiz-adv-x="692" 
d="M454 0h-262l-135 610h231l45 -315l9 -66q8 28 29 76l143 305h225z" />
    <glyph glyph-name="W" unicode="W" horiz-adv-x="954" 
d="M776 0h-272l-14 198q-2 30 -4 100q-22 -73 -36 -111l-66 -187h-252l-65 610h221l15 -316q1 -20 1 -58q2 8 8.5 30.5t10.5 39.5l91 304h226l4 -316v-59q8 33 20 71l102 304h225z" />
    <glyph glyph-name="X" unicode="X" horiz-adv-x="689" 
d="M514 305l134 -305h-224l-71 151q-10 23 -12 31q-15 -25 -29 -41l-111 -141h-232l222 305l-133 305h229l65 -142q8 -16 13 -31q13 21 27 38l108 135h237z" />
    <glyph glyph-name="Y" unicode="Y" horiz-adv-x="676" 
d="M436 186l-26 -186h-210l25 186l-168 424h217l47 -135q18 -43 31 -93q34 64 62 103l86 125h223z" />
    <glyph glyph-name="Z" unicode="Z" horiz-adv-x="617" 
d="M611 447l-273 -269q77 5 132 5h106l-25 -183h-550l20 153l301 278q-94 -4 -139 -4h-97l25 183h521z" />
    <glyph glyph-name="bracketleft" unicode="[" horiz-adv-x="409" 
d="M452 660l-22 -157h-128l-74 -527h128l-22 -156h-314l118 840h314z" />
    <glyph glyph-name="backslash" unicode="\" horiz-adv-x="478" 
d="M208 650l270 -860h-168l-275 860h173z" />
    <glyph glyph-name="bracketright" unicode="]" horiz-adv-x="409" 
d="M-37 -180l22 157h128l74 527h-128l22 156h314l-118 -840h-314z" />
    <glyph glyph-name="asciicircum" unicode="^" horiz-adv-x="524" 
d="M504 332h-161l-25 75q-17 46 -21 63q-16 -33 -42 -73l-47 -65h-168l212 308l3 -5l1 5h124l-1 -7z" />
    <glyph glyph-name="underscore" unicode="_" horiz-adv-x="505" 
d="M393 -171h-401l20 144h401z" />
    <glyph glyph-name="grave" unicode="`" 
d="M420 571l-52 -50q-118 38 -201 101v37l139 89z" />
    <glyph glyph-name="a" unicode="a" horiz-adv-x="580" 
d="M579 490l-68 -490h-202l6 40q-35 -28 -62.5 -38.5t-71.5 -10.5q-84 0 -130.5 68t-27.5 198q34 242 204 242q79 0 144 -50l6 41h202zM335 187l16 118q-27 24 -55 24q-31 0 -50.5 -22t-24.5 -62q-7 -47 2 -66.5t35 -19.5q34 0 77 28z" />
    <glyph glyph-name="b" unicode="b" horiz-adv-x="580" 
d="M293 640l-27 -195q71 54 143 54q185 0 150 -254q-18 -129 -77.5 -191.5t-138.5 -62.5q-50 0 -78.5 14.5t-54.5 46.5l-7 -52h-202l90 640h202zM244 294l-16 -113q19 -22 54 -22q65 0 79 98q5 39 -3.5 55.5t-33.5 16.5q-38 0 -80 -35z" />
    <glyph glyph-name="c" unicode="c" horiz-adv-x="491" 
d="M416 190l51 -131q-59 -38 -111.5 -53t-125.5 -15q-104 0 -164.5 70.5t-43.5 187.5q17 121 89.5 186t181.5 65q108 0 204 -57l-65 -124q-68 23 -122 23q-38 0 -61 -23t-31 -77q-7 -52 5.5 -68.5t51.5 -16.5q66 0 141 33z" />
    <glyph glyph-name="d" unicode="d" horiz-adv-x="580" 
d="M601 640l-90 -640h-202l6 40q-35 -28 -62.5 -38.5t-71.5 -10.5q-84 0 -130.5 68t-27.5 198q34 242 204 242q85 0 145 -50l27 191h202zM335 186l17 119q-28 24 -56 24q-31 0 -50.5 -22t-24.5 -62q-7 -47 2 -66.5t35 -19.5q38 0 77 27z" />
    <glyph glyph-name="e" unicode="e" horiz-adv-x="534" 
d="M445 186l47 -120q-124 -75 -247 -75q-120 0 -180 68.5t-44 188.5q17 123 91 187.5t197 64.5q111 0 166.5 -64t36.5 -177q-4 -25 -13 -64h-290q0 -29 12.5 -39.5t47.5 -10.5q31 0 62 6t51.5 12.5t62.5 22.5zM224 293h120q13 70 -42 70t-78 -70z" />
    <glyph glyph-name="f" unicode="f" horiz-adv-x="396" 
d="M427 539h-57q-54 0 -63 -49h108l-23 -168h-109l-45 -322h-202l46 322h-66l23 168h67q15 105 71.5 153t165.5 48q43 0 110 -14z" />
    <glyph glyph-name="g" unicode="g" horiz-adv-x="580" 
d="M580 491l-57 -393q-21 -148 -92.5 -215t-205.5 -67q-115 0 -213 37l37 127q76 -13 158 -13q87 0 110 100q-28 -28 -58 -37t-83 -9q-89 0 -128.5 64t-23.5 182q17 121 66 176.5t137 55.5q83 0 143 -66l8 58h202zM338 212l12 86q-20 31 -54 31q-63 0 -74 -74
q-6 -46 2.5 -61t36.5 -15q47 0 77 33z" />
    <glyph glyph-name="h" unicode="h" horiz-adv-x="572" 
d="M292 640l-29 -207q95 66 165 66q78 0 106 -45.5t14 -145.5l-43 -308h-202l36 260q3 27 -1.5 37t-18.5 10q-37 0 -78 -32l-39 -275h-202l90 640h202z" />
    <glyph glyph-name="i" unicode="i" horiz-adv-x="292" 
d="M88 645q6 45 40 68t79 23q50 0 81.5 -30.5t24.5 -84.5q-6 -45 -40 -68t-79 -23q-50 0 -81.5 30.5t-24.5 84.5zM281 490l-68 -490h-202l68 490h202z" />
    <glyph glyph-name="j" unicode="j" horiz-adv-x="292" 
d="M205 736q50 0 81.5 -30.5t24.5 -84.5q-6 -45 -40 -68t-79 -23q-50 0 -81.5 30.5t-24.5 84.5q6 45 40 68t79 23zM281 490l-58 -407q-15 -109 -73.5 -174t-189.5 -91l-28 141q46 23 65 50.5t25 73.5l57 407h202z" />
    <glyph glyph-name="k" unicode="k" horiz-adv-x="582" 
d="M601 475l-204 -208l136 -248l-3 -19h-210l-68 120l-38 -38l-11 -82h-202l90 640h202l-40 -282l127 132h224z" />
    <glyph glyph-name="l" unicode="l" horiz-adv-x="272" 
d="M293 640l-90 -640h-202l90 640h202z" />
    <glyph glyph-name="m" unicode="m" horiz-adv-x="846" 
d="M271 490l-7 -52q86 61 150 61q101 0 120 -80q56 47 94 63.5t74 16.5q78 0 106 -45.5t14 -145.5l-43 -308h-202l36 260q6 47 -20 47q-30 0 -62 -21l-40 -286h-202l36 260q6 47 -20 47q-24 0 -63 -25l-39 -282h-202l68 490h202z" />
    <glyph glyph-name="n" unicode="n" horiz-adv-x="573" 
d="M271 490l-7 -53q98 62 165 62q78 0 106 -45.5t14 -145.5l-43 -308h-202l36 260q7 47 -24 47q-29 0 -75 -30l-38 -277h-202l68 490h202z" />
    <glyph glyph-name="o" unicode="o" horiz-adv-x="562" 
d="M313 500q132 0 189 -65.5t39 -189.5q-32 -254 -292 -254q-132 0 -188.5 65t-39.5 189q18 128 92.5 191.5t199.5 63.5zM261 148q67 0 82 102q13 92 -46 92q-67 0 -82 -101q-14 -93 46 -93z" />
    <glyph glyph-name="p" unicode="p" horiz-adv-x="580" 
d="M272 490l-6 -41q75 50 143 50q185 0 150 -254q-18 -129 -77.5 -191.5t-138.5 -62.5q-47 0 -73 13t-60 45l-28 -198h-202l90 639h202zM245 296l-17 -118q22 -19 54 -19q65 0 79 98q5 39 -3.5 55.5t-33.5 16.5q-30 0 -79 -33z" />
    <glyph glyph-name="q" unicode="q" horiz-adv-x="580" 
d="M580 490l-90 -639h-202l27 189q-35 -28 -62.5 -38.5t-71.5 -10.5q-84 0 -130.5 68t-27.5 198q18 128 67 185t137 57q67 0 144 -59l7 50h202zM335 188l17 117q-28 24 -56 24q-31 0 -50.5 -22t-24.5 -62q-7 -47 2 -66.5t35 -19.5q35 0 77 29z" />
    <glyph glyph-name="r" unicode="r" horiz-adv-x="427" 
d="M271 490l-10 -75q37 47 66.5 65.5t66.5 18.5q24 0 59 -4l-34 -205h-57q-85 0 -127 -61l-32 -229h-202l68 490h202z" />
    <glyph glyph-name="s" unicode="s" horiz-adv-x="505" 
d="M509 454l-62 -140q-51 21 -102 33.5t-72 12.5q-27 0 -28 -17q-1 -11 10.5 -16t54.5 -15q24 -6 38 -9q76 -19 104.5 -52t20.5 -94q-11 -82 -74.5 -124t-161.5 -42q-52 0 -123 18.5t-130 48.5l62 136q102 -59 192 -59q29 0 30 14q1 6 -7 9.5t-40 12.5l-45 13
q-85 25 -109 59t-13 110q10 69 65 108t144 39q113 0 246 -46z" />
    <glyph glyph-name="t" unicode="t" horiz-adv-x="414" 
d="M283 322l-17 -120q-3 -25 4 -37t37 -12h59l11 -125q-58 -37 -166 -37q-91 0 -127 51t-21 160l17 120h-64l23 168h65l14 100h202l-14 -100h109l-23 -168h-109z" />
    <glyph glyph-name="u" unicode="u" horiz-adv-x="578" 
d="M574 490l-68 -490h-202l6 44q-80 -53 -144 -53q-167 0 -140 191l43 308h202l-37 -265q-7 -47 21 -47q27 0 78 31l39 281h202z" />
    <glyph glyph-name="v" unicode="v" horiz-adv-x="591" 
d="M387 0h-237l-110 490h209l31 -206q9 -61 9 -64l31 74l88 196h213z" />
    <glyph glyph-name="w" unicode="w" horiz-adv-x="799" 
d="M240 490l14 -252v-27q8 26 13 39l95 240h143l24 -252q1 -6 1 -16t1 -16q4 20 12 44l82 240h205l-180 -490h-231l-23 209l-82 -209h-220l-55 490h201z" />
    <glyph glyph-name="x" unicode="x" horiz-adv-x="575" 
d="M253 490l43 -101l5 -11q7 11 19 26l66 86h220l-190 -248l118 -242h-207l-46 98l-7 16q-2 -3 -6.5 -8.5t-6.5 -8.5l-77 -97h-215l190 248l-118 242h212z" />
    <glyph glyph-name="y" unicode="y" horiz-adv-x="584" 
d="M402 490h217l-48 -107.5l-51.5 -114.5t-43 -88t-49.5 -89q-113 -184 -357 -299l-64 155q90 50 139 92l-110 451h209l35 -180q10 -47 14 -82q12 22 22.5 43.5t23 52.5l18.5 46l23 60.5z" />
    <glyph glyph-name="z" unicode="z" horiz-adv-x="544" 
d="M513 367l-211 -212q92 2 112 2h83l-22 -157h-474l18 128l223 206q-36 -1 -100 -1h-85l22 157h451z" />
    <glyph glyph-name="braceleft" unicode="{" horiz-adv-x="419" 
d="M338 439l-4 -29q-12 -82 -46.5 -120.5t-98.5 -50.5q60 -15 84 -54t13 -115l-4 -29q-7 -52 6 -66.5t78 -21.5l-22 -143q-154 0 -213 54t-41 183l3 23q8 52 -8 71.5t-77 26.5l12 83l9 63q60 7 83 28.5t29 67.5l4 29q19 133 89.5 182t233.5 49l-21 -145q-61 -7 -82 -25
t-27 -61z" />
    <glyph glyph-name="bar" unicode="|" horiz-adv-x="369" 
d="M206 -200h-169l119 840h169z" />
    <glyph glyph-name="braceright" unicode="}" horiz-adv-x="419" 
d="M398 229l-9 -63q-60 -7 -83 -28.5t-29 -67.5l-4 -29q-19 -133 -89.5 -182t-233.5 -49l21 145q61 7 82 25t27 61l4 29q12 82 46.5 120.5t98.5 50.5q-60 15 -84 54t-13 115l4 29q7 52 -6 66.5t-78 21.5l22 143q154 0 213 -54t41 -183l-3 -23q-8 -52 8 -71.5t77 -26.5z" />
    <glyph glyph-name="asciitilde" unicode="~" horiz-adv-x="553" 
d="M445 388l69 -63q-42 -60 -80 -88t-73 -27.5t-75 13.5l-62 25q-22 12 -45.5 2.5t-58.5 -48.5l-68 61q42 60 79 87.5t71.5 27.5t75.5 -14l62 -25q22 -10 46 0t59 49z" />
    <glyph glyph-name="exclamdown" unicode="&#xa1;" horiz-adv-x="290" 
d="M162 312q-44 0 -68.5 31t-18.5 75q5 35 32.5 58.5t65.5 23.5q44 0 68.5 -31t18.5 -75q-5 -35 -32.5 -58.5t-65.5 -23.5zM67 261h160l-23 -380h-220z" />
    <glyph glyph-name="cent" unicode="&#xa2;" horiz-adv-x="518" 
d="M431 190l53 -130q-87 -55 -172 -65l-7 -49h-131l7 52q-85 21 -128.5 94.5t-27.5 195.5q15 109 78.5 181t156.5 89l7 52h131l-8 -54q55 -11 134 -50l-66 -128q-68 24 -122 24q-93 0 -112 -138q-10 -70 6 -91.5t55 -21.5q60 0 146 39z" />
    <glyph glyph-name="sterling" unicode="&#xa3;" horiz-adv-x="599" 
d="M613 509l-66 -127q-68 24 -121 24q-67 0 -100 -90h141l-14 -80h-148l-17 -68h235l-23 -168h-497l25 151l56 11l18 74h-63l14 80h69q37 130 104.5 190.5t174.5 60.5q115 0 212 -58z" />
    <glyph glyph-name="yen" unicode="&#xa5;" horiz-adv-x="613" 
d="M487 296h90l-8 -50h-115l-26 -40h136l-7 -50h-158l-22 -156h-210l22 156h-146l8 50h123l-14 40h-104l7 50h79l-93 256h212l32 -122q15 -52 23 -85q48 87 52 95l67 112h217z" />
    <glyph glyph-name="brokenbar" unicode="&#xa6;" horiz-adv-x="369" 
d="M276 293h-169l49 347h169zM206 -200h-169l49 347h169z" />
    <glyph glyph-name="section" unicode="&#xa7;" horiz-adv-x="619" 
d="M564 572l-64 -142q-96 48 -159 48q-40 0 -41 -17q-2 -11 16.5 -19t90.5 -29q106 -31 141.5 -66.5t26.5 -92.5q-5 -34 -30.5 -56.5t-72.5 -41.5q39 -43 28 -117q-10 -70 -68 -114t-154 -44q-125 0 -257 71l65 142q102 -62 185 -62q16 0 22.5 0.5t12.5 4.5t7 13t-7.5 13.5
t-43.5 15.5q-33 10 -57 18q-106 30 -141.5 66t-26.5 93q5 39 30 60.5t72 38.5q-38 44 -27 116q9 69 65 109t148 40q117 0 239 -48zM219 267q3 -9 20 -15t55.5 -16t69.5 -21l16 -5q24 17 13 33q-5 8 -22 14t-54.5 16.5t-68.5 21.5l-13 4q-21 -16 -16 -32z" />
    <glyph glyph-name="dieresis" unicode="&#xa8;" 
d="M198 716q44 0 70 -28t19 -75q-6 -38 -33 -58t-65 -20q-41 0 -68 28t-21 74q6 37 34.5 58t63.5 21zM418 716q41 0 68 -28.5t21 -74.5q-6 -37 -34.5 -57.5t-63.5 -20.5q-44 0 -70 27.5t-19 74.5q6 38 33 58.5t65 20.5z" />
    <glyph glyph-name="copyright" unicode="&#xa9;" horiz-adv-x="727" 
d="M374 -9q-131 0 -222.5 91.5t-91.5 222.5t91.5 223t222.5 92q130 0 221.5 -92t91.5 -223t-91 -222.5t-222 -91.5zM374 34q113 0 192 79t79 192t-79.5 192.5t-191.5 79.5q-113 0 -192 -79.5t-79 -192.5t79 -192t192 -79zM484 260l30 -86q-80 -51 -166 -51q-75 0 -117.5 48
t-30.5 131q12 87 65.5 135t132.5 48q77 0 143 -38l-51 -92q-53 18 -87 18q-29 0 -43.5 -15.5t-19.5 -55.5q-5 -38 5 -52.5t38 -14.5q39 0 101 25z" />
    <glyph glyph-name="ordfeminine" unicode="&#xaa;" horiz-adv-x="397" 
d="M115 496l-16 96q107 28 164 28q157 0 136 -144l-29 -213h-145l4 32q-38 -39 -85 -39q-60 0 -87.5 27t-18.5 90q7 55 45 79t111 24h60q3 21 -2 28t-27 7q-35 0 -110 -15zM246 416h-21q-45 0 -51 -36q-2 -19 18 -19q22 0 48 12z" />
    <glyph glyph-name="guillemotleft" unicode="&#xab;" horiz-adv-x="665" 
d="M375 382l-97 -90q-22 -20 -48 -36q17 -15 32 -32l78 -83l-111 -98l-206 220l262 220zM645 382l-97 -90q-22 -20 -48 -36q17 -15 32 -32l78 -83l-111 -98l-206 220l262 220z" />
    <glyph glyph-name="registered" unicode="&#xae;" horiz-adv-x="727" 
d="M374 -9q-131 0 -222.5 91.5t-91.5 222.5t91.5 223t222.5 92q130 0 221.5 -92t91.5 -223t-91 -222.5t-222 -91.5zM374 34q113 0 192 79t79 192t-79.5 192.5t-191.5 79.5q-113 0 -192 -79.5t-79 -192.5t79 -192t192 -79zM249 479h156q88 0 122.5 -32t25.5 -96
q-9 -68 -68 -88q48 -31 48 -130h-149v18.5v18.5t-1 15.5t-3 14t-5.5 10t-8.5 7.5t-13 2h-18l-12 -86h-122zM358 311h27q31 0 37 35q4 33 -31 33h-24z" />
    <glyph glyph-name="macron" unicode="&#xaf;" 
d="M486 698l-21 -144h-344l21 144h344z" />
    <glyph glyph-name="degree" unicode="&#xb0;" horiz-adv-x="386" 
d="M238 620q78 0 117.5 -48.5t28.5 -126.5q-10 -68 -57 -108t-119 -40q-77 0 -117.5 47.5t-29.5 124.5q10 69 57.5 110t119.5 41zM217 406q27 0 41 17t13 46q2 42 -42 42q-27 0 -41 -18t-14 -48q0 -39 43 -39z" />
    <glyph glyph-name="plusminus" unicode="&#xb1;" horiz-adv-x="524" 
d="M495 398l-19 -125h-148l-15 -108h-125l15 108h-148l17 125h149l15 109h125l-15 -109h149zM41 125h413l-18 -125h-411z" />
    <glyph glyph-name="twosuperior" unicode="&#xb2;" horiz-adv-x="365" 
d="M103 578l-31 95q116 47 185 47q63 0 98.5 -40t27.5 -100q-6 -40 -39.5 -71.5t-96.5 -67.5q30 3 57 3h61l-15 -109h-307l12 91q100 71 145.5 108t48.5 56q2 14 -4 18.5t-22 4.5q-30 0 -120 -35z" />
    <glyph glyph-name="threesuperior" unicode="&#xb3;" horiz-adv-x="370" 
d="M104 599l-23 88q95 35 170 35q62 0 100 -32.5t31 -81.5q-8 -59 -63 -79q58 -24 49 -82q-15 -115 -168 -115q-91 0 -168 46l39 82q63 -29 129 -29q44 0 47 30q1 12 -12.5 15.5t-53.5 3.5h-50l13 95h50q64 0 68 26q2 13 -6 17t-30 4q-34 0 -122 -23z" />
    <glyph glyph-name="acute" unicode="&#xb4;" 
d="M345 748l117 -89l-2 -43q-100 -61 -226 -99l-48 54z" />
    <glyph glyph-name="paragraph" unicode="&#xb6;" horiz-adv-x="618" 
d="M613 456l-86 -18l-61 -438h-190l25 181h-19q-131 1 -188.5 56.5t-41.5 167.5q15 106 84 155t206 50h292z" />
    <glyph glyph-name="periodcentered" unicode="&#xb7;" horiz-adv-x="298" 
d="M15 265q5 49 39.5 81.5t84.5 32.5t79.5 -32.5t24.5 -81.5t-39.5 -81.5t-84.5 -32.5t-79.5 32.5t-24.5 81.5z" />
    <glyph glyph-name="cedilla" unicode="&#xb8;" 
d="M235 40l-9 -63q63 -2 77 -20.5t7 -77.5q-5 -39 -33 -63.5t-75 -24.5q-63 0 -135 28l19 70q42 -8 65 -8q39 0 43 30q2 12 -3 15.5t-29 3.5h-37l36 110h74z" />
    <glyph glyph-name="onesuperior" unicode="&#xb9;" horiz-adv-x="356" 
d="M342 331h-294l15 109h88l16 120q-34 -6 -72 -9l-20 91q87 34 138 68h106l-38 -270h76z" />
    <glyph glyph-name="ordmasculine" unicode="&#xba;" horiz-adv-x="422" 
d="M260 620q89 0 132.5 -45.5t30.5 -132.5q-12 -87 -65.5 -136.5t-140.5 -49.5q-88 0 -132 50t-32 136q12 88 65 133t142 45zM224 373q24 0 39.5 19t20.5 52q4 35 -3.5 49t-28.5 14q-51 0 -60 -65q-5 -37 2 -53t30 -16z" />
    <glyph glyph-name="guillemotright" unicode="&#xbb;" horiz-adv-x="665" 
d="M378 263l-264 -220l-90 98l97 91q15 13 49 37q-22 20 -31 31l-80 82l113 101zM648 263l-264 -220l-90 98l97 91q15 13 49 37q-22 20 -31 31l-80 82l113 101z" />
    <glyph glyph-name="onequarter" unicode="&#xbc;" horiz-adv-x="881" 
d="M32 231l15 109h88l16 120q-34 -6 -72 -9l-20 91q87 34 138 68h106l-38 -270h76l-15 -109h-294zM729 610l-421 -610h-116l421 610h116zM834 158l-14 -100h-51l-8 -58h-125l8 58h-199l12 88l232 233h125l-31 -221h51zM658 158l12 83l-28 -29l-24 -21q-11 -12 -38 -33h78z
" />
    <glyph glyph-name="onehalf" unicode="&#xbd;" horiz-adv-x="911" 
d="M32 231l15 109h88l16 120q-34 -6 -72 -9l-20 91q87 34 138 68h106l-38 -270h76l-15 -109h-294zM729 610l-421 -610h-116l421 610h116zM590 243l-31 95q116 47 185 47q63 0 98.5 -40t27.5 -100q-6 -40 -39.5 -71.5t-96.5 -67.5q30 3 57 3h61l-15 -109h-307l12 91
q100 71 145.5 108t48.5 56q2 14 -4 18.5t-22 4.5q-30 0 -120 -35z" />
    <glyph glyph-name="threequarters" unicode="&#xbe;" horiz-adv-x="883" 
d="M95 497l-23 88q95 35 170 35q62 0 100 -32.5t31 -81.5q-8 -59 -63 -79q58 -24 49 -82q-15 -115 -168 -115q-91 0 -168 46l39 82q63 -29 129 -29q44 0 47 30q1 12 -12.5 15.5t-53.5 3.5h-50l13 95h50q64 0 68 26q2 13 -6 17t-30 4q-34 0 -122 -23zM726 610l-421 -610h-116
l421 610h116zM841 158l-14 -100h-51l-8 -58h-125l8 58h-199l12 88l232 233h125l-31 -221h51zM665 158l12 83l-28 -29l-24 -21q-11 -12 -38 -33h78z" />
    <glyph glyph-name="questiondown" unicode="&#xbf;" horiz-adv-x="558" 
d="M320 312q-44 0 -68.5 31t-18.5 75q5 35 32.5 58.5t65.5 23.5q44 0 68.5 -31t18.5 -75q-5 -35 -32.5 -58.5t-65.5 -23.5zM453 98l43 -150q-103 -42 -167 -59.5t-128 -17.5q-102 0 -159.5 59t-45.5 142q10 72 69.5 119.5t161.5 67.5l2 31h163l-12 -160h-25q-59 0 -91 -7
t-40 -15.5t-10 -23.5q-3 -22 8.5 -30.5t35.5 -8.5q54 0 195 53z" />
    <glyph glyph-name="Agrave" unicode="&#xc0;" horiz-adv-x="718" 
d="M539 686l-52 -50q-115 33 -202 91v37l157 79zM447 84h-216l-38 -84h-222l295 610h288l125 -610h-218zM418 255l-19 112q-3 15 -9 72h-1q-8 -24 -29 -72l-51 -112h109z" />
    <glyph glyph-name="Aacute" unicode="&#xc1;" horiz-adv-x="718" 
d="M573 764v-43q-94 -53 -226 -89l-48 54l136 157zM447 84h-216l-38 -84h-222l295 610h288l125 -610h-218zM418 255l-19 112q-3 15 -9 72h-1q-8 -24 -29 -72l-51 -112h109z" />
    <glyph glyph-name="Acircumflex" unicode="&#xc2;" horiz-adv-x="718" 
d="M275 634l-46 52l156 144h112l118 -144l-54 -52l-134 75zM447 84h-216l-38 -84h-222l295 610h288l125 -610h-218zM418 255l-19 112q-3 15 -9 72h-1q-8 -24 -29 -72l-51 -112h109z" />
    <glyph glyph-name="Atilde" unicode="&#xc3;" horiz-adv-x="718" 
d="M421 663l-49 29q-9 5 -15.5 6t-16 -5.5t-15 -12l-21.5 -22.5l-68 10q8 55 30.5 89.5t52.5 45t59 9t56 -13.5l49 -26q9 -4 15.5 -5t14.5 4t13.5 10t18.5 18l8 8l74 -10q-8 -55 -32.5 -90.5t-55.5 -46.5t-61.5 -10t-56.5 13zM447 84h-216l-38 -84h-222l295 610h288
l125 -610h-218zM418 255l-19 112q-3 15 -9 72h-1q-8 -24 -29 -72l-51 -112h109z" />
    <glyph glyph-name="Adieresis" unicode="&#xc4;" horiz-adv-x="718" 
d="M315 654q-38 0 -64 27t-20 71q5 35 32.5 55t60.5 20q42 0 67 -27t18 -72q-5 -35 -31.5 -54.5t-62.5 -19.5zM535 654q-42 0 -66.5 26.5t-18.5 71.5q5 36 31.5 55.5t62.5 19.5q38 0 64 -27.5t20 -71.5q-5 -35 -32.5 -54.5t-60.5 -19.5zM447 84h-216l-38 -84h-222l295 610
h288l125 -610h-218zM418 255l-19 112q-3 15 -9 72h-1q-8 -24 -29 -72l-51 -112h109z" />
    <glyph glyph-name="Aring" unicode="&#xc5;" horiz-adv-x="718" 
d="M424 654q-52 0 -82.5 27.5t-30.5 67.5q0 50 35.5 83t91.5 33q52 0 82.5 -27.5t30.5 -67.5q0 -49 -35.5 -82.5t-91.5 -33.5zM434 796q-18 0 -29 -12t-11 -29q0 -32 34 -32q18 0 29 12t11 29q0 32 -34 32zM447 84h-216l-38 -84h-222l295 610h288l125 -610h-218zM418 255
l-19 112q-3 15 -9 72h-1q-8 -24 -29 -72l-51 -112h109z" />
    <glyph glyph-name="AE" unicode="&#xc6;" horiz-adv-x="973" 
d="M690 437l-8 -56h227l-21 -151h-227l-8 -57h277l-24 -173h-484l12 84h-175l-54 -84h-234l455 610h557l-24 -173h-269zM458 255l24 177l-113 -177h89z" />
    <glyph glyph-name="Ccedilla" unicode="&#xc7;" horiz-adv-x="607" 
d="M527 217l53 -160q-145 -66 -275 -66h-5l-2 -14q63 -2 77 -20.5t7 -77.5q-5 -39 -33 -63.5t-75 -24.5q-63 0 -135 28l19 70q42 -8 65 -8q39 0 43 30q2 12 -3 15.5t-29 3.5h-37l23 69q-92 20 -140.5 83t-48.5 165q0 166 99 269.5t256 103.5q124 0 238 -58l-77 -155
q-105 25 -160 25q-64 0 -103.5 -44t-39.5 -116q0 -93 90 -93q67 0 193 38z" />
    <glyph glyph-name="Egrave" unicode="&#xc8;" horiz-adv-x="557" 
d="M449 686l-52 -50q-115 33 -202 91v37l157 79zM274 437l-8 -56h227l-21 -151h-227l-8 -57h277l-24 -173h-484l85 610h476l-24 -173h-269z" />
    <glyph glyph-name="Eacute" unicode="&#xc9;" horiz-adv-x="557" 
d="M483 764v-43q-94 -53 -226 -89l-48 54l136 157zM274 437l-8 -56h227l-21 -151h-227l-8 -57h277l-24 -173h-484l85 610h476l-24 -173h-269z" />
    <glyph glyph-name="Ecircumflex" unicode="&#xca;" horiz-adv-x="557" 
d="M185 634l-46 52l156 144h112l118 -144l-54 -52l-134 75zM274 437l-8 -56h227l-21 -151h-227l-8 -57h277l-24 -173h-484l85 610h476l-24 -173h-269z" />
    <glyph glyph-name="Edieresis" unicode="&#xcb;" horiz-adv-x="557" 
d="M225 654q-38 0 -64 27t-20 71q5 35 32.5 55t60.5 20q42 0 67 -27t18 -72q-5 -35 -31.5 -54.5t-62.5 -19.5zM445 654q-42 0 -66.5 26.5t-18.5 71.5q5 36 31.5 55.5t62.5 19.5q38 0 64 -27.5t20 -71.5q-5 -35 -32.5 -54.5t-60.5 -19.5zM274 437l-8 -56h227l-21 -151h-227
l-8 -57h277l-24 -173h-484l85 610h476l-24 -173h-269z" />
    <glyph glyph-name="Igrave" unicode="&#xcc;" horiz-adv-x="290" 
d="M324 686l-52 -50q-115 33 -202 91v37l157 79zM301 610l-85 -610h-210l85 610h210z" />
    <glyph glyph-name="Iacute" unicode="&#xcd;" horiz-adv-x="290" 
d="M220 843l138 -79v-43q-94 -53 -226 -89l-48 54zM301 610l-85 -610h-210l85 610h210z" />
    <glyph glyph-name="Icircumflex" unicode="&#xce;" horiz-adv-x="290" 
d="M400 686l-54 -52l-134 75l-152 -75l-46 52l156 144h112zM91 610h210l-85 -610h-210z" />
    <glyph glyph-name="Idieresis" unicode="&#xcf;" horiz-adv-x="290" 
d="M109 827q42 0 67 -27t18 -72q-5 -35 -31.5 -54.5t-62.5 -19.5q-38 0 -64 27t-20 71q5 35 32.5 55t60.5 20zM329 827q38 0 64 -27.5t20 -71.5q-5 -35 -32.5 -54.5t-60.5 -19.5q-42 0 -66.5 26.5t-18.5 71.5q5 36 31.5 55.5t62.5 19.5zM301 610l-85 -610h-210l85 610h210z
" />
    <glyph glyph-name="Eth" unicode="&#xd0;" horiz-adv-x="671" 
d="M102 610h267q145 0 214.5 -60.5t69.5 -186.5q0 -165 -99.5 -264t-262.5 -99h-274l31 224h-50l23 161h50zM251 174h38q75 0 114.5 45t39.5 133q0 45 -23 64.5t-73 19.5h-59l-7 -51h67l-23 -161h-67z" />
    <glyph glyph-name="Ntilde" unicode="&#xd1;" horiz-adv-x="680" 
d="M533 807l74 -10q-8 -55 -32.5 -90.5t-55.5 -46.5t-61.5 -10t-56.5 13l-49 29q-9 5 -15.5 6t-16 -5.5t-15 -12l-21.5 -22.5l-68 10q8 55 30.5 89.5t52.5 45t59 9t56 -13.5l49 -26q9 -4 15.5 -5t14.5 4t13.5 10t18.5 18zM606 0h-187l-166 279q-2 -27 -8 -69l-29 -210h-210
l85 610h187l166 -275q2 25 8 65l29 210h210z" />
    <glyph glyph-name="Ograve" unicode="&#xd2;" horiz-adv-x="692" 
d="M525 686l-52 -50q-115 33 -202 91v37l157 79zM396 620q155 0 227.5 -81t51.5 -230q-21 -153 -114.5 -235.5t-245.5 -82.5q-156 0 -228.5 82.5t-51.5 235.5q21 149 115 230t246 81zM330 181q55 0 90 33.5t44 94.5q8 59 -15.5 91t-74.5 32q-53 0 -86 -32t-42 -91
q-8 -62 13.5 -95t70.5 -33z" />
    <glyph glyph-name="Oacute" unicode="&#xd3;" horiz-adv-x="692" 
d="M441 843l138 -79v-43q-94 -53 -226 -89l-48 54zM396 620q155 0 227.5 -81t51.5 -230q-21 -153 -114.5 -235.5t-245.5 -82.5q-156 0 -228.5 82.5t-51.5 235.5q21 149 115 230t246 81zM330 181q55 0 90 33.5t44 94.5q8 59 -15.5 91t-74.5 32q-53 0 -86 -32t-42 -91
q-8 -62 13.5 -95t70.5 -33z" />
    <glyph glyph-name="Ocircumflex" unicode="&#xd4;" horiz-adv-x="692" 
d="M261 634l-46 52l156 144h112l118 -144l-54 -52l-134 75zM396 620q155 0 227.5 -81t51.5 -230q-21 -153 -114.5 -235.5t-245.5 -82.5q-156 0 -228.5 82.5t-51.5 235.5q21 149 115 230t246 81zM464 309q8 59 -15.5 91t-74.5 32q-53 0 -86 -32t-42 -91q-8 -62 13.5 -95
t70.5 -33q55 0 90 33.5t44 94.5z" />
    <glyph glyph-name="Otilde" unicode="&#xd5;" horiz-adv-x="692" 
d="M539 807l74 -10q-8 -55 -32.5 -90.5t-55.5 -46.5t-61.5 -10t-56.5 13l-49 29q-9 5 -15.5 6t-16 -5.5t-15 -12l-21.5 -22.5l-68 10q8 55 30.5 89.5t52.5 45t59 9t56 -13.5l49 -26q9 -4 15.5 -5t14.5 4t13.5 10t18.5 18zM396 620q155 0 227.5 -81t51.5 -230
q-21 -153 -114.5 -235.5t-245.5 -82.5q-156 0 -228.5 82.5t-51.5 235.5q21 149 115 230t246 81zM330 181q55 0 90 33.5t44 94.5q8 59 -15.5 91t-74.5 32q-53 0 -86 -32t-42 -91q-8 -62 13.5 -95t70.5 -33z" />
    <glyph glyph-name="Odieresis" unicode="&#xd6;" horiz-adv-x="692" 
d="M310 827q42 0 67 -27t18 -72q-5 -35 -31.5 -54.5t-62.5 -19.5q-38 0 -64 27t-20 71q5 35 32.5 55t60.5 20zM530 827q38 0 64 -27.5t20 -71.5q-5 -35 -32.5 -54.5t-60.5 -19.5q-42 0 -66.5 26.5t-18.5 71.5q5 36 31.5 55.5t62.5 19.5zM396 620q155 0 227.5 -81t51.5 -230
q-21 -153 -114.5 -235.5t-245.5 -82.5q-156 0 -228.5 82.5t-51.5 235.5q21 149 115 230t246 81zM330 181q55 0 90 33.5t44 94.5q8 59 -15.5 91t-74.5 32q-53 0 -86 -32t-42 -91q-8 -62 13.5 -95t70.5 -33z" />
    <glyph glyph-name="multiply" unicode="&#xd7;" horiz-adv-x="511" 
d="M356 243l94 -108l-116 -101l-93 108l-119 -105l-90 103l119 105l-93 108l114 103l95 -109l127 112l91 -102z" />
    <glyph glyph-name="Oslash" unicode="&#xd8;" horiz-adv-x="692" 
d="M706 547l-55 -48q41 -74 24 -190q-21 -153 -114.5 -235.5t-245.5 -82.5q-117 0 -188 47l-53 -47l-64 72l52 46q-44 77 -27 200q21 149 115 230t246 81q120 0 192 -49l55 48zM244 269l176 154q-19 9 -46 9q-53 0 -86 -32t-42 -91q-3 -25 -2 -40zM466 336l-170 -150
q17 -5 34 -5q55 0 90 33.5t44 94.5q2 18 2 27z" />
    <glyph glyph-name="Ugrave" unicode="&#xd9;" horiz-adv-x="662" 
d="M510 686l-52 -50q-115 33 -202 91v37l157 79zM673 610l-43 -305q-23 -160 -103 -237t-228 -77q-149 0 -211 77.5t-40 236.5l43 305h210l-43 -305q-9 -63 5.5 -91.5t55.5 -28.5q85 0 101 120l43 305h210z" />
    <glyph glyph-name="Uacute" unicode="&#xda;" horiz-adv-x="662" 
d="M406 843l138 -79v-43q-94 -53 -226 -89l-48 54zM673 610l-43 -305q-23 -160 -103 -237t-228 -77q-149 0 -211 77.5t-40 236.5l43 305h210l-43 -305q-9 -63 5.5 -91.5t55.5 -28.5q85 0 101 120l43 305h210z" />
    <glyph glyph-name="Ucircumflex" unicode="&#xdb;" horiz-adv-x="662" 
d="M246 634l-46 52l156 144h112l118 -144l-54 -52l-134 75zM673 610l-43 -305q-23 -160 -103 -237t-228 -77q-149 0 -211 77.5t-40 236.5l43 305h210l-43 -305q-9 -63 5.5 -91.5t55.5 -28.5q85 0 101 120l43 305h210z" />
    <glyph glyph-name="Udieresis" unicode="&#xdc;" horiz-adv-x="662" 
d="M295 827q42 0 67 -27t18 -72q-5 -35 -31.5 -54.5t-62.5 -19.5q-38 0 -64 27t-20 71q5 35 32.5 55t60.5 20zM515 827q38 0 64 -27.5t20 -71.5q-5 -35 -32.5 -54.5t-60.5 -19.5q-42 0 -66.5 26.5t-18.5 71.5q5 36 31.5 55.5t62.5 19.5zM673 610l-43 -305
q-23 -160 -103 -237t-228 -77q-149 0 -211 77.5t-40 236.5l43 305h210l-43 -305q-9 -63 5.5 -91.5t55.5 -28.5q85 0 101 120l43 305h210z" />
    <glyph glyph-name="Yacute" unicode="&#xdd;" horiz-adv-x="676" 
d="M550 764v-43q-94 -53 -226 -89l-48 54l136 157zM436 186l-26 -186h-210l25 186l-168 424h217l47 -135q18 -43 31 -93q34 64 62 103l86 125h223z" />
    <glyph glyph-name="Thorn" unicode="&#xde;" horiz-adv-x="602" 
d="M291 540h52q130 0 192.5 -48.5t62.5 -148.5q0 -131 -75.5 -202t-214.5 -71h-82l-10 -70h-210l85 610h210zM249 236h55q88 0 88 85q0 41 -67 41h-59z" />
    <glyph glyph-name="germandbls" unicode="&#xdf;" horiz-adv-x="637" 
d="M34 490h71q42 67 116.5 103.5t170.5 36.5q106 0 168 -51t51 -130q-14 -96 -99 -124q52 -17 77 -59t16 -106q-11 -78 -71 -123.5t-151 -45.5q-63 0 -117 18l25 142q58 -4 69 -4q58 0 66 49q2 12 -3.5 19t-22 10t-30 3.5t-43.5 0.5h-11h-12l20 142h12q32 0 56.5 16t28.5 42
q2 18 -12.5 28.5t-38.5 10.5q-46 0 -72.5 -26.5t-32.5 -71.5l-52 -370h-202l47 334l-44 8z" />
    <glyph glyph-name="agrave" unicode="&#xe0;" horiz-adv-x="580" 
d="M468 571l-52 -50q-118 38 -201 101v37l139 89zM579 490l-68 -490h-202l6 40q-35 -28 -62.5 -38.5t-71.5 -10.5q-84 0 -130.5 68t-27.5 198q34 242 204 242q79 0 144 -50l6 41h202zM335 187l16 118q-27 24 -55 24q-31 0 -50.5 -22t-24.5 -62q-7 -47 2 -66.5t35 -19.5
q34 0 77 28z" />
    <glyph glyph-name="aacute" unicode="&#xe1;" horiz-adv-x="580" 
d="M510 659l-2 -43q-100 -61 -226 -99l-48 54l159 177zM579 490l-68 -490h-202l6 40q-35 -28 -62.5 -38.5t-71.5 -10.5q-84 0 -130.5 68t-27.5 198q34 242 204 242q79 0 144 -50l6 41h202zM335 187l16 118q-27 24 -55 24q-31 0 -50.5 -22t-24.5 -62q-7 -47 2 -66.5t35 -19.5
q34 0 77 28z" />
    <glyph glyph-name="acircumflex" unicode="&#xe2;" horiz-adv-x="580" 
d="M532 587l-49 -53q-23 13 -66.5 34t-62.5 31l-132 -65l-47 53l140 133h106zM579 490l-68 -490h-202l6 40q-35 -28 -62.5 -38.5t-71.5 -10.5q-84 0 -130.5 68t-27.5 198q34 242 204 242q79 0 144 -50l6 41h202zM335 187l16 118q-27 24 -55 24q-31 0 -50.5 -22t-24.5 -62
q-7 -47 2 -66.5t35 -19.5q34 0 77 28z" />
    <glyph glyph-name="atilde" unicode="&#xe3;" horiz-adv-x="580" 
d="M342 562l-49 29q-9 5 -15.5 6t-16 -5.5t-15 -12l-21.5 -22.5l-68 10q8 55 30.5 89.5t52.5 45t59 9t56 -13.5l49 -26q9 -4 15.5 -5t14.5 4t13.5 10t18.5 18l8 8l74 -10q-8 -55 -32.5 -90.5t-55.5 -46.5t-61.5 -10t-56.5 13zM579 490l-68 -490h-202l6 40
q-35 -28 -62.5 -38.5t-71.5 -10.5q-84 0 -130.5 68t-27.5 198q34 242 204 242q79 0 144 -50l6 41h202zM335 187l16 118q-27 24 -55 24q-31 0 -50.5 -22t-24.5 -62q-7 -47 2 -66.5t35 -19.5q34 0 77 28z" />
    <glyph glyph-name="adieresis" unicode="&#xe4;" horiz-adv-x="580" 
d="M237 535q-41 0 -68 28t-21 74q6 37 34.5 58t63.5 21q44 0 70 -28t19 -75q-6 -38 -33 -58t-65 -20zM457 535q-44 0 -70 27.5t-19 74.5q6 38 33 58.5t65 20.5q41 0 68 -28.5t21 -74.5q-6 -37 -34.5 -57.5t-63.5 -20.5zM579 490l-68 -490h-202l6 40q-35 -28 -62.5 -38.5
t-71.5 -10.5q-84 0 -130.5 68t-27.5 198q34 242 204 242q79 0 144 -50l6 41h202zM335 187l16 118q-27 24 -55 24q-31 0 -50.5 -22t-24.5 -62q-7 -47 2 -66.5t35 -19.5q34 0 77 28z" />
    <glyph glyph-name="aring" unicode="&#xe5;" horiz-adv-x="580" 
d="M346 536q-55 0 -85 34.5t-22 88.5q6 47 40 74.5t83 27.5q55 0 85 -35t22 -91q-6 -45 -40 -72t-83 -27zM317 646q-2 -14 7.5 -23.5t26.5 -9.5q35 0 40 38q2 15 -7 25t-26 10t-28 -11t-13 -29zM579 490l-68 -490h-202l6 40q-35 -28 -62.5 -38.5t-71.5 -10.5
q-84 0 -130.5 68t-27.5 198q34 242 204 242q79 0 144 -50l6 41h202zM335 187l16 118q-27 24 -55 24q-31 0 -50.5 -22t-24.5 -62q-7 -47 2 -66.5t35 -19.5q34 0 77 28z" />
    <glyph glyph-name="ae" unicode="&#xe6;" horiz-adv-x="812" 
d="M110 327l-21 134q142 39 225 39q84 0 129 -30q61 30 144 30q111 0 166.5 -64t36.5 -177q-4 -25 -13 -64h-290q0 -29 12.5 -39.5t47.5 -10.5q31 0 62 6t51.5 12.5t62.5 22.5l47 -120q-124 -75 -247 -75q-103 0 -163 51q-106 -51 -194 -51q-97 0 -136.5 37t-26.5 130
q10 72 63.5 103.5t156.5 31.5h82l1 6q3 24 -4.5 36.5t-33.5 12.5q-56 0 -158 -21zM502 293h120q13 70 -42 70t-78 -70zM291 195h-38q-57 0 -61 -35q-1 -11 7 -17t22 -6q34 0 80 10q-5 25 -5 48h-5z" />
    <glyph glyph-name="ccedilla" unicode="&#xe7;" horiz-adv-x="491" 
d="M416 190l51 -131q-56 -36 -106 -51.5t-115 -16.5l-2 -14q63 -2 77 -20.5t7 -77.5q-5 -39 -33 -63.5t-75 -24.5q-63 0 -135 28l19 70q42 -8 65 -8q39 0 43 30q2 12 -3 15.5t-29 3.5h-37l23 69q-77 21 -117.5 87t-26.5 163q17 121 89.5 186t181.5 65q108 0 204 -57
l-65 -124q-68 23 -122 23q-38 0 -61 -23t-31 -77q-7 -52 5.5 -68.5t51.5 -16.5q66 0 141 33z" />
    <glyph glyph-name="egrave" unicode="&#xe8;" horiz-adv-x="534" 
d="M433 571l-52 -50q-118 38 -201 101v37l139 89zM445 186l47 -120q-124 -75 -247 -75q-120 0 -180 68.5t-44 188.5q17 123 91 187.5t197 64.5q111 0 166.5 -64t36.5 -177q-4 -25 -13 -64h-290q0 -29 12.5 -39.5t47.5 -10.5q31 0 62 6t51.5 12.5t62.5 22.5zM224 293h120
q13 70 -42 70t-78 -70z" />
    <glyph glyph-name="eacute" unicode="&#xe9;" horiz-adv-x="534" 
d="M475 659l-2 -43q-100 -61 -226 -99l-48 54l159 177zM445 186l47 -120q-124 -75 -247 -75q-120 0 -180 68.5t-44 188.5q17 123 91 187.5t197 64.5q111 0 166.5 -64t36.5 -177q-4 -25 -13 -64h-290q0 -29 12.5 -39.5t47.5 -10.5q31 0 62 6t51.5 12.5t62.5 22.5zM224 293
h120q13 70 -42 70t-78 -70z" />
    <glyph glyph-name="ecircumflex" unicode="&#xea;" horiz-adv-x="534" 
d="M497 587l-49 -53q-23 13 -66.5 34t-62.5 31l-132 -65l-47 53l140 133h106zM445 186l47 -120q-124 -75 -247 -75q-120 0 -180 68.5t-44 188.5q17 123 91 187.5t197 64.5q111 0 166.5 -64t36.5 -177q-4 -25 -13 -64h-290q0 -29 12.5 -39.5t47.5 -10.5q31 0 62 6t51.5 12.5
t62.5 22.5zM224 293h120q13 70 -42 70t-78 -70z" />
    <glyph glyph-name="edieresis" unicode="&#xeb;" horiz-adv-x="534" 
d="M207 535q-41 0 -68 28t-21 74q6 37 34.5 58t63.5 21q44 0 70 -28t19 -75q-6 -38 -33 -58t-65 -20zM436 716q41 0 68 -28.5t21 -74.5q-6 -37 -34.5 -57.5t-63.5 -20.5q-44 0 -70 27.5t-19 74.5q6 38 33 58.5t65 20.5zM445 186l47 -120q-124 -75 -247 -75q-120 0 -180 68.5
t-44 188.5q17 123 91 187.5t197 64.5q111 0 166.5 -64t36.5 -177q-4 -25 -13 -64h-290q0 -29 12.5 -39.5t47.5 -10.5q31 0 62 6t51.5 12.5t62.5 22.5zM224 293h120q13 70 -42 70t-78 -70z" />
    <glyph glyph-name="igrave" unicode="&#xec;" horiz-adv-x="292" 
d="M316 571l-52 -50q-118 38 -201 101v37l139 89zM281 490l-68 -490h-202l68 490h202z" />
    <glyph glyph-name="iacute" unicode="&#xed;" horiz-adv-x="292" 
d="M241 748l117 -89l-2 -43q-100 -61 -226 -99l-48 54zM281 490l-68 -490h-202l68 490h202z" />
    <glyph glyph-name="icircumflex" unicode="&#xee;" horiz-adv-x="292" 
d="M380 587l-49 -53q-23 13 -66.5 34t-62.5 31l-132 -65l-47 53l140 133h106zM79 490h202l-68 -490h-202z" />
    <glyph glyph-name="idieresis" unicode="&#xef;" horiz-adv-x="292" 
d="M94 716q44 0 70 -28t19 -75q-6 -38 -33 -58t-65 -20q-41 0 -68 28t-21 74q6 37 34.5 58t63.5 21zM314 716q41 0 68 -28.5t21 -74.5q-6 -37 -34.5 -57.5t-63.5 -20.5q-44 0 -70 27.5t-19 74.5q6 38 33 58.5t65 20.5zM281 490l-68 -490h-202l68 490h202z" />
    <glyph glyph-name="eth" unicode="&#xf0;" horiz-adv-x="564" 
d="M501 599l-52 -18q60 -85 84 -161.5t9 -182.5q-17 -120 -92.5 -183t-199.5 -63q-123 0 -184 68.5t-44 189.5q14 98 86.5 161t180.5 60q-13 19 -36 43l-94 -33l-14 65l53 18l-39 32v24l210 67l38 -50l80 28zM264 148q67 0 82 101q7 56 -1 98q-65 -4 -92.5 -30t-36.5 -90
q-6 -45 6 -62t42 -17z" />
    <glyph glyph-name="ntilde" unicode="&#xf1;" horiz-adv-x="573" 
d="M329 562l-49 29q-9 5 -15.5 6t-16 -5.5t-15 -12l-21.5 -22.5l-68 10q8 55 30.5 89.5t52.5 45t59 9t56 -13.5l49 -26q9 -4 15.5 -5t14.5 4t13.5 10t18.5 18l8 8l74 -10q-8 -55 -32.5 -90.5t-55.5 -46.5t-61.5 -10t-56.5 13zM271 490l-7 -53q98 62 165 62q78 0 106 -45.5
t14 -145.5l-43 -308h-202l36 260q7 47 -24 47q-29 0 -75 -30l-38 -277h-202l68 490h202z" />
    <glyph glyph-name="ograve" unicode="&#xf2;" horiz-adv-x="562" 
d="M451 571l-52 -50q-118 38 -201 101v37l139 89zM313 500q132 0 189 -65.5t39 -189.5q-32 -254 -292 -254q-132 0 -188.5 65t-39.5 189q18 128 92.5 191.5t199.5 63.5zM261 148q67 0 82 102q13 92 -46 92q-67 0 -82 -101q-14 -93 46 -93z" />
    <glyph glyph-name="oacute" unicode="&#xf3;" horiz-adv-x="562" 
d="M376 748l117 -89l-2 -43q-100 -61 -226 -99l-48 54zM313 500q132 0 189 -65.5t39 -189.5q-32 -254 -292 -254q-132 0 -188.5 65t-39.5 189q18 128 92.5 191.5t199.5 63.5zM261 148q67 0 82 102q13 92 -46 92q-67 0 -82 -101q-14 -93 46 -93z" />
    <glyph glyph-name="ocircumflex" unicode="&#xf4;" horiz-adv-x="562" 
d="M515 587l-49 -53q-23 13 -66.5 34t-62.5 31l-132 -65l-47 53l140 133h106zM313 500q132 0 189 -65.5t39 -189.5q-32 -254 -292 -254q-132 0 -188.5 65t-39.5 189q18 128 92.5 191.5t199.5 63.5zM343 250q13 92 -46 92q-67 0 -82 -101q-14 -93 46 -93q67 0 82 102z" />
    <glyph glyph-name="otilde" unicode="&#xf5;" horiz-adv-x="562" 
d="M460 696l74 -10q-8 -55 -32.5 -90.5t-55.5 -46.5t-61.5 -10t-56.5 13l-49 29q-9 5 -15.5 6t-16 -5.5t-15 -12l-21.5 -22.5l-68 10q8 55 30.5 89.5t52.5 45t59 9t56 -13.5l49 -26q9 -4 15.5 -5t14.5 4t13.5 10t18.5 18zM313 500q132 0 189 -65.5t39 -189.5
q-32 -254 -292 -254q-132 0 -188.5 65t-39.5 189q18 128 92.5 191.5t199.5 63.5zM261 148q67 0 82 102q13 92 -46 92q-67 0 -82 -101q-14 -93 46 -93z" />
    <glyph glyph-name="odieresis" unicode="&#xf6;" horiz-adv-x="562" 
d="M229 716q44 0 70 -28t19 -75q-6 -38 -33 -58t-65 -20q-41 0 -68 28t-21 74q6 37 34.5 58t63.5 21zM449 716q41 0 68 -28.5t21 -74.5q-6 -37 -34.5 -57.5t-63.5 -20.5q-44 0 -70 27.5t-19 74.5q6 38 33 58.5t65 20.5zM313 500q132 0 189 -65.5t39 -189.5
q-32 -254 -292 -254q-132 0 -188.5 65t-39.5 189q18 128 92.5 191.5t199.5 63.5zM261 148q67 0 82 102q13 92 -46 92q-67 0 -82 -101q-14 -93 46 -93z" />
    <glyph glyph-name="divide" unicode="&#xf7;" horiz-adv-x="513" 
d="M207 424q4 24 22 39t44 15q32 0 50 -22.5t13 -55.5q-4 -24 -22 -39t-44 -15q-32 0 -50 22.5t-13 55.5zM451 176h-411l20 145h413zM171 94q3 24 21 39t44 15q32 0 50 -22.5t13 -55.5q-3 -24 -20.5 -39t-44.5 -15q-32 0 -50 22.5t-13 55.5z" />
    <glyph glyph-name="oslash" unicode="&#xf8;" horiz-adv-x="562" 
d="M556 447l-38 -34q38 -64 23 -168q-32 -254 -292 -254q-105 0 -163 41l-42 -37l-46 51l43 38q-34 60 -20 161q18 128 92.5 191.5t199.5 63.5q101 0 157 -38l41 36zM214 237l111 98q-10 7 -28 7q-67 0 -82 -101zM344 260l-115 -102q11 -10 32 -10q67 0 82 102z" />
    <glyph glyph-name="ugrave" unicode="&#xf9;" horiz-adv-x="578" 
d="M440 571l-52 -50q-118 38 -201 101v37l139 89zM574 490l-68 -490h-202l6 44q-80 -53 -144 -53q-167 0 -140 191l43 308h202l-37 -265q-7 -47 21 -47q27 0 78 31l39 281h202z" />
    <glyph glyph-name="uacute" unicode="&#xfa;" horiz-adv-x="578" 
d="M501 659l-2 -43q-100 -61 -226 -99l-48 54l159 177zM574 490l-68 -490h-202l6 44q-80 -53 -144 -53q-167 0 -140 191l43 308h202l-37 -265q-7 -47 21 -47q27 0 78 31l39 281h202z" />
    <glyph glyph-name="ucircumflex" unicode="&#xfb;" horiz-adv-x="578" 
d="M523 587l-49 -53q-23 13 -66.5 34t-62.5 31l-132 -65l-47 53l140 133h106zM574 490l-68 -490h-202l6 44q-80 -53 -144 -53q-167 0 -140 191l43 308h202l-37 -265q-7 -47 21 -47q27 0 78 31l39 281h202z" />
    <glyph glyph-name="udieresis" unicode="&#xfc;" horiz-adv-x="578" 
d="M228 535q-41 0 -68 28t-21 74q6 37 34.5 58t63.5 21q44 0 70 -28t19 -75q-6 -38 -33 -58t-65 -20zM448 535q-44 0 -70 27.5t-19 74.5q6 38 33 58.5t65 20.5q41 0 68 -28.5t21 -74.5q-6 -37 -34.5 -57.5t-63.5 -20.5zM574 490l-68 -490h-202l6 44q-80 -53 -144 -53
q-167 0 -140 191l43 308h202l-37 -265q-7 -47 21 -47q27 0 78 31l39 281h202z" />
    <glyph glyph-name="yacute" unicode="&#xfd;" horiz-adv-x="584" 
d="M504 659l-2 -43q-100 -61 -226 -99l-48 54l159 177zM402 490h217l-48 -107.5l-51.5 -114.5t-43 -88t-49.5 -89q-113 -184 -357 -299l-64 155q90 50 139 92l-110 451h209l35 -180q10 -47 14 -82q12 22 22.5 43.5t23 52.5l18.5 46l23 60.5z" />
    <glyph glyph-name="thorn" unicode="&#xfe;" horiz-adv-x="580" 
d="M293 640l-27 -191q75 50 143 50q185 0 150 -254q-18 -129 -77.5 -191.5t-138.5 -62.5q-47 0 -73 13t-60 45l-28 -198h-202l111 789h202zM245 296l-17 -118q23 -19 54 -19q65 0 79 98q5 39 -3.5 55.5t-33.5 16.5q-30 0 -79 -33z" />
    <glyph glyph-name="ydieresis" unicode="&#xff;" horiz-adv-x="584" 
d="M231 535q-41 0 -68 28t-21 74q6 37 34.5 58t63.5 21q44 0 70 -28t19 -75q-6 -38 -33 -58t-65 -20zM451 535q-44 0 -70 27.5t-19 74.5q6 38 33 58.5t65 20.5q41 0 68 -28.5t21 -74.5q-6 -37 -34.5 -57.5t-63.5 -20.5zM402 490h217l-48 -107.5l-51.5 -114.5t-43 -88
t-49.5 -89q-113 -184 -357 -299l-64 155q90 50 139 92l-110 451h209l35 -180q10 -47 14 -82q12 22 22.5 43.5t23 52.5l18.5 46l23 60.5z" />
    <glyph glyph-name="Amacron" unicode="&#x100;" horiz-adv-x="718" 
d="M586 664h-334l19 139h334zM447 84h-216l-38 -84h-222l295 610h288l125 -610h-218zM418 255l-19 112q-3 15 -9 72h-1q-8 -24 -29 -72l-51 -112h109z" />
    <glyph glyph-name="amacron" unicode="&#x101;" horiz-adv-x="580" 
d="M513 554h-344l21 144h344zM579 490l-68 -490h-202l6 40q-35 -28 -62.5 -38.5t-71.5 -10.5q-84 0 -130.5 68t-27.5 198q34 242 204 242q79 0 144 -50l6 41h202zM335 187l16 118q-27 24 -55 24q-31 0 -50.5 -22t-24.5 -62q-7 -47 2 -66.5t35 -19.5q34 0 77 28z" />
    <glyph glyph-name="Abreve" unicode="&#x102;" horiz-adv-x="718" 
d="M486 805h113q-10 -71 -54.5 -109.5t-120.5 -38.5q-83 0 -121.5 39t-28.5 109h111q-1 -10 1 -17.5t12.5 -14.5t29.5 -7q48 0 58 39zM447 84h-216l-38 -84h-222l295 610h288l125 -610h-218zM418 255l-19 112q-3 15 -9 72h-1q-8 -24 -29 -72l-51 -112h109z" />
    <glyph glyph-name="abreve" unicode="&#x103;" horiz-adv-x="580" 
d="M424 695h113q-10 -71 -54.5 -109.5t-120.5 -38.5q-83 0 -121.5 39t-28.5 109h111q-1 -10 1 -17.5t12.5 -14.5t29.5 -7q48 0 58 39zM579 490l-68 -490h-202l6 40q-35 -28 -62.5 -38.5t-71.5 -10.5q-84 0 -130.5 68t-27.5 198q34 242 204 242q79 0 144 -50l6 41h202z
M335 187l16 118q-27 24 -55 24q-31 0 -50.5 -22t-24.5 -62q-7 -47 2 -66.5t35 -19.5q34 0 77 28z" />
    <glyph glyph-name="Aogonek" unicode="&#x104;" horiz-adv-x="718" 
d="M679 0h-90q-41 0 -68 -14t-31 -39q-3 -19 47 -19q13 0 92 12l15 -100q-79 -30 -165 -30q-61 0 -94.5 29t-26.5 76q10 72 100 104l-11 65h-216l-38 -84h-222l295 610h288zM418 255l-19 112q-3 15 -9 72h-1q-8 -24 -29 -72l-51 -112h109z" />
    <glyph glyph-name="aogonek" unicode="&#x105;" horiz-adv-x="580" 
d="M511 0h-51q-41 0 -68 -14t-31 -39q-3 -19 47 -19q13 0 92 12l15 -100q-79 -30 -165 -30q-61 0 -94.5 29t-26.5 76q10 65 82 97l4 28q-35 -28 -62.5 -38.5t-71.5 -10.5q-84 0 -130.5 68t-27.5 198q34 242 204 242q79 0 144 -50l6 41h202zM335 187l16 118q-27 24 -55 24
q-31 0 -50.5 -22t-24.5 -62q-7 -47 2 -66.5t35 -19.5q34 0 77 28z" />
    <glyph glyph-name="Cacute" unicode="&#x106;" horiz-adv-x="607" 
d="M411 853l138 -79v-43q-94 -53 -226 -89l-48 54zM527 217l53 -160q-145 -66 -275 -66q-132 0 -203 66t-71 190q0 166 99 269.5t256 103.5q124 0 238 -58l-77 -155q-105 25 -160 25q-64 0 -103.5 -44t-39.5 -116q0 -93 90 -93q67 0 193 38z" />
    <glyph glyph-name="cacute" unicode="&#x107;" horiz-adv-x="491" 
d="M355 748l117 -89l-2 -43q-100 -61 -226 -99l-48 54zM416 190l51 -131q-59 -38 -111.5 -53t-125.5 -15q-104 0 -164.5 70.5t-43.5 187.5q17 121 89.5 186t181.5 65q108 0 204 -57l-65 -124q-68 23 -122 23q-38 0 -61 -23t-31 -77q-7 -52 5.5 -68.5t51.5 -16.5q66 0 141 33
z" />
    <glyph glyph-name="Cdotaccent" unicode="&#x10a;" horiz-adv-x="607" 
d="M411 846q42 0 70.5 -29.5t22.5 -78.5q-6 -39 -36.5 -61t-67.5 -22q-46 0 -73 29t-20 78q6 40 35 62t69 22zM527 217l53 -160q-145 -66 -275 -66q-132 0 -203 66t-71 190q0 166 99 269.5t256 103.5q124 0 238 -58l-77 -155q-105 25 -160 25q-64 0 -103.5 -44t-39.5 -116
q0 -93 90 -93q67 0 193 38z" />
    <glyph glyph-name="cdotaccent" unicode="&#x10b;" horiz-adv-x="491" 
d="M320 731q44 0 74 -31t23 -82q-6 -41 -38.5 -64.5t-70.5 -23.5q-48 0 -76 30.5t-21 81.5q6 43 36.5 66t72.5 23zM416 190l51 -131q-59 -38 -111.5 -53t-125.5 -15q-104 0 -164.5 70.5t-43.5 187.5q17 121 89.5 186t181.5 65q108 0 204 -57l-65 -124q-68 23 -122 23
q-38 0 -61 -23t-31 -77q-7 -52 5.5 -68.5t51.5 -16.5q66 0 141 33z" />
    <glyph glyph-name="Ccaron" unicode="&#x10c;" horiz-adv-x="607" 
d="M337 650l-118 144l54 52l134 -75l152 75l46 -52l-156 -144h-112zM624 562l-77 -155q-105 25 -160 25q-64 0 -103.5 -44t-39.5 -116q0 -93 90 -93q67 0 193 38l53 -160q-145 -66 -275 -66q-132 0 -203 66t-71 190q0 166 99 269.5t256 103.5q124 0 238 -58z" />
    <glyph glyph-name="ccaron" unicode="&#x10d;" horiz-adv-x="491" 
d="M249 530l-111 146l49 47l121 -67l151 73l46 -53l-150 -146h-106zM497 443l-65 -124q-68 23 -122 23q-38 0 -61 -23t-31 -77q-7 -52 5.5 -68.5t51.5 -16.5q66 0 141 33l51 -131q-59 -38 -111.5 -53t-125.5 -15q-104 0 -164.5 70.5t-43.5 187.5q17 121 89.5 186t181.5 65
q108 0 204 -57z" />
    <glyph glyph-name="Dcaron" unicode="&#x10e;" horiz-adv-x="660" 
d="M290 640l-118 144l54 52l134 -75l152 75l46 -52l-156 -144h-112zM91 610h267q145 0 214.5 -60.5t69.5 -186.5q0 -165 -99.5 -264t-262.5 -99h-274zM240 174h38q75 0 114.5 45t39.5 133q0 45 -23 64.5t-73 19.5h-59z" />
    <glyph glyph-name="dcaron" unicode="&#x10f;" horiz-adv-x="613" 
d="M399 640h202l-90 -640h-202l6 40q-35 -28 -62.5 -38.5t-71.5 -10.5q-84 0 -130.5 68t-27.5 198q34 242 204 242q85 0 145 -50zM776 640l-3 -17q-24 -106 -78 -176h-90l27 193h144zM335 186l17 119q-28 24 -56 24q-31 0 -50.5 -22t-24.5 -62q-7 -47 2 -66.5t35 -19.5
q38 0 77 27z" />
    <glyph glyph-name="Dcroat" unicode="&#x110;" horiz-adv-x="671" 
d="M102 610h267q145 0 214.5 -60.5t69.5 -186.5q0 -165 -99.5 -264t-262.5 -99h-274l31 224h-50l23 161h50zM251 174h38q75 0 114.5 45t39.5 133q0 45 -23 64.5t-73 19.5h-59l-7 -51h67l-23 -161h-67z" />
    <glyph glyph-name="dcroat" unicode="&#x111;" horiz-adv-x="613" 
d="M639 509h-56l-72 -509h-202l6 40q-35 -28 -62.5 -38.5t-71.5 -10.5q-84 0 -130.5 68t-27.5 198q34 242 204 242q85 0 145 -50l9 60h-80l13 91h79l6 40h202l-6 -40h57zM335 186l17 119q-28 24 -56 24q-31 0 -50.5 -22t-24.5 -62q-7 -47 2 -66.5t35 -19.5q38 0 77 27z" />
    <glyph glyph-name="Emacron" unicode="&#x112;" horiz-adv-x="557" 
d="M496 664h-334l19 139h334zM274 437l-8 -56h227l-21 -151h-227l-8 -57h277l-24 -173h-484l85 610h476l-24 -173h-269z" />
    <glyph glyph-name="emacron" unicode="&#x113;" horiz-adv-x="534" 
d="M490 534h-344l21 144h344zM445 186l47 -120q-124 -75 -247 -75q-120 0 -180 68.5t-44 188.5q17 123 91 187.5t197 64.5q111 0 166.5 -64t36.5 -177q-4 -25 -13 -64h-290q0 -29 12.5 -39.5t47.5 -10.5q31 0 62 6t51.5 12.5t62.5 22.5zM224 293h120q13 70 -42 70t-78 -70z
" />
    <glyph glyph-name="Edotaccent" unicode="&#x116;" horiz-adv-x="557" 
d="M334 645q-46 0 -73 29t-20 78q6 40 35 62t69 22q42 0 70.5 -29.5t22.5 -78.5q-6 -39 -36.5 -61t-67.5 -22zM274 437l-8 -56h227l-21 -151h-227l-8 -57h277l-24 -173h-484l85 610h476l-24 -173h-269z" />
    <glyph glyph-name="edotaccent" unicode="&#x117;" horiz-adv-x="534" 
d="M321 530q-48 0 -76 30.5t-21 81.5q6 43 36.5 66t72.5 23q44 0 74 -31t23 -82q-6 -41 -38.5 -64.5t-70.5 -23.5zM445 186l47 -120q-124 -75 -247 -75q-120 0 -180 68.5t-44 188.5q17 123 91 187.5t197 64.5q111 0 166.5 -64t36.5 -177q-4 -25 -13 -64h-290
q0 -29 12.5 -39.5t47.5 -10.5q31 0 62 6t51.5 12.5t62.5 22.5zM224 293h120q13 70 -42 70t-78 -70z" />
    <glyph glyph-name="Eogonek" unicode="&#x118;" horiz-adv-x="557" 
d="M274 437l-8 -56h227l-21 -151h-227l-8 -57h277l-24 -173h-88q-41 0 -68 -14t-31 -39q-3 -19 47 -19q13 0 92 12l15 -100q-79 -30 -165 -30q-61 0 -94.5 29t-26.5 76q8 53 60 85h-225l85 610h476l-24 -173h-269z" />
    <glyph glyph-name="eogonek" unicode="&#x119;" horiz-adv-x="534" 
d="M371 -60l15 -100q-79 -30 -165 -30q-61 0 -94.5 29t-26.5 76q8 54 62 86q-80 22 -117 86t-24 161q17 123 91 187.5t197 64.5q111 0 166.5 -64t36.5 -177q-4 -25 -13 -64h-290q0 -29 12.5 -39.5t47.5 -10.5q31 0 62 6t51.5 12.5t62.5 22.5l47 -120q-111 -67 -215 -74
q-40 -13 -45 -45q-3 -19 47 -19q13 0 92 12zM224 293h120q13 70 -42 70t-78 -70z" />
    <glyph glyph-name="Ecaron" unicode="&#x11a;" horiz-adv-x="557" 
d="M271 640l-118 144l54 52l134 -75l152 75l46 -52l-156 -144h-112zM274 437l-8 -56h227l-21 -151h-227l-8 -57h277l-24 -173h-484l85 610h476l-24 -173h-269z" />
    <glyph glyph-name="ecaron" unicode="&#x11b;" horiz-adv-x="534" 
d="M261 530l-111 146l49 47l121 -67l151 73l46 -53l-150 -146h-106zM445 186l47 -120q-124 -75 -247 -75q-120 0 -180 68.5t-44 188.5q17 123 91 187.5t197 64.5q111 0 166.5 -64t36.5 -177q-4 -25 -13 -64h-290q0 -29 12.5 -39.5t47.5 -10.5q31 0 62 6t51.5 12.5t62.5 22.5
zM224 293h120q13 70 -42 70t-78 -70z" />
    <glyph glyph-name="Gbreve" unicode="&#x11e;" horiz-adv-x="677" 
d="M463 805h113q-10 -71 -54.5 -109.5t-120.5 -38.5q-83 0 -121.5 39t-28.5 109h111q-1 -10 1 -17.5t12.5 -14.5t29.5 -7q48 0 58 39zM662 360l-40 -287q-92 -46 -165 -64t-152 -18q-134 0 -204 71t-70 177q0 177 92.5 279t261.5 102q141 0 273 -57l-65 -152
q-130 26 -205 26q-66 0 -105 -49t-39 -123q0 -96 94 -96q52 0 113 13l6 37h-118l20 141h303z" />
    <glyph glyph-name="gbreve" unicode="&#x11f;" horiz-adv-x="580" 
d="M419 695h113q-10 -71 -54.5 -109.5t-120.5 -38.5q-83 0 -121.5 39t-28.5 109h111q-1 -10 1 -17.5t12.5 -14.5t29.5 -7q48 0 58 39zM580 491l-57 -393q-21 -148 -92.5 -215t-205.5 -67q-115 0 -213 37l37 127q76 -13 158 -13q87 0 110 100q-28 -28 -58 -37t-83 -9
q-89 0 -128.5 64t-23.5 182q17 121 66 176.5t137 55.5q83 0 143 -66l8 58h202zM338 212l12 86q-20 31 -54 31q-63 0 -74 -74q-6 -46 2.5 -61t36.5 -15q47 0 77 33z" />
    <glyph glyph-name="Gdotaccent" unicode="&#x120;" horiz-adv-x="677" 
d="M412 836q42 0 70.5 -29.5t22.5 -78.5q-6 -39 -36.5 -61t-67.5 -22q-46 0 -73 29t-20 78q6 40 35 62t69 22zM662 360l-40 -287q-92 -46 -165 -64t-152 -18q-134 0 -204 71t-70 177q0 177 92.5 279t261.5 102q141 0 273 -57l-65 -152q-130 26 -205 26q-66 0 -105 -49
t-39 -123q0 -96 94 -96q52 0 113 13l6 37h-118l20 141h303z" />
    <glyph glyph-name="gdotaccent" unicode="&#x121;" horiz-adv-x="580" 
d="M341 530q-48 0 -76 30.5t-21 81.5q6 43 36.5 66t72.5 23q44 0 74 -31t23 -82q-6 -41 -38.5 -64.5t-70.5 -23.5zM580 491l-57 -393q-21 -148 -92.5 -215t-205.5 -67q-115 0 -213 37l37 127q76 -13 158 -13q87 0 110 100q-28 -28 -58 -37t-83 -9q-89 0 -128.5 64t-23.5 182
q17 121 66 176.5t137 55.5q83 0 143 -66l8 58h202zM338 212l12 86q-20 31 -54 31q-63 0 -74 -74q-6 -46 2.5 -61t36.5 -15q47 0 77 33z" />
    <glyph glyph-name="Gcommaaccent" unicode="&#x122;" horiz-adv-x="677" 
d="M662 360l-40 -287q-92 -46 -165 -64t-152 -18q-134 0 -204 71t-70 177q0 177 92.5 279t261.5 102q141 0 273 -57l-65 -152q-130 26 -205 26q-66 0 -105 -49t-39 -123q0 -96 94 -96q52 0 113 13l6 37h-118l20 141h303zM220 -251l-17 53q33 12 45 23q-44 25 -36 80
q4 28 25.5 46.5t52.5 18.5q37 0 57 -28t15 -68v-1q-8 -50 -42 -79t-100 -45z" />
    <glyph glyph-name="gcommaaccent" unicode="&#x123;" horiz-adv-x="580" 
d="M384 793l22 -59q-33 -10 -51 -26q23 -13 33.5 -37.5t6.5 -53.5q-5 -33 -30.5 -55t-61.5 -22q-42 0 -65 32t-16 77q7 51 44 84t118 60zM580 491l-57 -393q-21 -148 -92.5 -215t-205.5 -67q-115 0 -213 37l37 127q76 -13 158 -13q87 0 110 100q-28 -28 -58 -37t-83 -9
q-89 0 -128.5 64t-23.5 182q17 121 66 176.5t137 55.5q83 0 143 -66l8 58h202zM338 212l12 86q-20 31 -54 31q-63 0 -74 -74q-6 -46 2.5 -61t36.5 -15q47 0 77 33z" />
    <glyph glyph-name="Hbar" unicode="&#x126;" horiz-adv-x="685" 
d="M697 403h-40l-56 -403h-210l24 169h-165l-24 -169h-210l56 403h-40l19 136h40l10 71h210l-10 -71h165l10 71h210l-10 -71h40zM447 403h-165l-7 -53h165z" />
    <glyph glyph-name="hbar" unicode="&#x127;" horiz-adv-x="569" 
d="M271 509l-11 -76q95 66 165 66q78 0 106 -45.5t14 -145.5l-43 -308h-202l36 260q3 27 -1.5 37t-18.5 10q-37 0 -78 -32l-39 -275h-202l72 509h-31l13 91h30l6 40h202l-6 -40h105l-13 -91h-104z" />
    <glyph glyph-name="Imacron" unicode="&#x12a;" horiz-adv-x="290" 
d="M390 803l-19 -139h-334l19 139h334zM301 610l-85 -610h-210l85 610h210z" />
    <glyph glyph-name="imacron" unicode="&#x12b;" horiz-adv-x="292" 
d="M382 698l-21 -144h-344l21 144h344zM281 490l-68 -490h-202l68 490h202z" />
    <glyph glyph-name="Iogonek" unicode="&#x12e;" horiz-adv-x="290" 
d="M216 0h-38q-41 0 -68 -14t-31 -39q-3 -19 47 -19q13 0 92 12l15 -100q-79 -30 -165 -30q-61 0 -94.5 29t-26.5 76q8 52 59 85l85 610h210z" />
    <glyph glyph-name="iogonek" unicode="&#x12f;" horiz-adv-x="292" 
d="M206 731q44 0 74 -31t23 -82q-6 -41 -38.5 -64.5t-70.5 -23.5q-48 0 -76 30.5t-21 81.5q6 43 36.5 66t72.5 23zM213 0h-21q-41 0 -68 -14t-31 -39q-3 -19 47 -19q13 0 92 12l15 -100q-79 -30 -165 -30q-61 0 -94.5 29t-26.5 76q8 53 60 85h-10l68 490h202z" />
    <glyph glyph-name="Idotaccent" unicode="&#x130;" horiz-adv-x="290" 
d="M220 836q42 0 70.5 -29.5t22.5 -78.5q-6 -39 -36.5 -61t-67.5 -22q-46 0 -73 29t-20 78q6 40 35 62t69 22zM301 610l-85 -610h-210l85 610h210z" />
    <glyph glyph-name="dotlessi" unicode="&#x131;" horiz-adv-x="292" 
d="M281 490l-68 -490h-202l68 490h202z" />
    <glyph glyph-name="IJ" unicode="&#x132;" horiz-adv-x="764" 
d="M301 610l-85 -610h-210l85 610h210zM780 610l-50 -360q-20 -144 -76.5 -201.5t-175.5 -57.5q-96 0 -208 57l60 138q61 -17 114 -17q30 0 50 21t26 60l50 360h210z" />
    <glyph glyph-name="ij" unicode="&#x133;" horiz-adv-x="572" 
d="M88 645q6 45 40 68t79 23q50 0 81.5 -30.5t24.5 -84.5q-6 -45 -40 -68t-79 -23q-50 0 -81.5 30.5t-24.5 84.5zM485 736q50 0 81.5 -30.5t24.5 -84.5q-6 -45 -40 -68t-79 -23q-50 0 -81.5 30.5t-24.5 84.5q6 45 40 68t79 23zM281 490l-68 -490h-202l68 490h202zM561 490
l-58 -407q-15 -109 -73.5 -174t-189.5 -91l-28 141q46 23 65 50.5t25 73.5l57 407h202z" />
    <glyph glyph-name="Kcommaaccent" unicode="&#x136;" horiz-adv-x="668" 
d="M693 594l-235 -254l166 -323l-3 -17h-233l-78 180l-81 -88l-13 -92h-210l85 610h210l-30 -215l197 215h230zM211 -251l-17 53q33 12 45 23q-44 25 -36 80q4 28 25.5 46.5t52.5 18.5q37 0 57 -28t15 -68v-1q-8 -50 -42 -79t-100 -45z" />
    <glyph glyph-name="kcommaaccent" unicode="&#x137;" horiz-adv-x="582" 
d="M601 475l-204 -208l136 -248l-3 -19h-210l-68 120l-38 -38l-11 -82h-202l90 640h202l-40 -282l127 132h224zM168 -251l-17 53q33 12 45 23q-44 25 -36 80q4 28 25.5 46.5t52.5 18.5q37 0 57 -28t15 -68v-1q-8 -50 -42 -79t-100 -45z" />
    <glyph glyph-name="Lacute" unicode="&#x139;" horiz-adv-x="529" 
d="M375 764v-43q-94 -53 -226 -89l-48 54l136 157zM496 191l-26 -191h-464l85 610h210l-58 -419h253z" />
    <glyph glyph-name="lacute" unicode="&#x13a;" horiz-adv-x="272" 
d="M253 898l117 -89l-2 -43q-100 -61 -226 -99l-48 54zM293 640l-90 -640h-202l90 640h202z" />
    <glyph glyph-name="Lcommaaccent" unicode="&#x13b;" horiz-adv-x="529" 
d="M496 191l-26 -191h-464l85 610h210l-58 -419h253zM143 -251l-17 53q33 12 45 23q-44 25 -36 80q4 28 25.5 46.5t52.5 18.5q37 0 57 -28t15 -68v-1q-8 -50 -42 -79t-100 -45z" />
    <glyph glyph-name="lcommaaccent" unicode="&#x13c;" horiz-adv-x="272" 
d="M293 640l-90 -640h-202l90 640h202zM19 -251l-17 53q33 12 45 23q-44 25 -36 80q4 28 25.5 46.5t52.5 18.5q37 0 57 -28t15 -68v-1q-8 -50 -42 -79t-100 -45z" />
    <glyph glyph-name="Lcaron" unicode="&#x13d;" horiz-adv-x="529" 
d="M496 191l-26 -191h-464l85 610h210l-58 -419h253zM494 610l-3 -17q-24 -106 -78 -176h-90l27 193h144z" />
    <glyph glyph-name="lcaron" unicode="&#x13e;" horiz-adv-x="296" 
d="M293 640l-90 -640h-202l90 640h202zM325 640h144l-3 -17q-24 -106 -78 -176h-90z" />
    <glyph glyph-name="Ldot" unicode="&#x13f;" horiz-adv-x="529" 
d="M243 191h253l-26 -191h-464l85 610h210zM417 466q50 0 79.5 -32.5t24.5 -81.5t-39.5 -81.5t-84.5 -32.5t-79.5 32.5t-24.5 81.5t39.5 81.5t84.5 32.5z" />
    <glyph glyph-name="ldot" unicode="&#x140;" horiz-adv-x="510" 
d="M293 640l-90 -640h-202l90 640h202zM282 315q5 49 39.5 81.5t84.5 32.5t79.5 -32.5t24.5 -81.5t-39.5 -81.5t-84.5 -32.5t-79.5 32.5t-24.5 81.5z" />
    <glyph glyph-name="Lslash" unicode="&#x141;" horiz-adv-x="535" 
d="M502 191l-26 -191h-464l30 215l-46 -11l23 161l45 11l33 234h210l-25 -181l106 26l-23 -161l-106 -26l-10 -77h253z" />
    <glyph glyph-name="lslash" unicode="&#x142;" horiz-adv-x="272" 
d="M289 294l-47 -14l-39 -280h-202l31 217l-44 -13l23 161l43 13l37 262h202l-28 -199l47 14z" />
    <glyph glyph-name="Nacute" unicode="&#x143;" horiz-adv-x="680" 
d="M415 843l138 -79v-43q-94 -53 -226 -89l-48 54zM606 0h-187l-166 279q-2 -27 -8 -69l-29 -210h-210l85 610h187l166 -275q2 25 8 65l29 210h210z" />
    <glyph glyph-name="nacute" unicode="&#x144;" horiz-adv-x="573" 
d="M497 659l-2 -43q-100 -61 -226 -99l-48 54l159 177zM271 490l-7 -53q98 62 165 62q78 0 106 -45.5t14 -145.5l-43 -308h-202l36 260q7 47 -24 47q-29 0 -75 -30l-38 -277h-202l68 490h202z" />
    <glyph glyph-name="Ncommaaccent" unicode="&#x145;" horiz-adv-x="680" 
d="M691 610l-85 -610h-187l-166 279q-2 -27 -8 -69l-29 -210h-210l85 610h187l166 -275q2 25 8 65l29 210h210zM223 -251l-17 53q33 12 45 23q-44 25 -36 80q4 28 25.5 46.5t52.5 18.5q37 0 57 -28t15 -68v-1q-8 -50 -42 -79t-100 -45z" />
    <glyph glyph-name="ncommaaccent" unicode="&#x146;" horiz-adv-x="573" 
d="M271 490l-7 -53q98 62 165 62q78 0 106 -45.5t14 -145.5l-43 -308h-202l36 260q7 47 -24 47q-29 0 -75 -30l-38 -277h-202l68 490h202zM168 -251l-17 53q33 12 45 23q-44 25 -36 80q4 28 25.5 46.5t52.5 18.5q37 0 57 -28t15 -68v-1q-8 -50 -42 -79t-100 -45z" />
    <glyph glyph-name="Ncaron" unicode="&#x147;" horiz-adv-x="680" 
d="M321 640l-118 144l54 52l134 -75l152 75l46 -52l-156 -144h-112zM691 610l-85 -610h-187l-166 279q-2 -27 -8 -69l-29 -210h-210l85 610h187l166 -275q2 25 8 65l29 210h210z" />
    <glyph glyph-name="ncaron" unicode="&#x148;" horiz-adv-x="573" 
d="M274 530l-111 146l49 47l121 -67l151 73l46 -53l-150 -146h-106zM271 490l-7 -53q98 62 165 62q78 0 106 -45.5t14 -145.5l-43 -308h-202l36 260q7 47 -24 47q-29 0 -75 -30l-38 -277h-202l68 490h202z" />
    <glyph glyph-name="Omacron" unicode="&#x14c;" horiz-adv-x="692" 
d="M591 803l-19 -139h-334l19 139h334zM396 620q155 0 227.5 -81t51.5 -230q-21 -153 -114.5 -235.5t-245.5 -82.5q-156 0 -228.5 82.5t-51.5 235.5q21 149 115 230t246 81zM330 181q55 0 90 33.5t44 94.5q8 59 -15.5 91t-74.5 32q-53 0 -86 -32t-42 -91q-8 -62 13.5 -95
t70.5 -33z" />
    <glyph glyph-name="omacron" unicode="&#x14d;" horiz-adv-x="562" 
d="M517 698l-21 -144h-344l21 144h344zM313 500q132 0 189 -65.5t39 -189.5q-32 -254 -292 -254q-132 0 -188.5 65t-39.5 189q18 128 92.5 191.5t199.5 63.5zM261 148q67 0 82 102q13 92 -46 92q-67 0 -82 -101q-14 -93 46 -93z" />
    <glyph glyph-name="Ohungarumlaut" unicode="&#x150;" horiz-adv-x="692" 
d="M322 847l123 -66l-2 -42q-111 -73 -166 -104l-67 46zM532 847l123 -66l-2 -42q-111 -73 -166 -104l-67 46zM396 620q155 0 227.5 -81t51.5 -230q-21 -153 -114.5 -235.5t-245.5 -82.5q-156 0 -228.5 82.5t-51.5 235.5q21 149 115 230t246 81zM330 181q55 0 90 33.5
t44 94.5q8 59 -15.5 91t-74.5 32q-53 0 -86 -32t-42 -91q-8 -62 13.5 -95t70.5 -33z" />
    <glyph glyph-name="ohungarumlaut" unicode="&#x151;" horiz-adv-x="562" 
d="M255 747l112 -66l-2 -43q-74 -62 -168 -113l-55 46zM455 747l112 -66l-2 -43q-74 -62 -168 -113l-55 46zM313 500q132 0 189 -65.5t39 -189.5q-32 -254 -292 -254q-132 0 -188.5 65t-39.5 189q18 128 92.5 191.5t199.5 63.5zM261 148q67 0 82 102q13 92 -46 92
q-67 0 -82 -101q-14 -93 46 -93z" />
    <glyph glyph-name="OE" unicode="&#x152;" horiz-adv-x="898" 
d="M615 437l-8 -56h227l-21 -151h-227l-8 -57h277l-24 -173h-422v-1q-39 -8 -94 -8q-150 0 -225.5 84.5t-54.5 233.5q22 151 116 231t245 80q41 0 89 -10h423l-24 -173h-269zM373 185l34 245q-18 2 -30 2q-113 0 -131 -123q-8 -63 15 -96.5t73 -33.5q21 0 39 6z" />
    <glyph glyph-name="oe" unicode="&#x153;" horiz-adv-x="858" 
d="M769 186l47 -120q-124 -75 -247 -75q-92 0 -150 41q-66 -41 -170 -41q-132 0 -188.5 65t-39.5 189q18 128 92.5 191.5t199.5 63.5q102 0 159 -39q64 39 161 39q111 0 166.5 -64t36.5 -177q-4 -25 -13 -64h-290q0 -29 12.5 -39.5t47.5 -10.5q31 0 62 6t51.5 12.5
t62.5 22.5zM548 293h120q13 70 -42 70t-78 -70zM261 148q67 0 82 102q13 92 -46 92q-67 0 -82 -101q-14 -93 46 -93z" />
    <glyph glyph-name="Racute" unicode="&#x154;" horiz-adv-x="630" 
d="M508 764v-43q-94 -53 -226 -89l-48 54l136 157zM91 610h257q147 0 206.5 -51t59.5 -155q0 -161 -117 -225l85 -160l-3 -19h-221l-59 145h-63l-20 -145h-210zM259 306h69q38 0 58 18.5t20 63.5q0 50 -72 50h-57z" />
    <glyph glyph-name="racute" unicode="&#x155;" horiz-adv-x="427" 
d="M421 659l-2 -43q-100 -61 -226 -99l-48 54l159 177zM271 490l-10 -75q37 47 66.5 65.5t66.5 18.5q24 0 59 -4l-34 -205h-57q-85 0 -127 -61l-32 -229h-202l68 490h202z" />
    <glyph glyph-name="Rcommaaccent" unicode="&#x156;" horiz-adv-x="630" 
d="M91 610h257q147 0 206.5 -51t59.5 -155q0 -161 -117 -225l85 -160l-3 -19h-221l-59 145h-63l-20 -145h-210zM259 306h69q38 0 58 18.5t20 63.5q0 50 -72 50h-57zM188 -251l-17 53q33 12 45 23q-44 25 -36 80q4 28 25.5 46.5t52.5 18.5q37 0 57 -28t15 -68v-1
q-8 -50 -42 -79t-100 -45z" />
    <glyph glyph-name="rcommaaccent" unicode="&#x157;" horiz-adv-x="427" 
d="M271 490l-10 -75q37 47 66.5 65.5t66.5 18.5q24 0 59 -4l-34 -205h-57q-85 0 -127 -61l-32 -229h-202l68 490h202zM20 -251l-17 53q33 12 45 23q-44 25 -36 80q4 28 25.5 46.5t52.5 18.5q37 0 57 -28t15 -68v-1q-8 -50 -42 -79t-100 -45z" />
    <glyph glyph-name="Rcaron" unicode="&#x158;" horiz-adv-x="620" 
d="M286 640l-118 144l54 52l134 -75l152 75l46 -52l-156 -144h-112zM91 610h257q147 0 206.5 -51t59.5 -155q0 -161 -117 -225l85 -160l-3 -19h-221l-59 145h-63l-20 -145h-210zM259 306h69q38 0 58 18.5t20 63.5q0 50 -72 50h-57z" />
    <glyph glyph-name="rcaron" unicode="&#x159;" horiz-adv-x="427" 
d="M198 530l-111 146l49 47l121 -67l151 73l46 -53l-150 -146h-106zM271 490l-10 -75q37 47 66.5 65.5t66.5 18.5q24 0 59 -4l-34 -205h-57q-85 0 -127 -61l-32 -229h-202l68 490h202z" />
    <glyph glyph-name="Sacute" unicode="&#x15a;" horiz-adv-x="628" 
d="M389 843l138 -79v-43q-94 -53 -226 -89l-48 54zM634 570l-64 -153q-153 39 -224 39q-24 0 -34.5 -5t-11.5 -17q-1 -13 13 -18.5t80 -23.5q23 -6 36 -10q92 -25 127 -62.5t35 -113.5q0 -91 -80 -153t-212 -62q-148 0 -300 81l84 157q138 -69 229 -69q50 0 50 23
q0 12 -19.5 20t-80.5 26l-28 8q-94 28 -129 65.5t-35 109.5q0 95 78 151.5t195 56.5q73 0 129.5 -10t161.5 -40z" />
    <glyph glyph-name="sacute" unicode="&#x15b;" horiz-adv-x="505" 
d="M348 748l117 -89l-2 -43q-100 -61 -226 -99l-48 54zM509 454l-62 -140q-51 21 -102 33.5t-72 12.5q-27 0 -28 -17q-1 -11 10.5 -16t54.5 -15q24 -6 38 -9q76 -19 104.5 -52t20.5 -94q-11 -82 -74.5 -124t-161.5 -42q-52 0 -123 18.5t-130 48.5l62 136q102 -59 192 -59
q29 0 30 14q1 6 -7 9.5t-40 12.5l-45 13q-85 25 -109 59t-13 110q10 69 65 108t144 39q113 0 246 -46z" />
    <glyph glyph-name="Scedilla" unicode="&#x15e;" horiz-adv-x="628" 
d="M634 570l-64 -153q-153 39 -224 39q-24 0 -34.5 -5t-11.5 -17q-1 -13 13 -18.5t80 -23.5q23 -6 36 -10q92 -25 127 -62.5t35 -113.5q0 -91 -80 -153t-212 -62h-9l-2 -14q63 -2 77 -20.5t7 -77.5q-5 -39 -33 -63.5t-75 -24.5q-63 0 -135 28l19 70q42 -8 65 -8q39 0 43 30
q2 12 -3 15.5t-29 3.5h-37l23 69q-111 20 -211 73l84 157q138 -69 229 -69q50 0 50 23q0 12 -19.5 20t-80.5 26l-28 8q-94 28 -129 65.5t-35 109.5q0 95 78 151.5t195 56.5q73 0 129.5 -10t161.5 -40z" />
    <glyph glyph-name="scedilla" unicode="&#x15f;" horiz-adv-x="505" 
d="M509 454l-62 -140q-51 21 -102 33.5t-72 12.5q-27 0 -28 -17q-1 -11 10.5 -16t54.5 -15q24 -6 38 -9q76 -19 104.5 -52t20.5 -94q-11 -82 -74.5 -124t-161.5 -42h-8l-2 -14q63 -2 77 -20.5t7 -77.5q-5 -39 -33 -63.5t-75 -24.5q-63 0 -135 28l19 70q42 -8 65 -8
q39 0 43 30q2 12 -3 15.5t-29 3.5h-37l23 71q-91 19 -165 57l62 136q102 -59 192 -59q29 0 30 14q1 6 -7 9.5t-40 12.5l-45 13q-85 25 -109 59t-13 110q10 69 65 108t144 39q113 0 246 -46z" />
    <glyph glyph-name="Scaron" unicode="&#x160;" horiz-adv-x="628" 
d="M315 640l-118 144l54 52l134 -75l152 75l46 -52l-156 -144h-112zM634 570l-64 -153q-153 39 -224 39q-24 0 -34.5 -5t-11.5 -17q-1 -13 13 -18.5t80 -23.5q23 -6 36 -10q92 -25 127 -62.5t35 -113.5q0 -91 -80 -153t-212 -62q-148 0 -300 81l84 157q138 -69 229 -69
q50 0 50 23q0 12 -19.5 20t-80.5 26l-28 8q-94 28 -129 65.5t-35 109.5q0 95 78 151.5t195 56.5q73 0 129.5 -10t161.5 -40z" />
    <glyph glyph-name="scaron" unicode="&#x161;" horiz-adv-x="505" 
d="M242 530l-111 146l49 47l121 -67l151 73l46 -53l-150 -146h-106zM509 454l-62 -140q-51 21 -102 33.5t-72 12.5q-27 0 -28 -17q-1 -11 10.5 -16t54.5 -15q24 -6 38 -9q76 -19 104.5 -52t20.5 -94q-11 -82 -74.5 -124t-161.5 -42q-52 0 -123 18.5t-130 48.5l62 136
q102 -59 192 -59q29 0 30 14q1 6 -7 9.5t-40 12.5l-45 13q-85 25 -109 59t-13 110q10 69 65 108t144 39q113 0 246 -46z" />
    <glyph glyph-name="Tcaron" unicode="&#x164;" horiz-adv-x="596" 
d="M299 640l-118 144l54 52l134 -75l152 75l46 -52l-156 -144h-112zM600 419h-173l-58 -419h-210l58 419h-173l27 191h556z" />
    <glyph glyph-name="tcaron" unicode="&#x165;" horiz-adv-x="421" 
d="M511 710l-3 -17q-24 -106 -78 -176h-90l27 193h144zM306 490h109l-23 -168h-109l-17 -120q-3 -25 4 -37t37 -12h59l11 -125q-58 -37 -166 -37q-91 0 -127 51t-21 160l17 120h-64l23 168h65l14 100h202z" />
    <glyph glyph-name="Umacron" unicode="&#x16a;" horiz-adv-x="662" 
d="M576 803l-19 -139h-334l19 139h334zM673 610l-43 -305q-23 -160 -103 -237t-228 -77q-149 0 -211 77.5t-40 236.5l43 305h210l-43 -305q-9 -63 5.5 -91.5t55.5 -28.5q85 0 101 120l43 305h210z" />
    <glyph glyph-name="umacron" unicode="&#x16b;" horiz-adv-x="578" 
d="M504 554h-344l21 144h344zM574 490l-68 -490h-202l6 44q-80 -53 -144 -53q-167 0 -140 191l43 308h202l-37 -265q-7 -47 21 -47q27 0 78 31l39 281h202z" />
    <glyph glyph-name="Uring" unicode="&#x16e;" horiz-adv-x="662" 
d="M409 865q52 0 82.5 -27.5t30.5 -67.5q0 -49 -35.5 -82.5t-91.5 -33.5q-52 0 -82.5 27.5t-30.5 67.5q0 50 35.5 83t91.5 33zM405 796q-18 0 -29 -12t-11 -29q0 -32 34 -32q18 0 29 12t11 29q0 32 -34 32zM673 610l-43 -305q-23 -160 -103 -237t-228 -77q-149 0 -211 77.5
t-40 236.5l43 305h210l-43 -305q-9 -63 5.5 -91.5t55.5 -28.5q85 0 101 120l43 305h210z" />
    <glyph glyph-name="uring" unicode="&#x16f;" horiz-adv-x="578" 
d="M337 536q-55 0 -85 34.5t-22 88.5q6 47 40 74.5t83 27.5q55 0 85 -35t22 -91q-6 -45 -40 -72t-83 -27zM308 646q-2 -14 7.5 -23.5t26.5 -9.5q35 0 40 38q2 15 -7 25t-26 10t-28 -11t-13 -29zM574 490l-68 -490h-202l6 44q-80 -53 -144 -53q-167 0 -140 191l43 308h202
l-37 -265q-7 -47 21 -47q27 0 78 31l39 281h202z" />
    <glyph glyph-name="Uhungarumlaut" unicode="&#x170;" horiz-adv-x="662" 
d="M307 847l123 -66l-2 -42q-111 -73 -166 -104l-67 46zM517 847l123 -66l-2 -42q-111 -73 -166 -104l-67 46zM673 610l-43 -305q-23 -160 -103 -237t-228 -77q-149 0 -211 77.5t-40 236.5l43 305h210l-43 -305q-9 -63 5.5 -91.5t55.5 -28.5q85 0 101 120l43 305h210z" />
    <glyph glyph-name="uhungarumlaut" unicode="&#x171;" horiz-adv-x="578" 
d="M375 681l-2 -43q-74 -62 -168 -113l-55 46l113 176zM350 571l113 176l112 -66l-2 -43q-74 -62 -168 -113zM372 490h202l-68 -490h-202l6 44q-80 -53 -144 -53q-167 0 -140 191l43 308h202l-37 -265q-7 -47 21 -47q27 0 78 31z" />
    <glyph glyph-name="Uogonek" unicode="&#x172;" horiz-adv-x="662" 
d="M673 610l-43 -305q-22 -155 -97.5 -232t-213.5 -82q-20 -12 -23 -34q-3 -19 47 -19q13 0 92 12l15 -100q-79 -30 -165 -30q-61 0 -94.5 29t-26.5 76q6 42 45 75q-197 42 -161 305l43 305h210l-43 -305q-9 -63 5.5 -91.5t55.5 -28.5q85 0 101 120l43 305h210z" />
    <glyph glyph-name="uogonek" unicode="&#x173;" horiz-adv-x="578" 
d="M506 0h-77q-41 0 -68 -14t-31 -39q-3 -19 47 -19q13 0 92 12l15 -100q-79 -30 -165 -30q-61 0 -94.5 29t-26.5 76q5 36 34 65t75 42l3 22q-80 -53 -144 -53q-167 0 -140 191l43 308h202l-37 -265q-7 -47 21 -47q27 0 78 31l39 281h202z" />
    <glyph glyph-name="Wcircumflex" unicode="&#x174;" horiz-adv-x="954" 
d="M392 634l-46 52l156 144h112l118 -144l-54 -52l-134 75zM991 610l-215 -610h-272l-14 198q-2 30 -4 100q-22 -73 -36 -111l-66 -187h-252l-65 610h221l15 -316q1 -20 1 -58q2 8 8.5 30.5t10.5 39.5l91 304h226l4 -316v-59q8 33 20 71l102 304h225z" />
    <glyph glyph-name="wcircumflex" unicode="&#x175;" horiz-adv-x="799" 
d="M634 587l-49 -53q-23 13 -66.5 34t-62.5 31l-132 -65l-47 53l140 133h106zM830 490l-180 -490h-231l-23 209l-82 -209h-220l-55 490h201l14 -252v-27q8 26 13 39l95 240h143l24 -252q1 -6 1 -16t1 -16q4 20 12 44l82 240h205z" />
    <glyph glyph-name="Ycircumflex" unicode="&#x176;" horiz-adv-x="676" 
d="M252 634l-46 52l156 144h112l118 -144l-54 -52l-134 75zM436 186l-26 -186h-210l25 186l-168 424h217l47 -135q18 -43 31 -93q34 64 62 103l86 125h223z" />
    <glyph glyph-name="ycircumflex" unicode="&#x177;" horiz-adv-x="584" 
d="M526 587l-49 -53q-23 13 -66.5 34t-62.5 31l-132 -65l-47 53l140 133h106zM402 490h217l-48 -107.5l-51.5 -114.5t-43 -88t-49.5 -89q-113 -184 -357 -299l-64 155q90 50 139 92l-110 451h209l35 -180q10 -47 14 -82q12 22 22.5 43.5t23 52.5l18.5 46l23 60.5z" />
    <glyph glyph-name="Ydieresis" unicode="&#x178;" horiz-adv-x="676" 
d="M292 654q-38 0 -64 27t-20 71q5 35 32.5 55t60.5 20q42 0 67 -27t18 -72q-5 -35 -31.5 -54.5t-62.5 -19.5zM512 654q-42 0 -66.5 26.5t-18.5 71.5q5 36 31.5 55.5t62.5 19.5q38 0 64 -27.5t20 -71.5q-5 -35 -32.5 -54.5t-60.5 -19.5zM436 186l-26 -186h-210l25 186
l-168 424h217l47 -135q18 -43 31 -93q34 64 62 103l86 125h223z" />
    <glyph glyph-name="Zacute" unicode="&#x179;" horiz-adv-x="617" 
d="M384 843l138 -79v-43q-94 -53 -226 -89l-48 54zM611 447l-273 -269q77 5 132 5h106l-25 -183h-550l20 153l301 278q-94 -4 -139 -4h-97l25 183h521z" />
    <glyph glyph-name="zacute" unicode="&#x17a;" horiz-adv-x="544" 
d="M367 748l117 -89l-2 -43q-100 -61 -226 -99l-48 54zM513 367l-211 -212q92 2 112 2h83l-22 -157h-474l18 128l223 206q-36 -1 -100 -1h-85l22 157h451z" />
    <glyph glyph-name="Zdotaccent" unicode="&#x17b;" horiz-adv-x="617" 
d="M384 836q42 0 70.5 -29.5t22.5 -78.5q-6 -39 -36.5 -61t-67.5 -22q-46 0 -73 29t-20 78q6 40 35 62t69 22zM611 447l-273 -269q77 5 132 5h106l-25 -183h-550l20 153l301 278q-94 -4 -139 -4h-97l25 183h521z" />
    <glyph glyph-name="zdotaccent" unicode="&#x17c;" horiz-adv-x="544" 
d="M332 731q44 0 74 -31t23 -82q-6 -41 -38.5 -64.5t-70.5 -23.5q-48 0 -76 30.5t-21 81.5q6 43 36.5 66t72.5 23zM513 367l-211 -212q92 2 112 2h83l-22 -157h-474l18 128l223 206q-36 -1 -100 -1h-85l22 157h451z" />
    <glyph glyph-name="Zcaron" unicode="&#x17d;" horiz-adv-x="617" 
d="M310 640l-118 144l54 52l134 -75l152 75l46 -52l-156 -144h-112zM611 447l-273 -269q77 5 132 5h106l-25 -183h-550l20 153l301 278q-94 -4 -139 -4h-97l25 183h521z" />
    <glyph glyph-name="zcaron" unicode="&#x17e;" horiz-adv-x="544" 
d="M261 530l-111 146l49 47l121 -67l151 73l46 -53l-150 -146h-106zM513 367l-211 -212q92 2 112 2h83l-22 -157h-474l18 128l223 206q-36 -1 -100 -1h-85l22 157h451z" />
    <glyph glyph-name="florin" unicode="&#x192;" horiz-adv-x="594" 
d="M618 509l-65 -121q-80 18 -122 18q-85 0 -126 -120h161l-44 -130h-159l-51 -156h-204l49 156h-51l44 130h48q47 145 121.5 213t186.5 68q108 0 212 -58z" />
    <glyph glyph-name="Acaron" unicode="&#x1cd;" horiz-adv-x="718" 
d="M361 640l-118 144l54 52l134 -75l152 75l46 -52l-156 -144h-112zM447 84h-216l-38 -84h-222l295 610h288l125 -610h-218zM418 255l-19 112q-3 15 -9 72h-1q-8 -24 -29 -72l-51 -112h109z" />
    <glyph glyph-name="Scommaaccent" unicode="&#x218;" horiz-adv-x="628" 
d="M634 570l-64 -153q-153 39 -224 39q-24 0 -34.5 -5t-11.5 -17q-1 -13 13 -18.5t80 -23.5q23 -6 36 -10q92 -25 127 -62.5t35 -113.5q0 -91 -80 -153t-212 -62q-148 0 -300 81l84 157q138 -69 229 -69q50 0 50 23q0 12 -19.5 20t-80.5 26l-28 8q-94 28 -129 65.5
t-35 109.5q0 95 78 151.5t195 56.5q73 0 129.5 -10t161.5 -40zM197 -251l-17 53q33 12 45 23q-44 25 -36 80q4 28 25.5 46.5t52.5 18.5q37 0 57 -28t15 -68v-1q-8 -50 -42 -79t-100 -45z" />
    <glyph glyph-name="scommaaccent" unicode="&#x219;" horiz-adv-x="505" 
d="M509 454l-62 -140q-51 21 -102 33.5t-72 12.5q-27 0 -28 -17q-1 -11 10.5 -16t54.5 -15q24 -6 38 -9q76 -19 104.5 -52t20.5 -94q-11 -82 -74.5 -124t-161.5 -42q-52 0 -123 18.5t-130 48.5l62 136q102 -59 192 -59q29 0 30 14q1 6 -7 9.5t-40 12.5l-45 13
q-85 25 -109 59t-13 110q10 69 65 108t144 39q113 0 246 -46zM136 -251l-17 53q33 12 45 23q-44 25 -36 80q4 28 25.5 46.5t52.5 18.5q37 0 57 -28t15 -68v-1q-8 -50 -42 -79t-100 -45z" />
    <glyph glyph-name="uni021A" unicode="&#x21a;" horiz-adv-x="596" 
d="M600 419h-173l-58 -419h-210l58 419h-173l27 191h556zM181 -251l-17 53q33 12 45 23q-44 25 -36 80q4 28 25.5 46.5t52.5 18.5q37 0 57 -28t15 -68v-1q-8 -50 -42 -79t-100 -45z" />
    <glyph glyph-name="uni021B" unicode="&#x21b;" horiz-adv-x="414" 
d="M283 322l-17 -120q-3 -25 4 -37t37 -12h59l11 -125q-58 -37 -166 -37q-91 0 -127 51t-21 160l17 120h-64l23 168h65l14 100h202l-14 -100h109l-23 -168h-109zM100 -251l-17 53q33 12 45 23q-44 25 -36 80q4 28 25.5 46.5t52.5 18.5q37 0 57 -28t15 -68v-1q-8 -50 -42 -79
t-100 -45z" />
    <glyph glyph-name="circumflex" unicode="&#x2c6;" 
d="M484 587l-49 -53q-23 13 -66.5 34t-62.5 31l-132 -65l-47 53l140 133h106z" />
    <glyph glyph-name="caron" unicode="&#x2c7;" 
d="M495 676l-150 -146h-106l-111 146l49 47l121 -67l151 73z" />
    <glyph glyph-name="breve" unicode="&#x2d8;" 
d="M376 695h113q-10 -71 -54.5 -109.5t-120.5 -38.5q-83 0 -121.5 39t-28.5 109h111q-1 -10 1 -17.5t12.5 -14.5t29.5 -7q48 0 58 39z" />
    <glyph glyph-name="dotaccent" unicode="&#x2d9;" 
d="M310 731q44 0 74 -31t23 -82q-6 -41 -38.5 -64.5t-70.5 -23.5q-48 0 -76 30.5t-21 81.5q6 43 36.5 66t72.5 23z" />
    <glyph glyph-name="ring" unicode="&#x2da;" 
d="M314 761q55 0 85 -35t22 -91q-6 -45 -40 -72t-83 -27q-55 0 -85 34.5t-22 88.5q6 47 40 74.5t83 27.5zM310 686q-17 0 -28 -11t-13 -29q-2 -14 7.5 -23.5t26.5 -9.5q35 0 40 38q2 15 -7 25t-26 10z" />
    <glyph glyph-name="ogonek" unicode="&#x2db;" 
d="M327 -60l15 -100q-79 -30 -165 -30q-61 0 -94.5 29t-26.5 76q7 50 57.5 83.5t125.5 33.5l48 -32q-41 0 -68 -14t-31 -39q-3 -19 47 -19q13 0 92 12z" />
    <glyph glyph-name="tilde" unicode="&#x2dc;" 
d="M426 706l74 -10q-8 -55 -32.5 -90.5t-55.5 -46.5t-61.5 -10t-56.5 13l-49 29q-9 5 -15.5 6t-16 -5.5t-15 -12l-21.5 -22.5l-68 10q8 55 30.5 89.5t52.5 45t59 9t56 -13.5l49 -26q9 -4 15.5 -5t14.5 4t13.5 10t18.5 18z" />
    <glyph glyph-name="hungarumlaut" unicode="&#x2dd;" 
d="M224 747l112 -66l-2 -43q-74 -62 -168 -113l-55 46zM424 747l112 -66l-2 -43q-74 -62 -168 -113l-55 46z" />
    <glyph glyph-name="commaturnedabovecomb" unicode="&#x312;" horiz-adv-x="0" 
d="M380 793l22 -59q-33 -10 -51 -26q23 -13 33.5 -37.5t6.5 -53.5q-5 -33 -30.5 -55t-61.5 -22q-42 0 -65 32t-16 77q7 51 44 84t118 60z" />
    <glyph glyph-name="commaaccentcomb" unicode="&#x326;" horiz-adv-x="0" 
d="M133 -251l-17 53q33 12 45 23q-44 25 -36 80q4 28 25.5 46.5t52.5 18.5q37 0 57 -28t15 -68v-1q-8 -50 -42 -79t-100 -45z" />
    <glyph glyph-name="Wgrave" unicode="&#x1e80;" horiz-adv-x="954" 
d="M656 686l-52 -50q-115 33 -202 91v37l157 79zM776 0h-272l-14 198q-2 30 -4 100q-22 -73 -36 -111l-66 -187h-252l-65 610h221l15 -316q1 -20 1 -58q2 8 8.5 30.5t10.5 39.5l91 304h226l4 -316v-59q8 33 20 71l102 304h225z" />
    <glyph glyph-name="wgrave" unicode="&#x1e81;" horiz-adv-x="799" 
d="M570 571l-52 -50q-118 38 -201 101v37l139 89zM240 490l14 -252v-27q8 26 13 39l95 240h143l24 -252q1 -6 1 -16t1 -16q4 20 12 44l82 240h205l-180 -490h-231l-23 209l-82 -209h-220l-55 490h201z" />
    <glyph glyph-name="Wacute" unicode="&#x1e82;" horiz-adv-x="954" 
d="M552 843l138 -79v-43q-94 -53 -226 -89l-48 54zM776 0h-272l-14 198q-2 30 -4 100q-22 -73 -36 -111l-66 -187h-252l-65 610h221l15 -316q1 -20 1 -58q2 8 8.5 30.5t10.5 39.5l91 304h226l4 -316v-59q8 33 20 71l102 304h225z" />
    <glyph glyph-name="wacute" unicode="&#x1e83;" horiz-adv-x="799" 
d="M495 748l117 -89l-2 -43q-100 -61 -226 -99l-48 54zM240 490l14 -252v-27q8 26 13 39l95 240h143l24 -252q1 -6 1 -16t1 -16q4 20 12 44l82 240h205l-180 -490h-231l-23 209l-82 -209h-220l-55 490h201z" />
    <glyph glyph-name="Wdieresis" unicode="&#x1e84;" horiz-adv-x="954" 
d="M441 827q42 0 67 -27t18 -72q-5 -35 -31.5 -54.5t-62.5 -19.5q-38 0 -64 27t-20 71q5 35 32.5 55t60.5 20zM661 827q38 0 64 -27.5t20 -71.5q-5 -35 -32.5 -54.5t-60.5 -19.5q-42 0 -66.5 26.5t-18.5 71.5q5 36 31.5 55.5t62.5 19.5zM776 0h-272l-14 198q-2 30 -4 100
q-22 -73 -36 -111l-66 -187h-252l-65 610h221l15 -316q1 -20 1 -58q2 8 8.5 30.5t10.5 39.5l91 304h226l4 -316v-59q8 33 20 71l102 304h225z" />
    <glyph glyph-name="wdieresis" unicode="&#x1e85;" horiz-adv-x="799" 
d="M348 716q44 0 70 -28t19 -75q-6 -38 -33 -58t-65 -20q-41 0 -68 28t-21 74q6 37 34.5 58t63.5 21zM568 716q41 0 68 -28.5t21 -74.5q-6 -37 -34.5 -57.5t-63.5 -20.5q-44 0 -70 27.5t-19 74.5q6 38 33 58.5t65 20.5zM240 490l14 -252v-27q8 26 13 39l95 240h143l24 -252
q1 -6 1 -16t1 -16q4 20 12 44l82 240h205l-180 -490h-231l-23 209l-82 -209h-220l-55 490h201z" />
    <glyph glyph-name="Ygrave" unicode="&#x1ef2;" horiz-adv-x="676" 
d="M516 686l-52 -50q-115 33 -202 91v37l157 79zM436 186l-26 -186h-210l25 186l-168 424h217l47 -135q18 -43 31 -93q34 64 62 103l86 125h223z" />
    <glyph glyph-name="ygrave" unicode="&#x1ef3;" horiz-adv-x="584" 
d="M452 571l-52 -50q-118 38 -201 101v37l139 89zM402 490h217l-48 -107.5l-51.5 -114.5t-43 -88t-49.5 -89q-113 -184 -357 -299l-64 155q90 50 139 92l-110 451h209l35 -180q10 -47 14 -82q12 22 22.5 43.5t23 52.5l18.5 46l23 60.5z" />
    <glyph glyph-name="uni2009" unicode="&#x2009;" horiz-adv-x="80" 
 />
    <glyph glyph-name="endash" unicode="&#x2013;" horiz-adv-x="497" 
d="M65 343h394l-21 -150h-394z" />
    <glyph glyph-name="emdash" unicode="&#x2014;" horiz-adv-x="947" 
d="M65 343h844l-21 -150h-844z" />
    <glyph glyph-name="quoteleft" unicode="&#x2018;" horiz-adv-x="298" 
d="M266 660l46 -71q-63 -47 -79 -69q63 -29 57 -105q-4 -49 -39 -81.5t-85 -32.5t-79 35.5t-24 88.5q5 61 61.5 127t141.5 108z" />
    <glyph glyph-name="quoteright" unicode="&#x2019;" horiz-adv-x="300" 
d="M103 301l-46 71q63 47 79 69q-29 14 -44.5 42t-12.5 63q4 49 39 81.5t85 32.5t79 -35.5t24 -88.5q-5 -61 -61.5 -127t-141.5 -108z" />
    <glyph glyph-name="quotesinglbase" unicode="&#x201a;" horiz-adv-x="300" 
d="M41 -140l-46 71q63 47 79 69q-29 14 -44.5 42t-12.5 63q4 49 39 81.5t85 32.5t79 -35.5t24 -88.5q-5 -61 -61.5 -127t-141.5 -108z" />
    <glyph glyph-name="quotedblleft" unicode="&#x201c;" horiz-adv-x="558" 
d="M266 660l46 -71q-63 -47 -79 -69q63 -29 57 -105q-4 -49 -39 -81.5t-85 -32.5t-79 35.5t-24 88.5q5 61 61.5 127t141.5 108zM526 660l46 -71q-63 -47 -79 -69q63 -29 57 -105q-4 -49 -39 -81.5t-85 -32.5t-79 35.5t-24 88.5q5 61 61.5 127t141.5 108z" />
    <glyph glyph-name="quotedblright" unicode="&#x201d;" horiz-adv-x="560" 
d="M103 301l-46 71q63 47 79 69q-29 14 -44.5 42t-12.5 63q4 49 39 81.5t85 32.5t79 -35.5t24 -88.5q-5 -61 -61.5 -127t-141.5 -108zM363 301l-46 71q63 47 79 69q-63 29 -57 105q4 49 39 81.5t85 32.5t79 -35.5t24 -88.5q-5 -61 -61.5 -127t-141.5 -108z" />
    <glyph glyph-name="quotedblbase" unicode="&#x201e;" horiz-adv-x="560" 
d="M41 -140l-46 71q63 47 79 69q-29 14 -44.5 42t-12.5 63q4 49 39 81.5t85 32.5t79 -35.5t24 -88.5q-5 -61 -61.5 -127t-141.5 -108zM301 -140l-46 71q63 47 79 69q-29 14 -44.5 42t-12.5 63q4 49 39 81.5t85 32.5t79 -35.5t24 -88.5q-5 -61 -61.5 -127t-141.5 -108z" />
    <glyph glyph-name="dagger" unicode="&#x2020;" horiz-adv-x="532" 
d="M501 311l-159 -13l-72 -402h-106l41 402l-156 13l15 106l162 13l38 180h106l-12 -180l158 -13z" />
    <glyph glyph-name="daggerdbl" unicode="&#x2021;" horiz-adv-x="532" 
d="M345 299l-13 -86l154 -12l-15 -106l-162 -13l-38 -180h-106l12 180l-158 13l15 106l156 12l13 86l-154 12l15 106l162 13l38 180h106l-12 -180l158 -13l-15 -106z" />
    <glyph glyph-name="bullet" unicode="&#x2022;" horiz-adv-x="367" 
d="M35 262q5 64 50.5 106.5t111.5 42.5q65 0 102.5 -42.5t32.5 -106.5q-5 -63 -50.5 -105.5t-110.5 -42.5q-66 0 -103.5 42.5t-32.5 105.5z" />
    <glyph glyph-name="ellipsis" unicode="&#x2026;" horiz-adv-x="894" 
d="M139 219q50 0 79.5 -32.5t24.5 -81.5t-39.5 -81.5t-84.5 -32.5t-79.5 32.5t-24.5 81.5t39.5 81.5t84.5 32.5zM437 219q50 0 79.5 -32.5t24.5 -81.5t-39.5 -81.5t-84.5 -32.5t-79.5 32.5t-24.5 81.5t39.5 81.5t84.5 32.5zM735 219q50 0 79.5 -32.5t24.5 -81.5t-39.5 -81.5
t-84.5 -32.5t-79.5 32.5t-24.5 81.5t39.5 81.5t84.5 32.5z" />
    <glyph glyph-name="perthousand" unicode="&#x2030;" horiz-adv-x="1296" 
d="M250 621q91 0 130.5 -53t26.5 -149q-27 -188 -204 -188q-91 0 -130.5 52.5t-26.5 147.5q14 96 63.5 143t140.5 47zM607 610h116l-421 -610h-116zM212 348q30 0 44 20.5t20 62.5q5 40 -2.5 57t-31.5 17q-30 0 -44.5 -21t-20.5 -65q-7 -38 1 -54.5t34 -16.5zM713 381
q91 0 130.5 -53t26.5 -149q-27 -188 -204 -188q-91 0 -130.5 52.5t-26.5 147.5q14 96 63.5 143t140.5 47zM1113 381q91 0 130.5 -53t26.5 -149q-27 -188 -204 -188q-91 0 -130.5 52.5t-26.5 147.5q14 96 63.5 143t140.5 47zM675 108q30 0 44 20.5t20 62.5q5 40 -2.5 57
t-31.5 17q-30 0 -44.5 -21t-20.5 -65q-7 -38 1 -54.5t34 -16.5zM1075 108q30 0 44 20.5t20 62.5q5 40 -2.5 57t-31.5 17q-30 0 -44.5 -21t-20.5 -65q-7 -38 1 -54.5t34 -16.5z" />
    <glyph glyph-name="guilsinglleft" unicode="&#x2039;" horiz-adv-x="395" 
d="M375 382l-97 -90q-22 -20 -48 -36q17 -15 32 -32l78 -83l-111 -98l-206 220l262 220z" />
    <glyph glyph-name="guilsinglright" unicode="&#x203a;" horiz-adv-x="395" 
d="M378 263l-264 -220l-90 98l97 91q15 13 49 37q-22 20 -31 31l-80 82l113 101z" />
    <glyph glyph-name="fraction" unicode="&#x2044;" horiz-adv-x="208" 
d="M265 610h116l-421 -610h-116z" />
    <glyph glyph-name="Euro" unicode="&#x20ac;" horiz-adv-x="542" 
d="M367 206h-115q2 -34 18 -44.5t46 -10.5q60 0 146 39l53 -130q-60 -38 -113 -53.5t-124 -15.5q-95 0 -157.5 55t-68.5 160h-50l7 50h44q0 16 3 32l1 8h-43l7 50h47q29 100 102.5 158.5t172.5 58.5q101 0 212 -57l-66 -128q-68 24 -122 24q-59 0 -88 -56h157l-27 -50h-148
q-2 -10 -6 -32l-1 -8h138z" />
    <glyph glyph-name="uni2116" unicode="&#x2116;" horiz-adv-x="1130" 
d="M606 0h-187l-166 279q-2 -27 -8 -69l-29 -210h-210l85 610h187l166 -275q2 25 8 65l29 210h210zM924 580q95 0 141.5 -53.5t33.5 -149.5q-13 -86 -67.5 -131t-144.5 -45q-96 0 -142 52.5t-33 147.5q12 87 67 133t145 46zM891 326q49 0 56 75q3 30 -4 41t-24 11
q-49 0 -55 -76q-3 -29 3.5 -40t23.5 -11zM1048 151l-21 -151h-352l21 151h352z" />
    <glyph glyph-name="trademark" unicode="&#x2122;" horiz-adv-x="795" 
d="M353 505h-92l-29 -201h-120l29 201h-94l15 105h306zM662 432l-68 -128h-85l-30 128l-22 -128h-116l57 306h131l38 -141l5 -27q1 2 5 11.5t7 15.5l78 141h130l-29 -306h-118z" />
    <glyph glyph-name="oneeighth" unicode="&#x215b;" horiz-adv-x="914" 
d="M32 231l15 109h88l16 120q-34 -6 -72 -9l-20 91q87 34 138 68h106l-38 -270h76l-15 -109h-294zM729 610l-421 -610h-116l421 610h116zM860 275q-7 -47 -71 -75q37 -19 53 -41.5t11 -56.5q-7 -56 -53 -84t-124 -27q-97 0 -137 32.5t-31 90.5q7 55 79 88q-47 32 -40 78
q14 101 174 101q74 0 110 -28.5t29 -77.5zM742 280q3 22 -30 22q-36 0 -41 -32q-2 -10 3.5 -16.5t23.5 -14.5q40 16 44 41zM716 120q4 21 -40 41q-40 -20 -45 -46q-2 -14 7.5 -20.5t30.5 -6.5q19 0 32 9t15 23z" />
    <glyph glyph-name="threeeighths" unicode="&#x215c;" horiz-adv-x="908" 
d="M95 497l-23 88q95 35 170 35q62 0 100 -32.5t31 -81.5q-8 -59 -63 -79q58 -24 49 -82q-15 -115 -168 -115q-91 0 -168 46l39 82q63 -29 129 -29q44 0 47 30q1 12 -12.5 15.5t-53.5 3.5h-50l13 95h50q64 0 68 26q2 13 -6 17t-30 4q-34 0 -122 -23zM727 610l-421 -610h-116
l421 610h116zM858 275q-7 -47 -71 -75q37 -19 53 -41.5t11 -56.5q-7 -56 -53 -84t-124 -27q-97 0 -137 32.5t-31 90.5q7 55 79 88q-47 32 -40 78q14 101 174 101q74 0 110 -28.5t29 -77.5zM740 280q3 22 -30 22q-36 0 -41 -32q-2 -10 3.5 -16.5t23.5 -14.5q40 16 44 41z
M714 120q4 21 -40 41q-40 -20 -45 -46q-2 -14 7.5 -20.5t30.5 -6.5q19 0 32 9t15 23z" />
    <glyph glyph-name="fiveeighths" unicode="&#x215d;" horiz-adv-x="934" 
d="M195 503l-9 -41q35 19 80 19q55 0 83.5 -34t20.5 -91q-9 -64 -57 -97t-115 -33q-96 0 -175 46l40 88q66 -29 122 -29q21 0 40.5 12t21.5 29q5 27 -27 27q-26 0 -54 -25l-103 15l43 221h282l-15 -107h-178zM730 610l-421 -610h-116l421 610h116zM871 275q-7 -47 -71 -75
q37 -19 53 -41.5t11 -56.5q-7 -56 -53 -84t-124 -27q-97 0 -137 32.5t-31 90.5q7 55 79 88q-47 32 -40 78q14 101 174 101q74 0 110 -28.5t29 -77.5zM753 280q3 22 -30 22q-36 0 -41 -32q-2 -10 3.5 -16.5t23.5 -14.5q40 16 44 41zM727 120q4 21 -40 41q-40 -20 -45 -46
q-2 -14 7.5 -20.5t30.5 -6.5q19 0 32 9t15 23z" />
    <glyph glyph-name="seveneighths" unicode="&#x215e;" horiz-adv-x="838" 
d="M375 610l-14 -97q-106 -149 -161 -282h-153q94 179 167 270h-161l15 109h307zM529 610h116l-421 -610h-116zM647 381q74 0 110 -28.5t29 -77.5q-7 -47 -71 -75q37 -19 53 -41.5t11 -56.5q-7 -56 -53 -84t-124 -27q-97 0 -137 32.5t-31 90.5q7 55 79 88q-47 32 -40 78
q14 101 174 101zM638 302q-36 0 -41 -32q-2 -10 3.5 -16.5t23.5 -14.5q40 16 44 41q3 22 -30 22zM602 161q-40 -20 -45 -46q-2 -14 7.5 -20.5t30.5 -6.5q19 0 32 9t15 23q4 21 -40 41z" />
    <glyph glyph-name="arrowleft" unicode="&#x2190;" horiz-adv-x="638" 
d="M623 212h-292l97 -97l-119 -119l-289 300l289 302l119 -119l-98 -98h293v-169z" />
    <glyph glyph-name="arrowup" unicode="&#x2191;" horiz-adv-x="665" 
d="M527 211l-109 104v-315h-170v316l-110 -105l-118 119l313 289l312 -289z" />
    <glyph glyph-name="arrowright" unicode="&#x2192;" horiz-adv-x="638" 
d="M618 296l-289 -300l-119 119l97 97h-292v169h293l-98 98l119 119z" />
    <glyph glyph-name="arrowdown" unicode="&#x2193;" horiz-adv-x="665" 
d="M645 280l-312 -289l-313 289l118 119l110 -105v316h170v-315l109 104z" />
    <glyph glyph-name="arrowupleft" unicode="&#x2196;" horiz-adv-x="669" 
d="M529 1l-324 324l3 -161h-168v446h445v-167l-161 3l325 -326z" />
    <glyph glyph-name="arrowupright" unicode="&#x2197;" horiz-adv-x="669" 
d="M629 610v-446h-168l3 161l-324 -324l-120 119l325 326l-161 -3v167h445z" />
    <glyph glyph-name="arrowdownright" unicode="&#x2198;" horiz-adv-x="669" 
d="M629 446v-446h-445v167l161 -3l-325 326l120 119l324 -324l-3 161h168z" />
    <glyph glyph-name="arrowdownleft" unicode="&#x2199;" horiz-adv-x="669" 
d="M324 164l161 3v-167h-445v446h168l-3 -161l324 324l120 -119z" />
    <glyph glyph-name="minus" unicode="&#x2212;" horiz-adv-x="513" 
d="M452 173h-411l19 145h413z" />
    <glyph glyph-name="J.ss01" horiz-adv-x="324" 
d="M336 610l-64 -456q-16 -112 -64.5 -172t-159.5 -108l-74 139q30 20 43 31t25 32t16 50l68 484h210z" />
    <glyph glyph-name="K.ss02" horiz-adv-x="663" 
d="M686 594l-208 -287l131 -285l-4 -22h-238l-74 189h-51l-26 -189h-210l85 610h210l-28 -203h40l135 203h241z" />
    <glyph glyph-name="Kcommaaccent.ss02" horiz-adv-x="663" 
d="M686 594l-208 -287l131 -285l-4 -22h-238l-74 189h-51l-26 -189h-210l85 610h210l-28 -203h40l135 203h241zM208 -251l-17 53q33 12 45 23q-44 25 -36 80q4 28 25.5 46.5t52.5 18.5q37 0 57 -28t15 -68v-1q-8 -50 -42 -79t-100 -45z" />
    <glyph glyph-name="Q.ss03" horiz-adv-x="692" 
d="M602 -6l-157 -107q-38 52 -72 107q-27 -3 -58 -3q-156 0 -228.5 82.5t-51.5 235.5q21 149 115 230t246 81q155 0 227.5 -81t51.5 -230q-23 -165 -130 -248zM246 309q-8 -62 13.5 -95t70.5 -33q55 0 90 33.5t44 94.5q8 59 -15.5 91t-74.5 32q-53 0 -86 -32t-42 -91z" />
    <glyph glyph-name="R.ss04" horiz-adv-x="633" 
d="M91 610h267q128 0 192.5 -50.5t64.5 -143.5q0 -169 -121 -200q27 -14 44.5 -40.5t24.5 -63t8.5 -58t2.5 -54.5h-237q-1 30 -2 48t-4.5 39t-10 32t-18 18.5t-28.5 7.5h-38l-20 -145h-210zM258 305h57q43 0 66.5 21.5t23.5 60.5q0 51 -73 51h-55z" />
    <glyph glyph-name="Racute.ss04" horiz-adv-x="633" 
d="M518 764v-43q-94 -53 -226 -89l-48 54l136 157zM91 610h267q128 0 192.5 -50.5t64.5 -143.5q0 -169 -121 -200q27 -14 44.5 -40.5t24.5 -63t8.5 -58t2.5 -54.5h-237q-1 30 -2 48t-4.5 39t-10 32t-18 18.5t-28.5 7.5h-38l-20 -145h-210zM258 305h57q43 0 66.5 21.5
t23.5 60.5q0 51 -73 51h-55z" />
    <glyph glyph-name="Rcaron.ss04" horiz-adv-x="633" 
d="M306 640l-118 144l54 52l134 -75l152 75l46 -52l-156 -144h-112zM91 610h267q128 0 192.5 -50.5t64.5 -143.5q0 -169 -121 -200q27 -14 44.5 -40.5t24.5 -63t8.5 -58t2.5 -54.5h-237q-1 30 -2 48t-4.5 39t-10 32t-18 18.5t-28.5 7.5h-38l-20 -145h-210zM258 305h57
q43 0 66.5 21.5t23.5 60.5q0 51 -73 51h-55z" />
    <glyph glyph-name="Rcommaaccent.ss04" horiz-adv-x="633" 
d="M91 610h267q128 0 192.5 -50.5t64.5 -143.5q0 -169 -121 -200q27 -14 44.5 -40.5t24.5 -63t8.5 -58t2.5 -54.5h-237q-1 30 -2 48t-4.5 39t-10 32t-18 18.5t-28.5 7.5h-38l-20 -145h-210zM258 305h57q43 0 66.5 21.5t23.5 60.5q0 51 -73 51h-55zM188 -251l-17 53
q33 12 45 23q-44 25 -36 80q4 28 25.5 46.5t52.5 18.5q37 0 57 -28t15 -68v-1q-8 -50 -42 -79t-100 -45z" />
    <glyph glyph-name="k.ss02" horiz-adv-x="579" 
d="M595 476l-168 -219l109 -239l-3 -18h-217l-61 159h-30l-22 -159h-202l90 640h202l-41 -293h28l100 143h217z" />
    <glyph glyph-name="kcommaaccent.ss02" horiz-adv-x="579" 
d="M595 476l-168 -219l109 -239l-3 -18h-217l-61 159h-30l-22 -159h-202l90 640h202l-41 -293h28l100 143h217zM163 -251l-17 53q33 12 45 23q-44 25 -36 80q4 28 25.5 46.5t52.5 18.5q37 0 57 -28t15 -68v-1q-8 -50 -42 -79t-100 -45z" />
    <glyph glyph-name="a.ss05" horiz-adv-x="534" 
d="M110 327l-21 134q130 39 229 39q111 0 157.5 -49.5t32.5 -151.5l-42 -299h-202l6 44q-60 -53 -124 -53q-83 0 -119.5 36.5t-24.5 124.5q11 77 65.5 112t156.5 35h82q4 28 -4 38.5t-39 10.5q-51 0 -153 -21zM294 214h-34q-30 0 -47.5 -14t-19.5 -34q-4 -29 28 -29
q28 0 64 15z" />
    <glyph glyph-name="aacute.ss05" horiz-adv-x="534" 
d="M473 659l-2 -43q-100 -61 -226 -99l-48 54l159 177zM110 327l-21 134q130 39 229 39q111 0 157.5 -49.5t32.5 -151.5l-42 -299h-202l6 44q-60 -53 -124 -53q-83 0 -119.5 36.5t-24.5 124.5q11 77 65.5 112t156.5 35h82q4 28 -4 38.5t-39 10.5q-51 0 -153 -21zM294 214
h-34q-30 0 -47.5 -14t-19.5 -34q-4 -29 28 -29q28 0 64 15z" />
    <glyph glyph-name="abreve.ss05" horiz-adv-x="534" 
d="M387 695h113q-10 -71 -54.5 -109.5t-120.5 -38.5q-83 0 -121.5 39t-28.5 109h111q-1 -10 1 -17.5t12.5 -14.5t29.5 -7q48 0 58 39zM110 327l-21 134q130 39 229 39q111 0 157.5 -49.5t32.5 -151.5l-42 -299h-202l6 44q-60 -53 -124 -53q-83 0 -119.5 36.5t-24.5 124.5
q11 77 65.5 112t156.5 35h82q4 28 -4 38.5t-39 10.5q-51 0 -153 -21zM294 214h-34q-30 0 -47.5 -14t-19.5 -34q-4 -29 28 -29q28 0 64 15z" />
    <glyph glyph-name="acircumflex.ss05" horiz-adv-x="534" 
d="M495 587l-49 -53q-23 13 -66.5 34t-62.5 31l-132 -65l-47 53l140 133h106zM110 327l-21 134q130 39 229 39q111 0 157.5 -49.5t32.5 -151.5l-42 -299h-202l6 44q-60 -53 -124 -53q-83 0 -119.5 36.5t-24.5 124.5q11 77 65.5 112t156.5 35h82q4 28 -4 38.5t-39 10.5
q-51 0 -153 -21zM294 214h-34q-30 0 -47.5 -14t-19.5 -34q-4 -29 28 -29q28 0 64 15z" />
    <glyph glyph-name="adieresis.ss05" horiz-adv-x="534" 
d="M200 535q-41 0 -68 28t-21 74q6 37 34.5 58t63.5 21q44 0 70 -28t19 -75q-6 -38 -33 -58t-65 -20zM429 716q41 0 68 -28.5t21 -74.5q-6 -37 -34.5 -57.5t-63.5 -20.5q-44 0 -70 27.5t-19 74.5q6 38 33 58.5t65 20.5zM110 327l-21 134q130 39 229 39q111 0 157.5 -49.5
t32.5 -151.5l-42 -299h-202l6 44q-60 -53 -124 -53q-83 0 -119.5 36.5t-24.5 124.5q11 77 65.5 112t156.5 35h82q4 28 -4 38.5t-39 10.5q-51 0 -153 -21zM294 214h-34q-30 0 -47.5 -14t-19.5 -34q-4 -29 28 -29q28 0 64 15z" />
    <glyph glyph-name="agrave.ss05" horiz-adv-x="534" 
d="M431 571l-52 -50q-118 38 -201 101v37l139 89zM110 327l-21 134q130 39 229 39q111 0 157.5 -49.5t32.5 -151.5l-42 -299h-202l6 44q-60 -53 -124 -53q-83 0 -119.5 36.5t-24.5 124.5q11 77 65.5 112t156.5 35h82q4 28 -4 38.5t-39 10.5q-51 0 -153 -21zM294 214h-34
q-30 0 -47.5 -14t-19.5 -34q-4 -29 28 -29q28 0 64 15z" />
    <glyph glyph-name="amacron.ss05" horiz-adv-x="534" 
d="M476 554h-344l21 144h344zM110 327l-21 134q130 39 229 39q111 0 157.5 -49.5t32.5 -151.5l-42 -299h-202l6 44q-60 -53 -124 -53q-83 0 -119.5 36.5t-24.5 124.5q11 77 65.5 112t156.5 35h82q4 28 -4 38.5t-39 10.5q-51 0 -153 -21zM294 214h-34q-30 0 -47.5 -14
t-19.5 -34q-4 -29 28 -29q28 0 64 15z" />
    <glyph glyph-name="aogonek.ss05" horiz-adv-x="538" 
d="M466 0h-30q-41 0 -68 -14t-31 -39q-3 -19 47 -19q13 0 92 12l15 -100q-79 -30 -165 -30q-61 0 -94.5 29t-26.5 76q8 52 59 85l6 44q-60 -53 -124 -53q-83 0 -119.5 36.5t-24.5 124.5q11 77 65.5 112t156.5 35h82q4 28 -4 38.5t-39 10.5q-51 0 -153 -21l-21 134
q130 39 229 39q111 0 157.5 -49.5t32.5 -151.5zM294 214h-34q-30 0 -47.5 -14t-19.5 -34q-4 -29 28 -29q28 0 64 15z" />
    <glyph glyph-name="aring.ss05" horiz-adv-x="534" 
d="M309 536q-55 0 -85 34.5t-22 88.5q6 47 40 74.5t83 27.5q55 0 85 -35t22 -91q-6 -45 -40 -72t-83 -27zM280 646q-2 -14 7.5 -23.5t26.5 -9.5q35 0 40 38q2 15 -7 25t-26 10t-28 -11t-13 -29zM110 327l-21 134q130 39 229 39q111 0 157.5 -49.5t32.5 -151.5l-42 -299h-202
l6 44q-60 -53 -124 -53q-83 0 -119.5 36.5t-24.5 124.5q11 77 65.5 112t156.5 35h82q4 28 -4 38.5t-39 10.5q-51 0 -153 -21zM294 214h-34q-30 0 -47.5 -14t-19.5 -34q-4 -29 28 -29q28 0 64 15z" />
    <glyph glyph-name="atilde.ss05" horiz-adv-x="534" 
d="M305 562l-49 29q-9 5 -15.5 6t-16 -5.5t-15 -12l-21.5 -22.5l-68 10q8 55 30.5 89.5t52.5 45t59 9t56 -13.5l49 -26q9 -4 15.5 -5t14.5 4t13.5 10t18.5 18l8 8l74 -10q-8 -55 -32.5 -90.5t-55.5 -46.5t-61.5 -10t-56.5 13zM110 327l-21 134q130 39 229 39
q111 0 157.5 -49.5t32.5 -151.5l-42 -299h-202l6 44q-60 -53 -124 -53q-83 0 -119.5 36.5t-24.5 124.5q11 77 65.5 112t156.5 35h82q4 28 -4 38.5t-39 10.5q-51 0 -153 -21zM294 214h-34q-30 0 -47.5 -14t-19.5 -34q-4 -29 28 -29q28 0 64 15z" />
    <glyph glyph-name="g.ss06" horiz-adv-x="598" 
d="M191 118h165q108 0 143 -35t23 -123q-14 -100 -83 -139.5t-228 -39.5q-131 0 -196.5 31t-57.5 90q5 37 23.5 55t55.5 25q-38 30 -38 105t103 105q-49 45 -36 142q13 91 71.5 128.5t179.5 37.5q90 0 141 -25q55 35 109 35q35 0 58 -14l-20 -107h-37q-17 0 -40 -5
q5 -27 0 -62q-14 -97 -74.5 -136.5t-178.5 -39.5q-69 0 -117 15q-16 -16 -16 -26q0 -12 9 -14.5t41 -2.5zM334 334q5 45 -27 45q-41 0 -49 -57q-6 -45 26 -45q42 0 50 57zM335 -52h-148q-22 0 -54 2q-10 -8 -11 -21q-1 -10 5 -16t22 -8.5t30.5 -3t40.5 -0.5q71 0 98 7t31 24
q4 16 -14 16z" />
    <glyph glyph-name="gbreve.ss06" horiz-adv-x="598" 
d="M424 695h113q-10 -71 -54.5 -109.5t-120.5 -38.5q-83 0 -121.5 39t-28.5 109h111q-1 -10 1 -17.5t12.5 -14.5t29.5 -7q48 0 58 39zM191 118h165q108 0 143 -35t23 -123q-14 -100 -83 -139.5t-228 -39.5q-131 0 -196.5 31t-57.5 90q5 37 23.5 55t55.5 25q-38 30 -38 105
t103 105q-49 45 -36 142q13 91 71.5 128.5t179.5 37.5q90 0 141 -25q55 35 109 35q35 0 58 -14l-20 -107h-37q-17 0 -40 -5q5 -27 0 -62q-14 -97 -74.5 -136.5t-178.5 -39.5q-69 0 -117 15q-16 -16 -16 -26q0 -12 9 -14.5t41 -2.5zM334 334q5 45 -27 45q-41 0 -49 -57
q-6 -45 26 -45q42 0 50 57zM335 -52h-148q-22 0 -54 2q-10 -8 -11 -21q-1 -10 5 -16t22 -8.5t30.5 -3t40.5 -0.5q71 0 98 7t31 24q4 16 -14 16z" />
    <glyph glyph-name="gcommaaccent.ss06" horiz-adv-x="598" 
d="M411 793l22 -59q-33 -10 -51 -26q23 -13 33.5 -37.5t6.5 -53.5q-5 -33 -30.5 -55t-61.5 -22q-42 0 -65 32t-16 77q7 51 44 84t118 60zM191 118h165q108 0 143 -35t23 -123q-14 -100 -83 -139.5t-228 -39.5q-131 0 -196.5 31t-57.5 90q5 37 23.5 55t55.5 25
q-38 30 -38 105t103 105q-49 45 -36 142q13 91 71.5 128.5t179.5 37.5q90 0 141 -25q55 35 109 35q35 0 58 -14l-20 -107h-37q-17 0 -40 -5q5 -27 0 -62q-14 -97 -74.5 -136.5t-178.5 -39.5q-69 0 -117 15q-16 -16 -16 -26q0 -12 9 -14.5t41 -2.5zM334 334q5 45 -27 45
q-41 0 -49 -57q-6 -45 26 -45q42 0 50 57zM335 -52h-148q-22 0 -54 2q-10 -8 -11 -21q-1 -10 5 -16t22 -8.5t30.5 -3t40.5 -0.5q71 0 98 7t31 24q4 16 -14 16z" />
    <glyph glyph-name="gdotaccent.ss06" horiz-adv-x="598" 
d="M346 530q-48 0 -76 30.5t-21 81.5q6 43 36.5 66t72.5 23q44 0 74 -31t23 -82q-6 -41 -38.5 -64.5t-70.5 -23.5zM191 118h165q108 0 143 -35t23 -123q-14 -100 -83 -139.5t-228 -39.5q-131 0 -196.5 31t-57.5 90q5 37 23.5 55t55.5 25q-38 30 -38 105t103 105
q-49 45 -36 142q13 91 71.5 128.5t179.5 37.5q90 0 141 -25q55 35 109 35q35 0 58 -14l-20 -107h-37q-17 0 -40 -5q5 -27 0 -62q-14 -97 -74.5 -136.5t-178.5 -39.5q-69 0 -117 15q-16 -16 -16 -26q0 -12 9 -14.5t41 -2.5zM334 334q5 45 -27 45q-41 0 -49 -57q-6 -45 26 -45
q42 0 50 57zM335 -52h-148q-22 0 -54 2q-10 -8 -11 -21q-1 -10 5 -16t22 -8.5t30.5 -3t40.5 -0.5q71 0 98 7t31 24q4 16 -14 16z" />
    <glyph glyph-name="y.ss07" horiz-adv-x="595" 
d="M595 491l-57 -399q-21 -150 -91 -213t-207 -63q-115 0 -213 37l37 127q76 -13 158 -13q83 0 107 91q-31 -23 -60 -30t-78 -7q-89 0 -129 64t-24 182l33 224h202l-33 -224q-6 -48 1.5 -68t34.5 -20q33 0 77 29l40 283h202z" />
    <glyph glyph-name="yacute.ss07" horiz-adv-x="595" 
d="M512 659l-2 -43q-100 -61 -226 -99l-48 54l159 177zM595 491l-57 -399q-21 -150 -91 -213t-207 -63q-115 0 -213 37l37 127q76 -13 158 -13q83 0 107 91q-31 -23 -60 -30t-78 -7q-89 0 -129 64t-24 182l33 224h202l-33 -224q-6 -48 1.5 -68t34.5 -20q33 0 77 29l40 283
h202z" />
    <glyph glyph-name="ycircumflex.ss07" horiz-adv-x="595" 
d="M534 587l-49 -53q-23 13 -66.5 34t-62.5 31l-132 -65l-47 53l140 133h106zM595 491l-57 -399q-21 -150 -91 -213t-207 -63q-115 0 -213 37l37 127q76 -13 158 -13q83 0 107 91q-31 -23 -60 -30t-78 -7q-89 0 -129 64t-24 182l33 224h202l-33 -224q-6 -48 1.5 -68
t34.5 -20q33 0 77 29l40 283h202z" />
    <glyph glyph-name="ydieresis.ss07" horiz-adv-x="595" 
d="M239 535q-41 0 -68 28t-21 74q6 37 34.5 58t63.5 21q44 0 70 -28t19 -75q-6 -38 -33 -58t-65 -20zM459 535q-44 0 -70 27.5t-19 74.5q6 38 33 58.5t65 20.5q41 0 68 -28.5t21 -74.5q-6 -37 -34.5 -57.5t-63.5 -20.5zM595 491l-57 -399q-21 -150 -91 -213t-207 -63
q-115 0 -213 37l37 127q76 -13 158 -13q83 0 107 91q-31 -23 -60 -30t-78 -7q-89 0 -129 64t-24 182l33 224h202l-33 -224q-6 -48 1.5 -68t34.5 -20q33 0 77 29l40 283h202z" />
    <glyph glyph-name="ygrave.ss07" horiz-adv-x="595" 
d="M470 571l-52 -50q-118 38 -201 101v37l139 89zM595 491l-57 -399q-21 -150 -91 -213t-207 -63q-115 0 -213 37l37 127q76 -13 158 -13q83 0 107 91q-31 -23 -60 -30t-78 -7q-89 0 -129 64t-24 182l33 224h202l-33 -224q-6 -48 1.5 -68t34.5 -20q33 0 77 29l40 283h202z
" />
    <glyph glyph-name="uni00660062" horiz-adv-x="974" 
d="M692 680l-33 -236q72 55 144 55q185 0 150 -254q-18 -129 -77.5 -191.5t-138.5 -62.5q-50 0 -78.5 14.5t-54.5 46.5l-7 -52h-202l75 539h-100q-54 0 -63 -49h108l-23 -168h-109l-45 -322h-202l46 322h-66l23 168h67q15 105 71.5 153t165.5 48q50 0 145 -26l2 15h202z
M638 293l-16 -112q19 -22 54 -22q65 0 79 98q5 39 -3.5 55.5t-33.5 16.5q-39 0 -80 -36z" />
    <glyph glyph-name="uni006600660062" horiz-adv-x="1336" 
d="M1054 680l-33 -236q72 55 144 55q185 0 150 -254q-18 -129 -77.5 -191.5t-138.5 -62.5q-50 0 -78.5 14.5t-54.5 46.5l-7 -52h-202l75 539h-100q-54 0 -63 -49h108l-23 -168h-109l-45 -322h-202l46 322h-161l-45 -322h-202l46 322h-66l23 168h67q15 105 71.5 153t165.5 48
q43 0 110 -14l-26 -138h-57q-54 0 -63 -49h161q15 105 71.5 153t165.5 48q50 0 145 -26l2 15h202zM1000 293l-16 -112q19 -22 54 -22q65 0 79 98q5 39 -3.5 55.5t-33.5 16.5q-39 0 -80 -36z" />
    <glyph glyph-name="uni006600660066" horiz-adv-x="1124" 
d="M1155 539h-57q-54 0 -63 -49h108l-23 -168h-109l-45 -322h-202l46 322h-163l-45 -322h-202l46 322h-163l-45 -322h-202l46 322h-66l23 168h67q15 105 71.5 153t165.5 48q43 0 110 -14l-26 -138h-57q-54 0 -63 -49h163q15 105 71.5 153t165.5 48q43 0 110 -14l-26 -138
h-57q-54 0 -63 -49h163q15 105 71.5 153t165.5 48q43 0 110 -14z" />
    <glyph glyph-name="uni006600660068" horiz-adv-x="1335" 
d="M1060 680l-35 -247q96 66 166 66q78 0 106 -45.5t14 -145.5l-43 -308h-202l36 260q3 27 -1.5 37t-18.5 10q-36 0 -79 -32l-38 -275h-202l75 539h-106q-54 0 -63 -49h108l-23 -168h-109l-45 -322h-202l46 322h-161l-45 -322h-202l46 322h-66l23 168h67q15 105 71.5 153
t165.5 48q43 0 110 -14l-26 -138h-57q-54 0 -63 -49h161q15 105 71.5 153t165.5 48q46 0 151 -27l2 16h202z" />
    <glyph glyph-name="uni00660066006A" horiz-adv-x="1049" 
d="M962 736q50 0 81.5 -30.5t24.5 -84.5q-6 -45 -40 -68t-79 -23q-50 0 -81.5 30.5t-24.5 84.5q6 45 40 68t79 23zM1033 490l-58 -413q-15 -111 -72.5 -171.5t-190.5 -87.5l-28 141q45 23 64 49.5t25 68.5l34 245h-162l-45 -322h-202l46 322h-161l-45 -322h-202l46 322h-66
l23 168h67q15 105 71.5 153t165.5 48q43 0 110 -14l-26 -138h-57q-54 0 -63 -49h161q15 105 71.5 153t165.5 48q43 0 103 -15l-23 -137h-53q-54 0 -63 -49h364z" />
    <glyph glyph-name="uni00660066006B" horiz-adv-x="1350" 
d="M1378 490l-216 -219q100 -138 153 -271h-223q-30 73 -70 128l-46 -46l-11 -82h-202l75 539h-106q-54 0 -63 -49h108l-23 -168h-109l-45 -322h-202l46 322h-161l-45 -322h-202l46 322h-66l23 168h67q15 105 71.5 153t165.5 48q43 0 110 -14l-26 -138h-57q-54 0 -63 -49
h161q15 105 71.5 153t165.5 48q46 0 151 -27l2 16h202l-45 -322l127 132h236z" />
    <glyph glyph-name="uni006600660074" horiz-adv-x="1152" 
d="M1021 322l-17 -120q-3 -25 4 -37t37 -12h59l11 -125q-58 -37 -166 -37q-91 0 -127 51t-21 160l17 120h-161l-45 -322h-202l46 322h-173l-45 -322h-202l46 322h-66l23 168h67q15 105 71.5 153t165.5 48q43 0 110 -14l-26 -138h-57q-54 0 -63 -49h173q15 105 71.5 153
t165.5 48q43 0 110 -14l-26 -138h-57q-54 0 -63 -49h161l14 100h202l-14 -100h109l-23 -168h-109z" />
    <glyph glyph-name="uni00660068" horiz-adv-x="967" 
d="M692 680l-35 -247q96 66 166 66q78 0 106 -45.5t14 -145.5l-43 -308h-202l36 260q3 27 -1.5 37t-18.5 10q-36 0 -79 -32l-38 -275h-202l75 539h-100q-54 0 -63 -49h108l-23 -168h-109l-45 -322h-202l46 322h-66l23 168h67q15 105 71.5 153t165.5 48q50 0 145 -26l2 15
h202z" />
    <glyph glyph-name="uni0066006A" horiz-adv-x="682" 
d="M595 736q50 0 81.5 -30.5t24.5 -84.5q-6 -45 -40 -68t-79 -23q-50 0 -81.5 30.5t-24.5 84.5q6 45 40 68t79 23zM665 490l-58 -413q-15 -111 -72.5 -171.5t-190.5 -87.5l-28 141q45 23 64 49.5t25 68.5l34 245h-156l-45 -322h-202l46 322h-66l23 168h67q15 105 71.5 153
t165.5 48q43 0 110 -14l-26 -138h-57q-54 0 -63 -49h358z" />
    <glyph glyph-name="uni0066006B" horiz-adv-x="982" 
d="M1010 490l-216 -219q100 -138 153 -271h-223q-30 73 -70 128l-46 -46l-11 -82h-202l75 539h-100q-54 0 -63 -49h108l-23 -168h-109l-45 -322h-202l46 322h-66l23 168h67q15 105 71.5 153t165.5 48q50 0 145 -26l2 15h202l-45 -322l127 132h236z" />
    <glyph glyph-name="uni00660074" horiz-adv-x="768" 
d="M637 322l-17 -120q-3 -25 4 -37t37 -12h59l11 -125q-58 -37 -166 -37q-91 0 -127 51t-21 160l17 120h-151l-45 -322h-202l46 322h-66l23 168h67q15 105 71.5 153t165.5 48q43 0 110 -14l-26 -138h-57q-54 0 -63 -49h151l14 100h202l-14 -100h109l-23 -168h-109z" />
    <glyph glyph-name="uni00720066" horiz-adv-x="816" 
d="M847 539h-57q-54 0 -63 -49h108l-23 -168h-109l-45 -322h-202l46 322h-46l23 168h47q15 105 71.5 153t165.5 48q43 0 110 -14zM271 490l-10 -75q37 47 66.5 65.5t66.5 18.5q24 0 59 -4l-34 -205h-57q-85 0 -127 -61l-32 -229h-202l68 490h202z" />
    <glyph glyph-name="uni00720074" horiz-adv-x="835" 
d="M704 322l-18 -126q-3 -24 4 -33.5t34 -9.5h63l11 -125q-26 -17 -72 -27t-89 -10q-95 0 -131.5 49.5t-21.5 157.5l17 124h-44l23 168h45l14 100h202l-14 -100h109l-23 -168h-109zM271 490l-10 -75q37 47 66.5 65.5t66.5 18.5q24 0 59 -4l-34 -205h-57q-85 0 -127 -61
l-32 -229h-202l68 490h202z" />
    <glyph glyph-name="zero.osf" horiz-adv-x="613" 
d="M343 540q137 0 200.5 -78t45.5 -205q-18 -124 -97.5 -195t-217.5 -71q-137 0 -200 76.5t-46 201.5q18 126 97.5 198.5t217.5 72.5zM293 179q72 0 84 90q6 42 -3.5 62.5t-48.5 20.5q-73 0 -85 -95q-2 -22 -1.5 -39.5t14 -28t40.5 -10.5z" />
    <glyph glyph-name="one.osf" horiz-adv-x="530" 
d="M500 175l-24 -175h-474l24 175h142l16 117q-68 -12 -119 -17l-29 144q130 49 221 111h171l-50 -355h122z" />
    <glyph glyph-name="two.osf" horiz-adv-x="548" 
d="M74 313l-43 150q102 42 165.5 59.5t127.5 17.5q103 0 161 -54.5t47 -136.5q-10 -69 -60.5 -110t-141.5 -66q74 2 83 2h95l-24 -175h-494l20 147q157 71 227 110t75 70q3 22 -8.5 30.5t-35.5 8.5q-54 0 -194 -53z" />
    <glyph glyph-name="three.osf" horiz-adv-x="572" 
d="M92 340l-31 141q152 59 268 59q100 0 160 -51.5t49 -129.5q-15 -94 -81 -132q72 -38 60 -127q-13 -93 -85 -141t-190 -48q-143 0 -266 71l68 136q108 -48 202 -48q30 0 50.5 13t23.5 33q2 19 -20.5 26t-79.5 7h-82l21 152h72q57 0 83 9t29 30q4 22 -10 30t-48 8
q-52 0 -193 -38z" />
    <glyph glyph-name="four.osf" horiz-adv-x="628" 
d="M486 0l-12 -90h-200l12 90h-309l19 141l364 379h200l-51 -359h87l-26 -161h-84zM309 161l20 142q-7 -7 -23 -24.5t-24 -25.5l-37 -33q-55 -52 -64 -59h128z" />
    <glyph glyph-name="five.osf" horiz-adv-x="582" 
d="M254 348l-14 -66q58 29 126 29q90 0 134.5 -53t31.5 -144q-15 -104 -92.5 -158.5t-184.5 -54.5q-158 0 -281 71l69 146q108 -48 196 -48q33 0 63 20t34 46q3 21 -8 32t-36 11q-47 0 -83 -44l-170 28l71 357h453l-25 -172h-284z" />
    <glyph glyph-name="six.osf" horiz-adv-x="592" 
d="M592 574l-62 -142q-88 20 -145 20q-101 -1 -138 -99q67 38 151 38q83 0 129.5 -52.5t34.5 -134.5q-14 -100 -86.5 -156.5t-195.5 -56.5q-139 0 -205.5 79t-48.5 209q23 162 121 251.5t244 89.5q93 0 201 -46zM295 156q28 0 49.5 20.5t25.5 49.5q3 22 -10 32.5t-44 10.5
q-19 0 -45.5 -10.5t-45.5 -27.5q5 -75 70 -75z" />
    <glyph glyph-name="seven.osf" horiz-adv-x="524" 
d="M547 520l-22 -156q-179 -234 -260 -429h-245q113 216 271 409h-262l25 176h493z" />
    <glyph glyph-name="eight.osf" horiz-adv-x="579" 
d="M349 620q119 0 175.5 -45.5t45.5 -125.5q-11 -75 -113 -117q59 -31 84.5 -67t17.5 -91q-13 -89 -89 -136t-199 -47q-157 0 -219.5 50t-49.5 145q13 89 126 142q-74 51 -64 125q23 167 285 167zM338 490q-72 0 -72 -43q0 -14 11.5 -25.5t47.5 -29.5q59 24 59 64
q0 34 -46 34zM260 260q-50 -29 -57 -70q-3 -24 12.5 -33.5t48.5 -9.5q30 0 52 13t22 36q0 17 -13.5 27.5t-64.5 36.5z" />
    <glyph glyph-name="nine.osf" horiz-adv-x="592" 
d="M9 -43l62 142q88 -20 145 -20q93 1 128 92q-61 -31 -139 -31q-85 0 -131.5 52.5t-34.5 134.5q14 100 86.5 156.5t195.5 56.5q138 0 200.5 -78.5t43.5 -209.5q-48 -341 -355 -341q-93 0 -201 46zM306 375q-29 0 -50 -16t-25 -44q-3 -23 12 -38t44 -15q40 0 79 29
q2 43 -12 63.5t-48 20.5z" />
    <glyph glyph-name="zero.tf" horiz-adv-x="570" 
d="M334 620q140 0 200.5 -84.5t38.5 -238.5q-43 -306 -320 -306q-140 0 -200.5 83t-39.5 235q44 311 321 311zM272 179q41 0 60.5 31.5t29.5 98.5q11 66 2.5 94.5t-49.5 28.5t-61 -32.5t-30 -102.5q-11 -63 -1.5 -90.5t49.5 -27.5z" />
    <glyph glyph-name="one.tf" horiz-adv-x="570" 
d="M511 175l-24 -175h-474l24 175h142l27 197q-64 -11 -119 -17l-28 144q127 48 220 111h171l-61 -435h122z" />
    <glyph glyph-name="two.tf" horiz-adv-x="570" 
d="M97 393l-43 150q103 42 167 59.5t128 17.5q103 0 160 -62t43 -159q-10 -66 -66 -117.5t-161 -110.5q70 4 101 4h95l-24 -175h-494l20 147q8 6 24 17l80.5 57.5l66.5 48t59 45.5l41 35.5t31 32.5t11 24q3 22 -8.5 30.5t-35.5 8.5q-54 0 -195 -53z" />
    <glyph glyph-name="three.tf" horiz-adv-x="570" 
d="M108 420l-32 141q152 59 274 59q100 0 159.5 -51.5t48.5 -129.5q-12 -84 -95 -127q87 -35 74 -132q-13 -93 -85 -141t-190 -48q-148 0 -271 71l68 136q108 -48 208 -48q30 0 50 13t23 33q3 19 -20.5 26t-84.5 7h-82l21 152h82q102 0 108 39q3 22 -11 30t-48 8
q-58 0 -197 -38z" />
    <glyph glyph-name="four.tf" horiz-adv-x="570" 
d="M479 94l-13 -94h-200l13 94h-290l19 141l343 375h200l-49 -355h63l-23 -161h-63zM302 255l20 145q-5 -8 -19 -24l-80 -88l-16 -16.5l-16 -16.5h111z" />
    <glyph glyph-name="five.tf" horiz-adv-x="570" 
d="M261 438l-17 -71q61 34 134 34q90 0 134 -53t31 -144q-14 -104 -92 -158.5t-185 -54.5q-158 0 -281 71l70 146q107 -48 186 -48q46 0 73.5 18t32.5 48q6 43 -41 43q-48 0 -87 -44l-167 28l70 357h453l-24 -172h-290z" />
    <glyph glyph-name="six.tf" horiz-adv-x="570" 
d="M579 574l-62 -142q-88 20 -145 20q-101 -1 -138 -99q66 38 151 38q83 0 129.5 -52.5t34.5 -134.5q-14 -100 -86.5 -156.5t-195.5 -56.5q-139 0 -205.5 79t-48.5 209q23 162 121 251.5t244 89.5q93 0 201 -46zM282 156q28 0 49.5 20.5t25.5 49.5q3 22 -10 32.5t-44 10.5
q-19 0 -45.5 -10.5t-45.5 -27.5q4 -75 70 -75z" />
    <glyph glyph-name="seven.tf" horiz-adv-x="570" 
d="M580 610l-22 -156q-152 -197 -259 -454h-246q150 285 272 434h-262l26 176h491z" />
    <glyph glyph-name="eight.tf" horiz-adv-x="570" 
d="M344 620q119 0 175.5 -45.5t45.5 -125.5q-11 -75 -113 -117q59 -31 84.5 -67t17.5 -91q-13 -89 -89 -136t-199 -47q-157 0 -219.5 50t-49.5 145q13 89 126 142q-74 51 -64 125q23 167 285 167zM333 490q-72 0 -72 -43q0 -14 11.5 -25.5t47.5 -29.5q59 24 59 64
q0 34 -46 34zM255 260q-50 -29 -57 -70q-3 -24 12.5 -33.5t48.5 -9.5q30 0 52 13t22 36q0 17 -13.5 27.5t-64.5 36.5z" />
    <glyph glyph-name="nine.tf" horiz-adv-x="570" 
d="M9 37l62 142q88 -20 145 -20q93 1 128 92q-61 -31 -139 -31q-85 0 -131.5 52.5t-34.5 134.5q14 100 86.5 156.5t195.5 56.5q138 0 200.5 -78.5t43.5 -209.5q-48 -341 -355 -341q-93 0 -201 46zM306 455q-29 0 -50 -16t-25 -44q-3 -23 12 -38t44 -15q40 0 79 29
q2 43 -12 63.5t-48 20.5z" />
    <glyph glyph-name="zero.zero" horiz-adv-x="632" 
d="M365 620q147 0 209 -84t40 -239q-21 -152 -102 -229t-228 -77t-209 82.5t-41 235.5q44 311 331 311zM246 303l139 122q-14 7 -39 7q-47 0 -68.5 -30.5t-31.5 -98.5zM404 313l-143 -126q16 -8 42 -8q48 0 69 31t31 99z" />
    <glyph glyph-name="zero.dnom" horiz-adv-x="402" 
d="M216 381q91 0 130.5 -53t26.5 -149q-27 -188 -204 -188q-91 0 -130.5 52.5t-26.5 147.5q14 96 63.5 143t140.5 47zM178 108q30 0 44 20.5t20 62.5q5 40 -2.5 57t-31.5 17q-30 0 -44.5 -21t-20.5 -65q-7 -38 1 -54.5t34 -16.5z" />
    <glyph glyph-name="one.dnom" horiz-adv-x="356" 
d="M317 109l-15 -109h-294l15 109h88l16 120q-34 -6 -72 -9l-20 91q87 34 138 68h106l-38 -270h76z" />
    <glyph glyph-name="two.dnom" horiz-adv-x="365" 
d="M54 243l-31 95q116 47 185 47q63 0 98.5 -40t27.5 -100q-6 -40 -39.5 -71.5t-96.5 -67.5q30 3 57 3h61l-15 -109h-307l12 91q100 71 145.5 108t48.5 56q2 14 -4 18.5t-22 4.5q-30 0 -120 -35z" />
    <glyph glyph-name="three.dnom" horiz-adv-x="370" 
d="M56 258l-23 88q95 35 170 35q62 0 100 -32.5t31 -81.5q-8 -59 -63 -79q58 -24 49 -82q-15 -115 -168 -115q-91 0 -168 46l39 82q63 -29 129 -29q44 0 47 30q1 12 -12.5 15.5t-53.5 3.5h-50l13 95h50q64 0 68 26q2 13 -6 17t-30 4q-34 0 -122 -23z" />
    <glyph glyph-name="four.dnom" horiz-adv-x="410" 
d="M313 58l-8 -58h-125l8 58h-199l12 88l232 233h125l-31 -221h51l-14 -100h-51zM202 158l12 83l-28 -29l-24 -21q-11 -12 -38 -33h78z" />
    <glyph glyph-name="five.dnom" horiz-adv-x="383" 
d="M166 268l-9 -41q35 19 80 19q55 0 83.5 -34t20.5 -91q-9 -64 -57 -97t-115 -33q-96 0 -175 46l40 88q66 -29 122 -29q21 0 40.5 12t21.5 29q5 27 -27 27q-26 0 -54 -25l-103 15l43 221h282l-15 -107h-178z" />
    <glyph glyph-name="six.dnom" horiz-adv-x="380" 
d="M359 352l-35 -87q-56 12 -90 12q-61 0 -86 -58q38 21 90 21t82 -34t23 -85q-8 -62 -52.5 -96t-122.5 -34q-86 0 -128 50t-30 131q14 101 73.5 155t150.5 54q56 0 125 -29zM175 94q19 0 35 11t18 29q2 14 -7.5 22t-25.5 8q-32 0 -62 -26q3 -44 42 -44z" />
    <glyph glyph-name="seven.dnom" horiz-adv-x="342" 
d="M341 379l-14 -97q-106 -149 -161 -282h-153q94 179 167 270h-161l15 109h307z" />
    <glyph glyph-name="eight.dnom" horiz-adv-x="387" 
d="M215 381q74 0 110 -28.5t29 -77.5q-7 -47 -71 -75q37 -19 53 -41.5t11 -56.5q-7 -56 -53 -84t-124 -27q-97 0 -137 32.5t-31 90.5q7 55 79 88q-47 32 -40 78q14 101 174 101zM206 302q-36 0 -41 -32q-2 -10 3.5 -16.5t23.5 -14.5q40 16 44 41q3 22 -30 22zM170 161
q-40 -20 -45 -46q-2 -14 7.5 -20.5t30.5 -6.5q19 0 32 9t15 23q4 21 -40 41z" />
    <glyph glyph-name="nine.dnom" horiz-adv-x="370" 
d="M-1 20l37 87q55 -12 90 -12q56 1 79 54q-31 -15 -73 -15q-54 0 -87.5 34t-26.5 84q8 62 52.5 95.5t120.5 33.5q86 0 125.5 -49.5t27.5 -130.5q-30 -210 -219 -210q-55 0 -126 29zM136 242q-2 -15 7 -24t28 -9q29 0 50 21q6 50 -34 50q-44 0 -51 -38z" />
    <glyph glyph-name="zero.numr" horiz-adv-x="402" 
d="M248 620q91 0 130.5 -53t26.5 -149q-27 -188 -204 -188q-91 0 -130.5 52.5t-26.5 147.5q14 96 63.5 143t140.5 47zM210 347q30 0 44 20.5t20 62.5q5 40 -2.5 57t-31.5 17q-30 0 -44.5 -21t-20.5 -65q-7 -38 1 -54.5t34 -16.5z" />
    <glyph glyph-name="one.numr" horiz-adv-x="356" 
d="M341 340l-15 -109h-294l15 109h88l16 120q-34 -6 -72 -9l-20 91q87 34 138 68h106l-38 -270h76z" />
    <glyph glyph-name="two.numr" horiz-adv-x="365" 
d="M90 478l-31 95q116 47 185 47q63 0 98.5 -40t27.5 -100q-6 -40 -39.5 -71.5t-96.5 -67.5q30 3 57 3h61l-15 -109h-307l12 91q100 71 145.5 108t48.5 56q2 14 -4 18.5t-22 4.5q-30 0 -120 -35z" />
    <glyph glyph-name="three.numr" horiz-adv-x="370" 
d="M95 497l-23 88q95 35 170 35q62 0 100 -32.5t31 -81.5q-8 -59 -63 -79q58 -24 49 -82q-15 -115 -168 -115q-91 0 -168 46l39 82q63 -29 129 -29q44 0 47 30q1 12 -12.5 15.5t-53.5 3.5h-50l13 95h50q64 0 68 26q2 13 -6 17t-30 4q-34 0 -122 -23z" />
    <glyph glyph-name="four.numr" horiz-adv-x="410" 
d="M345 289l-8 -58h-125l8 58h-199l12 88l232 233h125l-31 -221h51l-14 -100h-51zM234 389l12 83l-28 -29l-24 -21q-11 -12 -38 -33h78z" />
    <glyph glyph-name="five.numr" horiz-adv-x="383" 
d="M195 503l-9 -41q35 19 80 19q55 0 83.5 -34t20.5 -91q-9 -64 -57 -97t-115 -33q-96 0 -175 46l40 88q66 -29 122 -29q21 0 40.5 12t21.5 29q5 27 -27 27q-26 0 -54 -25l-103 15l43 221h282l-15 -107h-178z" />
    <glyph glyph-name="six.numr" horiz-adv-x="380" 
d="M390 591l-35 -87q-56 12 -90 12q-61 0 -86 -58q38 21 90 21t82 -34t23 -85q-8 -62 -52.5 -96t-122.5 -34q-86 0 -128 50t-30 131q14 101 73.5 155t150.5 54q56 0 125 -29zM206 333q19 0 35 11t18 29q2 14 -7.5 22t-25.5 8q-32 0 -62 -26q3 -44 42 -44z" />
    <glyph glyph-name="seven.numr" horiz-adv-x="342" 
d="M375 610l-14 -97q-106 -149 -161 -282h-153q94 179 167 270h-161l15 109h307z" />
    <glyph glyph-name="eight.numr" horiz-adv-x="387" 
d="M246 620q74 0 110 -28.5t29 -77.5q-7 -47 -71 -75q37 -19 53 -41.5t11 -56.5q-7 -56 -53 -84t-124 -27q-97 0 -137 32.5t-31 90.5q7 55 79 88q-47 32 -40 78q14 101 174 101zM237 541q-36 0 -41 -32q-2 -10 3.5 -16.5t23.5 -14.5q40 16 44 41q3 22 -30 22zM201 400
q-40 -20 -45 -46q-2 -14 7.5 -20.5t30.5 -6.5q19 0 32 9t15 23q4 21 -40 41z" />
    <glyph glyph-name="nine.numr" horiz-adv-x="370" 
d="M33 259l37 87q55 -12 90 -12q56 1 79 54q-31 -15 -73 -15q-54 0 -87.5 34t-26.5 84q8 62 52.5 95.5t120.5 33.5q86 0 125.5 -49.5t27.5 -130.5q-30 -210 -219 -210q-55 0 -126 29zM170 481q-2 -15 7 -24t28 -9q29 0 50 21q6 50 -34 50q-44 0 -51 -38z" />
    <glyph glyph-name="backslash.case" horiz-adv-x="465" 
d="M208 650l222 -708h-169l-226 708h173z" />
    <glyph glyph-name="bullet.case" horiz-adv-x="367" 
d="M39 292q5 64 50.5 106.5t111.5 42.5q65 0 102.5 -42.5t32.5 -106.5q-5 -63 -50.5 -105.5t-110.5 -42.5q-66 0 -103.5 42.5t-32.5 105.5z" />
    <glyph glyph-name="exclamdown.case" horiz-adv-x="290" 
d="M178 431q-44 0 -68.5 31t-18.5 75q5 35 32.5 58.5t65.5 23.5q44 0 68.5 -31t18.5 -75q-5 -35 -32.5 -58.5t-65.5 -23.5zM83 380h160l-23 -380h-220z" />
    <glyph glyph-name="periodcentered.case" horiz-adv-x="298" 
d="M21 305q5 49 39.5 81.5t84.5 32.5t79.5 -32.5t24.5 -81.5t-39.5 -81.5t-84.5 -32.5t-79.5 32.5t-24.5 81.5z" />
    <glyph glyph-name="questiondown.case" horiz-adv-x="558" 
d="M337 432q-44 0 -68.5 31t-18.5 75q5 35 32.5 58.5t65.5 23.5q44 0 68.5 -31t18.5 -75q-5 -35 -32.5 -58.5t-65.5 -23.5zM470 218l43 -150q-103 -42 -167 -59.5t-128 -17.5q-102 0 -159.5 59t-45.5 142q10 72 69.5 119.5t161.5 67.5l2 31h163l-12 -160h-25q-59 0 -91 -7
t-40 -15.5t-10 -23.5q-3 -22 8.5 -30.5t35.5 -8.5q54 0 195 53z" />
    <glyph glyph-name="slash.case" horiz-adv-x="531" 
d="M341 650h175l-337 -732h-171z" />
    <glyph glyph-name="braceleft.case" horiz-adv-x="423" 
d="M345 474l-1 -9q-11 -75 -44 -111t-93 -49q57 -14 79.5 -51.5t11.5 -114.5l-1 -9q-5 -33 10 -44t80 -18l-22 -143q-154 0 -215 50.5t-44 166.5l1 9q7 46 -9 60t-79 22l8 61l11 85q60 7 83.5 27.5t29.5 58.5l1 9q17 119 88 165t234 46l-22 -145q-60 -7 -81.5 -22t-25.5 -44
z" />
    <glyph glyph-name="braceright.case" horiz-adv-x="422" 
d="M413 316l-11 -85q-60 -7 -83.5 -27.5t-29.5 -58.5l-1 -9q-17 -119 -88 -165t-234 -46l22 145q60 7 81.5 22t25.5 44l1 9q11 75 44 111t93 49q-57 14 -79.5 51.5t-11.5 114.5l1 9q5 33 -10 44t-80 18l22 143q154 0 215 -50.5t44 -166.5l-1 -9q-7 -46 9 -60t79 -22z" />
    <glyph glyph-name="bracketleft.case" horiz-adv-x="409" 
d="M452 660l-22 -157h-128l-57 -407h128l-22 -156h-314l101 720h314z" />
    <glyph glyph-name="bracketright.case" horiz-adv-x="409" 
d="M-20 -60l22 157h128l57 407h-128l22 156h314l-101 -720h-314z" />
    <glyph glyph-name="parenleft.case" horiz-adv-x="354" 
d="M268 666l116 -76q-5 -6 -22.5 -29t-22 -29.5l-19 -27t-19.5 -30t-16 -28.5t-15.5 -33.5t-11.5 -34.5t-11.5 -40.5t-7.5 -43.5q-6 -41 -5 -77.5t3.5 -59t15.5 -56.5t19.5 -47.5l26.5 -53.5l-126 -58q-74 101 -102.5 177t-12.5 187q15 112 62.5 186.5t147.5 173.5z" />
    <glyph glyph-name="parenright.case" horiz-adv-x="345" 
d="M99 -58l-116 76q5 6 22.5 29t22 29.5l19 27t19.5 30t16 28.5t15.5 33.5t11.5 34.5t11.5 40.5t7.5 43.5q6 41 5 77.5t-3.5 59t-15.5 56.5t-19.5 47.5l-26.5 53.5l126 58q74 -101 102.5 -177t12.5 -187q-15 -112 -62.5 -186.5t-147.5 -173.5z" />
    <glyph glyph-name="emdash.case" horiz-adv-x="947" 
d="M71 383h844l-21 -150h-844z" />
    <glyph glyph-name="endash.case" horiz-adv-x="497" 
d="M71 383h394l-21 -150h-394z" />
    <glyph glyph-name="hyphen.case" horiz-adv-x="418" 
d="M75 403h314l-26 -180h-314z" />
    <glyph glyph-name="guillemotleft.case" horiz-adv-x="665" 
d="M381 422l-97 -90q-22 -20 -48 -36q17 -15 32 -32l78 -83l-111 -98l-206 220l262 220zM651 422l-97 -90q-22 -20 -48 -36q17 -15 32 -32l78 -83l-111 -98l-206 220l262 220z" />
    <glyph glyph-name="guillemotright.case" horiz-adv-x="665" 
d="M384 303l-264 -220l-90 98l97 91q15 13 49 37q-22 20 -31 31l-80 82l113 101zM654 303l-264 -220l-90 98l97 91q15 13 49 37q-22 20 -31 31l-80 82l113 101z" />
    <glyph glyph-name="guilsinglleft.case" horiz-adv-x="395" 
d="M381 422l-97 -90q-22 -20 -48 -36q17 -15 32 -32l78 -83l-111 -98l-206 220l262 220z" />
    <glyph glyph-name="guilsinglright.case" horiz-adv-x="395" 
d="M384 303l-264 -220l-90 98l97 91q15 13 49 37q-22 20 -31 31l-80 82l113 101z" />
    <glyph glyph-name="florin.tf" horiz-adv-x="570" 
d="M601 509l-65 -121q-80 18 -122 18q-85 0 -126 -120h161l-44 -130h-159l-51 -156h-204l49 156h-51l44 130h48q47 145 121.5 213t186.5 68q108 0 212 -58z" />
    <glyph glyph-name="cent.tf" horiz-adv-x="570" 
d="M457 190l53 -130q-87 -55 -172 -65l-7 -49h-131l7 52q-85 21 -128.5 94.5t-27.5 195.5q15 109 78.5 181t156.5 89l7 52h131l-8 -54q55 -11 134 -50l-66 -128q-68 24 -122 24q-93 0 -112 -138q-10 -70 6 -91.5t55 -21.5q60 0 146 39z" />
    <glyph glyph-name="dollar.tf" horiz-adv-x="570" 
d="M547 511l-57 -138q-132 41 -186 41q-40 0 -43 -21q-1 -5 2.5 -9t19 -10.5t34.5 -13l62 -21.5q84 -28 114.5 -67.5t20.5 -113.5q-10 -69 -64 -112.5t-145 -51.5l-7 -53h-131l8 60q-89 18 -177 65l76 142q126 -63 194 -63q50 0 50 20q0 10 -22.5 20.5t-89.5 33.5
q-88 30 -119 74.5t-21 113.5q9 65 58 106t130 48l8 53h131l-8 -59q69 -10 162 -44z" />
    <glyph glyph-name="Euro.tf" horiz-adv-x="570" 
d="M377 206h-115q2 -34 18 -44.5t46 -10.5q60 0 146 39l53 -130q-60 -38 -113 -53.5t-124 -15.5q-95 0 -157.5 55t-68.5 160h-50l7 50h44q0 16 3 32l1 8h-43l7 50h47q29 100 102.5 158.5t172.5 58.5q101 0 212 -57l-66 -128q-68 24 -122 24q-59 0 -88 -56h157l-27 -50h-148
q-2 -10 -6 -32l-1 -8h138z" />
    <glyph glyph-name="sterling.tf" horiz-adv-x="570" 
d="M600 509l-66 -127q-68 24 -121 24q-67 0 -100 -90h141l-14 -80h-148l-17 -68h235l-23 -168h-497l25 151l56 11l18 74h-63l14 80h69q37 130 104.5 190.5t174.5 60.5q115 0 212 -58z" />
    <glyph glyph-name="yen.tf" horiz-adv-x="570" 
d="M459 296h91l-7 -50h-114l-24 -40h133l-8 -50h-152l-22 -156h-210l22 156h-152l8 50h131l-12 40h-114l7 50h91l-79 256h212l23 -122q9 -42 14 -85l40 95l57 112h217z" />
    <glyph glyph-name="arrowdown.ss08" horiz-adv-x="619" 
d="M310 568q119 0 204 -85t85 -204q0 -120 -85 -205t-204 -85q-120 0 -205 85t-85 205q0 119 85 204t205 85zM269 417v-151l-53 50l-58 -58l152 -138l151 138l-58 58l-52 -50v151h-82z" />
    <glyph glyph-name="arrowdownleft.ss08" horiz-adv-x="619" 
d="M599 278q0 120 -85 205t-204 86q-120 -1 -205 -86t-85 -205q0 -119 85 -204t205 -85q119 0 204 85t85 204zM187 158v213h82v-73l109 107l58 -58l-107 -109h72v-80h-214z" />
    <glyph glyph-name="arrowdownright.ss08" horiz-adv-x="619" 
d="M599 278q0 120 -85 205t-204 86q-120 -1 -205 -86t-85 -205q0 -119 85 -204t205 -85q119 0 204 85t85 204zM217 238h72l-107 109l58 58l109 -107v73h82v-213h-214v80z" />
    <glyph glyph-name="arrowleft.ss08" horiz-adv-x="619" 
d="M310 569q119 -1 204 -86t85 -205q0 -119 -85 -204t-204 -85q-120 0 -205 85t-85 204q0 120 85 205t205 86zM151 278l138 -151l58 58l-50 52h151v82h-151l50 53l-58 58z" />
    <glyph glyph-name="arrowright.ss08" horiz-adv-x="619" 
d="M309 569q120 -1 205 -86t85 -205q0 -119 -85 -204t-205 -85q-119 0 -204 85t-85 204q0 120 85 205t204 86zM272 372l50 -53h-151v-82h151l-50 -52l58 -58l138 151l-138 152z" />
    <glyph glyph-name="arrowup.ss08" horiz-adv-x="619" 
d="M310 568q119 0 204 -85t85 -205q0 -119 -85 -204t-204 -85q-120 0 -205 85t-85 204q0 120 85 205t205 85zM158 299l58 -58l53 50v-151h82v151l52 -50l58 58l-151 138z" />
    <glyph glyph-name="arrowupleft.ss08" horiz-adv-x="619" 
d="M599 280q0 119 -85 204t-204 85q-120 0 -205 -85t-85 -204q0 -120 85 -205t205 -86q119 1 204 86t85 205zM401 320h-72l107 -109l-58 -58l-109 107v-73h-82v213h214v-80z" />
    <glyph glyph-name="arrowupright.ss08" horiz-adv-x="619" 
d="M599 280q0 119 -85 204t-205 85q-119 0 -204 -85t-85 -204q0 -120 85 -205t204 -86q120 1 205 86t85 205zM432 400v-213h-82v73l-109 -107l-58 58l107 109h-72v80h214z" />
    <glyph glyph-name="arrowdown.ss13" horiz-adv-x="483" 
d="M242 500q91 0 156 -65t65 -156t-65 -156.5t-156 -65.5q-92 0 -157 65.5t-65 156.5t65.5 156t156.5 65zM242 455q-73 0 -125 -52t-52 -124q0 -73 52 -125t125 -52q72 0 124 52t52 125q0 72 -52 124t-124 52zM211 385v-116l-40 39l-46 -45l117 -106l116 106l-46 45l-39 -39
v116h-62z" />
    <glyph glyph-name="arrowdownleft.ss13" horiz-adv-x="483" 
d="M242 500q91 0 156 -65t65 -156t-65 -156.5t-156 -65.5q-92 0 -157 65.5t-65 156.5t65.5 156t156.5 65zM242 455q-73 0 -125 -52t-52 -124q0 -73 52 -125t125 -52q72 0 124 52t52 125q0 72 -52 124t-124 52zM347 332l-82 -84h55v-60h-164v163h63v-57l84 82z" />
    <glyph glyph-name="arrowdownright.ss13" horiz-adv-x="483" 
d="M241 500q91 0 156.5 -65t65.5 -156t-65.5 -156.5t-156.5 -65.5t-156 65.5t-65 156.5t65 156t156 65zM241 455q-72 0 -124 -52t-52 -124q0 -73 52 -125t124 -52q73 0 125 52t52 125q0 72 -52 124t-125 52zM264 294v57h63v-163h-164v60h55l-82 84l44 44z" />
    <glyph glyph-name="arrowleft.ss13" horiz-adv-x="483" 
d="M242 500q91 0 156 -65t65 -156t-65 -156.5t-156 -65.5q-92 0 -157 65.5t-65 156.5t65.5 156t156.5 65zM242 455q-73 0 -125 -52t-52 -124q0 -73 52 -125t125 -52q72 0 124 52t52 125q0 72 -52 124t-124 52zM348 309h-116l39 40l-45 46l-106 -117l106 -116l45 46l-39 39
h116v62z" />
    <glyph glyph-name="arrowright.ss13" horiz-adv-x="483" 
d="M241 500q91 0 156.5 -65t65.5 -156t-65.5 -156.5t-156.5 -65.5t-156 65.5t-65 156.5t65 156t156 65zM241 455q-72 0 -124 -52t-52 -124q0 -73 52 -125t124 -52q73 0 125 52t52 125q0 72 -52 124t-125 52zM251 247l-39 -39l45 -46l106 116l-106 117l-45 -46l39 -40h-116
v-62h116z" />
    <glyph glyph-name="arrowup.ss13" horiz-adv-x="483" 
d="M242 57q-91 0 -156.5 65t-65.5 156q0 92 65 157t157 65q91 0 156 -65.5t65 -156.5t-65 -156t-156 -65zM242 102q72 0 124 52t52 124q0 73 -52 125t-124 52q-73 0 -125 -52t-52 -125q0 -72 52 -124t125 -52zM273 288l39 -39l46 45l-116 106l-117 -106l46 -45l40 39v-116
h62v116z" />
    <glyph glyph-name="arrowupleft.ss13" horiz-adv-x="483" 
d="M242 57q-91 0 -156.5 65t-65.5 156q0 92 65 157t157 65q91 0 156 -65.5t65 -156.5t-65 -156t-156 -65zM242 102q72 0 124 52t52 124q0 73 -52 125t-124 52q-73 0 -125 -52t-52 -125q0 -72 52 -124t125 -52zM219 263v-57h-63v163h164v-60h-55l82 -84l-44 -44z" />
    <glyph glyph-name="arrowupright.ss13" horiz-adv-x="483" 
d="M241 57q-91 0 -156 65t-65 156t65 156.5t156 65.5t156.5 -65t65.5 -157q0 -91 -65.5 -156t-156.5 -65zM241 102q73 0 125 52t52 124q0 73 -52 125t-125 52q-72 0 -124 -52t-52 -125q0 -72 52 -124t124 -52zM136 225l82 84h-55v60h164v-163h-63v57l-84 -82z" />
    <glyph glyph-name="at.case" horiz-adv-x="867" 
d="M635 5l15 -67q-123 -58 -283 -58q-177 0 -269.5 108.5t-67.5 286.5q26 187 158.5 301t322.5 114q176 0 269.5 -104t70.5 -271q-38 -254 -255 -254q-47 0 -77.5 10.5t-44.5 46.5q-44 -35 -75 -46t-77 -11q-154 0 -123 216q16 116 60.5 169.5t123.5 53.5q61 0 117 -48l6 40
h175l-37 -266q-5 -31 -4 -47t5 -20t13 -4q11 0 22.5 4t29.5 18t33 49.5t23 88.5q20 137 -51.5 218t-214.5 81q-152 0 -258 -93.5t-127 -245.5q-21 -150 47.5 -231t216.5 -81q115 0 256 42zM469 226l14 101q-27 26 -54 26q-26 0 -39 -16t-19 -60q-7 -45 2 -62.5t36 -17.5
q37 0 60 26v3z" />
    <glyph glyph-name="registered.ss04" horiz-adv-x="727" 
d="M374 620q130 0 221.5 -92t91.5 -223t-91 -222.5t-222 -91.5t-222.5 91.5t-91.5 222.5t91.5 223t222.5 92zM374 34q113 0 192 79t79 192t-79.5 192.5t-191.5 79.5q-113 0 -192 -79.5t-79 -192.5t79 -192t192 -79zM252 483h157q86 0 120 -32t25 -96q-12 -79 -69 -110
l47 -116h-138l-31 96h-25l-14 -96h-122zM351 319h39q39 0 43 31q2 18 -6.5 26t-30.5 8h-36z" />
    <glyph glyph-name="ampersand.ss09" horiz-adv-x="645" 
d="M637 300l-23 -165q-36 0 -74 3q-32 -75 -95 -111t-174 -36q-140 0 -206 49.5t-53 145.5q6 49 33.5 83t91.5 67q-42 55 -31 127q21 157 243 157q86 0 134 -45t38 -114q-7 -49 -39 -85.5t-107 -77.5q-26 -12 -56.5 -24l-45 -18t-29.5 -14.5t-21 -18t-8 -23.5q-1 -9 0 -15.5
t5.5 -10.5t8.5 -6.5t13 -3t14 -1t16.5 0t15.5 0.5q19 0 33.5 3t24.5 6t18 13.5t12 17t8.5 26t6.5 30.5t6 40h240zM285 444q-2 -22 13 -41q64 22 70 58q4 29 -28 29q-21 0 -36.5 -13t-18.5 -33z" />
    <glyph glyph-name="ampersand.ss10" horiz-adv-x="526" 
d="M442 197l49 -146q-90 -41 -177 -54l-8 -56h-151l8 54q-182 22 -162 162q8 55 38.5 85.5t87.5 43.5q-68 37 -57 110q20 140 172 163l8 55h151l-8 -58q67 -11 137 -46l-69 -140q-60 22 -89 28t-69 6q-26 0 -42.5 -7.5t-17.5 -20.5q-2 -13 6 -18.5t30 -5.5h105l-20 -142
h-105q-57 0 -62 -33q-1 -13 10.5 -17.5t39.5 -4.5q51 0 88.5 8.5t106.5 33.5z" />
    <glyph glyph-name="copyright.ss11" horiz-adv-x="471" 
d="M256 227q-82 0 -139 57t-57 139t57 139.5t139 57.5t138.5 -57.5t56.5 -139.5t-56.5 -139t-138.5 -57zM256 260q67 0 114 48t47 115q0 68 -47 116t-114 48t-114.5 -48t-47.5 -116q0 -67 47.5 -115t114.5 -48zM324 395l20 -54q-52 -32 -105 -32q-47 0 -73 30t-19 82
q7 54 41 84.5t83 30.5q47 0 90 -24l-33 -58q-33 12 -54 12q-18 0 -26.5 -10t-12.5 -35q-4 -23 2.5 -32.5t24.5 -9.5q21 0 62 16z" />
    <glyph glyph-name="registered.ss12" horiz-adv-x="471" 
d="M256 227q-82 0 -139 57t-57 139t57 139.5t139 57.5t138.5 -57.5t56.5 -139.5t-56.5 -139t-138.5 -57zM256 260q67 0 114 48t47 115q0 68 -47 116t-114 48t-114.5 -48t-47.5 -116q0 -67 47.5 -115t114.5 -48zM180 529h93q53 0 73.5 -19t15.5 -57q-6 -40 -41 -53
q29 -18 29 -77h-89v11v11t-0.5 9.5t-2 8.5l-3 6t-5 4.5t-7.5 1.5h-11l-7 -52h-73zM245 429h16q20 0 22 21q3 20 -18 20h-14z" />
    <glyph glyph-name="caron.alt" 
d="M246 728h144l-3 -17q-24 -106 -78 -176h-90z" />
    <glyph glyph-name="acute.case" 
d="M338 843l138 -79v-43q-94 -53 -226 -89l-48 54z" />
    <glyph glyph-name="breve.case" 
d="M376 805h113q-10 -71 -54.5 -109.5t-120.5 -38.5q-83 0 -121.5 39t-28.5 109h111q-1 -10 1 -17.5t12.5 -14.5t29.5 -7q48 0 58 39z" />
    <glyph glyph-name="caron.case" 
d="M519 784l-156 -144h-112l-118 144l54 52l134 -75l152 75z" />
    <glyph glyph-name="circumflex.case" 
d="M451 634l-134 75l-152 -75l-46 52l156 144h112l118 -144z" />
    <glyph glyph-name="dieresis.case" 
d="M214 827q42 0 67 -27t18 -72q-5 -35 -31.5 -54.5t-62.5 -19.5q-38 0 -64 27t-20 71q5 35 32.5 55t60.5 20zM434 827q38 0 64 -27.5t20 -71.5q-5 -35 -32.5 -54.5t-60.5 -19.5q-42 0 -66.5 26.5t-18.5 71.5q5 36 31.5 55.5t62.5 19.5z" />
    <glyph glyph-name="dotaccent.case" 
d="M325 836q42 0 70.5 -29.5t22.5 -78.5q-6 -39 -36.5 -61t-67.5 -22q-46 0 -73 29t-20 78q6 40 35 62t69 22z" />
    <glyph glyph-name="grave.case" 
d="M416 686l-52 -50q-115 33 -202 91v37l157 79z" />
    <glyph glyph-name="hungarumlaut.case" 
d="M207 847l123 -66l-2 -42q-111 -73 -166 -104l-67 46zM417 847l123 -66l-2 -42q-111 -73 -166 -104l-67 46z" />
    <glyph glyph-name="macron.case" 
d="M495 803l-19 -139h-334l19 139h334z" />
    <glyph glyph-name="ring.case" 
d="M328 865q52 0 82.5 -27.5t30.5 -67.5q0 -49 -35.5 -82.5t-91.5 -33.5q-52 0 -82.5 27.5t-30.5 67.5q0 50 35.5 83t91.5 33zM324 796q-18 0 -29 -12t-11 -29q0 -32 34 -32q18 0 29 12t11 29q0 32 -34 32z" />
    <glyph glyph-name="tilde.case" 
d="M442 807l74 -10q-8 -55 -32.5 -90.5t-55.5 -46.5t-61.5 -10t-56.5 13l-49 29q-9 5 -15.5 6t-16 -5.5t-15 -12l-21.5 -22.5l-68 10q8 55 30.5 89.5t52.5 45t59 9t56 -13.5l49 -26q9 -4 15.5 -5t14.5 4t13.5 10t18.5 18z" />
    </font>
</defs>
</svg>
