<?xml version="1.0" standalone="no"?>
<!DOCTYPE svg PUBLIC "-//W3C//DTD SVG 1.1//EN" "http://www.w3.org/Graphics/SVG/1.1/DTD/svg11.dtd" >
<svg>
<metadata>
Created by FontForge 20090622 at Thu Jun 16 16:49:30 2016
 By deploy user
Copyright &#194;&#169; 2013 by Rene Bieder. All rights reserved.
</metadata>
<defs>
<font id="Gentona-Thin" horiz-adv-x="480" >
  <font-face 
    font-family="Gentona Thin"
    font-weight="250"
    font-stretch="normal"
    units-per-em="1000"
    panose-1="0 0 3 0 0 0 0 0 0 0"
    ascent="800"
    descent="-200"
    x-height="460"
    cap-height="610"
    bbox="-85 -219 1130 876"
    underline-thickness="50"
    underline-position="-50"
    unicode-range="U+0020-U+FB02"
  />
<missing-glyph horiz-adv-x="745" 
d="M655 0h-565v610h565v-610zM130 570v-530h485v530h-485zM340 236l-5 66q109 12 109 76q0 26 -18 41.5t-48 15.5q-45 0 -106 -22l-11 29q65 26 117 26q46 0 75 -24.5t29 -65.5t-30.5 -67t-78.5 -33v-42h-33zM356 179q22 0 22 -22q0 -24 -22 -24q-23 0 -23 24q0 22 23 22z
" />
    <glyph glyph-name="fi" unicode="fi" horiz-adv-x="491" 
d="M401 0h-20v442h-261v-442h-20v442h-70v18h70v60q0 70 28 105t93 35q41 0 107 -9l-3 -18q-69 8 -104 8q-55 0 -78 -30t-23 -91v-60h281v-460zM391 577q-18 0 -18 18t18 18t18 -18t-18 -18z" />
    <glyph glyph-name="fl" unicode="fl" horiz-adv-x="491" 
d="M401 0h-20v623q-115 18 -160 18q-55 0 -78 -30t-23 -91v-60h166v-18h-166v-442h-20v442h-70v18h70v60q0 70 28 105t93 35q50 0 160 -18v18h20v-660z" />
    <glyph glyph-name="f_f" unicode="ff" horiz-adv-x="582" 
d="M592 654l-3 -18q-30 5 -77 5q-55 0 -78 -30t-23 -91v-60h166v-18h-166v-442h-20v442h-271v-442h-20v442h-70v18h70v60q0 70 28 105t93 35q56 0 80 -6l-3 -18q-30 5 -77 5q-55 0 -78 -30t-23 -91v-60h271v60q0 70 28 105t93 35q56 0 80 -6z" />
    <glyph glyph-name="f_f_i" unicode="ffi" horiz-adv-x="782" 
d="M411 460h281v-460h-20v442h-261v-442h-20v442h-271v-442h-20v442h-70v18h70v60q0 70 28 105t93 35q56 0 80 -6l-3 -18q-30 5 -77 5q-55 0 -78 -30t-23 -91v-60h271v60q0 70 28 105t93 35q41 0 107 -9l-3 -18q-69 8 -104 8q-55 0 -78 -30t-23 -91v-60zM682 613
q18 0 18 -18t-18 -18t-18 18t18 18z" />
    <glyph glyph-name="f_f_l" unicode="ffl" horiz-adv-x="782" 
d="M692 660v-660h-20v623q-115 18 -160 18q-55 0 -78 -30t-23 -91v-60h166v-18h-166v-442h-20v442h-271v-442h-20v442h-70v18h70v60q0 70 28 105t93 35q56 0 80 -6l-3 -18q-30 5 -77 5q-55 0 -78 -30t-23 -91v-60h271v60q0 70 28 105t93 35q50 0 160 -18v18h20z" />
    <glyph glyph-name=".notdef" horiz-adv-x="745" 
d="M655 0h-565v610h565v-610zM130 570v-530h485v530h-485zM340 236l-5 66q109 12 109 76q0 26 -18 41.5t-48 15.5q-45 0 -106 -22l-11 29q65 26 117 26q46 0 75 -24.5t29 -65.5t-30.5 -67t-78.5 -33v-42h-33zM356 179q22 0 22 -22q0 -24 -22 -24q-23 0 -23 24q0 22 23 22z
" />
    <glyph glyph-name=".null" horiz-adv-x="0" 
 />
    <glyph glyph-name="nonmarkingreturn" horiz-adv-x="333" 
 />
    <glyph glyph-name="space" unicode=" " horiz-adv-x="250" 
 />
    <glyph glyph-name="exclam" unicode="!" horiz-adv-x="178" 
d="M77 180v430h23v-430h-23zM89 38q19 0 19 -19t-19 -19t-19 19t19 19z" />
    <glyph glyph-name="quotedbl" unicode="&#x22;" horiz-adv-x="224" 
d="M74 660l-10 -256h-14v256h24zM154 660l-10 -256h-14v256h24z" />
    <glyph glyph-name="numbersign" unicode="#" horiz-adv-x="673" 
d="M429 171h145l-4 -16h-145l-42 -155h-21l42 155h-199l-42 -155h-21l42 155h-134l4 16h134l56 209h-135l4 16h136l41 154h21l-41 -154h199l41 154h21l-41 -154h143l-4 -16h-144zM265 380l-56 -209h199l56 209h-199z" />
    <glyph glyph-name="dollar" unicode="$" horiz-adv-x="507" 
d="M422 484l-9 -16q-97 50 -183 50q-62 0 -100 -27.5t-38 -73.5q0 -48 32 -73.5t134 -58.5q109 -34 149 -69t40 -91q0 -60 -48.5 -97t-127.5 -37h-16v-61h-20v62q-114 9 -193 91l13 15q81 -87 216 -87q70 0 113 31.5t43 82.5q0 52 -34.5 80.5t-140.5 62.5q-107 36 -143.5 63
t-36.5 86q0 54 43.5 87t114.5 33h5v73h20v-74q82 -7 167 -52z" />
    <glyph glyph-name="percent" unicode="%" horiz-adv-x="810" 
d="M188 620q66 0 102 -46t36 -131t-36 -130.5t-102 -45.5t-102 45.5t-36 130.5t36 131t102 46zM591 610l-366 -610h-22l366 610h22zM188 285q57 0 88 41t31 117t-31 117.5t-88 41.5t-88 -41.5t-31 -117.5t31 -117t88 -41zM622 344q66 0 102 -46t36 -131t-36 -130.5
t-102 -45.5t-102 45.5t-36 130.5t36 131t102 46zM622 9q57 0 88 41t31 117t-31 117.5t-88 41.5t-88 -41.5t-31 -117.5t31 -117t88 -41z" />
    <glyph glyph-name="ampersand" unicode="&#x26;" horiz-adv-x="623" 
d="M575 0l-104 91q-86 -100 -205 -100q-97 0 -154 44t-57 121q0 54 37.5 89t122.5 72q-58 57 -79 91t-21 79q0 61 42 97t111 36t110 -38t41 -105q0 -52 -36 -88.5t-131 -76.5l217 -192q38 51 81 135l18 -10q-46 -90 -84 -138l104 -92zM136 487q0 -43 21 -74.5t79 -86.5
q96 40 129 72.5t33 78.5q0 58 -35 90.5t-95 32.5t-96 -30.5t-36 -82.5zM456 105l-225 197q-83 -35 -119 -65.5t-36 -80.5q0 -68 51 -106.5t139 -38.5q110 0 190 94z" />
    <glyph glyph-name="quotesingle" unicode="'" horiz-adv-x="144" 
d="M84 660l-10 -256h-14v256h24z" />
    <glyph glyph-name="parenleft" unicode="(" horiz-adv-x="290" 
d="M246 658l14 -13q-139 -178 -139 -400t139 -400l-14 -13q-146 182 -146 413t146 413z" />
    <glyph glyph-name="parenright" unicode=")" horiz-adv-x="290" 
d="M40 645l14 13q146 -182 146 -413t-146 -413l-14 13q139 178 139 400t-139 400z" />
    <glyph glyph-name="asterisk" unicode="*" horiz-adv-x="395" 
d="M295 354l-11 -10l-86 100l-87 -100l-11 10l83 101l-123 47l5 14l123 -43l2 137h15l2 -137l123 43l5 -14l-123 -47z" />
    <glyph glyph-name="plus" unicode="+" horiz-adv-x="446" 
d="M230 223v-184h-19v184h-183v20h183v184l20 -1v-184h184v-19h-185z" />
    <glyph glyph-name="comma" unicode="," horiz-adv-x="231" 
d="M81 -121l-11 8q49 47 51 115q-18 0 -18 17q0 19 19 19t19 -25q0 -79 -60 -134z" />
    <glyph glyph-name="hyphen" unicode="-" horiz-adv-x="380" 
d="M310 295v-20h-240v20h240z" />
    <glyph glyph-name="period" unicode="." horiz-adv-x="218" 
d="M90 19q0 19 19 19t19 -19t-19 -19t-19 19z" />
    <glyph glyph-name="slash" unicode="/" horiz-adv-x="385" 
d="M325 669l-254 -872h-21l254 872h21z" />
    <glyph glyph-name="zero" unicode="0" horiz-adv-x="604" 
d="M302 620q116 0 179 -82t63 -233t-63 -232.5t-179 -81.5t-179 81.5t-63 232.5t63 233t179 82zM302 11q106 0 163.5 76.5t57.5 217.5q0 142 -57.5 218.5t-163.5 76.5t-163.5 -76.5t-57.5 -218.5q0 -141 57.5 -217.5t163.5 -76.5z" />
    <glyph glyph-name="one" unicode="1" horiz-adv-x="458" 
d="M418 0h-370v20h192v559q-93 -44 -190 -67l-5 17q112 30 201 81h15v-590h157v-20z" />
    <glyph glyph-name="two" unicode="2" horiz-adv-x="503" 
d="M475 0h-428v18l91.5 74l92 74t78 68t68 70.5t41.5 66.5t17 70q0 75 -42.5 117t-119.5 42q-111 0 -214 -54l-9 17q108 57 223 57q87 0 135 -47.5t48 -131.5q0 -35 -16.5 -72.5t-38.5 -67t-65 -70.5t-74 -66.5l-90 -73l-89 -72.5q10 0 29.5 0.5t29.5 0.5h333v-20z" />
    <glyph glyph-name="three" unicode="3" horiz-adv-x="506" 
d="M54 542l-9 17q108 57 228 57q82 0 132.5 -45.5t50.5 -119.5q0 -111 -135 -133q74 -10 114.5 -51t40.5 -111q0 -74 -56 -119.5t-147 -45.5q-130 0 -238 57l9 17q103 -54 229 -54q82 0 132 40t50 105q0 74 -51 113t-140 39h-93v20h93q82 0 126.5 32t44.5 91q0 65 -44.5 105
t-117.5 40q-116 0 -219 -54z" />
    <glyph glyph-name="four" unicode="4" horiz-adv-x="578" 
d="M439 0h-21v161h-380v18l380 431h21v-429h117v-20h-117v-161zM418 181v400q-28 -37 -55 -68l-239 -266q-51 -58 -59 -66h353z" />
    <glyph glyph-name="five" unicode="5" horiz-adv-x="520" 
d="M116 590l-21 -273q107 39 179 39q91 0 146.5 -49.5t55.5 -130.5q0 -83 -58.5 -134t-154.5 -51q-120 0 -228 57l9 17q103 -54 219 -54q86 0 139 45.5t53 119.5q0 72 -49.5 116t-131.5 44q-81 0 -181 -41l-21 5l25 310h358v-20h-339z" />
    <glyph glyph-name="six" unicode="6" horiz-adv-x="555" 
d="M484 593l-7 -18q-59 26 -136 26q-118 0 -189 -90.5t-70 -251.5q27 55 85 91t136 36q96 0 154 -51t58 -139q0 -98 -59.5 -151.5t-153.5 -53.5q-120 0 -181 76t-61 218q0 150 79 243t202 93q83 0 143 -28zM302 11q84 0 138 48t54 137q0 79 -52 124.5t-139 45.5
q-78 0 -135 -38.5t-84 -97.5q22 -219 218 -219z" />
    <glyph glyph-name="seven" unicode="7" horiz-adv-x="428" 
d="M428 610v-17q-96 -110 -177 -272.5t-122 -320.5h-24q44 161 123 321.5t174 268.5h-392v20h418z" />
    <glyph glyph-name="eight" unicode="8" horiz-adv-x="584" 
d="M352 316q182 -30 182 -160q0 -77 -65 -121t-178 -44q-112 0 -176.5 44t-64.5 121q0 132 181 160q-151 32 -151 149q0 69 58.5 112t154.5 43q95 0 153 -43t58 -112q0 -118 -152 -149zM293 600q-86 0 -139 -37.5t-53 -97.5q0 -122 192 -143q190 20 190 143q0 60 -52.5 97.5
t-137.5 37.5zM291 11q103 0 162.5 38.5t59.5 106.5q0 131 -220 151q-222 -19 -222 -151q0 -68 59 -106.5t161 -38.5z" />
    <glyph glyph-name="nine" unicode="9" horiz-adv-x="555" 
d="M83 29l10 16q58 -34 140 -34q241 0 240 341q-28 -55 -85.5 -91t-135.5 -36q-96 0 -154 51t-58 139q0 99 61 152t162 53q111 0 171.5 -76.5t60.5 -217.5q0 -160 -66.5 -247.5t-185.5 -87.5q-30 0 -43.5 0.5t-49.5 9.5t-67 28zM252 245q78 0 135 38.5t84 97.5
q-11 106 -64.5 162.5t-143.5 56.5q-91 0 -146.5 -48t-55.5 -137q0 -79 52 -124.5t139 -45.5z" />
    <glyph glyph-name="colon" unicode=":" horiz-adv-x="218" 
d="M90 379q0 19 19 19t19 -19t-19 -19t-19 19zM90 19q0 19 19 19t19 -19t-19 -19t-19 19z" />
    <glyph glyph-name="semicolon" unicode=";" horiz-adv-x="231" 
d="M80 379q0 19 19 19t19 -19t-19 -19t-19 19zM71 -121l-11 8q49 47 51 115q-18 0 -18 17q0 19 19 19t19 -25q0 -79 -60 -134z" />
    <glyph glyph-name="less" unicode="&#x3c;" horiz-adv-x="388" 
d="M318 422l-192 -160q-6 -5 -34 -26q34 -26 35 -27l191 -159l-12 -11l-238 197l237 198z" />
    <glyph glyph-name="equal" unicode="=" horiz-adv-x="436" 
d="M27 303l1 19h377v-19h-378zM27 173l1 19h377v-19h-378z" />
    <glyph glyph-name="greater" unicode="&#x3e;" horiz-adv-x="390" 
d="M82 422l13 12l237 -198l-238 -197l-12 11l191 159q1 1 35 27q-28 21 -34 26z" />
    <glyph glyph-name="question" unicode="?" horiz-adv-x="486" 
d="M34 546l-9 17q108 57 223 57q87 0 135 -47.5t48 -131.5q0 -68 -58 -115t-157 -61v-95h-19l-3 110q99 12 157.5 54.5t58.5 106.5q0 75 -42.5 117t-119.5 42q-111 0 -214 -54zM207 38q19 0 19 -19t-19 -19t-19 19t19 19z" />
    <glyph glyph-name="at" unicode="@" horiz-adv-x="938" 
d="M711 -114l13 -15q-103 -71 -250 -71q-186 0 -300 111.5t-114 293.5q0 186 118.5 300.5t305.5 114.5q180 0 287 -100t107 -265q-1 -128 -49.5 -196t-118.5 -68q-82 0 -82 89v1q-44 -47 -85.5 -68.5t-100.5 -21.5q-174 0 -174 218q0 107 52 158.5t140 51.5q96 0 168 -64v55
h20v-330q0 -70 62 -70q59 0 103 63.5t45 181.5q0 156 -101 250.5t-273 94.5q-178 0 -291 -109t-113 -286q0 -173 108.5 -279t285.5 -106q136 0 237 66zM628 112v218q-72 70 -168 70q-78 0 -125 -46.5t-47 -144.5q0 -108 40.5 -153.5t113.5 -45.5q57 0 99.5 24.5t86.5 77.5z
" />
    <glyph glyph-name="A" unicode="A" horiz-adv-x="625" 
d="M132 194l-89 -194h-23l280 610h25l280 -610h-23l-89 194h-361zM484 214l-143 310q-19 41 -28 67q-15 -37 -29 -67l-143 -310h343z" />
    <glyph glyph-name="B" unicode="B" horiz-adv-x="590" 
d="M110 610h168q117 0 169.5 -39.5t52.5 -125.5q0 -101 -99 -129q139 -31 139 -161q0 -83 -60 -119t-182 -36h-188v610zM131 590v-265h177q171 0 171 120q0 75 -47.5 110t-153.5 35h-147zM131 305v-285h167q111 0 166 31.5t55 103.5t-53.5 111t-157.5 39h-177z" />
    <glyph glyph-name="C" unicode="C" horiz-adv-x="630" 
d="M561 83l14 -15q-75 -77 -243 -77q-131 0 -201.5 81.5t-70.5 232.5q0 152 72.5 233.5t209.5 81.5q56 0 114 -14t93 -37l-10 -17q-34 21 -89.5 34.5t-107.5 13.5q-128 0 -194.5 -76t-66.5 -219q0 -141 65 -217.5t186 -76.5q155 0 229 72z" />
    <glyph glyph-name="D" unicode="D" horiz-adv-x="650" 
d="M110 610h168q140 0 226 -74.5t86 -220.5q0 -160 -85 -237.5t-227 -77.5h-168v610zM131 20h147q131 0 211 73t80 222q0 136 -81 205.5t-210 69.5h-147v-570z" />
    <glyph glyph-name="E" unicode="E" horiz-adv-x="568" 
d="M493 0h-383v610h373v-20h-352v-267h312v-20h-312v-283h362v-20z" />
    <glyph glyph-name="F" unicode="F" horiz-adv-x="518" 
d="M131 323h302v-20h-302v-303h-21v610h363v-20h-342v-267z" />
    <glyph glyph-name="G" unicode="G" horiz-adv-x="664" 
d="M594 293v-213q-112 -89 -272 -89q-124 0 -193 82t-69 232q0 152 72.5 233.5t209.5 81.5q127 0 219 -56l-10 -17q-92 53 -209 53q-128 0 -194.5 -76t-66.5 -219q0 -140 63.5 -217t177.5 -77q145 0 251 79v183h-270v20h291z" />
    <glyph glyph-name="H" unicode="H" horiz-adv-x="694" 
d="M584 0h-21v304h-432v-304h-21v610h21v-286h432v286h21v-610z" />
    <glyph glyph-name="I" unicode="I" horiz-adv-x="241" 
d="M131 0h-21v610h21v-610z" />
    <glyph glyph-name="J" unicode="J" horiz-adv-x="474" 
d="M374 610v-430q0 -189 -170 -189q-80 0 -174 49l8 16q88 -45 166 -45q75 0 112 41t37 128v430h21z" />
    <glyph glyph-name="K" unicode="K" horiz-adv-x="621" 
d="M294 339l-163 -163v-176h-21v610h21v-404l407 404h26v-2l-254 -254l279 -352v-2h-24z" />
    <glyph glyph-name="L" unicode="L" horiz-adv-x="493" 
d="M458 0h-348v610h21v-590h327v-20z" />
    <glyph glyph-name="M" unicode="M" horiz-adv-x="834" 
d="M703 0l-20 536v17l-251 -553h-30l-251 553v-17l-20 -536h-21l20 610h20l255 -565q1 -2 5.5 -12.5t6.5 -16.5q2 6 6.5 16.5t5.5 12.5l255 565h20l20 -610h-21z" />
    <glyph glyph-name="N" unicode="N" horiz-adv-x="695" 
d="M585 0h-20l-434 573v-573h-21v610h20l434 -575v9v566h21v-610z" />
    <glyph glyph-name="O" unicode="O" horiz-adv-x="664" 
d="M332 620q131 0 201.5 -82t70.5 -233t-70.5 -232.5t-201.5 -81.5t-201.5 81.5t-70.5 232.5t70.5 233t201.5 82zM332 11q121 0 186 76.5t65 217.5q0 142 -65 218.5t-186 76.5t-186 -76.5t-65 -218.5q0 -141 65 -217.5t186 -76.5z" />
    <glyph glyph-name="P" unicode="P" horiz-adv-x="560" 
d="M110 610h178q119 0 175.5 -47.5t56.5 -147.5t-56.5 -147.5t-175.5 -47.5h-157v-220h-21v610zM131 240h157q107 0 159 43t52 132t-52 132t-159 43h-157v-350z" />
    <glyph glyph-name="Q" unicode="Q" horiz-adv-x="664" 
d="M604 305q0 -151 -70.5 -232.5t-201.5 -81.5t-201.5 81.5t-70.5 232.5t70.5 233t201.5 82t201.5 -82t70.5 -233zM81 305q0 -141 65 -217.5t186 -76.5t186 76.5t65 217.5q0 142 -65 218.5t-186 76.5t-186 -76.5t-65 -218.5zM281 -72l9 13q98 -91 274 -91v-21
q-183 0 -283 99z" />
    <glyph glyph-name="R" unicode="R" horiz-adv-x="585" 
d="M555 4v-4h-23l-213 240h-188v-240h-21v610h198q232 0 232 -185q0 -78 -55.5 -129t-139.5 -56zM131 260h197q79 0 135 46t56 119q0 165 -211 165h-177v-330z" />
    <glyph glyph-name="S" unicode="S" horiz-adv-x="547" 
d="M460 569l-9 -17q-87 48 -204 48q-69 0 -111.5 -34.5t-42.5 -84.5q0 -56 36.5 -85.5t149.5 -67.5q120 -40 164 -79.5t44 -104.5q0 -81 -54.5 -117t-139.5 -36q-159 0 -251 105l14 14q89 -99 237 -99q173 0 173 133q0 59 -39 91.5t-156 73.5q-62 21 -94 35t-59 33.5
t-36.5 43.5t-9.5 60q0 61 48 100t127 39q122 0 213 -51z" />
    <glyph glyph-name="T" unicode="T" horiz-adv-x="515" 
d="M505 590h-237v-590h-21v590h-237v20h495v-20z" />
    <glyph glyph-name="U" unicode="U" horiz-adv-x="664" 
d="M574 610v-345q0 -131 -63 -202.5t-179 -71.5t-179 71.5t-63 202.5v345h21v-345q0 -122 57.5 -188t163.5 -66t163.5 66t57.5 188v345h21z" />
    <glyph glyph-name="V" unicode="V" horiz-adv-x="605" 
d="M315 0h-25l-270 610h23l232 -524l28 -66q7 21 27 66l232 524h23z" />
    <glyph glyph-name="W" unicode="W" horiz-adv-x="854" 
d="M643 0h-25l-179 539l-12 40q-1 -4 -5.5 -18.5t-6.5 -21.5l-179 -539h-25l-190 610h24l160 -524l19 -64l10.5 32l10.5 32l168 524h28l168 -524l10.5 -32l10.5 -32l19 64l160 524h24z" />
    <glyph glyph-name="X" unicode="X" horiz-adv-x="555" 
d="M528 0h-28l-208 284l-15 21q-2 -5 -14 -21l-209 -284h-27l234 315l-224 295h27l199 -262q11 -16 14 -23q3 7 15 23l199 262h27l-224 -295z" />
    <glyph glyph-name="Y" unicode="Y" horiz-adv-x="521" 
d="M271 230v-230h-21v230l-230 380h24l207 -340q3 -4 10 -21q4 13 9 21l207 340h24z" />
    <glyph glyph-name="Z" unicode="Z" horiz-adv-x="570" 
d="M522 0h-465v19l434 572q-11 0 -33 -0.5t-33 -0.5h-353v20h445v-19l-432 -572q11 0 32 0.5t32 0.5h373v-20z" />
    <glyph glyph-name="bracketleft" unicode="[" horiz-adv-x="334" 
d="M299 640h-174v-793h174v-20h-194v833h194v-20z" />
    <glyph glyph-name="backslash" unicode="\" horiz-adv-x="385" 
d="M345 -203h-21l-254 872h21z" />
    <glyph glyph-name="bracketright" unicode="]" horiz-adv-x="334" 
d="M239 660v-833h-194v20h174v793h-174v20h194z" />
    <glyph glyph-name="asciicircum" unicode="^" horiz-adv-x="448" 
d="M371 349l-122 249l-24 47h-2l-24 -47l-122 -249h-17l154 311h20l154 -311h-17z" />
    <glyph glyph-name="underscore" unicode="_" horiz-adv-x="441" 
d="M60 -87v20h321v-20h-321z" />
    <glyph glyph-name="grave" unicode="`" 
d="M292 547l-8 -7l-112 116l-1 6l16 14z" />
    <glyph glyph-name="a" unicode="a" horiz-adv-x="500" 
d="M102 426l-5 17q91 26 173 26q88 0 119 -44t31 -151v-274h-20v100q-72 -109 -190 -109q-80 0 -120 37.5t-40 105.5q0 74 46.5 108t143.5 34q105 0 160 -1q0 98 -27.5 136.5t-102.5 38.5t-168 -24zM400 128v130q-28 0 -77 -0.5t-83 -0.5q-88 0 -129 -29t-41 -94
q0 -124 140 -124q62 0 107 29.5t83 88.5z" />
    <glyph glyph-name="b" unicode="b" horiz-adv-x="555" 
d="M110 660v-286q34 43 87.5 69t110.5 26q192 0 192 -240q0 -121 -59 -179.5t-145 -58.5q-61 0 -103.5 23.5t-82.5 74.5v-89h-20v660h20zM110 346v-229q41 -55 84 -81t102 -26q77 0 130.5 53.5t53.5 165.5q0 221 -172 221q-56 0 -109 -28t-89 -76z" />
    <glyph glyph-name="c" unicode="c" horiz-adv-x="497" 
d="M434 84l13 -13q-67 -80 -186 -80q-91 0 -148.5 56.5t-57.5 178.5q0 125 60 184t152 59q97 0 160 -53l-12 -14q-59 48 -148 48q-82 0 -137 -54t-55 -170q0 -113 52.5 -164.5t133.5 -51.5q106 0 173 74z" />
    <glyph glyph-name="d" unicode="d" horiz-adv-x="555" 
d="M445 0v89q-40 -51 -82.5 -74.5t-103.5 -23.5q-86 0 -145 58.5t-59 179.5q0 240 192 240q57 0 110.5 -26t87.5 -69v286h20v-660h-20zM445 117v229q-36 48 -89 76t-109 28q-172 0 -172 -221q0 -112 53.5 -165.5t130.5 -53.5q59 0 102 26t84 81z" />
    <glyph glyph-name="e" unicode="e" horiz-adv-x="518" 
d="M432 82l12 -12q-63 -79 -183 -79q-91 0 -148.5 56.5t-57.5 178.5q0 125 60 184t152 59q188 0 196 -225q0 -10 -1 -18h-387q0 -113 52.5 -164.5t133.5 -51.5q106 0 171 72zM75 244h368q-3 108 -50.5 157t-125.5 49q-79 0 -133 -49.5t-59 -156.5z" />
    <glyph glyph-name="f" unicode="f" horiz-adv-x="291" 
d="M301 654l-3 -18q-30 5 -77 5q-55 0 -78 -30t-23 -91v-60h166v-18h-166v-442h-20v442h-70v18h70v60q0 70 28 105t93 35q56 0 80 -6z" />
    <glyph glyph-name="g" unicode="g" horiz-adv-x="532" 
d="M465 460v-400q0 -103 -51.5 -154t-134.5 -51q-117 0 -204 59l8 15q89 -55 196 -55q76 0 121 47.5t45 138.5v59q-40 -51 -82.5 -74.5t-103.5 -23.5q-87 0 -145.5 50.5t-58.5 157.5q0 240 192 240q57 0 110.5 -26t87.5 -69v86h20zM445 148v198q-36 48 -89 76t-109 28
q-172 0 -172 -221q0 -98 53.5 -143.5t130.5 -45.5q59 0 102 26.5t84 81.5z" />
    <glyph glyph-name="h" unicode="h" horiz-adv-x="545" 
d="M110 660v-296q71 105 198 105q82 0 117 -45t35 -140v-284h-20v284q0 86 -30 126t-102 40q-122 0 -198 -117v-333h-20v660h20z" />
    <glyph glyph-name="i" unicode="i" horiz-adv-x="200" 
d="M82 595q0 18 18 18t18 -18t-18 -18t-18 18zM110 0h-20v460h20v-460z" />
    <glyph glyph-name="j" unicode="j" horiz-adv-x="200" 
d="M100 577q-18 0 -18 18t18 18t18 -18t-18 -18zM110 460v-460q0 -75 -14.5 -111.5t-50.5 -50.5l-8 16q29 13 41 46t12 100v460h20z" />
    <glyph glyph-name="k" unicode="k" horiz-adv-x="490" 
d="M444 460v-2l-194 -175l238 -281v-2h-25l-229 269l-124 -112v-157h-20v660h20v-476l308 276h26z" />
    <glyph glyph-name="l" unicode="l" horiz-adv-x="200" 
d="M110 0h-20v660h20v-660z" />
    <glyph glyph-name="m" unicode="m" horiz-adv-x="845" 
d="M110 460v-96q33 50 83 77.5t102 27.5q117 0 135 -111q80 111 190 111q73 0 106.5 -45.5t33.5 -139.5v-284h-20v284q0 85 -28 125.5t-92 40.5q-102 0 -187 -119q2 -20 2 -47v-284h-20v284q0 85 -28 125.5t-92 40.5q-50 0 -99.5 -31t-85.5 -86v-333h-20v460h20z" />
    <glyph glyph-name="n" unicode="n" horiz-adv-x="545" 
d="M110 460v-95q70 104 198 104q82 0 117 -45t35 -140v-284h-20v284q0 86 -30 126t-102 40q-58 0 -110 -30t-88 -85v-335h-20v460h20z" />
    <glyph glyph-name="o" unicode="o" horiz-adv-x="554" 
d="M277 469q107 0 164.5 -63t57.5 -180q0 -113 -58 -174t-165 -61q-106 0 -163.5 61.5t-57.5 173.5q0 117 57.5 180t164.5 63zM276 10q97 0 150 56t53 160q0 107 -52.5 165.5t-149.5 58.5t-149.5 -58.5t-52.5 -165.5q0 -104 52 -160t149 -56z" />
    <glyph glyph-name="p" unicode="p" horiz-adv-x="555" 
d="M110 460v-85q34 43 87.5 68.5t110.5 25.5q192 0 192 -240q0 -121 -59 -179.5t-145 -58.5q-61 0 -103.5 23t-82.5 73v-257h-20v630h20zM110 347v-231q41 -54 84.5 -80t101.5 -26q77 0 130.5 53.5t53.5 165.5q0 221 -172 221q-56 0 -109 -27.5t-89 -75.5z" />
    <glyph glyph-name="q" unicode="q" horiz-adv-x="555" 
d="M465 -170h-20v257q-40 -50 -82.5 -73t-103.5 -23q-86 0 -145 58.5t-59 179.5q0 240 192 240q123 0 198 -94v85h20v-630zM445 116v231q-78 103 -198 103q-172 0 -172 -221q0 -112 53.5 -165.5t130.5 -53.5q58 0 101.5 26t84.5 80z" />
    <glyph glyph-name="r" unicode="r" horiz-adv-x="350" 
d="M110 460v-112q14 53 58 87t97 34q33 0 60 -3l-3 -18q-24 2 -57 2q-52 0 -93.5 -37t-61.5 -108v-305h-20v460h20z" />
    <glyph glyph-name="s" unicode="s" horiz-adv-x="426" 
d="M354 428l-7 -15q-66 37 -158 37q-55 0 -85.5 -24.5t-30.5 -67.5q0 -39 30.5 -60.5t110.5 -48.5q94 -31 128 -61.5t34 -79.5q0 -63 -42 -90t-108 -27q-51 0 -108 22.5t-88 58.5l11 14q30 -34 83 -55t102 -21q130 0 130 98q0 42 -30.5 68t-117.5 55q-90 30 -122 55t-32 72
q0 52 36 81.5t99 29.5q95 0 165 -41z" />
    <glyph glyph-name="t" unicode="t" horiz-adv-x="331" 
d="M298 27l3 -17q-47 -10 -80 -10q-65 0 -93 31t-28 99v312h-75v18h75v130h20v-130h161v-18h-161v-312q0 -62 25 -86.5t76 -24.5q33 0 77 8z" />
    <glyph glyph-name="u" unicode="u" horiz-adv-x="540" 
d="M430 0v99q-34 -50 -87.5 -79t-112.5 -29q-80 0 -115 46.5t-35 141.5v281h20v-281q0 -87 30 -128t100 -41q58 0 111 31.5t89 88.5v330h20v-460h-20z" />
    <glyph glyph-name="v" unicode="v" horiz-adv-x="474" 
d="M246 0h-18l-213 460h21l172 -363q11 -23 29 -71q18 48 29 71l172 363h21z" />
    <glyph glyph-name="w" unicode="w" horiz-adv-x="687" 
d="M504 0h-18l-142 428l-143 -428h-18l-173 460h21l136 -363q9 -22 25 -68q8 34 20 68l121 363h21l121 -363q12 -34 20 -68q16 46 25 68l136 363h21z" />
    <glyph glyph-name="x" unicode="x" horiz-adv-x="432" 
d="M392 0l-136 167q-23 26 -40 49q-17 -23 -40 -49l-136 -167h-25l189 233l-183 227h25l130 -161q23 -26 40 -49q17 23 40 49l130 161h25l-183 -227l189 -233h-25z" />
    <glyph glyph-name="y" unicode="y" horiz-adv-x="465" 
d="M427 460h24l-183 -392q-76 -154 -172 -203l-9 18q72 41 123 120l-205 457h24l160 -362l16 -36l17 -39q58 112 205 437z" />
    <glyph glyph-name="z" unicode="z" horiz-adv-x="472" 
d="M432 0h-392v17l363 426q-3 0 -30.5 -0.5t-49.5 -0.5h-278v18h381v-17l-359 -426q14 1 76 1h289v-18z" />
    <glyph glyph-name="braceleft" unicode="{" horiz-adv-x="364" 
d="M210 84v-90q0 -114 119 -137l-4 -14q-134 20 -134 151v90q0 94 -25 125t-101 31v14q76 0 101 31t25 125v90q0 131 134 151l4 -14q-119 -23 -119 -137v-90q0 -85 -19 -120t-72 -43q53 -8 72 -43t19 -120z" />
    <glyph glyph-name="bar" unicode="|" horiz-adv-x="260" 
d="M120 -200v860h20v-860h-20z" />
    <glyph glyph-name="braceright" unicode="}" horiz-adv-x="364" 
d="M164 -6v90q0 85 19 120t72 43q-53 8 -72 43t-19 120v90q0 114 -119 137l4 14q134 -20 134 -151v-90q0 -94 25 -125t101 -31v-14q-76 0 -101 -31t-25 -125v-90q0 -131 -134 -151l-4 14q119 23 119 137z" />
    <glyph glyph-name="asciitilde" unicode="~" horiz-adv-x="383" 
d="M335 292l17 -9q-45 -92 -122 -54l-91 45q-31 15 -53 5t-41 -47l-18 9q44 89 122 49l91 -44q32 -15 54 -4.5t41 50.5z" />
    <glyph glyph-name="exclamdown" unicode="&#xa1;" horiz-adv-x="178" 
d="M79 431q-19 0 -19 19t19 19t19 -19t-19 -19zM90 -141h-23v430h23v-430z" />
    <glyph glyph-name="cent" unicode="&#xa2;" horiz-adv-x="512" 
d="M459 83l13 -12q-64 -76 -179 -80v-61h-20v61q-40 0 -75.5 14t-67.5 43.5t-51 84t-19 128.5t19 130t51 86.5t67.5 45t75.5 16.5v71h20v-71q101 -3 159 -53l-12 -14q-59 48 -158 48q-36 0 -69 -12.5t-64.5 -40.5t-50 -81t-18.5 -125q0 -70 18 -121.5t48 -78.5t62 -39
t68 -12q61 0 104 17t79 56z" />
    <glyph glyph-name="sterling" unicode="&#xa3;" horiz-adv-x="523" 
d="M503 489l-12 -14q-59 48 -148 48q-77 0 -120.5 -52t-51.5 -172l-4 -59h230v-18h-231l-14 -203h336v-19h-453v15l97 4l14 203h-106v18h107l4 59q9 130 57 186.5t135 56.5q97 0 160 -53z" />
    <glyph glyph-name="yen" unicode="&#xa5;" horiz-adv-x="481" 
d="M252 216h155v-18h-156v-92h156v-18h-156v-88h-21v88h-150v18h150v92h-150v18h149l-209 324h23l188 -290q8 -12 10 -16q2 4 10 16l187 290h23z" />
    <glyph glyph-name="brokenbar" unicode="&#xa6;" horiz-adv-x="260" 
d="M120 326v334h20v-334h-20zM120 -200v334h20v-334h-20z" />
    <glyph glyph-name="section" unicode="&#xa7;" horiz-adv-x="572" 
d="M101 44l13 12q30 -32 84.5 -53t103.5 -21q57 0 88.5 24.5t31.5 67.5q0 39 -31 60.5t-114 48.5q-106 34 -151.5 66t-45.5 85q0 27 15 49.5t56 56.5q-31 25 -31 69q0 52 37.5 81.5t102.5 29.5q97 0 170 -41l-7 -15q-69 37 -163 37q-57 0 -88.5 -24.5t-31.5 -67.5
q0 -39 31 -60.5t114 -48.5q106 -34 151.5 -66t45.5 -85q0 -27 -14.5 -49t-55.5 -57q30 -26 30 -69q0 -52 -37.5 -81.5t-102.5 -29.5q-52 0 -111 22.5t-90 58.5zM163 430q-37 -32 -50 -52t-13 -44q0 -46 41 -73.5t141 -59.5q84 -26 117 -49q37 32 50 52.5t13 44.5
q0 46 -41 73.5t-141 59.5q-81 26 -117 48z" />
    <glyph glyph-name="dieresis" unicode="&#xa8;" 
d="M155 623q18 0 18 -18t-18 -18t-18 18t18 18zM325 623q18 0 18 -18t-18 -18t-18 18t18 18z" />
    <glyph glyph-name="copyright" unicode="&#xa9;" horiz-adv-x="747" 
d="M374 -9q-131 0 -222.5 91.5t-91.5 222.5t91.5 223t222.5 92q130 0 221.5 -92t91.5 -223t-91 -222.5t-222 -91.5zM374 11q121 0 207.5 86t86.5 208q0 121 -86.5 208t-207.5 87q-122 0 -208 -87t-86 -208q0 -122 86 -208t208 -86zM511 200l14 -13q-56 -66 -145 -66
q-74 0 -123.5 50t-49.5 129q0 84 46 135t122 51q81 0 134 -45l-13 -14q-48 38 -121 38q-66 0 -106.5 -45.5t-40.5 -119.5q0 -70 43.5 -114.5t108.5 -44.5q79 0 131 59z" />
    <glyph glyph-name="ordfeminine" unicode="&#xaa;" horiz-adv-x="376" 
d="M84 584l-5 17q63 19 124 19q65 0 89 -30t24 -109v-196h-20v71q-51 -77 -136 -77q-114 0 -114 102q0 52 33 76.5t103 24.5q75 0 114 -1q0 68 -20 94t-73 26q-54 0 -119 -17zM296 463h-114q-63 0 -89.5 -18t-26.5 -64q0 -42 22 -62.5t72 -20.5q81 0 136 82v83z" />
    <glyph glyph-name="guillemotleft" unicode="&#xab;" horiz-adv-x="470" 
d="M260 422l-142 -150l-36 -37q13 -12 37 -36l141 -149l-14 -11l-188 197l187 198zM390 422l-142 -150l-36 -37q13 -12 37 -36l141 -149l-14 -11l-188 197l187 198z" />
    <glyph glyph-name="registered" unicode="&#xae;" horiz-adv-x="747" 
d="M374 -9q-131 0 -222.5 91.5t-91.5 222.5t91.5 223t222.5 92q130 0 221.5 -92t91.5 -223t-91 -222.5t-222 -91.5zM374 11q121 0 207.5 86t86.5 208q0 121 -86.5 208t-207.5 87q-122 0 -208 -87t-86 -208q0 -122 86 -208t208 -86zM254 482h123q65 0 100 -28t35 -80
q0 -44 -23 -70t-66 -31q46 -17 105 -145h-22q-65 137 -107 137h-124v-137h-21v354zM275 285h126q43 0 66.5 23t23.5 66q0 42 -29.5 65t-84.5 23h-102v-177z" />
    <glyph glyph-name="macron" unicode="&#xaf;" 
d="M340 591h-200v19h200v-19z" />
    <glyph glyph-name="degree" unicode="&#xb0;" horiz-adv-x="316" 
d="M158 620q44 0 71 -27.5t27 -72.5q0 -42 -27.5 -68t-71.5 -26q-43 0 -70 26t-27 68q0 45 27 72.5t71 27.5zM157 444q37 0 59 21t22 55q0 37 -22 60t-58 23t-58 -23t-22 -60q0 -34 22 -55t57 -21z" />
    <glyph glyph-name="plusminus" unicode="&#xb1;" horiz-adv-x="446" 
d="M415 303h-185v-154h-19v154h-183v20h183v154l20 -1v-153h184v-20zM415 102v-19h-388l1 19h387z" />
    <glyph glyph-name="twosuperior" unicode="&#xb2;" horiz-adv-x="331" 
d="M296 335h-266v18l67 53.5t67 54.5t49.5 47t39 52t11.5 49q0 44 -24 68t-69 24q-69 0 -130 -32l-9 16q68 35 139 35q54 0 83.5 -29t29.5 -82q0 -22 -9.5 -44.5t-22 -40t-38.5 -42t-44 -39.5l-53.5 -44l-54.5 -45h27h207v-19z" />
    <glyph glyph-name="threesuperior" unicode="&#xb3;" horiz-adv-x="328" 
d="M35 669l-9 16q67 35 141 35q55 0 84.5 -26.5t29.5 -75.5q0 -66 -69 -83q81 -20 81 -100q0 -50 -32.5 -76.5t-93.5 -26.5q-81 0 -147 36l9 16q61 -33 138 -33q51 0 78.5 22t27.5 62q0 44 -28.5 67t-82.5 23h-68v19h68q47 0 73 19.5t26 54.5q0 40 -24.5 61.5t-69.5 21.5
q-70 0 -132 -32z" />
    <glyph glyph-name="acute" unicode="&#xb4;" 
d="M309 662l-1 -6l-112 -116l-8 7l105 129z" />
    <glyph glyph-name="paragraph" unicode="&#xb6;" horiz-adv-x="508" 
d="M458 591l-117 -2v-589h-21v221h-19q-133 0 -187 42.5t-54 149.5q0 110 53.5 153.5t187.5 43.5h157v-19z" />
    <glyph glyph-name="periodcentered" unicode="&#xb7;" horiz-adv-x="258" 
d="M100 289q0 19 19 19t19 -19t-19 -19t-19 19z" />
    <glyph glyph-name="cedilla" unicode="&#xb8;" 
d="M245 0l-8 -44q93 -4 93 -74q0 -33 -24 -53.5t-63 -20.5q-35 0 -67 10l5 15q33 -7 62 -7q31 0 50 15.5t19 40.5q0 60 -86 60h-13l16 58h16z" />
    <glyph glyph-name="onesuperior" unicode="&#xb9;" horiz-adv-x="298" 
d="M278 331h-241v19h115v334q-55 -25 -117 -39l-5 15q73 20 126 50h16v-360h106v-19z" />
    <glyph glyph-name="ordmasculine" unicode="&#xba;" horiz-adv-x="438" 
d="M219 620q76 0 117.5 -45.5t41.5 -128.5q0 -80 -41.5 -123.5t-118.5 -43.5q-76 0 -117 43.5t-41 123.5q0 83 41.5 128.5t117.5 45.5zM218 298q67 0 103.5 38.5t36.5 109.5q0 74 -36 114.5t-103 40.5t-103 -40.5t-36 -114.5q0 -71 36 -109.5t102 -38.5z" />
    <glyph glyph-name="guillemotright" unicode="&#xbb;" horiz-adv-x="470" 
d="M72 39l-12 11l141 149l17 17.5l19 19.5q-12 11 -35 36l-142 150l13 12l187 -198zM202 39l-12 11l141 149l17 17.5l19 19.5q-12 11 -35 36l-142 150l13 12l187 -198z" />
    <glyph glyph-name="onequarter" unicode="&#xbc;" horiz-adv-x="863" 
d="M278 231h-241v19h115v334q-55 -25 -117 -39l-5 15q73 20 126 50h16v-360h106v-19zM611 610l-366 -610h-22l366 610h22zM717 93v-93h-20v93h-236v18l236 268h20v-267h66v-19h-66zM697 112v236q-8 -11 -24 -30l-149 -165l-36 -41h209z" />
    <glyph glyph-name="onehalf" unicode="&#xbd;" horiz-adv-x="862" 
d="M278 231h-241v19h115v334q-55 -25 -117 -39l-5 15q73 20 126 50h16v-360h106v-19zM611 610l-366 -610h-22l366 610h22zM792 0h-266v18l67 53.5t67 54.5t49.5 47t39 52t11.5 49q0 44 -24 68t-69 24q-69 0 -130 -32l-9 16q68 35 139 35q54 0 83.5 -29t29.5 -82
q0 -22 -9.5 -44.5t-22 -40t-38.5 -42t-44 -39.5l-53.5 -44l-54.5 -45h27h207v-19z" />
    <glyph glyph-name="threequarters" unicode="&#xbe;" horiz-adv-x="853" 
d="M35 569l-9 16q67 35 141 35q55 0 84.5 -26.5t29.5 -75.5q0 -66 -69 -83q81 -20 81 -100q0 -50 -32.5 -76.5t-93.5 -26.5q-81 0 -147 36l9 16q61 -33 138 -33q51 0 78.5 22t27.5 62q0 44 -28.5 67t-82.5 23h-68v19h68q47 0 73 19.5t26 54.5q0 40 -24.5 61.5t-69.5 21.5
q-70 0 -132 -32zM621 610l-366 -610h-22l366 610h22zM717 93v-93h-20v93h-236v18l236 268h20v-267h66v-19h-66zM697 112v236q-8 -11 -24 -30l-149 -165l-36 -41h209z" />
    <glyph glyph-name="questiondown" unicode="&#xbf;" horiz-adv-x="486" 
d="M289 431q-19 0 -19 19t19 19t19 -19t-19 -19zM462 -77l9 -17q-108 -57 -223 -57q-87 0 -135 47.5t-48 131.5q0 68 58 115t157 61v95h19l3 -110q-99 -12 -157.5 -54.5t-58.5 -106.5q0 -75 42.5 -117t119.5 -42q111 0 214 54z" />
    <glyph glyph-name="Agrave" unicode="&#xc0;" horiz-adv-x="625" 
d="M323 657l-8 -7l-112 116l-1 6l16 14zM132 194l-89 -194h-23l280 610h25l280 -610h-23l-89 194h-361zM484 214l-143 310q-19 41 -28 67q-15 -37 -29 -67l-143 -310h343z" />
    <glyph glyph-name="Aacute" unicode="&#xc1;" horiz-adv-x="625" 
d="M423 782l-1 -6l-112 -116l-8 7l105 129zM132 194l-89 -194h-23l280 610h25l280 -610h-23l-89 194h-361zM484 214l-143 310q-19 41 -28 67q-15 -37 -29 -67l-143 -310h343z" />
    <glyph glyph-name="Acircumflex" unicode="&#xc2;" horiz-adv-x="625" 
d="M313 759l-119 -112l-11 10l115 119h30l115 -119l-11 -10zM132 194l-89 -194h-23l280 610h25l280 -610h-23l-89 194h-361zM484 214l-143 310q-19 41 -28 67q-15 -37 -29 -67l-143 -310h343z" />
    <glyph glyph-name="Atilde" unicode="&#xc3;" horiz-adv-x="625" 
d="M436 751l17 -8q-42 -85 -118 -46l-55 28q-58 29 -90 -32l-18 8q41 79 118 40l55 -26q60 -29 91 36zM132 194l-89 -194h-23l280 610h25l280 -610h-23l-89 194h-361zM484 214l-143 310q-19 41 -28 67q-15 -37 -29 -67l-143 -310h343z" />
    <glyph glyph-name="Adieresis" unicode="&#xc4;" horiz-adv-x="625" 
d="M228 733q18 0 18 -18t-18 -18t-18 18t18 18zM398 733q18 0 18 -18t-18 -18t-18 18t18 18zM132 194l-89 -194h-23l280 610h25l280 -610h-23l-89 194h-361zM484 214l-143 310q-19 41 -28 67q-15 -37 -29 -67l-143 -310h343z" />
    <glyph glyph-name="Aring" unicode="&#xc5;" horiz-adv-x="625" 
d="M313 822q38 0 61.5 -24t23.5 -63q0 -35 -24 -58t-62 -23q-37 0 -60.5 23t-23.5 58q0 39 23.5 63t61.5 24zM312 673q31 0 49 17t18 45q0 31 -18 50t-48 19t-48 -19t-18 -50q0 -28 18 -45t47 -17zM132 194l-89 -194h-23l280 610h25l280 -610h-23l-89 194h-361zM484 214
l-143 310q-19 41 -28 67q-15 -37 -29 -67l-143 -310h343z" />
    <glyph glyph-name="AE" unicode="&#xc6;" horiz-adv-x="929" 
d="M844 20v-20h-383v194h-275l-139 -194h-27l440 610h374v-20h-352v-267h312v-20h-312v-283h362zM461 214v362l-260 -362h260z" />
    <glyph glyph-name="Ccedilla" unicode="&#xc7;" horiz-adv-x="630" 
d="M561 83l14 -15q-75 -77 -243 -77h-11l-6 -35q93 -4 93 -74q0 -33 -24 -53.5t-63 -20.5q-35 0 -67 10l5 15q33 -7 62 -7q31 0 50 15.5t19 40.5q0 60 -86 60h-13l14 50q-118 8 -181.5 89.5t-63.5 223.5q0 152 72.5 233.5t209.5 81.5q56 0 114 -14t93 -37l-10 -17
q-34 21 -89.5 34.5t-107.5 13.5q-128 0 -194.5 -76t-66.5 -219q0 -141 65 -217.5t186 -76.5q155 0 229 72z" />
    <glyph glyph-name="Egrave" unicode="&#xc8;" horiz-adv-x="568" 
d="M324 657l-8 -7l-112 116l-1 6l16 14zM493 0h-383v610h373v-20h-352v-267h312v-20h-312v-283h362v-20z" />
    <glyph glyph-name="Eacute" unicode="&#xc9;" horiz-adv-x="568" 
d="M364 782l-1 -6l-112 -116l-8 7l105 129zM493 0h-383v610h373v-20h-352v-267h312v-20h-312v-283h362v-20z" />
    <glyph glyph-name="Ecircumflex" unicode="&#xca;" horiz-adv-x="568" 
d="M284 769l-119 -112l-11 10l115 119h30l115 -119l-11 -10zM493 0h-383v610h373v-20h-352v-267h312v-20h-312v-283h362v-20z" />
    <glyph glyph-name="Edieresis" unicode="&#xcb;" horiz-adv-x="568" 
d="M209 733q18 0 18 -18t-18 -18t-18 18t18 18zM379 733q18 0 18 -18t-18 -18t-18 18t18 18zM493 0h-383v610h373v-20h-352v-267h312v-20h-312v-283h362v-20z" />
    <glyph glyph-name="Igrave" unicode="&#xcc;" horiz-adv-x="241" 
d="M131 657l-8 -7l-112 116l-1 6l16 14zM131 0h-21v610h21v-610z" />
    <glyph glyph-name="Iacute" unicode="&#xcd;" horiz-adv-x="241" 
d="M231 782l-1 -6l-112 -116l-8 7l105 129zM131 0h-21v610h21v-610z" />
    <glyph glyph-name="Icircumflex" unicode="&#xce;" horiz-adv-x="241" 
d="M121 759l-119 -112l-11 10l115 119h30l115 -119l-11 -10zM131 0h-21v610h21v-610z" />
    <glyph glyph-name="Idieresis" unicode="&#xcf;" horiz-adv-x="241" 
d="M36 733q18 0 18 -18t-18 -18t-18 18t18 18zM206 733q18 0 18 -18t-18 -18t-18 18t18 18zM131 0h-21v610h21v-610z" />
    <glyph glyph-name="Eth" unicode="&#xd0;" horiz-adv-x="650" 
d="M100 610h168q140 0 226 -74.5t86 -220.5q0 -160 -85 -237.5t-227 -77.5h-168v290h-80v20h80v300zM121 20h147q131 0 211 73t80 222q0 136 -81 205.5t-210 69.5h-147v-280h157v-20h-157v-270z" />
    <glyph glyph-name="Ntilde" unicode="&#xd1;" horiz-adv-x="695" 
d="M471 751l17 -8q-42 -85 -118 -46l-55 28q-58 29 -90 -32l-18 8q41 79 118 40l55 -26q60 -29 91 36zM585 0h-20l-434 573v-573h-21v610h20l434 -575v9v566h21v-610z" />
    <glyph glyph-name="Ograve" unicode="&#xd2;" horiz-adv-x="664" 
d="M342 657l-8 -7l-112 116l-1 6l16 14zM332 620q131 0 201.5 -82t70.5 -233t-70.5 -232.5t-201.5 -81.5t-201.5 81.5t-70.5 232.5t70.5 233t201.5 82zM332 11q121 0 186 76.5t65 217.5q0 142 -65 218.5t-186 76.5t-186 -76.5t-65 -218.5q0 -141 65 -217.5t186 -76.5z" />
    <glyph glyph-name="Oacute" unicode="&#xd3;" horiz-adv-x="664" 
d="M442 782l-1 -6l-112 -116l-8 7l105 129zM332 620q131 0 201.5 -82t70.5 -233t-70.5 -232.5t-201.5 -81.5t-201.5 81.5t-70.5 232.5t70.5 233t201.5 82zM332 11q121 0 186 76.5t65 217.5q0 142 -65 218.5t-186 76.5t-186 -76.5t-65 -218.5q0 -141 65 -217.5t186 -76.5z
" />
    <glyph glyph-name="Ocircumflex" unicode="&#xd4;" horiz-adv-x="664" 
d="M332 759l-119 -112l-11 10l115 119h30l115 -119l-11 -10zM332 620q131 0 201.5 -82t70.5 -233t-70.5 -232.5t-201.5 -81.5t-201.5 81.5t-70.5 232.5t70.5 233t201.5 82zM332 11q121 0 186 76.5t65 217.5q0 142 -65 218.5t-186 76.5t-186 -76.5t-65 -218.5
q0 -141 65 -217.5t186 -76.5z" />
    <glyph glyph-name="Otilde" unicode="&#xd5;" horiz-adv-x="664" 
d="M455 751l17 -8q-42 -85 -118 -46l-55 28q-58 29 -90 -32l-18 8q41 79 118 40l55 -26q60 -29 91 36zM332 620q131 0 201.5 -82t70.5 -233t-70.5 -232.5t-201.5 -81.5t-201.5 81.5t-70.5 232.5t70.5 233t201.5 82zM332 11q121 0 186 76.5t65 217.5q0 142 -65 218.5
t-186 76.5t-186 -76.5t-65 -218.5q0 -141 65 -217.5t186 -76.5z" />
    <glyph glyph-name="Odieresis" unicode="&#xd6;" horiz-adv-x="664" 
d="M247 733q18 0 18 -18t-18 -18t-18 18t18 18zM417 733q18 0 18 -18t-18 -18t-18 18t18 18zM332 620q131 0 201.5 -82t70.5 -233t-70.5 -232.5t-201.5 -81.5t-201.5 81.5t-70.5 232.5t70.5 233t201.5 82zM332 11q121 0 186 76.5t65 217.5q0 142 -65 218.5t-186 76.5
t-186 -76.5t-65 -218.5q0 -141 65 -217.5t186 -76.5z" />
    <glyph glyph-name="multiply" unicode="&#xd7;" horiz-adv-x="446" 
d="M81 87l-13 14l143 143l-136 137l14 14l137 -136l137 137l13 -14l-136 -137l144 -143l-15 -15l-144 144z" />
    <glyph glyph-name="Oslash" unicode="&#xd8;" horiz-adv-x="664" 
d="M590 602l-60 -72q64 -81 64 -225q0 -151 -70.5 -232.5t-201.5 -81.5q-118 0 -188 67l-53 -63l-16 13l55 66q-70 81 -70 231q0 151 70.5 233t201.5 82q123 0 194 -74l58 69zM134 90l368 440q-64 70 -180 70q-121 0 -186 -76.5t-65 -218.5q0 -138 63 -215zM516 513
l-368 -438q64 -64 174 -64q121 0 186 76.5t65 217.5q0 133 -57 208z" />
    <glyph glyph-name="Ugrave" unicode="&#xd9;" horiz-adv-x="664" 
d="M352 657l-8 -7l-112 116l-1 6l16 14zM574 610v-345q0 -131 -63 -202.5t-179 -71.5t-179 71.5t-63 202.5v345h21v-345q0 -122 57.5 -188t163.5 -66t163.5 66t57.5 188v345h21z" />
    <glyph glyph-name="Uacute" unicode="&#xda;" horiz-adv-x="664" 
d="M412 782l-1 -6l-112 -116l-8 7l105 129zM574 610v-345q0 -131 -63 -202.5t-179 -71.5t-179 71.5t-63 202.5v345h21v-345q0 -122 57.5 -188t163.5 -66t163.5 66t57.5 188v345h21z" />
    <glyph glyph-name="Ucircumflex" unicode="&#xdb;" horiz-adv-x="664" 
d="M332 759l-119 -112l-11 10l115 119h30l115 -119l-11 -10zM574 610v-345q0 -131 -63 -202.5t-179 -71.5t-179 71.5t-63 202.5v345h21v-345q0 -122 57.5 -188t163.5 -66t163.5 66t57.5 188v345h21z" />
    <glyph glyph-name="Udieresis" unicode="&#xdc;" horiz-adv-x="664" 
d="M247 733q18 0 18 -18t-18 -18t-18 18t18 18zM417 733q18 0 18 -18t-18 -18t-18 18t18 18zM574 610v-345q0 -131 -63 -202.5t-179 -71.5t-179 71.5t-63 202.5v345h21v-345q0 -122 57.5 -188t163.5 -66t163.5 66t57.5 188v345h21z" />
    <glyph glyph-name="Yacute" unicode="&#xdd;" horiz-adv-x="521" 
d="M371 782l-1 -6l-112 -116l-8 7l105 129zM271 230v-230h-21v230l-230 380h24l207 -340q3 -4 10 -21q4 13 9 21l207 340h24z" />
    <glyph glyph-name="Thorn" unicode="&#xde;" horiz-adv-x="560" 
d="M131 490h157q119 0 175.5 -47.5t56.5 -147.5t-56.5 -147.5t-175.5 -47.5h-157v-100h-21v610h21v-120zM131 120h157q107 0 159 43t52 132t-52 132t-159 43h-157v-350z" />
    <glyph glyph-name="germandbls" unicode="&#xdf;" horiz-adv-x="561" 
d="M-5 460h91q7 85 65 135.5t147 50.5q76 0 124.5 -43t48.5 -112q0 -58 -34.5 -98.5t-94.5 -53.5q73 -14 116 -62.5t43 -120.5q0 -74 -50.5 -119.5t-132.5 -45.5q-59 0 -121 15l5 18q56 -14 116 -14q73 0 117.5 40.5t44.5 105.5q0 78 -52.5 125.5t-138.5 47.5h-73v18h73
q73 0 117.5 39.5t44.5 104.5q0 61 -43.5 98.5t-109.5 37.5q-86 0 -139.5 -51.5t-53.5 -135.5v-440h-20v442l-90 2v16z" />
    <glyph glyph-name="agrave" unicode="&#xe0;" horiz-adv-x="500" 
d="M302 547l-8 -7l-112 116l-1 6l16 14zM102 426l-5 17q91 26 173 26q88 0 119 -44t31 -151v-274h-20v100q-72 -109 -190 -109q-80 0 -120 37.5t-40 105.5q0 74 46.5 108t143.5 34q105 0 160 -1q0 98 -27.5 136.5t-102.5 38.5t-168 -24zM400 128v130q-28 0 -77 -0.5
t-83 -0.5q-88 0 -129 -29t-41 -94q0 -124 140 -124q62 0 107 29.5t83 88.5z" />
    <glyph glyph-name="aacute" unicode="&#xe1;" horiz-adv-x="500" 
d="M319 662l-1 -6l-112 -116l-8 7l105 129zM102 426l-5 17q91 26 173 26q88 0 119 -44t31 -151v-274h-20v100q-72 -109 -190 -109q-80 0 -120 37.5t-40 105.5q0 74 46.5 108t143.5 34q105 0 160 -1q0 98 -27.5 136.5t-102.5 38.5t-168 -24zM400 128v130q-28 0 -77 -0.5
t-83 -0.5q-88 0 -129 -29t-41 -94q0 -124 140 -124q62 0 107 29.5t83 88.5z" />
    <glyph glyph-name="acircumflex" unicode="&#xe2;" horiz-adv-x="500" 
d="M380 547l-11 -10l-119 112l-119 -112l-11 10l115 119h30zM102 426l-5 17q91 26 173 26q88 0 119 -44t31 -151v-274h-20v100q-72 -109 -190 -109q-80 0 -120 37.5t-40 105.5q0 74 46.5 108t143.5 34q105 0 160 -1q0 98 -27.5 136.5t-102.5 38.5t-168 -24zM400 128v130
q-28 0 -77 -0.5t-83 -0.5q-88 0 -129 -29t-41 -94q0 -124 140 -124q62 0 107 29.5t83 88.5z" />
    <glyph glyph-name="atilde" unicode="&#xe3;" horiz-adv-x="500" 
d="M374 649l17 -6q-42 -85 -118 -46l-55 28q-58 29 -90 -31l-18 7q41 79 118 40l55 -26q59 -29 91 34zM102 426l-5 17q91 26 173 26q88 0 119 -44t31 -151v-274h-20v100q-72 -109 -190 -109q-80 0 -120 37.5t-40 105.5q0 74 46.5 108t143.5 34q105 0 160 -1
q0 98 -27.5 136.5t-102.5 38.5t-168 -24zM400 128v130q-28 0 -77 -0.5t-83 -0.5q-88 0 -129 -29t-41 -94q0 -124 140 -124q62 0 107 29.5t83 88.5z" />
    <glyph glyph-name="adieresis" unicode="&#xe4;" horiz-adv-x="500" 
d="M165 623q18 0 18 -18t-18 -18t-18 18t18 18zM335 623q18 0 18 -18t-18 -18t-18 18t18 18zM102 426l-5 17q91 26 173 26q88 0 119 -44t31 -151v-274h-20v100q-72 -109 -190 -109q-80 0 -120 37.5t-40 105.5q0 74 46.5 108t143.5 34q105 0 160 -1q0 98 -27.5 136.5
t-102.5 38.5t-168 -24zM400 128v130q-28 0 -77 -0.5t-83 -0.5q-88 0 -129 -29t-41 -94q0 -124 140 -124q62 0 107 29.5t83 88.5z" />
    <glyph glyph-name="aring" unicode="&#xe5;" horiz-adv-x="500" 
d="M250 692q38 0 61.5 -24t23.5 -63q0 -35 -24 -58t-62 -23q-37 0 -60.5 23t-23.5 58q0 39 23.5 63t61.5 24zM249 543q31 0 49 17t18 45q0 31 -18 50t-48 19t-48 -19t-18 -50q0 -28 18 -45t47 -17zM102 426l-5 17q91 26 173 26q88 0 119 -44t31 -151v-274h-20v100
q-72 -109 -190 -109q-80 0 -120 37.5t-40 105.5q0 74 46.5 108t143.5 34q105 0 160 -1q0 98 -27.5 136.5t-102.5 38.5t-168 -24zM400 128v130q-28 0 -77 -0.5t-83 -0.5q-88 0 -129 -29t-41 -94q0 -124 140 -124q62 0 107 29.5t83 88.5z" />
    <glyph glyph-name="ae" unicode="&#xe6;" horiz-adv-x="862" 
d="M796 226h-387q0 -113 52.5 -164.5t133.5 -51.5q106 0 171 72l12 -12q-63 -79 -183 -79q-124 0 -175 94q-84 -94 -190 -94q-180 0 -180 143q0 112 190 112q35 0 149 -2l1 11q-1 101 -25.5 148t-94.5 47q-75 0 -168 -24l-5 17q91 26 173 26q66 0 96.5 -33.5t38.5 -99.5
q23 68 75.5 100.5t120.5 32.5q188 0 196 -225q0 -10 -1 -18zM410 244h367q-3 108 -50.5 157t-125.5 49q-77 0 -130.5 -47t-60.5 -149v-10zM410 105q-21 52 -21 121q-120 2 -149 2q-170 0 -170 -94q0 -124 160 -124q100 0 180 95z" />
    <glyph glyph-name="ccedilla" unicode="&#xe7;" horiz-adv-x="497" 
d="M434 84l13 -13q-67 -80 -186 -80h-6l-6 -35q93 -4 93 -74q0 -33 -24 -53.5t-63 -20.5q-35 0 -67 10l5 15q33 -7 62 -7q31 0 50 15.5t19 40.5q0 60 -86 60h-13l14 50q-83 7 -133.5 63.5t-50.5 170.5q0 125 60 184t152 59q97 0 160 -53l-12 -14q-59 48 -148 48
q-82 0 -137 -54t-55 -170q0 -113 52.5 -164.5t133.5 -51.5q106 0 173 74z" />
    <glyph glyph-name="egrave" unicode="&#xe8;" horiz-adv-x="518" 
d="M281 547l-8 -7l-112 116l-1 6l16 14zM432 82l12 -12q-63 -79 -183 -79q-91 0 -148.5 56.5t-57.5 178.5q0 125 60 184t152 59q188 0 196 -225q0 -10 -1 -18h-387q0 -113 52.5 -164.5t133.5 -51.5q106 0 171 72zM75 244h368q-3 108 -50.5 157t-125.5 49q-79 0 -133 -49.5
t-59 -156.5z" />
    <glyph glyph-name="eacute" unicode="&#xe9;" horiz-adv-x="518" 
d="M338 662l-1 -6l-112 -116l-8 7l105 129zM432 82l12 -12q-63 -79 -183 -79q-91 0 -148.5 56.5t-57.5 178.5q0 125 60 184t152 59q188 0 196 -225q0 -10 -1 -18h-387q0 -113 52.5 -164.5t133.5 -51.5q106 0 171 72zM75 244h368q-3 108 -50.5 157t-125.5 49
q-79 0 -133 -49.5t-59 -156.5z" />
    <glyph glyph-name="ecircumflex" unicode="&#xea;" horiz-adv-x="518" 
d="M389 547l-11 -10l-119 112l-119 -112l-11 10l115 119h30zM432 82l12 -12q-63 -79 -183 -79q-91 0 -148.5 56.5t-57.5 178.5q0 125 60 184t152 59q188 0 196 -225q0 -10 -1 -18h-387q0 -113 52.5 -164.5t133.5 -51.5q106 0 171 72zM75 244h368q-3 108 -50.5 157t-125.5 49
q-79 0 -133 -49.5t-59 -156.5z" />
    <glyph glyph-name="edieresis" unicode="&#xeb;" horiz-adv-x="518" 
d="M174 623q18 0 18 -18t-18 -18t-18 18t18 18zM344 623q18 0 18 -18t-18 -18t-18 18t18 18zM432 82l12 -12q-63 -79 -183 -79q-91 0 -148.5 56.5t-57.5 178.5q0 125 60 184t152 59q188 0 196 -225q0 -10 -1 -18h-387q0 -113 52.5 -164.5t133.5 -51.5q106 0 171 72zM75 244
h368q-3 108 -50.5 157t-125.5 49q-79 0 -133 -49.5t-59 -156.5z" />
    <glyph glyph-name="igrave" unicode="&#xec;" horiz-adv-x="200" 
d="M102 547l-8 -7l-112 116l-1 6l16 14zM110 0h-20v460h20v-460z" />
    <glyph glyph-name="iacute" unicode="&#xed;" horiz-adv-x="200" 
d="M199 662l-1 -6l-112 -116l-8 7l105 129zM110 0h-20v460h20v-460z" />
    <glyph glyph-name="icircumflex" unicode="&#xee;" horiz-adv-x="200" 
d="M230 547l-11 -10l-119 112l-119 -112l-11 10l115 119h30zM110 0h-20v460h20v-460z" />
    <glyph glyph-name="idieresis" unicode="&#xef;" horiz-adv-x="200" 
d="M15 623q18 0 18 -18t-18 -18t-18 18t18 18zM185 623q18 0 18 -18t-18 -18t-18 18t18 18zM110 0h-20v460h20v-460z" />
    <glyph glyph-name="eth" unicode="&#xf0;" horiz-adv-x="554" 
d="M395 644l-102 -59q114 -84 160 -165.5t46 -193.5q0 -113 -58 -174t-165 -61q-106 0 -163.5 61.5t-57.5 173.5q0 121 75.5 180.5t265.5 62.5q-46 54 -120 106l-135 -78l-9 16l127 74q-28 20 -103 65l-1 8l11 9q62 -37 111 -72l109 63zM276 10q97 0 150 56t53 160
q0 134 -68 224q-128 0 -203.5 -27t-104 -74.5t-28.5 -122.5q0 -104 52 -160t149 -56z" />
    <glyph glyph-name="ntilde" unicode="&#xf1;" horiz-adv-x="545" 
d="M407 649l17 -6q-42 -85 -118 -46l-55 28q-58 29 -90 -31l-18 7q41 79 118 40l55 -26q59 -29 91 34zM110 460v-95q70 104 198 104q82 0 117 -45t35 -140v-284h-20v284q0 86 -30 126t-102 40q-58 0 -110 -30t-88 -85v-335h-20v460h20z" />
    <glyph glyph-name="ograve" unicode="&#xf2;" horiz-adv-x="554" 
d="M299 547l-8 -7l-112 116l-1 6l16 14zM277 469q107 0 164.5 -63t57.5 -180q0 -113 -58 -174t-165 -61q-106 0 -163.5 61.5t-57.5 173.5q0 117 57.5 180t164.5 63zM276 10q97 0 150 56t53 160q0 107 -52.5 165.5t-149.5 58.5t-149.5 -58.5t-52.5 -165.5q0 -104 52 -160
t149 -56z" />
    <glyph glyph-name="oacute" unicode="&#xf3;" horiz-adv-x="554" 
d="M366 662l-1 -6l-112 -116l-8 7l105 129zM277 469q107 0 164.5 -63t57.5 -180q0 -113 -58 -174t-165 -61q-106 0 -163.5 61.5t-57.5 173.5q0 117 57.5 180t164.5 63zM276 10q97 0 150 56t53 160q0 107 -52.5 165.5t-149.5 58.5t-149.5 -58.5t-52.5 -165.5q0 -104 52 -160
t149 -56z" />
    <glyph glyph-name="ocircumflex" unicode="&#xf4;" horiz-adv-x="554" 
d="M407 547l-11 -10l-119 112l-119 -112l-11 10l115 119h30zM277 469q107 0 164.5 -63t57.5 -180q0 -113 -58 -174t-165 -61q-106 0 -163.5 61.5t-57.5 173.5q0 117 57.5 180t164.5 63zM276 10q97 0 150 56t53 160q0 107 -52.5 165.5t-149.5 58.5t-149.5 -58.5t-52.5 -165.5
q0 -104 52 -160t149 -56z" />
    <glyph glyph-name="otilde" unicode="&#xf5;" horiz-adv-x="554" 
d="M401 649l17 -6q-42 -85 -118 -46l-55 28q-58 29 -90 -31l-18 7q41 79 118 40l55 -26q59 -29 91 34zM277 469q107 0 164.5 -63t57.5 -180q0 -113 -58 -174t-165 -61q-106 0 -163.5 61.5t-57.5 173.5q0 117 57.5 180t164.5 63zM276 10q97 0 150 56t53 160
q0 107 -52.5 165.5t-149.5 58.5t-149.5 -58.5t-52.5 -165.5q0 -104 52 -160t149 -56z" />
    <glyph glyph-name="odieresis" unicode="&#xf6;" horiz-adv-x="554" 
d="M192 623q18 0 18 -18t-18 -18t-18 18t18 18zM362 623q18 0 18 -18t-18 -18t-18 18t18 18zM277 469q107 0 164.5 -63t57.5 -180q0 -113 -58 -174t-165 -61q-106 0 -163.5 61.5t-57.5 173.5q0 117 57.5 180t164.5 63zM276 10q97 0 150 56t53 160q0 107 -52.5 165.5
t-149.5 58.5t-149.5 -58.5t-52.5 -165.5q0 -104 52 -160t149 -56z" />
    <glyph glyph-name="divide" unicode="&#xf7;" horiz-adv-x="446" 
d="M191 389q0 28 28 28t28 -28t-28 -28t-28 28zM27 223l1 19h387v-19h-388zM191 89q0 28 28 28t28 -28t-28 -28t-28 28z" />
    <glyph glyph-name="oslash" unicode="&#xf8;" horiz-adv-x="554" 
d="M453 454l-32 -38q68 -63 68 -190q0 -113 -58 -174t-165 -61q-98 0 -157 54l-31 -37l-14 12l33 39q-52 61 -52 167q0 117 57.5 180t164.5 63q84 0 138 -40l32 38zM110 75l282 338q-49 37 -125 37q-97 0 -149.5 -58.5t-52.5 -165.5q0 -97 45 -151zM408 400l-286 -339
q53 -51 144 -51q97 0 150 56t53 160q0 116 -61 174z" />
    <glyph glyph-name="ugrave" unicode="&#xf9;" horiz-adv-x="540" 
d="M322 547l-8 -7l-112 116l-1 6l16 14zM430 0v99q-34 -50 -87.5 -79t-112.5 -29q-80 0 -115 46.5t-35 141.5v281h20v-281q0 -87 30 -128t100 -41q58 0 111 31.5t89 88.5v330h20v-460h-20z" />
    <glyph glyph-name="uacute" unicode="&#xfa;" horiz-adv-x="540" 
d="M339 662l-1 -6l-112 -116l-8 7l105 129zM430 0v99q-34 -50 -87.5 -79t-112.5 -29q-80 0 -115 46.5t-35 141.5v281h20v-281q0 -87 30 -128t100 -41q58 0 111 31.5t89 88.5v330h20v-460h-20z" />
    <glyph glyph-name="ucircumflex" unicode="&#xfb;" horiz-adv-x="540" 
d="M400 547l-11 -10l-119 112l-119 -112l-11 10l115 119h30zM430 0v99q-34 -50 -87.5 -79t-112.5 -29q-80 0 -115 46.5t-35 141.5v281h20v-281q0 -87 30 -128t100 -41q58 0 111 31.5t89 88.5v330h20v-460h-20z" />
    <glyph glyph-name="udieresis" unicode="&#xfc;" horiz-adv-x="540" 
d="M185 623q18 0 18 -18t-18 -18t-18 18t18 18zM355 623q18 0 18 -18t-18 -18t-18 18t18 18zM430 0v99q-34 -50 -87.5 -79t-112.5 -29q-80 0 -115 46.5t-35 141.5v281h20v-281q0 -87 30 -128t100 -41q58 0 111 31.5t89 88.5v330h20v-460h-20z" />
    <glyph glyph-name="yacute" unicode="&#xfd;" horiz-adv-x="465" 
d="M302 662l-1 -6l-112 -116l-8 7l105 129zM427 460h24l-183 -392q-76 -154 -172 -203l-9 18q72 41 123 120l-205 457h24l160 -362l16 -36l17 -39q58 112 205 437z" />
    <glyph glyph-name="thorn" unicode="&#xfe;" horiz-adv-x="555" 
d="M110 660v-286q34 43 87.5 69t110.5 26q192 0 192 -240q0 -121 -59 -179.5t-145 -58.5q-61 0 -103.5 23.5t-82.5 74.5v-259h-20v830h20zM110 349v-235q41 -54 83.5 -79t102.5 -25q77 0 130.5 53.5t53.5 165.5q0 221 -172 221q-57 0 -109.5 -26.5t-88.5 -74.5z" />
    <glyph glyph-name="ydieresis" unicode="&#xff;" horiz-adv-x="465" 
d="M148 623q18 0 18 -18t-18 -18t-18 18t18 18zM318 623q18 0 18 -18t-18 -18t-18 18t18 18zM427 460h24l-183 -392q-76 -154 -172 -203l-9 18q72 41 123 120l-205 457h24l160 -362l16 -36l17 -39q58 112 205 437z" />
    <glyph glyph-name="Amacron" unicode="&#x100;" horiz-adv-x="625" 
d="M413 705h-200v19h200v-19zM132 194l-89 -194h-23l280 610h25l280 -610h-23l-89 194h-361zM484 214l-143 310q-19 41 -28 67q-15 -37 -29 -67l-143 -310h343z" />
    <glyph glyph-name="amacron" unicode="&#x101;" horiz-adv-x="500" 
d="M350 591h-200v19h200v-19zM102 426l-5 17q91 26 173 26q88 0 119 -44t31 -151v-274h-20v100q-72 -109 -190 -109q-80 0 -120 37.5t-40 105.5q0 74 46.5 108t143.5 34q105 0 160 -1q0 98 -27.5 136.5t-102.5 38.5t-168 -24zM400 128v130q-28 0 -77 -0.5t-83 -0.5
q-88 0 -129 -29t-41 -94q0 -124 140 -124q62 0 107 29.5t83 88.5z" />
    <glyph glyph-name="Abreve" unicode="&#x102;" horiz-adv-x="625" 
d="M413 779h18q0 -53 -29.5 -84t-89.5 -31q-59 0 -88 31t-29 84h18q0 -45 24 -71t75 -26q52 0 76.5 26t24.5 71zM132 194l-89 -194h-23l280 610h25l280 -610h-23l-89 194h-361zM484 214l-143 310q-19 41 -28 67q-15 -37 -29 -67l-143 -310h343z" />
    <glyph glyph-name="abreve" unicode="&#x103;" horiz-adv-x="500" 
d="M350 649h18q0 -53 -29.5 -84t-89.5 -31q-59 0 -88 31t-29 84h18q0 -45 24 -71t75 -26q52 0 76.5 26t24.5 71zM102 426l-5 17q91 26 173 26q88 0 119 -44t31 -151v-274h-20v100q-72 -109 -190 -109q-80 0 -120 37.5t-40 105.5q0 74 46.5 108t143.5 34q105 0 160 -1
q0 98 -27.5 136.5t-102.5 38.5t-168 -24zM400 128v130q-28 0 -77 -0.5t-83 -0.5q-88 0 -129 -29t-41 -94q0 -124 140 -124q62 0 107 29.5t83 88.5z" />
    <glyph glyph-name="Aogonek" unicode="&#x104;" horiz-adv-x="625" 
d="M592 7l13 -7q-131 -26 -131 -88q0 -31 18 -48.5t51 -17.5q22 0 52 7l5 -15q-30 -10 -57 -10q-41 0 -64 23t-23 61q0 63 113 95l-86 187h-361l-89 -194h-23l280 610h25zM474 214l-143 310q-14 30 -29 67q-9 -26 -28 -67l-143 -310h343z" />
    <glyph glyph-name="aogonek" unicode="&#x105;" horiz-adv-x="500" 
d="M453 -147l5 -15q-30 -10 -57 -10q-41 0 -64 23t-23 61q0 28 23.5 55t62.5 43v90q-72 -109 -190 -109q-80 0 -120 37.5t-40 105.5q0 74 46.5 108t143.5 34q105 0 160 -1q0 98 -27.5 136.5t-102.5 38.5t-168 -24l-5 17q91 26 173 26q88 0 119 -44t31 -151v-274h-1
q-42 -15 -64.5 -38.5t-22.5 -49.5q0 -31 18 -48.5t51 -17.5q22 0 52 7zM400 128v130q-28 0 -77 -0.5t-83 -0.5q-88 0 -129 -29t-41 -94q0 -124 140 -124q62 0 107 29.5t83 88.5z" />
    <glyph glyph-name="Cacute" unicode="&#x106;" horiz-adv-x="630" 
d="M445 782l-1 -6l-112 -116l-8 7l105 129zM561 83l14 -15q-75 -77 -243 -77q-131 0 -201.5 81.5t-70.5 232.5q0 152 72.5 233.5t209.5 81.5q56 0 114 -14t93 -37l-10 -17q-34 21 -89.5 34.5t-107.5 13.5q-128 0 -194.5 -76t-66.5 -219q0 -141 65 -217.5t186 -76.5
q155 0 229 72z" />
    <glyph glyph-name="cacute" unicode="&#x107;" horiz-adv-x="497" 
d="M343 662l-1 -6l-112 -116l-8 7l105 129zM434 84l13 -13q-67 -80 -186 -80q-91 0 -148.5 56.5t-57.5 178.5q0 125 60 184t152 59q97 0 160 -53l-12 -14q-59 48 -148 48q-82 0 -137 -54t-55 -170q0 -113 52.5 -164.5t133.5 -51.5q106 0 173 74z" />
    <glyph glyph-name="Cdotaccent" unicode="&#x10a;" horiz-adv-x="630" 
d="M335 733q18 0 18 -18t-18 -18t-18 18t18 18zM561 83l14 -15q-75 -77 -243 -77q-131 0 -201.5 81.5t-70.5 232.5q0 152 72.5 233.5t209.5 81.5q56 0 114 -14t93 -37l-10 -17q-34 21 -89.5 34.5t-107.5 13.5q-128 0 -194.5 -76t-66.5 -219q0 -141 65 -217.5t186 -76.5
q155 0 229 72z" />
    <glyph glyph-name="cdotaccent" unicode="&#x10b;" horiz-adv-x="497" 
d="M264 623q18 0 18 -18t-18 -18t-18 18t18 18zM434 84l13 -13q-67 -80 -186 -80q-91 0 -148.5 56.5t-57.5 178.5q0 125 60 184t152 59q97 0 160 -53l-12 -14q-59 48 -148 48q-82 0 -137 -54t-55 -170q0 -113 52.5 -164.5t133.5 -51.5q106 0 173 74z" />
    <glyph glyph-name="Ccaron" unicode="&#x10c;" horiz-adv-x="630" 
d="M350 657h-30l-115 119l11 10l119 -112l119 112l11 -10zM561 83l14 -15q-75 -77 -243 -77q-131 0 -201.5 81.5t-70.5 232.5q0 152 72.5 233.5t209.5 81.5q56 0 114 -14t93 -37l-10 -17q-34 21 -89.5 34.5t-107.5 13.5q-128 0 -194.5 -76t-66.5 -219q0 -141 65 -217.5
t186 -76.5q155 0 229 72z" />
    <glyph glyph-name="ccaron" unicode="&#x10d;" horiz-adv-x="497" 
d="M279 537h-30l-115 119l11 10l119 -112l119 112l11 -10zM434 84l13 -13q-67 -80 -186 -80q-91 0 -148.5 56.5t-57.5 178.5q0 125 60 184t152 59q97 0 160 -53l-12 -14q-59 48 -148 48q-82 0 -137 -54t-55 -170q0 -113 52.5 -164.5t133.5 -51.5q106 0 173 74z" />
    <glyph glyph-name="Dcaron" unicode="&#x10e;" horiz-adv-x="650" 
d="M310 657h-30l-115 119l11 10l119 -112l119 112l11 -10zM110 610h168q140 0 226 -74.5t86 -220.5q0 -160 -85 -237.5t-227 -77.5h-168v610zM131 20h147q131 0 211 73t80 222q0 136 -81 205.5t-210 69.5h-147v-570z" />
    <glyph glyph-name="dcaron" unicode="&#x10f;" horiz-adv-x="555" 
d="M445 0v89q-40 -51 -82.5 -74.5t-103.5 -23.5q-86 0 -145 58.5t-59 179.5q0 240 192 240q57 0 110.5 -26t87.5 -69v286h20v-660h-20zM553 660v-14q-5 -71 -15 -142h-15l10 156h20zM445 117v229q-36 48 -89 76t-109 28q-172 0 -172 -221q0 -112 53.5 -165.5t130.5 -53.5
q59 0 102 26t84 81z" />
    <glyph glyph-name="Dcroat" unicode="&#x110;" horiz-adv-x="650" 
d="M100 610h168q140 0 226 -74.5t86 -220.5q0 -160 -85 -237.5t-227 -77.5h-168v290h-80v20h80v300zM121 20h147q131 0 211 73t80 222q0 136 -81 205.5t-210 69.5h-147v-280h157v-20h-157v-270z" />
    <glyph glyph-name="dcroat" unicode="&#x111;" horiz-adv-x="555" 
d="M520 545h-65v-545h-20v89q-40 -51 -82.5 -74.5t-103.5 -23.5q-86 0 -145 58.5t-59 179.5q0 240 192 240q57 0 110.5 -26t87.5 -69v171h-145v19h145v96h20v-96h65v-19zM435 117v229q-36 48 -89 76t-109 28q-172 0 -172 -221q0 -112 53.5 -165.5t130.5 -53.5q59 0 102 26
t84 81z" />
    <glyph glyph-name="Emacron" unicode="&#x112;" horiz-adv-x="568" 
d="M394 705h-200v19h200v-19zM493 0h-383v610h373v-20h-352v-267h312v-20h-312v-283h362v-20z" />
    <glyph glyph-name="emacron" unicode="&#x113;" horiz-adv-x="518" 
d="M359 591h-200v19h200v-19zM432 82l12 -12q-63 -79 -183 -79q-91 0 -148.5 56.5t-57.5 178.5q0 125 60 184t152 59q188 0 196 -225q0 -10 -1 -18h-387q0 -113 52.5 -164.5t133.5 -51.5q106 0 171 72zM75 244h368q-3 108 -50.5 157t-125.5 49q-79 0 -133 -49.5t-59 -156.5z
" />
    <glyph glyph-name="Edotaccent" unicode="&#x116;" horiz-adv-x="568" 
d="M294 733q18 0 18 -18t-18 -18t-18 18t18 18zM493 0h-383v610h373v-20h-352v-267h312v-20h-312v-283h362v-20z" />
    <glyph glyph-name="edotaccent" unicode="&#x117;" horiz-adv-x="518" 
d="M259 623q18 0 18 -18t-18 -18t-18 18t18 18zM432 82l12 -12q-63 -79 -183 -79q-91 0 -148.5 56.5t-57.5 178.5q0 125 60 184t152 59q188 0 196 -225q0 -10 -1 -18h-387q0 -113 52.5 -164.5t133.5 -51.5q106 0 171 72zM75 244h368q-3 108 -50.5 157t-125.5 49
q-79 0 -133 -49.5t-59 -156.5z" />
    <glyph glyph-name="Eogonek" unicode="&#x118;" horiz-adv-x="568" 
d="M493 0h-60q-42 -15 -64.5 -38.5t-22.5 -49.5q0 -31 18 -48.5t51 -17.5q22 0 52 7l5 -15q-30 -10 -57 -10q-41 0 -64 23t-23 61q0 23 17.5 47t48.5 41h-284v610h373v-20h-352v-267h312v-20h-312v-283h362v-20z" />
    <glyph glyph-name="eogonek" unicode="&#x119;" horiz-adv-x="518" 
d="M356 -147l5 -15q-30 -10 -57 -10q-41 0 -64 23t-23 61q0 44 51 79h-7q-91 0 -148.5 56.5t-57.5 178.5q0 125 60 184t152 59q188 0 196 -225q0 -10 -1 -18h-387q0 -113 52.5 -164.5t133.5 -51.5q106 0 171 72l12 -12q-47 -59 -135 -75q-74 -32 -74 -83q0 -31 18 -48.5
t51 -17.5q22 0 52 7zM75 244h368q-3 108 -50.5 157t-125.5 49q-79 0 -133 -49.5t-59 -156.5z" />
    <glyph glyph-name="Ecaron" unicode="&#x11a;" horiz-adv-x="568" 
d="M309 657h-30l-115 119l11 10l119 -112l119 112l11 -10zM493 0h-383v610h373v-20h-352v-267h312v-20h-312v-283h362v-20z" />
    <glyph glyph-name="ecaron" unicode="&#x11b;" horiz-adv-x="518" 
d="M274 537h-30l-115 119l11 10l119 -112l119 112l11 -10zM432 82l12 -12q-63 -79 -183 -79q-91 0 -148.5 56.5t-57.5 178.5q0 125 60 184t152 59q188 0 196 -225q0 -10 -1 -18h-387q0 -113 52.5 -164.5t133.5 -51.5q106 0 171 72zM75 244h368q-3 108 -50.5 157t-125.5 49
q-79 0 -133 -49.5t-59 -156.5z" />
    <glyph glyph-name="Gbreve" unicode="&#x11e;" horiz-adv-x="664" 
d="M422 789h18q0 -53 -29.5 -84t-89.5 -31q-59 0 -88 31t-29 84h18q0 -45 24 -71t75 -26q52 0 76.5 26t24.5 71zM594 293v-213q-112 -89 -272 -89q-124 0 -193 82t-69 232q0 152 72.5 233.5t209.5 81.5q127 0 219 -56l-10 -17q-92 53 -209 53q-128 0 -194.5 -76t-66.5 -219
q0 -140 63.5 -217t177.5 -77q145 0 251 79v183h-270v20h291z" />
    <glyph glyph-name="gbreve" unicode="&#x11f;" horiz-adv-x="532" 
d="M366 649h18q0 -53 -29.5 -84t-89.5 -31q-59 0 -88 31t-29 84h18q0 -45 24 -71t75 -26q52 0 76.5 26t24.5 71zM465 460v-400q0 -103 -51.5 -154t-134.5 -51q-117 0 -204 59l8 15q89 -55 196 -55q76 0 121 47.5t45 138.5v59q-40 -51 -82.5 -74.5t-103.5 -23.5
q-87 0 -145.5 50.5t-58.5 157.5q0 240 192 240q57 0 110.5 -26t87.5 -69v86h20zM445 148v198q-36 48 -89 76t-109 28q-172 0 -172 -221q0 -98 53.5 -143.5t130.5 -45.5q59 0 102 26.5t84 81.5z" />
    <glyph glyph-name="Gdotaccent" unicode="&#x120;" horiz-adv-x="664" 
d="M332 733q18 0 18 -18t-18 -18t-18 18t18 18zM594 293v-213q-112 -89 -272 -89q-124 0 -193 82t-69 232q0 152 72.5 233.5t209.5 81.5q127 0 219 -56l-10 -17q-92 53 -209 53q-128 0 -194.5 -76t-66.5 -219q0 -140 63.5 -217t177.5 -77q145 0 251 79v183h-270v20h291z" />
    <glyph glyph-name="gdotaccent" unicode="&#x121;" horiz-adv-x="532" 
d="M266 623q18 0 18 -18t-18 -18t-18 18t18 18zM465 460v-400q0 -103 -51.5 -154t-134.5 -51q-117 0 -204 59l8 15q89 -55 196 -55q76 0 121 47.5t45 138.5v59q-40 -51 -82.5 -74.5t-103.5 -23.5q-87 0 -145.5 50.5t-58.5 157.5q0 240 192 240q57 0 110.5 -26t87.5 -69v86
h20zM445 148v198q-36 48 -89 76t-109 28q-172 0 -172 -221q0 -98 53.5 -143.5t130.5 -45.5q59 0 102 26.5t84 81.5z" />
    <glyph glyph-name="Gcommaaccent" unicode="&#x122;" horiz-adv-x="664" 
d="M594 293v-213q-112 -89 -272 -89q-124 0 -193 82t-69 232q0 152 72.5 233.5t209.5 81.5q127 0 219 -56l-10 -17q-92 53 -209 53q-128 0 -194.5 -76t-66.5 -219q0 -140 63.5 -217t177.5 -77q145 0 251 79v183h-270v20h291zM314 -190l-10 8q36 45 40 84q-18 2 -18 17
q0 19 19 19t19 -21q0 -51 -50 -107z" />
    <glyph glyph-name="gcommaaccent" unicode="&#x123;" horiz-adv-x="532" 
d="M288 658l10 -8q-36 -45 -40 -84q18 -2 18 -17q0 -19 -19 -19t-19 21q0 51 50 107zM465 460v-400q0 -103 -51.5 -154t-134.5 -51q-117 0 -204 59l8 15q89 -55 196 -55q76 0 121 47.5t45 138.5v59q-40 -51 -82.5 -74.5t-103.5 -23.5q-87 0 -145.5 50.5t-58.5 157.5
q0 240 192 240q57 0 110.5 -26t87.5 -69v86h20zM445 148v198q-36 48 -89 76t-109 28q-172 0 -172 -221q0 -98 53.5 -143.5t130.5 -45.5q59 0 102 26.5t84 81.5z" />
    <glyph glyph-name="Hbar" unicode="&#x126;" horiz-adv-x="673" 
d="M628 484h-54v-484h-21v304h-432v-304h-21v484h-55v20h55v106h21v-106h432v106h21v-106h54v-20zM553 484h-432v-160h432v160z" />
    <glyph glyph-name="hbar" unicode="&#x127;" horiz-adv-x="545" 
d="M100 545v-181q71 105 198 105q82 0 117 -45t35 -140v-284h-20v284q0 86 -30 126t-102 40q-122 0 -198 -117v-333h-20v545h-50v19h50v96h20v-96h160v-19h-160z" />
    <glyph glyph-name="Imacron" unicode="&#x12a;" horiz-adv-x="241" 
d="M221 705h-200v19h200v-19zM131 0h-21v610h21v-610z" />
    <glyph glyph-name="imacron" unicode="&#x12b;" horiz-adv-x="200" 
d="M200 591h-200v19h200v-19zM110 0h-20v460h20v-460z" />
    <glyph glyph-name="Iogonek" unicode="&#x12e;" horiz-adv-x="241" 
d="M165 -147l5 -15q-30 -10 -57 -10q-41 0 -64 23t-23 61q0 27 23 54t61 43v601h21v-610q-42 -15 -64.5 -38.5t-22.5 -49.5q0 -31 18 -48.5t51 -17.5q22 0 52 7z" />
    <glyph glyph-name="iogonek" unicode="&#x12f;" horiz-adv-x="200" 
d="M100 587q-18 0 -18 18t18 18t18 -18t-18 -18zM144 -147l5 -15q-30 -10 -57 -10q-41 0 -64 23t-23 61q0 27 23.5 54t61.5 44v450h20v-460q-42 -15 -64.5 -38.5t-22.5 -49.5q0 -31 18 -48.5t51 -17.5q22 0 52 7z" />
    <glyph glyph-name="Idotaccent" unicode="&#x130;" horiz-adv-x="241" 
d="M121 733q18 0 18 -18t-18 -18t-18 18t18 18zM131 0h-21v610h21v-610z" />
    <glyph glyph-name="dotlessi" unicode="&#x131;" horiz-adv-x="200" 
d="M110 0h-20v460h20v-460z" />
    <glyph glyph-name="IJ" unicode="&#x132;" horiz-adv-x="695" 
d="M131 0h-21v610h21v-610zM595 610v-430q0 -189 -170 -189q-80 0 -174 49l8 16q88 -45 166 -45q75 0 112 41t37 128v430h21z" />
    <glyph glyph-name="ij" unicode="&#x133;" horiz-adv-x="380" 
d="M82 595q0 18 18 18t18 -18t-18 -18t-18 18zM280 577q-18 0 -18 18t18 18t18 -18t-18 -18zM110 0h-20v460h20v-460zM290 460v-460q0 -75 -14.5 -111.5t-50.5 -50.5l-8 16q29 13 41 46t12 100v460h20z" />
    <glyph glyph-name="Kcommaaccent" unicode="&#x136;" horiz-adv-x="621" 
d="M294 339l-163 -163v-176h-21v610h21v-404l407 404h26v-2l-254 -254l279 -352v-2h-24zM283 -190l-10 8q36 45 40 84q-18 2 -18 17q0 19 19 19t19 -21q0 -51 -50 -107z" />
    <glyph glyph-name="kcommaaccent" unicode="&#x137;" horiz-adv-x="490" 
d="M444 460v-2l-194 -175l238 -281v-2h-25l-229 269l-124 -112v-157h-20v660h20v-476l308 276h26zM237 -190l-10 8q36 45 40 84q-18 2 -18 17q0 19 19 19t19 -21q0 -51 -50 -107z" />
    <glyph glyph-name="Lacute" unicode="&#x139;" horiz-adv-x="493" 
d="M230 782l-1 -6l-112 -116l-8 7l105 129zM458 0h-348v610h21v-590h327v-20z" />
    <glyph glyph-name="lacute" unicode="&#x13a;" horiz-adv-x="200" 
d="M209 862l-1 -6l-112 -116l-8 7l105 129zM110 0h-20v660h20v-660z" />
    <glyph glyph-name="Lcommaaccent" unicode="&#x13b;" horiz-adv-x="493" 
d="M458 0h-348v610h21v-590h327v-20zM249 -190l-10 8q36 45 40 84q-18 2 -18 17q0 19 19 19t19 -21q0 -51 -50 -107z" />
    <glyph glyph-name="lcommaaccent" unicode="&#x13c;" horiz-adv-x="200" 
d="M110 0h-20v660h20v-660zM72 -190l-10 8q36 45 40 84q-18 2 -18 17q0 19 19 19t19 -21q0 -51 -50 -107z" />
    <glyph glyph-name="Lcaron" unicode="&#x13d;" horiz-adv-x="493" 
d="M458 0h-348v610h21v-590h327v-20zM316 610v-14q-5 -71 -15 -142h-15l10 156h20z" />
    <glyph glyph-name="lcaron" unicode="&#x13e;" horiz-adv-x="200" 
d="M110 0h-20v660h20v-660zM186 660v-14q-5 -71 -15 -142h-15l10 156h20z" />
    <glyph glyph-name="Ldot" unicode="&#x13f;" horiz-adv-x="493" 
d="M458 0h-348v610h21v-590h327v-20zM290 289q0 19 19 19t19 -19t-19 -19t-19 19z" />
    <glyph glyph-name="ldot" unicode="&#x140;" horiz-adv-x="218" 
d="M110 0h-20v660h20v-660zM170 329q0 19 19 19t19 -19t-19 -19t-19 19z" />
    <glyph glyph-name="Lslash" unicode="&#x141;" horiz-adv-x="493" 
d="M448 20v-20h-348v290l-68 -25v20l68 25v300h21v-293l187 68v-20l-187 -68v-277h327z" />
    <glyph glyph-name="lslash" unicode="&#x142;" horiz-adv-x="200" 
d="M174 367l-65 -33v-334h-20v324l-57 -29v20l57 29v316h20v-306l65 33v-20z" />
    <glyph glyph-name="Nacute" unicode="&#x143;" horiz-adv-x="695" 
d="M458 782l-1 -6l-112 -116l-8 7l105 129zM585 0h-20l-434 573v-573h-21v610h20l434 -575v9v566h21v-610z" />
    <glyph glyph-name="nacute" unicode="&#x144;" horiz-adv-x="545" 
d="M352 662l-1 -6l-112 -116l-8 7l105 129zM110 460v-95q70 104 198 104q82 0 117 -45t35 -140v-284h-20v284q0 86 -30 126t-102 40q-58 0 -110 -30t-88 -85v-335h-20v460h20z" />
    <glyph glyph-name="Ncommaaccent" unicode="&#x145;" horiz-adv-x="695" 
d="M585 0h-20l-434 573v-573h-21v610h20l434 -575v9v566h21v-610zM310 -190l-10 8q36 45 40 84q-18 2 -18 17q0 19 19 19t19 -21q0 -51 -50 -107z" />
    <glyph glyph-name="ncommaaccent" unicode="&#x146;" horiz-adv-x="545" 
d="M110 460v-95q70 104 198 104q82 0 117 -45t35 -140v-284h-20v284q0 86 -30 126t-102 40q-58 0 -110 -30t-88 -85v-335h-20v460h20zM245 -190l-10 8q36 45 40 84q-18 2 -18 17q0 19 19 19t19 -21q0 -51 -50 -107z" />
    <glyph glyph-name="Ncaron" unicode="&#x147;" horiz-adv-x="695" 
d="M363 657h-30l-115 119l11 10l119 -112l119 112l11 -10zM585 0h-20l-434 573v-573h-21v610h20l434 -575v9v566h21v-610z" />
    <glyph glyph-name="ncaron" unicode="&#x148;" horiz-adv-x="545" 
d="M298 537h-30l-115 119l11 10l119 -112l119 112l11 -10zM110 460v-95q70 104 198 104q82 0 117 -45t35 -140v-284h-20v284q0 86 -30 126t-102 40q-58 0 -110 -30t-88 -85v-335h-20v460h20z" />
    <glyph glyph-name="Omacron" unicode="&#x14c;" horiz-adv-x="664" 
d="M432 705h-200v19h200v-19zM332 620q131 0 201.5 -82t70.5 -233t-70.5 -232.5t-201.5 -81.5t-201.5 81.5t-70.5 232.5t70.5 233t201.5 82zM332 11q121 0 186 76.5t65 217.5q0 142 -65 218.5t-186 76.5t-186 -76.5t-65 -218.5q0 -141 65 -217.5t186 -76.5z" />
    <glyph glyph-name="omacron" unicode="&#x14d;" horiz-adv-x="554" 
d="M377 591h-200v19h200v-19zM277 469q107 0 164.5 -63t57.5 -180q0 -113 -58 -174t-165 -61q-106 0 -163.5 61.5t-57.5 173.5q0 117 57.5 180t164.5 63zM276 10q97 0 150 56t53 160q0 107 -52.5 165.5t-149.5 58.5t-149.5 -58.5t-52.5 -165.5q0 -104 52 -160t149 -56z" />
    <glyph glyph-name="Ohungarumlaut" unicode="&#x150;" horiz-adv-x="664" 
d="M401 782l-1 -6l-112 -116l-8 7l105 129zM501 782l-1 -6l-112 -116l-8 7l105 129zM332 620q131 0 201.5 -82t70.5 -233t-70.5 -232.5t-201.5 -81.5t-201.5 81.5t-70.5 232.5t70.5 233t201.5 82zM332 11q121 0 186 76.5t65 217.5q0 142 -65 218.5t-186 76.5t-186 -76.5
t-65 -218.5q0 -141 65 -217.5t186 -76.5z" />
    <glyph glyph-name="ohungarumlaut" unicode="&#x151;" horiz-adv-x="554" 
d="M346 662l-1 -6l-112 -116l-8 7l105 129zM446 662l-1 -6l-112 -116l-8 7l105 129zM277 469q107 0 164.5 -63t57.5 -180q0 -113 -58 -174t-165 -61q-106 0 -163.5 61.5t-57.5 173.5q0 117 57.5 180t164.5 63zM276 10q97 0 150 56t53 160q0 107 -52.5 165.5t-149.5 58.5
t-149.5 -58.5t-52.5 -165.5q0 -104 52 -160t149 -56z" />
    <glyph glyph-name="OE" unicode="&#x152;" horiz-adv-x="971" 
d="M886 20v-20h-383v44q-67 -53 -171 -53q-131 0 -201.5 81.5t-70.5 232.5t70.5 233t201.5 82q104 0 171 -53v43h373v-20h-352v-267h312v-20h-312v-283h362zM503 71v469q-63 60 -171 60q-121 0 -186 -76.5t-65 -218.5q0 -141 65 -217.5t186 -76.5q108 0 171 60z" />
    <glyph glyph-name="oe" unicode="&#x153;" horiz-adv-x="942" 
d="M846 82l12 -12q-63 -79 -183 -79q-72 0 -125 36t-71 113q-42 -149 -213 -149q-106 0 -163.5 61.5t-57.5 173.5q0 117 57.5 180t164.5 63q84 0 138 -40t74 -115q20 80 74.5 117.5t127.5 37.5q188 0 196 -225q0 -10 -1 -18h-387q0 -113 52.5 -164.5t133.5 -51.5
q106 0 171 72zM266 10q97 0 150 56t53 160q0 107 -52.5 165.5t-149.5 58.5t-149.5 -58.5t-52.5 -165.5q0 -104 52 -160t149 -56zM489 244h368q-3 108 -50.5 157t-125.5 49q-79 0 -133 -49.5t-59 -156.5z" />
    <glyph glyph-name="Racute" unicode="&#x154;" horiz-adv-x="585" 
d="M402 782l-1 -6l-112 -116l-8 7l105 129zM555 4v-4h-23l-213 240h-188v-240h-21v610h198q232 0 232 -185q0 -78 -55.5 -129t-139.5 -56zM131 260h197q79 0 135 46t56 119q0 165 -211 165h-177v-330z" />
    <glyph glyph-name="racute" unicode="&#x155;" horiz-adv-x="350" 
d="M244 662l-1 -6l-112 -116l-8 7l105 129zM110 460v-112q14 53 58 87t97 34q33 0 60 -3l-3 -18q-24 2 -57 2q-52 0 -93.5 -37t-61.5 -108v-305h-20v460h20z" />
    <glyph glyph-name="Rcommaaccent" unicode="&#x156;" horiz-adv-x="585" 
d="M555 4v-4h-23l-213 240h-188v-240h-21v610h198q232 0 232 -185q0 -78 -55.5 -129t-139.5 -56zM131 260h197q79 0 135 46t56 119q0 165 -211 165h-177v-330zM279 -190l-10 8q36 45 40 84q-18 2 -18 17q0 19 19 19t19 -21q0 -51 -50 -107z" />
    <glyph glyph-name="rcommaaccent" unicode="&#x157;" horiz-adv-x="350" 
d="M110 460v-112q14 53 58 87t97 34q33 0 60 -3l-3 -18q-24 2 -57 2q-52 0 -93.5 -37t-61.5 -108v-305h-20v460h20zM71 -190l-10 8q36 45 40 84q-18 2 -18 17q0 19 19 19t19 -21q0 -51 -50 -107z" />
    <glyph glyph-name="Rcaron" unicode="&#x158;" horiz-adv-x="585" 
d="M277 657l-115 119l11 10l119 -112l119 112l11 -10l-115 -119h-30zM555 4v-4h-23l-213 240h-188v-240h-21v610h198q232 0 232 -185q0 -78 -55.5 -129t-139.5 -56zM131 260h197q79 0 135 46t56 119q0 165 -211 165h-177v-330z" />
    <glyph glyph-name="rcaron" unicode="&#x159;" horiz-adv-x="350" 
d="M190 537h-30l-115 119l11 10l119 -112l119 112l11 -10zM110 460v-112q14 53 58 87t97 34q33 0 60 -3l-3 -18q-24 2 -57 2q-52 0 -93.5 -37t-61.5 -108v-305h-20v460h20z" />
    <glyph glyph-name="Sacute" unicode="&#x15a;" horiz-adv-x="547" 
d="M374 782l-1 -6l-112 -116l-8 7l105 129zM460 569l-9 -17q-87 48 -204 48q-69 0 -111.5 -34.5t-42.5 -84.5q0 -56 36.5 -85.5t149.5 -67.5q120 -40 164 -79.5t44 -104.5q0 -81 -54.5 -117t-139.5 -36q-159 0 -251 105l14 14q89 -99 237 -99q173 0 173 133q0 59 -39 91.5
t-156 73.5q-62 21 -94 35t-59 33.5t-36.5 43.5t-9.5 60q0 61 48 100t127 39q122 0 213 -51z" />
    <glyph glyph-name="sacute" unicode="&#x15b;" horiz-adv-x="426" 
d="M272 662l-1 -6l-112 -116l-8 7l105 129zM354 428l-7 -15q-66 37 -158 37q-55 0 -85.5 -24.5t-30.5 -67.5q0 -39 30.5 -60.5t110.5 -48.5q94 -31 128 -61.5t34 -79.5q0 -63 -42 -90t-108 -27q-51 0 -108 22.5t-88 58.5l11 14q30 -34 83 -55t102 -21q130 0 130 98
q0 42 -30.5 68t-117.5 55q-90 30 -122 55t-32 72q0 52 36 81.5t99 29.5q95 0 165 -41z" />
    <glyph glyph-name="Scedilla" unicode="&#x15e;" horiz-adv-x="547" 
d="M460 569l-9 -17q-87 48 -204 48q-69 0 -111.5 -34.5t-42.5 -84.5q0 -56 36.5 -85.5t149.5 -67.5q120 -40 164 -79.5t44 -104.5q0 -81 -54.5 -117t-139.5 -36q-21 0 -31 1l-7 -36q93 -4 93 -74q0 -33 -24 -53.5t-63 -20.5q-35 0 -67 10l5 15q33 -7 62 -7q31 0 50 15.5
t19 40.5q0 60 -86 60h-13l14 52q-126 14 -203 102l14 14q89 -99 237 -99q173 0 173 133q0 59 -39 91.5t-156 73.5q-62 21 -94 35t-59 33.5t-36.5 43.5t-9.5 60q0 61 48 100t127 39q122 0 213 -51z" />
    <glyph glyph-name="scedilla" unicode="&#x15f;" horiz-adv-x="426" 
d="M354 428l-7 -15q-66 37 -158 37q-55 0 -85.5 -24.5t-30.5 -67.5q0 -39 30.5 -60.5t110.5 -48.5q94 -31 128 -61.5t34 -79.5q0 -63 -42 -90t-108 -27l-16 1l-7 -36q93 -4 93 -74q0 -33 -24 -53.5t-63 -20.5q-35 0 -67 10l5 15q33 -7 62 -7q31 0 50 15.5t19 40.5
q0 60 -86 60h-13l14 51q-47 7 -92.5 28t-70.5 51l11 14q30 -34 83 -55t102 -21q130 0 130 98q0 42 -30.5 68t-117.5 55q-90 30 -122 55t-32 72q0 52 36 81.5t99 29.5q95 0 165 -41z" />
    <glyph glyph-name="Scaron" unicode="&#x160;" horiz-adv-x="547" 
d="M279 657h-30l-115 119l11 10l119 -112l119 112l11 -10zM460 569l-9 -17q-87 48 -204 48q-69 0 -111.5 -34.5t-42.5 -84.5q0 -56 36.5 -85.5t149.5 -67.5q120 -40 164 -79.5t44 -104.5q0 -81 -54.5 -117t-139.5 -36q-159 0 -251 105l14 14q89 -99 237 -99q173 0 173 133
q0 59 -39 91.5t-156 73.5q-62 21 -94 35t-59 33.5t-36.5 43.5t-9.5 60q0 61 48 100t127 39q122 0 213 -51z" />
    <glyph glyph-name="scaron" unicode="&#x161;" horiz-adv-x="426" 
d="M218 537h-30l-115 119l11 10l119 -112l119 112l11 -10zM354 428l-7 -15q-66 37 -158 37q-55 0 -85.5 -24.5t-30.5 -67.5q0 -39 30.5 -60.5t110.5 -48.5q94 -31 128 -61.5t34 -79.5q0 -63 -42 -90t-108 -27q-51 0 -108 22.5t-88 58.5l11 14q30 -34 83 -55t102 -21
q130 0 130 98q0 42 -30.5 68t-117.5 55q-90 30 -122 55t-32 72q0 52 36 81.5t99 29.5q95 0 165 -41z" />
    <glyph glyph-name="Tcaron" unicode="&#x164;" horiz-adv-x="515" 
d="M273 657h-30l-115 119l11 10l119 -112l119 112l11 -10zM505 590h-237v-590h-21v590h-237v20h495v-20z" />
    <glyph glyph-name="tcaron" unicode="&#x165;" horiz-adv-x="331" 
d="M213 660v-14q-5 -71 -15 -142h-15l10 156h20zM298 27l3 -17q-47 -10 -80 -10q-65 0 -93 31t-28 99v312h-75v18h75v130h20v-130h161v-18h-161v-312q0 -62 25 -86.5t76 -24.5q33 0 77 8z" />
    <glyph glyph-name="Umacron" unicode="&#x16a;" horiz-adv-x="664" 
d="M432 705h-200v19h200v-19zM574 610v-345q0 -131 -63 -202.5t-179 -71.5t-179 71.5t-63 202.5v345h21v-345q0 -122 57.5 -188t163.5 -66t163.5 66t57.5 188v345h21z" />
    <glyph glyph-name="umacron" unicode="&#x16b;" horiz-adv-x="540" 
d="M370 591h-200v19h200v-19zM430 0v99q-34 -50 -87.5 -79t-112.5 -29q-80 0 -115 46.5t-35 141.5v281h20v-281q0 -87 30 -128t100 -41q58 0 111 31.5t89 88.5v330h20v-460h-20z" />
    <glyph glyph-name="Uring" unicode="&#x16e;" horiz-adv-x="664" 
d="M332 822q38 0 61.5 -24t23.5 -63q0 -35 -24 -58t-62 -23q-37 0 -60.5 23t-23.5 58q0 39 23.5 63t61.5 24zM331 673q31 0 49 17t18 45q0 31 -18 50t-48 19t-48 -19t-18 -50q0 -28 18 -45t47 -17zM574 610v-345q0 -131 -63 -202.5t-179 -71.5t-179 71.5t-63 202.5v345h21
v-345q0 -122 57.5 -188t163.5 -66t163.5 66t57.5 188v345h21z" />
    <glyph glyph-name="uring" unicode="&#x16f;" horiz-adv-x="540" 
d="M270 692q38 0 61.5 -24t23.5 -63q0 -35 -24 -58t-62 -23q-37 0 -60.5 23t-23.5 58q0 39 23.5 63t61.5 24zM269 543q31 0 49 17t18 45q0 31 -18 50t-48 19t-48 -19t-18 -50q0 -28 18 -45t47 -17zM430 0v99q-34 -50 -87.5 -79t-112.5 -29q-80 0 -115 46.5t-35 141.5v281h20
v-281q0 -87 30 -128t100 -41q58 0 111 31.5t89 88.5v330h20v-460h-20z" />
    <glyph glyph-name="Uhungarumlaut" unicode="&#x170;" horiz-adv-x="664" 
d="M361 782l-1 -6l-112 -116l-8 7l105 129zM461 782l-1 -6l-112 -116l-8 7l105 129zM574 610v-345q0 -131 -63 -202.5t-179 -71.5t-179 71.5t-63 202.5v345h21v-345q0 -122 57.5 -188t163.5 -66t163.5 66t57.5 188v345h21z" />
    <glyph glyph-name="uhungarumlaut" unicode="&#x171;" horiz-adv-x="540" 
d="M339 662l-1 -6l-112 -116l-8 7l105 129zM439 662l-1 -6l-112 -116l-8 7l105 129zM430 0v99q-34 -50 -87.5 -79t-112.5 -29q-80 0 -115 46.5t-35 141.5v281h20v-281q0 -87 30 -128t100 -41q58 0 111 31.5t89 88.5v330h20v-460h-20z" />
    <glyph glyph-name="Uogonek" unicode="&#x172;" horiz-adv-x="664" 
d="M574 610v-345q0 -127 -59 -198t-169 -76q-66 -31 -66 -79q0 -31 18 -48.5t51 -17.5q22 0 52 7l5 -15q-30 -10 -57 -10q-41 0 -64 23t-23 61q0 43 52 79q-108 6 -166 77t-58 197v345h21v-345q0 -122 57.5 -188t163.5 -66t163.5 66t57.5 188v345h21z" />
    <glyph glyph-name="uogonek" unicode="&#x173;" horiz-adv-x="540" 
d="M484 -147l5 -15q-30 -10 -57 -10q-41 0 -64 23t-23 61q0 27 23.5 54t61.5 44v89q-34 -50 -87.5 -79t-112.5 -29q-80 0 -115 46.5t-35 141.5v281h20v-281q0 -87 30 -128t100 -41q58 0 111 31.5t89 88.5v330h20v-460q-42 -15 -64.5 -38.5t-22.5 -49.5q0 -31 18 -48.5
t51 -17.5q22 0 52 7z" />
    <glyph glyph-name="Wcircumflex" unicode="&#x174;" horiz-adv-x="854" 
d="M427 759l-119 -112l-11 10l115 119h30l115 -119l-11 -10zM643 0h-25l-179 539l-12 40q-1 -4 -5.5 -18.5t-6.5 -21.5l-179 -539h-25l-190 610h24l160 -524l19 -64l10.5 32l10.5 32l168 524h28l168 -524l10.5 -32l10.5 -32l19 64l160 524h24z" />
    <glyph glyph-name="wcircumflex" unicode="&#x175;" horiz-adv-x="687" 
d="M474 547l-11 -10l-119 112l-119 -112l-11 10l115 119h30zM504 0h-18l-142 428l-143 -428h-18l-173 460h21l136 -363q9 -22 25 -68q8 34 20 68l121 363h21l121 -363q12 -34 20 -68q16 46 25 68l136 363h21z" />
    <glyph glyph-name="Ycircumflex" unicode="&#x176;" horiz-adv-x="521" 
d="M261 759l-119 -112l-11 10l115 119h30l115 -119l-11 -10zM271 230v-230h-21v230l-230 380h24l207 -340q3 -4 10 -21q4 13 9 21l207 340h24z" />
    <glyph glyph-name="ycircumflex" unicode="&#x177;" horiz-adv-x="465" 
d="M363 547l-11 -10l-119 112l-119 -112l-11 10l115 119h30zM427 460h24l-183 -392q-76 -154 -172 -203l-9 18q72 41 123 120l-205 457h24l160 -362l16 -36l17 -39q58 112 205 437z" />
    <glyph glyph-name="Ydieresis" unicode="&#x178;" horiz-adv-x="521" 
d="M176 733q18 0 18 -18t-18 -18t-18 18t18 18zM346 733q18 0 18 -18t-18 -18t-18 18t18 18zM271 230v-230h-21v230l-230 380h24l207 -340q3 -4 10 -21q4 13 9 21l207 340h24z" />
    <glyph glyph-name="Zacute" unicode="&#x179;" horiz-adv-x="570" 
d="M395 782l-1 -6l-112 -116l-8 7l105 129zM522 0h-465v19l434 572q-11 0 -33 -0.5t-33 -0.5h-353v20h445v-19l-432 -572q11 0 32 0.5t32 0.5h373v-20z" />
    <glyph glyph-name="zacute" unicode="&#x17a;" horiz-adv-x="472" 
d="M305 662l-1 -6l-112 -116l-8 7l105 129zM432 0h-392v17l363 426q-3 0 -30.5 -0.5t-49.5 -0.5h-278v18h381v-17l-359 -426q14 1 76 1h289v-18z" />
    <glyph glyph-name="Zdotaccent" unicode="&#x17b;" horiz-adv-x="570" 
d="M285 733q18 0 18 -18t-18 -18t-18 18t18 18zM522 0h-465v19l434 572q-11 0 -33 -0.5t-33 -0.5h-353v20h445v-19l-432 -572q11 0 32 0.5t32 0.5h373v-20z" />
    <glyph glyph-name="zdotaccent" unicode="&#x17c;" horiz-adv-x="472" 
d="M236 623q18 0 18 -18t-18 -18t-18 18t18 18zM432 0h-392v17l363 426q-3 0 -30.5 -0.5t-49.5 -0.5h-278v18h381v-17l-359 -426q14 1 76 1h289v-18z" />
    <glyph glyph-name="Zcaron" unicode="&#x17d;" horiz-adv-x="570" 
d="M300 657h-30l-115 119l11 10l119 -112l119 112l11 -10zM522 0h-465v19l434 572q-11 0 -33 -0.5t-33 -0.5h-353v20h445v-19l-432 -572q11 0 32 0.5t32 0.5h373v-20z" />
    <glyph glyph-name="zcaron" unicode="&#x17e;" horiz-adv-x="472" 
d="M251 537h-30l-115 119l11 10l119 -112l119 112l11 -10zM432 0h-392v17l363 426q-3 0 -30.5 -0.5t-49.5 -0.5h-278v18h381v-17l-359 -426q14 1 76 1h289v-18z" />
    <glyph glyph-name="florin" unicode="&#x192;" horiz-adv-x="527" 
d="M507 489l-12 -14q-59 48 -148 48q-77 0 -127.5 -52.5t-74.5 -171.5l-12 -59h268l-4 -18h-267l-45 -222h-20l45 222h-70l4 18h69l12 59q25 128 80.5 185.5t141.5 57.5q97 0 160 -53z" />
    <glyph glyph-name="Acaron" unicode="&#x1cd;" horiz-adv-x="625" 
d="M328 657h-30l-115 119l11 10l119 -112l119 112l11 -10zM132 194l-89 -194h-23l280 610h25l280 -610h-23l-89 194h-361zM484 214l-143 310q-19 41 -28 67q-15 -37 -29 -67l-143 -310h343z" />
    <glyph glyph-name="Scommaaccent" unicode="&#x218;" horiz-adv-x="567" 
d="M460 569l-9 -17q-87 48 -204 48q-69 0 -111.5 -34.5t-42.5 -84.5q0 -56 36.5 -85.5t149.5 -67.5q120 -40 164 -79.5t44 -104.5q0 -81 -54.5 -117t-139.5 -36q-159 0 -251 105l14 14q89 -99 237 -99q173 0 173 133q0 59 -39 91.5t-156 73.5q-62 21 -94 35t-59 33.5
t-36.5 43.5t-9.5 60q0 61 48 100t127 39q122 0 213 -51zM241 -190l-10 8q36 45 40 84q-18 2 -18 17q0 19 19 19t19 -21q0 -51 -50 -107z" />
    <glyph glyph-name="scommaaccent" unicode="&#x219;" horiz-adv-x="426" 
d="M354 428l-7 -15q-66 37 -158 37q-55 0 -85.5 -24.5t-30.5 -67.5q0 -39 30.5 -60.5t110.5 -48.5q94 -31 128 -61.5t34 -79.5q0 -63 -42 -90t-108 -27q-51 0 -108 22.5t-88 58.5l11 14q30 -34 83 -55t102 -21q130 0 130 98q0 42 -30.5 68t-117.5 55q-90 30 -122 55t-32 72
q0 52 36 81.5t99 29.5q95 0 165 -41zM175 -190l-10 8q36 45 40 84q-18 2 -18 17q0 19 19 19t19 -21q0 -51 -50 -107z" />
    <glyph glyph-name="uni021A" unicode="&#x21a;" horiz-adv-x="515" 
d="M505 590h-237v-590h-21v590h-237v20h495v-20zM230 -190l-10 8q36 45 40 84q-18 2 -18 17q0 19 19 19t19 -21q0 -51 -50 -107z" />
    <glyph glyph-name="uni021B" unicode="&#x21b;" horiz-adv-x="331" 
d="M298 27l3 -17q-47 -10 -80 -10q-65 0 -93 31t-28 99v312h-75v18h75v130h20v-130h161v-18h-161v-312q0 -62 25 -86.5t76 -24.5q33 0 77 8zM143 -180l-10 8q36 45 40 84q-18 2 -18 17q0 19 19 19t19 -21q0 -51 -50 -107z" />
    <glyph glyph-name="circumflex" unicode="&#x2c6;" 
d="M370 547l-11 -10l-119 112l-119 -112l-11 10l115 119h30z" />
    <glyph glyph-name="caron" unicode="&#x2c7;" 
d="M255 537h-30l-115 119l11 10l119 -112l119 112l11 -10z" />
    <glyph glyph-name="breve" unicode="&#x2d8;" 
d="M340 649h18q0 -53 -29.5 -84t-89.5 -31q-59 0 -88 31t-29 84h18q0 -45 24 -71t75 -26q52 0 76.5 26t24.5 71z" />
    <glyph glyph-name="dotaccent" unicode="&#x2d9;" 
d="M240 623q18 0 18 -18t-18 -18t-18 18t18 18z" />
    <glyph glyph-name="ring" unicode="&#x2da;" 
d="M240 692q38 0 61.5 -24t23.5 -63q0 -35 -24 -58t-62 -23q-37 0 -60.5 23t-23.5 58q0 39 23.5 63t61.5 24zM239 543q31 0 49 17t18 45q0 31 -18 50t-48 19t-48 -19t-18 -50q0 -28 18 -45t47 -17z" />
    <glyph glyph-name="ogonek" unicode="&#x2db;" 
d="M279 -147l5 -15q-30 -10 -57 -10q-41 0 -64 23t-23 61q0 28 24 55.5t64 43.5l17 -11q-42 -15 -64.5 -38.5t-22.5 -49.5q0 -31 18 -48.5t51 -17.5q22 0 52 7z" />
    <glyph glyph-name="tilde" unicode="&#x2dc;" 
d="M364 649l17 -6q-42 -85 -118 -46l-55 28q-58 29 -90 -31l-18 7q41 79 118 40l55 -26q59 -29 91 34z" />
    <glyph glyph-name="hungarumlaut" unicode="&#x2dd;" 
d="M289 662l-1 -6l-112 -116l-8 7l105 129zM389 662l-1 -6l-112 -116l-8 7l105 129z" />
    <glyph glyph-name="commaturnedabovecomb" unicode="&#x312;" horiz-adv-x="0" 
d="M243 658l10 -8q-36 -45 -40 -84q18 -2 18 -17q0 -19 -19 -19t-19 21q0 51 50 107z" />
    <glyph glyph-name="commaaccentcomb" unicode="&#x326;" horiz-adv-x="0" 
d="M203 -190l-10 8q36 45 40 84q-18 2 -18 17q0 19 19 19t19 -21q0 -51 -50 -107z" />
    <glyph glyph-name="Wgrave" unicode="&#x1e80;" horiz-adv-x="854" 
d="M437 657l-8 -7l-112 116l-1 6l16 14zM643 0h-25l-179 539l-12 40q-1 -4 -5.5 -18.5t-6.5 -21.5l-179 -539h-25l-190 610h24l160 -524l19 -64l10.5 32l10.5 32l168 524h28l168 -524l10.5 -32l10.5 -32l19 64l160 524h24z" />
    <glyph glyph-name="wgrave" unicode="&#x1e81;" horiz-adv-x="687" 
d="M346 547l-8 -7l-112 116l-1 6l16 14zM504 0h-18l-142 428l-143 -428h-18l-173 460h21l136 -363q9 -22 25 -68q8 34 20 68l121 363h21l121 -363q12 -34 20 -68q16 46 25 68l136 363h21z" />
    <glyph glyph-name="Wacute" unicode="&#x1e82;" horiz-adv-x="854" 
d="M537 782l-1 -6l-112 -116l-8 7l105 129zM643 0h-25l-179 539l-12 40q-1 -4 -5.5 -18.5t-6.5 -21.5l-179 -539h-25l-190 610h24l160 -524l19 -64l10.5 32l10.5 32l168 524h28l168 -524l10.5 -32l10.5 -32l19 64l160 524h24z" />
    <glyph glyph-name="wacute" unicode="&#x1e83;" horiz-adv-x="687" 
d="M443 662l-1 -6l-112 -116l-8 7l105 129zM504 0h-18l-142 428l-143 -428h-18l-173 460h21l136 -363q9 -22 25 -68q8 34 20 68l121 363h21l121 -363q12 -34 20 -68q16 46 25 68l136 363h21z" />
    <glyph glyph-name="Wdieresis" unicode="&#x1e84;" horiz-adv-x="854" 
d="M342 733q18 0 18 -18t-18 -18t-18 18t18 18zM512 733q18 0 18 -18t-18 -18t-18 18t18 18zM643 0h-25l-179 539l-12 40q-1 -4 -5.5 -18.5t-6.5 -21.5l-179 -539h-25l-190 610h24l160 -524l19 -64l10.5 32l10.5 32l168 524h28l168 -524l10.5 -32l10.5 -32l19 64l160 524h24
z" />
    <glyph glyph-name="wdieresis" unicode="&#x1e85;" horiz-adv-x="687" 
d="M259 623q18 0 18 -18t-18 -18t-18 18t18 18zM429 623q18 0 18 -18t-18 -18t-18 18t18 18zM504 0h-18l-142 428l-143 -428h-18l-173 460h21l136 -363q9 -22 25 -68q8 34 20 68l121 363h21l121 -363q12 -34 20 -68q16 46 25 68l136 363h21z" />
    <glyph glyph-name="Ygrave" unicode="&#x1ef2;" horiz-adv-x="521" 
d="M271 657l-8 -7l-112 116l-1 6l16 14zM271 230v-230h-21v230l-230 380h24l207 -340q3 -4 10 -21q4 13 9 21l207 340h24z" />
    <glyph glyph-name="ygrave" unicode="&#x1ef3;" horiz-adv-x="465" 
d="M285 547l-8 -7l-112 116l-1 6l16 14zM427 460h24l-183 -392q-76 -154 -172 -203l-9 18q72 41 123 120l-205 457h24l160 -362l16 -36l17 -39q58 112 205 437z" />
    <glyph glyph-name="uni2009" unicode="&#x2009;" horiz-adv-x="100" 
 />
    <glyph glyph-name="endash" unicode="&#x2013;" horiz-adv-x="500" 
d="M430 290v-20h-360v20h360z" />
    <glyph glyph-name="emdash" unicode="&#x2014;" horiz-adv-x="870" 
d="M800 290v-20h-730v20h730z" />
    <glyph glyph-name="quoteleft" unicode="&#x2018;" horiz-adv-x="231" 
d="M160 668l11 -8q-49 -47 -51 -115q18 0 18 -17q0 -19 -19 -19t-19 25q0 79 60 134z" />
    <glyph glyph-name="quoteright" unicode="&#x2019;" horiz-adv-x="231" 
d="M71 509l-11 8q49 47 51 115q-18 0 -18 17q0 19 19 19t19 -25q0 -79 -60 -134z" />
    <glyph glyph-name="quotesinglbase" unicode="&#x201a;" horiz-adv-x="231" 
d="M71 -91l-11 8q49 47 51 115q-18 0 -18 17q0 19 19 19t19 -25q0 -79 -60 -134z" />
    <glyph glyph-name="quotedblleft" unicode="&#x201c;" horiz-adv-x="331" 
d="M260 668l11 -8q-49 -47 -51 -115q18 0 18 -17q0 -19 -19 -19t-19 25q0 79 60 134zM160 668l11 -8q-49 -47 -51 -115q18 0 18 -17q0 -19 -19 -19t-19 25q0 79 60 134z" />
    <glyph glyph-name="quotedblright" unicode="&#x201d;" horiz-adv-x="331" 
d="M71 509l-11 8q49 47 51 115q-18 0 -18 17q0 19 19 19t19 -25q0 -79 -60 -134zM171 509l-11 8q49 47 51 115q-18 0 -18 17q0 19 19 19t19 -25q0 -79 -60 -134z" />
    <glyph glyph-name="quotedblbase" unicode="&#x201e;" horiz-adv-x="331" 
d="M71 -91l-11 8q49 47 51 115q-18 0 -18 17q0 19 19 19t19 -25q0 -79 -60 -134zM171 -91l-11 8q49 47 51 115q-18 0 -18 17q0 19 19 19t19 -25q0 -79 -60 -134z" />
    <glyph glyph-name="dagger" unicode="&#x2020;" horiz-adv-x="494" 
d="M254 404v-478h-17v478l-187 2v15l187 2l2 187h15l2 -187l188 -2v-15z" />
    <glyph glyph-name="daggerdbl" unicode="&#x2021;" horiz-adv-x="494" 
d="M256 132l188 -2v-15l-188 -2l-2 -187h-15l-2 187l-187 2v15l187 2v272l-187 2v15l187 2l2 187h15l2 -187l188 -2v-15l-188 -2v-272z" />
    <glyph glyph-name="bullet" unicode="&#x2022;" horiz-adv-x="288" 
d="M110 289q0 34 34 34t34 -34t-34 -34t-34 34z" />
    <glyph glyph-name="ellipsis" unicode="&#x2026;" horiz-adv-x="614" 
d="M99 38q19 0 19 -19t-19 -19t-19 19t19 19zM297 38q19 0 19 -19t-19 -19t-19 19t19 19zM495 38q19 0 19 -19t-19 -19t-19 19t19 19z" />
    <glyph glyph-name="perthousand" unicode="&#x2030;" horiz-adv-x="1180" 
d="M188 620q66 0 102 -46t36 -131t-36 -130.5t-102 -45.5t-102 45.5t-36 130.5t36 131t102 46zM591 610l-366 -610h-22l366 610h22zM188 285q57 0 88 41t31 117t-31 117.5t-88 41.5t-88 -41.5t-31 -117.5t31 -117t88 -41zM632 344q66 0 102 -46t36 -131t-36 -130.5
t-102 -45.5t-102 45.5t-36 130.5t36 131t102 46zM992 344q66 0 102 -46t36 -131t-36 -130.5t-102 -45.5t-102 45.5t-36 130.5t36 131t102 46zM632 9q57 0 88 41t31 117t-31 117.5t-88 41.5t-88 -41.5t-31 -117.5t31 -117t88 -41zM992 9q57 0 88 41t31 117t-31 117.5
t-88 41.5t-88 -41.5t-31 -117.5t31 -117t88 -41z" />
    <glyph glyph-name="guilsinglleft" unicode="&#x2039;" horiz-adv-x="340" 
d="M270 422l-142 -150l-36 -37q13 -12 37 -36l141 -149l-14 -11l-188 197l187 198z" />
    <glyph glyph-name="guilsinglright" unicode="&#x203a;" horiz-adv-x="340" 
d="M82 39l-12 11l141 149l17 17.5l19 19.5q-12 11 -35 36l-142 150l13 12l187 -198z" />
    <glyph glyph-name="fraction" unicode="&#x2044;" horiz-adv-x="218" 
d="M303 610l-366 -610h-22l366 610h22z" />
    <glyph glyph-name="Euro" unicode="&#x20ac;" horiz-adv-x="608" 
d="M540 83l13 -12q-67 -80 -196 -80q-76 0 -135.5 47.5t-75.5 153.5h-86v18h84q-3 24 -3 51q0 19 2 51h-83v18h86q16 110 78 159.5t139 49.5q107 0 170 -53l-12 -14q-59 48 -158 48q-68 0 -124.5 -45t-72.5 -145h301l-10 -18h-293q-3 -24 -3 -51t3 -51h273l-10 -18h-261
q16 -97 70 -139.5t121 -42.5q61 0 104 17t79 56z" />
    <glyph glyph-name="uni2116" unicode="&#x2116;" horiz-adv-x="1165" 
d="M575 0h-20l-434 573v-573h-21v610h20l434 -575v9v566h21v-610zM882 519q183 0 183 -203q0 -195 -184 -195q-182 0 -182 195q0 203 183 203zM881 141q163 0 163 175q0 183 -162 183t-162 -183q0 -175 161 -175zM1045 0h-326v18h326v-18z" />
    <glyph glyph-name="trademark" unicode="&#x2122;" horiz-adv-x="751" 
d="M305 593h-128v-253h-19v253h-128v17h275v-17zM624 569l-114 -229h-20l-114 229l-9 -229h-18l11 270h15l120 -244q1 -2 2.5 -6.5t2.5 -6.5q1 2 2.5 6.5t2.5 6.5l120 244h15l11 -270h-18z" />
    <glyph glyph-name="oneeighth" unicode="&#x215b;" horiz-adv-x="911" 
d="M278 231h-241v19h115v334q-55 -25 -117 -39l-5 15q73 20 126 50h16v-360h106v-19zM611 610l-366 -610h-22l366 610h22zM670 -9q-67 0 -108 28.5t-41 74.5q0 75 102 97q-83 23 -83 95q0 43 36.5 69t95.5 26q58 0 94 -26t36 -69q0 -72 -84 -95q50 -10 76.5 -35t26.5 -62
q0 -47 -41.5 -75t-109.5 -28zM672 362q-50 0 -81 -21t-31 -55q0 -75 112 -89q110 13 110 89q0 34 -30 55t-80 21zM670 10q59 0 95 23t36 61q0 77 -132 88q-127 -11 -127 -88q0 -38 35 -61t93 -23z" />
    <glyph glyph-name="threeeighths" unicode="&#x215c;" horiz-adv-x="911" 
d="M35 569l-9 16q67 35 141 35q55 0 84.5 -26.5t29.5 -75.5q0 -66 -69 -83q81 -20 81 -100q0 -50 -32.5 -76.5t-93.5 -26.5q-81 0 -147 36l9 16q61 -33 138 -33q51 0 78.5 22t27.5 62q0 44 -28.5 67t-82.5 23h-68v19h68q47 0 73 19.5t26 54.5q0 40 -24.5 61.5t-69.5 21.5
q-70 0 -132 -32zM621 610l-366 -610h-22l366 610h22zM680 -9q-67 0 -108 28.5t-41 74.5q0 75 102 97q-83 23 -83 95q0 43 36.5 69t95.5 26q58 0 94 -26t36 -69q0 -72 -84 -95q50 -10 76.5 -35t26.5 -62q0 -47 -41.5 -75t-109.5 -28zM682 362q-50 0 -81 -21t-31 -55
q0 -75 112 -89q110 13 110 89q0 34 -30 55t-80 21zM680 10q59 0 95 23t36 61q0 77 -132 88q-127 -11 -127 -88q0 -38 35 -61t93 -23z" />
    <glyph glyph-name="fiveeighths" unicode="&#x215d;" horiz-adv-x="926" 
d="M89 591l-12 -156q64 24 111 24q60 0 92.5 -30.5t32.5 -87.5q0 -55 -34.5 -85t-97.5 -30q-75 0 -141 36l9 17q63 -34 132 -34q54 0 83 25t29 71q0 47 -27.5 73t-77.5 26q-49 0 -113 -25l-20 3l16 192h229v-19h-211zM636 610l-366 -610h-22l366 610h22zM695 -9
q-67 0 -108 28.5t-41 74.5q0 75 102 97q-83 23 -83 95q0 43 36.5 69t95.5 26t94.5 -26t35.5 -69q0 -72 -84 -95q50 -10 76.5 -35t26.5 -62q0 -47 -41.5 -75t-109.5 -28zM697 362q-50 0 -81 -21t-31 -55q0 -75 112 -89q110 13 110 89q0 34 -30 55t-80 21zM695 10q59 0 95 23
t36 61q0 77 -132 88q-127 -11 -127 -88q0 -38 35 -61t93 -23z" />
    <glyph glyph-name="seveneighths" unicode="&#x215e;" horiz-adv-x="873" 
d="M300 610v-16q-61 -70 -111 -168.5t-75 -194.5h-23q26 97 76 194.5t110 165.5h-237v19h260zM543 610l-366 -610h-22l366 610h22zM632 -9q-67 0 -108 28.5t-41 74.5q0 75 102 97q-83 23 -83 95q0 43 36.5 69t95.5 26q58 0 94 -26t36 -69q0 -72 -84 -95q50 -10 76.5 -35
t26.5 -62q0 -47 -41.5 -75t-109.5 -28zM634 362q-50 0 -81 -21t-31 -55q0 -75 112 -89q110 13 110 89q0 34 -30 55t-80 21zM632 10q59 0 95 23t36 61q0 77 -132 88q-127 -11 -127 -88q0 -38 35 -61t93 -23z" />
    <glyph glyph-name="arrowleft" unicode="&#x2190;" horiz-adv-x="676" 
d="M69 298l254 -271l-15 -15l-278 296l278 296l15 -15l-254 -271h577v-20h-577z" />
    <glyph glyph-name="arrowup" unicode="&#x2191;" horiz-adv-x="632" 
d="M326 577v-577h-20v577l-231 -214l-15 15l256 238l256 -238l-15 -15z" />
    <glyph glyph-name="arrowright" unicode="&#x2192;" horiz-adv-x="676" 
d="M368 12l-15 15l254 271h-577v20h577l-254 271l15 15l278 -296z" />
    <glyph glyph-name="arrowdown" unicode="&#x2193;" horiz-adv-x="632" 
d="M316 -6l-256 238l15 15l231 -214v577h20v-577l231 214l15 -15z" />
    <glyph glyph-name="arrowupleft" unicode="&#x2196;" horiz-adv-x="702" 
d="M82 574v-390h-22v426h426v-21h-390l576 -577l-14 -14z" />
    <glyph glyph-name="arrowupright" unicode="&#x2197;" horiz-adv-x="702" 
d="M642 184h-21v390l-577 -576l-14 14l576 576h-390v22h426v-426z" />
    <glyph glyph-name="arrowdownright" unicode="&#x2198;" horiz-adv-x="702" 
d="M642 0h-426v21h390l-576 577l14 14l576 -576v390h22v-426z" />
    <glyph glyph-name="arrowdownleft" unicode="&#x2199;" horiz-adv-x="702" 
d="M486 22v-22h-426v426h21v-390l577 576l14 -14l-576 -576h390z" />
    <glyph glyph-name="minus" unicode="&#x2212;" horiz-adv-x="446" 
d="M27 223l1 19h387v-19h-388z" />
    <glyph glyph-name="J.ss01" horiz-adv-x="241" 
d="M131 610v-575q0 -92 -26.5 -133.5t-98.5 -61.5l-5 19q62 17 85.5 54t23.5 117v580h21z" />
    <glyph glyph-name="K.ss02" horiz-adv-x="596" 
d="M131 304v-304h-21v610h21v-286h150l248 286h24v-4l-254 -293l264 -309v-4h-24l-260 304h-148z" />
    <glyph glyph-name="Kcommaaccent.ss02" horiz-adv-x="596" 
d="M131 304v-304h-21v610h21v-286h150l248 286h24v-4l-254 -293l264 -309v-4h-24l-260 304h-148zM260 -190l-10 8q36 45 40 84q-18 2 -18 17q0 19 19 19t19 -21q0 -51 -50 -107z" />
    <glyph glyph-name="Q.ss03" horiz-adv-x="664" 
d="M588 -120l-14 -16q-108 104 -139 143q-44 -16 -103 -16q-131 0 -201.5 81.5t-70.5 232.5t70.5 233t201.5 82t201.5 -82t70.5 -233q0 -226 -151 -291q35 -41 135 -134zM81 305q0 -141 65 -217.5t186 -76.5t186 76.5t65 217.5q0 142 -65 218.5t-186 76.5t-186 -76.5
t-65 -218.5z" />
    <glyph glyph-name="R.ss04" horiz-adv-x="629" 
d="M110 610h198q232 0 232 -185q0 -89 -37 -130.5t-109 -49.5q14 -6 27.5 -15.5t26 -23l22.5 -25t22 -31l19 -30.5t18 -33.5l14.5 -30l14 -31t11.5 -25.5h-25q-4 8 -15.5 33.5l-18 39.5t-20 38.5t-23.5 39.5t-25.5 34t-29 29.5t-31 18t-35.5 7.5h-215v-240h-21v610zM131 260
h217q84 0 127.5 37t43.5 128q0 165 -211 165h-177v-330z" />
    <glyph glyph-name="Racute.ss04" horiz-adv-x="629" 
d="M417 782l-1 -6l-112 -116l-8 7l105 129zM110 610h198q232 0 232 -185q0 -89 -37 -130.5t-109 -49.5q14 -6 27.5 -15.5t26 -23l22.5 -25t22 -31l19 -30.5t18 -33.5l14.5 -30l14 -31t11.5 -25.5h-25q-4 8 -15.5 33.5l-18 39.5t-20 38.5t-23.5 39.5t-25.5 34t-29 29.5
t-31 18t-35.5 7.5h-215v-240h-21v610zM131 260h217q84 0 127.5 37t43.5 128q0 165 -211 165h-177v-330z" />
    <glyph glyph-name="Rcaron.ss04" horiz-adv-x="629" 
d="M292 657l-115 119l11 10l119 -112l119 112l11 -10l-115 -119h-30zM110 610h198q232 0 232 -185q0 -89 -37 -130.5t-109 -49.5q14 -6 27.5 -15.5t26 -23l22.5 -25t22 -31l19 -30.5t18 -33.5l14.5 -30l14 -31t11.5 -25.5h-25q-4 8 -15.5 33.5l-18 39.5t-20 38.5t-23.5 39.5
t-25.5 34t-29 29.5t-31 18t-35.5 7.5h-215v-240h-21v610zM131 260h217q84 0 127.5 37t43.5 128q0 165 -211 165h-177v-330z" />
    <glyph glyph-name="Rcommaaccent.ss04" horiz-adv-x="629" 
d="M110 610h198q232 0 232 -185q0 -89 -37 -130.5t-109 -49.5q14 -6 27.5 -15.5t26 -23l22.5 -25t22 -31l19 -30.5t18 -33.5l14.5 -30l14 -31t11.5 -25.5h-25q-4 8 -15.5 33.5l-18 39.5t-20 38.5t-23.5 39.5t-25.5 34t-29 29.5t-31 18t-35.5 7.5h-215v-240h-21v610zM131 260
h217q84 0 127.5 37t43.5 128q0 165 -211 165h-177v-330zM269 -190l-10 8q36 45 40 84q-18 2 -18 17q0 19 19 19t19 -21q0 -51 -50 -107z" />
    <glyph glyph-name="k.ss02" horiz-adv-x="470" 
d="M110 237v-237h-20v660h20v-405h136l186 205h21v-3l-190 -212l204 -241v-4h-22l-201 237h-134z" />
    <glyph glyph-name="kcommaaccent.ss02" horiz-adv-x="470" 
d="M110 237v-237h-20v660h20v-405h136l186 205h21v-3l-190 -212l204 -241v-4h-22l-201 237h-134zM217 -190l-10 8q36 45 40 84q-18 2 -18 17q0 19 19 19t19 -21q0 -51 -50 -107z" />
    <glyph glyph-name="a.ss05" horiz-adv-x="555" 
d="M445 0v89q-40 -51 -82.5 -74.5t-103.5 -23.5q-86 0 -145 58.5t-59 179.5q0 240 192 240q57 0 110.5 -26t87.5 -69v86h20v-460h-20zM445 117v229q-36 50 -88.5 77t-109.5 27q-172 0 -172 -221q0 -112 53.5 -165.5t130.5 -53.5q60 0 103 25.5t83 81.5z" />
    <glyph glyph-name="aacute.ss05" horiz-adv-x="555" 
d="M347 662l-1 -6l-112 -116l-8 7l105 129zM445 0v89q-40 -51 -82.5 -74.5t-103.5 -23.5q-86 0 -145 58.5t-59 179.5q0 240 192 240q57 0 110.5 -26t87.5 -69v86h20v-460h-20zM445 117v229q-36 50 -88.5 77t-109.5 27q-172 0 -172 -221q0 -112 53.5 -165.5t130.5 -53.5
q60 0 103 25.5t83 81.5z" />
    <glyph glyph-name="abreve.ss05" horiz-adv-x="555" 
d="M378 649h18q0 -53 -29.5 -84t-89.5 -31q-59 0 -88 31t-29 84h18q0 -45 24 -71t75 -26q52 0 76.5 26t24.5 71zM445 0v89q-40 -51 -82.5 -74.5t-103.5 -23.5q-86 0 -145 58.5t-59 179.5q0 240 192 240q57 0 110.5 -26t87.5 -69v86h20v-460h-20zM445 117v229
q-36 50 -88.5 77t-109.5 27q-172 0 -172 -221q0 -112 53.5 -165.5t130.5 -53.5q60 0 103 25.5t83 81.5z" />
    <glyph glyph-name="acircumflex.ss05" horiz-adv-x="555" 
d="M408 547l-11 -10l-119 112l-119 -112l-11 10l115 119h30zM445 0v89q-40 -51 -82.5 -74.5t-103.5 -23.5q-86 0 -145 58.5t-59 179.5q0 240 192 240q57 0 110.5 -26t87.5 -69v86h20v-460h-20zM445 117v229q-36 50 -88.5 77t-109.5 27q-172 0 -172 -221q0 -112 53.5 -165.5
t130.5 -53.5q60 0 103 25.5t83 81.5z" />
    <glyph glyph-name="adieresis.ss05" horiz-adv-x="555" 
d="M193 623q18 0 18 -18t-18 -18t-18 18t18 18zM363 623q18 0 18 -18t-18 -18t-18 18t18 18zM445 0v89q-40 -51 -82.5 -74.5t-103.5 -23.5q-86 0 -145 58.5t-59 179.5q0 240 192 240q57 0 110.5 -26t87.5 -69v86h20v-460h-20zM445 117v229q-36 50 -88.5 77t-109.5 27
q-172 0 -172 -221q0 -112 53.5 -165.5t130.5 -53.5q60 0 103 25.5t83 81.5z" />
    <glyph glyph-name="agrave.ss05" horiz-adv-x="555" 
d="M330 547l-8 -7l-112 116l-1 6l16 14zM445 0v89q-40 -51 -82.5 -74.5t-103.5 -23.5q-86 0 -145 58.5t-59 179.5q0 240 192 240q57 0 110.5 -26t87.5 -69v86h20v-460h-20zM445 117v229q-36 50 -88.5 77t-109.5 27q-172 0 -172 -221q0 -112 53.5 -165.5t130.5 -53.5
q60 0 103 25.5t83 81.5z" />
    <glyph glyph-name="amacron.ss05" horiz-adv-x="555" 
d="M378 591h-200v19h200v-19zM445 0v89q-40 -51 -82.5 -74.5t-103.5 -23.5q-86 0 -145 58.5t-59 179.5q0 240 192 240q57 0 110.5 -26t87.5 -69v86h20v-460h-20zM445 117v229q-36 50 -88.5 77t-109.5 27q-172 0 -172 -221q0 -112 53.5 -165.5t130.5 -53.5q60 0 103 25.5
t83 81.5z" />
    <glyph glyph-name="aogonek.ss05" horiz-adv-x="555" 
d="M499 -147l5 -15q-30 -10 -57 -10q-41 0 -64 23t-23 61q0 27 23.5 54t61.5 44v79q-40 -51 -82.5 -74.5t-103.5 -23.5q-86 0 -145 58.5t-59 179.5q0 240 192 240q57 0 110.5 -26t87.5 -69v86h20v-460q-42 -15 -64.5 -38.5t-22.5 -49.5q0 -31 18 -48.5t51 -17.5q22 0 52 7z
M445 117v229q-36 50 -88.5 77t-109.5 27q-172 0 -172 -221q0 -112 53.5 -165.5t130.5 -53.5q60 0 103 25.5t83 81.5z" />
    <glyph glyph-name="aring.ss05" horiz-adv-x="555" 
d="M278 692q38 0 61.5 -24t23.5 -63q0 -35 -24 -58t-62 -23q-37 0 -60.5 23t-23.5 58q0 39 23.5 63t61.5 24zM277 543q31 0 49 17t18 45q0 31 -18 50t-48 19t-48 -19t-18 -50q0 -28 18 -45t47 -17zM445 0v89q-40 -51 -82.5 -74.5t-103.5 -23.5q-86 0 -145 58.5t-59 179.5
q0 240 192 240q57 0 110.5 -26t87.5 -69v86h20v-460h-20zM445 117v229q-36 50 -88.5 77t-109.5 27q-172 0 -172 -221q0 -112 53.5 -165.5t130.5 -53.5q60 0 103 25.5t83 81.5z" />
    <glyph glyph-name="atilde.ss05" horiz-adv-x="555" 
d="M402 649l17 -6q-42 -85 -118 -46l-55 28q-58 29 -90 -31l-18 7q41 79 118 40l55 -26q59 -29 91 34zM445 0v89q-40 -51 -82.5 -74.5t-103.5 -23.5q-86 0 -145 58.5t-59 179.5q0 240 192 240q57 0 110.5 -26t87.5 -69v86h20v-460h-20zM445 117v229q-36 50 -88.5 77
t-109.5 27q-172 0 -172 -221q0 -112 53.5 -165.5t130.5 -53.5q60 0 103 25.5t83 81.5z" />
    <glyph glyph-name="g.ss06" horiz-adv-x="538" 
d="M508 466l-3 -18q-24 2 -57 2q-30 0 -56 -12q69 -46 69 -151q0 -81 -50.5 -122.5t-141.5 -41.5q-73 0 -118 26q-40 -25 -40 -53q0 -26 11 -37t42 -11h205q65 0 96.5 -23.5t31.5 -78.5q0 -165 -221 -165q-144 0 -192.5 27t-48.5 108q0 43 22.5 75t62.5 46q-29 13 -29 59
q0 37 44 63q-58 42 -58 128q0 83 51.5 132.5t140.5 49.5q60 0 103 -20q35 20 76 20q33 0 60 -3zM269 142q82 0 127 36.5t45 108.5q0 79 -43.5 121t-128.5 42q-80 0 -126 -44.5t-46 -118.5q0 -72 45 -108.5t127 -36.5zM369 30h-185q-62 0 -95.5 -31.5t-33.5 -82.5
q0 -70 44.5 -93t176.5 -23q201 0 201 146q0 48 -25.5 66t-82.5 18z" />
    <glyph glyph-name="gbreve.ss06" horiz-adv-x="538" 
d="M369 649h18q0 -53 -29.5 -84t-89.5 -31q-59 0 -88 31t-29 84h18q0 -45 24 -71t75 -26q52 0 76.5 26t24.5 71zM508 466l-3 -18q-24 2 -57 2q-30 0 -56 -12q69 -46 69 -151q0 -81 -50.5 -122.5t-141.5 -41.5q-73 0 -118 26q-40 -25 -40 -53q0 -26 11 -37t42 -11h205
q65 0 96.5 -23.5t31.5 -78.5q0 -165 -221 -165q-144 0 -192.5 27t-48.5 108q0 43 22.5 75t62.5 46q-29 13 -29 59q0 37 44 63q-58 42 -58 128q0 83 51.5 132.5t140.5 49.5q60 0 103 -20q35 20 76 20q33 0 60 -3zM269 142q82 0 127 36.5t45 108.5q0 79 -43.5 121t-128.5 42
q-80 0 -126 -44.5t-46 -118.5q0 -72 45 -108.5t127 -36.5zM369 30h-185q-62 0 -95.5 -31.5t-33.5 -82.5q0 -70 44.5 -93t176.5 -23q201 0 201 146q0 48 -25.5 66t-82.5 18z" />
    <glyph glyph-name="gcommaaccent.ss06" horiz-adv-x="538" 
d="M293 698l10 -8q-36 -45 -40 -84q18 -2 18 -17q0 -19 -19 -19t-19 21q0 51 50 107zM508 466l-3 -18q-24 2 -57 2q-30 0 -56 -12q69 -46 69 -151q0 -81 -50.5 -122.5t-141.5 -41.5q-73 0 -118 26q-40 -25 -40 -53q0 -26 11 -37t42 -11h205q65 0 96.5 -23.5t31.5 -78.5
q0 -165 -221 -165q-144 0 -192.5 27t-48.5 108q0 43 22.5 75t62.5 46q-29 13 -29 59q0 37 44 63q-58 42 -58 128q0 83 51.5 132.5t140.5 49.5q60 0 103 -20q35 20 76 20q33 0 60 -3zM269 142q82 0 127 36.5t45 108.5q0 79 -43.5 121t-128.5 42q-80 0 -126 -44.5t-46 -118.5
q0 -72 45 -108.5t127 -36.5zM369 30h-185q-62 0 -95.5 -31.5t-33.5 -82.5q0 -70 44.5 -93t176.5 -23q201 0 201 146q0 48 -25.5 66t-82.5 18z" />
    <glyph glyph-name="gdotaccent.ss06" horiz-adv-x="538" 
d="M269 623q18 0 18 -18t-18 -18t-18 18t18 18zM508 466l-3 -18q-24 2 -57 2q-30 0 -56 -12q69 -46 69 -151q0 -81 -50.5 -122.5t-141.5 -41.5q-73 0 -118 26q-40 -25 -40 -53q0 -26 11 -37t42 -11h205q65 0 96.5 -23.5t31.5 -78.5q0 -165 -221 -165q-144 0 -192.5 27
t-48.5 108q0 43 22.5 75t62.5 46q-29 13 -29 59q0 37 44 63q-58 42 -58 128q0 83 51.5 132.5t140.5 49.5q60 0 103 -20q35 20 76 20q33 0 60 -3zM269 142q82 0 127 36.5t45 108.5q0 79 -43.5 121t-128.5 42q-80 0 -126 -44.5t-46 -118.5q0 -72 45 -108.5t127 -36.5zM369 30
h-185q-62 0 -95.5 -31.5t-33.5 -82.5q0 -70 44.5 -93t176.5 -23q201 0 201 146q0 48 -25.5 66t-82.5 18z" />
    <glyph glyph-name="y.ss07" horiz-adv-x="557" 
d="M490 460v-400q0 -103 -51.5 -154t-134.5 -51q-117 0 -204 59l9 15q88 -55 195 -55q76 0 121 47.5t45 138.5v59q-40 -51 -82.5 -74.5t-103.5 -23.5q-87 0 -145.5 50.5t-58.5 157.5v231h20v-231q0 -98 53.5 -143.5t130.5 -45.5q60 0 103 26t83 82v312h20z" />
    <glyph glyph-name="yacute.ss07" horiz-adv-x="557" 
d="M358 662l-1 -6l-112 -116l-8 7l105 129zM490 460v-400q0 -103 -51.5 -154t-134.5 -51q-117 0 -204 59l9 15q88 -55 195 -55q76 0 121 47.5t45 138.5v59q-40 -51 -82.5 -74.5t-103.5 -23.5q-87 0 -145.5 50.5t-58.5 157.5v231h20v-231q0 -98 53.5 -143.5t130.5 -45.5
q60 0 103 26t83 82v312h20z" />
    <glyph glyph-name="ycircumflex.ss07" horiz-adv-x="557" 
d="M419 547l-11 -10l-119 112l-119 -112l-11 10l115 119h30zM490 460v-400q0 -103 -51.5 -154t-134.5 -51q-117 0 -204 59l9 15q88 -55 195 -55q76 0 121 47.5t45 138.5v59q-40 -51 -82.5 -74.5t-103.5 -23.5q-87 0 -145.5 50.5t-58.5 157.5v231h20v-231q0 -98 53.5 -143.5
t130.5 -45.5q60 0 103 26t83 82v312h20z" />
    <glyph glyph-name="ydieresis.ss07" horiz-adv-x="557" 
d="M204 623q18 0 18 -18t-18 -18t-18 18t18 18zM374 623q18 0 18 -18t-18 -18t-18 18t18 18zM490 460v-400q0 -103 -51.5 -154t-134.5 -51q-117 0 -204 59l9 15q88 -55 195 -55q76 0 121 47.5t45 138.5v59q-40 -51 -82.5 -74.5t-103.5 -23.5q-87 0 -145.5 50.5t-58.5 157.5
v231h20v-231q0 -98 53.5 -143.5t130.5 -45.5q60 0 103 26t83 82v312h20z" />
    <glyph glyph-name="ygrave.ss07" horiz-adv-x="557" 
d="M341 547l-8 -7l-112 116l-1 6l16 14zM490 460v-400q0 -103 -51.5 -154t-134.5 -51q-117 0 -204 59l9 15q88 -55 195 -55q76 0 121 47.5t45 138.5v59q-40 -51 -82.5 -74.5t-103.5 -23.5q-87 0 -145.5 50.5t-58.5 157.5v231h20v-231q0 -98 53.5 -143.5t130.5 -45.5
q60 0 103 26t83 82v312h20z" />
    <glyph glyph-name="uni00660062" horiz-adv-x="846" 
d="M401 660v-286q34 43 87.5 69t110.5 26q192 0 192 -240q0 -121 -59 -179.5t-145 -58.5q-61 0 -103.5 23.5t-82.5 74.5v-89h-20v623q-115 18 -160 18q-55 0 -78 -30t-23 -91v-60h166v-18h-166v-442h-20v442h-70v18h70v60q0 70 28 105t93 35q50 0 160 -18v18h20zM401 346
v-229q41 -55 84 -81t102 -26q77 0 130.5 53.5t53.5 165.5q0 221 -172 221q-56 0 -109 -28t-89 -76z" />
    <glyph glyph-name="uni006600660062" horiz-adv-x="1136" 
d="M691 660v-286q34 43 87.5 69t110.5 26q192 0 192 -240q0 -121 -59 -179.5t-145 -58.5q-61 0 -103.5 23.5t-82.5 74.5v-89h-20v623q-114 18 -159 18q-55 0 -78 -30t-23 -91v-60h166v-18h-166v-442h-20v442h-271v-442h-20v442h-70v18h70v60q0 70 28 105t93 35q56 0 80 -6
l-3 -18q-30 5 -77 5q-55 0 -78 -30t-23 -91v-60h271v60q0 70 28 105t93 35q48 0 159 -18v18h20zM691 346v-229q41 -55 84 -81t102 -26q77 0 130.5 53.5t53.5 165.5q0 221 -172 221q-56 0 -109 -28t-89 -76z" />
    <glyph glyph-name="uni006600660066" horiz-adv-x="873" 
d="M883 654l-3 -18q-30 5 -77 5q-55 0 -78 -30t-23 -91v-60h166v-18h-166v-442h-20v442h-271v-442h-20v442h-271v-442h-20v442h-70v18h70v60q0 70 28 105t93 35q56 0 80 -6l-3 -18q-30 5 -77 5q-55 0 -78 -30t-23 -91v-60h271v60q0 70 28 105t93 35q56 0 80 -6l-3 -18
q-30 5 -77 5q-55 0 -78 -30t-23 -91v-60h271v60q0 70 28 105t93 35q56 0 80 -6z" />
    <glyph glyph-name="uni006600660068" horiz-adv-x="1127" 
d="M692 660v-296q71 105 198 105q82 0 117 -45t35 -140v-284h-20v284q0 86 -30 126t-102 40q-124 0 -198 -114v-336h-20v623q-115 18 -160 18q-55 0 -78 -30t-23 -91v-60h166v-18h-166v-442h-20v442h-271v-442h-20v442h-70v18h70v60q0 70 28 105t93 35q56 0 80 -6l-3 -18
q-30 5 -77 5q-55 0 -78 -30t-23 -91v-60h271v60q0 70 28 105t93 35q50 0 160 -18v18h20z" />
    <glyph glyph-name="uni00660066006A" horiz-adv-x="782" 
d="M411 460h281v-460q0 -75 -14.5 -111.5t-50.5 -50.5l-8 16q29 13 41 46t12 100v442h-261v-442h-20v442h-271v-442h-20v442h-70v18h70v60q0 70 28 105t93 35q56 0 80 -6l-3 -18q-30 5 -77 5q-55 0 -78 -30t-23 -91v-60h271v60q0 70 28 105t93 35q41 0 107 -9l-3 -18
q-69 8 -104 8q-55 0 -78 -30t-23 -91v-60zM682 613q18 0 18 -18t-18 -18t-18 18t18 18z" />
    <glyph glyph-name="uni00660066006B" horiz-adv-x="1072" 
d="M1028 460l-196 -177q117 -117 240 -283h-25q-123 167 -229 270l-126 -113v-157h-20v623q-94 18 -160 18q-55 0 -78 -30t-23 -91v-60h166v-18h-166v-442h-20v442h-271v-442h-20v442h-70v18h70v60q0 70 28 105t93 35q56 0 80 -6l-3 -18q-30 5 -77 5q-55 0 -78 -30t-23 -91
v-60h271v60q0 70 28 105t93 35q70 0 160 -18v18h20v-479l309 279h27z" />
    <glyph glyph-name="uni006600660074" horiz-adv-x="883" 
d="M850 27l3 -17q-47 -10 -80 -10q-65 0 -93 31t-28 99v312h-241v-442h-20v442h-271v-442h-20v442h-70v18h70v60q0 70 28 105t93 35q56 0 80 -6l-3 -18q-30 5 -77 5q-55 0 -78 -30t-23 -91v-60h271v60q0 70 28 105t93 35q56 0 80 -6l-3 -18q-30 5 -77 5q-55 0 -78 -30
t-23 -91v-60h241v130h20v-130h161v-18h-161v-312q0 -62 25 -86.5t76 -24.5q33 0 77 8z" />
    <glyph glyph-name="uni00660068" horiz-adv-x="836" 
d="M401 660v-296q71 105 198 105q82 0 117 -45t35 -140v-284h-20v284q0 86 -30 126t-102 40q-124 0 -198 -114v-336h-20v623q-115 18 -160 18q-55 0 -78 -30t-23 -91v-60h166v-18h-166v-442h-20v442h-70v18h70v60q0 70 28 105t93 35q50 0 160 -18v18h20z" />
    <glyph glyph-name="uni0066006A" horiz-adv-x="491" 
d="M401 460v-460q0 -75 -14.5 -111.5t-50.5 -50.5l-8 16q29 13 41 46t12 100v442h-261v-442h-20v442h-70v18h70v60q0 70 28 105t93 35q41 0 107 -9l-3 -18q-69 8 -104 8q-55 0 -78 -30t-23 -91v-60h281zM391 577q-18 0 -18 18t18 18t18 -18t-18 -18z" />
    <glyph glyph-name="uni0066006B" horiz-adv-x="781" 
d="M401 181l309 279h27l-196 -177q117 -117 240 -283h-25q-123 167 -229 270l-126 -113v-157h-20v623q-115 18 -160 18q-55 0 -78 -30t-23 -91v-60h166v-18h-166v-442h-20v442h-70v18h70v60q0 70 28 105t93 35q50 0 160 -18v18h20v-479z" />
    <glyph glyph-name="uni00660074" horiz-adv-x="602" 
d="M569 27l3 -17q-47 -10 -80 -10q-65 0 -93 31t-28 99v312h-251v-442h-20v442h-70v18h70v60q0 70 28 105t93 35q56 0 80 -6l-3 -18q-30 5 -77 5q-55 0 -78 -30t-23 -91v-60h251v130h20v-130h161v-18h-161v-312q0 -62 25 -86.5t76 -24.5q33 0 77 8z" />
    <glyph glyph-name="uni00720066" horiz-adv-x="641" 
d="M651 654l-3 -18q-30 5 -77 5q-55 0 -78 -30t-23 -91v-60h166v-18h-166v-442h-20v442h-70v18h70v60q0 70 28 105t93 35q56 0 80 -6zM110 460v-112q14 53 58 87t97 34q33 0 60 -3l-3 -18q-24 2 -57 2q-52 0 -93.5 -37t-61.5 -108v-305h-20v460h20z" />
    <glyph glyph-name="uni00720074" horiz-adv-x="661" 
d="M628 27l3 -17q-47 -10 -80 -10q-65 0 -93 31t-28 99v312h-65v18h65v130h20v-130h161v-18h-161v-312q0 -62 25 -86.5t76 -24.5q33 0 77 8zM110 460v-112q14 53 58 87t97 34q33 0 60 -3l-3 -18q-24 2 -57 2q-52 0 -93.5 -37t-61.5 -108v-305h-20v460h20z" />
    <glyph glyph-name="zero.osf" horiz-adv-x="584" 
d="M292 520q112 0 172 -73t60 -192q0 -118 -60 -191t-172 -73t-172 73t-60 191q0 119 60 192t172 73zM292 11q102 0 156.5 68t54.5 176q0 109 -54.5 177t-156.5 68t-156.5 -68t-54.5 -177q0 -108 54.5 -176t156.5 -68z" />
    <glyph glyph-name="one.osf" horiz-adv-x="458" 
d="M418 0h-370v20h192v463q-92 -47 -190 -70l-5 16q112 30 201 81h15v-490h157v-20z" />
    <glyph glyph-name="two.osf" horiz-adv-x="503" 
d="M475 0h-428v18l47 24l103 52.5t88.5 52t80.5 59.5t48 62t21 73q0 75 -42.5 117t-119.5 42q-111 0 -214 -54l-9 17q108 57 223 57q87 0 135 -47.5t48 -131.5q0 -104 -137 -198q-55 -37 -223 -124q15 1 46 1h333v-20z" />
    <glyph glyph-name="three.osf" horiz-adv-x="496" 
d="M54 446l-9 17q108 57 228 57q82 0 132.5 -45.5t50.5 -119.5q0 -111 -135 -133q74 -10 114.5 -51t40.5 -111q0 -74 -56 -119.5t-147 -45.5q-130 0 -238 57l9 17q103 -54 229 -54q82 0 132 40t50 105q0 74 -51 113t-140 39h-93v20h93q82 0 126.5 32t44.5 91q0 65 -44.5 105
t-117.5 40q-116 0 -219 -54z" />
    <glyph glyph-name="four.osf" horiz-adv-x="578" 
d="M439 0v-130h-21v130h-380v18l380 482h21v-480h117v-20h-117zM418 20v451l-21.5 -29.5t-29.5 -38.5l-248 -317q-51 -58 -59 -66h358z" />
    <glyph glyph-name="five.osf" horiz-adv-x="520" 
d="M116 480l-21 -273q107 39 179 39q91 0 146.5 -49.5t55.5 -130.5q0 -83 -58.5 -134t-154.5 -51q-120 0 -228 57l9 17q103 -54 219 -54q86 0 139 45.5t53 119.5q0 72 -49.5 116t-131.5 44q-81 0 -181 -41l-21 5l25 310h358v-20h-339z" />
    <glyph glyph-name="six.osf" horiz-adv-x="555" 
d="M484 593l-7 -18q-59 26 -136 26q-118 0 -189 -90.5t-70 -251.5q27 55 85 91t136 36q96 0 154 -51t58 -139q0 -98 -59.5 -151.5t-153.5 -53.5q-120 0 -181 76t-61 218q0 150 79 243t202 93q83 0 143 -28zM302 11q84 0 138 48t54 137q0 79 -52 124.5t-139 45.5
q-78 0 -135 -38.5t-84 -97.5q22 -219 218 -219z" />
    <glyph glyph-name="seven.osf" horiz-adv-x="428" 
d="M428 500v-17q-96 -110 -177 -272.5t-122 -320.5h-24q44 161 123 321.5t174 268.5h-392v20h418z" />
    <glyph glyph-name="eight.osf" horiz-adv-x="584" 
d="M352 316q182 -30 182 -160q0 -77 -65 -121t-178 -44q-112 0 -176.5 44t-64.5 121q0 132 181 160q-151 32 -151 149q0 69 58.5 112t154.5 43q95 0 153 -43t58 -112q0 -118 -152 -149zM293 600q-86 0 -139 -37.5t-53 -97.5q0 -122 192 -143q190 20 190 143q0 60 -52.5 97.5
t-137.5 37.5zM291 11q103 0 162.5 38.5t59.5 106.5q0 131 -220 151q-222 -19 -222 -151q0 -68 59 -106.5t161 -38.5z" />
    <glyph glyph-name="nine.osf" horiz-adv-x="555" 
d="M83 -71l10 16q58 -34 140 -34q241 0 240 341q-28 -55 -85.5 -91t-135.5 -36q-96 0 -154 51t-58 139q0 99 61 152t162 53q111 0 171.5 -76.5t60.5 -217.5q0 -160 -66.5 -247.5t-185.5 -87.5q-30 0 -43.5 0.5t-49.5 9.5t-67 28zM252 145q78 0 135 38.5t84 97.5
q-11 106 -64.5 162.5t-143.5 56.5q-91 0 -146.5 -48t-55.5 -137q0 -79 52 -124.5t139 -45.5z" />
    <glyph glyph-name="zero.tf" horiz-adv-x="550" 
d="M275 620q116 0 179 -82t63 -233t-63 -232.5t-179 -81.5t-179 81.5t-63 232.5t63 233t179 82zM275 11q106 0 163.5 76.5t57.5 217.5q0 142 -57.5 218.5t-163.5 76.5t-163.5 -76.5t-57.5 -218.5q0 -141 57.5 -217.5t163.5 -76.5z" />
    <glyph glyph-name="one.tf" horiz-adv-x="550" 
d="M478 0h-390v20h192v563q-92 -47 -190 -70l-5 16q112 30 201 81h15v-590h177v-20z" />
    <glyph glyph-name="two.tf" horiz-adv-x="550" 
d="M484 0h-428v18l91.5 74l92 74t78 68t68 70.5t41.5 66.5t17 70q0 75 -42.5 117t-119.5 42q-111 0 -214 -54l-9 17q108 57 223 57q87 0 135 -47.5t48 -131.5q0 -35 -16.5 -72.5t-38.5 -67t-65 -70.5t-74 -66.5l-90 -73l-89 -72.5q10 0 29.5 0.5t29.5 0.5h333v-20z" />
    <glyph glyph-name="three.tf" horiz-adv-x="550" 
d="M67 542l-9 17q108 57 228 57q82 0 132.5 -45.5t50.5 -119.5q0 -111 -135 -133q74 -10 114.5 -51t40.5 -111q0 -74 -56 -119.5t-147 -45.5q-130 0 -238 57l9 17q103 -54 229 -54q82 0 132 40t50 105q0 74 -51 113t-140 39h-93v20h93q82 0 126.5 32t44.5 91q0 65 -44.5 105
t-117.5 40q-116 0 -219 -54z" />
    <glyph glyph-name="four.tf" horiz-adv-x="550" 
d="M419 161v-161h-21v161h-380v18l380 431h21v-429h117v-20h-117zM398 181v400q-28 -37 -55 -68l-239 -266q-51 -58 -59 -66h353z" />
    <glyph glyph-name="five.tf" horiz-adv-x="550" 
d="M138 590l-21 -273q107 39 179 39q91 0 146.5 -49.5t55.5 -130.5q0 -83 -58.5 -134t-154.5 -51q-120 0 -228 57l9 17q103 -54 219 -54q86 0 139 45.5t53 119.5q0 72 -49.5 116t-131.5 44q-81 0 -181 -41l-21 5l25 310h358v-20h-339z" />
    <glyph glyph-name="six.tf" horiz-adv-x="550" 
d="M474 593l-7 -18q-59 26 -136 26q-118 0 -189 -90.5t-70 -251.5q27 55 85 91t136 36q96 0 154 -51t58 -139q0 -98 -59.5 -151.5t-153.5 -53.5q-120 0 -181 76t-61 218q0 150 79 243t202 93q83 0 143 -28zM292 11q84 0 138 48t54 137q0 79 -52 124.5t-139 45.5
q-78 0 -135 -38.5t-84 -97.5q22 -219 218 -219z" />
    <glyph glyph-name="seven.tf" horiz-adv-x="550" 
d="M488 610v-17q-96 -110 -177 -272.5t-122 -320.5h-24q44 161 123 321.5t174 268.5h-392v20h418z" />
    <glyph glyph-name="eight.tf" horiz-adv-x="550" 
d="M335 316q182 -30 182 -160q0 -77 -65 -121t-178 -44q-112 0 -176.5 44t-64.5 121q0 132 181 160q-151 32 -151 149q0 69 58.5 112t154.5 43q95 0 153 -43t58 -112q0 -118 -152 -149zM276 600q-86 0 -139 -37.5t-53 -97.5q0 -122 192 -143q190 20 190 143q0 60 -52.5 97.5
t-137.5 37.5zM274 11q103 0 162.5 38.5t59.5 106.5q0 131 -220 151q-222 -19 -222 -151q0 -68 59 -106.5t161 -38.5z" />
    <glyph glyph-name="nine.tf" horiz-adv-x="550" 
d="M83 29l10 16q58 -34 140 -34q241 0 240 341q-28 -55 -85.5 -91t-135.5 -36q-96 0 -154 51t-58 139q0 99 61 152t162 53q111 0 171.5 -76.5t60.5 -217.5q0 -160 -66.5 -247.5t-185.5 -87.5q-30 0 -43.5 0.5t-49.5 9.5t-67 28zM252 245q78 0 135 38.5t84 97.5
q-11 106 -64.5 162.5t-143.5 56.5q-91 0 -146.5 -48t-55.5 -137q0 -79 52 -124.5t139 -45.5z" />
    <glyph glyph-name="zero.zero" horiz-adv-x="604" 
d="M292 620q116 0 179 -82t63 -233t-63 -232.5t-179 -81.5t-179 81.5t-63 232.5t63 233t179 82zM114 110l342 412q-57 78 -164 78q-106 0 -163.5 -76.5t-57.5 -218.5q0 -120 43 -195zM468 504l-342 -412q57 -81 166 -81q106 0 163.5 76.5t57.5 217.5q0 126 -45 199z" />
    <glyph glyph-name="zero.dnom" horiz-adv-x="390" 
d="M195 381q73 0 111.5 -50t38.5 -145q0 -94 -38.5 -144.5t-111.5 -50.5t-111.5 50.5t-38.5 144.5q0 95 38.5 145t111.5 50zM195 10q130 0 130 176t-130 176t-130 -176t130 -176z" />
    <glyph glyph-name="one.dnom" horiz-adv-x="298" 
d="M278 0h-241v19h115v334q-55 -25 -117 -39l-5 15q73 20 126 50h16v-360h106v-19z" />
    <glyph glyph-name="two.dnom" horiz-adv-x="331" 
d="M296 0h-266v18l67 53.5t67 54.5t49.5 47t39 52t11.5 49q0 44 -24 68t-69 24q-69 0 -130 -32l-9 16q68 35 139 35q54 0 83.5 -29t29.5 -82q0 -22 -9.5 -44.5t-22 -40t-38.5 -42t-44 -39.5l-53.5 -44l-54.5 -45h27h207v-19z" />
    <glyph glyph-name="three.dnom" horiz-adv-x="328" 
d="M35 328l-9 16q67 35 141 35q55 0 84.5 -26.5t29.5 -75.5q0 -66 -69 -83q81 -20 81 -100q0 -50 -32.5 -76.5t-93.5 -26.5q-81 0 -147 36l9 16q61 -33 138 -33q51 0 78.5 22t27.5 62q0 44 -28.5 67t-82.5 23h-68v19h68q47 0 73 19.5t26 54.5q0 40 -24.5 61.5t-69.5 21.5
q-70 0 -132 -32z" />
    <glyph glyph-name="four.dnom" horiz-adv-x="362" 
d="M271 93v-93h-20v93h-236v18l236 268h20v-267h66v-19h-66zM251 112v236q-8 -11 -24 -30l-149 -165l-36 -41h209z" />
    <glyph glyph-name="five.dnom" horiz-adv-x="333" 
d="M79 356l-12 -156q65 24 111 24q60 0 92.5 -30.5t32.5 -87.5q0 -55 -34.5 -85t-97.5 -30q-75 0 -141 36l9 17q63 -34 132 -34q54 0 83 25t29 71q0 47 -27.5 73t-77.5 26q-49 0 -113 -25l-20 3l16 192h229v-19h-211z" />
    <glyph glyph-name="six.dnom" horiz-adv-x="370" 
d="M316 365l-7 -16q-32 13 -82 13q-75 0 -118.5 -52t-43.5 -144q20 33 57.5 51.5t81.5 18.5q59 0 95 -32.5t36 -85.5q0 -57 -36.5 -92t-95.5 -35q-76 0 -117 47.5t-41 135.5q0 93 50 150t132 57q55 0 89 -16zM203 10q50 0 81 29.5t31 78.5q0 44 -30.5 71.5t-80.5 27.5
q-45 0 -82.5 -21t-54.5 -56q8 -63 43 -96.5t93 -33.5z" />
    <glyph glyph-name="seven.dnom" horiz-adv-x="300" 
d="M280 379v-16q-61 -70 -111 -168.5t-75 -194.5h-23q26 97 76 194.5t110 165.5h-237v19h260z" />
    <glyph glyph-name="eight.dnom" horiz-adv-x="370" 
d="M184 -9q-67 0 -108 28.5t-41 74.5q0 75 102 97q-83 23 -83 95q0 43 36.5 69t95.5 26t94.5 -26t35.5 -69q0 -72 -84 -95q50 -10 76.5 -35t26.5 -62q0 -47 -41.5 -75t-109.5 -28zM186 362q-50 0 -81 -21t-31 -55q0 -75 112 -89q110 13 110 89q0 34 -30 55t-80 21zM184 10
q59 0 95 23t36 61q0 77 -132 88q-127 -11 -127 -88q0 -38 35 -61t93 -23z" />
    <glyph glyph-name="nine.dnom" horiz-adv-x="363" 
d="M62 14l8 16q35 -20 86 -20q142 0 142 187q-47 -61 -131 -61q-60 0 -96 32t-36 86q0 61 38 94t100 33q70 0 107.5 -47t37.5 -135q0 -100 -42 -154t-120 -54q-56 0 -94 23zM167 155q90 0 130 68q-7 139 -124 139q-118 0 -118 -108q0 -99 112 -99z" />
    <glyph glyph-name="zero.numr" horiz-adv-x="390" 
d="M195 620q73 0 111.5 -50t38.5 -145q0 -94 -38.5 -144.5t-111.5 -50.5t-111.5 50.5t-38.5 144.5q0 95 38.5 145t111.5 50zM195 249q130 0 130 176t-130 176t-130 -176t130 -176z" />
    <glyph glyph-name="one.numr" horiz-adv-x="298" 
d="M278 231h-241v19h115v334q-55 -25 -117 -39l-5 15q73 20 126 50h16v-360h106v-19z" />
    <glyph glyph-name="two.numr" horiz-adv-x="331" 
d="M296 235h-266v18l67 53.5t67 54.5t49.5 47t39 52t11.5 49q0 44 -24 68t-69 24q-69 0 -130 -32l-9 16q68 35 139 35q54 0 83.5 -29t29.5 -82q0 -22 -9.5 -44.5t-22 -40t-38.5 -42t-44 -39.5l-53.5 -44l-54.5 -45h27h207v-19z" />
    <glyph glyph-name="three.numr" horiz-adv-x="328" 
d="M35 569l-9 16q67 35 141 35q55 0 84.5 -26.5t29.5 -75.5q0 -66 -69 -83q81 -20 81 -100q0 -50 -32.5 -76.5t-93.5 -26.5q-81 0 -147 36l9 16q61 -33 138 -33q51 0 78.5 22t27.5 62q0 44 -28.5 67t-82.5 23h-68v19h68q47 0 73 19.5t26 54.5q0 40 -24.5 61.5t-69.5 21.5
q-70 0 -132 -32z" />
    <glyph glyph-name="four.numr" horiz-adv-x="362" 
d="M271 324v-93h-20v93h-236v18l236 268h20v-267h66v-19h-66zM251 343v236q-8 -11 -24 -30l-149 -165l-36 -41h209z" />
    <glyph glyph-name="five.numr" horiz-adv-x="333" 
d="M79 591l-12 -156q65 24 111 24q60 0 92.5 -30.5t32.5 -87.5q0 -55 -34.5 -85t-97.5 -30q-75 0 -141 36l9 17q63 -34 132 -34q54 0 83 25t29 71q0 47 -27.5 73t-77.5 26q-49 0 -113 -25l-20 3l16 192h229v-19h-211z" />
    <glyph glyph-name="six.numr" horiz-adv-x="370" 
d="M316 604l-7 -16q-32 13 -82 13q-75 0 -118.5 -52t-43.5 -144q20 33 57.5 51.5t81.5 18.5q59 0 95 -32.5t36 -85.5q0 -57 -36.5 -92t-95.5 -35q-76 0 -117 47.5t-41 135.5q0 93 50 150t132 57q55 0 89 -16zM203 249q50 0 81 29.5t31 78.5q0 44 -30.5 71.5t-80.5 27.5
q-45 0 -82.5 -21t-54.5 -56q8 -63 43 -96.5t93 -33.5z" />
    <glyph glyph-name="seven.numr" horiz-adv-x="300" 
d="M280 610v-16q-61 -70 -111 -168.5t-75 -194.5h-23q26 97 76 194.5t110 165.5h-237v19h260z" />
    <glyph glyph-name="eight.numr" horiz-adv-x="370" 
d="M184 230q-67 0 -108 28.5t-41 74.5q0 75 102 97q-83 23 -83 95q0 43 36.5 69t95.5 26t94.5 -26t35.5 -69q0 -72 -84 -95q50 -10 76.5 -35t26.5 -62q0 -47 -41.5 -75t-109.5 -28zM186 601q-50 0 -81 -21t-31 -55q0 -75 112 -89q110 13 110 89q0 34 -30 55t-80 21zM184 249
q59 0 95 23t36 61q0 77 -132 88q-127 -11 -127 -88q0 -38 35 -61t93 -23z" />
    <glyph glyph-name="nine.numr" horiz-adv-x="363" 
d="M62 253l8 16q35 -20 86 -20q142 0 142 187q-47 -61 -131 -61q-60 0 -96 32t-36 86q0 61 38 94t100 33q70 0 107.5 -47t37.5 -135q0 -100 -42 -154t-120 -54q-56 0 -94 23zM167 394q90 0 130 68q-7 139 -124 139q-118 0 -118 -108q0 -99 112 -99z" />
    <glyph glyph-name="backslash.case" horiz-adv-x="378" 
d="M308 -75h-21l-217 744h21z" />
    <glyph glyph-name="bullet.case" horiz-adv-x="288" 
d="M110 319q0 34 34 34t34 -34t-34 -34t-34 34z" />
    <glyph glyph-name="exclamdown.case" horiz-adv-x="178" 
d="M79 572q-19 0 -19 19t19 19t19 -19t-19 -19zM90 0h-23v430h23v-430z" />
    <glyph glyph-name="periodcentered.case" horiz-adv-x="258" 
d="M100 319q0 19 19 19t19 -19t-19 -19t-19 19z" />
    <glyph glyph-name="questiondown.case" horiz-adv-x="486" 
d="M289 572q-19 0 -19 19t19 19t19 -19t-19 -19zM462 64l9 -17q-108 -57 -223 -57q-87 0 -135 47.5t-48 131.5q0 68 58 115t157 61v95h19l3 -110q-99 -12 -157.5 -54.5t-58.5 -106.5q0 -75 42.5 -117t119.5 -42q111 0 214 54z" />
    <glyph glyph-name="slash.case" horiz-adv-x="388" 
d="M318 669l-227 -780h-21l227 780h21z" />
    <glyph glyph-name="braceleft.case" horiz-adv-x="364" 
d="M210 141v-40q0 -114 119 -137l-4 -14q-134 20 -134 151v40q0 94 -25 125t-101 31v14q76 0 101 31t25 125v40q0 131 134 151l4 -14q-119 -23 -119 -137v-40q0 -86 -19.5 -121t-73.5 -42q54 -7 73.5 -42t19.5 -121z" />
    <glyph glyph-name="braceright.case" horiz-adv-x="364" 
d="M164 101v40q0 86 19.5 121t73.5 42q-54 7 -73.5 42t-19.5 121v40q0 114 -119 137l4 14q134 -20 134 -151v-40q0 -94 25 -125t101 -31v-14q-76 0 -101 -31t-25 -125v-40q0 -131 -134 -151l-4 14q119 23 119 137z" />
    <glyph glyph-name="bracketleft.case" horiz-adv-x="334" 
d="M299 640h-174v-668h174v-20h-194v708h194v-20z" />
    <glyph glyph-name="bracketright.case" horiz-adv-x="334" 
d="M239 660v-708h-194v20h174v668h-174v20h194z" />
    <glyph glyph-name="parenleft.case" horiz-adv-x="290" 
d="M246 658l14 -13q-71 -75 -105 -153t-34 -187t34 -187t105 -153l-14 -13q-74 76 -110 158t-36 195t36 195t110 158z" />
    <glyph glyph-name="parenright.case" horiz-adv-x="290" 
d="M40 645l14 13q74 -76 110 -158t36 -195t-36 -195t-110 -158l-14 13q71 75 105 153t34 187t-34 187t-105 153z" />
    <glyph glyph-name="emdash.case" horiz-adv-x="870" 
d="M790 327v-20h-730v20h730z" />
    <glyph glyph-name="endash.case" horiz-adv-x="500" 
d="M420 327v-20h-360v20h360z" />
    <glyph glyph-name="hyphen.case" horiz-adv-x="380" 
d="M300 327v-20h-240v20h240z" />
    <glyph glyph-name="guillemotleft.case" horiz-adv-x="470" 
d="M260 487l-142 -150l-36 -37q13 -12 37 -36l141 -149l-14 -11l-188 197l187 198zM390 487l-142 -150l-36 -37q13 -12 37 -36l141 -149l-14 -11l-188 197l187 198z" />
    <glyph glyph-name="guillemotright.case" horiz-adv-x="470" 
d="M72 104l-12 11l141 149l17 17.5l19 19.5q-12 11 -35 36l-142 150l13 12l187 -198zM202 104l-12 11l141 149l17 17.5l19 19.5q-12 11 -35 36l-142 150l13 12l187 -198z" />
    <glyph glyph-name="guilsinglleft.case" horiz-adv-x="340" 
d="M260 487l-142 -150l-36 -37q13 -12 37 -36l141 -149l-14 -11l-188 197l187 198z" />
    <glyph glyph-name="guilsinglright.case" horiz-adv-x="340" 
d="M72 104l-12 11l141 149l17 17.5l19 19.5q-12 11 -35 36l-142 150l13 12l187 -198z" />
    <glyph glyph-name="florin.tf" horiz-adv-x="550" 
d="M507 489l-12 -14q-59 48 -148 48q-77 0 -127.5 -52.5t-74.5 -171.5l-12 -59h268l-4 -18h-267l-45 -222h-20l45 222h-70l4 18h69l12 59q25 128 80.5 185.5t141.5 57.5q97 0 160 -53z" />
    <glyph glyph-name="cent.tf" horiz-adv-x="550" 
d="M469 83l13 -12q-64 -76 -179 -80v-61h-20v61q-40 0 -75.5 14t-67.5 43.5t-51 84t-19 128.5t19 130t51 86.5t67.5 45t75.5 16.5v71h20v-71q101 -3 159 -53l-12 -14q-59 48 -158 48q-36 0 -69 -12.5t-64.5 -40.5t-50 -81t-18.5 -125q0 -70 18 -121.5t48 -78.5t62 -39
t68 -12q61 0 104 17t79 56z" />
    <glyph glyph-name="dollar.tf" horiz-adv-x="550" 
d="M446 484l-9 -16q-97 50 -183 50q-62 0 -100 -27.5t-38 -73.5q0 -48 32 -73.5t134 -58.5q109 -34 149 -69t40 -91q0 -60 -48.5 -97t-127.5 -37h-16v-61h-20v62q-114 9 -193 91l13 15q81 -87 216 -87q70 0 113 31.5t43 82.5q0 52 -34.5 80.5t-140.5 62.5q-107 36 -143.5 63
t-36.5 86q0 54 43.5 87t114.5 33h5v73h20v-74q82 -7 167 -52z" />
    <glyph glyph-name="Euro.tf" horiz-adv-x="550" 
d="M500 83l13 -12q-67 -80 -196 -80q-76 0 -135.5 47.5t-75.5 153.5h-86v18h84q-3 24 -3 51q0 19 2 51h-83v18h86q16 110 78 159.5t139 49.5q107 0 170 -53l-12 -14q-59 48 -158 48q-68 0 -124.5 -45t-72.5 -145h301l-10 -18h-293q-3 -24 -3 -51t3 -51h273l-10 -18h-261
q16 -97 70 -139.5t121 -42.5q61 0 104 17t79 56z" />
    <glyph glyph-name="sterling.tf" horiz-adv-x="550" 
d="M513 489l-12 -14q-59 48 -148 48q-77 0 -120 -52t-52 -172l-4 -59h230v-18h-231l-14 -203h336v-19h-453v15l97 4l14 203h-106v18h107l4 59q9 130 57 186.5t135 56.5q97 0 160 -53z" />
    <glyph glyph-name="yen.tf" horiz-adv-x="550" 
d="M287 216h155v-18h-156v-92h156v-18h-156v-88h-21v88h-150v18h150v92h-150v18h149l-209 324h23l188 -290q8 -12 10 -16q2 4 10 16l187 290h23z" />
    <glyph glyph-name="arrowdown.ss08" horiz-adv-x="699" 
d="M350 568q119 0 204 -85t85 -204q0 -120 -85 -205t-204 -85q-120 0 -205 85t-85 205q0 119 85 204t205 85zM339 160l-130 131l-15 -15l156 -155l156 154l-15 15l-130 -130v277h-22v-277z" />
    <glyph glyph-name="arrowdownleft.ss08" horiz-adv-x="699" 
d="M639 279q0 119 -85 204t-204 85q-120 0 -205 -85t-85 -204q0 -120 85 -205t205 -85q119 0 204 85t85 205zM238 387h21v-186l196 196l14 -14l-196 -196h185v-22h-220v222z" />
    <glyph glyph-name="arrowdownright.ss08" horiz-adv-x="699" 
d="M639 279q0 119 -85 204t-204 85q-120 0 -205 -85t-85 -204q0 -120 85 -205t205 -85q119 0 204 85t85 205zM426 187l-196 196l14 14l196 -196v186h21v-222h-220v22h185z" />
    <glyph glyph-name="arrowleft.ss08" horiz-adv-x="699" 
d="M350 568q119 0 204 -85t85 -204q0 -120 -85 -205t-204 -85q-120 0 -205 85t-85 205q0 119 85 204t205 85zM346 122l16 15l-131 130h277v22h-277l131 130l-15 15l-155 -155z" />
    <glyph glyph-name="arrowright.ss08" horiz-adv-x="699" 
d="M350 568q119 0 204 -85t85 -204q0 -120 -85 -205t-204 -85q-120 0 -205 85t-85 205q0 119 85 204t205 85zM468 289h-277v-22h277l-131 -130l16 -15l154 157l-155 155l-15 -15z" />
    <glyph glyph-name="arrowup.ss08" horiz-adv-x="699" 
d="M350 568q119 0 204 -85t85 -204q0 -120 -85 -205t-204 -85q-120 0 -205 85t-85 205q0 119 85 204t205 85zM209 266l130 131v-277h22v277l130 -130l15 15l-156 154l-156 -155z" />
    <glyph glyph-name="arrowupleft.ss08" horiz-adv-x="699" 
d="M639 279q0 119 -85 204t-204 85q-120 0 -205 -85t-85 -204q0 -120 85 -205t205 -85q119 0 204 85t85 205zM273 370l196 -196l-14 -14l-196 196v-186h-21v222h220v-22h-185z" />
    <glyph glyph-name="arrowupright.ss08" horiz-adv-x="699" 
d="M639 279q0 119 -85 204t-204 85q-120 0 -205 -85t-85 -204q0 -120 85 -205t205 -85q119 0 204 85t85 205zM461 170h-21v186l-196 -196l-14 14l196 196h-185v22h220v-222z" />
    <glyph glyph-name="arrowdown.ss13" horiz-adv-x="523" 
d="M262 480q82 0 141.5 -59t59.5 -142t-59 -142.5t-142 -59.5t-142.5 59.5t-59.5 142.5t59.5 142t142.5 59zM262 461q-76 0 -129.5 -53.5t-53.5 -128.5q0 -76 53.5 -129.5t129.5 -53.5q75 0 128.5 53.5t53.5 129.5q0 75 -53.5 128.5t-128.5 53.5zM254 196l-90 91l-10 -11
l108 -107l108 107l-11 10l-90 -90v193h-15v-193z" />
    <glyph glyph-name="arrowdownleft.ss13" horiz-adv-x="523" 
d="M262 480q82 0 141.5 -59t59.5 -142t-59 -142.5t-142 -59.5t-142.5 59.5t-59.5 142.5q0 81 58.5 141t143.5 60zM262 461q-76 0 -129.5 -53t-53.5 -129q0 -77 53.5 -130t129.5 -53t129 53.5t53 129.5t-53 129t-129 53zM208 215h128v-14h-152v152h14v-128l136 137l11 -11z
" />
    <glyph glyph-name="arrowdownright.ss13" horiz-adv-x="523" 
d="M261 480q85 0 143.5 -60t58.5 -141q0 -83 -59.5 -142.5t-142.5 -59.5t-142 59.5t-59 142.5t59 142t142 59zM261 461q-76 0 -129 -53t-53 -129t53 -129.5t129 -53.5q77 0 130 53t53 130q0 76 -53.5 129t-129.5 53zM324 353h15v-153h-152v15h128l-137 136l11 11l135 -137
v128z" />
    <glyph glyph-name="arrowleft.ss13" horiz-adv-x="523" 
d="M262 480q82 0 141.5 -59t59.5 -142t-59 -142.5t-142 -59.5t-142.5 59.5t-59.5 142.5t59.5 142t142.5 59zM262 461q-76 0 -129.5 -53t-53.5 -129q0 -77 53.5 -130t129.5 -53t129 53.5t53 129.5t-53 129t-129 53zM179 286l91 89l-11 11l-107 -107l107 -109l10 11l-90 90
h193v15h-193z" />
    <glyph glyph-name="arrowright.ss13" horiz-adv-x="523" 
d="M261 480q83 0 142.5 -59t59.5 -142t-59.5 -142.5t-142.5 -59.5t-142 59.5t-59 142.5t59 142t142 59zM261 461q-76 0 -129 -53t-53 -129t53 -129.5t129 -53.5q77 0 130 53t53 130q0 76 -53.5 129t-129.5 53zM254 181l10 -11l107 109l-107 107l-11 -11l91 -89h-193v-15h193
z" />
    <glyph glyph-name="arrowup.ss13" horiz-adv-x="523" 
d="M262 77q-83 0 -142.5 59t-59.5 142t59.5 142.5t142.5 59.5t142 -59.5t59 -142.5q0 -82 -59.5 -141.5t-141.5 -59.5zM262 96q75 0 128.5 53.5t53.5 128.5q0 76 -53.5 129.5t-128.5 53.5q-76 0 -129.5 -53.5t-53.5 -129.5q0 -75 53.5 -128.5t129.5 -53.5zM359 271l11 10
l-108 107l-108 -107l10 -11l90 91v-193h15v193z" />
    <glyph glyph-name="arrowupleft.ss13" horiz-adv-x="523" 
d="M262 77q-85 0 -143.5 60t-58.5 141q0 83 59.5 142.5t142.5 59.5t142 -59.5t59 -142.5q0 -82 -59.5 -141.5t-141.5 -59.5zM262 96q76 0 129 53t53 129t-53 129.5t-129 53.5t-129.5 -53.5t-53.5 -129.5t53.5 -129t129.5 -53zM199 204h-15v153h152v-15h-128l137 -136
l-11 -11l-135 137v-128z" />
    <glyph glyph-name="arrowupright.ss13" horiz-adv-x="523" 
d="M261 77q-83 0 -142 59.5t-59 141.5q0 83 59 142.5t142 59.5t142.5 -59.5t59.5 -142.5q0 -81 -58.5 -141t-143.5 -60zM261 96q76 0 129.5 53t53.5 129t-53 129.5t-130 53.5q-76 0 -129 -53.5t-53 -129.5t53 -129t129 -53zM315 342h-128v14h152v-152h-14v128l-136 -137
l-11 11z" />
    <glyph glyph-name="at.case" horiz-adv-x="938" 
d="M701 -34l13 -15q-103 -71 -250 -71q-186 0 -300 111.5t-114 293.5q0 186 118.5 300.5t305.5 114.5q180 0 287 -100t107 -265q-1 -128 -49.5 -196t-118.5 -68q-82 0 -82 89v1q-44 -47 -85.5 -68.5t-100.5 -21.5q-174 0 -174 218q0 107 52 158.5t140 51.5q96 0 168 -64v55
h20v-330q0 -70 62 -70q59 0 103 63.5t45 181.5q0 156 -101 250.5t-273 94.5q-178 0 -291 -109t-113 -286q0 -173 108.5 -279t285.5 -106q136 0 237 66zM618 192v218q-72 70 -168 70q-78 0 -125 -46.5t-47 -144.5q0 -108 40.5 -153.5t113.5 -45.5q57 0 99.5 24.5t86.5 77.5z
" />
    <glyph glyph-name="registered.ss04" horiz-adv-x="747" 
d="M374 620q130 0 221.5 -92t91.5 -223t-91 -222.5t-222 -91.5t-222.5 91.5t-91.5 222.5t91.5 223t222.5 92zM374 11q121 0 207.5 86t86.5 208q0 121 -86.5 208t-207.5 87q-122 0 -208 -87t-86 -208q0 -122 86 -208t208 -86zM254 482h123q65 0 100 -28t35 -80
q0 -48 -24 -75.5t-69 -32.5l116 -135h-27l-115 134h-118v-137h-21v354zM275 285h126q43 0 66.5 23t23.5 66q0 42 -29.5 65t-84.5 23h-102v-177z" />
    <glyph glyph-name="ampersand.ss09" horiz-adv-x="580" 
d="M576 255v-22q-24 0 -68 2q-4 -131 -60 -187.5t-182 -56.5q-97 0 -154 44t-57 121q0 54 37.5 89t122.5 72q-58 57 -79 91t-21 79q0 61 42 97t111 36t110 -38t41 -105q0 -48 -33 -85t-107 -69l-60.5 -26t-48 -22.5t-42 -25t-27.5 -25.5t-20 -31.5t-5 -36.5q0 -68 51 -106.5
t139 -38.5q119 0 169.5 56t50.5 188h90zM136 487q0 -43 21 -74.5t79 -86.5q96 40 129 72.5t33 78.5q0 58 -35 90.5t-95 32.5t-96 -30.5t-36 -82.5z" />
    <glyph glyph-name="ampersand.ss10" horiz-adv-x="490" 
d="M439 44l11 -18q-69 -32 -155 -35v-61h-20v61q-215 3 -215 141q0 112 128 137q-98 27 -98 123q0 138 175 145v73h20v-73q69 0 137 -21l-8 -19q-68 20 -132 20q-171 0 -171 -125q0 -60 44 -87t137 -27h76v-20h-76q-108 0 -159.5 -30t-51.5 -96q0 -121 201 -121q86 0 157 33
z" />
    <glyph glyph-name="copyright.ss11" horiz-adv-x="489" 
d="M245 250q-77 0 -131 54t-54 131t54 131t131 54q76 0 130 -54t54 -131t-53.5 -131t-130.5 -54zM245 270q68 0 116.5 48.5t48.5 116.5q0 67 -49 116t-116 49q-68 0 -116.5 -48.5t-48.5 -116.5t48.5 -116.5t116.5 -48.5zM316 379l11 -12q-34 -34 -82 -34q-43 0 -71 26.5
t-28 70.5q0 50 25.5 77.5t71.5 27.5q39 0 78 -27l-9 -13q-34 23 -69 23q-38 0 -58.5 -23t-20.5 -65q0 -36 23 -58t58 -22q40 0 71 29z" />
    <glyph glyph-name="registered.ss12" horiz-adv-x="489" 
d="M245 250q-77 0 -131 54t-54 131t54 131t131 54q76 0 130 -54t54 -131t-53.5 -131t-130.5 -54zM245 270q68 0 116.5 48.5t48.5 116.5q0 67 -49 116t-116 49q-68 0 -116.5 -48.5t-48.5 -116.5t48.5 -116.5t116.5 -48.5zM171 538h74q39 0 61 -16.5t22 -46.5q0 -53 -50 -58
q24 -11 57 -84h-20q-38 80 -62 80h-64v-80h-18v205zM189 430h73q22 0 35 12t13 33q0 46 -65 46h-56v-91z" />
    <glyph glyph-name="caron.alt" 
d="M233 660v-14q-5 -71 -15 -142h-15l10 156h20z" />
    <glyph glyph-name="acute.case" 
d="M309 782l-1 -6l-112 -116l-8 7l105 129z" />
    <glyph glyph-name="breve.case" 
d="M340 779h18q0 -53 -29.5 -84t-89.5 -31q-59 0 -88 31t-29 84h18q0 -45 24 -71t75 -26q52 0 76.5 26t24.5 71z" />
    <glyph glyph-name="caron.case" 
d="M255 657h-30l-115 119l11 10l119 -112l119 112l11 -10z" />
    <glyph glyph-name="circumflex.case" 
d="M240 759l-119 -112l-11 10l115 119h30l115 -119l-11 -10z" />
    <glyph glyph-name="dieresis.case" 
d="M155 733q18 0 18 -18t-18 -18t-18 18t18 18zM325 733q18 0 18 -18t-18 -18t-18 18t18 18z" />
    <glyph glyph-name="dotaccent.case" 
d="M240 733q18 0 18 -18t-18 -18t-18 18t18 18z" />
    <glyph glyph-name="grave.case" 
d="M292 657l-8 -7l-112 116l-1 6l16 14z" />
    <glyph glyph-name="hungarumlaut.case" 
d="M289 782l-1 -6l-112 -116l-8 7l105 129zM389 782l-1 -6l-112 -116l-8 7l105 129z" />
    <glyph glyph-name="macron.case" 
d="M340 705h-200v19h200v-19z" />
    <glyph glyph-name="ring.case" 
d="M240 822q38 0 61.5 -24t23.5 -63q0 -35 -24 -58t-62 -23q-37 0 -60.5 23t-23.5 58q0 39 23.5 63t61.5 24zM239 673q31 0 49 17t18 45q0 31 -18 50t-48 19t-48 -19t-18 -50q0 -28 18 -45t47 -17z" />
    <glyph glyph-name="tilde.case" 
d="M364 751l17 -8q-42 -85 -118 -46l-55 28q-58 29 -90 -32l-18 8q41 79 118 40l55 -26q60 -29 91 36z" />
    </font>
</defs>
</svg>
