<?xml version="1.0" standalone="no"?>
<!DOCTYPE svg PUBLIC "-//W3C//DTD SVG 1.1//EN" "http://www.w3.org/Graphics/SVG/1.1/DTD/svg11.dtd" >
<svg>
<metadata>
Created by FontForge 20090622 at Wed Jun 22 13:51:01 2016
 By deploy user
Copyright 2013 Adobe Systems Incorporated. All rights reserved.
</metadata>
<defs>
<font id="Chilena-Gruesa" horiz-adv-x="612" >
  <font-face 
    font-family="Chilena Gruesa"
    font-weight="700"
    font-stretch="normal"
    units-per-em="1000"
    panose-1="0 0 8 0 0 0 0 0 0 0"
    ascent="750"
    descent="-250"
    x-height="506"
    cap-height="700"
    bbox="-93 -251 1604 972"
    underline-thickness="50"
    underline-position="-50"
    unicode-range="U+0020-U+FB06"
  />
<missing-glyph horiz-adv-x="284" 
 />
    <glyph glyph-name="f_f" unicode="ff" horiz-adv-x="731" 
d="M664 633q-39 0 -54.5 -19t-15.5 -59v-50h136l-1 -98q0 -16 -13 -16h-122v-391q-55 -3 -102 -3l-58 3v391h-187v-391h-3q-3 0 -8.5 -0.5t-13 -0.5t-17.5 -0.5l-20 -1t-21.5 -0.5h-21.5l-55 3v394h-72v98q0 13 14 13h58v171q0 76 47 120.5t134 44.5q73 0 114.5 -24
t41.5 -56q0 -13 -5.5 -31t-10.5 -29l-6 -11q-43 26 -85 26q-70 0 -70 -77v-134h187v87q0 77 52 121t159 44q70 0 116.5 -20t46.5 -50q0 -27 -29 -85q-62 31 -115 31z" />
    <glyph glyph-name="fi" unicode="fi" horiz-adv-x="638" 
d="M247 550v-45h130v-101q0 -15 -11 -15l-119 2v-391q-49 -3 -108 -3q-52 0 -52 6v390l-72 1v98q0 13 14 13h58v80q0 80 68.5 132.5t209.5 52.5q96 0 145.5 -24.5t49.5 -61.5q0 -10 -5.5 -29t-10.5 -33l-6 -14q-74 37 -174 37q-68 0 -92.5 -23.5t-24.5 -71.5zM518 523
q64 0 64 -42v-481q-43 -4 -113 -4q-47 0 -47 7v506q41 14 96 14z" />
    <glyph glyph-name="fl" unicode="fl" horiz-adv-x="643" 
d="M552 749q34 0 34 -8v-741q-57 -3 -102 -3q-58 0 -58 6v613q-44 22 -102 22q-77 0 -77 -78v-55h134v-101q0 -15 -11 -15l-123 2v-391q-47 -3 -108 -3q-52 0 -52 6v390l-72 1v98q0 13 14 13h58v80q0 78 55.5 127.5t161.5 49.5q86 0 129 -24q47 11 119 11z" />
    <glyph glyph-name="f_f_i" unicode="ffi" horiz-adv-x="990" 
d="M728 505v-101q0 -13 -10 -13h-127v-391q-49 -3 -108 -3q-53 0 -53 6v388h-183v-391q-50 -3 -108 -3l-52 3v394h-72v98q0 13 14 13h58v66q0 94 51.5 142.5t143.5 48.5q57 0 90.5 -22t33.5 -53q0 -13 -4.5 -33t-9.5 -34l-4 -13q0 2 -7.5 8.5t-25 14.5t-38.5 8
q-39 0 -54.5 -19t-15.5 -59v-55h183v58q0 96 68 151.5t211 55.5q96 0 149 -25t53 -61q0 -10 -5.5 -29t-11.5 -33l-5 -14q-74 37 -181 37q-68 0 -92.5 -23.5t-24.5 -71.5v-45h137zM869 523q64 0 64 -42v-481q-43 -4 -113 -4q-47 0 -47 7v506q42 14 96 14z" />
    <glyph glyph-name="f_f_l" unicode="ffl" horiz-adv-x="988" 
d="M727 505l-1 -101q0 -14 -9 -14q-42 0 -125 1v-391q-47 -3 -107 -3q-53 0 -53 6v387l-185 1v-391q-67 -3 -101 -3l-59 3v394h-72v98q0 13 14 13h58v92q0 77 50 121t146 44q61 0 101 -20t40 -50q0 -14 -5 -35t-11 -35l-5 -15q-34 31 -86 31q-39 0 -54.5 -19t-15.5 -59v-55
h185v80q0 81 55.5 129t161.5 48q90 0 132 -24q52 11 117 11q34 0 34 -8v-741q-58 -3 -103 -3q-57 0 -57 6v613q-49 22 -102 22q-78 0 -78 -78v-55h135z" />
    <glyph glyph-name=".notdef" horiz-adv-x="284" 
 />
    <glyph glyph-name=".null" horiz-adv-x="0" 
 />
    <glyph glyph-name="nonmarkingreturn" horiz-adv-x="333" 
 />
    <glyph glyph-name="space" unicode=" " horiz-adv-x="284" 
 />
    <glyph glyph-name="exclam" unicode="!" horiz-adv-x="308" 
d="M81 186l-6 516q39 5 101 5q59 0 59 -6l-7 -515h-147zM166 137q74 0 74 -66q0 -81 -94 -81q-78 0 -78 68q0 79 98 79z" />
    <glyph glyph-name="quotedbl" unicode="&#x22;" horiz-adv-x="445" 
d="M116 709q20 0 37 -1.5t25 -3.5l7 -2q0 -80 -5 -158t-10 -116l-5 -38h-98q-20 132 -20 312h3l10 2.5t14 2.5t19.5 1.5t22.5 0.5zM329 709q19 0 36 -1.5t25 -3.5l7 -2q0 -80 -5 -158t-10 -116l-5 -38h-98q-20 133 -20 312q7 7 70 7z" />
    <glyph glyph-name="numbersign" unicode="#" horiz-adv-x="801" 
d="M795 424h-152l-62 -153h129v-105h-172l-67 -166h-135l68 166h-155l-67 -166h-136l68 166h-107v105h150l63 153h-127v105h170l69 168h131l-68 -168h157l69 168h132l-68 -168h110v-105zM447 271l62 153h-156l-62 -153h156z" />
    <glyph glyph-name="dollar" unicode="$" 
d="M526 250q0 -63 -40.5 -103.5t-107.5 -54.5l10 -92q-53 -3 -100 -3q-58 0 -58 6l10 85q-68 9 -105.5 36.5t-37.5 60.5q0 31 18 71q2 -3 7 -7.5t21 -17t34.5 -22t48 -17t61.5 -7.5q83 0 83 50q0 21 -27.5 35.5t-66 25t-77.5 25t-66.5 46t-27.5 78.5q0 57 35 97t101 54
l-11 101q51 13 124 13q34 0 34 -9l-12 -100q56 -6 90.5 -23t34.5 -39q0 -20 -16 -84q-70 47 -146 47t-76 -45q0 -23 27 -38.5t65.5 -26.5t77.5 -25t66 -43.5t27 -73.5z" />
    <glyph glyph-name="percent" unicode="%" horiz-adv-x="776" 
d="M17 527q0 90 47 140.5t121 50.5q69 0 114 -45t45 -139q0 -98 -47 -148.5t-117 -50.5q-69 0 -116 51.5t-47 140.5zM563 700h131l-479 -700h-136zM108 527q0 -50 20 -75.5t52 -25.5q74 0 74 104q0 98 -70 98q-76 0 -76 -101zM595 -20q-69 0 -116 51.5t-47 140.5t47.5 140
t120.5 51q69 0 114 -45t45 -139q-1 -95 -48 -146.5t-116 -52.5zM595 71q74 0 74 104q0 98 -71 98q-75 0 -75 -101q0 -51 19.5 -76t52.5 -25z" />
    <glyph glyph-name="ampersand" unicode="&#x26;" horiz-adv-x="701" 
d="M698 403l-1 -104h-73v-20q0 -147 -81 -220t-216 -73q-124 0 -198.5 53t-74.5 147q0 71 44.5 111.5t112.5 54.5q-60 18 -95.5 61t-35.5 107q0 94 72 144t182 50q88 0 140.5 -18t52.5 -49q0 -20 -6 -46.5t-12 -42.5l-6 -17q-64 27 -149 27q-113 0 -113 -75q0 -90 171 -90
h86v64q68 18 126 18v-82h74zM498 294v5h-123q-149 0 -149 -88q0 -42 33.5 -65t90.5 -23q83 0 115.5 39t32.5 132z" />
    <glyph glyph-name="quotesingle" unicode="'" horiz-adv-x="233" 
d="M185 702q0 -80 -5 -158t-10 -116l-5 -38h-98q-20 132 -20 312q28 7 69 7q20 0 37 -1.5t25 -3.5z" />
    <glyph glyph-name="parenleft" unicode="(" horiz-adv-x="382" 
d="M46 287q0 71 13 136t34 112t46.5 88t50.5 67.5t46 45t34 26.5l13 9q50 -38 81 -90l-17 -14t-38 -44t-48 -76.5t-38.5 -111.5t-17.5 -148q0 -79 17 -148.5t40.5 -112.5t47 -74.5t40.5 -44.5l16 -13q-13 -23 -33.5 -45.5t-34.5 -33.5l-13 -11q-5 2 -13.5 7t-33.5 24.5
t-47.5 43t-50 64.5t-47.5 88t-33.5 114t-13.5 142z" />
    <glyph glyph-name="parenright" unicode=")" horiz-adv-x="382" 
d="M336 288q0 -71 -13 -136t-34 -112t-46 -88t-50.5 -67.5t-46.5 -45t-34 -27.5l-13 -8q-50 38 -81 90l17 14t38 44t48 76.5t38.5 111.5t17.5 148q0 79 -17 148.5t-40.5 112.5t-47.5 74.5t-40 44.5l-17 13q14 23 34 45.5t33 33.5l14 11q10 -5 26 -15t57.5 -50t73 -89.5
t57.5 -138t26 -190.5z" />
    <glyph glyph-name="asterisk" unicode="*" horiz-adv-x="493" 
d="M465 549q7 -20 -2 -22l-139 -27l96 -100q-29 -35 -69 -64q-35 -25 -39 -19q-1 2 -11.5 21l-27.5 49.5l-29 52.5l-66 -123q-43 17 -83 46q-34 25 -30 31q1 2 17 18.5l41.5 42.5l42.5 44l-140 27q4 46 19 93q13 42 20 38q2 0 22 -10l52 -25.5t55 -25.5l-19 137q45 12 94 12
q43 0 43 -8l-18 -141l125 60q24 -39 46 -107z" />
    <glyph glyph-name="plus" unicode="+" 
d="M560 379v-125h-190v-195h-128v195h-190v125h190v195h128v-195h190z" />
    <glyph glyph-name="comma" unicode="," horiz-adv-x="274" 
d="M128 -224l-92 43q49 51 49 149q0 23 -6.5 56t-12.5 54l-7 21h153q26 -61 26 -130q0 -65 -31.5 -116.5t-78.5 -76.5z" />
    <glyph glyph-name="hyphen" unicode="-" horiz-adv-x="333" 
d="M50 325h233v-106h-233v106z" />
    <glyph glyph-name="period" unicode="." horiz-adv-x="274" 
d="M148 148q77 0 77 -71q0 -88 -98 -88q-78 0 -78 73q0 42 27.5 64t71.5 22z" />
    <glyph glyph-name="slash" unicode="/" horiz-adv-x="473" 
d="M445 697l-282 -697h-135l286 697h131z" />
    <glyph glyph-name="zero" unicode="0" 
d="M300 -14q-129 0 -202 89.5t-73 274.5q0 363 284 363q278 0 278 -363q0 -183 -78 -273.5t-209 -90.5zM306 119q61 0 86.5 56t25.5 175q0 121 -25 176t-88 55t-87.5 -55.5t-24.5 -175.5q0 -121 24.5 -176t88.5 -55z" />
    <glyph glyph-name="one" unicode="1" 
d="M239 106v421q-13 -14 -52 -28.5t-75 -14.5q-10 0 -14.5 6.5t-7 32.5t-2.5 79q68 4 113 28.5t55 69.5h143v-594h129q0 -66 -2.5 -86t-11.5 -20h-433v106h158z" />
    <glyph glyph-name="two" unicode="2" 
d="M210 112q27 18 89 18l267 2l-5 -132h-515v87q0 60 26 111t65 84t85 64t85 53.5t65 49.5t26 55q0 70 -108 70q-111 0 -205 -50q-22 60 -22 114q0 16 30 33.5t88.5 30t128.5 12.5q114 0 181.5 -50t67.5 -148q0 -55 -26 -100.5t-64.5 -74.5t-84 -58l-84 -51.5t-64.5 -53.5
t-26 -66z" />
    <glyph glyph-name="three" unicode="3" 
d="M208 403q171 0 171 90q0 75 -113 75q-86 0 -173 -35q-21 54 -21 109q0 26 65.5 49t147.5 23q113 0 184 -44.5t71 -137.5q0 -124 -131 -167q71 -13 114 -53.5t43 -111.5q0 -96 -75.5 -155t-193.5 -59q-110 0 -175 29.5t-65 68.5q0 21 6.5 46t13.5 39l7 14q82 -60 191 -60
q51 0 85 24t34 66q0 86 -149 86h-31q-6 46 -6 104z" />
    <glyph glyph-name="four" unicode="4" 
d="M490 282h87q0 -32 -2.5 -64t-4.5 -48l-3 -15h-77v-155h-160v155h-300v127l300 418h160v-418zM156 282h174v240z" />
    <glyph glyph-name="five" unicode="5" 
d="M123 700h417q0 -31 -3 -64.5t-5 -51.5l-3 -17h-266l-10 -140q315 0 315 -199q0 -107 -77 -174.5t-201 -67.5q-103 0 -167.5 30t-64.5 64q0 18 6 42t12 40l7 15q21 -18 74.5 -37.5t103.5 -19.5q53 0 89.5 28.5t36.5 73.5q0 99 -213 99h-78z" />
    <glyph glyph-name="six" unicode="6" 
d="M347 456q101 0 167 -56t66 -161q0 -119 -75.5 -186t-190.5 -67q-53 0 -100.5 17.5t-89.5 54.5t-67 103t-25 154q0 399 324 399q50 0 105 -13t78 -23q0 -33 -7.5 -63.5t-14.5 -44.5l-7 -15q-66 30 -145 30q-69 0 -110 -43t-53 -138q58 52 145 52zM308 104q46 0 76 34
t30 91q0 59 -27 90t-76 31q-62 0 -115 -55q3 -191 112 -191z" />
    <glyph glyph-name="seven" unicode="7" 
d="M37 700h536v-118q-119 -99 -198.5 -248.5t-93.5 -333.5h-171q11 186 75 330.5t160 231.5l-298 -2q-10 78 -10 140z" />
    <glyph glyph-name="eight" unicode="8" 
d="M451 365q59 -25 93.5 -69t34.5 -103q0 -93 -79 -150t-194 -57q-120 0 -196.5 57t-76.5 150q0 61 34 105t93 68q-108 51 -108 162q0 84 73 135t181 51q110 0 181.5 -50.5t71.5 -135.5q0 -112 -108 -163zM306 606q-45 0 -72 -25t-27 -68q0 -42 27 -66.5t72 -24.5t71.5 24
t26.5 67q0 44 -26 68.5t-72 24.5zM306 102q46 0 76 27t30 75q0 45 -29 70.5t-77 25.5t-77.5 -25.5t-29.5 -70.5q0 -47 30.5 -74.5t76.5 -27.5z" />
    <glyph glyph-name="nine" unicode="9" 
d="M297 714q57 0 105.5 -16.5t89.5 -51.5t64.5 -98t23.5 -149q0 -100 -41.5 -181t-108 -130.5t-142.5 -77t-153 -31.5q-23 64 -23 127q93 10 167 53t110 118q-53 -28 -112 -28q-103 0 -174 57t-71 172q0 113 74 174.5t191 61.5zM305 357q54 0 111 38v11q0 101 -32 145.5
t-84 44.5q-47 0 -74.5 -32t-27.5 -90q0 -56 29 -86.5t78 -30.5z" />
    <glyph glyph-name="colon" unicode=":" horiz-adv-x="274" 
d="M148 514q77 0 77 -71q0 -88 -98 -88q-78 0 -78 73q0 42 27.5 64t71.5 22zM148 148q77 0 77 -71q0 -88 -98 -88q-78 0 -78 73q0 42 27.5 64t71.5 22z" />
    <glyph glyph-name="semicolon" unicode=";" horiz-adv-x="274" 
d="M149 514q77 0 77 -71q0 -88 -98 -88q-77 0 -77 73q0 42 27 64t71 22zM128 -225l-92 44q49 52 49 149q0 24 -6.5 57t-12.5 54l-7 21h154q26 -61 26 -130q0 -66 -32 -118t-79 -77z" />
    <glyph glyph-name="less" unicode="&#x3c;" 
d="M259 264l233 -115l-16 -125l-9 -4l-381 202q-7 20 -7 42q0 10 1.5 20t3.5 16l2 5l381 203l9 -5q16 -113 16 -125z" />
    <glyph glyph-name="equal" unicode="=" 
d="M81 435h450v-105h-450v105zM81 224h450v-106h-450v106z" />
    <glyph glyph-name="greater" unicode="&#x3e;" 
d="M353 264l-234 114l17 125l8 5l382 -203q7 -19 7 -41q0 -10 -1.5 -20.5t-3.5 -15.5l-2 -6l-382 -202l-8 4q-17 113 -17 125z" />
    <glyph glyph-name="question" unicode="?" horiz-adv-x="525" 
d="M42 537q-31 66 -31 96q0 33 66 57t159 24q123 0 190.5 -47.5t67.5 -141.5q0 -53 -22.5 -94t-55 -67l-64.5 -50t-54.5 -56t-22.5 -72l-135 1q0 54 20 97t48.5 70t57 50t48.5 48t20 53q0 70 -116 70q-104 0 -176 -38zM219 137q74 0 74 -66q0 -81 -94 -81q-77 0 -77 68
q0 79 97 79z" />
    <glyph glyph-name="at" unicode="@" horiz-adv-x="851" 
d="M835 328q1 -132 -65.5 -208t-157.5 -76q-87 0 -106 69q-47 -68 -125 -68q-70 0 -117.5 52.5t-47.5 146.5q0 108 57.5 164t139.5 56q45 0 86 -16v1q0 1 15 4t43 6t54 3q16 0 16 -14v-275q0 -21 7 -29t22 -8q32 0 57 47t25 124q0 130 -84 202t-215 72t-225.5 -89.5
t-94.5 -243.5q0 -151 80 -236t198 -85q49 0 93.5 15.5t64.5 31.5l20 16q27 -27 27 -56q0 -33 -60 -65t-149 -32q-154 0 -262.5 109.5t-108.5 301.5q0 100 35.5 182t94.5 134t133 79.5t155 27.5q168 0 281.5 -94t113.5 -249zM428 145q38 0 71 31v177q-32 10 -61 10
q-42 0 -67 -29t-25 -81q0 -50 23 -79t59 -29z" />
    <glyph glyph-name="A" unicode="A" horiz-adv-x="638" 
d="M438 689l212 -689q-46 -3 -111 -3q-62 0 -65 3l-48 164h-240l-49 -164q-42 -3 -101 -3l-51 3l221 691q57 15 144 15q84 0 88 -17zM219 277h174l-81 278q-1 4 -5.5 3.5t-5.5 -4.5z" />
    <glyph glyph-name="B" unicode="B" horiz-adv-x="644" 
d="M56 700h299q117 0 182.5 -48t65.5 -130q0 -63 -32.5 -109t-86.5 -61q60 -10 98.5 -49t38.5 -98q0 -94 -64 -149.5t-185 -55.5h-316v700zM217 567v-168h124q96 0 96 83q0 85 -97 85h-123zM217 133h139q93 0 93 82q0 34 -26 54.5t-73 20.5h-133v-157z" />
    <glyph glyph-name="C" unicode="C" horiz-adv-x="593" 
d="M205 351q0 -103 51.5 -157.5t133.5 -54.5q92 0 155 69q35 -62 35 -97q0 -51 -66 -88t-157 -37q-139 0 -231 94.5t-92 269.5t94 268t245 93q84 0 142.5 -31t58.5 -70q0 -35 -36 -103q-65 51 -150 51q-84 0 -133.5 -54.5t-49.5 -152.5z" />
    <glyph glyph-name="D" unicode="D" horiz-adv-x="671" 
d="M56 0v686q0 14 19 14h249q142 0 227.5 -86.5t85.5 -269.5q0 -168 -93 -256t-230 -88h-258zM216 140h100q72 0 112.5 51t40.5 151q0 218 -154 218h-99v-420z" />
    <glyph glyph-name="E" unicode="E" horiz-adv-x="526" 
d="M216 137h282q2 -22 2 -54q0 -83 -17 -83h-427v700h439q2 -25 2 -56q0 -81 -17 -81h-264v-152h236q0 -44 -4.5 -80.5t-10.5 -36.5h-221v-157z" />
    <glyph glyph-name="F" unicode="F" horiz-adv-x="504" 
d="M56 700h440q1 -26 1 -57q0 -79 -17 -79h-264v-182h236q0 -127 -17 -127h-219v-255q-51 -3 -106 -3q-54 0 -54 6v697z" />
    <glyph glyph-name="G" unicode="G" horiz-adv-x="673" 
d="M601 627q0 -32 -7.5 -60t-14.5 -40l-7 -12q-78 48 -178 48q-88 0 -138 -54.5t-50 -161.5q0 -106 45.5 -164t123.5 -58q48 0 75 14t27 32v96h-124q0 25 2.5 51t5.5 40l3 14l253 1v-252q0 -52 -73 -94t-189 -42q-147 0 -234 92t-87 269q0 179 96.5 274t245.5 95
q100 0 162.5 -25.5t62.5 -62.5z" />
    <glyph glyph-name="H" unicode="H" horiz-adv-x="679" 
d="M563 709q39 0 49.5 -5.5t10.5 -28.5v-675q-42 -3 -105 -3q-55 0 -55 6v273h-246v-276q-42 -3 -105 -3q-56 0 -56 5v698q57 9 101 9q39 0 49.5 -5.5t10.5 -28.5v-266h246v291q56 9 100 9z" />
    <glyph glyph-name="I" unicode="I" horiz-adv-x="379" 
d="M267 93h80q1 -18 1 -41q0 -52 -18 -52h-294q-4 19 -4 43q0 50 15 50h60v514h-74q-2 25 -2 49q0 44 12 44h301q1 -15 1 -36q0 -57 -16 -57h-62v-514z" />
    <glyph glyph-name="J" unicode="J" horiz-adv-x="322" 
d="M198 708q49 0 49 -11v-762q0 -87 -47.5 -134t-130.5 -47q-68 0 -104 19t-36 50q0 15 3.5 36t7.5 35l3 14q38 -24 82 -24q32 0 47 16.5t15 57.5v742q50 8 111 8z" />
    <glyph glyph-name="K" unicode="K" horiz-adv-x="637" 
d="M397 367l228 -367q-45 -4 -96 -4l-83 4l-169 276h-61v-276q-37 -3 -100 -3q-60 0 -60 6v697q51 8 112 8q48 0 48 -11v-288h61l179 291q44 4 85 4l76 -4z" />
    <glyph glyph-name="L" unicode="L" horiz-adv-x="495" 
d="M216 136h257q2 -21 2 -43q0 -93 -31 -93h-370q-18 0 -18 19v678q44 8 120 8q40 0 40 -25v-544z" />
    <glyph glyph-name="M" unicode="M" horiz-adv-x="798" 
d="M56 0v694q67 7 146 7q11 0 14 -4l187 -359l185 358q61 4 142 4q12 0 12 -4v-696q-38 -3 -86 -3l-62 3v441l-173 -340q-7 -13 -21 -13t-22 12l-174 341v-441q-42 -3 -96 -3z" />
    <glyph glyph-name="N" unicode="N" horiz-adv-x="675" 
d="M56 0v693q63 7 138 7q12 0 12 -4l267 -426l-2 423q59 8 136 8q12 0 12 -4v-697q-36 -3 -96 -3l-55 3l-267 428l2 -428q-37 -3 -88 -3q-59 0 -59 3z" />
    <glyph glyph-name="O" unicode="O" horiz-adv-x="710" 
d="M349 -14q-64 0 -119.5 22t-100 64.5t-70 113.5t-25.5 162q0 93 25.5 164t71 114t103 64t124.5 21q139 0 228.5 -91t89.5 -272q0 -90 -27.5 -161t-74.5 -114t-104 -65t-121 -22zM355 138q66 0 108 54.5t42 155.5q0 104 -41 157.5t-110 53.5q-68 0 -108.5 -53.5
t-40.5 -157.5q0 -103 41 -156.5t109 -53.5z" />
    <glyph glyph-name="P" unicode="P" horiz-adv-x="604" 
d="M217 221v-221h-12q-12 -1 -39 -2t-55 -1q-55 0 -55 7v696h291q114 0 178.5 -61t64.5 -172q0 -112 -63 -179t-180 -67h-130zM217 346h125q95 0 95 114q0 107 -97 107h-123v-221z" />
    <glyph glyph-name="Q" unicode="Q" horiz-adv-x="707" 
d="M680 -52l4 -10q5 -11 9.5 -28t4.5 -33q0 -45 -50.5 -75t-130.5 -30q-49 0 -93.5 20t-83 71.5t-52.5 127.5q-112 20 -183 110.5t-71 246.5q0 93 25.5 164t71 114t103 64t124.5 21q139 0 228.5 -91t89.5 -272q0 -153 -74 -244t-188 -112q32 -81 134 -81q40 0 78.5 12
t53.5 25zM205 348q0 -102 41 -155.5t109 -53.5q66 0 108 54t42 155q0 104 -41 157.5t-110 53.5q-68 0 -108.5 -53.5t-40.5 -157.5z" />
    <glyph glyph-name="R" unicode="R" horiz-adv-x="643" 
d="M464 260l169 -256q1 -2 -10.5 -3.5t-38 -2.5t-63.5 -1l-65 3l-140 236h-99v-236h-5q-6 -1 -14.5 -1.5t-20 -0.5t-26.5 -0.5t-30 -0.5q-65 0 -65 7v696h288q115 0 185 -61t70 -167q0 -73 -35 -128t-100 -84zM217 567v-207h121q48 0 72 28.5t24 76.5q0 50 -25 76t-72 26
h-120z" />
    <glyph glyph-name="S" unicode="S" horiz-adv-x="584" 
d="M51 504q0 100 76 155t190 55q93 0 150.5 -21t57.5 -52q0 -21 -6 -47t-12 -42l-6 -15q-83 37 -193 37q-42 0 -66.5 -17t-24.5 -46q0 -25 24.5 -44.5t61.5 -32t80.5 -31t80.5 -40.5t61.5 -62t24.5 -94q0 -99 -77 -160t-189 -61q-102 0 -172 34.5t-70 83.5q0 16 7.5 38.5
t14.5 36.5l8 14q20 -20 83.5 -45t118.5 -25q49 0 76.5 18t27.5 53q0 21 -18 38t-47 29.5t-64 25.5t-69.5 31t-63.5 41t-47 60.5t-18 84.5z" />
    <glyph glyph-name="T" unicode="T" horiz-adv-x="534" 
d="M16 700h510q2 -26 2 -58q0 -78 -17 -78h-167v-564q-39 -3 -101 -3q-59 0 -59 7v560h-168v136z" />
    <glyph glyph-name="U" unicode="U" horiz-adv-x="647" 
d="M448 298v395q69 6 142 6q12 0 12 -4v-396q0 -159 -78.5 -236.5t-204.5 -77.5t-200 76t-74 237v395q82 6 155 6q11 0 11 -4v-397q0 -160 118 -160q119 0 119 160z" />
    <glyph glyph-name="V" unicode="V" horiz-adv-x="641" 
d="M653 700l-224 -691q-45 -11 -127 -11q-100 0 -107 18l-207 684q45 4 96 4l73 -4l165 -577l173 577q41 4 82 4z" />
    <glyph glyph-name="W" unicode="W" horiz-adv-x="1086" 
d="M541 462l-122 -453q-44 -11 -126 -11q-103 0 -107 18l-176 684q44 4 95 4l80 -4l134 -577l149 577q34 4 86 4l93 -4l141 -577l142 577q35 4 76 4l76 -4l-194 -691q-44 -11 -126 -11q-102 0 -107 18z" />
    <glyph glyph-name="X" unicode="X" horiz-adv-x="641" 
d="M449 366l197 -366q-45 -4 -96 -4l-81 4l-149 287l-159 -287q-49 -4 -90 -4l-76 4l198 344l-186 356q45 4 96 4l74 -4l147 -278l155 278q42 4 83 4l76 -4z" />
    <glyph glyph-name="Y" unicode="Y" horiz-adv-x="585" 
d="M608 700l-237 -435v-265q-39 -3 -101 -3q-59 0 -59 7v263l-234 433q45 4 96 4l74 -4l147 -314l156 314q41 4 82 4z" />
    <glyph glyph-name="Z" unicode="Z" horiz-adv-x="577" 
d="M25 699h527v-113l-330 -456l336 2v-132h-541v114l329 455l-311 -2z" />
    <glyph glyph-name="bracketleft" unicode="[" horiz-adv-x="382" 
d="M246 663v-742h105v-86h-271v914h271v-86h-105z" />
    <glyph glyph-name="backslash" unicode="\" horiz-adv-x="473" 
d="M28 697h131l286 -697h-135z" />
    <glyph glyph-name="bracketright" unicode="]" horiz-adv-x="382" 
d="M136 663h-105v86h271v-914h-271v86h105v742z" />
    <glyph glyph-name="asciicircum" unicode="^" horiz-adv-x="600" 
 />
    <glyph glyph-name="underscore" unicode="_" horiz-adv-x="500" 
d="M50 -11h400v-105h-400v105z" />
    <glyph glyph-name="grave" unicode="`" horiz-adv-x="374" 
d="M39 717q25 15 71.5 26.5t70.5 11.5q3 0 33 -31t64.5 -72t46.5 -62l-4 -8q-64 -8 -133 -8q-21 24 -58 60t-64 60z" />
    <glyph glyph-name="a" unicode="a" horiz-adv-x="574" 
d="M284 528q120 0 180 -47.5t60 -120.5v-360q-54 -3 -109 -3q-51 0 -51 4l2 51q-65 -65 -164 -65q-83 0 -126 42t-43 103q0 75 60 115.5t167 40.5q41 0 104 -9v40q0 45 -24.5 63.5t-85.5 18.5q-19 0 -36.5 -1.5t-31 -4t-27.5 -6.5t-22.5 -7t-20 -8.5t-16 -8l-14.5 -8
t-11 -6.5q-23 41 -23 74q0 41 59 72t173 31zM192 145q0 -28 18 -43.5t49 -15.5q58 0 105 38v77q-44 6 -79 6q-93 0 -93 -62z" />
    <glyph glyph-name="b" unicode="b" horiz-adv-x="613" 
d="M150 753q69 0 69 -46v-260q21 33 62 56t94 23q89 0 150.5 -66.5t61.5 -193.5q0 -132 -65.5 -204.5t-155.5 -72.5q-53 0 -96 28t-57 55v-72q-50 -3 -108 -3l-47 3v742q48 11 92 11zM219 318v-148q9 -16 37 -36.5t58 -20.5q48 0 77.5 37.5t29.5 111.5q0 71 -29 104t-74 33
q-41 0 -70 -27t-29 -54z" />
    <glyph glyph-name="c" unicode="c" horiz-adv-x="486" 
d="M430 368q-62 34 -111 34q-57 0 -92.5 -36.5t-35.5 -107.5q0 -69 36 -107.5t90 -38.5q37 0 71.5 17t53.5 36q30 -47 30 -79q0 -39 -54 -69.5t-128 -30.5q-109 0 -186.5 69t-77.5 202q0 132 78.5 200.5t201.5 68.5q65 0 108 -18t43 -52q0 -30 -27 -88z" />
    <glyph glyph-name="d" unicode="d" 
d="M545 749q11 0 11 -6v-743q-52 -3 -111 -3l-50 3l3 69q-59 -83 -159 -83q-91 0 -152 68t-61 198q0 133 75.5 203.5t184.5 70.5q48 0 109 -21v230q74 14 150 14zM301 112q50 0 94 42v232q-49 15 -83 15q-54 0 -87.5 -38.5t-33.5 -106.5t31 -106t79 -38z" />
    <glyph glyph-name="e" unicode="e" horiz-adv-x="543" 
d="M490 167q27 -32 27 -71q0 -43 -68 -76.5t-158 -33.5q-113 0 -189 69t-76 202q0 130 75 197.5t196 67.5q100 0 157.5 -49.5t57.5 -139.5q0 -21 -2 -44.5t-4 -36.5l-1 -12q-160 -12 -324 -16q8 -58 44 -88.5t90 -30.5q46 0 95 18.5t80 43.5zM289 410q-40 0 -69 -28t-38 -82
l176 7q3 16 3 32q0 34 -19 52.5t-53 18.5z" />
    <glyph glyph-name="f" unicode="f" horiz-adv-x="383" 
d="M317 638q-39 0 -54.5 -19t-15.5 -59v-55h148v-101q0 -15 -11 -15l-137 2v-391q-15 0 -51.5 -0.5t-56.5 -0.5q-10 0 -27 0.5t-25 0.5v393l-72 1v98q0 13 14 13h58v92q0 77 52 121t159 44q70 0 116.5 -20t46.5 -50q0 -27 -29 -85q-62 31 -115 31z" />
    <glyph glyph-name="g" unicode="g" horiz-adv-x="578" 
d="M259 87l86 -2q226 -3 226 -136q0 -77 -81.5 -132t-220.5 -55q-119 0 -186.5 35.5t-67.5 100.5q0 81 122 110q-14 13 -14 42q0 51 63 114q-70 15 -112 61.5t-42 116.5q0 87 65.5 135.5t184.5 48.5q76 0 130 -21q31 24 76.5 42.5t75.5 20.5q16 -66 17 -120q-39 -3 -81 -17
q18 -33 18 -87q0 -86 -65 -135.5t-172 -52.5q-22 -36 -22 -69zM276 419q-44 0 -70 -21t-26 -62q0 -40 25.5 -61.5t67.5 -21.5q43 0 70 21t27 63q0 41 -25 61.5t-69 20.5zM281 -138q58 0 90.5 17t32.5 49q0 29 -25.5 42.5t-77.5 15.5l-79 5q-47 -32 -47 -75q0 -54 106 -54z
" />
    <glyph glyph-name="h" unicode="h" horiz-adv-x="602" 
d="M210 698v-257q21 35 66 60t113 25q75 0 117.5 -40.5t42.5 -101.5v-384l-107 -3q-22 1 -56 3v326q0 73 -73 73q-44 0 -72 -25t-28 -56v-318l-103 -3q-29 1 -61 3v743q44 10 91 10q38 0 54 -13.5t16 -41.5z" />
    <glyph glyph-name="i" unicode="i" horiz-adv-x="273" 
d="M148 743q75 0 75 -61q0 -43 -24 -61t-71 -18q-76 0 -76 67q0 73 96 73zM57 0v509q46 14 100 14q60 0 60 -37v-486q-43 -4 -113 -4z" />
    <glyph glyph-name="j" unicode="j" horiz-adv-x="278" 
d="M56 671q0 73 94 73q78 0 78 -61q0 -43 -24 -61t-71 -18q-77 0 -77 67zM65 -23v528q59 19 105 19q25 0 40 -9.5t15 -27.5v-533q0 -87 -47 -133.5t-130 -46.5q-69 0 -105 19t-36 49q0 15 3.5 36.5t7.5 35.5l4 14q37 -24 81 -24q32 0 47 16.5t15 56.5z" />
    <glyph glyph-name="k" unicode="k" horiz-adv-x="555" 
d="M395 261l143 -256q-88 -8 -164 -8q-13 0 -13 5l-99 208l-45 -4v-206h-17q-17 -1 -46.5 -2t-52.5 -1q-44 0 -44 3v736q45 14 119 14q41 0 41 -9v-450l60 7l96 209q43 6 105 6l60 -5z" />
    <glyph glyph-name="l" unicode="l" horiz-adv-x="273" 
d="M217 741v-741q-55 -3 -102 -3q-58 0 -58 6v734q52 12 126 12q34 0 34 -8z" />
    <glyph glyph-name="m" unicode="m" horiz-adv-x="937" 
d="M719 526q75 0 120.5 -39.5t45.5 -108.5v-378q-40 -3 -105 -3q-56 0 -56 7v322q0 73 -77 73q-46 0 -70.5 -24.5t-24.5 -56.5v-318q-42 -3 -103 -3q-57 0 -57 7v322q0 73 -77 73q-46 0 -70.5 -24t-24.5 -57v-318q-46 -3 -106 -3q-54 0 -54 7v507q33 12 91 12
q37 0 51.5 -11.5t14.5 -34.5v-37q62 86 177 86q53 0 91.5 -23t55.5 -60q59 83 178 83z" />
    <glyph glyph-name="n" unicode="n" horiz-adv-x="613" 
d="M404 526q73 0 114.5 -39t41.5 -103v-384q-55 -3 -123 -3l-41 3v326q0 37 -17.5 55t-55.5 18q-43 0 -71.5 -25t-28.5 -56v-318q-49 -3 -110 -3l-53 3v512q33 12 91 12q38 0 54 -12.5t16 -39.5v-32q20 33 67.5 59.5t115.5 26.5z" />
    <glyph glyph-name="o" unicode="o" horiz-adv-x="595" 
d="M306 526q50 0 95.5 -15t84 -45t61 -82.5t22.5 -120.5q0 -136 -78 -206.5t-200 -70.5q-109 0 -187 69t-78 203q0 129 79.5 198.5t200.5 69.5zM297 107q45 0 76 39.5t31 114.5q0 72 -29.5 108.5t-74.5 36.5q-48 0 -78.5 -39t-30.5 -109q0 -72 30 -111.5t76 -39.5z" />
    <glyph glyph-name="p" unicode="p" horiz-adv-x="613" 
d="M161 525q55 0 55 -40v-40q21 35 63.5 58t100.5 23q87 0 147 -68t60 -189q0 -140 -66 -211.5t-154 -71.5q-57 0 -95 23t-55 48v-247q-49 -6 -110 -6q-14 0 -26.5 1.5t-18.5 2.5l-5 2v701q31 14 104 14zM313 113q48 0 77.5 37.5t29.5 115.5q0 66 -29 99.5t-73 33.5
q-41 0 -71 -29t-30 -55v-148q9 -18 37 -36t59 -18z" />
    <glyph glyph-name="q" unicode="q" horiz-adv-x="606" 
d="M530 519q20 0 20 -3v-706q-51 -5 -123 -5l-38 5v249q-54 -73 -151 -73q-94 0 -153 70t-59 196q0 135 74.5 204.5t179.5 69.5q59 0 115 -20q87 13 135 13zM295 112q62 0 94 53v223q-45 13 -79 13q-53 0 -87 -35.5t-34 -105.5t29 -109t77 -39z" />
    <glyph glyph-name="r" unicode="r" horiz-adv-x="386" 
d="M45 0v514q33 10 91 10q63 0 63 -35q0 -12 -1.5 -37t-1.5 -32q19 43 64 71t113 28v-136q0 -12 -13 -12q-69 0 -112 -41t-43 -110v-220q-16 0 -54.5 -0.5t-58.5 -0.5q-9 0 -24.5 0.5t-22.5 0.5z" />
    <glyph glyph-name="s" unicode="s" horiz-adv-x="487" 
d="M39 365q0 71 55 114.5t155 43.5q80 0 133 -18.5t53 -46.5q0 -26 -16 -95q-68 48 -146 48q-76 0 -76 -35q0 -23 27 -39.5t65.5 -29.5t77 -30t65.5 -49t27 -78q0 -80 -63 -123.5t-159 -43.5q-97 0 -151.5 30.5t-54.5 70.5q0 16 4.5 36t8.5 32l5 13q2 -3 7 -7.5t21 -17
t34.5 -22t48 -17t61.5 -7.5q83 0 83 41q0 18 -19.5 32.5t-49 23.5t-64 23t-64 31t-49 48t-19.5 72z" />
    <glyph glyph-name="t" unicode="t" horiz-adv-x="440" 
d="M399 155q22 -44 22 -76q0 -37 -46 -64t-113 -27q-77 0 -125 44.5t-48 137.5v224l-68 1v96q0 14 14 14h54v87q71 37 134 37q27 0 27 -15v-109h163v-101q0 -16 -11 -16l-152 3v-194q0 -73 68 -73q54 0 81 31z" />
    <glyph glyph-name="u" unicode="u" horiz-adv-x="592" 
d="M209 -13q-76 0 -118 41t-42 109v371q87 5 150 5q11 0 11 -5v-319q0 -75 71 -75q33 0 60 17t38 33v344q103 5 151 5q9 0 9 -5v-508q-37 -3 -105 -3l-52 3l5 73q-67 -86 -178 -86z" />
    <glyph glyph-name="v" unicode="v" horiz-adv-x="525" 
d="M165 -7l-180 513q88 8 164 8q12 0 12 -5l110 -370l104 368q43 6 105 6l60 -5l-175 -505q-80 -10 -200 -10z" />
    <glyph glyph-name="w" unicode="w" horiz-adv-x="857" 
d="M807 513l60 -5l-149 -505l-6 -1q-6 0 -17 -1t-25 -2t-32 -2l-37 -2t-40.5 -1.5t-41.5 -0.5l-90 315l-85 -305q-104 -10 -200 -10l-154 513q81 8 164 8q12 0 12 -5l84 -370l101 368q71 7 158 7q12 0 12 -5l103 -370l79 368q42 6 104 6z" />
    <glyph glyph-name="x" unicode="x" horiz-adv-x="537" 
d="M536 508l-143 -250l143 -253q-88 -8 -164 -8q-13 0 -13 5l-99 206l-94 -204q-43 -6 -105 -6l-60 5l142 253l-142 250q89 8 165 8q12 0 12 -5l99 -206l95 204q42 6 104 6z" />
    <glyph glyph-name="y" unicode="y" horiz-adv-x="545" 
d="M148 514q10 0 13 -5l120 -367l100 366q3 5 120 5q17 0 30 -1.5t17 -2.5l5 -1l-199 -518q-44 -119 -100 -173.5t-144 -54.5q-57 0 -91 22.5t-34 56.5q0 20 5.5 40t11.5 29l5 10q39 -30 85 -30q68 0 98 93l-198 523q81 8 156 8z" />
    <glyph glyph-name="z" unicode="z" horiz-adv-x="528" 
d="M493 506v-107q0 -9 -6 -15l-254 -264l269 1v-79q0 -42 -50 -42h-421v102q0 12 9 21l251 263l-251 -1v80q0 41 48 41h405z" />
    <glyph glyph-name="braceleft" unicode="{" horiz-adv-x="382" 
d="M40 237v106q24 0 47 -3q11 6 11 24q0 22 -7.5 82.5t-7.5 99.5q0 54 20.5 97.5t49.5 66.5t57.5 38t49.5 20l20 4q36 -39 68 -90q-4 -1 -11.5 -3.5t-25.5 -13t-32 -24t-25.5 -38.5t-11.5 -54q0 -26 4.5 -81.5t4.5 -77.5q0 -62 -44 -101q44 -37 44 -100q0 -22 -4.5 -77.5
t-4.5 -81.5q0 -29 11 -53.5t26.5 -38.5t31 -24t26.5 -14l11 -3q-14 -23 -31 -45.5t-27 -33.5l-10 -11q-8 1 -21.5 4.5t-47.5 19.5t-59.5 38.5t-47 66t-21.5 98.5q0 39 7.5 99t7.5 82q0 19 -11 24q-30 -2 -47 -2z" />
    <glyph glyph-name="bar" unicode="|" horiz-adv-x="320" 
d="M140 760h40v-950h-40v950z" />
    <glyph glyph-name="braceright" unicode="}" horiz-adv-x="382" 
d="M329 343v-106q-16 0 -48 2q-10 -6 -10 -24q0 -22 7.5 -82t7.5 -99q0 -55 -20.5 -98.5t-49 -66.5t-57.5 -38t-49 -19l-21 -5q-36 39 -68 90q4 1 11.5 3.5t25.5 13t32 24t25.5 38.5t11.5 54q0 26 -4.5 81.5t-4.5 77.5q0 60 44 101q-44 39 -44 100q0 22 4.5 77.5t4.5 81.5
q0 29 -11 53.5t-26.5 38.5t-31 24t-26.5 13l-11 4q14 23 31 45.5t27 33.5l10 11q8 -1 21.5 -4.5t47.5 -19.5t59.5 -38.5t47 -66t21.5 -97.5q0 -39 -7.5 -99.5t-7.5 -82.5q0 -18 10 -24q24 3 48 3z" />
    <glyph glyph-name="asciitilde" unicode="~" horiz-adv-x="590" 
d="M84 310q0 21 36.5 36t92.5 15q31 0 95.5 -8t84.5 -8q33 0 59 12.5t36 23.5q18 -48 18 -85q0 -21 -32 -39.5t-82 -18.5q-31 0 -97.5 9t-93.5 9q-54 0 -101 -27q-16 43 -16 81z" />
    <glyph glyph-name="exclamdown" unicode="&#xa1;" horiz-adv-x="308" 
d="M162 526q78 0 78 -67q0 -79 -97 -79q-37 0 -56 15t-19 51q0 80 94 80zM227 331l7 -516q-40 -5 -102 -5q-59 0 -59 6l7 515h147z" />
    <glyph glyph-name="sterling" unicode="&#xa3;" 
d="M293 136h256q2 -21 2 -43q0 -93 -31 -93h-366l-100 -2v104q0 14 14 14h64v165l-65 1v97q0 14 14 14h51v121q0 90 54 143t173 53q74 0 125.5 -20.5t51.5 -49.5q0 -55 -15 -85q-58 31 -127 31q-101 0 -101 -78v-115h160l-1 -102q0 -15 -11 -15l-148 2v-142z" />
    <glyph glyph-name="yen" unicode="&#xa5;" 
d="M621 700l-204 -376h130v-105h-162v-219q-40 -3 -102 -3q-58 0 -58 7v215h-164v105h133l-203 376q44 4 96 4l73 -4l147 -314l156 314q41 4 82 4z" />
    <glyph glyph-name="brokenbar" unicode="&#xa6;" horiz-adv-x="320" 
d="M140 760h40v-414h-40v414zM140 224h40v-414h-40v414z" />
    <glyph glyph-name="section" unicode="&#xa7;" horiz-adv-x="568" 
d="M408 292q0 19 -34 36.5t-82.5 35.5t-96.5 40.5t-82 61t-34 87.5q0 64 52.5 108t159.5 44q85 0 132 -21t47 -50q0 -16 -5 -36t-11 -32l-5 -11q-7 6 -22.5 15t-49.5 20.5t-67 11.5q-35 0 -53.5 -11.5t-18.5 -30.5q0 -20 24.5 -37.5t60 -31.5t70.5 -30t59.5 -41.5
t24.5 -58.5t-20.5 -51t-48.5 -18zM91 129q2 -3 6.5 -8t20 -17t33 -21.5t45.5 -17.5t59 -8q40 0 59 14.5t19 35.5q0 19 -25 35.5t-60.5 30.5t-70.5 30.5t-60 43.5t-25 62q0 28 17 47t37 19q0 -17 35.5 -34.5t86 -36t101.5 -41t86.5 -60t35.5 -84.5q0 -69 -56 -116t-168 -47
q-102 0 -149 36t-47 79q0 15 5 29.5t10 21.5z" />
    <glyph glyph-name="dieresis" unicode="&#xa8;" horiz-adv-x="524" 
d="M165 716q30 0 43.5 -12t13.5 -40q0 -37 -17 -51.5t-56 -14.5q-58 0 -58 57q0 61 74 61zM376 716q30 0 43.5 -12t13.5 -40q0 -37 -17 -51.5t-56 -14.5q-58 0 -58 57q0 61 74 61z" />
    <glyph glyph-name="copyright" unicode="&#xa9;" horiz-adv-x="685" 
d="M23 296q0 138 92 234.5t227 96.5q136 0 228 -96.5t92 -234.5t-92 -234t-228 -96q-135 0 -227 96t-92 234zM100 296q0 -105 69.5 -178.5t172.5 -73.5t172 73.5t69 178.5t-69 178t-172 73t-172.5 -73t-69.5 -178zM465 352q-43 29 -91 29q-40 0 -61 -21.5t-20 -62.5
q0 -84 80 -84q25 0 49 9.5t35.5 18t15.5 13.5q14 -29 14 -53q0 -30 -41.5 -54.5t-94.5 -24.5q-73 0 -125 46t-52 129q0 81 53 127.5t134 46.5q46 0 81 -19.5t35 -42.5q0 -21 -12 -57z" />
    <glyph glyph-name="ordfeminine" unicode="&#xaa;" horiz-adv-x="505" 
d="M247 709q97 0 144.5 -37t47.5 -94v-277q-50 -4 -91 -4q-40 0 -40 4l2 38q-50 -50 -127 -50q-68 0 -102.5 32.5t-34.5 80.5q0 58 47.5 89.5t134.5 31.5q35 0 79 -6v29q0 34 -18.5 48t-65.5 14q-16 0 -30.5 -1.5t-25.5 -3t-22.5 -4.5t-18 -5t-16 -6.5t-12 -6l-10.5 -6.5
l-9 -5q-18 32 -18 58q0 32 46.5 56.5t139.5 24.5zM177 412q0 -21 13.5 -32.5t37.5 -11.5q43 0 79 28v59q-38 4 -59 4q-71 0 -71 -47z" />
    <glyph glyph-name="guillemotleft" unicode="&#xab;" horiz-adv-x="554" 
d="M163 253l118 -123q0 -35 -1.5 -69t-3.5 -51l-1 -16l-7 -4l-218 204q-7 25 -7 63q0 16 1.5 31.5t3.5 23.5l2 7l218 203l7 -4q6 -57 6 -136l-118 -123v-6zM406 253l117 -123l-5 -136l-7 -4l-219 204q-6 25 -6 63q0 16 1.5 31.5t2.5 23.5l2 7l219 203l7 -4q5 -57 5 -136
l-117 -123v-6z" />
    <glyph glyph-name="logicalnot" unicode="&#xac;" horiz-adv-x="600" 
 />
    <glyph glyph-name="softhyphen" unicode="&#xad;" horiz-adv-x="431" 
d="M50 325h233v-106h-233v106z" />
    <glyph glyph-name="registered" unicode="&#xae;" horiz-adv-x="613" 
d="M310 811q113 0 192.5 -79.5t79.5 -192.5q0 -112 -79.5 -191.5t-192.5 -79.5t-192.5 79t-79.5 192q0 112 79.5 192t192.5 80zM310 334q85 0 145.5 60t60.5 145t-61 145.5t-145 60.5q-85 0 -145.5 -61t-60.5 -145q0 -85 60.5 -145t145.5 -60zM430 587q0 -55 -47 -84l58 -97
q0 -3 -57 -3h-30l-43 86h-37v-86h-68q-12 0 -12 3v274h138q44 0 71 -26t27 -67zM274 617v-70h46q28 0 28 37q0 33 -29 33h-45z" />
    <glyph glyph-name="macron" unicode="&#xaf;" horiz-adv-x="499" 
d="M89 696h325l-4 -97h-325z" />
    <glyph glyph-name="degree" unicode="&#xb0;" horiz-adv-x="365" 
d="M183 464q-64 0 -111 47t-47 112q0 64 47 110.5t111 46.5t111 -46.5t47 -110.5t-47 -111.5t-111 -47.5zM183 560q26 0 44 18t18 45q0 26 -18 44t-44 18q-27 0 -45 -18t-18 -44q0 -27 18 -45t45 -18z" />
    <glyph glyph-name="plusminus" unicode="&#xb1;" 
d="M370 487h188v-125h-188v-195h-128v195h-188v125h188v195h128v-195zM63 14v106h486v-106h-486z" />
    <glyph glyph-name="twosuperior" unicode="&#xb2;" horiz-adv-x="532" 
d="M170 375q23 18 83 18l234 2l-1 -99h-441v54q0 53 21.5 91.5t53.5 56.5t69.5 32t69.5 21t53.5 19.5t21.5 31.5q0 44 -82 44q-42 0 -86.5 -12t-67.5 -24l-23 -12q-20 37 -20 102q10 5 29 12.5t74.5 20.5t108.5 13q100 0 157 -34t57 -100q0 -51 -32 -82t-77.5 -43.5
t-91.5 -23t-78 -31.5t-32 -57z" />
    <glyph glyph-name="threesuperior" unicode="&#xb3;" horiz-adv-x="532" 
d="M166 483v53q88 0 125.5 11t37.5 38q0 51 -99 51q-20 0 -38.5 -2.5t-31.5 -5t-27.5 -8t-21.5 -8.5l-18 -8t-13 -6l-20 111q91 37 196 37t163 -33t58 -92q0 -40 -30 -66.5t-82 -33.5q134 -14 134 -102q0 -61 -64.5 -100t-175.5 -39q-71 0 -127 16t-77 32l-21 16l27 96
l11 -8q12 -8 19.5 -12.5t24.5 -13t32.5 -13t38.5 -8.5t47 -4q49 0 77.5 14.5t28.5 39.5q0 28 -33.5 38t-104.5 10h-36z" />
    <glyph glyph-name="acute" unicode="&#xb4;" horiz-adv-x="600" 
d="M505 717l-148 -141q-47 -2 -91 -2l-63 2l-3 8q17 17 54 60.5l65.5 77t30.5 33.5q25 0 77.5 -12t77.5 -26z" />
    <glyph glyph-name="paragraph" unicode="&#xb6;" horiz-adv-x="771" 
d="M315 221h-38q-106 0 -166 60t-65 155q-7 116 62 190t187 74h181l1 -846q0 -6 -56 -6h-26t-23.5 0.5t-19.5 1t-15.5 0.5t-11.5 0.5t-7 0.5h-2zM542 -149v849h155v-846q0 -6 -55 -6h-26t-22.5 0.5l-18.5 1t-15 0.5t-10 0.5t-6 0.5h-2z" />
    <glyph glyph-name="periodcentered" unicode="&#xb7;" horiz-adv-x="327" 
d="M174 342q77 0 77 -71q0 -87 -97 -87q-78 0 -78 73q0 42 27 63.5t71 21.5z" />
    <glyph glyph-name="cedilla" unicode="&#xb8;" horiz-adv-x="387" 
d="M176 1h46q-21 -22 -21 -44q0 -11 29.5 -18.5t58.5 -22.5t29 -44q0 -35 -37.5 -59t-96.5 -24q-57 0 -93 21t-36 50q0 11 9.5 22.5t18.5 17.5l9 5q1 -3 3.5 -7.5t11 -15.5t17.5 -20t23 -16t29 -7q39 0 39 23q0 10 -17.5 16t-35 18t-17.5 35q0 16 7.5 33.5t15.5 27.5z" />
    <glyph glyph-name="onesuperior" unicode="&#xb9;" horiz-adv-x="532" 
d="M212 376v214q-12 -13 -53.5 -27t-76.5 -14v91q52 5 94.5 29.5t52.5 66.5h129v-360h106v-87h-383v87h131z" />
    <glyph glyph-name="ordmasculine" unicode="&#xba;" horiz-adv-x="565" 
d="M289 709q88 0 149 -51t61 -153q0 -105 -62 -159.5t-160 -54.5q-89 0 -149.5 53t-60.5 157q0 100 62.5 154t159.5 54zM282 386q35 0 58 30t23 88q0 55 -22 82.5t-57 27.5q-36 0 -59 -29.5t-23 -83.5q0 -55 22.5 -85t57.5 -30z" />
    <glyph glyph-name="guillemotright" unicode="&#xbb;" horiz-adv-x="555" 
d="M161 253v6l-118 123q0 35 1.5 69t3.5 51l1 16l7 4l219 -203q6 -26 6 -62q0 -17 -1.5 -32.5t-3.5 -22.5l-1 -8l-219 -204l-7 4q-6 57 -6 136zM403 253v6l-117 123q0 35 1.5 69t2.5 51l2 16l7 4l218 -203q7 -26 7 -62q0 -17 -2 -32.5t-4 -22.5l-1 -8l-218 -204l-7 4
q-6 57 -6 136z" />
    <glyph glyph-name="onequarter" unicode="&#xbc;" horiz-adv-x="1158" 
d="M435 376v-87h-383v87h131v214q-12 -13 -53.5 -27t-76.5 -14v91q52 5 94.5 29.5t52.5 66.5h129v-360h106zM746 700h132l-479 -700h-136zM1118 170v-88h-81v-82h-147v82h-266v115l269 255h144v-282h81zM731 170h159v155z" />
    <glyph glyph-name="onehalf" unicode="&#xbd;" horiz-adv-x="1158" 
d="M162 376v214q-12 -13 -53.5 -27t-76.5 -14v91q52 5 94.5 29.5t52.5 66.5h129v-360h106v-87h-383v87h131zM861 700l-479 -700h-136l483 700h132zM799 80q24 17 83 18l235 1l-1 -99h-442v54q0 63 30 105t72 59.5t84.5 28.5t72.5 24t30 35q0 44 -81 44q-42 0 -86.5 -12
t-67.5 -24l-24 -12q-19 37 -19 102q10 5 28.5 13t74 21t108.5 13q100 0 157 -34.5t57 -99.5q0 -51 -32 -82t-78 -43.5t-91.5 -23t-77.5 -31.5t-32 -57z" />
    <glyph glyph-name="threequarters" unicode="&#xbe;" horiz-adv-x="1158" 
d="M489 419q0 -61 -64.5 -100t-175.5 -39q-71 0 -127 16t-77 32l-21 16l27 96l11 -8q12 -8 19.5 -12.5t24.5 -13t32.5 -13t38.5 -8.5t47 -4q49 0 77.5 14.5t28.5 39.5q0 28 -33.5 38t-104.5 10h-36l-1 53q89 0 126.5 11t37.5 38q0 51 -100 51q-19 0 -38 -2.5t-31.5 -5
t-27 -8t-21.5 -8.5l-18 -8t-13 -6l-20 111q91 37 196 37t162.5 -33t57.5 -92q0 -40 -30 -66.5t-82 -33.5q135 -15 135 -102zM762 700h132l-479 -700h-136zM1129 170v-88h-81v-82h-147v82h-266v115l269 255h144v-282h81zM742 170h159v155z" />
    <glyph glyph-name="questiondown" unicode="&#xbf;" horiz-adv-x="525" 
d="M306 380q-74 0 -74 66q0 80 94 80q78 0 78 -67q0 -79 -98 -79zM483 -21q31 -65 31 -95q0 -33 -65.5 -57t-158.5 -24q-123 0 -191 47.5t-68 141.5q0 53 22.5 94t54.5 67l64.5 50t55 56t22.5 72l135 -1q0 -54 -20 -97t-48.5 -70t-57 -50t-48.5 -48t-20 -53q0 -35 27 -52.5
t90 -17.5q101 0 175 37z" />
    <glyph glyph-name="Agrave" unicode="&#xc0;" horiz-adv-x="638" 
d="M257 749q-21 24 -58 60t-64 59l-27 24q25 15 71.5 26.5t70.5 11.5q3 0 33 -31t64.5 -72t46.5 -62l-4 -8q-64 -8 -133 -8zM438 689l212 -689q-46 -3 -111 -3q-62 0 -65 3l-48 164h-240l-49 -164q-42 -3 -101 -3l-51 3l221 691q57 15 144 15q84 0 88 -17zM219 277h174
l-81 278q-1 4 -5.5 3.5t-5.5 -4.5z" />
    <glyph glyph-name="Aacute" unicode="&#xc1;" horiz-adv-x="638" 
d="M321 749l-63 2l-3 8q17 17 54 60.5l65.5 77t30.5 33.5q25 0 77.5 -12t77.5 -26l-148 -141q-47 -2 -91 -2zM438 689l212 -689q-46 -3 -111 -3q-62 0 -65 3l-48 164h-240l-49 -164q-42 -3 -101 -3l-51 3l221 691q57 15 144 15q84 0 88 -17zM219 277h174l-81 278
q-1 4 -5.5 3.5t-5.5 -4.5z" />
    <glyph glyph-name="Acircumflex" unicode="&#xc2;" horiz-adv-x="638" 
d="M321 839l-80 -95l-126 6l-4 7l66.5 71.5l63 67.5t23.5 23q29 6 60 6l71 -6q3 0 28.5 -24.5t59 -64.5t52.5 -73l-5 -7q-68 -6 -136 -6q-12 22 -30.5 45.5t-30.5 36.5zM438 689l212 -689q-46 -3 -111 -3q-62 0 -65 3l-48 164h-240l-49 -164q-42 -3 -101 -3l-51 3l221 691
q57 15 144 15q84 0 88 -17zM219 277h174l-81 278q-1 4 -5.5 3.5t-5.5 -4.5z" />
    <glyph glyph-name="Atilde" unicode="&#xc3;" horiz-adv-x="638" 
d="M232 797q-54 0 -101 -27q-16 43 -16 81q0 21 36.5 36t92.5 15q31 0 95.5 -8t84.5 -8q33 0 59 12.5t36 23.5q18 -48 18 -85q0 -21 -32 -39.5t-82 -18.5q-31 0 -97.5 9t-93.5 9zM438 689l212 -689q-46 -3 -111 -3q-62 0 -65 3l-48 164h-240l-49 -164q-42 -3 -101 -3l-51 3
l221 691q57 15 144 15q84 0 88 -17zM219 277h174l-81 278q-1 4 -5.5 3.5t-5.5 -4.5z" />
    <glyph glyph-name="Adieresis" unicode="&#xc4;" horiz-adv-x="638" 
d="M210 773q-58 0 -58 57q0 61 74 61q30 0 43.5 -12t13.5 -40q0 -37 -17 -51.5t-56 -14.5zM421 773q-58 0 -58 57q0 61 74 61q30 0 43.5 -12t13.5 -40q0 -37 -17 -51.5t-56 -14.5zM438 689l212 -689q-46 -3 -111 -3q-62 0 -65 3l-48 164h-240l-49 -164q-42 -3 -101 -3l-51 3
l221 691q57 15 144 15q84 0 88 -17zM219 277h174l-81 278q-1 4 -5.5 3.5t-5.5 -4.5z" />
    <glyph glyph-name="Aring" unicode="&#xc5;" horiz-adv-x="638" 
d="M322 743q-46 0 -80.5 34.5t-34.5 80.5t34.5 80t80.5 34t80 -34t34 -80t-34 -80.5t-80 -34.5zM322 902q-19 0 -32 -13t-13 -31q0 -19 13 -32t32 -13q18 0 31 13t13 32q0 18 -13 31t-31 13zM438 689l212 -689q-46 -3 -111 -3q-62 0 -65 3l-48 164h-240l-49 -164
q-42 -3 -101 -3l-51 3l221 691q57 15 144 15q84 0 88 -17zM219 277h174l-81 278q-1 4 -5.5 3.5t-5.5 -4.5z" />
    <glyph glyph-name="AE" unicode="&#xc6;" horiz-adv-x="829" 
d="M519 137h282q2 -22 2 -54q0 -83 -17 -83h-427v164h-170l-52 -164q-42 -3 -101 -3l-51 3l232 691q44 9 114 9h467q2 -25 2 -56q0 -81 -17 -81h-264v-152h236q0 -43 -5 -80t-11 -37h-220v-157zM225 277h134v283q-44 -2 -47 -6z" />
    <glyph glyph-name="Ccedilla" unicode="&#xc7;" horiz-adv-x="593" 
d="M580 111q0 -50 -64 -86.5t-151 -38.5q-10 -16 -10 -29q0 -11 29.5 -18.5t58.5 -22.5t29 -44q0 -35 -37.5 -59t-96.5 -24q-57 0 -93 21t-36 50q0 11 9.5 22.5t18.5 17.5l9 5q1 -3 3.5 -7.5t11 -15.5t17.5 -20t23 -16t29 -7q39 0 39 23q0 10 -17.5 16t-35 18t-17.5 35
q0 27 21 57q-126 13 -206 106.5t-80 255.5q0 175 94 268t245 93q84 0 142.5 -31t58.5 -70q0 -35 -36 -103q-65 51 -150 51q-84 0 -133.5 -54.5t-49.5 -152.5q0 -102 51.5 -157t132.5 -55q93 0 156 69q35 -62 35 -97z" />
    <glyph glyph-name="Egrave" unicode="&#xc8;" horiz-adv-x="526" 
d="M61 892q25 15 71.5 26.5t70.5 11.5q3 0 33 -31t64.5 -72t46.5 -62l-4 -8q-64 -8 -133 -8q-21 24 -58 60t-64 59zM216 137h282q2 -22 2 -54q0 -83 -17 -83h-427v700h439q2 -25 2 -56q0 -81 -17 -81h-264v-152h236q0 -44 -4.5 -80.5t-10.5 -36.5h-221v-157z" />
    <glyph glyph-name="Eacute" unicode="&#xc9;" horiz-adv-x="526" 
d="M513 892l-148 -141q-47 -2 -91 -2l-63 2l-3 8q17 17 54 60.5l65.5 77t30.5 33.5q25 0 77.5 -12t77.5 -26zM216 137h282q2 -22 2 -54q0 -83 -17 -83h-427v700h439q2 -25 2 -56q0 -81 -17 -81h-264v-152h236q0 -44 -4.5 -80.5t-10.5 -36.5h-221v-157z" />
    <glyph glyph-name="Ecircumflex" unicode="&#xca;" horiz-adv-x="526" 
d="M349 919q3 0 28.5 -24.5t59 -64.5t52.5 -73l-5 -7q-68 -6 -136 -6q-12 22 -30 45.5t-30 36.5l-13 13l-80 -95l-126 6l-4 7l66.5 71.5l63 67.5t23.5 23q29 6 60 6zM216 137h282q2 -22 2 -54q0 -83 -17 -83h-427v700h439q2 -25 2 -56q0 -81 -17 -81h-264v-152h236
q0 -44 -4.5 -80.5t-10.5 -36.5h-221v-157z" />
    <glyph glyph-name="Edieresis" unicode="&#xcb;" horiz-adv-x="526" 
d="M179 891q30 0 43.5 -12t13.5 -40q0 -37 -17 -51.5t-56 -14.5q-58 0 -58 57q0 61 74 61zM390 891q30 0 43.5 -12t13.5 -40q0 -37 -17 -51.5t-56 -14.5q-58 0 -58 57q0 61 74 61zM216 137h282q2 -22 2 -54q0 -83 -17 -83h-427v700h439q2 -25 2 -56q0 -81 -17 -81h-264v-152
h236q0 -44 -4.5 -80.5t-10.5 -36.5h-221v-157z" />
    <glyph glyph-name="Igrave" unicode="&#xcc;" horiz-adv-x="379" 
d="M125 749q-21 24 -58 60t-64 59l-27 24q25 15 71.5 26.5t70.5 11.5q3 0 33 -31t64.5 -72t46.5 -62l-4 -8q-64 -8 -133 -8zM267 93h80q1 -18 1 -41q0 -52 -19 -52h-293q-4 19 -4 43q0 50 14 50h61v514h-74q-2 25 -2 49q0 44 12 44h300q2 -15 2 -36q0 -57 -17 -57h-61v-514z
" />
    <glyph glyph-name="Iacute" unicode="&#xcd;" horiz-adv-x="379" 
d="M190 749l-63 2l-3 8q17 17 54 60.5l65.5 77t30.5 33.5q25 0 77.5 -12t77.5 -26l-148 -141q-47 -2 -91 -2zM267 93h80q1 -18 1 -41q0 -52 -19 -52h-293q-4 19 -4 43q0 50 14 50h61v514h-74q-2 25 -2 49q0 44 12 44h300q2 -15 2 -36q0 -57 -17 -57h-61v-514z" />
    <glyph glyph-name="Icircumflex" unicode="&#xce;" horiz-adv-x="379" 
d="M264 919q3 0 28.5 -24.5t59 -64.5t52.5 -73l-5 -7q-68 -6 -136 -6q-12 22 -30 45.5t-31 36.5l-12 13l-80 -95l-126 6l-4 7l66.5 71.5l63 67.5t23.5 23q29 6 60 6zM267 93h80q1 -18 1 -41q0 -52 -19 -52h-293q-4 19 -4 43q0 50 14 50h61v514h-74q-2 25 -2 49q0 44 12 44
h300q2 -15 2 -36q0 -57 -17 -57h-61v-514z" />
    <glyph glyph-name="Idieresis" unicode="&#xcf;" horiz-adv-x="379" 
d="M78 773q-58 0 -58 57q0 61 74 61q30 0 43.5 -12t13.5 -40q0 -37 -17 -51.5t-56 -14.5zM289 773q-58 0 -58 57q0 61 74 61q30 0 43.5 -12t13.5 -40q0 -37 -17 -51.5t-56 -14.5zM267 93h80q1 -18 1 -41q0 -52 -19 -52h-293q-4 19 -4 43q0 50 14 50h61v514h-74q-2 25 -2 49
q0 44 12 44h300q2 -15 2 -36q0 -57 -17 -57h-61v-514z" />
    <glyph glyph-name="Eth" unicode="&#xd0;" horiz-adv-x="670" 
d="M75 700h249q142 0 227.5 -86.5t85.5 -269.5q0 -168 -93 -256t-230 -88h-258v295h-85v106h85v285q0 14 19 14zM216 140h99q72 0 113 51t41 151q0 218 -155 218h-98v-159h108v-106h-108v-155z" />
    <glyph glyph-name="Ntilde" unicode="&#xd1;" horiz-adv-x="675" 
d="M134 851q0 21 36.5 36t92.5 15q31 0 95.5 -8t84.5 -8q33 0 59 12.5t36 23.5q18 -48 18 -85q0 -21 -32 -39.5t-82 -18.5q-31 0 -97.5 9t-93.5 9q-54 0 -101 -27q-16 43 -16 81zM56 0v693q63 7 138 7q12 0 12 -4l267 -426l-2 423q59 8 136 8q12 0 12 -4v-697q-36 -3 -96 -3
l-55 3l-267 428l2 -428q-37 -3 -88 -3q-59 0 -59 3z" />
    <glyph glyph-name="Ograve" unicode="&#xd2;" horiz-adv-x="710" 
d="M144 892q25 15 71.5 26.5t70.5 11.5q3 0 33 -31t64.5 -72t46.5 -62l-4 -8q-64 -8 -133 -8q-21 24 -58 60t-64 59zM349 -14q-64 0 -119.5 22t-100 64.5t-70 113.5t-25.5 162q0 93 25.5 164t71 114t103 64t124.5 21q139 0 228.5 -91t89.5 -272q0 -90 -27.5 -161t-74.5 -114
t-104 -65t-121 -22zM356 138q65 0 107 54.5t42 155.5q0 104 -41 157.5t-109 53.5q-69 0 -109.5 -53.5t-40.5 -157.5q0 -102 41 -156t110 -54z" />
    <glyph glyph-name="Oacute" unicode="&#xd3;" horiz-adv-x="710" 
d="M596 892l-148 -141q-47 -2 -91 -2l-63 2l-3 8q17 17 54 60.5l65.5 77t30.5 33.5q25 0 77.5 -12t77.5 -26zM349 -14q-64 0 -119.5 22t-100 64.5t-70 113.5t-25.5 162q0 93 25.5 164t71 114t103 64t124.5 21q139 0 228.5 -91t89.5 -272q0 -90 -27.5 -161t-74.5 -114
t-104 -65t-121 -22zM356 138q65 0 107 54.5t42 155.5q0 104 -41 157.5t-109 53.5q-69 0 -109.5 -53.5t-40.5 -157.5q0 -102 41 -156t110 -54z" />
    <glyph glyph-name="Ocircumflex" unicode="&#xd4;" horiz-adv-x="710" 
d="M431 919q3 0 28.5 -24.5t59 -64.5t52.5 -73l-5 -7q-68 -6 -136 -6q-12 22 -30 45.5t-30 36.5l-13 13l-80 -95l-126 6l-4 7l66.5 71.5l63 67.5t23.5 23q29 6 60 6zM349 -14q-64 0 -119.5 22t-100 64.5t-70 113.5t-25.5 162q0 93 25.5 164t71 114t103 64t124.5 21
q139 0 228.5 -91t89.5 -272q0 -90 -27.5 -161t-74.5 -114t-104 -65t-121 -22zM356 138q65 0 107 54.5t42 155.5q0 104 -41 157.5t-109 53.5q-69 0 -109.5 -53.5t-40.5 -157.5q0 -102 41 -156t110 -54z" />
    <glyph glyph-name="Otilde" unicode="&#xd5;" horiz-adv-x="710" 
d="M152 851q0 21 36.5 36t92.5 15q31 0 95.5 -8t84.5 -8q33 0 59 12.5t36 23.5q18 -48 18 -85q0 -21 -32 -39.5t-82 -18.5q-31 0 -97.5 9t-93.5 9q-54 0 -101 -27q-16 43 -16 81zM349 -14q-64 0 -119.5 22t-100 64.5t-70 113.5t-25.5 162q0 93 25.5 164t71 114t103 64
t124.5 21q139 0 228.5 -91t89.5 -272q0 -90 -27.5 -161t-74.5 -114t-104 -65t-121 -22zM356 138q65 0 107 54.5t42 155.5q0 104 -41 157.5t-109 53.5q-69 0 -109.5 -53.5t-40.5 -157.5q0 -102 41 -156t110 -54z" />
    <glyph glyph-name="Odieresis" unicode="&#xd6;" horiz-adv-x="710" 
d="M262 891q30 0 43.5 -12t13.5 -40q0 -37 -17 -51.5t-56 -14.5q-58 0 -58 57q0 61 74 61zM473 891q30 0 43.5 -12t13.5 -40q0 -37 -17 -51.5t-56 -14.5q-58 0 -58 57q0 61 74 61zM349 -14q-64 0 -119.5 22t-100 64.5t-70 113.5t-25.5 162q0 93 25.5 164t71 114t103 64
t124.5 21q139 0 228.5 -91t89.5 -272q0 -90 -27.5 -161t-74.5 -114t-104 -65t-121 -22zM356 138q65 0 107 54.5t42 155.5q0 104 -41 157.5t-109 53.5q-69 0 -109.5 -53.5t-40.5 -157.5q0 -102 41 -156t110 -54z" />
    <glyph glyph-name="multiply" unicode="&#xd7;" 
d="M550 422l-155 -155l155 -155l-90 -90l-155 155l-155 -154l-88 89l154 154l-155 155l90 91l155 -156l155 155z" />
    <glyph glyph-name="Oslash" unicode="&#xd8;" horiz-adv-x="710" 
d="M568 785l-47 -114q155 -86 155 -323q0 -90 -27.5 -161t-74.5 -114t-104 -65t-121 -22q-56 0 -104 16l-35 -85h-85l50 119q-141 93 -141 312q0 93 25.5 164t71 114t103 64t124.5 21q50 0 93 -12l36 86h81zM205 348q0 -95 37 -151l149 358q-16 4 -37 4q-68 0 -108.5 -53.5
t-40.5 -157.5zM355 138q66 0 108 54.5t42 155.5q0 112 -49 167l-151 -368q23 -9 50 -9z" />
    <glyph glyph-name="Ugrave" unicode="&#xd9;" horiz-adv-x="647" 
d="M106 892q25 15 71.5 26.5t70.5 11.5q3 0 33 -31t64.5 -72t46.5 -62l-4 -8q-64 -8 -133 -8q-21 24 -58 60t-64 59zM448 298v395q69 6 143 6q11 0 11 -4v-396q0 -159 -78.5 -236.5t-204.5 -77.5t-200 76.5t-74 236.5v395q82 6 155 6q12 0 12 -4v-397q0 -160 118 -160
t118 160z" />
    <glyph glyph-name="Uacute" unicode="&#xda;" horiz-adv-x="647" 
d="M559 892l-148 -141q-47 -2 -91 -2l-63 2l-3 8q17 17 54 60.5l65.5 77t30.5 33.5q25 0 77.5 -12t77.5 -26zM448 298v395q69 6 143 6q11 0 11 -4v-396q0 -159 -78.5 -236.5t-204.5 -77.5t-200 76.5t-74 236.5v395q82 6 155 6q12 0 12 -4v-397q0 -160 118 -160t118 160z" />
    <glyph glyph-name="Ucircumflex" unicode="&#xdb;" horiz-adv-x="647" 
d="M394 919q3 0 28.5 -24.5t59 -64.5t52.5 -73l-5 -7q-68 -6 -136 -6q-12 22 -30 45.5t-31 36.5l-12 13l-80 -95l-126 6l-4 7l66.5 71.5l63 67.5t23.5 23q29 6 60 6zM448 298v395q69 6 143 6q11 0 11 -4v-396q0 -159 -78.5 -236.5t-204.5 -77.5t-200 76.5t-74 236.5v395
q82 6 155 6q12 0 12 -4v-397q0 -160 118 -160t118 160z" />
    <glyph glyph-name="Udieresis" unicode="&#xdc;" horiz-adv-x="647" 
d="M224 891q30 0 43.5 -12t13.5 -40q0 -37 -17 -51.5t-56 -14.5q-58 0 -58 57q0 61 74 61zM435 891q30 0 43.5 -12t13.5 -40q0 -37 -17 -51.5t-56 -14.5q-58 0 -58 57q0 61 74 61zM448 298v395q69 6 143 6q11 0 11 -4v-396q0 -159 -78.5 -236.5t-204.5 -77.5t-200 76.5
t-74 236.5v395q82 6 155 6q12 0 12 -4v-397q0 -160 118 -160t118 160z" />
    <glyph glyph-name="Yacute" unicode="&#xdd;" horiz-adv-x="585" 
d="M294 749l-63 2l-3 8q17 17 54 60.5l65.5 77t30.5 33.5q25 0 77.5 -12t77.5 -26l-148 -141q-47 -2 -91 -2zM608 700l-237 -437v-263q-39 -3 -101 -3q-59 0 -59 7v265l-233 431q44 4 96 4l73 -4l147 -314l156 314q41 4 82 4z" />
    <glyph glyph-name="Thorn" unicode="&#xde;" horiz-adv-x="604" 
d="M217 126v-126h-12q-12 -1 -39 -2t-55 -1q-55 0 -55 7v696h161v-95h130q114 0 178.5 -61t64.5 -172q0 -112 -63 -179t-180 -67h-130zM217 251h125q95 0 95 113q0 108 -97 108h-123v-221z" />
    <glyph glyph-name="germandbls" unicode="&#xdf;" horiz-adv-x="650" 
d="M459 391q0 -20 18 -39t44 -36t52 -37.5t44 -51.5t18 -69q0 -78 -54 -126.5t-148 -48.5q-80 0 -122 30t-42 71q0 14 4.5 31.5t8.5 28t5 11.5l13.5 -16t39 -26t64.5 -16q76 0 76 52q0 20 -27 41t-59.5 38t-59.5 49.5t-27 74.5q0 46 43 107t43 103q0 34 -23.5 55t-61.5 21
q-91 0 -91 -78v-560q-70 -3 -108 -3l-52 3v595q0 78 64.5 122.5t199.5 44.5q108 0 171.5 -48t63.5 -115q0 -37 -15 -71t-33.5 -55t-33.5 -43.5t-15 -38.5z" />
    <glyph glyph-name="agrave" unicode="&#xe0;" horiz-adv-x="574" 
d="M219 574q-21 24 -58 60t-64 60l-27 23q25 15 71.5 26.5t70.5 11.5q3 0 33 -31t64.5 -72t46.5 -62l-4 -8q-64 -8 -133 -8zM284 528q120 0 180 -47.5t60 -120.5v-360q-54 -3 -109 -3q-51 0 -51 4l2 50q-64 -64 -164 -64q-83 0 -126 42t-43 103q0 75 60 115.5t167 40.5
q41 0 104 -9v40q0 45 -24.5 63.5t-85.5 18.5q-19 0 -36.5 -1.5t-31 -4t-27.5 -6.5t-22.5 -7t-20 -8.5t-16 -8l-14.5 -8t-11 -6.5q-23 41 -23 74q0 41 59 72t173 31zM192 145q0 -28 18.5 -43.5t48.5 -15.5q57 0 105 37v78q-44 6 -79 6q-93 0 -93 -62z" />
    <glyph glyph-name="aacute" unicode="&#xe1;" horiz-adv-x="574" 
d="M283 574l-63 2l-3 8q17 17 54 60.5l65.5 77t30.5 33.5q25 0 77.5 -12t77.5 -26l-148 -141q-47 -2 -91 -2zM284 528q120 0 180 -47.5t60 -120.5v-360q-54 -3 -109 -3q-51 0 -51 4l2 50q-64 -64 -164 -64q-83 0 -126 42t-43 103q0 75 60 115.5t167 40.5q41 0 104 -9v40
q0 45 -24.5 63.5t-85.5 18.5q-19 0 -36.5 -1.5t-31 -4t-27.5 -6.5t-22.5 -7t-20 -8.5t-16 -8l-14.5 -8t-11 -6.5q-23 41 -23 74q0 41 59 72t173 31zM192 145q0 -28 18.5 -43.5t48.5 -15.5q57 0 105 37v78q-44 6 -79 6q-93 0 -93 -62z" />
    <glyph glyph-name="acircumflex" unicode="&#xe2;" horiz-adv-x="574" 
d="M283 664l-80 -95l-126 6l-4 7l66.5 71.5l63 67.5t23.5 23q29 6 60 6l71 -6q3 0 28.5 -24.5t59 -64.5t52.5 -73l-5 -7q-68 -6 -136 -6q-12 22 -30.5 45.5t-30.5 36.5zM284 528q120 0 180 -47.5t60 -120.5v-360q-54 -3 -109 -3q-51 0 -51 4l2 50q-64 -64 -164 -64
q-83 0 -126 42t-43 103q0 75 60 115.5t167 40.5q41 0 104 -9v40q0 45 -24.5 63.5t-85.5 18.5q-19 0 -36.5 -1.5t-31 -4t-27.5 -6.5t-22.5 -7t-20 -8.5t-16 -8l-14.5 -8t-11 -6.5q-23 41 -23 74q0 41 59 72t173 31zM192 145q0 -28 18.5 -43.5t48.5 -15.5q57 0 105 37v78
q-44 6 -79 6q-93 0 -93 -62z" />
    <glyph glyph-name="atilde" unicode="&#xe3;" horiz-adv-x="574" 
d="M195 622q-54 0 -101 -27q-16 43 -16 81q0 21 36.5 36t92.5 15q31 0 95.5 -8t84.5 -8q33 0 59 12.5t36 23.5q18 -48 18 -85q0 -21 -32 -39.5t-82 -18.5q-31 0 -97.5 9t-93.5 9zM284 528q120 0 180 -47.5t60 -120.5v-360q-54 -3 -109 -3q-51 0 -51 4l2 50q-64 -64 -164 -64
q-83 0 -126 42t-43 103q0 75 60 115.5t167 40.5q41 0 104 -9v40q0 45 -24.5 63.5t-85.5 18.5q-19 0 -36.5 -1.5t-31 -4t-27.5 -6.5t-22.5 -7t-20 -8.5t-16 -8l-14.5 -8t-11 -6.5q-23 41 -23 74q0 41 59 72t173 31zM192 145q0 -28 18.5 -43.5t48.5 -15.5q57 0 105 37v78
q-44 6 -79 6q-93 0 -93 -62z" />
    <glyph glyph-name="adieresis" unicode="&#xe4;" horiz-adv-x="574" 
d="M172 598q-58 0 -58 57q0 61 74 61q30 0 43.5 -12t13.5 -40q0 -37 -17 -51.5t-56 -14.5zM383 598q-58 0 -58 57q0 61 74 61q30 0 43.5 -12t13.5 -40q0 -37 -17 -51.5t-56 -14.5zM284 528q120 0 180 -47.5t60 -120.5v-360q-54 -3 -109 -3q-51 0 -51 4l2 50
q-64 -64 -164 -64q-83 0 -126 42t-43 103q0 75 60 115.5t167 40.5q41 0 104 -9v40q0 45 -24.5 63.5t-85.5 18.5q-19 0 -36.5 -1.5t-31 -4t-27.5 -6.5t-22.5 -7t-20 -8.5t-16 -8l-14.5 -8t-11 -6.5q-23 41 -23 74q0 41 59 72t173 31zM192 145q0 -28 18.5 -43.5t48.5 -15.5
q57 0 105 37v78q-44 6 -79 6q-93 0 -93 -62z" />
    <glyph glyph-name="aring" unicode="&#xe5;" horiz-adv-x="574" 
d="M284 568q-46 0 -80.5 34t-34.5 81q0 46 34.5 80t80.5 34t80 -34t34 -80t-34 -80.5t-80 -34.5zM284 727q-19 0 -32 -13t-13 -31q0 -19 13 -32t32 -13q18 0 31 13t13 32q0 18 -13 31t-31 13zM284 528q120 0 180 -47.5t60 -120.5v-360q-54 -3 -109 -3q-51 0 -51 4l2 50
q-64 -64 -164 -64q-83 0 -126 42t-43 103q0 75 60 115.5t167 40.5q41 0 104 -9v40q0 45 -24.5 63.5t-85.5 18.5q-19 0 -36.5 -1.5t-31 -4t-27.5 -6.5t-22.5 -7t-20 -8.5t-16 -8l-14.5 -8t-11 -6.5q-23 41 -23 74q0 41 59 72t173 31zM192 145q0 -28 18.5 -43.5t48.5 -15.5
q57 0 105 37v78q-44 6 -79 6q-93 0 -93 -62z" />
    <glyph glyph-name="ae" unicode="&#xe6;" horiz-adv-x="870" 
d="M52 425q0 40 55 71.5t154 31.5q48 0 86 -10.5t58 -25.5t30 -29.5t11 -25.5q11 26 61.5 55.5t121.5 29.5q97 0 153.5 -49.5t56.5 -139.5q0 -21 -1.5 -44.5t-3.5 -36.5l-2 -12q-167 -11 -327 -15q7 -58 41.5 -89t84.5 -31q53 0 103.5 18t82.5 44q27 -32 27 -71
q0 -43 -68 -76.5t-158 -33.5q-121 0 -194 77q-84 -76 -209 -76q-91 0 -136.5 41.5t-45.5 103.5q0 75 60 115.5t167 40.5q44 0 95 -8v37q0 84 -101 84q-19 0 -36.5 -1.5t-31 -4t-27.5 -6.5t-22.5 -7t-20 -8.5t-16 -8l-14.5 -8t-11 -6.5q-23 41 -23 74zM616 410
q-44 0 -74.5 -28t-38.5 -81l182 6q3 16 3 32q0 34 -19 52.5t-53 18.5zM192 145q0 -28 19 -43.5t52 -15.5q53 0 113 47q-13 28 -19 68q-36 6 -72 6q-93 0 -93 -62z" />
    <glyph glyph-name="ccedilla" unicode="&#xe7;" horiz-adv-x="486" 
d="M472 86q0 -39 -53 -69t-127 -31q-10 -16 -10 -29q0 -9 18.5 -16t40 -12t40 -20t18.5 -37q0 -35 -37.5 -59t-96.5 -24q-57 0 -93 21t-36 50q0 11 9 22.5t19 17.5l9 5q1 -3 3.5 -7.5t11 -15.5t17.5 -20t23 -16t29 -7q39 0 39 23q0 10 -17.5 16t-35 18t-17.5 35q0 29 22 58
q-95 13 -158.5 81t-63.5 187q0 132 78.5 200.5t201.5 68.5q65 0 108 -18t43 -52q0 -30 -27 -88q-62 34 -111 34q-57 0 -92.5 -36.5t-35.5 -107.5q0 -69 36 -107.5t90 -38.5q37 0 71.5 17t53.5 36q30 -47 30 -79z" />
    <glyph glyph-name="egrave" unicode="&#xe8;" horiz-adv-x="543" 
d="M221 574q-21 24 -58 60t-64 60l-27 23q25 15 71.5 26.5t70.5 11.5q3 0 33 -31t64.5 -72t46.5 -62l-4 -8q-64 -8 -133 -8zM490 167q27 -32 27 -71q0 -43 -68 -76.5t-158 -33.5q-113 0 -189 69t-76 202q0 130 75 197.5t196 67.5q100 0 157.5 -49.5t57.5 -139.5
q0 -21 -2 -44.5t-4 -36.5l-1 -12q-160 -12 -324 -16q8 -58 44 -88.5t90 -30.5q46 0 95 18.5t80 43.5zM289 410q-40 0 -69 -28t-38 -82l176 7q3 16 3 32q0 34 -19 52.5t-53 18.5z" />
    <glyph glyph-name="eacute" unicode="&#xe9;" horiz-adv-x="543" 
d="M285 574l-63 2l-3 8q17 17 54 60.5l65.5 77t30.5 33.5q25 0 77.5 -12t77.5 -26l-148 -141q-47 -2 -91 -2zM315 105q46 0 95 18.5t80 43.5q27 -32 27 -71q0 -43 -68 -76.5t-158 -33.5q-113 0 -189 69t-76 202q0 130 75 197.5t196 67.5q100 0 157.5 -49.5t57.5 -139.5
q0 -21 -2 -44.5t-4 -36.5l-1 -12q-160 -12 -324 -16q8 -58 44 -88.5t90 -30.5zM289 410q-40 0 -69 -28t-38 -82l176 7q3 16 3 32q0 34 -19 52.5t-53 18.5z" />
    <glyph glyph-name="ecircumflex" unicode="&#xea;" horiz-adv-x="543" 
d="M285 664l-80 -95l-126 6l-4 7l66.5 71.5l63 67.5t23.5 23q29 6 60 6l71 -6q3 0 28.5 -24.5t59 -64.5t52.5 -73l-5 -7q-68 -6 -136 -6q-12 22 -30 45.5t-30 36.5zM490 167q27 -32 27 -71q0 -43 -68 -76.5t-158 -33.5q-113 0 -189 69t-76 202q0 130 75 197.5t196 67.5
q100 0 157.5 -49.5t57.5 -139.5q0 -21 -2 -44.5t-4 -36.5l-1 -12q-160 -12 -324 -16q8 -58 44 -88.5t90 -30.5q46 0 95 18.5t80 43.5zM289 410q-40 0 -69 -28t-38 -82l176 7q3 16 3 32q0 34 -19 52.5t-53 18.5z" />
    <glyph glyph-name="edieresis" unicode="&#xeb;" horiz-adv-x="543" 
d="M173 598q-58 0 -58 57q0 61 74 61q30 0 43.5 -12t13.5 -40q0 -37 -17 -51.5t-56 -14.5zM384 598q-58 0 -58 57q0 61 74 61q30 0 43.5 -12t13.5 -40q0 -37 -17 -51.5t-56 -14.5zM490 167q27 -32 27 -71q0 -43 -68 -76.5t-158 -33.5q-113 0 -189 69t-76 202q0 130 75 197.5
t196 67.5q100 0 157.5 -49.5t57.5 -139.5q0 -21 -2 -44.5t-4 -36.5l-1 -12q-160 -12 -324 -16q8 -58 44 -88.5t90 -30.5q46 0 95 18.5t80 43.5zM289 410q-40 0 -69 -28t-38 -82l176 7q3 16 3 32q0 34 -19 52.5t-53 18.5z" />
    <glyph glyph-name="igrave" unicode="&#xec;" horiz-adv-x="273" 
d="M-77 717q25 15 71.5 26.5t70.5 11.5q3 0 33 -31t64.5 -72t46.5 -62l-4 -8q-64 -8 -133 -8q-21 24 -58 60t-64 60zM56 0v509q42 14 97 14q63 0 63 -42v-481q-43 -4 -112 -4z" />
    <glyph glyph-name="iacute" unicode="&#xed;" horiz-adv-x="273" 
d="M375 717l-148 -141q-47 -2 -91 -2l-63 2l-3 8q17 17 54 60.5l65.5 77t30.5 33.5q25 0 77.5 -12t77.5 -26zM56 0v509q42 14 97 14q63 0 63 -42v-481q-43 -4 -112 -4z" />
    <glyph glyph-name="icircumflex" unicode="&#xee;" horiz-adv-x="273" 
d="M210 744q3 0 28.5 -24.5t59 -64.5t52.5 -73l-5 -7q-68 -6 -136 -6q-12 22 -30 45.5t-31 36.5l-12 13l-80 -95l-126 6l-4 7q151 162 153 162q29 6 60 6zM56 0v509q42 14 97 14q63 0 63 -42v-481q-43 -4 -112 -4z" />
    <glyph glyph-name="idieresis" unicode="&#xef;" horiz-adv-x="273" 
d="M41 716q30 0 43.5 -12t13.5 -40q0 -37 -17 -51.5t-56 -14.5q-58 0 -58 57q0 61 74 61zM252 716q30 0 43.5 -12t13.5 -40q0 -37 -17 -51.5t-56 -14.5q-58 0 -58 57q0 61 74 61zM56 0v509q42 14 97 14q63 0 63 -42v-481q-43 -4 -112 -4z" />
    <glyph glyph-name="eth" unicode="&#xf0;" horiz-adv-x="595" 
d="M440 780l-64 -62q84 -61 138.5 -166t54.5 -250q0 -142 -74 -229t-204 -87q-109 0 -187 69t-78 203q0 118 72 192t178 74q40 0 71 -14t41 -28l11 -14q-36 96 -115 162l-79 -77q-13 9 -25 22t-18 21l-5 9l67 65q-60 31 -118 31q0 4 11.5 23.5t34.5 40t48 20.5q50 0 113 -29
l79 76q12 -10 24 -23t18 -21zM297 107q45 0 76 39.5t31 114.5q0 72 -29.5 108.5t-74.5 36.5q-48 0 -78.5 -39t-30.5 -109q0 -72 30 -111.5t76 -39.5z" />
    <glyph glyph-name="ntilde" unicode="&#xf1;" horiz-adv-x="613" 
d="M109 676q0 21 36.5 36t92.5 15q31 0 95.5 -8t84.5 -8q33 0 59 12.5t36 23.5q18 -48 18 -85q0 -21 -32 -39.5t-82 -18.5q-31 0 -97.5 9t-93.5 9q-54 0 -101 -27q-16 43 -16 81zM405 526q72 0 113.5 -39t41.5 -103v-384q-55 -3 -123 -3l-40 3v326q0 73 -74 73
q-42 0 -70.5 -25t-28.5 -56v-318q-49 -3 -111 -3l-53 3v512q33 12 91 12q38 0 54 -12.5t16 -39.5v-32q20 33 68 59.5t116 26.5z" />
    <glyph glyph-name="ograve" unicode="&#xf2;" horiz-adv-x="595" 
d="M86 717q25 15 71.5 26.5t70.5 11.5q3 0 33 -31t64.5 -72t46.5 -62l-4 -8q-64 -8 -133 -8q-21 24 -58 60t-64 60zM306 526q50 0 95.5 -15t84 -45t61 -82.5t22.5 -120.5q0 -136 -78 -206.5t-200 -70.5q-109 0 -187 69t-78 203q0 129 79.5 198.5t200.5 69.5zM297 107
q45 0 76 39.5t31 114.5q0 73 -29.5 109t-75.5 36q-47 0 -77.5 -39t-30.5 -109q0 -72 30 -111.5t76 -39.5z" />
    <glyph glyph-name="oacute" unicode="&#xf3;" horiz-adv-x="595" 
d="M538 717l-148 -141q-47 -2 -91 -2l-63 2l-3 8q17 17 54 60.5l65.5 77t30.5 33.5q25 0 77.5 -12t77.5 -26zM306 526q50 0 95.5 -15t84 -45t61 -82.5t22.5 -120.5q0 -136 -78 -206.5t-200 -70.5q-109 0 -187 69t-78 203q0 129 79.5 198.5t200.5 69.5zM297 107q45 0 76 39.5
t31 114.5q0 73 -29.5 109t-75.5 36q-47 0 -77.5 -39t-30.5 -109q0 -72 30 -111.5t76 -39.5z" />
    <glyph glyph-name="ocircumflex" unicode="&#xf4;" horiz-adv-x="595" 
d="M373 744q3 0 28.5 -24.5t59 -64.5t52.5 -73l-5 -7q-68 -6 -136 -6q-12 22 -30 45.5t-30 36.5l-13 13l-80 -95l-126 6l-4 7l66.5 71.5l63 67.5t23.5 23q29 6 60 6zM306 526q50 0 95.5 -15t84 -45t61 -82.5t22.5 -120.5q0 -136 -78 -206.5t-200 -70.5q-109 0 -187 69
t-78 203q0 129 79.5 198.5t200.5 69.5zM297 107q45 0 76 39.5t31 114.5q0 73 -29.5 109t-75.5 36q-47 0 -77.5 -39t-30.5 -109q0 -72 30 -111.5t76 -39.5z" />
    <glyph glyph-name="otilde" unicode="&#xf5;" horiz-adv-x="595" 
d="M94 676q0 21 36.5 36t92.5 15q31 0 95.5 -8t84.5 -8q33 0 59 12.5t36 23.5q18 -48 18 -85q0 -21 -32 -39.5t-82 -18.5q-31 0 -97.5 9t-93.5 9q-54 0 -101 -27q-16 43 -16 81zM306 526q50 0 95.5 -15t84 -45t61 -82.5t22.5 -120.5q0 -136 -78 -206.5t-200 -70.5
q-109 0 -187 69t-78 203q0 129 79.5 198.5t200.5 69.5zM297 107q45 0 76 39.5t31 114.5q0 73 -29.5 109t-75.5 36q-47 0 -77.5 -39t-30.5 -109q0 -72 30 -111.5t76 -39.5z" />
    <glyph glyph-name="odieresis" unicode="&#xf6;" horiz-adv-x="595" 
d="M204 716q30 0 43.5 -12t13.5 -40q0 -37 -17 -51.5t-56 -14.5q-58 0 -58 57q0 61 74 61zM415 716q30 0 43.5 -12t13.5 -40q0 -37 -17 -51.5t-56 -14.5q-58 0 -58 57q0 61 74 61zM306 526q50 0 95.5 -15t84 -45t61 -82.5t22.5 -120.5q0 -136 -78 -206.5t-200 -70.5
q-109 0 -187 69t-78 203q0 129 79.5 198.5t200.5 69.5zM297 107q45 0 76 39.5t31 114.5q0 73 -29.5 109t-75.5 36q-47 0 -77.5 -39t-30.5 -109q0 -72 30 -111.5t76 -39.5z" />
    <glyph glyph-name="divide" unicode="&#xf7;" 
d="M307 396q-31 0 -52.5 21.5t-21.5 52.5t21.5 52.5t52.5 21.5t52.5 -21.5t21.5 -52.5t-21.5 -52.5t-52.5 -21.5zM63 325h486v-106h-486v106zM233 79q0 31 21.5 52.5t52.5 21.5t52.5 -21.5t21.5 -52.5t-21.5 -52.5t-52.5 -21.5t-52.5 21.5t-21.5 52.5z" />
    <glyph glyph-name="oslash" unicode="&#xf8;" horiz-adv-x="595" 
d="M484 615l-52 -115q137 -64 137 -237q0 -136 -78 -206.5t-200 -70.5q-48 0 -88 13l-38 -84h-58l47 104q-58 31 -93 91.5t-35 147.5q0 129 79.5 198.5t200.5 69.5q38 0 76 -9l45 98h57zM191 258q0 -62 25 -104l113 248q-12 4 -29 4q-48 0 -78.5 -39t-30.5 -109zM297 107
q45 0 76 39.5t31 114.5q0 72 -31 111l-116 -256q18 -9 40 -9z" />
    <glyph glyph-name="ugrave" unicode="&#xf9;" horiz-adv-x="592" 
d="M82 717q25 15 71.5 26.5t70.5 11.5q3 0 33 -31t64.5 -72t46.5 -62l-4 -8q-64 -8 -133 -8q-21 24 -58 60t-64 60zM208 -13q-76 0 -117.5 41t-41.5 109v371q86 5 150 5q10 0 10 -5v-319q0 -75 72 -75q33 0 60 17t38 33v344q103 5 151 5q9 0 9 -5v-508q-38 -3 -105 -3l-53 3
l5 73q-8 -11 -21 -23.5t-35 -28t-54 -25t-68 -9.5z" />
    <glyph glyph-name="uacute" unicode="&#xfa;" horiz-adv-x="592" 
d="M534 717l-148 -141q-47 -2 -91 -2l-63 2l-3 8q17 17 54 60.5l65.5 77t30.5 33.5q25 0 77.5 -12t77.5 -26zM208 -13q-76 0 -117.5 41t-41.5 109v371q86 5 150 5q10 0 10 -5v-319q0 -75 72 -75q33 0 60 17t38 33v344q103 5 151 5q9 0 9 -5v-508q-38 -3 -105 -3l-53 3l5 73
q-8 -11 -21 -23.5t-35 -28t-54 -25t-68 -9.5z" />
    <glyph glyph-name="ucircumflex" unicode="&#xfb;" horiz-adv-x="592" 
d="M370 744q3 0 28.5 -24.5t59 -64.5t52.5 -73l-5 -7q-68 -6 -136 -6q-12 22 -30.5 45.5t-30.5 36.5l-12 13l-80 -95l-126 6l-4 7l66.5 71.5l63 67.5t23.5 23q29 6 60 6zM208 -13q-76 0 -117.5 41t-41.5 109v371q86 5 150 5q10 0 10 -5v-319q0 -75 72 -75q33 0 60 17t38 33
v344q103 5 151 5q9 0 9 -5v-508q-38 -3 -105 -3l-53 3l5 73q-8 -11 -21 -23.5t-35 -28t-54 -25t-68 -9.5z" />
    <glyph glyph-name="udieresis" unicode="&#xfc;" horiz-adv-x="592" 
d="M200 716q30 0 43.5 -12t13.5 -40q0 -37 -17 -51.5t-56 -14.5q-58 0 -58 57q0 61 74 61zM411 716q30 0 43.5 -12t13.5 -40q0 -37 -17 -51.5t-56 -14.5q-58 0 -58 57q0 61 74 61zM208 -13q-76 0 -117.5 41t-41.5 109v371q86 5 150 5q10 0 10 -5v-319q0 -75 72 -75
q33 0 60 17t38 33v344q103 5 151 5q9 0 9 -5v-508q-38 -3 -105 -3l-53 3l5 73q-8 -11 -21 -23.5t-35 -28t-54 -25t-68 -9.5z" />
    <glyph glyph-name="yacute" unicode="&#xfd;" horiz-adv-x="545" 
d="M508 717l-148 -141q-47 -2 -91 -2l-63 2l-3 8q17 17 54 60.5l65.5 77t30.5 33.5q25 0 77.5 -12t77.5 -26zM149 514q11 0 13 -5l120 -367l100 366q2 5 120 5q17 0 30 -1.5t18 -2.5l4 -1l-199 -518q-44 -120 -105.5 -180.5t-148.5 -60.5q-57 0 -91 22.5t-34 56.5
q0 20 5.5 40t10.5 30l6 9q39 -30 85 -30q35 0 63.5 28.5t44.5 77.5l-198 523q81 8 156 8z" />
    <glyph glyph-name="thorn" unicode="&#xfe;" horiz-adv-x="613" 
d="M150 753q69 0 69 -46v-260q21 33 62 56t94 23q89 0 150.5 -66.5t61.5 -193.5q0 -132 -65.5 -204.5t-155.5 -72.5q-53 0 -96 28t-57 55v-263q-50 -3 -108 -3l-47 3v933q48 11 92 11zM219 318v-148q9 -16 37 -36.5t58 -20.5q48 0 77.5 37.5t29.5 111.5q0 71 -29 104t-74 33
q-41 0 -70 -27t-29 -54z" />
    <glyph glyph-name="ydieresis" unicode="&#xff;" horiz-adv-x="545" 
d="M174 716q30 0 43.5 -12t13.5 -40q0 -37 -17 -51.5t-56 -14.5q-58 0 -58 57q0 61 74 61zM385 716q30 0 43.5 -12t13.5 -40q0 -37 -17 -51.5t-56 -14.5q-58 0 -58 57q0 61 74 61zM149 514q11 0 13 -5l120 -367l100 366q2 5 120 5q17 0 30 -1.5t18 -2.5l4 -1l-199 -518
q-44 -120 -105.5 -180.5t-148.5 -60.5q-57 0 -91 22.5t-34 56.5q0 20 5.5 40t10.5 30l6 9q39 -30 85 -30q35 0 63.5 28.5t44.5 77.5l-198 523q81 8 156 8z" />
    <glyph glyph-name="Amacron" unicode="&#x100;" horiz-adv-x="638" 
d="M166 871h325l-4 -97h-325zM438 689l212 -689q-46 -3 -111 -3q-62 0 -65 3l-48 164h-240l-49 -164q-42 -3 -101 -3l-51 3l221 691q57 15 144 15q84 0 88 -17zM219 277h174l-81 278q-1 4 -5.5 3.5t-5.5 -4.5z" />
    <glyph glyph-name="amacron" unicode="&#x101;" horiz-adv-x="574" 
d="M128 696h325l-4 -97h-325zM284 528q120 0 180 -47.5t60 -120.5v-360q-54 -3 -109 -3q-51 0 -51 4l2 50q-64 -64 -164 -64q-83 0 -126 42t-43 103q0 75 60 115.5t167 40.5q41 0 104 -9v40q0 45 -24.5 63.5t-85.5 18.5q-19 0 -36.5 -1.5t-31 -4t-27.5 -6.5t-22.5 -7
t-20 -8.5t-16 -8l-14.5 -8t-11 -6.5q-23 41 -23 74q0 41 59 72t173 31zM192 145q0 -28 18.5 -43.5t48.5 -15.5q57 0 105 37v78q-44 6 -79 6q-93 0 -93 -62z" />
    <glyph glyph-name="Abreve" unicode="&#x102;" horiz-adv-x="638" 
d="M322 749q-89 0 -136.5 43t-47.5 118q1 1 17 4t46.5 6t58.5 3q0 -98 64 -98q34 0 52.5 26.5t18.5 71.5q109 0 127 -13q0 -71 -55.5 -116t-144.5 -45zM438 689l212 -689q-46 -3 -111 -3q-62 0 -65 3l-48 164h-240l-49 -164q-42 -3 -101 -3l-51 3l221 691q57 15 144 15
q84 0 88 -17zM219 277h174l-81 278q-1 4 -5.5 3.5t-5.5 -4.5z" />
    <glyph glyph-name="abreve" unicode="&#x103;" horiz-adv-x="574" 
d="M284 574q-89 0 -136.5 43t-47.5 118q1 1 17 4t46.5 6t58.5 3q0 -98 64 -98q34 0 52.5 26.5t18.5 71.5q109 0 127 -13q0 -71 -55.5 -116t-144.5 -45zM284 528q120 0 180 -47.5t60 -120.5v-360q-54 -3 -109 -3q-51 0 -51 4l2 50q-64 -64 -164 -64q-83 0 -126 42t-43 103
q0 75 60 115.5t167 40.5q41 0 104 -9v40q0 45 -24.5 63.5t-85.5 18.5q-19 0 -36.5 -1.5t-31 -4t-27.5 -6.5t-22.5 -7t-20 -8.5t-16 -8l-14.5 -8t-11 -6.5q-23 41 -23 74q0 41 59 72t173 31zM192 145q0 -28 18.5 -43.5t48.5 -15.5q57 0 105 37v78q-44 6 -79 6q-93 0 -93 -62z
" />
    <glyph glyph-name="Aogonek" unicode="&#x104;" horiz-adv-x="638" 
d="M668 -95q18 -13 18 -36q0 -31 -34.5 -55.5t-87.5 -24.5q-105 0 -105 73q0 30 27.5 53.5t64 44t47.5 38.5q-17 -1 -59 -1q-62 0 -65 3l-48 164h-240l-49 -164q-42 -3 -101 -3l-51 3l221 691q57 15 144 15q84 0 88 -17l212 -689q-13 -25 -56.5 -61t-43.5 -52q0 -27 37 -27
q22 0 42.5 11.5t29.5 22.5zM219 277h174l-81 278q-1 4 -5.5 3.5t-5.5 -4.5z" />
    <glyph glyph-name="aogonek" unicode="&#x105;" horiz-adv-x="574" 
d="M542 -95q18 -13 18 -36q0 -31 -34.5 -55.5t-87.5 -24.5q-105 0 -105 73q0 30 27.5 53.5t64 44t47.5 38.5q-17 -1 -57 -1q-51 0 -51 4l2 50q-64 -64 -164 -64q-83 0 -126 42t-43 103q0 75 60 115.5t167 40.5q41 0 104 -9v40q0 45 -24.5 63.5t-85.5 18.5q-19 0 -36.5 -1.5
t-31 -4t-27.5 -6.5t-22.5 -7t-20 -8.5t-16 -8l-14.5 -8t-11 -6.5q-23 41 -23 74q0 41 59 72t173 31q120 0 180 -47.5t60 -120.5v-360q-13 -25 -56.5 -61t-43.5 -52q0 -27 37 -27q22 0 42.5 11.5t29.5 22.5zM192 145q0 -28 18.5 -43.5t48.5 -15.5q57 0 105 37v78q-44 6 -79 6
q-93 0 -93 -62z" />
    <glyph glyph-name="Cacute" unicode="&#x106;" horiz-adv-x="593" 
d="M587 892l-148 -141q-47 -2 -91 -2l-63 2l-3 8q17 17 54 60.5l65.5 77t30.5 33.5q25 0 77.5 -12t77.5 -26zM205 351q0 -102 51.5 -157t132.5 -55q93 0 156 69q35 -62 35 -97q0 -51 -66.5 -88t-156.5 -37q-139 0 -231 94.5t-92 269.5t94 268t245 93q84 0 142.5 -31
t58.5 -70q0 -35 -36 -103q-65 51 -150 51q-84 0 -133.5 -54.5t-49.5 -152.5z" />
    <glyph glyph-name="cacute" unicode="&#x107;" horiz-adv-x="486" 
d="M511 717l-148 -141q-47 -2 -91 -2l-63 2l-3 8q17 17 54 60.5l65.5 77t30.5 33.5q25 0 77.5 -12t77.5 -26zM430 368q-62 34 -111 34q-57 0 -92.5 -36.5t-35.5 -107.5q0 -69 36 -107.5t90 -38.5q37 0 71.5 17t53.5 36q30 -47 30 -79q0 -39 -54 -69.5t-128 -30.5
q-109 0 -186.5 69t-77.5 202q0 132 78.5 200.5t201.5 68.5q65 0 108 -18t43 -52q0 -30 -27 -88z" />
    <glyph glyph-name="Cdotaccent" unicode="&#x10a;" horiz-adv-x="593" 
d="M357 901q60 0 60 -54q0 -37 -18 -52.5t-56 -15.5q-60 0 -60 59q0 63 74 63zM205 351q0 -102 51.5 -157t132.5 -55q93 0 156 69q35 -62 35 -97q0 -51 -66.5 -88t-156.5 -37q-139 0 -231 94.5t-92 269.5t94 268t245 93q84 0 142.5 -31t58.5 -70q0 -35 -36 -103
q-65 51 -150 51q-84 0 -133.5 -54.5t-49.5 -152.5z" />
    <glyph glyph-name="cdotaccent" unicode="&#x10b;" horiz-adv-x="486" 
d="M282 726q60 0 60 -54q0 -37 -18 -52.5t-56 -15.5q-60 0 -60 59q0 63 74 63zM430 368q-62 34 -111 34q-57 0 -92.5 -36.5t-35.5 -107.5q0 -69 36 -107.5t90 -38.5q37 0 71.5 17t53.5 36q30 -47 30 -79q0 -39 -54 -69.5t-128 -30.5q-109 0 -186.5 69t-77.5 202
q0 132 78.5 200.5t201.5 68.5q65 0 108 -18t43 -52q0 -30 -27 -88z" />
    <glyph glyph-name="Ccaron" unicode="&#x10c;" horiz-adv-x="593" 
d="M281 750q-3 0 -28.5 24.5t-59 64.5t-52.5 73l5 7q68 6 136 6q12 -22 30.5 -45.5t31.5 -36.5l12 -13l79 95l126 -6l4 -7q-151 -162 -153 -162q-29 -6 -60 -6q-17 0 -34.5 1.5t-27 2.5t-9.5 2zM205 351q0 -102 51.5 -157t132.5 -55q93 0 156 69q35 -62 35 -97
q0 -51 -66.5 -88t-156.5 -37q-139 0 -231 94.5t-92 269.5t94 268t245 93q84 0 142.5 -31t58.5 -70q0 -35 -36 -103q-65 51 -150 51q-84 0 -133.5 -54.5t-49.5 -152.5z" />
    <glyph glyph-name="ccaron" unicode="&#x10d;" horiz-adv-x="486" 
d="M205 575q-3 0 -28.5 24.5t-59 64.5t-52.5 73l5 7q68 6 136 6q12 -22 30.5 -45.5t31.5 -36.5l12 -13l79 95l126 -6l4 -7q-151 -162 -153 -162q-29 -6 -60 -6q-17 0 -34.5 1.5t-27 2.5t-9.5 2zM430 368q-62 34 -111 34q-57 0 -92.5 -36.5t-35.5 -107.5q0 -69 36 -107.5
t90 -38.5q37 0 71.5 17t53.5 36q30 -47 30 -79q0 -39 -54 -69.5t-128 -30.5q-109 0 -186.5 69t-77.5 202q0 132 78.5 200.5t201.5 68.5q65 0 108 -18t43 -52q0 -30 -27 -88z" />
    <glyph glyph-name="Dcaron" unicode="&#x10e;" horiz-adv-x="671" 
d="M252 750q-3 0 -28.5 24.5t-59 64.5t-52.5 73l5 7q68 6 136 6q12 -22 30.5 -45.5t30.5 -36.5l13 -13l79 95l126 -6l4 -7q-151 -162 -153 -162q-29 -6 -60 -6q-17 0 -34.5 1.5t-27 2.5t-9.5 2zM56 0v686q0 14 19 14h249q142 0 227.5 -86.5t85.5 -269.5q0 -168 -93 -256
t-230 -88h-258zM216 140h99q72 0 113 51t41 151q0 218 -155 218h-98v-420z" />
    <glyph glyph-name="dcaron" unicode="&#x10f;" horiz-adv-x="759" 
d="M823 744l4 -7q-121 -162 -128 -162q-29 -6 -60 -6q-60 0 -60 6l118 175zM545 749q11 0 11 -6v-743q-52 -3 -111 -3l-50 3l3 69q-59 -83 -159 -83q-91 0 -152 68t-61 198q0 133 75.5 203.5t184.5 70.5q48 0 109 -21v230q74 14 150 14zM301 112q50 0 94 42v232
q-49 15 -83 15q-54 0 -87.5 -38.5t-33.5 -106.5t31 -106t79 -38z" />
    <glyph glyph-name="Dcroat" unicode="&#x110;" horiz-adv-x="670" 
d="M75 700h249q142 0 227.5 -86.5t85.5 -269.5q0 -168 -93 -256t-230 -88h-258v295h-85v106h85v285q0 14 19 14zM216 140h99q72 0 113 51t41 151q0 218 -155 218h-98v-159h108v-106h-108v-155z" />
    <glyph glyph-name="dcroat" unicode="&#x111;" 
d="M556 669h79l-4 -84h-75v-585q-52 -3 -111 -3l-50 3l3 69q-59 -83 -159 -83q-91 0 -152 68t-61 198q0 133 75.5 203.5t184.5 70.5q48 0 109 -21v80h-91l4 84h87v66q74 14 150 14q11 0 11 -6v-74zM301 112q50 0 94 42v232q-49 15 -83 15q-54 0 -87.5 -38.5t-33.5 -106.5
t31 -106t79 -38z" />
    <glyph glyph-name="Emacron" unicode="&#x112;" horiz-adv-x="526" 
d="M119 871h325l-4 -97h-325zM216 137h282q2 -22 2 -54q0 -83 -17 -83h-427v700h439q2 -25 2 -56q0 -81 -17 -81h-264v-152h236q0 -44 -4.5 -80.5t-10.5 -36.5h-221v-157z" />
    <glyph glyph-name="emacron" unicode="&#x113;" horiz-adv-x="543" 
d="M129 696h325l-4 -97h-325zM490 167q27 -32 27 -71q0 -43 -68 -76.5t-158 -33.5q-113 0 -189 69t-76 202q0 130 75 197.5t196 67.5q100 0 157.5 -49.5t57.5 -139.5q0 -21 -2 -44.5t-4 -36.5l-1 -12q-160 -12 -324 -16q8 -58 44 -88.5t90 -30.5q46 0 95 18.5t80 43.5z
M289 410q-40 0 -69 -28t-38 -82l176 7q3 16 3 32q0 34 -19 52.5t-53 18.5z" />
    <glyph glyph-name="Edotaccent" unicode="&#x116;" horiz-adv-x="526" 
d="M284 901q60 0 60 -54q0 -37 -18 -52.5t-56 -15.5q-60 0 -60 59q0 63 74 63zM216 137h282q2 -22 2 -54q0 -83 -17 -83h-427v700h439q2 -25 2 -56q0 -81 -17 -81h-264v-152h236q0 -44 -4.5 -80.5t-10.5 -36.5h-221v-157z" />
    <glyph glyph-name="edotaccent" unicode="&#x117;" horiz-adv-x="543" 
d="M280 604q-60 0 -60 59q0 63 74 63q60 0 60 -54q0 -37 -18 -52.5t-56 -15.5zM490 167q27 -32 27 -71q0 -43 -68 -76.5t-158 -33.5q-113 0 -189 69t-76 202q0 130 75 197.5t196 67.5q100 0 157.5 -49.5t57.5 -139.5q0 -21 -2 -44.5t-4 -36.5l-1 -12q-160 -12 -324 -16
q8 -58 44 -88.5t90 -30.5q46 0 95 18.5t80 43.5zM289 410q-40 0 -69 -28t-38 -82l176 7q3 16 3 32q0 34 -19 52.5t-53 18.5z" />
    <glyph glyph-name="Eogonek" unicode="&#x118;" horiz-adv-x="526" 
d="M499 -95q18 -13 18 -36q0 -31 -34.5 -55.5t-87.5 -24.5q-105 0 -105 73q0 24 18 44.5t41 32.5t47.5 29t33.5 32h-374v700h439q2 -25 2 -56q0 -81 -17 -81h-264v-152h236q0 -44 -4.5 -80.5t-10.5 -36.5h-221v-157h282q2 -22 2 -54q0 -83 -17 -83h-2q-13 -25 -56.5 -61
t-43.5 -52q0 -27 37 -27q22 0 42.5 11.5t29.5 22.5z" />
    <glyph glyph-name="eogonek" unicode="&#x119;" horiz-adv-x="543" 
d="M504 62q-15 -27 -59.5 -62.5l-79.5 -64.5t-35 -48q0 -27 37 -27q22 0 42.5 11.5t30.5 22.5l9 11q17 -13 17 -36q0 -31 -34.5 -55.5t-86.5 -24.5q-106 0 -106 73q0 16 7.5 31t16.5 25t28 23t31 20t36.5 20l34.5 18q-50 -13 -102 -13q-113 0 -189 69t-76 202
q0 130 75 197.5t196 67.5q100 0 157.5 -49.5t57.5 -139.5q0 -21 -2 -44.5t-4 -36.5l-1 -12q-160 -12 -324 -16q8 -58 44 -88.5t90 -30.5q46 0 95 18.5t80 43.5q27 -32 27 -71q0 -16 -13 -34zM289 410q-40 0 -69 -28t-38 -82l176 7q3 16 3 32q0 34 -19 52.5t-53 18.5z" />
    <glyph glyph-name="Ecaron" unicode="&#x11a;" horiz-adv-x="526" 
d="M208 750q-3 0 -28.5 24.5t-59 64.5t-52.5 73l5 7q68 6 136 6q12 -22 30.5 -45.5t30.5 -36.5l13 -13l79 95l126 -6l4 -7q-151 -162 -153 -162q-29 -6 -60 -6q-17 0 -34.5 1.5t-27 2.5t-9.5 2zM216 137h282q2 -22 2 -54q0 -83 -17 -83h-427v700h439q2 -25 2 -56
q0 -81 -17 -81h-264v-152h236q0 -44 -4.5 -80.5t-10.5 -36.5h-221v-157z" />
    <glyph glyph-name="ecaron" unicode="&#x11b;" horiz-adv-x="543" 
d="M218 575q-3 0 -28.5 24.5t-59 64.5t-52.5 73l5 7q68 6 136 6q12 -22 30.5 -45.5t30.5 -36.5l13 -13l79 95l126 -6l4 -7q-151 -162 -153 -162q-29 -6 -60 -6q-17 0 -34.5 1.5t-27 2.5t-9.5 2zM490 167q27 -32 27 -71q0 -43 -68 -76.5t-158 -33.5q-113 0 -189 69t-76 202
q0 130 75 197.5t196 67.5q100 0 157.5 -49.5t57.5 -139.5q0 -21 -2 -44.5t-4 -36.5l-1 -12q-160 -12 -324 -16q8 -58 44 -88.5t90 -30.5q46 0 95 18.5t80 43.5zM289 410q-40 0 -69 -28t-38 -82l176 7q3 16 3 32q0 34 -19 52.5t-53 18.5z" />
    <glyph glyph-name="Gbreve" unicode="&#x11e;" horiz-adv-x="673" 
d="M291 923q0 -98 64 -98q34 0 52.5 26.5t18.5 71.5q109 0 127 -13q0 -71 -55.5 -116t-144.5 -45t-136.5 43t-47.5 118q1 1 17 4t46.5 6t58.5 3zM601 627q0 -32 -7.5 -60t-14.5 -40l-7 -12q-81 48 -178 48q-88 0 -138 -54.5t-50 -161.5q0 -106 45.5 -164t123.5 -58
q49 0 78 14t29 32v96h-130q0 25 3 51t6 40l3 14l253 1v-252q0 -52 -73 -94t-190 -42q-147 0 -233.5 92t-86.5 269q0 179 96.5 274t245.5 95q100 0 162.5 -25.5t62.5 -62.5z" />
    <glyph glyph-name="gbreve" unicode="&#x11f;" horiz-adv-x="585" 
d="M277 574q-89 0 -136.5 43t-47.5 118q1 1 17 4t46.5 6t58.5 3q0 -98 64 -98q34 0 52.5 26.5t18.5 71.5q109 0 127 -13q0 -71 -55.5 -116t-144.5 -45zM262 104l86 -2q226 -3 226 -136q0 -76 -81.5 -128.5t-220.5 -52.5q-120 0 -186.5 33t-66.5 97q0 81 122 110
q-14 13 -14 42q0 51 63 114q-71 15 -112.5 57t-41.5 111q0 86 65.5 131.5t185.5 45.5q75 0 130 -20q30 24 75 42t75 20q16 -66 17 -120q-36 -3 -79 -16q18 -34 18 -81q0 -85 -64.5 -130t-173.5 -48q-23 -37 -23 -69zM280 426q-44 0 -70 -21t-26 -62q0 -40 25.5 -61.5
t67.5 -21.5q43 0 70 21t27 63q0 41 -25 61.5t-69 20.5zM285 -121q57 0 89.5 17t32.5 49q0 29 -25 42.5t-77 15.5l-79 5q-47 -31 -47 -75q0 -54 106 -54z" />
    <glyph glyph-name="Gdotaccent" unicode="&#x120;" horiz-adv-x="673" 
d="M361 901q60 0 60 -54q0 -37 -18 -52.5t-56 -15.5q-60 0 -60 59q0 63 74 63zM601 627q0 -32 -7.5 -60t-14.5 -40l-7 -12q-81 48 -178 48q-88 0 -138 -54.5t-50 -161.5q0 -106 45.5 -164t123.5 -58q49 0 78 14t29 32v96h-130q0 25 3 51t6 40l3 14l253 1v-252q0 -52 -73 -94
t-190 -42q-147 0 -233.5 92t-86.5 269q0 179 96.5 274t245.5 95q100 0 162.5 -25.5t62.5 -62.5z" />
    <glyph glyph-name="gdotaccent" unicode="&#x121;" horiz-adv-x="585" 
d="M271 604q-60 0 -60 59q0 63 74 63q60 0 60 -54q0 -37 -18 -52.5t-56 -15.5zM262 104l86 -2q226 -3 226 -136q0 -76 -81.5 -128.5t-220.5 -52.5q-120 0 -186.5 33t-66.5 97q0 81 122 110q-14 13 -14 42q0 51 63 114q-71 15 -112.5 57t-41.5 111q0 86 65.5 131.5
t185.5 45.5q75 0 130 -20q30 24 75 42t75 20q16 -66 17 -120q-36 -3 -79 -16q18 -34 18 -81q0 -85 -64.5 -130t-173.5 -48q-23 -37 -23 -69zM280 426q-44 0 -70 -21t-26 -62q0 -40 25.5 -61.5t67.5 -21.5q43 0 70 21t27 63q0 41 -25 61.5t-69 20.5zM285 -121q57 0 89.5 17
t32.5 49q0 29 -25 42.5t-77 15.5l-79 5q-47 -31 -47 -75q0 -54 106 -54z" />
    <glyph glyph-name="Gcommaaccent" unicode="&#x122;" horiz-adv-x="673" 
d="M601 627q0 -32 -7.5 -60t-14.5 -40l-7 -12q-81 48 -178 48q-88 0 -138 -54.5t-50 -161.5q0 -106 45.5 -164t123.5 -58q49 0 78 14t29 32v96h-130q0 25 3 51t6 40l3 14l253 1v-252q0 -52 -73 -94t-190 -42q-147 0 -233.5 92t-86.5 269q0 179 96.5 274t245.5 95
q100 0 162.5 -25.5t62.5 -62.5zM436 -54q11 -22 11 -58q0 -48 -38 -68t-119 -21l-8 43q77 0 77 27l-1 7h-77q-8 44 -8 70q28 6 70 6q25 0 48.5 -1.5t34.5 -2.5z" />
    <glyph glyph-name="gcommaaccent" unicode="&#x123;" horiz-adv-x="585" 
d="M314 594q-25 0 -48 1.5t-34 2.5l-10 2q-11 21 -11 57q0 48 36 67.5t120 21.5l9 -43q-77 0 -77 -27l1 -7h77q8 -42 7 -69q-27 -6 -70 -6zM263 104l86 -2q226 -3 226 -136q0 -76 -81.5 -128.5t-220.5 -52.5q-121 0 -187.5 33t-66.5 97q0 81 122 110q-14 13 -14 42
q0 51 63 114q-71 15 -112.5 57t-41.5 111q0 86 65 131.5t185 45.5q76 0 130 -21q31 24 76.5 42.5t75.5 20.5q16 -66 17 -120q-39 -3 -81 -17q18 -33 18 -80q0 -85 -64 -130t-173 -48q-22 -36 -22 -69zM280 426q-44 0 -70 -21t-26 -62q0 -40 25.5 -61.5t67.5 -21.5
q43 0 70 21t27 63q0 41 -25 61.5t-69 20.5zM285 -121q58 0 90.5 17t32.5 49q0 29 -25.5 42.5t-77.5 15.5l-79 5q-47 -32 -47 -75q0 -54 106 -54z" />
    <glyph glyph-name="Hbar" unicode="&#x126;" horiz-adv-x="679" 
d="M679 591v-87h-56v-504q-42 -3 -105 -3q-55 0 -55 6v273h-246v-276q-42 -3 -105 -3q-56 0 -56 5v502h-55v87h55v109q57 9 101 9q39 0 49.5 -5.5t10.5 -28.5v-84h246v109q56 9 100 9q39 0 49.5 -5.5t10.5 -28.5v-84h56zM463 409v95h-246v-95h246z" />
    <glyph glyph-name="hbar" unicode="&#x127;" horiz-adv-x="602" 
d="M389 526q75 0 117.5 -40.5t42.5 -101.5v-384l-107 -3q-22 1 -56 3v326q0 73 -73 73q-44 0 -72 -25t-28 -56v-318l-103 -3q-29 1 -61 3v575h-76l4 84h72v84q44 10 91 10q38 0 54 -13.5t16 -41.5v-39h94l-4 -84h-90v-134q21 35 66 60t113 25z" />
    <glyph glyph-name="Imacron" unicode="&#x12a;" horiz-adv-x="379" 
d="M34 871h325l-4 -97h-325zM267 93h80q1 -18 1 -41q0 -52 -19 -52h-293q-4 19 -4 43q0 50 14 50h61v514h-74q-2 25 -2 49q0 44 12 44h300q2 -15 2 -36q0 -57 -17 -57h-61v-514z" />
    <glyph glyph-name="imacron" unicode="&#x12b;" horiz-adv-x="273" 
d="M-19 696h325l-4 -97h-325zM56 0v509q42 14 97 14q63 0 63 -42v-481q-43 -4 -112 -4z" />
    <glyph glyph-name="Iogonek" unicode="&#x12e;" horiz-adv-x="379" 
d="M351 -95q18 -13 18 -36q0 -31 -34.5 -55.5t-87.5 -24.5q-105 0 -105 73q0 24 18 44.5t41 32.5t47.5 29t33.5 32h-246q-4 19 -4 43q0 50 14 50h61v514h-74q-2 25 -2 49q0 44 12 44h300q2 -15 2 -36q0 -57 -17 -57h-61v-514h80q1 -18 1 -41q0 -52 -19 -52h4
q-13 -25 -56.5 -61t-43.5 -52q0 -27 37 -27q22 0 42.5 11.5t29.5 22.5z" />
    <glyph glyph-name="iogonek" unicode="&#x12f;" horiz-adv-x="273" 
d="M128 603q-76 0 -76 67q0 73 96 73q76 0 76 -61q0 -43 -24 -61t-72 -18zM235 -95q17 -13 17 -36q0 -31 -34 -55.5t-87 -24.5q-105 0 -105 73q0 30 27 53t63 44t48 38q-17 -1 -60 -1l-48 4v509q46 14 101 14q59 0 59 -37v-486h1q-13 -25 -56.5 -61t-43.5 -52q0 -27 37 -27
q22 0 42.5 11.5t29.5 22.5z" />
    <glyph glyph-name="Idotaccent" unicode="&#x130;" horiz-adv-x="379" 
d="M185 779q-60 0 -60 59q0 63 74 63q60 0 60 -54q0 -37 -18 -52.5t-56 -15.5zM267 93h80q1 -18 1 -41q0 -52 -19 -52h-293q-4 19 -4 43q0 50 14 50h61v514h-74q-2 25 -2 49q0 44 12 44h300q2 -15 2 -36q0 -57 -17 -57h-61v-514z" />
    <glyph glyph-name="dotlessi" unicode="&#x131;" horiz-adv-x="273" 
d="M57 0v509q41 14 96 14q64 0 64 -42v-481q-43 -4 -113 -4z" />
    <glyph glyph-name="IJ" unicode="&#x132;" horiz-adv-x="702" 
d="M577 708q49 0 49 -11v-762q0 -87 -47.5 -134t-130.5 -47q-68 0 -104 19t-36 50q0 15 3.5 36t6.5 35l4 14q38 -24 82 -24q32 0 47 16.5t15 57.5v742q50 8 111 8zM348 52q0 -52 -19 -52h-293q-4 19 -4 43q0 50 14 50h61v514h-74q-2 25 -2 49q0 44 12 44h300q2 -15 2 -36
q0 -57 -17 -57h-61v-514h80q1 -18 1 -41z" />
    <glyph glyph-name="ij" unicode="&#x133;" horiz-adv-x="552" 
d="M329 671q0 73 94 73q78 0 78 -61q0 -43 -24 -61t-71 -18q-77 0 -77 67zM148 743q76 0 76 -61q0 -43 -24 -61t-72 -18q-76 0 -76 67q0 73 96 73zM338 -8v513q59 19 105 19q25 0 40 -9.5t15 -27.5v-518q0 -87 -47 -133.5t-130 -46.5q-69 0 -105 19t-36 49q0 15 4 36.5
t8 35.5l3 14q37 -24 81 -24q32 0 47 16.5t15 56.5zM56 0v509q46 14 101 14q59 0 59 -37v-486q-43 -4 -112 -4z" />
    <glyph glyph-name="Kcommaaccent" unicode="&#x136;" horiz-adv-x="637" 
d="M396 367l228 -367q-44 -4 -95 -4l-83 4l-169 276h-60v-276q-38 -3 -100 -3q-61 0 -61 6v697q51 8 112 8q49 0 49 -11v-288h60l178 291q44 4 85 4l76 -4zM303 -48q25 0 48.5 -1.5t34.5 -2.5l10 -2q11 -22 11 -58q0 -48 -38 -68t-119 -21l-8 43q77 0 77 27l-1 7h-77
q-8 44 -8 70q28 6 70 6z" />
    <glyph glyph-name="kcommaaccent" unicode="&#x137;" horiz-adv-x="555" 
d="M394 261l144 -256q-88 -8 -164 -8q-14 0 -14 5l-98 208l-46 -4v-206h-17q-17 -1 -46 -2t-52 -1q-45 0 -45 3v736q46 14 120 14q40 0 40 -9v-450l60 7l96 209q44 6 106 6l60 -5zM353 -54q11 -22 11 -58q0 -48 -38 -68t-119 -21l-8 43q77 0 77 27l-1 7h-77q-8 44 -8 70
q28 6 70 6q25 0 48.5 -1.5t33.5 -2.5z" />
    <glyph glyph-name="Lacute" unicode="&#x139;" horiz-adv-x="495" 
d="M369 892l-148 -141q-47 -2 -91 -2l-63 2l-3 8q17 17 54 60.5l65.5 77t30.5 33.5q25 0 77.5 -12t77.5 -26zM216 136h257q2 -21 2 -43q0 -93 -31 -93h-370q-18 0 -18 19v678q44 8 120 8q40 0 40 -25v-544z" />
    <glyph glyph-name="lacute" unicode="&#x13a;" horiz-adv-x="273" 
d="M366 922l-148 -141q-47 -2 -91 -2l-63 2l-3 8q17 17 54 60.5l65.5 77t30.5 33.5q25 0 77.5 -12t77.5 -26zM216 741v-741q-55 -3 -102 -3q-58 0 -58 6v734q53 12 126 12q34 0 34 -8z" />
    <glyph glyph-name="Lcommaaccent" unicode="&#x13b;" horiz-adv-x="495" 
d="M216 136h257q2 -21 2 -43q0 -93 -31 -93h-370q-18 0 -18 19v678q44 8 120 8q40 0 40 -25v-544zM327 -54q11 -22 11 -58q0 -48 -38 -68t-119 -21l-8 43q77 0 77 27l-1 7h-77q-8 44 -8 70q28 6 70 6q25 0 48.5 -1.5t33.5 -2.5z" />
    <glyph glyph-name="lcommaaccent" unicode="&#x13c;" horiz-adv-x="273" 
d="M216 741v-741q-55 -3 -102 -3q-58 0 -58 6v734q53 12 126 12q34 0 34 -8zM213 -54q11 -22 11 -58q0 -48 -38 -68t-119 -21l-8 43q77 0 77 27l-1 7h-77q-8 44 -8 70q28 6 70 6q25 0 48.5 -1.5t33.5 -2.5z" />
    <glyph glyph-name="Lcaron" unicode="&#x13d;" horiz-adv-x="495" 
d="M258 575l118 175l126 -6l4 -7q-121 -162 -128 -162q-29 -6 -60 -6q-60 0 -60 6zM216 136h257q2 -21 2 -43q0 -93 -31 -93h-370q-18 0 -18 19v678q44 8 120 8q40 0 40 -25v-544z" />
    <glyph glyph-name="lcaron" unicode="&#x13e;" horiz-adv-x="426" 
d="M244 575l119 175l126 -6l4 -7q-121 -162 -128 -162q-29 -6 -60 -6q-61 0 -61 6zM217 741v-741q-55 -3 -102 -3q-58 0 -58 6v734q52 12 126 12q34 0 34 -8z" />
    <glyph glyph-name="Ldot" unicode="&#x13f;" horiz-adv-x="495" 
d="M216 136h257q2 -21 2 -43q0 -93 -31 -93h-370q-18 0 -18 19v678q44 8 120 8q40 0 40 -25v-544zM397 485q77 0 77 -71q0 -87 -97 -87q-78 0 -78 73q0 42 27 63.5t71 21.5z" />
    <glyph glyph-name="ldot" unicode="&#x140;" horiz-adv-x="429" 
d="M217 741v-741q-55 -3 -102 -3q-58 0 -58 6v734q52 12 126 12q34 0 34 -8zM352 413q77 0 77 -71q0 -88 -98 -88q-77 0 -77 74q0 42 27 63.5t71 21.5z" />
    <glyph glyph-name="Lslash" unicode="&#x141;" horiz-adv-x="495" 
d="M216 136h257q2 -21 2 -43q0 -93 -31 -93h-370q-18 0 -18 19v157l-70 -82l-50 50l120 140v413q44 8 120 8q40 0 40 -25v-208l101 118l50 -51l-151 -176v-227z" />
    <glyph glyph-name="lslash" unicode="&#x142;" horiz-adv-x="273" 
d="M361 539l-144 -169v-370q-55 -3 -102 -3q-58 0 -58 6v180l-76 -89l-51 50l127 149v444q52 12 126 12q34 0 34 -8v-261l94 110z" />
    <glyph glyph-name="Nacute" unicode="&#x143;" horiz-adv-x="675" 
d="M578 892l-148 -141q-47 -2 -91 -2l-63 2l-3 8q17 17 54 60.5l65.5 77t30.5 33.5q25 0 77.5 -12t77.5 -26zM56 0v693q63 7 138 7q12 0 12 -4l267 -426l-2 423q59 8 136 8q12 0 12 -4v-697q-36 -3 -96 -3l-55 3l-267 428l2 -428q-37 -3 -88 -3q-59 0 -59 3z" />
    <glyph glyph-name="nacute" unicode="&#x144;" horiz-adv-x="613" 
d="M553 717l-148 -141q-47 -2 -91 -2l-63 2l-3 8q17 17 54 60.5l65.5 77t30.5 33.5q25 0 77.5 -12t77.5 -26zM405 526q72 0 113.5 -39t41.5 -103v-384q-55 -3 -123 -3l-40 3v326q0 73 -74 73q-42 0 -70.5 -25t-28.5 -56v-318q-49 -3 -111 -3l-53 3v512q33 12 91 12
q38 0 54 -12.5t16 -39.5v-32q20 33 68 59.5t116 26.5z" />
    <glyph glyph-name="Ncommaaccent" unicode="&#x145;" horiz-adv-x="675" 
d="M56 0v693q63 7 138 7q12 0 12 -4l267 -426l-2 423q59 8 136 8q12 0 12 -4v-697q-36 -3 -96 -3l-55 3l-267 428l2 -428q-37 -3 -88 -3q-59 0 -59 3zM407 -54q11 -22 11 -58q0 -48 -38 -68t-119 -21l-8 43q77 0 77 27l-1 7h-77q-8 44 -8 70q28 6 70 6q25 0 48.5 -1.5
t33.5 -2.5z" />
    <glyph glyph-name="ncommaaccent" unicode="&#x146;" horiz-adv-x="613" 
d="M405 526q72 0 113.5 -39t41.5 -103v-384q-55 -3 -123 -3l-40 3v326q0 73 -74 73q-42 0 -70.5 -25t-28.5 -56v-318q-49 -3 -111 -3l-53 3v512q33 12 91 12q38 0 54 -12.5t16 -39.5v-32q20 33 68 59.5t116 26.5zM382 -54q11 -22 11 -58q0 -48 -38 -68t-119 -21l-8 43
q77 0 77 27l-1 7h-77q-8 44 -8 70q28 6 70 6q25 0 48.5 -1.5t34.5 -2.5z" />
    <glyph glyph-name="Ncaron" unicode="&#x147;" horiz-adv-x="675" 
d="M273 750q-3 0 -28.5 24.5t-59 64.5t-52.5 73l5 7q68 6 136 6q12 -22 30.5 -45.5t31.5 -36.5l12 -13l79 95l126 -6l4 -7q-151 -162 -153 -162q-29 -6 -60 -6q-17 0 -34.5 1.5t-27 2.5t-9.5 2zM56 0v693q63 7 138 7q12 0 12 -4l267 -426l-2 423q59 8 136 8q12 0 12 -4v-697
q-36 -3 -96 -3l-55 3l-267 428l2 -428q-37 -3 -88 -3q-59 0 -59 3z" />
    <glyph glyph-name="ncaron" unicode="&#x148;" horiz-adv-x="613" 
d="M247 575q-3 0 -28.5 24.5t-59 64.5t-52.5 73l5 7q68 6 136 6q12 -22 30.5 -45.5t31.5 -36.5l12 -13l79 95l126 -6l4 -7q-151 -162 -153 -162q-29 -6 -60 -6q-17 0 -34.5 1.5t-27 2.5t-9.5 2zM405 526q72 0 113.5 -39t41.5 -103v-384q-55 -3 -123 -3l-40 3v326
q0 73 -74 73q-42 0 -70.5 -25t-28.5 -56v-318q-49 -3 -111 -3l-53 3v512q33 12 91 12q38 0 54 -12.5t16 -39.5v-32q20 33 68 59.5t116 26.5z" />
    <glyph glyph-name="Eng" unicode="&#x14a;" horiz-adv-x="675" 
d="M607 701q12 0 12 -4v-762q0 -87 -47.5 -134t-130.5 -47q-60 0 -93.5 19.5t-33.5 49.5q0 15 3.5 36t6.5 35l4 14q38 -24 82 -24q33 0 48 16.5t15 57.5v41l-5 1l-267 428l2 -428q-37 -3 -88 -3q-59 0 -59 3v693q63 7 138 7q12 0 12 -4l267 -426l-2 423q59 8 136 8z" />
    <glyph glyph-name="eng" unicode="&#x14b;" horiz-adv-x="613" 
d="M404 526q73 0 114.5 -39t41.5 -103v-415q0 -87 -47 -133.5t-131 -46.5q-68 0 -104 19t-36 49q0 15 3.5 36.5t6.5 35.5l4 14q38 -24 82 -24q30 0 44 16.5t14 56.5v334q0 37 -17.5 55t-55.5 18q-43 0 -71.5 -25t-28.5 -56v-318q-49 -3 -110 -3l-53 3v512q33 12 91 12
q38 0 54 -12.5t16 -39.5v-32q20 33 67.5 59.5t115.5 26.5z" />
    <glyph glyph-name="Omacron" unicode="&#x14c;" horiz-adv-x="710" 
d="M202 871h325l-4 -97h-325zM349 -14q-64 0 -119.5 22t-100 64.5t-70 113.5t-25.5 162q0 93 25.5 164t71 114t103 64t124.5 21q139 0 228.5 -91t89.5 -272q0 -90 -27.5 -161t-74.5 -114t-104 -65t-121 -22zM356 138q65 0 107 54.5t42 155.5q0 104 -41 157.5t-109 53.5
q-69 0 -109.5 -53.5t-40.5 -157.5q0 -102 41 -156t110 -54z" />
    <glyph glyph-name="omacron" unicode="&#x14d;" horiz-adv-x="595" 
d="M144 696h325l-4 -97h-325zM306 526q50 0 95.5 -15t84 -45t61 -82.5t22.5 -120.5q0 -136 -78 -206.5t-200 -70.5q-109 0 -187 69t-78 203q0 129 79.5 198.5t200.5 69.5zM297 107q45 0 76 39.5t31 114.5q0 73 -29.5 109t-75.5 36q-47 0 -77.5 -39t-30.5 -109
q0 -72 30 -111.5t76 -39.5z" />
    <glyph glyph-name="Ohungarumlaut" unicode="&#x150;" horiz-adv-x="710" 
d="M441 899l-116 -148q-34 -2 -78 -2l-63 2l-4 8l34 52.5l56 85.5t29 39q24 0 71 -11t71 -26zM688 892l-140 -141q-34 -2 -78 -2l-63 2l-4 8q17 17 52 60.5l62 77t29 33.5q24 0 71 -11.5t71 -26.5zM349 -14q-64 0 -119.5 22t-100 64.5t-70 113.5t-25.5 162q0 93 25.5 164
t71 114t103 64t124.5 21q139 0 228.5 -91t89.5 -272q0 -90 -27.5 -161t-74.5 -114t-104 -65t-121 -22zM356 138q65 0 107 54.5t42 155.5q0 104 -41 157.5t-109 53.5q-69 0 -109.5 -53.5t-40.5 -157.5q0 -102 41 -156t110 -54z" />
    <glyph glyph-name="ohungarumlaut" unicode="&#x151;" horiz-adv-x="595" 
d="M383 724l-116 -148q-34 -2 -78 -2l-63 2l-4 8l34 52.5l56 85.5t29 39q24 0 71 -11t71 -26zM630 717l-140 -141q-34 -2 -78 -2l-63 2l-4 8q17 17 52 60.5l62 77t29 33.5q24 0 71 -11.5t71 -26.5zM306 526q50 0 95.5 -15t84 -45t61 -82.5t22.5 -120.5q0 -136 -78 -206.5
t-200 -70.5q-109 0 -187 69t-78 203q0 129 79.5 198.5t200.5 69.5zM297 107q45 0 76 39.5t31 114.5q0 73 -29.5 109t-75.5 36q-47 0 -77.5 -39t-30.5 -109q0 -72 30 -111.5t76 -39.5z" />
    <glyph glyph-name="OE" unicode="&#x152;" horiz-adv-x="923" 
d="M613 137h281q2 -22 2 -54q0 -83 -17 -83h-518q-69 0 -126.5 19.5t-103 60t-71.5 109t-26 159.5q0 93 26 162.5t72.5 110t106 60t132.5 19.5h521q1 -25 1 -56q0 -81 -17 -81h-263v-152h235q0 -44 -4.5 -80.5t-10.5 -36.5h-220v-157zM361 141h91v418h-92q-73 0 -114 -53
t-41 -158q0 -103 41.5 -155t114.5 -52z" />
    <glyph glyph-name="oe" unicode="&#x153;" horiz-adv-x="932" 
d="M879 167q27 -32 27 -71q0 -43 -68 -76.5t-158 -33.5q-123 0 -189 79q-69 -79 -200 -79q-109 0 -187 69t-78 203q0 129 79.5 198.5t200.5 69.5t187 -77q67 73 193 73q100 0 157.5 -49.5t57.5 -139.5q0 -21 -1.5 -44.5t-3.5 -36.5l-2 -12q-160 -12 -324 -16q8 -58 44 -88.5
t90 -30.5q46 0 95 18.5t80 43.5zM678 410q-40 0 -69 -28t-38 -82l176 7q3 16 3 32q0 34 -19 52.5t-53 18.5zM297 107q45 0 76 39.5t31 114.5q0 72 -29.5 108.5t-74.5 36.5q-48 0 -78.5 -39t-30.5 -109q0 -72 30 -111.5t76 -39.5z" />
    <glyph glyph-name="Racute" unicode="&#x154;" horiz-adv-x="643" 
d="M307 749l-63 2l-3 8q17 17 54 60.5l65.5 77t30.5 33.5q25 0 77.5 -12t77.5 -26l-148 -141q-47 -2 -91 -2zM464 260l169 -256q1 -2 -10.5 -3.5t-38 -2.5t-63.5 -1l-65 3l-140 236h-99v-236h-5q-6 -1 -14.5 -1.5t-20 -0.5t-26.5 -0.5t-30 -0.5q-65 0 -65 7v696h288
q115 0 185 -61t70 -167q0 -73 -35 -128t-100 -84zM217 567v-207h121q48 0 72 28.5t24 76.5q0 50 -25 76t-72 26h-120z" />
    <glyph glyph-name="racute" unicode="&#x155;" horiz-adv-x="386" 
d="M45 0v514q33 10 91 10q63 0 63 -35q0 -12 -1.5 -37t-1.5 -32q19 43 64 71t113 28v-136q0 -12 -13 -12q-69 0 -112 -41t-43 -110v-220q-16 0 -54.5 -0.5t-58.5 -0.5q-9 0 -24.5 0.5t-22.5 0.5zM460 717l-148 -141q-47 -2 -91 -2l-63 2l-3 8q17 17 54 60.5l65.5 77
t30.5 33.5q25 0 77.5 -12t77.5 -26z" />
    <glyph glyph-name="Rcommaaccent" unicode="&#x156;" horiz-adv-x="643" 
d="M464 260l169 -256q1 -2 -10.5 -3.5t-38 -2.5t-63.5 -1l-65 3l-140 236h-99v-236h-5q-6 -1 -14.5 -1.5t-20 -0.5t-26.5 -0.5t-30 -0.5q-65 0 -65 7v696h288q115 0 185 -61t70 -167q0 -73 -35 -128t-100 -84zM217 567v-207h121q48 0 72 28.5t24 76.5q0 50 -25 76t-72 26
h-120zM300 -48q25 0 48.5 -1.5t33.5 -2.5l11 -2q11 -22 11 -58q0 -48 -38 -68t-119 -21l-8 43q77 0 77 27l-1 7h-77q-8 44 -8 70q28 6 70 6z" />
    <glyph glyph-name="rcommaaccent" unicode="&#x157;" horiz-adv-x="386" 
d="M45 0v514q33 10 91 10q64 0 64 -35q0 -12 -2 -37t-2 -32q19 43 64 71t113 28v-136q0 -12 -13 -12q-69 0 -112 -41.5t-43 -109.5v-220q-16 0 -54 -0.5t-59 -0.5q-9 0 -24.5 0.5t-22.5 0.5zM203 -54q11 -22 11 -58q0 -48 -38 -68t-119 -21l-8 43q77 0 77 27l-1 7h-77
q-8 44 -8 70q28 6 70 6q25 0 48.5 -1.5t33.5 -2.5z" />
    <glyph glyph-name="Rcaron" unicode="&#x158;" horiz-adv-x="643" 
d="M240 750q-3 0 -28.5 24.5t-59 64.5t-52.5 73l5 7q68 6 136 6q12 -22 30.5 -45.5t30.5 -36.5l13 -13l79 95l126 -6l4 -7q-151 -162 -153 -162q-29 -6 -60 -6q-17 0 -34.5 1.5t-27 2.5t-9.5 2zM464 260l169 -256q1 -2 -10.5 -3.5t-38 -2.5t-63.5 -1l-65 3l-140 236h-99
v-236h-5q-6 -1 -14.5 -1.5t-20 -0.5t-26.5 -0.5t-30 -0.5q-65 0 -65 7v696h288q115 0 185 -61t70 -167q0 -73 -35 -128t-100 -84zM217 567v-207h121q48 0 72 28.5t24 76.5q0 50 -25 76t-72 26h-120z" />
    <glyph glyph-name="rcaron" unicode="&#x159;" horiz-adv-x="386" 
d="M45 0v514q33 10 91 10q63 0 63 -35q0 -12 -1.5 -37t-1.5 -32q19 43 64 71t113 28v-136q0 -12 -13 -12q-69 0 -112 -41t-43 -110v-220q-16 0 -54.5 -0.5t-58.5 -0.5q-9 0 -24.5 0.5t-22.5 0.5zM167 575q-3 0 -28.5 24.5t-59 64.5t-52.5 73l5 7q68 6 136 6
q12 -22 30.5 -45.5t31.5 -36.5l12 -13l79 95l126 -6l4 -7q-151 -162 -153 -162q-29 -6 -60 -6q-17 0 -34.5 1.5t-27 2.5t-9.5 2z" />
    <glyph glyph-name="Sacute" unicode="&#x15a;" horiz-adv-x="584" 
d="M544 892l-148 -141q-47 -2 -91 -2l-63 2l-3 8q17 17 54 60.5l65.5 77t30.5 33.5q25 0 77.5 -12t77.5 -26zM50 504q0 100 76.5 155t190.5 55q93 0 150.5 -21t57.5 -52q0 -21 -6 -47t-12 -42l-6 -15q-83 37 -193 37q-43 0 -67 -17t-24 -46q0 -25 24.5 -44.5t61.5 -32
t80.5 -31t80.5 -40.5t61.5 -62t24.5 -94q0 -99 -77 -160t-189 -61q-102 0 -172 34.5t-70 83.5q0 16 7 38.5t15 36.5l7 14q22 -21 84.5 -45.5t118.5 -24.5q49 0 76.5 18t27.5 53q0 29 -34 50t-82 39t-96 41.5t-82 69.5t-34 110z" />
    <glyph glyph-name="sacute" unicode="&#x15b;" horiz-adv-x="487" 
d="M489 717l-148 -141q-47 -2 -91 -2l-63 2l-3 8q17 17 54 60.5l65.5 77t30.5 33.5q25 0 77.5 -12t77.5 -26zM39 364q0 71 55.5 115t154.5 44q80 0 133.5 -18.5t53.5 -46.5q0 -30 -17 -85q-68 48 -146 48q-75 0 -75 -46q0 -23 27 -39.5t65.5 -29.5t77 -30t65.5 -49t27 -78
q0 -80 -63 -123t-160 -43t-151.5 30.5t-54.5 70.5q0 11 2.5 23t5 19.5t6 17t4.5 11.5q2 -3 7 -7.5t21 -17t34.5 -22t48 -17t61.5 -7.5q84 0 84 50q0 18 -19.5 32.5t-49.5 23.5t-64 23t-64 31t-49.5 48t-19.5 72z" />
    <glyph glyph-name="Scedilla" unicode="&#x15e;" horiz-adv-x="584" 
d="M550 207q0 -95 -71.5 -155.5t-178.5 -65.5q-10 -16 -10 -29q0 -9 18.5 -16t40 -12t40 -20t18.5 -37q0 -35 -37.5 -59t-96.5 -24q-57 0 -93 21t-36 50q0 11 9 22.5t19 17.5l9 5q1 -3 3.5 -7.5t11 -15.5t17.5 -20t23 -16t29 -7q39 0 39 23q0 10 -17.5 16t-35 18t-17.5 35
q0 27 20 56q-92 5 -152 38.5t-60 78.5q0 16 7 38.5t15 36.5l7 14q22 -21 84.5 -45.5t118.5 -24.5q49 0 76.5 18t27.5 53q0 29 -34 50t-82 39t-96 41.5t-82 69.5t-34 110q0 100 76.5 155t190.5 55q93 0 150.5 -21t57.5 -52q0 -21 -6 -47t-12 -42l-6 -15q-83 37 -193 37
q-43 0 -67 -17t-24 -46q0 -25 24.5 -44.5t61.5 -32t80.5 -31t80.5 -40.5t61.5 -62t24.5 -94z" />
    <glyph glyph-name="scedilla" unicode="&#x15f;" horiz-adv-x="487" 
d="M460 149q0 -77 -59 -120t-151 -46q-8 -14 -8 -26q0 -9 18.5 -16t40 -12t40 -20t18.5 -37q0 -35 -37.5 -59t-96.5 -24q-57 0 -93 21t-36 50q0 11 9 22.5t19 17.5l9 5q1 -3 3.5 -7.5t11 -15.5t17.5 -20t23 -16t29 -7q39 0 39 23q0 10 -17.5 16t-35 18t-17.5 35q0 24 18 53
q-82 6 -127.5 35t-45.5 65q0 11 2.5 23t5 19.5t6 17t4.5 11.5q2 -3 7 -7.5t21 -17t34.5 -22t48 -17t61.5 -7.5q84 0 84 50q0 18 -19.5 32.5t-49.5 23.5t-64 23t-64 31t-49.5 48t-19.5 72q0 71 55.5 115t154.5 44q80 0 133.5 -18.5t53.5 -46.5q0 -30 -17 -85q-68 48 -146 48
q-75 0 -75 -46q0 -23 27 -39.5t65.5 -29.5t77 -30t65.5 -49t27 -78z" />
    <glyph glyph-name="Scaron" unicode="&#x160;" horiz-adv-x="584" 
d="M239 750q-3 0 -28.5 24.5t-59 64.5t-52.5 73l5 7q68 6 136 6q12 -22 30.5 -45.5t31.5 -36.5l12 -13l79 95l126 -6l4 -7q-151 -162 -153 -162q-29 -6 -60 -6q-17 0 -34.5 1.5t-27 2.5t-9.5 2zM50 504q0 100 76.5 155t190.5 55q93 0 150.5 -21t57.5 -52q0 -21 -6 -47
t-12 -42l-6 -15q-83 37 -193 37q-43 0 -67 -17t-24 -46q0 -25 24.5 -44.5t61.5 -32t80.5 -31t80.5 -40.5t61.5 -62t24.5 -94q0 -99 -77 -160t-189 -61q-102 0 -172 34.5t-70 83.5q0 16 7 38.5t15 36.5l7 14q22 -21 84.5 -45.5t118.5 -24.5q49 0 76.5 18t27.5 53q0 29 -34 50
t-82 39t-96 41.5t-82 69.5t-34 110z" />
    <glyph glyph-name="scaron" unicode="&#x161;" horiz-adv-x="487" 
d="M184 575q-3 0 -28.5 24.5t-59 64.5t-52.5 73l5 7q68 6 136 6q12 -22 30.5 -45.5t30.5 -36.5l13 -13l79 95l126 -6l4 -7q-151 -162 -153 -162q-29 -6 -60 -6q-17 0 -34.5 1.5t-27 2.5t-9.5 2zM39 364q0 71 55.5 115t154.5 44q80 0 133.5 -18.5t53.5 -46.5q0 -30 -17 -85
q-68 48 -146 48q-75 0 -75 -46q0 -23 27 -39.5t65.5 -29.5t77 -30t65.5 -49t27 -78q0 -80 -63 -123t-160 -43t-151.5 30.5t-54.5 70.5q0 11 2.5 23t5 19.5t6 17t4.5 11.5q2 -3 7 -7.5t21 -17t34.5 -22t48 -17t61.5 -7.5q84 0 84 50q0 18 -19.5 32.5t-49.5 23.5t-64 23
t-64 31t-49.5 48t-19.5 72z" />
    <glyph glyph-name="Tcedilla" unicode="&#x162;" horiz-adv-x="534" 
d="M16 700h510q2 -26 2 -58q0 -78 -17 -78h-167v-564q-22 -2 -60 -3q-18 -21 -18 -40q0 -9 18.5 -16t40 -12t40 -20t18.5 -37q0 -35 -37.5 -59t-96.5 -24q-57 0 -93 21t-36 50q0 11 9 22.5t19 17.5l9 5q1 -3 3.5 -7.5t11 -15.5t17.5 -20t23 -16t29 -7q39 0 39 23
q0 10 -17.5 16t-35 18t-17.5 35q0 31 28 66q-54 0 -54 7v560h-168v136z" />
    <glyph glyph-name="tcedilla" unicode="&#x163;" horiz-adv-x="440" 
d="M421 79q0 -36 -43.5 -63t-108.5 -28q-11 -18 -11 -31q0 -9 18.5 -16t40 -12t40 -20t18.5 -37q0 -35 -37.5 -59t-96.5 -24q-57 0 -93 21t-36 50q0 11 9 22.5t19 17.5l9 5q1 -3 3.5 -7.5t11 -15.5t17.5 -20t23 -16t29 -7q39 0 39 23q0 10 -17.5 16t-35 18t-17.5 35
q0 27 23 60q-62 10 -99 54t-37 125v224l-68 1v96q0 14 14 14h54v87q71 37 134 37q26 0 26 -15v-109h165v-101q0 -16 -12 -16l-153 3v-194q0 -37 19 -55t50 -18q24 0 47 9t34 22q0 -1 4 -10l8 -18.5t7 -23t3 -24.5z" />
    <glyph glyph-name="Tcaron" unicode="&#x164;" horiz-adv-x="534" 
d="M198 750q-3 0 -28.5 24.5t-59 64.5t-52.5 73l5 7q68 6 136 6q12 -22 30.5 -45.5t30.5 -36.5l13 -13l79 95l126 -6l4 -7q-151 -162 -153 -162q-29 -6 -60 -6q-17 0 -34.5 1.5t-27 2.5t-9.5 2zM16 700h510q2 -26 2 -58q0 -78 -17 -78h-167v-564q-39 -3 -101 -3q-59 0 -59 7
v560h-168v136z" />
    <glyph glyph-name="tcaron" unicode="&#x165;" horiz-adv-x="440" 
d="M354 569q-61 0 -61 6l118 175l126 -6l4 -7q-121 -162 -127 -162q-29 -6 -60 -6zM318 124q54 0 81 31q22 -44 22 -76q0 -37 -46 -64t-113 -27q-77 0 -125 44.5t-48 137.5v224l-68 1v96q0 14 14 14h54v87q71 37 134 37q27 0 27 -15v-109h163v-101q0 -16 -11 -16l-152 3
v-194q0 -73 68 -73z" />
    <glyph glyph-name="Tbar" unicode="&#x166;" horiz-adv-x="534" 
d="M16 702h510q1 -26 1 -58q0 -78 -16 -78h-167v-198h84l-4 -96h-80v-272q-39 -3 -101 -3q-59 0 -59 7v268h-86l4 96h82v198h-168v136z" />
    <glyph glyph-name="tbar" unicode="&#x167;" horiz-adv-x="440" 
d="M399 155q22 -44 22 -76q0 -37 -46 -64t-113 -27q-77 0 -125 44.5t-48 137.5v73h-64v58h64v99l-68 1v90q0 14 14 14h54v87q71 37 134 37q27 0 27 -15v-109h163v-94q0 -16 -11 -16l-152 2v-96h127v-58h-127v-46q0 -73 68 -73q54 0 81 31z" />
    <glyph glyph-name="Umacron" unicode="&#x16a;" horiz-adv-x="647" 
d="M164 871h325l-4 -97h-325zM448 298v395q69 6 143 6q11 0 11 -4v-396q0 -159 -78.5 -236.5t-204.5 -77.5t-200 76.5t-74 236.5v395q82 6 155 6q12 0 12 -4v-397q0 -160 118 -160t118 160z" />
    <glyph glyph-name="umacron" unicode="&#x16b;" horiz-adv-x="592" 
d="M140 696h325l-4 -97h-325zM208 -13q-76 0 -117.5 41t-41.5 109v371q86 5 150 5q10 0 10 -5v-319q0 -75 72 -75q33 0 60 17t38 33v344q103 5 151 5q9 0 9 -5v-508q-38 -3 -105 -3l-53 3l5 73q-8 -11 -21 -23.5t-35 -28t-54 -25t-68 -9.5z" />
    <glyph glyph-name="Uring" unicode="&#x16e;" horiz-adv-x="647" 
d="M321 743q-47 0 -81 34.5t-34 80.5t34.5 80t80.5 34t80 -34t34 -80t-34 -80.5t-80 -34.5zM321 813q18 0 31 13t13 32q0 18 -13 31t-31 13q-19 0 -32 -13t-13 -31q0 -19 13 -32t32 -13zM448 298v395q69 6 143 6q11 0 11 -4v-396q0 -159 -78.5 -236.5t-204.5 -77.5
t-200 76.5t-74 236.5v395q82 6 155 6q12 0 12 -4v-397q0 -160 118 -160t118 160z" />
    <glyph glyph-name="uring" unicode="&#x16f;" horiz-adv-x="592" 
d="M297 568q-47 0 -81 34t-34 81q0 46 34.5 80t80.5 34t80 -34t34 -80t-34 -80.5t-80 -34.5zM297 638q18 0 31 13t13 32q0 18 -13 31t-31 13q-19 0 -32 -13t-13 -31q0 -19 13 -32t32 -13zM208 -13q-76 0 -117.5 41t-41.5 109v371q86 5 150 5q10 0 10 -5v-319q0 -75 72 -75
q33 0 60 17t38 33v344q103 5 151 5q9 0 9 -5v-508q-38 -3 -105 -3l-53 3l5 73q-8 -11 -21 -23.5t-35 -28t-54 -25t-68 -9.5z" />
    <glyph glyph-name="Uhungarumlaut" unicode="&#x170;" horiz-adv-x="647" 
d="M404 899l-116 -148q-34 -2 -78 -2l-63 2l-4 8l34 52.5l56 85.5t29 39q24 0 71 -11t71 -26zM651 892l-140 -141q-34 -2 -78 -2l-63 2l-4 8q17 17 52 60.5l62 77t29 33.5q24 0 71 -11.5t71 -26.5zM448 298v395q69 6 143 6q11 0 11 -4v-396q0 -159 -78.5 -236.5
t-204.5 -77.5t-200 76.5t-74 236.5v395q82 6 155 6q12 0 12 -4v-397q0 -160 118 -160t118 160z" />
    <glyph glyph-name="uhungarumlaut" unicode="&#x171;" horiz-adv-x="592" 
d="M380 724l-116 -148q-34 -2 -78 -2l-63 2l-4 8l34 52.5l56 85.5t29 39q24 0 71 -11t71 -26zM627 717l-140 -141q-34 -2 -78 -2l-63 2l-4 8q17 17 52 60.5l62 77t29 33.5q24 0 71 -11.5t71 -26.5zM208 -13q-76 0 -117.5 41t-41.5 109v371q86 5 150 5q10 0 10 -5v-319
q0 -75 72 -75q33 0 60 17t38 33v344q103 5 151 5q9 0 9 -5v-508q-38 -3 -105 -3l-53 3l5 73q-8 -11 -21 -23.5t-35 -28t-54 -25t-68 -9.5z" />
    <glyph glyph-name="Uogonek" unicode="&#x172;" horiz-adv-x="647" 
d="M552 98q-25 -45 -68.5 -88l-72 -71t-28.5 -52q0 -27 37 -27q22 0 42 11.5t30 22.5l9 11q17 -13 17 -36q0 -31 -34 -55.5t-87 -24.5q-106 0 -106 73q0 28 22 51t66 51t63 44q-53 -23 -123 -23q-126 0 -200 76t-74 237v395q82 6 155 6q11 0 11 -4v-397q0 -160 118 -160
q119 0 119 160v395q69 6 142 6q12 0 12 -4v-396q0 -122 -50 -201z" />
    <glyph glyph-name="uogonek" unicode="&#x173;" horiz-adv-x="592" 
d="M557 -95q18 -13 18 -36q0 -31 -34.5 -55.5t-87.5 -24.5q-105 0 -105 73q0 30 27.5 53t63.5 44t48 39l-53 -1l-53 3l5 73q-8 -11 -21 -23.5t-35 -28t-54 -25t-68 -9.5q-76 0 -117.5 41t-41.5 109v371q86 5 150 5q10 0 10 -5v-319q0 -75 72 -75q33 0 60 17t38 33v344
q103 5 151 5q9 0 9 -5v-508q-13 -25 -56.5 -61t-43.5 -52q0 -27 37 -27q22 0 42.5 11.5t29.5 22.5z" />
    <glyph glyph-name="Wcircumflex" unicode="&#x174;" horiz-adv-x="1086" 
d="M625 919q3 0 28.5 -24.5t59 -64.5t52.5 -73l-5 -7q-68 -6 -136 -6q-12 22 -30 45.5t-30 36.5l-13 13l-80 -95l-126 6l-4 7l66.5 71.5l63 67.5t23.5 23q29 6 60 6zM541 462l-121 -453q-45 -11 -127 -11q-100 0 -107 18l-176 684q44 4 96 4l80 -4l133 -577l150 577
q34 4 86 4l92 -4l141 -577l142 577q35 4 76 4l76 -4l-193 -691q-45 -11 -127 -11q-100 0 -107 18z" />
    <glyph glyph-name="wcircumflex" unicode="&#x175;" horiz-adv-x="857" 
d="M506 744q3 0 28.5 -24.5t59 -64.5t52.5 -73l-5 -7q-68 -6 -136 -6q-12 22 -30 45.5t-31 36.5l-12 13l-80 -95l-126 6l-4 7l66.5 71.5l63 67.5t23.5 23q29 6 60 6zM807 513l60 -5l-149 -505l-6 -1q-6 0 -17 -1t-25 -2t-32 -2l-37 -2t-40.5 -1.5t-41.5 -0.5l-90 315
l-85 -305q-104 -10 -200 -10l-154 513q81 8 164 8q12 0 12 -5l84 -370l101 368q71 7 158 7q12 0 12 -5l103 -370l79 368q42 6 104 6z" />
    <glyph glyph-name="Ycircumflex" unicode="&#x176;" horiz-adv-x="585" 
d="M295 839l-80 -95l-126 6l-4 7l66.5 71.5l63 67.5t23.5 23q29 6 60 6l71 -6q3 0 28.5 -24.5t59 -64.5t52.5 -73l-5 -7q-68 -6 -136 -6q-12 22 -30 45.5t-30 36.5zM608 700l-237 -437v-263q-39 -3 -101 -3q-59 0 -59 7v265l-233 431q44 4 96 4l73 -4l147 -314l156 314
q41 4 82 4z" />
    <glyph glyph-name="ycircumflex" unicode="&#x177;" horiz-adv-x="545" 
d="M343 744q3 0 28.5 -24.5t59 -64.5t52.5 -73l-5 -7q-68 -6 -136 -6q-12 22 -30.5 45.5t-30.5 36.5l-12 13l-80 -95l-126 6l-4 7l66.5 71.5l63 67.5t23.5 23q29 6 60 6zM149 514q11 0 13 -5l120 -367l100 366q2 5 120 5q17 0 30 -1.5t18 -2.5l4 -1l-199 -518
q-44 -120 -105.5 -180.5t-148.5 -60.5q-57 0 -91 22.5t-34 56.5q0 20 5.5 40t10.5 30l6 9q39 -30 85 -30q35 0 63.5 28.5t44.5 77.5l-198 523q81 8 156 8z" />
    <glyph glyph-name="Ydieresis" unicode="&#x178;" horiz-adv-x="585" 
d="M183 773q-58 0 -58 57q0 61 74 61q30 0 43.5 -12t13.5 -40q0 -37 -17 -51.5t-56 -14.5zM394 773q-58 0 -58 57q0 61 74 61q30 0 43.5 -12t13.5 -40q0 -37 -17 -51.5t-56 -14.5zM608 700l-237 -437v-263q-39 -3 -101 -3q-59 0 -59 7v265l-233 431q44 4 96 4l73 -4
l147 -314l156 314q41 4 82 4z" />
    <glyph glyph-name="Zacute" unicode="&#x179;" horiz-adv-x="577" 
d="M522 892l-148 -141q-47 -2 -91 -2l-63 2l-3 8q17 17 54 60.5l65.5 77t30.5 33.5q25 0 77.5 -12t77.5 -26zM25 699h527v-113l-330 -456l336 2v-132h-541v114l330 455l-312 -2z" />
    <glyph glyph-name="zacute" unicode="&#x17a;" horiz-adv-x="528" 
d="M514 717l-148 -141q-47 -2 -91 -2l-63 2l-3 8q17 17 54 60.5l65.5 77t30.5 33.5q25 0 77.5 -12t77.5 -26zM493 506v-107q0 -8 -7 -15l-253 -264l269 1v-79q0 -42 -50 -42h-421v102q0 12 9 21l251 263l-251 -1v80q0 41 48 41h405z" />
    <glyph glyph-name="Zdotaccent" unicode="&#x17b;" horiz-adv-x="577" 
d="M292 901q60 0 60 -54q0 -37 -18 -52.5t-56 -15.5q-60 0 -60 59q0 63 74 63zM25 699h527v-113l-330 -456l336 2v-132h-541v114l330 455l-312 -2z" />
    <glyph glyph-name="zdotaccent" unicode="&#x17c;" horiz-adv-x="528" 
d="M285 726q60 0 60 -54q0 -37 -18 -52.5t-56 -15.5q-60 0 -60 59q0 63 74 63zM493 506v-107q0 -8 -7 -15l-253 -264l269 1v-79q0 -42 -50 -42h-421v102q0 12 9 21l251 263l-251 -1v80q0 41 48 41h405z" />
    <glyph glyph-name="Zcaron" unicode="&#x17d;" horiz-adv-x="577" 
d="M216 750q-3 0 -28.5 24.5t-59 64.5t-52.5 73l5 7q68 6 136 6q12 -22 30.5 -45.5t30.5 -36.5l13 -13l79 95l126 -6l4 -7q-151 -162 -153 -162q-29 -6 -60 -6q-17 0 -34.5 1.5t-27 2.5t-9.5 2zM25 699h527v-113l-330 -456l336 2v-132h-541v114l330 455l-312 -2z" />
    <glyph glyph-name="zcaron" unicode="&#x17e;" horiz-adv-x="528" 
d="M208 575q-3 0 -28.5 24.5t-59 64.5t-52.5 73l5 7q68 6 136 6q12 -22 30.5 -45.5t30.5 -36.5l13 -13l79 95l126 -6l4 -7q-151 -162 -153 -162q-29 -6 -60 -6q-17 0 -34.5 1.5t-27 2.5t-9.5 2zM493 506v-107q0 -8 -7 -15l-253 -264l269 1v-79q0 -42 -50 -42h-421v102
q0 12 9 21l251 263l-251 -1v80q0 41 48 41h405z" />
    <glyph glyph-name="florin" unicode="&#x192;" 
d="M471 586q-36 0 -51.5 -18t-22.5 -60l-10 -62h155l-19 -116l-154 2l-21 -134q-34 -213 -197 -213q-78 0 -120 31q-16 12 -19.5 25t4.5 36l22 68q8 -8 32.5 -18.5t48.5 -10.5q29 0 45.5 20t23.5 69l21 129l-70 1l18 111h70l16 99q27 165 214 165q59 0 102.5 -21.5
t43.5 -62.5q0 -14 -5.5 -32.5t-10.5 -29t-7 -12.5q-53 34 -109 34z" />
    <glyph glyph-name="Scommaaccent" unicode="&#x218;" horiz-adv-x="584" 
d="M50 504q0 100 76.5 155t190.5 55q93 0 150.5 -21t57.5 -52q0 -21 -6 -47t-12 -42l-6 -15q-83 37 -193 37q-43 0 -67 -17t-24 -46q0 -25 24.5 -44.5t61.5 -32t80.5 -31t80.5 -40.5t61.5 -62t24.5 -94q0 -99 -77 -160t-189 -61q-102 0 -172 34.5t-70 83.5q0 16 7 38.5
t15 36.5l7 14q22 -21 84.5 -45.5t118.5 -24.5q49 0 76.5 18t27.5 53q0 29 -34 50t-82 39t-96 41.5t-82 69.5t-34 110zM365 -54q11 -22 11 -58q0 -48 -38 -68t-119 -21l-8 43q77 0 77 27l-1 7h-77q-8 44 -8 70q28 6 70 6q25 0 48.5 -1.5t33.5 -2.5z" />
    <glyph glyph-name="scommaaccent" unicode="&#x219;" horiz-adv-x="487" 
d="M39 364q0 71 55.5 115t154.5 44q80 0 133.5 -18.5t53.5 -46.5q0 -30 -17 -85q-68 48 -146 48q-75 0 -75 -46q0 -23 27 -39.5t65.5 -29.5t77 -30t65.5 -49t27 -78q0 -80 -63 -123t-160 -43t-151.5 30.5t-54.5 70.5q0 11 2.5 23t5 19.5t6 17t4.5 11.5q2 -3 7 -7.5t21 -17
t34.5 -22t48 -17t61.5 -7.5q84 0 84 50q0 18 -19.5 32.5t-49.5 23.5t-64 23t-64 31t-49.5 48t-19.5 72zM317 -54q11 -22 11 -58q0 -48 -38 -68t-119 -21l-8 43q77 0 77 27l-1 7h-77q-8 44 -8 70q28 6 70 6q25 0 48.5 -1.5t33.5 -2.5z" />
    <glyph glyph-name="uni021A" unicode="&#x21a;" horiz-adv-x="534" 
d="M16 700h510q2 -26 2 -58q0 -78 -17 -78h-167v-564q-39 -3 -101 -3q-59 0 -59 7v560h-168v136zM248 -48q25 0 48.5 -1.5t33.5 -2.5l11 -2q11 -22 11 -58q0 -48 -38 -68t-119 -21l-8 43q77 0 77 27l-1 7h-77q-8 44 -8 70q28 6 70 6z" />
    <glyph glyph-name="uni021B" unicode="&#x21b;" horiz-adv-x="440" 
d="M399 155q0 -1 4 -10l8 -18.5t7 -23t3 -24.5q0 -37 -46 -64t-113 -27q-78 0 -125.5 44.5t-47.5 137.5v224l-68 1v96q0 14 14 14h54v87q71 37 134 37q26 0 26 -15v-109h165v-101q0 -16 -12 -16l-153 3v-194q0 -37 19 -55t50 -18q24 0 47 9t34 22zM240 -48q25 0 48.5 -1.5
t33.5 -2.5l11 -2q11 -22 11 -58q0 -48 -38 -68t-119 -21l-8 43q77 0 77 27l-1 7h-77q-8 44 -8 70q28 6 70 6z" />
    <glyph glyph-name="circumflex" unicode="&#x2c6;" horiz-adv-x="558" 
d="M332 744q3 0 28.5 -24.5t59 -64.5t52.5 -73l-5 -7q-68 -6 -136 -6q-12 22 -30 45.5t-31 36.5l-12 13l-80 -95l-126 6l-4 7l66.5 71.5l63 67.5t23.5 23q29 6 60 6z" />
    <glyph glyph-name="caron" unicode="&#x2c7;" horiz-adv-x="478" 
d="M167 575q-3 0 -28.5 24.5t-59 64.5t-52.5 73l5 7q68 6 136 6q12 -22 30.5 -45.5t31.5 -36.5l12 -13l79 95l126 -6l4 -7q-151 -162 -153 -162q-29 -6 -60 -6q-17 0 -34.5 1.5t-27 2.5t-9.5 2z" />
    <glyph glyph-name="breve" unicode="&#x2d8;" horiz-adv-x="528" 
d="M195 748q0 -98 64 -98q34 0 52.5 26.5t18.5 71.5q109 0 127 -13q0 -71 -55.5 -116t-144.5 -45t-136.5 43t-47.5 118q1 1 17 4t46.5 6t58.5 3z" />
    <glyph glyph-name="dotaccent" unicode="&#x2d9;" horiz-adv-x="334" 
d="M174 726q60 0 60 -54q0 -37 -18 -52.5t-56 -15.5q-60 0 -60 59q0 63 74 63z" />
    <glyph glyph-name="ring" unicode="&#x2da;" horiz-adv-x="564" 
d="M251 568q-47 0 -81 34t-34 81q0 46 34.5 80t80.5 34t80 -34t34 -80t-34 -80.5t-80 -34.5zM251 638q18 0 31 13t13 32q0 18 -13 31t-31 13q-19 0 -32 -13t-13 -31q0 -19 13 -32t32 -13z" />
    <glyph glyph-name="ogonek" unicode="&#x2db;" horiz-adv-x="389" 
d="M215 0h51q-13 -25 -56.5 -61t-43.5 -52q0 -27 37 -27q22 0 42.5 11.5t29.5 22.5l9 11q18 -13 18 -36q0 -31 -34.5 -55.5t-87.5 -24.5q-105 0 -105 73q0 24 18 44.5t41 32.5t47.5 29t33.5 32z" />
    <glyph glyph-name="tilde" unicode="&#x2dc;" horiz-adv-x="600" 
d="M84 676q0 21 36.5 36t92.5 15q31 0 95.5 -8t84.5 -8q33 0 59 12.5t36 23.5q18 -48 18 -85q0 -21 -32 -39.5t-82 -18.5q-31 0 -97.5 9t-93.5 9q-54 0 -101 -27q-16 43 -16 81z" />
    <glyph glyph-name="hungarumlaut" unicode="&#x2dd;" horiz-adv-x="541" 
d="M308 724l-116 -148q-34 -2 -78 -2l-63 2l-4 8l34 52.5l56 85.5t29 39q24 0 71 -11t71 -26zM555 717l-140 -141q-34 -2 -78 -2l-63 2l-4 8q17 17 52 60.5l62 77t29 33.5q24 0 71 -11.5t71 -26.5z" />
    <glyph glyph-name="commaaccentcomb" unicode="&#x326;" horiz-adv-x="0" 
d="M391 -54q11 -22 11 -58q0 -48 -38 -68t-119 -21l-8 43q77 0 77 27l-1 7h-77q-8 44 -8 70q28 6 70 6q25 0 48.5 -1.5t33.5 -2.5z" />
    <glyph glyph-name="Wgrave" unicode="&#x1e80;" horiz-adv-x="1086" 
d="M337 892q25 15 71.5 26.5t70.5 11.5q3 0 33 -31t64.5 -72t46.5 -62l-4 -8q-64 -8 -133 -8q-21 24 -58 60t-64 59zM541 462l-121 -453q-45 -11 -127 -11q-100 0 -107 18l-176 684q44 4 96 4l80 -4l133 -577l150 577q34 4 86 4l92 -4l141 -577l142 577q35 4 76 4l76 -4
l-193 -691q-45 -11 -127 -11q-100 0 -107 18z" />
    <glyph glyph-name="wgrave" unicode="&#x1e81;" horiz-adv-x="857" 
d="M219 717q25 15 71.5 26.5t70.5 11.5q3 0 33 -31t64.5 -72t46.5 -62l-4 -8q-64 -8 -133 -8q-21 24 -58 60t-64 60zM807 513l60 -5l-149 -505l-6 -1q-6 0 -17 -1t-25 -2t-32 -2l-37 -2t-40.5 -1.5t-41.5 -0.5l-90 315l-85 -305q-104 -10 -200 -10l-154 513q81 8 164 8
q12 0 12 -5l84 -370l101 368q71 7 158 7q12 0 12 -5l103 -370l79 368q42 6 104 6z" />
    <glyph glyph-name="Wacute" unicode="&#x1e82;" horiz-adv-x="1086" 
d="M789 892l-148 -141q-47 -2 -91 -2l-63 2l-3 8q17 17 54 60.5l65.5 77t30.5 33.5q25 0 77.5 -12t77.5 -26zM541 462l-121 -453q-45 -11 -127 -11q-100 0 -107 18l-176 684q44 4 96 4l80 -4l133 -577l150 577q34 4 86 4l92 -4l141 -577l142 577q35 4 76 4l76 -4l-193 -691
q-45 -11 -127 -11q-100 0 -107 18z" />
    <glyph glyph-name="wacute" unicode="&#x1e83;" horiz-adv-x="857" 
d="M671 717l-148 -141q-47 -2 -91 -2l-63 2l-3 8q17 17 54 60.5l65.5 77t30.5 33.5q25 0 77.5 -12t77.5 -26zM807 513l60 -5l-149 -505l-6 -1q-6 0 -17 -1t-25 -2t-32 -2l-37 -2t-40.5 -1.5t-41.5 -0.5l-90 315l-85 -305q-104 -10 -200 -10l-154 513q81 8 164 8q12 0 12 -5
l84 -370l101 368q71 7 158 7q12 0 12 -5l103 -370l79 368q42 6 104 6z" />
    <glyph glyph-name="Wdieresis" unicode="&#x1e84;" horiz-adv-x="1086" 
d="M455 891q30 0 43.5 -12t13.5 -40q0 -37 -17 -51.5t-56 -14.5q-58 0 -58 57q0 61 74 61zM666 891q30 0 43.5 -12t13.5 -40q0 -37 -17 -51.5t-56 -14.5q-58 0 -58 57q0 61 74 61zM541 462l-121 -453q-45 -11 -127 -11q-100 0 -107 18l-176 684q44 4 96 4l80 -4l133 -577
l150 577q34 4 86 4l92 -4l141 -577l142 577q35 4 76 4l76 -4l-193 -691q-45 -11 -127 -11q-100 0 -107 18z" />
    <glyph glyph-name="wdieresis" unicode="&#x1e85;" horiz-adv-x="857" 
d="M337 716q30 0 43.5 -12t13.5 -40q0 -37 -17 -51.5t-56 -14.5q-58 0 -58 57q0 61 74 61zM548 716q30 0 43.5 -12t13.5 -40q0 -37 -17 -51.5t-56 -14.5q-58 0 -58 57q0 61 74 61zM807 513l60 -5l-149 -505l-6 -1q-6 0 -17 -1t-25 -2t-32 -2l-37 -2t-40.5 -1.5t-41.5 -0.5
l-90 315l-85 -305q-104 -10 -200 -10l-154 513q81 8 164 8q12 0 12 -5l84 -370l101 368q71 7 158 7q12 0 12 -5l103 -370l79 368q42 6 104 6z" />
    <glyph glyph-name="Ygrave" unicode="&#x1ef2;" horiz-adv-x="585" 
d="M230 749q-21 24 -58 60t-64 59l-27 24q25 15 71.5 26.5t70.5 11.5q3 0 33 -31t64.5 -72t46.5 -62l-4 -8q-64 -8 -133 -8zM608 700l-237 -437v-263q-39 -3 -101 -3q-59 0 -59 7v265l-233 431q44 4 96 4l73 -4l147 -314l156 314q41 4 82 4z" />
    <glyph glyph-name="ygrave" unicode="&#x1ef3;" horiz-adv-x="545" 
d="M56 717q25 15 71.5 26.5t70.5 11.5q3 0 33 -31t64.5 -72t46.5 -62l-4 -8q-64 -8 -133 -8q-21 24 -58 60t-64 60zM149 514q11 0 13 -5l120 -367l100 366q2 5 120 5q17 0 30 -1.5t18 -2.5l4 -1l-199 -518q-44 -120 -105.5 -180.5t-148.5 -60.5q-57 0 -91 22.5t-34 56.5
q0 20 5.5 40t10.5 30l6 9q39 -30 85 -30q35 0 63.5 28.5t44.5 77.5l-198 523q81 8 156 8z" />
    <glyph glyph-name="endash" unicode="&#x2013;" horiz-adv-x="500" 
d="M50 325h400v-106h-400v106z" />
    <glyph glyph-name="emdash" unicode="&#x2014;" horiz-adv-x="1000" 
d="M50 325h900v-106h-900v106z" />
    <glyph glyph-name="quoteleft" unicode="&#x2018;" horiz-adv-x="286" 
d="M55 435q-18 53 -18 119q0 34 11 67t27 56.5t31.5 42t26.5 27.5l11 9l84 -48q-6 -7 -14.5 -18t-23 -43.5t-14.5 -60.5q0 -10 1 -19t2.5 -14.5t1.5 -6.5h54q11 -57 11 -111q-42 -7 -92 -7q-29 0 -54 2t-35 4z" />
    <glyph glyph-name="quoteright" unicode="&#x2019;" horiz-adv-x="286" 
d="M232 702q17 -52 17 -119q0 -53 -26.5 -103.5t-52.5 -74.5l-27 -24l-84 49q6 6 14.5 17.5t22.5 43.5t14 60q0 25 -5 40h-54q-11 57 -11 111q42 7 92 7q29 0 54 -1.5t36 -3.5z" />
    <glyph glyph-name="quotesinglbase" unicode="&#x201a;" horiz-adv-x="600" 
d="M128 -224l-92 43q48 51 48 149q0 23 -6.5 56t-13.5 54l-6 21h154q26 -61 26 -130q0 -65 -31.5 -116.5t-78.5 -76.5z" />
    <glyph glyph-name="quotedblleft" unicode="&#x201c;" horiz-adv-x="525" 
d="M105 468q-16 48 -16 114q0 37 12 73t28.5 61.5t33.5 46t29 30.5l12 10l84 -48q-7 -8 -17 -22.5t-27 -58.5t-17 -86q0 -28 4.5 -58t9.5 -46l5 -16q-27 -7 -59 -7q-20 0 -40.5 1.5t-30.5 3.5zM331 468q-18 52 -18 118q0 34 11 67.5t26.5 56.5t31.5 42t27 28l11 9l84 -49
q-6 -6 -14.5 -18t-23 -50t-14.5 -78q0 -25 8 -56.5t16 -50.5l7 -19q-27 -7 -65 -7q-25 0 -46.5 1.5t-31.5 3.5z" />
    <glyph glyph-name="quotedblright" unicode="&#x201d;" horiz-adv-x="525" 
d="M195 721q17 -52 17 -119q0 -53 -26.5 -103.5t-53.5 -74.5l-26 -24l-84 49q6 6 14.5 18t22.5 50t14 77q0 26 -8 57.5t-15 50.5l-8 19q28 7 65 7q25 0 47 -2t32 -4zM420 721q16 -48 16 -114q0 -37 -11.5 -73t-28.5 -61.5t-34 -46t-28 -30.5l-12 -10l-84 48q7 8 17 22.5
t26.5 58.5t16.5 86q0 28 -5 58t-9 46l-5 16q27 7 59 7q20 0 40.5 -2t31.5 -4z" />
    <glyph glyph-name="quotedblbase" unicode="&#x201e;" horiz-adv-x="600" 
d="M58 99h154q26 -61 26 -130q0 -65 -31.5 -116.5t-78.5 -76.5l-92 43q48 51 48 149q0 23 -6.5 56t-13.5 54z" />
    <glyph glyph-name="dagger" unicode="&#x2020;" horiz-adv-x="572" 
d="M290 468q64 0 103.5 -37.5t39.5 -115.5q0 -81 -40 -121t-112 -40q-64 0 -103 39t-39 119q0 76 40 116t111 40z" />
    <glyph glyph-name="daggerdbl" unicode="&#x2021;" horiz-adv-x="572" 
d="M291 491q73 0 118.5 -43t45.5 -133q0 -92 -46 -138t-128 -46q-74 0 -119 45t-45 136q0 87 46.5 133t127.5 46z" />
    <glyph glyph-name="bullet" unicode="&#x2022;" horiz-adv-x="572" 
d="M292 520q85 0 137.5 -50t52.5 -154q0 -107 -53 -160.5t-149 -53.5q-86 0 -138 52.5t-52 157.5q0 102 53.5 155t148.5 53z" />
    <glyph glyph-name="ellipsis" unicode="&#x2026;" horiz-adv-x="751" 
d="M147 148q77 0 77 -71q0 -88 -98 -88q-77 0 -77 73q0 42 27 64t71 22zM386 148q77 0 77 -71q0 -88 -98 -88q-78 0 -78 73q0 42 27.5 64t71.5 22zM624 148q77 0 77 -71q0 -88 -97 -88q-78 0 -78 73q0 42 27 64t71 22z" />
    <glyph glyph-name="perthousand" unicode="&#x2030;" horiz-adv-x="1020" 
d="M832 -20q-73 0 -119 54q-45 -54 -118 -54q-69 0 -116 51.5t-47 140.5t47.5 140t120.5 51q75 0 118 -50q45 50 119 50q69 0 114 -45t45 -139q-1 -95 -48 -146.5t-116 -52.5zM17 527q0 90 47 140.5t121 50.5q69 0 114 -45t45 -139q0 -98 -47 -148.5t-117 -50.5
q-69 0 -116 51.5t-47 140.5zM563 700h131l-479 -700h-136zM832 71q74 0 74 104q0 98 -71 98q-75 0 -75 -101q0 -51 19.5 -76t52.5 -25zM595 71q74 0 74 101t-71 101q-75 0 -75 -101q0 -51 19.5 -76t52.5 -25zM108 527q0 -50 20 -75.5t52 -25.5q74 0 74 104q0 98 -70 98
q-76 0 -76 -101z" />
    <glyph glyph-name="guilsinglleft" unicode="&#x2039;" horiz-adv-x="311" 
d="M163 253l117 -123q0 -35 -1.5 -69t-2.5 -51l-2 -16l-7 -4l-218 204q-7 25 -7 63q0 16 2 31.5t4 23.5l1 7l218 203l7 -4q6 -57 6 -136l-117 -123v-6z" />
    <glyph glyph-name="guilsinglright" unicode="&#x203a;" horiz-adv-x="311" 
d="M148 253v6l-118 123q0 35 1.5 69t2.5 51l2 16l7 4l219 -203q6 -26 6 -62q0 -17 -1.5 -32.5t-2.5 -22.5l-2 -8l-219 -204l-7 4q-6 57 -6 136z" />
    <glyph glyph-name="fraction" unicode="&#x2044;" horiz-adv-x="600" 
d="M637 700l-479 -700h-136l484 700h131z" />
    <glyph glyph-name="Euro" unicode="&#x20ac;" 
d="M568 204q2 -4 7 -17.5t11.5 -37t6.5 -38.5q0 -51 -63.5 -88t-151.5 -37q-110 0 -187.5 66t-101.5 191h-81v69h73q-1 12 -1 38l1 27h-73v69h80q23 130 104.5 197.5t201.5 67.5q83 0 138 -28t55 -66q0 -18 -5.5 -43t-11 -41.5t-6.5 -17.5q-65 47 -158 47q-110 0 -143 -116
h230l-8 -69h-233l-1 -26q0 -15 2 -39h225l-8 -69h-203q37 -108 143 -108q95 0 158 69z" />
    <glyph glyph-name="trademark" unicode="&#x2122;" horiz-adv-x="955" 
d="M850 701q12 0 12 -5v-309q-31 -3 -73 -3l-43 3v176l-92 -179q-4 -8 -10 -8t-11 8l-92 177v-174q-29 -3 -70 -3l-46 3v307q48 7 127 7q11 0 14 -4l82 -163l80 162q42 5 122 5zM36 700h336q2 -26 2 -58q0 -59 -17 -59h-92v-196q-33 -3 -82 -3q-53 0 -53 7v192h-104
q-4 23 -4 49q0 68 14 68z" />
    <glyph glyph-name="partialdiff" unicode="&#x2202;" horiz-adv-x="600" 
 />
    <glyph glyph-name="product" unicode="&#x220f;" horiz-adv-x="600" 
 />
    <glyph glyph-name="summation" unicode="&#x2211;" horiz-adv-x="600" 
 />
    <glyph glyph-name="minus" unicode="&#x2212;" 
d="M63 325h486v-106h-486v106z" />
    <glyph glyph-name="approxequal" unicode="&#x2248;" horiz-adv-x="600" 
 />
    <glyph glyph-name="notequal" unicode="&#x2260;" 
d="M528 333h-136l-42 -113h178v-106h-218l-43 -114h-136l44 114h-91v106h132l43 113h-175v106h216l45 118h131l-44 -118h96v-106z" />
    <glyph glyph-name="lessequal" unicode="&#x2264;" 
d="M259 408l233 -114l-4 -125l-8 -5l-394 202q-7 20 -7 42q0 10 1.5 20.5t3.5 15.5l2 6l394 202l8 -4q4 -114 4 -126zM63 105h486v-105h-486v105z" />
    <glyph glyph-name="greaterequal" unicode="&#x2265;" 
d="M353 408l-234 114l4 126l9 4l394 -202q7 -20 7 -42q0 -10 -1.5 -20.5t-3.5 -15.5l-2 -6l-394 -202l-9 5q-4 113 -4 125zM63 105h486v-105h-486v105z" />
    <glyph glyph-name="lozenge" unicode="&#x25ca;" horiz-adv-x="600" 
d="M59 266l236 236l237 -236l-237 -237zM195 266l100 -100l101 100l-101 100z" />
    <glyph glyph-name="Caron" unicode="&#xf6ca;" horiz-adv-x="600" 
 />
    <glyph glyph-name="Dieresis" unicode="&#xf6cb;" horiz-adv-x="600" 
 />
    <glyph glyph-name="Macron" unicode="&#xf6d0;" horiz-adv-x="600" 
 />
    <glyph glyph-name="s_t" unicode="&#xfb06;" horiz-adv-x="852" 
d="M39 348q0 69 51.5 110.5t145.5 41.5h276v71q69 36 129 36q25 0 25 -14v-93h159v-106q0 -14 -12 -14h-147v-193q0 -37 18.5 -54.5t48.5 -17.5q27 0 51.5 10.5t28.5 17.5q20 -50 20 -71q0 -36 -44 -62t-109 -26q-75 0 -121.5 43t-46.5 133v223l-250 4q-72 1 -72 -43
q0 -19 27 -32.5t65 -24.5t76 -25.5t65 -45t27 -74.5q0 -76 -64 -117.5t-157 -41.5t-145.5 29t-52.5 67q0 30 17 77q2 -3 6.5 -7.5t20 -16t33 -20.5t46 -16.5t59.5 -7.5q88 0 88 40q0 20 -27 35t-65.5 27.5t-77 29t-65.5 49.5t-27 79z" />
    <glyph glyph-name="A.alt" horiz-adv-x="638" 
d="M463 689l181 -689q-46 -3 -111 -3q-64 0 -64 3l-39 164h-248l-40 -164q-42 -3 -100 -3l-52 3l192 691q77 15 184 15q91 0 97 -17zM209 277h194l-68 282h-57z" />
    <glyph glyph-name="i.loclTRK" horiz-adv-x="273" 
d="M145 726q60 0 60 -54q0 -37 -18 -52.5t-56 -15.5q-60 0 -60 59q0 63 74 63zM56 0v509q42 14 97 14q63 0 63 -42v-481q-43 -4 -112 -4z" />
    <glyph glyph-name="a.alt" 
d="M545 520q11 0 11 -6v-514q-52 -3 -111 -3l-50 3l4 73q-66 -87 -168 -87q-89 0 -147 67.5t-58 189.5q0 140 74.5 211.5t180.5 71.5q56 0 114 -20q74 14 150 14zM300 112q50 0 95 41v233q-49 15 -82 15q-56 0 -89 -38.5t-33 -107.5q0 -67 31 -105t78 -38z" />
    <glyph glyph-name="l.alt" horiz-adv-x="311" 
d="M202 753q12 0 12 -4v-580q0 -29 9 -41t30 -12q9 0 19.5 2.5t15.5 5.5l6 2q7 -33 7 -61q0 -77 -118 -77q-63 0 -96.5 37.5t-33.5 108.5v605q75 14 149 14z" />
    <glyph glyph-name="C_h" horiz-adv-x="1183" 
d="M970 526q74 0 117 -40.5t43 -101.5v-384l-108 -3q-21 1 -55 3v326q0 73 -74 73q-44 0 -72 -25t-28 -56v-318l-102 -3q-29 1 -61 3v536l-69 8.5t-94.5 10t-78.5 3.5q-84 0 -133.5 -54.5t-49.5 -152.5q0 -103 51.5 -157.5t133.5 -54.5q50 0 93.5 18t59.5 36q24 -48 24 -85
q0 -51 -60 -86.5t-150 -35.5q-139 0 -231 94.5t-92 269.5t94 268t245 93q106 0 257 -32q4 43 42.5 74t113.5 31q116 0 116 -90q0 -112 -111 -147v-106q22 35 66.5 60t112.5 25zM819 722q-28 0 -28 -38v-27q56 4 56 40q0 25 -28 25z" />
    <glyph glyph-name="E_T" horiz-adv-x="978" 
d="M216 137h282q2 -22 2 -54q0 -83 -17 -83h-427v700h914q2 -26 2 -58q0 -78 -17 -78h-168v-564q-40 -3 -102 -3q-59 0 -59 7v559h-410v-152h236q0 -44 -4.5 -80.5t-10.5 -36.5h-221v-157z" />
    <glyph glyph-name="E_Y" horiz-adv-x="1008" 
d="M795 266v-266q-40 -3 -102 -3q-59 0 -59 7v265l-165 294h-253v-152h236q0 -44 -4.5 -80.5t-10.5 -36.5h-221v-157h282q2 -22 2 -54q0 -83 -17 -83h-427v700h514l147 -314l156 311q41 4 82 4l76 -4z" />
    <glyph glyph-name="F_F" horiz-adv-x="910" 
d="M56 700h343l1 -8q0 -8 0.5 -21.5t0.5 -27.5q0 -79 -17 -79h-168v-182h247v318h440l1 -8v-21.5v-27.5q0 -79 -17 -79h-264v-182h236q0 -48 -5 -87.5t-12 -39.5h-219v-255q-51 -3 -106 -3q-54 0 -54 6v252h-247v-255q-51 -3 -105 -3q-55 0 -55 6v697z" />
    <glyph glyph-name="F_J" horiz-adv-x="802" 
d="M56 700h654q16 0 16 -16v-749q0 -87 -47 -134t-130 -47q-69 0 -105 19t-36 50q0 15 4 36t8 35l3 14q37 -24 81 -24q32 0 47 16.5t15 57.5v606h-350v-182h236q0 -127 -17 -127h-219v-255q-51 -3 -106 -3q-54 0 -54 6v697z" />
    <glyph glyph-name="F_T" horiz-adv-x="957" 
d="M56 700h893q2 -26 2 -58q0 -78 -17 -78h-167v-564q-40 -3 -102 -3q-59 0 -59 7v560h-390v-182h236q0 -127 -17 -127h-219v-255q-51 -3 -106 -3q-54 0 -54 6v697z" />
    <glyph glyph-name="F_V" horiz-adv-x="1100" 
d="M1112 697l-225 -688q-44 -11 -126 -11q-103 0 -107 18l-173 548h-265v-182h236q0 -127 -17 -127h-219v-255q-51 -3 -106 -3q-54 0 -54 6v697h560l164 -577l174 574q41 4 82 4z" />
    <glyph glyph-name="F_W" horiz-adv-x="1536" 
d="M1456 704l76 -4l-194 -691q-44 -11 -126 -11q-102 0 -107 18l-114 446l-122 -453q-44 -11 -126 -11q-103 0 -107 18l-144 548h-276v-182h236q0 -127 -17 -127h-219v-255q-51 -3 -106 -3q-54 0 -54 6v697h579l134 -577l149 577q35 4 86 4l93 -4l141 -577l142 577
q35 4 76 4z" />
    <glyph glyph-name="F_X" horiz-adv-x="1059" 
d="M868 365l195 -365q-44 -4 -95 -4l-81 4l-150 286l-158 -286q-48 -4 -89 -4l-76 4l197 343l-124 221h-271v-182h236q0 -127 -17 -127h-219v-255q-51 -3 -106 -3q-54 0 -54 6v697h540l146 -279l154 275q42 4 83 4l76 -4z" />
    <glyph glyph-name="F_Z" horiz-adv-x="1004" 
d="M978 699v-119l-329 -448h335v-132h-540v114l329 450h-557v-182h236q0 -127 -17 -127h-219v-255q-51 -3 -106 -3q-54 0 -54 6v697z" />
    <glyph glyph-name="S_H_E" horiz-adv-x="1505" 
d="M1034 700h440q1 -25 1 -56q0 -81 -17 -81h-260v-152h232q0 -44 -4.5 -80.5t-10.5 -36.5h-217v-157h278q2 -22 2 -54q0 -83 -17 -83h-427v277h-257v-277q-43 -3 -106 -3q-56 0 -56 5v559l-309 1q-41 0 -65 -17.5t-24 -45.5q0 -29 34 -49.5t82.5 -36t97.5 -37t83 -64.5
t34 -106q0 -98 -76.5 -159t-188.5 -61q-102 0 -171.5 34.5t-69.5 83.5q0 16 7.5 38t14.5 36l8 14q21 -20 83.5 -45t117.5 -25q48 0 75.5 18t27.5 53q0 28 -33.5 48t-81.5 36.5t-95.5 39t-81 67t-33.5 108.5q0 100 76 154.5t189 54.5l439 -1q22 0 22 -26v-263h257v289z" />
    <glyph glyph-name="S_T" horiz-adv-x="1011" 
d="M661 561h-358q-41 0 -65.5 -17.5t-24.5 -44.5q0 -29 34 -49.5t82 -37.5t96 -38.5t82 -65t34 -105.5q0 -97 -75.5 -157t-185.5 -60q-100 0 -169 34t-69 82q0 16 7.5 38t14.5 36l8 13q20 -20 81.5 -44.5t116.5 -24.5q48 0 75 18t27 52q0 28 -33 49t-80 38.5t-94.5 40.5
t-80.5 68t-33 108q0 98 74.5 152t186.5 54h691q2 -26 2 -83q0 -56 -17 -56h-167v-561q-39 -3 -101 -3q-59 0 -59 7v557z" />
    <glyph glyph-name="S_V" horiz-adv-x="1148" 
d="M1160 697l-224 -688q-44 -11 -125 -11q-101 0 -106 18l-170 545h-232q-41 0 -65.5 -17.5t-24.5 -44.5q0 -29 34 -49.5t82 -37.5t96 -38.5t82 -65t34 -105.5q0 -97 -75.5 -157t-185.5 -60q-100 0 -169 34t-69 82q0 16 7.5 38t14.5 36l8 13q20 -20 81.5 -44.5t116.5 -24.5
q48 0 75 18t27 52q0 28 -33 49t-80 38.5t-94.5 40.5t-80.5 68t-33 108q0 98 74.5 152t186.5 54h354l164 -577l173 574q41 4 82 4z" />
    <glyph glyph-name="S_W" horiz-adv-x="1593" 
d="M697 700l133 -577l149 574q33 4 85 4l92 -4l140 -574l143 574q34 4 75 4l75 -4l-193 -688q-44 -11 -125 -11q-101 0 -106 18l-114 444l-121 -451q-45 -11 -126 -11q-102 0 -106 18l-144 545h-251q-41 0 -65.5 -17.5t-24.5 -44.5q0 -29 34 -49.5t82 -37.5t96 -38.5t82 -65
t34 -105.5q0 -97 -75.5 -157t-185.5 -60q-100 0 -169 34t-69 82q0 16 7.5 38t14.5 36l8 13q20 -20 81.5 -44.5t116.5 -24.5q48 0 75 18t27 52q0 28 -33 49t-80 38.5t-94.5 40.5t-80.5 68t-33 108q0 98 74.5 152t186.5 54h385z" />
    <glyph glyph-name="S_Y" horiz-adv-x="1085" 
d="M873 265v-265q-39 -3 -100 -3q-59 0 -59 7v263l-164 294h-248q-41 0 -64.5 -17t-23.5 -45q0 -29 34 -49.5t82 -37.5t96 -38.5t82 -65t34 -105.5q0 -97 -75.5 -157t-186.5 -60q-100 0 -169 34t-69 82q0 16 7.5 38t14.5 36l8 13q21 -20 82.5 -44.5t115.5 -24.5q49 0 76 18
t27 52q0 24 -24 43t-59.5 31.5t-77.5 31.5t-77.5 41t-59.5 63t-24 94q0 98 73.5 152t184.5 54h341l146 -316l155 312q41 4 82 4l75 -4z" />
    <glyph glyph-name="T_T" horiz-adv-x="911" 
d="M16 700h887q2 -26 2 -58q0 -78 -17 -78h-167v-564q-39 -3 -101 -3q-59 0 -59 7v560h-213v-564q-40 -3 -102 -3q-59 0 -59 7v560h-171v136z" />
    <glyph glyph-name="T_h" horiz-adv-x="1063" 
d="M16 700h584q39 0 55 -11.5t16 -36.5v-207q22 33 66.5 57t112.5 24q74 0 117 -39t43 -97v-390q-45 -3 -108 -3l-55 3v335q0 37 -18 54t-56 17q-44 0 -71.5 -24t-27.5 -54v-328q-45 -3 -103 -3l-60 3v564h-169v-564q-39 -3 -101 -3q-59 0 -59 7v560h-166v136z" />
    <glyph glyph-name="T_h_e" horiz-adv-x="1630" 
d="M881 526q74 0 117 -40.5t43 -101.5v-384l-108 -3q-14 1 -56 3v326q0 73 -73 73q-44 0 -72 -25t-28 -56v-318l-102 -3q-29 1 -61 3v564h-173v-564q-40 -3 -101 -3q-59 0 -59 7v560h-190q-2 26 -2 58q0 78 17 78h508v43q44 10 90 10q39 0 55 -13.5t16 -41.5v-257
q20 35 65.5 60t113.5 25zM1578 167q26 -34 26 -71q0 -43 -68 -76.5t-158 -33.5q-113 0 -189 69t-76 202q0 130 75 197.5t196 67.5q100 0 158 -49.5t58 -139.5q0 -21 -2 -44.5t-4 -36.5l-2 -12q-159 -12 -324 -16q8 -58 44.5 -88.5t90.5 -30.5q45 0 94.5 18.5t80.5 43.5z
M1376 410q-39 0 -68.5 -28t-38.5 -82l176 7q4 16 4 32q0 34 -19 52.5t-54 18.5z" />
    <glyph glyph-name="W_T" horiz-adv-x="1480" 
d="M541 462l-122 -453q-44 -11 -126 -11q-103 0 -107 18l-176 684q44 4 95 4l80 -4l134 -577l149 577q34 4 86 4l93 -4l141 -577l142 577h543q1 -26 1 -58q0 -78 -17 -78h-167v-564q-39 -3 -101 -3q-59 0 -59 7v560h-85l-157 -555q-44 -11 -126 -11q-102 0 -107 18z" />
    <glyph glyph-name="c_h" horiz-adv-x="1082" 
d="M865 526q78 0 121 -40t43 -102v-384q-43 -3 -107 -3q-56 0 -56 6v323q0 73 -71 73q-46 0 -74 -24.5t-28 -56.5v-318q-41 -3 -102 -3q-62 0 -62 6v623q0 16 -37 16q-59 0 -95 -33.5t-41 -85.5q45 -6 73 -23.5t28 -43.5q0 -30 -27 -88q-62 34 -110 34q-57 0 -93 -36.5
t-36 -105.5q0 -71 36 -109.5t90 -38.5q37 0 71.5 17t53.5 36q30 -47 30 -80q0 -38 -58 -68.5t-133 -30.5q-107 0 -181 68.5t-74 202.5q0 119 64.5 186.5t169.5 79.5q2 44 19.5 83t52 73t95 54t139.5 20q124 0 124 -57v-255q20 33 65.5 59t109.5 26z" />
    <glyph glyph-name="c_k" horiz-adv-x="1021" 
d="M1004 508l-143 -247l143 -256q-88 -8 -164 -8q-10 0 -13 5l-99 209l-45 -5v-206q-2 0 -45 -1.5t-70 -1.5q-45 0 -45 3v595q0 43 -60 43q-41 0 -72.5 -34.5t-34.5 -80.5q45 -6 73 -23.5t28 -43.5q0 -30 -27 -88q-62 34 -111 34q-57 0 -92.5 -36.5t-35.5 -107.5
q0 -69 36 -107.5t90 -38.5q37 0 71.5 17t53.5 36q30 -47 30 -80q0 -38 -54 -68.5t-128 -30.5q-108 0 -186 69t-78 201q0 118 61.5 185t163.5 81q2 85 69 156t188 71q87 0 130 -31t45 -84v-342l60 6l96 209q44 6 105 6z" />
    <glyph glyph-name="c_t" horiz-adv-x="902" 
d="M861 155q22 -44 22 -76q0 -37 -46 -64t-113 -27q-77 0 -125 44.5t-48 137.5v224l-62 1l17 96q2 14 16 14h29v39q0 52 -67 52q-91 0 -115 -75q88 -16 88 -65q0 -30 -27 -88q-62 34 -111 34q-57 0 -92.5 -36.5t-35.5 -107.5q0 -69 36 -107.5t90 -38.5q37 0 71.5 17t53.5 36
q30 -47 30 -79q0 -39 -54 -69.5t-128 -30.5q-109 0 -186.5 69t-77.5 202q0 122 67.5 189.5t176.5 77.5q13 79 79.5 131t193.5 52q85 0 127 -33t42 -90v-79h163v-101q0 -16 -11 -16l-152 3v-194q0 -73 68 -73q54 0 81 31z" />
    <glyph glyph-name="f_j" horiz-adv-x="578" 
d="M247 505h130v-101q0 -15 -11 -15l-119 2v-391q-49 -3 -108 -3q-52 0 -52 6v390l-72 1v98q0 13 14 13h58v80q0 80 68.5 132.5t209.5 52.5q96 0 145.5 -24.5t49.5 -61.5q0 -10 -5.5 -29t-10.5 -33l-6 -14q-74 37 -174 37q-68 0 -92.5 -23.5t-24.5 -71.5v-45zM423 -8v513
q59 19 105 19q25 0 40 -9.5t15 -27.5v-518q0 -87 -47 -133.5t-130 -46.5q-69 0 -105 19t-36 49q0 15 3.5 36.5t7.5 35.5l3 14q38 -24 82 -24q32 0 47 16.5t15 56.5z" />
    <glyph glyph-name="f_t" horiz-adv-x="778" 
d="M752 505v-100q0 -15 -12 -15l-152 1v-194q0 -37 19 -55t50 -18q24 0 47 9t34 22q0 -1 4 -10l8 -18.5t7 -23t3 -24.5q0 -37 -46 -64t-113 -27q-78 0 -125.5 44.5t-47.5 137.5v220l-181 1v-391q-12 0 -41 -0.5t-45 -0.5q-13 0 -37.5 0.5t-36.5 0.5v394h-72v98q0 13 14 13
h58v92q0 77 52 121t159 44q66 0 100 -23.5t34 -56.5q0 -37 -19 -75q-41 31 -96 31q-39 0 -54.5 -19t-15.5 -59v-55h187l16 87q49 37 112 37q26 0 26 -15v-109h164z" />
    <glyph glyph-name="f_y" horiz-adv-x="879" 
d="M495 505l119 -363l101 366q0 5 119 5q18 0 31 -1.5t17 -2.5l5 -1l-199 -518q-45 -120 -106 -180.5t-148 -60.5q-57 0 -91 22.5t-34 56.5q0 20 5.5 40t11.5 30l5 9q38 -30 84 -30q36 0 64.5 28.5t43.5 77.5l-153 406l-123 2v-391q-13 0 -44.5 -0.5t-48.5 -0.5
q-12 0 -34.5 0.5t-32.5 0.5v393l-72 1v98q0 13 14 13h58v92q0 77 52 121t159 44q70 0 116.5 -20t46.5 -50q0 -27 -29 -85q-62 31 -115 31q-39 0 -54.5 -19t-15.5 -59v-55h248z" />
    <glyph glyph-name="s_r" horiz-adv-x="877" 
d="M536 0v511q0 46 -61 46q-36 0 -60.5 -18t-31.5 -47q52 -10 52 -34q0 -17 -3 -34t-8 -34l-5 -17q-68 48 -146 48q-76 0 -76 -46q0 -23 27 -39.5t65.5 -29.5t77 -30t65.5 -49t27 -78q0 -80 -63 -123t-159 -43q-97 0 -151.5 30.5t-54.5 70.5q0 28 18 71q2 -3 7 -7.5t21 -17
t34.5 -22t48 -17t61.5 -7.5q83 0 83 50q0 18 -19.5 32.5t-49 23.5t-64 23t-64 31t-49 48t-19.5 72q0 70 54.5 114.5t151.5 44.5q31 0 45 -2q45 150 237 150q78 0 120 -33t42 -94q0 -76 -2 -124q19 43 64 71t113 28v-136q0 -12 -13 -12q-69 0 -112 -41.5t-43 -109.5v-220
q-42 -1 -101 -1z" />
    <glyph glyph-name="s_t.alt" horiz-adv-x="889" 
d="M848 155q22 -44 22 -76q0 -37 -45.5 -64t-112.5 -27q-78 0 -125.5 44.5t-47.5 137.5v224l-63 1l14 96q2 14 16 14h33v39q0 52 -68 52q-48 0 -78.5 -22.5t-39.5 -60.5q82 -20 82 -55q0 -17 -3 -34t-8 -34l-5 -17q-68 48 -146 48q-76 0 -76 -46q0 -23 27 -39.5t65.5 -29.5
t77 -30t65.5 -49t27 -78q0 -79 -62.5 -122.5t-159.5 -43.5t-151.5 30.5t-54.5 70.5q0 28 18 71q2 -3 7 -7.5t21 -17t34.5 -22t48 -17t61.5 -7.5q83 0 83 50q0 18 -19.5 32.5t-49 23.5t-64 23t-64 31t-49 48t-19.5 72q0 71 55.5 115t154.5 44h9q12 79 78.5 131.5t193.5 52.5
q85 0 127 -33t42 -90v-79h164v-101q0 -16 -12 -16l-152 3v-194q0 -37 18.5 -55t49.5 -18q25 0 48 9t33 22z" />
    <glyph glyph-name="t_t" horiz-adv-x="830" 
d="M789 155q22 -44 22 -76q0 -37 -45.5 -64t-112.5 -27q-78 0 -126 44.5t-48 137.5v221l-229 2v-196q0 -73 68 -73q54 0 81 31q22 -44 22 -76q0 -37 -46 -64t-113 -27q-77 0 -125 44.5t-48 137.5v224l-68 1v96q0 14 14 14h54v87q71 37 134 37q27 0 27 -15v-109h229v210
q71 37 134 37q27 0 27 -15v-232h163v-101q0 -16 -11 -16l-152 1v-192q0 -37 18.5 -55t49.5 -18q54 0 81 31z" />
    <glyph glyph-name="four.dnom" horiz-adv-x="563" 
d="M518 170v-88h-82v-82h-146v82h-266v115l268 255h144v-282h82zM131 170h159v155z" />
    <glyph glyph-name="zero.numr" horiz-adv-x="532" 
d="M273 746q90 0 152.5 -57.5t62.5 -171.5q0 -118 -63.5 -178t-163.5 -60q-93 0 -155 58.5t-62 176.5q0 114 64.5 173t164.5 59zM265 373q36 0 61.5 36t25.5 107q0 70 -23.5 103t-61.5 33q-87 0 -87 -138q0 -69 24 -105t61 -36z" />
    <glyph glyph-name="Breve" horiz-adv-x="600" 
 />
    <glyph glyph-name="Circumflex" horiz-adv-x="600" 
 />
    <glyph glyph-name="Dotaccent" horiz-adv-x="600" 
 />
    <glyph glyph-name="Ring" horiz-adv-x="600" 
 />
    <glyph glyph-name="Tilde" horiz-adv-x="600" 
d="M106 745q0 8 10 14.5t34 11t59 4.5q24 0 89 -6.5t81 -6.5q45 0 71 28q10 -38 10 -79q0 -20 -23.5 -33t-60.5 -13q-26 0 -91 7t-86 7q-23 0 -44.5 -4.5t-31.5 -8.5l-10 -5q-7 18 -7 84z" />
    <glyph glyph-name="aacute.alt" 
d="M545 520q11 0 11 -6v-514q-52 -3 -111 -3l-50 3l4 73q-66 -87 -168 -87q-89 0 -147 67.5t-58 189.5q0 140 74.5 211.5t180.5 71.5q56 0 114 -20q74 14 150 14zM300 112q50 0 95 41v233q-49 15 -82 15q-56 0 -89 -38.5t-33 -107.5q0 -67 31 -105t78 -38zM537 717
l-148 -141q-47 -2 -91 -2l-63 2l-3 8q17 17 54 60.5l65.5 77t30.5 33.5q25 0 77.5 -12t77.5 -26z" />
    <glyph glyph-name="agrave.alt" 
d="M545 520q11 0 11 -6v-514q-52 -3 -111 -3l-50 3l4 73q-66 -87 -168 -87q-89 0 -147 67.5t-58 189.5q0 140 74.5 211.5t180.5 71.5q56 0 114 -20q74 14 150 14zM300 112q50 0 95 41v233q-49 15 -82 15q-56 0 -89 -38.5t-33 -107.5q0 -67 31 -105t78 -38zM119 717
q25 15 71.5 26.5t70.5 11.5q3 0 33 -31t64.5 -72t46.5 -62l-4 -8q-64 -8 -133 -8q-21 24 -58 60t-64 60z" />
    <glyph glyph-name="acircumflex.alt" 
d="M545 520q11 0 11 -6v-514q-52 -3 -111 -3l-50 3l4 73q-66 -87 -168 -87q-89 0 -147 67.5t-58 189.5q0 140 74.5 211.5t180.5 71.5q56 0 114 -20q74 14 150 14zM300 112q50 0 95 41v233q-49 15 -82 15q-56 0 -89 -38.5t-33 -107.5q0 -67 31 -105t78 -38zM392 744
q3 0 28.5 -24.5t59 -64.5t52.5 -73l-5 -7q-68 -6 -136 -6q-12 22 -30 45.5t-31 36.5l-12 13l-80 -95l-126 6l-4 7l66.5 71.5l63 67.5t23.5 23q29 6 60 6z" />
    <glyph glyph-name="adieresis.alt" 
d="M545 520q11 0 11 -6v-514q-52 -3 -111 -3l-50 3l4 73q-66 -87 -168 -87q-89 0 -147 67.5t-58 189.5q0 140 74.5 211.5t180.5 71.5q56 0 114 -20q74 14 150 14zM300 112q50 0 95 41v233q-49 15 -82 15q-56 0 -89 -38.5t-33 -107.5q0 -67 31 -105t78 -38zM218 716
q30 0 43.5 -12t13.5 -40q0 -37 -17 -51.5t-56 -14.5q-58 0 -58 57q0 61 74 61zM429 716q30 0 43.5 -12t13.5 -40q0 -37 -17 -51.5t-56 -14.5q-58 0 -58 57q0 61 74 61z" />
    <glyph glyph-name="atilde.alt" 
d="M545 520q11 0 11 -6v-514q-52 -3 -111 -3l-50 3l4 73q-66 -87 -168 -87q-89 0 -147 67.5t-58 189.5q0 140 74.5 211.5t180.5 71.5q56 0 114 -20q74 14 150 14zM300 112q50 0 95 41v233q-49 15 -82 15q-56 0 -89 -38.5t-33 -107.5q0 -67 31 -105t78 -38zM104 676
q0 21 36.5 36t92.5 15q31 0 95.5 -8t84.5 -8q33 0 59 12.5t36 23.5q18 -48 18 -85q0 -21 -32 -39.5t-82 -18.5q-31 0 -97.5 9t-93.5 9q-54 0 -101 -27q-16 43 -16 81z" />
    <glyph glyph-name="aring.alt" 
d="M545 520q11 0 11 -6v-514q-52 -3 -111 -3l-50 3l4 73q-66 -87 -168 -87q-89 0 -147 67.5t-58 189.5q0 140 74.5 211.5t180.5 71.5q56 0 114 -20q74 14 150 14zM300 112q50 0 95 41v233q-49 15 -82 15q-56 0 -89 -38.5t-33 -107.5q0 -67 31 -105t78 -38zM313 568
q-47 0 -81 34t-34 81q0 46 34.5 80t80.5 34t80 -34t34 -80t-34 -80.5t-80 -34.5zM313 638q18 0 31 13t13 32q0 18 -13 31t-31 13q-19 0 -32 -13t-13 -31q0 -19 13 -32t32 -13z" />
    <glyph glyph-name="amacron.alt" 
d="M545 520q11 0 11 -6v-514q-52 -3 -111 -3l-50 3l4 73q-66 -87 -168 -87q-89 0 -147 67.5t-58 189.5q0 140 74.5 211.5t180.5 71.5q56 0 114 -20q74 14 150 14zM300 112q50 0 95 41v233q-49 15 -82 15q-56 0 -89 -38.5t-33 -107.5q0 -67 31 -105t78 -38zM159 696h325
l-4 -97h-325z" />
    <glyph glyph-name="abreve.alt" 
d="M545 520q11 0 11 -6v-514q-52 -3 -111 -3l-50 3l4 73q-66 -87 -168 -87q-89 0 -147 67.5t-58 189.5q0 140 74.5 211.5t180.5 71.5q56 0 114 -20q74 14 150 14zM300 112q50 0 95 41v233q-49 15 -82 15q-56 0 -89 -38.5t-33 -107.5q0 -67 31 -105t78 -38zM239 748
q0 -98 64 -98q34 0 52.5 26.5t18.5 71.5q109 0 127 -13q0 -71 -55.5 -116t-144.5 -45t-136.5 43t-47.5 118q1 1 17 4t46.5 6t58.5 3z" />
    <glyph glyph-name="aogonek.alt" 
d="M545 520q11 0 11 -6v-514q-52 -3 -111 -3l-50 3l4 73q-66 -87 -168 -87q-89 0 -147 67.5t-58 189.5q0 140 74.5 211.5t180.5 71.5q56 0 114 -20q74 14 150 14zM300 112q50 0 95 41v233q-49 15 -82 15q-56 0 -89 -38.5t-33 -107.5q0 -67 31 -105t78 -38zM505 0h51
q-13 -25 -56.5 -61t-43.5 -52q0 -27 37 -27q22 0 42.5 11.5t29.5 22.5l9 11q18 -13 18 -36q0 -31 -34.5 -55.5t-87.5 -24.5q-105 0 -105 73q0 24 18 44.5t41 32.5t47.5 29t33.5 32z" />
    <glyph glyph-name="Aacute.alt" horiz-adv-x="638" 
d="M463 689l181 -689q-46 -3 -111 -3q-64 0 -64 3l-39 164h-248l-40 -164q-42 -3 -100 -3l-52 3l192 691q77 15 184 15q91 0 97 -17zM209 277h194l-68 282h-57zM550 895l-148 -141q-47 -2 -91 -2l-63 2l-3 8q17 17 54 60.5l65.5 77t30.5 33.5q25 0 77.5 -12t77.5 -26z" />
    <glyph glyph-name="Agrave.alt" horiz-adv-x="638" 
d="M463 689l181 -689q-46 -3 -111 -3q-64 0 -64 3l-39 164h-248l-40 -164q-42 -3 -100 -3l-52 3l192 691q77 15 184 15q91 0 97 -17zM209 277h194l-68 282h-57zM97 886q25 15 71.5 26.5t70.5 11.5q3 0 33 -31t64.5 -72t46.5 -62l-4 -8q-64 -8 -133 -8q-21 24 -58 60t-64 59z
" />
    <glyph glyph-name="Acircumflex.alt" horiz-adv-x="638" 
d="M463 689l181 -689q-46 -3 -111 -3q-64 0 -64 3l-39 164h-248l-40 -164q-42 -3 -100 -3l-52 3l192 691q77 15 184 15q91 0 97 -17zM209 277h194l-68 282h-57zM389 919q3 0 28.5 -24.5t59 -64.5t52.5 -73l-5 -7q-68 -6 -136 -6q-12 22 -30.5 45.5t-30.5 36.5l-12 13
l-80 -95l-126 6l-4 7l66.5 71.5l63 67.5t23.5 23q29 6 60 6z" />
    <glyph glyph-name="Adieresis.alt" horiz-adv-x="638" 
d="M463 689l181 -689q-46 -3 -111 -3q-64 0 -64 3l-39 164h-248l-40 -164q-42 -3 -100 -3l-52 3l192 691q77 15 184 15q91 0 97 -17zM209 277h194l-68 282h-57zM225 867q30 0 43.5 -12t13.5 -40q0 -37 -17 -51.5t-56 -14.5q-58 0 -58 57q0 61 74 61zM436 867q30 0 43.5 -12
t13.5 -40q0 -37 -17 -51.5t-56 -14.5q-58 0 -58 57q0 61 74 61z" />
    <glyph glyph-name="Atilde.alt" horiz-adv-x="638" 
d="M463 689l181 -689q-46 -3 -111 -3q-64 0 -64 3l-39 164h-248l-40 -164q-42 -3 -100 -3l-52 3l192 691q77 15 184 15q91 0 97 -17zM209 277h194l-68 282h-57zM113 823q0 21 36.5 36t92.5 15q31 0 95.5 -8t84.5 -8q33 0 59 12.5t36 23.5q18 -48 18 -85q0 -21 -32 -39.5
t-82 -18.5q-31 0 -97.5 9t-93.5 9q-54 0 -101 -27q-16 43 -16 81z" />
    <glyph glyph-name="Aring.alt" horiz-adv-x="638" 
d="M463 689l181 -689q-46 -3 -111 -3q-64 0 -64 3l-39 164h-248l-40 -164q-42 -3 -100 -3l-52 3l192 691q77 15 184 15q91 0 97 -17zM209 277h194l-68 282h-57zM323 741q-47 0 -81 34.5t-34 80.5t34.5 80t80.5 34t80 -34t34 -80t-34 -80.5t-80 -34.5zM323 811q18 0 31 13
t13 32q0 18 -13 31t-31 13q-19 0 -32 -13t-13 -31q0 -19 13 -32t32 -13z" />
    <glyph glyph-name="Amacron.alt" horiz-adv-x="638" 
d="M463 689l181 -689q-46 -3 -111 -3q-64 0 -64 3l-39 164h-248l-40 -164q-42 -3 -100 -3l-52 3l192 691q77 15 184 15q91 0 97 -17zM209 277h194l-68 282h-57zM161 851h325l-4 -97h-325z" />
    <glyph glyph-name="Abreve.alt" horiz-adv-x="638" 
d="M463 689l181 -689q-46 -3 -111 -3q-64 0 -64 3l-39 164h-248l-40 -164q-42 -3 -100 -3l-52 3l192 691q77 15 184 15q91 0 97 -17zM209 277h194l-68 282h-57zM253 921q0 -98 64 -98q34 0 52.5 26.5t18.5 71.5q109 0 127 -13q0 -71 -55.5 -116t-144.5 -45t-136.5 43
t-47.5 118q1 1 17 4t46.5 6t58.5 3z" />
    <glyph glyph-name="Aogonek.alt" horiz-adv-x="638" 
d="M463 689l181 -689q-46 -3 -111 -3q-64 0 -64 3l-39 164h-248l-40 -164q-42 -3 -100 -3l-52 3l192 691q77 15 184 15q91 0 97 -17zM209 277h194l-68 282h-57zM593 0h51q-13 -25 -56.5 -61t-43.5 -52q0 -27 37 -27q22 0 42.5 11.5t29.5 22.5l9 11q18 -13 18 -36
q0 -31 -34.5 -55.5t-87.5 -24.5q-105 0 -105 73q0 24 18 44.5t41 32.5t47.5 29t33.5 32z" />
    <glyph glyph-name="g.alt" horiz-adv-x="606" 
d="M389 59q-54 -73 -151 -73q-94 0 -153 70t-59 196q0 135 74.5 204.5t179.5 69.5q59 0 115 -20q87 13 135 13q20 0 20 -3v-542q0 -98 -73 -155t-212 -57q-99 0 -157.5 29.5t-58.5 71.5q0 16 4.5 36t8.5 33l5 12q3 -3 8.5 -7.5t24.5 -17t39.5 -22t52 -17t63.5 -7.5
q66 0 100 26.5t34 75.5v84zM295 112q62 0 94 53v223q-45 13 -79 13q-53 0 -87 -35.5t-34 -105.5t29 -109t77 -39z" />
    </font>
</defs>
</svg>
