<?xml version="1.0" standalone="no"?>
<!DOCTYPE svg PUBLIC "-//W3C//DTD SVG 1.1//EN" "http://www.w3.org/Graphics/SVG/1.1/DTD/svg11.dtd" >
<svg>
<metadata>
Created by FontForge 20090622 at Thu Jun 16 15:06:27 2016
 By deploy user
Copyright &#194;&#169; 2013 by Rene Bieder. All rights reserved.
</metadata>
<defs>
<font id="Gentona-Bold" horiz-adv-x="495" >
  <font-face 
    font-family="Gentona Book"
    font-weight="700"
    font-stretch="normal"
    units-per-em="1000"
    panose-1="0 0 8 0 0 0 0 0 0 0"
    ascent="800"
    descent="-200"
    x-height="483"
    cap-height="610"
    bbox="-111 -235 1272 893"
    underline-thickness="50"
    underline-position="-50"
    unicode-range="U+0020-U+FB02"
  />
<missing-glyph horiz-adv-x="760" 
d="M663 0h-565v610h565v-610zM138 570v-530h485v530h-485zM348 236l-5 66q109 12 109 76q0 26 -18 41.5t-48 15.5q-45 0 -106 -22l-11 29q65 26 117 26q46 0 75 -24.5t29 -65.5t-30.5 -67t-78.5 -33v-42h-33zM364 179q22 0 22 -22q0 -24 -22 -24q-23 0 -23 24q0 22 23 22z
" />
    <glyph glyph-name="fi" unicode="fi" horiz-adv-x="633" 
d="M498 542q-38 0 -64 21.5t-26 60.5t26 60t64 21t64 -21t26 -60t-26 -60.5t-64 -21.5zM575 0h-160v352h-177v-352h-160v352h-67v131h67v15q0 97 45 141t145 44q44 0 111 -14l-13 -106q-64 2 -68 2q-35 0 -47.5 -16.5t-12.5 -50.5v-15h337v-483z" />
    <glyph glyph-name="fl" unicode="fl" horiz-adv-x="622" 
d="M573 0h-160v561q-65 4 -115 4q-35 0 -47.5 -16.5t-12.5 -50.5v-15h119v-131h-119v-352h-160v352h-67v131h67v15q0 97 45 141t145 44q42 0 145 -22v14h160v-675z" />
    <glyph glyph-name="f_f" unicode="ff" horiz-adv-x="731" 
d="M733 672l-11 -109q-46 2 -63 2q-36 0 -50 -17t-14 -50v-15h123v-131h-123v-352h-160v352h-201v-352h-160v352h-63v131h63v15q0 96 47 140.5t147 44.5q52 0 104 -11l-11 -109q-46 2 -63 2q-36 0 -50 -17t-14 -50v-15h201v15q0 96 47 140.5t147 44.5q52 0 104 -11z" />
    <glyph glyph-name="f_f_i" unicode="ffi" horiz-adv-x="978" 
d="M843 542q-38 0 -64 21.5t-26 60.5t26 60t64 21t64 -21t26 -60t-26 -60.5t-64 -21.5zM583 483h338v-483h-160v352h-178v-352h-160v352h-189v-352h-160v352h-63v131h63v15q0 96 47 140.5t147 44.5q52 0 104 -11l-11 -109q-46 2 -63 2q-36 0 -50 -17t-14 -50v-15h189v15
q0 97 45.5 141t145.5 44q38 0 100 -12l-12 -108q-56 2 -58 2q-36 0 -48.5 -16.5t-12.5 -50.5v-15z" />
    <glyph glyph-name="f_f_l" unicode="ffl" horiz-adv-x="961" 
d="M912 675v-675h-160v561q-49 3 -115 3q-36 0 -48.5 -16t-12.5 -50v-16h120v-130h-120v-352h-160v352h-182v-352h-160v352h-63v130h63v16q0 96 47 140.5t147 44.5q52 0 104 -11l-11 -109q-23 1 -63 1q-36 0 -50 -17t-14 -50v-15h182v16q0 97 45.5 141t145.5 44
q42 0 145 -22v14h160z" />
    <glyph glyph-name=".notdef" horiz-adv-x="760" 
d="M663 0h-565v610h565v-610zM138 570v-530h485v530h-485zM348 236l-5 66q109 12 109 76q0 26 -18 41.5t-48 15.5q-45 0 -106 -22l-11 29q65 26 117 26q46 0 75 -24.5t29 -65.5t-30.5 -67t-78.5 -33v-42h-33zM364 179q22 0 22 -22q0 -24 -22 -24q-23 0 -23 24q0 22 23 22z
" />
    <glyph glyph-name=".null" horiz-adv-x="0" 
 />
    <glyph glyph-name="nonmarkingreturn" horiz-adv-x="333" 
 />
    <glyph glyph-name="space" unicode=" " horiz-adv-x="200" 
 />
    <glyph glyph-name="exclam" unicode="!" horiz-adv-x="262" 
d="M69 218l-23 392h170l-23 -392h-124zM131 144q33 0 54 -21.5t21 -53.5t-21 -54t-54 -22t-54 22t-21 54t21 53.5t54 21.5z" />
    <glyph glyph-name="quotedbl" unicode="&#x22;" horiz-adv-x="413" 
d="M213 645l-36 -256h-107v256h143zM375 645l-36 -256h-107v256h143z" />
    <glyph glyph-name="numbersign" unicode="#" horiz-adv-x="708" 
d="M526 219h104l-22 -116h-105l-20 -103h-126l21 103h-117l-21 -103h-125l20 103h-100l22 116h101l23 112h-100l22 117h101l20 102h125l-20 -102h117l21 102h125l-21 -102h105l-22 -117h-106zM306 331l-22 -112h117l22 112h-117z" />
    <glyph glyph-name="dollar" unicode="$" horiz-adv-x="551" 
d="M488 506l-36 -111q-130 45 -193 45q-27 0 -42.5 -11t-15.5 -28q0 -21 23 -32.5t114 -37.5q89 -26 127.5 -65.5t38.5 -106.5q0 -70 -49 -114.5t-138 -51.5v-55h-103v60q-101 16 -191 70l51 114q122 -70 209 -70q67 0 67 42q0 21 -26 34t-112 40q-92 28 -128 68.5
t-36 104.5q0 65 43.5 106t122.5 48v58h103v-62q73 -9 171 -45z" />
    <glyph glyph-name="percent" unicode="%" horiz-adv-x="876" 
d="M199 620q167 0 167 -189q0 -186 -167 -186q-168 0 -168 186q0 189 168 189zM653 610l-343 -610h-89l343 610h89zM199 338q35 0 49 22.5t14 70.5q0 50 -14 73t-49 23q-36 0 -50 -23t-14 -73q0 -48 14 -70.5t50 -22.5zM678 367q167 0 167 -189q0 -187 -167 -187
q-168 0 -168 187q0 189 168 189zM678 84q35 0 49 23t14 71q0 50 -14 73t-49 23q-36 0 -50 -23t-14 -73q0 -49 14.5 -71.5t49.5 -22.5z" />
    <glyph glyph-name="ampersand" unicode="&#x26;" horiz-adv-x="670" 
d="M580 1l-87 67q-42 -42 -87 -59.5t-105 -17.5q-129 0 -197 46t-68 137q0 49 28.5 84t96.5 70q-61 61 -61 137q0 74 54.5 114.5t152.5 40.5q82 0 131.5 -41t49.5 -109q0 -45 -28 -86.5t-83 -70.5l93 -68q9 13 26.5 41t21.5 34l103 -64q-32 -57 -50 -85l82 -61zM242 459
q0 -37 45 -77q81 33 81 77q0 59 -61 59q-27 0 -46 -16t-19 -43zM393 146l-145 112q-56 -31 -56 -64q0 -39 32 -60t77 -21q53 0 92 33z" />
    <glyph glyph-name="quotesingle" unicode="'" horiz-adv-x="251" 
d="M213 645l-36 -256h-107v256h143z" />
    <glyph glyph-name="parenleft" unicode="(" horiz-adv-x="343" 
d="M222 661l98 -53q-115 -185 -115 -367q0 -183 115 -366l-98 -54q-159 184 -159 420t159 420z" />
    <glyph glyph-name="parenright" unicode=")" horiz-adv-x="335" 
d="M18 608l98 53q160 -186 160 -420t-160 -420l-98 54q115 183 115 366q0 182 -115 367z" />
    <glyph glyph-name="asterisk" unicode="*" horiz-adv-x="450" 
d="M373 304l-58 -50l-90 92l-91 -92l-59 50l68 99l-106 48l24 73l112 -28l10 114h83l9 -115l114 29l23 -73l-107 -48z" />
    <glyph glyph-name="plus" unicode="+" horiz-adv-x="504" 
d="M308 185v-149h-113v149h-150v114h150v150h113v-150h151v-113z" />
    <glyph glyph-name="comma" unicode="," horiz-adv-x="281" 
d="M81 -135l-37 46q54 43 71 87q-29 8 -46 31.5t-17 54.5q0 39 25 64.5t65 25.5t65.5 -28t25.5 -70q0 -55 -41 -113t-111 -98z" />
    <glyph glyph-name="hyphen" unicode="-" horiz-adv-x="409" 
d="M352 346v-140h-295v140h295z" />
    <glyph glyph-name="period" unicode="." horiz-adv-x="278" 
d="M49 84q0 39 25 64.5t65 25.5t65 -25.5t25 -64.5t-25 -65t-65 -26t-65 26t-25 65z" />
    <glyph glyph-name="slash" unicode="/" horiz-adv-x="455" 
d="M413 655l-269 -863h-132l266 863h135z" />
    <glyph glyph-name="zero" unicode="0" horiz-adv-x="625" 
d="M313 620q139 0 208.5 -81t69.5 -235q0 -153 -69.5 -233t-208.5 -80t-209 80t-70 233q0 154 70 235t209 81zM313 137q62 0 87.5 40.5t25.5 126.5q0 88 -25.5 129t-87.5 41q-63 0 -88.5 -41t-25.5 -129q0 -86 26 -126.5t88 -40.5z" />
    <glyph glyph-name="one" unicode="1" horiz-adv-x="509" 
d="M475 0h-424v136h139v298q-62 -17 -136 -24l-31 95q103 36 199 105h128v-474h125v-136z" />
    <glyph glyph-name="two" unicode="2" horiz-adv-x="538" 
d="M508 0h-478v115l69.5 55l65.5 51.5l54.5 44.5t48.5 43t34.5 36.5t24.5 35.5t7 30q0 35 -21.5 54t-57.5 19q-73 0 -195 -51l-44 113q163 74 268 74q100 0 159 -56t59 -150q0 -41 -18 -77.5t-58.5 -73.5t-79 -64t-104.5 -69q80 6 115 6h151v-136z" />
    <glyph glyph-name="three" unicode="3" horiz-adv-x="559" 
d="M70 452l-34 107q138 60 255 60q95 0 156.5 -47.5t61.5 -124.5q0 -50 -25 -84.5t-65 -49.5q107 -42 107 -134q0 -89 -64.5 -138.5t-175.5 -49.5q-146 0 -270 65l45 110q106 -47 217 -47q93 0 93 63q0 67 -130 67h-85v119h85q63 0 91 12.5t28 42.5q0 33 -24.5 51.5
t-66.5 18.5q-78 0 -199 -41z" />
    <glyph glyph-name="four" unicode="4" horiz-adv-x="619" 
d="M512 0h-160v111h-327l-8 121l335 378h160v-362h87v-137h-87v-111zM352 248v188q-20 -26 -47 -57l-63 -71q-20 -23 -59 -60h169z" />
    <glyph glyph-name="five" unicode="5" horiz-adv-x="567" 
d="M218 474l-10 -122q55 38 133 38q90 0 141 -50t51 -138q0 -99 -69 -155t-173 -56q-151 0 -275 65l45 118q106 -47 207 -47q47 0 79 22t32 60q0 34 -24.5 55.5t-66.5 21.5q-48 0 -99 -40l-131 19l21 345h429v-136h-290z" />
    <glyph glyph-name="six" unicode="6" horiz-adv-x="583" 
d="M536 580l-39 -113q-88 22 -144 22q-135 -1 -158 -146q67 52 168 52q87 0 141 -52t54 -136q0 -100 -65 -158t-180 -58q-134 0 -206.5 76t-72.5 209q0 159 85.5 251.5t225.5 92.5q97 0 191 -40zM313 120q41 0 67 25.5t26 68.5q0 36 -26 57.5t-69 21.5q-73 0 -116 -60
q19 -113 118 -113z" />
    <glyph glyph-name="seven" unicode="7" horiz-adv-x="499" 
d="M488 610v-121q-69 -100 -128.5 -231.5t-93.5 -257.5h-190q103 293 236 474h-298v136h474z" />
    <glyph glyph-name="eight" unicode="8" horiz-adv-x="580" 
d="M426 333q69 -29 101.5 -65.5t32.5 -93.5q0 -87 -69.5 -135t-190.5 -48q-146 0 -213 46.5t-67 136.5q0 96 117 147q-91 50 -91 130q0 81 66 125t186 44q114 0 174 -42t60 -119q0 -84 -106 -126zM291 518q-40 0 -64 -17.5t-24 -46.5q0 -27 23 -44.5t83 -37.5q75 28 75 84
q0 28 -25.5 45t-67.5 17zM285 113q47 0 74.5 18.5t27.5 49.5q0 29 -30 49t-109 47q-72 -34 -72 -91q0 -35 29.5 -54t79.5 -19z" />
    <glyph glyph-name="nine" unicode="9" horiz-adv-x="583" 
d="M50 34l39 112q90 -24 146 -24q66 1 101 35.5t44 104.5q-60 -51 -160 -51q-87 0 -141 54.5t-54 139.5q0 100 65.5 157.5t182.5 57.5q132 0 200.5 -75.5t68.5 -209.5q0 -171 -77 -257.5t-222 -86.5q-100 0 -193 43zM272 318q60 0 109 56q-14 117 -108 117q-43 0 -69.5 -25
t-26.5 -69q0 -36 26 -57.5t69 -21.5z" />
    <glyph glyph-name="colon" unicode=":" horiz-adv-x="278" 
d="M49 385q0 39 25 64.5t65 25.5t65 -25.5t25 -64.5t-25 -65t-65 -26t-65 26t-25 65zM49 84q0 39 25 64.5t65 25.5t65 -25.5t25 -64.5t-25 -65t-65 -26t-65 26t-25 65z" />
    <glyph glyph-name="semicolon" unicode=";" horiz-adv-x="281" 
d="M49 384q0 39 25 65t65 26t65 -26t25 -65t-25 -64.5t-65 -25.5t-65 25.5t-25 64.5zM81 -135l-37 46q54 43 71 87q-29 8 -46 31.5t-17 54.5q0 39 25 64.5t65 25.5t65.5 -28t25.5 -70q0 -55 -41 -113t-111 -98z" />
    <glyph glyph-name="less" unicode="&#x3c;" horiz-adv-x="416" 
d="M240 280l-35 -24l36 -25l127 -105l-70 -84l-266 214l265 215l71 -86z" />
    <glyph glyph-name="equal" unicode="=" horiz-adv-x="494" 
d="M45 281v98h404v-98h-404zM45 113v99h404v-99h-404z" />
    <glyph glyph-name="greater" unicode="&#x3e;" horiz-adv-x="417" 
d="M48 384l71 87l265 -215l-266 -214l-70 84l127 105l36 25l-35 24z" />
    <glyph glyph-name="question" unicode="?" horiz-adv-x="540" 
d="M65 433l-44 113q86 39 147 56.5t121 17.5q99 0 159 -53.5t60 -137.5q0 -71 -55 -119t-154 -68l3 -49h-128l-23 148q105 3 147 20.5t42 49.5q0 35 -22 54.5t-58 19.5q-71 0 -195 -52zM239 144q33 0 54.5 -22t21.5 -54t-21.5 -53.5t-54.5 -21.5t-54 21.5t-21 53.5t21 54
t54 22z" />
    <glyph glyph-name="at" unicode="@" horiz-adv-x="884" 
d="M647 419v-282q0 -43 7.5 -57t25.5 -14q15 0 30 7t32 24.5t28 56.5t12 94q0 141 -87.5 225.5t-237.5 84.5q-158 0 -256 -97.5t-98 -255.5q0 -153 89.5 -241.5t239.5 -88.5q125 0 247 48l22 -54q-113 -62 -269 -62q-179 0 -288.5 109.5t-109.5 288.5q0 185 119 300t304 115
q178 0 285.5 -103t107.5 -269q-1 -65 -16.5 -114t-37.5 -75.5t-52 -42.5t-53 -20.5t-48 -4.5q-95 0 -120 64q-39 -37 -71 -50.5t-81 -13.5q-158 0 -158 217q0 219 162 219q75 0 135 -57v49h137zM510 137v134q-36 41 -85 41q-39 0 -58.5 -23.5t-19.5 -80.5q0 -61 18 -85.5
t57 -24.5q44 0 88 36v3z" />
    <glyph glyph-name="A" unicode="A" horiz-adv-x="695" 
d="M218 97l-34 -97h-175l228 610h222l227 -610h-174l-34 97h-260zM426 245l-61 175q-14 44 -17 56l-18 -56l-61 -175h157z" />
    <glyph glyph-name="B" unicode="B" horiz-adv-x="603" 
d="M58 610h242q113 0 174.5 -44.5t61.5 -126.5q0 -86 -92 -117q132 -33 132 -148q0 -83 -71 -128.5t-202 -45.5h-245v610zM221 475v-99h98q63 0 63 48q0 51 -82 51h-79zM221 250v-115h87q47 0 73 15.5t26 44.5q0 55 -88 55h-98z" />
    <glyph glyph-name="C" unicode="C" horiz-adv-x="612" 
d="M542 182l53 -121q-126 -70 -260 -70q-140 0 -220.5 82t-80.5 231q0 151 82 233.5t229 82.5q122 0 228 -55l-49 -122q-108 31 -171 31q-154 0 -154 -170q0 -75 39.5 -121t104.5 -46q87 0 199 45z" />
    <glyph glyph-name="D" unicode="D" horiz-adv-x="657" 
d="M58 610h216q164 0 256.5 -83t92.5 -223q0 -138 -93.5 -221t-255.5 -83h-216v610zM221 143h53q184 0 184 161q0 84 -44.5 123.5t-139.5 39.5h-53v-324z" />
    <glyph glyph-name="E" unicode="E" horiz-adv-x="560" 
d="M516 0h-458v610h450v-148h-287v-92h245v-140h-245v-85h295v-145z" />
    <glyph glyph-name="F" unicode="F" horiz-adv-x="526" 
d="M221 338h240v-140h-240v-198h-163v610h442v-148h-279v-124z" />
    <glyph glyph-name="G" unicode="G" horiz-adv-x="673" 
d="M629 347v-280q-153 -76 -296 -76q-139 0 -219 82t-80 231q0 142 83.5 229t220.5 87q140 0 264 -55l-41 -121q-125 34 -208 34q-70 0 -112 -48t-42 -126q0 -82 37 -125.5t104 -43.5q86 0 148 23v61h-156v128h297z" />
    <glyph glyph-name="H" unicode="H" horiz-adv-x="672" 
d="M614 0h-163v233h-230v-233h-163v610h163v-229h230v229h163v-610z" />
    <glyph glyph-name="I" unicode="I" horiz-adv-x="279" 
d="M221 0h-163v610h163v-610z" />
    <glyph glyph-name="J" unicode="J" horiz-adv-x="485" 
d="M423 610v-368q0 -131 -49 -191t-158 -60q-95 0 -205 54l37 118q78 -24 130 -24q82 0 82 103v368h163z" />
    <glyph glyph-name="K" unicode="K" horiz-adv-x="645" 
d="M300 210l-79 -94v-116h-163v610h163v-270l228 270h176v-11l-219 -261l229 -327v-11h-184z" />
    <glyph glyph-name="L" unicode="L" horiz-adv-x="520" 
d="M493 0h-435v610h163v-462h272v-148z" />
    <glyph glyph-name="M" unicode="M" horiz-adv-x="836" 
d="M617 0l-7 322v28l-143 -350h-98l-142 350v-24l-8 -326h-164l24 610h182l142 -332q8 -21 15 -46q7 25 15 46l142 332h182l24 -610h-164z" />
    <glyph glyph-name="N" unicode="N" horiz-adv-x="685" 
d="M627 0h-148l-258 344v-344h-163v610h148l258 -348v348h163v-610z" />
    <glyph glyph-name="O" unicode="O" horiz-adv-x="685" 
d="M343 620q145 0 226.5 -82.5t81.5 -233.5q0 -150 -81.5 -231.5t-226.5 -81.5q-146 0 -227.5 81.5t-81.5 231.5q0 151 81.5 233.5t227.5 82.5zM343 137q68 0 105.5 42.5t37.5 124.5q0 84 -37.5 127t-105.5 43q-69 0 -106.5 -43t-37.5 -127q0 -82 37.5 -124.5t106.5 -42.5z
" />
    <glyph glyph-name="P" unicode="P" horiz-adv-x="592" 
d="M58 610h244q129 0 198.5 -61.5t69.5 -175.5q0 -112 -68 -172.5t-193 -60.5h-88v-140h-163v610zM221 278h87q50 0 77 24.5t27 70.5q0 47 -29 72t-82 25h-80v-192z" />
    <glyph glyph-name="Q" unicode="Q" horiz-adv-x="670" 
d="M636 304q0 -151 -78 -232t-223 -81t-223 81t-78 232q0 152 78 234t223 82t223 -82t78 -234zM199 304q0 -167 136 -167t136 167q0 170 -136 170t-136 -170zM258 -131l25 94q91 -23 151.5 -30.5t152.5 -7.5v-126q-161 0 -329 70z" />
    <glyph glyph-name="R" unicode="R" horiz-adv-x="608" 
d="M600 13v-13h-174l-122 170h-83v-170h-163v610h253q129 0 199 -59.5t70 -168.5q0 -134 -116 -185zM221 297h92q51 0 78.5 22t27.5 63q0 42 -27.5 65t-78.5 23h-92v-173z" />
    <glyph glyph-name="S" unicode="S" horiz-adv-x="582" 
d="M527 562l-48 -119q-124 46 -198 46q-27 0 -45.5 -10.5t-18.5 -29.5q0 -21 27 -35t127 -48q93 -32 128.5 -73t35.5 -117q0 -85 -59 -135t-165 -50q-62 0 -144.5 23t-143.5 60l61 127q129 -71 218 -71q56 0 56 41q0 20 -23.5 32.5t-110.5 38.5q-174 52 -174 195
q0 81 56 132t157 51q133 0 264 -58z" />
    <glyph glyph-name="T" unicode="T" horiz-adv-x="576" 
d="M558 462h-189v-462h-163v462h-188v148h540v-148z" />
    <glyph glyph-name="U" unicode="U" horiz-adv-x="663" 
d="M610 610v-319q0 -152 -69 -226t-210 -74q-140 0 -209 74t-69 226v319h163v-319q0 -154 115 -154q116 0 116 154v319h163z" />
    <glyph glyph-name="V" unicode="V" horiz-adv-x="671" 
d="M426 0h-181l-233 610h181l124 -383q7 -21 19 -63q8 32 18 63l132 383h173z" />
    <glyph glyph-name="W" unicode="W" horiz-adv-x="930" 
d="M751 0h-193l-76 279q-10 52 -17 94q-7 -42 -17 -94l-76 -279h-193l-160 610h171l84 -363q7 -35 12 -79q1 7 13 79l78 363h176l78 -363q5 -29 12 -76q5 43 12 76l85 363h171z" />
    <glyph glyph-name="X" unicode="X" horiz-adv-x="656" 
d="M645 0h-178l-121 181l-18 28l-18 -28l-122 -181h-177l192 307l-190 303h182l115 -170q12 -20 18 -29q3 5 9.5 15t8.5 14l115 170h182l-190 -303z" />
    <glyph glyph-name="Y" unicode="Y" horiz-adv-x="638" 
d="M400 192v-192h-162v192l-229 418h171l102 -192q24 -45 37 -77q13 32 37 77l102 192h171z" />
    <glyph glyph-name="Z" unicode="Z" horiz-adv-x="605" 
d="M569 0h-529v119l313 347q-88 -4 -132 -4h-158v148h502v-127l-291 -340q72 5 126 5h169v-148z" />
    <glyph glyph-name="bracketleft" unicode="[" horiz-adv-x="390" 
d="M370 537h-139v-593h139v-122h-284v838h284v-123z" />
    <glyph glyph-name="backslash" unicode="\" horiz-adv-x="455" 
d="M445 -208h-131l-270 863h135z" />
    <glyph glyph-name="bracketright" unicode="]" horiz-adv-x="390" 
d="M307 660v-838h-284v122h139v593h-139v123h284z" />
    <glyph glyph-name="asciicircum" unicode="^" horiz-adv-x="505" 
d="M340 336l-58 115q-20 38 -29 67h-1q-9 -29 -29 -67l-58 -115h-127l166 309h98l166 -309h-128z" />
    <glyph glyph-name="underscore" unicode="_" horiz-adv-x="489" 
d="M54 -150v113h381v-113h-381z" />
    <glyph glyph-name="grave" unicode="`" 
d="M354 565l-39 -41q-113 47 -190 104v32l100 70z" />
    <glyph glyph-name="a" unicode="a" horiz-adv-x="526" 
d="M95 348l-24 108q139 36 211 36q105 0 151.5 -47t46.5 -152v-293h-156v57q-64 -66 -141 -66q-80 0 -119.5 35t-39.5 117q0 150 204 150h96q0 42 -15 59t-57 17q-60 0 -157 -21zM324 208h-75q-43 0 -61 -8.5t-18 -37.5q0 -26 17.5 -41.5t47.5 -15.5q49 0 89 42v61z" />
    <glyph glyph-name="b" unicode="b" horiz-adv-x="573" 
d="M209 645v-226q70 73 154 73q90 0 135.5 -59.5t45.5 -186.5q0 -128 -54.5 -191.5t-137.5 -63.5q-51 0 -79.5 14.5t-63.5 48.5v-54h-160v645h160zM209 304v-130q20 -27 40.5 -39.5t51.5 -12.5q86 0 86 124q0 113 -82 113q-55 0 -96 -55z" />
    <glyph glyph-name="c" unicode="c" horiz-adv-x="492" 
d="M431 155l47 -91q-50 -39 -99.5 -56t-117.5 -17q-101 0 -166.5 65t-65.5 183q0 122 64 187.5t170 65.5q108 0 198 -53l-44 -101q-63 27 -132 27q-47 0 -73 -32.5t-26 -93.5q0 -58 25.5 -89.5t72.5 -31.5q76 0 147 37z" />
    <glyph glyph-name="d" unicode="d" horiz-adv-x="574" 
d="M365 0v54q-35 -34 -63.5 -48.5t-80.5 -14.5q-83 0 -137.5 63.5t-54.5 191.5q0 126 47.5 186t134.5 60q91 0 154 -66v219h160v-645h-160zM365 174v130q-41 55 -97 55q-82 0 -82 -113q0 -124 87 -124q32 0 52.5 12.5t39.5 39.5z" />
    <glyph glyph-name="e" unicode="e" horiz-adv-x="529" 
d="M451 159l45 -90q-104 -78 -223 -78q-114 0 -179 63.5t-65 183.5q0 124 65 189t180 65q104 0 164 -59.5t61 -172.5q0 -32 -4 -65h-312q16 -80 97 -80q88 0 171 44zM182 290h180q-6 91 -88 91q-79 0 -92 -91z" />
    <glyph glyph-name="f" unicode="f" horiz-adv-x="370" 
d="M372 672l-11 -109q-46 2 -63 2q-36 0 -50 -17t-14 -50v-15h123v-131h-123v-352h-160v352h-63v131h63v15q0 96 47 140.5t147 44.5q52 0 104 -11z" />
    <glyph glyph-name="g" unicode="g" horiz-adv-x="568" 
d="M524 483v-399q0 -135 -61 -196.5t-184 -61.5t-213 41l21 109q114 -29 170 -29t81.5 31t25.5 106v3q-30 -37 -62 -51.5t-88 -14.5q-86 0 -135.5 59t-49.5 173q0 239 182 239q79 0 153 -63v54h160zM364 197v107q-41 55 -96 55q-42 0 -62 -24t-20 -82q0 -109 87 -109
q32 0 52 12.5t39 40.5z" />
    <glyph glyph-name="h" unicode="h" horiz-adv-x="566" 
d="M209 645v-236q74 83 159 83q78 0 115 -44t37 -141v-307h-160v252q0 46 -11.5 63.5t-44.5 17.5q-51 0 -95 -56v-277h-160v645h160z" />
    <glyph glyph-name="i" unicode="i" horiz-adv-x="269" 
d="M45 624q0 39 26 60t64 21t64 -21t26 -60t-26 -60.5t-64 -21.5t-64 21.5t-26 60.5zM215 0h-160v483h160v-483z" />
    <glyph glyph-name="j" unicode="j" horiz-adv-x="269" 
d="M133 542q-38 0 -64 21.5t-26 60.5t26 60t64 21t64 -21t26 -60t-26 -60.5t-64 -21.5zM214 483v-425q0 -99 -42.5 -155t-148.5 -79l-32 106q39 21 51 48t12 80v425h160z" />
    <glyph glyph-name="k" unicode="k" horiz-adv-x="558" 
d="M545 483v-11l-183 -195l187 -266v-11h-179l-113 159l-48 -53v-106h-160v645h160v-330l157 168h179z" />
    <glyph glyph-name="l" unicode="l" horiz-adv-x="258" 
d="M209 0h-160v645h160v-645z" />
    <glyph glyph-name="m" unicode="m" horiz-adv-x="846" 
d="M209 483v-64q68 73 144 73q108 -2 138 -82q78 81 160 81q75 0 112 -44t37 -140v-307h-160v262q0 43 -11.5 62t-39.5 19q-40 0 -83 -49v-294h-160v262q0 81 -54 81q-41 0 -83 -52v-291h-160v483h160z" />
    <glyph glyph-name="n" unicode="n" horiz-adv-x="566" 
d="M209 483v-63q80 72 159 72q78 0 115 -44t37 -141v-307h-160v262q0 46 -11.5 63.5t-44.5 17.5q-51 0 -95 -55v-288h-160v483h160z" />
    <glyph glyph-name="o" unicode="o" horiz-adv-x="561" 
d="M280 492q120 0 186 -66t66 -187q0 -118 -66 -183t-186 -65q-119 0 -185 65t-66 183q0 121 66 187t185 66zM280 118q48 0 71.5 28t23.5 93q0 68 -23.5 97t-71.5 29q-47 0 -70.5 -29.5t-23.5 -96.5q0 -65 23.5 -93t70.5 -28z" />
    <glyph glyph-name="p" unicode="p" horiz-adv-x="573" 
d="M209 483v-53q76 62 154 62q90 0 135.5 -59.5t45.5 -186.5q0 -128 -54.5 -191.5t-137.5 -63.5q-51 0 -80 14.5t-63 47.5v-207h-160v637h160zM209 305v-132q20 -27 40.5 -39t51.5 -12q86 0 86 124q0 113 -82 113q-54 0 -96 -54z" />
    <glyph glyph-name="q" unicode="q" horiz-adv-x="573" 
d="M524 -154h-160v207q-34 -33 -63 -47.5t-80 -14.5q-83 0 -137.5 63.5t-54.5 191.5q0 127 46 186.5t136 59.5q79 0 153 -62v53h160v-637zM364 173v132q-43 54 -96 54q-81 0 -81 -113q0 -124 86 -124q54 0 91 51z" />
    <glyph glyph-name="r" unicode="r" horiz-adv-x="408" 
d="M209 483v-89q51 98 129 98q33 0 60 -3l-11 -161q-24 2 -57 2q-48 0 -77.5 -19.5t-43.5 -69.5v-241h-160v483h160z" />
    <glyph glyph-name="s" unicode="s" horiz-adv-x="477" 
d="M437 455l-39 -110q-108 29 -168 29q-34 0 -34 -27q0 -6 2.5 -11t8 -9.5t11.5 -7.5t18 -6.5t21.5 -6l27.5 -7t31 -8.5q73 -20 101.5 -49.5t28.5 -90.5q0 -78 -51.5 -119t-150.5 -41q-102 0 -216 57l38 107q121 -45 180 -45q40 0 40 24q0 5 -2 9.5t-7 8t-10.5 6t-16 6
l-19 6.5t-24.5 7.5l-29 8.5q-132 41 -132 142q0 77 45 121t128 44q103 0 218 -38z" />
    <glyph glyph-name="t" unicode="t" horiz-adv-x="393" 
d="M363 122l15 -96q-58 -33 -140 -33q-85 0 -122.5 42.5t-37.5 141.5v175h-68v131h68v107h160v-107h118v-131h-118v-168q0 -34 13 -49t47 -15q38 0 65 2z" />
    <glyph glyph-name="u" unicode="u" horiz-adv-x="569" 
d="M358 0v57q-73 -48 -101 -57q-25 -9 -54 -9q-78 0 -117.5 45t-39.5 141v306h160v-265q0 -46 11.5 -64t44.5 -18q52 0 96 56v291h160v-483h-160z" />
    <glyph glyph-name="v" unicode="v" horiz-adv-x="565" 
d="M367 0h-169l-188 483h159l91 -247q4 -11 22 -75l10 34.5t13 40.5l101 247h159z" />
    <glyph glyph-name="w" unicode="w" horiz-adv-x="771" 
d="M631 0h-180l-65 260l-65 -260h-180l-130 483h152l71 -266q6 -36 8 -60q4 30 12 60l76 266h111l76 -266q8 -35 12 -67q1 32 9 67l70 266h153z" />
    <glyph glyph-name="x" unicode="x" horiz-adv-x="539" 
d="M365 0l-80 118q-10 16 -15 25q-10 -15 -15 -25l-81 -118h-166l153 242l-152 241h170l76 -117q5 -10 15 -25q5 9 15 25l75 117h170l-152 -241l154 -242h-167z" />
    <glyph glyph-name="y" unicode="y" horiz-adv-x="554" 
d="M383 483l168 -1q-3 -8 -15 -43t-15.5 -44.5l-14.5 -41l-15.5 -43.5l-15 -39.5l-16 -41l-15 -36t-17 -37.5l-16 -33t-17.5 -33q-55 -97 -121 -158t-164 -94l-52 119q80 36 122 79l-178 446h164l85 -221l24 -77q51 105 109 299z" />
    <glyph glyph-name="z" unicode="z" horiz-adv-x="526" 
d="M490 0h-454v100l232 255q-47 -3 -93 -3h-130v131h433v-97l-222 -260q58 3 102 3h132v-129z" />
    <glyph glyph-name="braceleft" unicode="{" horiz-adv-x="405" 
d="M286 74v-45q0 -50 21 -70.5t86 -28.5l-9 -112q-134 3 -191 51t-57 160v45q0 59 -22 82.5t-86 28.5v113q64 6 86 29.5t22 82.5v44q0 113 57 161t191 50l9 -111q-66 -9 -86.5 -29.5t-20.5 -70.5v-44q0 -81 -29 -118.5t-92 -49.5q63 -12 92 -50t29 -118z" />
    <glyph glyph-name="bar" unicode="|" horiz-adv-x="342" 
d="M105 -200v845h132v-845h-132z" />
    <glyph glyph-name="braceright" unicode="}" horiz-adv-x="405" 
d="M122 29v44q0 81 29 119t92 50q-63 12 -92 49.5t-29 118.5v44q0 50 -20.5 70.5t-86.5 29.5l9 111q134 -2 191 -50t57 -161v-44q0 -59 22 -82.5t87 -29.5v-113q-65 -5 -87 -28.5t-22 -82.5v-45q0 -113 -57 -160.5t-191 -50.5l-9 112q65 8 86 28.5t21 70.5z" />
    <glyph glyph-name="asciitilde" unicode="~" horiz-adv-x="508" 
d="M404 360l59 -42q-43 -78 -90.5 -98.5t-100.5 3.5l-73 30q-25 13 -47 5.5t-49 -45.5l-58 41q42 78 88.5 98t101.5 -5l73 -30q25 -12 47.5 -3.5t48.5 46.5z" />
    <glyph glyph-name="exclamdown" unicode="&#xa1;" horiz-adv-x="262" 
d="M131 342q-33 0 -54 22t-21 54t21 53.5t54 21.5t54 -21.5t21 -53.5t-21 -54t-54 -22zM216 -124h-170l23 393h124z" />
    <glyph glyph-name="cent" unicode="&#xa2;" horiz-adv-x="517" 
d="M452 162l51 -97q-76 -60 -165 -71v-52h-103v53q-89 14 -145 83t-56 194q0 118 55 192t146 89v57h103v-57q70 -10 147 -50l-44 -103q-65 28 -136 28q-55 0 -85 -40.5t-30 -115.5q0 -73 29.5 -112.5t83.5 -39.5q83 0 149 42z" />
    <glyph glyph-name="sterling" unicode="&#xa3;" horiz-adv-x="580" 
d="M260 131h263v-131h-483v117l63 10l9 86h-72v84h80q16 136 74.5 200t164.5 64q111 0 201 -55l-44 -102q-75 31 -134 31q-46 0 -71 -31t-34 -107h163v-84h-172z" />
    <glyph glyph-name="yen" unicode="&#xa5;" horiz-adv-x="581" 
d="M425 276h100v-62h-133l-18 -33h151v-62h-154v-119h-162v119h-151v62h148l-18 33h-130v62h97l-146 273h166l85 -160l10 -23l11 -26.5t9 -22.5l30 72l85 160h167z" />
    <glyph glyph-name="brokenbar" unicode="&#xa6;" horiz-adv-x="342" 
d="M105 301v344h132v-344h-132zM105 -200v344h132v-344h-132z" />
    <glyph glyph-name="section" unicode="&#xa7;" horiz-adv-x="607" 
d="M70 -27l42 114q106 -67 195 -67q53 0 53 33q0 18 -22 28.5t-105 34.5q-106 31 -146.5 64.5t-40.5 86.5q0 69 79 110q-35 35 -35 95q0 68 49 108t136 40q115 0 223 -45l-40 -113q-96 47 -168 47q-52 0 -52 -33q0 -18 21 -27.5t106 -35.5q106 -32 146 -65t40 -86
q0 -74 -77 -112q33 -34 33 -93q0 -70 -50 -113t-141 -43q-128 0 -246 72zM206 327q-19 -23 -19 -37q0 -7 3.5 -12.5t12.5 -11t18.5 -10t26 -10t30 -9t36.5 -10.5l39 -12q31 -11 38 -14q19 22 19 38q0 7 -3.5 12.5t-12.5 11t-18 10t-25.5 10t-30 9t-36.5 10.5l-39 12
q-6 2 -13 4t-14.5 5t-11.5 4z" />
    <glyph glyph-name="dieresis" unicode="&#xa8;" 
d="M144 693q33 0 54.5 -19.5t21.5 -53.5q0 -33 -21.5 -52.5t-54.5 -19.5q-30 0 -53 19.5t-23 52.5q0 34 22.5 53.5t53.5 19.5zM351 693q31 0 53.5 -19.5t22.5 -53.5q0 -33 -23 -52.5t-53 -19.5q-32 0 -53.5 19.5t-21.5 52.5q0 34 21.5 53.5t53.5 19.5z" />
    <glyph glyph-name="copyright" unicode="&#xa9;" horiz-adv-x="732" 
d="M367 -9q-131 0 -222.5 91.5t-91.5 222.5t91.5 223t222.5 92q130 0 221.5 -92t91.5 -223t-91 -222.5t-222 -91.5zM367 28q114 0 195 81t81 196t-81 196.5t-195 81.5q-115 0 -196 -81.5t-81 -196.5t81 -196t196 -81zM488 245l35 -68q-69 -54 -156 -54q-75 0 -124 48
t-49 131q0 85 47 134t125 49q77 0 145 -39l-32 -73q-58 23 -98 23q-76 0 -76 -94q0 -90 77 -90q50 0 106 33z" />
    <glyph glyph-name="ordfeminine" unicode="&#xaa;" horiz-adv-x="392" 
d="M78 519l-17 74q97 27 150 27q76 0 109.5 -33t33.5 -110v-209h-114v38q-46 -44 -99 -44q-58 0 -86 25t-28 84q0 54 36 79.5t110 27.5q45 0 68 -1q0 30 -11 43.5t-40 13.5q-45 0 -112 -15zM240 423h-52q-55 0 -55 -38q0 -40 45 -40q35 0 62 29v49z" />
    <glyph glyph-name="guillemotleft" unicode="&#xab;" horiz-adv-x="616" 
d="M334 392l-101 -102q-17 -17 -40 -35q18 -13 41 -34l100 -103l-79 -76l-223 214l222 215zM569 392l-101 -102q-17 -17 -40 -35q18 -13 41 -34l100 -103l-79 -76l-223 214l222 215z" />
    <glyph glyph-name="registered" unicode="&#xae;" horiz-adv-x="732" 
d="M367 -9q-131 0 -222.5 91.5t-91.5 222.5t91.5 223t222.5 92q130 0 221.5 -92t91.5 -223t-91 -222.5t-222 -91.5zM367 28q114 0 195 81t81 196t-81 196.5t-195 81.5q-115 0 -196 -81.5t-81 -196.5t81 -196t196 -81zM221 480h148q158 0 158 -123q0 -74 -64 -91
q47 -26 76 -134h-118q-19 72 -33 87q-11 12 -26 12h-44v-99h-97v348zM325 309h52q47 0 47 44q0 47 -55 47h-44v-91z" />
    <glyph glyph-name="macron" unicode="&#xaf;" 
d="M402 563h-308v113h308v-113z" />
    <glyph glyph-name="degree" unicode="&#xb0;" horiz-adv-x="369" 
d="M184 620q67 0 107 -40.5t40 -106.5q0 -65 -40 -104.5t-107 -39.5q-66 0 -106 39.5t-40 104.5q0 66 40 106.5t106 40.5zM184 416q28 0 43 15t15 42q0 28 -15.5 44.5t-42.5 16.5t-42 -16.5t-15 -44.5q0 -26 15 -41.5t42 -15.5z" />
    <glyph glyph-name="plusminus" unicode="&#xb1;" horiz-adv-x="504" 
d="M458 281h-157v-120h-99v120h-157v98h157v120h99v-120h157v-98zM450 119v-98h-405v98h405z" />
    <glyph glyph-name="twosuperior" unicode="&#xb2;" horiz-adv-x="357" 
d="M325 335h-296v73l43 34l40.5 32l33 27.5t29.5 26.5t20.5 22t15 21.5t4.5 18.5q0 44 -47 44q-46 0 -120 -32l-29 72q103 46 168 46q61 0 98 -35t37 -93q0 -47 -38 -84t-121 -90q48 4 68 4h94v-87z" />
    <glyph glyph-name="threesuperior" unicode="&#xb3;" horiz-adv-x="360" 
d="M46 717l-21 68q88 36 158 36q61 0 98.5 -29t37.5 -77q0 -31 -16 -52.5t-41 -31.5q66 -25 66 -82q0 -56 -39 -86.5t-109 -30.5q-93 0 -167 41l28 70q68 -32 134 -32q56 0 56 39q0 41 -79 41h-55v76h55q39 0 55.5 7.5t16.5 26.5q0 41 -55 41q-50 0 -123 -25z" />
    <glyph glyph-name="acute" unicode="&#xb4;" 
d="M381 660v-32q-78 -58 -189 -104l-39 41l128 165z" />
    <glyph glyph-name="paragraph" unicode="&#xb6;" horiz-adv-x="591" 
d="M552 490l-92 -14v-476h-147v191h-19q-133 0 -194.5 49.5t-61.5 157.5q0 111 61.5 161.5t194.5 50.5h258v-120z" />
    <glyph glyph-name="periodcentered" unicode="&#xb7;" horiz-adv-x="288" 
d="M52 272q0 39 25 64.5t65 25.5t65 -25.5t25 -64.5t-25 -65t-65 -26t-65 26t-25 65z" />
    <glyph glyph-name="cedilla" unicode="&#xb8;" 
d="M259 30l-1 -60q54 -4 74.5 -22.5t20.5 -58.5q0 -41 -26 -67.5t-73 -26.5q-56 0 -117 22l13 59q44 -9 68 -9q41 0 41 30q0 20 -11 28t-40 8h-27l20 97h58z" />
    <glyph glyph-name="onesuperior" unicode="&#xb9;" horiz-adv-x="342" 
d="M323 331h-273v87h86v179q-48 -12 -87 -17l-19 65q69 25 125 65h83v-292h85v-87z" />
    <glyph glyph-name="ordmasculine" unicode="&#xba;" horiz-adv-x="426" 
d="M213 620q85 0 132 -47t47 -134q0 -85 -47 -131t-132 -46t-132 46t-47 131q0 87 47 134t132 47zM213 351q69 0 69 88q0 92 -69 92q-68 0 -68 -92q0 -88 68 -88z" />
    <glyph glyph-name="guillemotright" unicode="&#xbb;" horiz-adv-x="616" 
d="M126 42l-78 76l99 103q20 19 41 35q-28 22 -40 34l-100 102l79 79l222 -215zM361 42l-78 76l99 103q20 19 41 35q-28 22 -40 34l-100 102l79 79l222 -215z" />
    <glyph glyph-name="onequarter" unicode="&#xbc;" horiz-adv-x="894" 
d="M323 231h-273v87h86v179q-48 -12 -87 -17l-19 65q69 25 125 65h83v-292h85v-87zM666 610l-344 -610h-89l343 610h90zM782 67v-67h-99v67h-204l-4 70l208 242h99v-232h54v-80h-54zM683 147v127q-12 -16 -27 -32l-52 -57q-16 -21 -37 -38h116z" />
    <glyph glyph-name="onehalf" unicode="&#xbd;" horiz-adv-x="912" 
d="M323 231h-273v87h86v179q-48 -12 -87 -17l-19 65q69 25 125 65h83v-292h85v-87zM666 610l-344 -610h-89l343 610h90zM857 0h-296v73l43 34l40.5 32l33 27.5t29.5 26.5t20.5 22t15 21.5t4.5 18.5q0 44 -47 44q-46 0 -120 -32l-29 73q104 45 168 45q62 0 98.5 -35t36.5 -93
q0 -47 -38 -84t-121 -90q48 4 68 4h94v-87z" />
    <glyph glyph-name="threequarters" unicode="&#xbe;" horiz-adv-x="879" 
d="M46 516l-21 68q88 36 158 36q61 0 98.5 -29t37.5 -77q0 -31 -16 -52.5t-41 -31.5q66 -26 66 -82t-39 -86.5t-109 -30.5q-93 0 -167 41l28 70q68 -32 134 -32q56 0 56 39q0 41 -79 41h-55v76h55q39 0 55.5 7.5t16.5 26.5q0 41 -55 41q-50 0 -123 -25zM656 610l-344 -610
h-89l343 610h90zM776 67v-67h-98v67h-204l-5 70l209 242h98v-233h55v-79h-55zM678 146v128q-10 -14 -27 -33l-52 -57q-15 -18 -37 -38h116z" />
    <glyph glyph-name="questiondown" unicode="&#xbf;" horiz-adv-x="540" 
d="M304 342q-33 0 -54 22t-21 54t21 53.5t54 21.5t54 -21.5t21 -53.5t-21 -54t-54 -22zM478 53l44 -113q-86 -39 -147 -56.5t-121 -17.5q-99 0 -159 53.5t-60 137.5q0 71 55 119t154 68l-2 49h127l23 -148q-105 -3 -147 -20.5t-42 -49.5q0 -35 22 -54.5t58 -19.5
q71 0 195 52z" />
    <glyph glyph-name="Agrave" unicode="&#xc0;" horiz-adv-x="695" 
d="M438 679l-38 -41q-111 42 -190 97v31l115 63zM218 97l-34 -97h-175l228 610h222l227 -610h-174l-34 97h-260zM426 245l-61 175q-14 44 -17 56l-18 -56l-61 -175h157z" />
    <glyph glyph-name="Aacute" unicode="&#xc1;" horiz-adv-x="695" 
d="M482 769v-32q-80 -54 -189 -96l-39 40l113 150zM218 97l-34 -97h-175l228 610h222l227 -610h-174l-34 97h-260zM426 245l-61 175q-14 44 -17 56l-18 -56l-61 -175h157z" />
    <glyph glyph-name="Acircumflex" unicode="&#xc2;" horiz-adv-x="695" 
d="M348 720l-137 -83l-39 42l130 138h92l131 -138l-40 -42zM218 97l-34 -97h-175l228 610h222l227 -610h-174l-34 97h-260zM426 245l-61 175q-14 44 -17 56l-18 -56l-61 -175h157z" />
    <glyph glyph-name="Atilde" unicode="&#xc3;" horiz-adv-x="695" 
d="M467 790l58 -2q-2 -47 -20.5 -77.5t-44.5 -41t-53.5 -9.5t-52.5 12l-55 26q-23 11 -36.5 5t-32.5 -33l-54 2q2 46 19 76t42 40t52 9t53 -12l54 -26q25 -10 37.5 -4t33.5 35zM218 97l-34 -97h-175l228 610h222l227 -610h-174l-34 97h-260zM426 245l-61 175q-14 44 -17 56
l-18 -56l-61 -175h157z" />
    <glyph glyph-name="Adieresis" unicode="&#xc4;" horiz-adv-x="695" 
d="M244 804q32 0 52.5 -18.5t20.5 -51.5q0 -32 -20.5 -50.5t-52.5 -18.5q-28 0 -50 19t-22 50q0 32 22 51t50 19zM452 804q29 0 50.5 -19t21.5 -51q0 -31 -21.5 -50t-50.5 -19q-31 0 -52 18.5t-21 50.5q0 33 21 51.5t52 18.5zM218 97l-34 -97h-175l228 610h222l227 -610
h-174l-34 97h-260zM426 245l-61 175q-14 44 -17 56l-18 -56l-61 -175h157z" />
    <glyph glyph-name="Aring" unicode="&#xc5;" horiz-adv-x="695" 
d="M348 859q48 0 78.5 -29.5t30.5 -77.5q0 -46 -30.5 -75t-78.5 -29t-78.5 29t-30.5 75q0 48 30.5 77.5t78.5 29.5zM348 713q20 0 31.5 10.5t11.5 28.5q0 20 -11.5 31t-31.5 11q-19 0 -31 -11t-12 -31q0 -18 12 -28.5t31 -10.5zM218 97l-34 -97h-175l228 610h222l227 -610
h-174l-34 97h-260zM426 245l-61 175q-14 44 -17 56l-18 -56l-61 -175h157z" />
    <glyph glyph-name="AE" unicode="&#xc6;" horiz-adv-x="977" 
d="M933 145v-145h-458v97h-222l-59 -97h-185l390 610h526v-148h-287v-92h245v-140h-245v-85h295zM475 245v215l-131 -215h131z" />
    <glyph glyph-name="Ccedilla" unicode="&#xc7;" horiz-adv-x="612" 
d="M330 -9v-21q55 -4 75.5 -22.5t20.5 -58.5q0 -41 -26 -67.5t-73 -26.5q-55 0 -118 22l14 59q42 -9 68 -9q40 0 40 30q0 20 -11 28t-40 8h-27l13 64q-110 19 -171 98t-61 208q0 151 82 234t229 83q120 0 228 -55l-49 -123q-106 32 -171 32q-154 0 -154 -171
q0 -74 39.5 -120t104.5 -46q87 0 199 45l53 -121q-126 -70 -260 -70h-5z" />
    <glyph glyph-name="Egrave" unicode="&#xc8;" horiz-adv-x="560" 
d="M366 679l-38 -41q-111 42 -190 97v31l115 63zM516 0h-458v610h450v-148h-287v-92h245v-140h-245v-85h295v-145z" />
    <glyph glyph-name="Eacute" unicode="&#xc9;" horiz-adv-x="560" 
d="M410 769v-32q-80 -54 -189 -96l-39 40l113 150zM516 0h-458v610h450v-148h-287v-92h245v-140h-245v-85h295v-145z" />
    <glyph glyph-name="Ecircumflex" unicode="&#xca;" horiz-adv-x="560" 
d="M276 720l-137 -83l-39 42l130 138h92l131 -138l-40 -42zM516 0h-458v610h450v-148h-287v-92h245v-140h-245v-85h295v-145z" />
    <glyph glyph-name="Edieresis" unicode="&#xcb;" horiz-adv-x="560" 
d="M172 804q32 0 52.5 -18.5t20.5 -51.5q0 -32 -20.5 -50.5t-52.5 -18.5q-28 0 -50 19t-22 50q0 32 22 51t50 19zM380 804q29 0 50.5 -19t21.5 -51q0 -31 -21.5 -50t-50.5 -19q-31 0 -52 18.5t-21 50.5q0 33 21 51.5t52 18.5zM516 0h-458v610h450v-148h-287v-92h245v-140
h-245v-85h295v-145z" />
    <glyph glyph-name="Igrave" unicode="&#xcc;" horiz-adv-x="279" 
d="M230 679l-38 -41q-111 42 -190 97v31l115 63zM221 0h-163v610h163v-610z" />
    <glyph glyph-name="Iacute" unicode="&#xcd;" horiz-adv-x="279" 
d="M274 769v-32q-80 -54 -189 -96l-39 40l113 150zM221 0h-163v610h163v-610z" />
    <glyph glyph-name="Icircumflex" unicode="&#xce;" horiz-adv-x="279" 
d="M140 720l-137 -83l-40 42l131 138h92l131 -138l-40 -42zM221 0h-163v610h163v-610z" />
    <glyph glyph-name="Idieresis" unicode="&#xcf;" horiz-adv-x="279" 
d="M36 804q32 0 52.5 -18.5t20.5 -51.5q0 -32 -20.5 -50.5t-52.5 -18.5q-28 0 -50 19t-22 50q0 32 22 51t50 19zM244 804q29 0 50.5 -19t21.5 -51q0 -31 -21.5 -50t-50.5 -19q-31 0 -52 18.5t-21 50.5q0 33 21 51.5t52 18.5zM221 0h-163v610h163v-610z" />
    <glyph glyph-name="Eth" unicode="&#xd0;" horiz-adv-x="658" 
d="M59 610h216q164 0 256.5 -83t92.5 -223q0 -138 -93.5 -221t-255.5 -83h-216v241h-54v125h54v244zM222 143h53q184 0 184 161q0 84 -44.5 123.5t-139.5 39.5h-53v-101h94v-125h-94v-98z" />
    <glyph glyph-name="Ntilde" unicode="&#xd1;" horiz-adv-x="685" 
d="M461 790l58 -2q-2 -47 -20.5 -77.5t-44.5 -41t-53.5 -9.5t-52.5 12l-55 26q-23 11 -36.5 5t-32.5 -33l-54 2q2 46 19 76t42 40t52 9t53 -12l54 -26q25 -10 37.5 -4t33.5 35zM627 0h-148l-258 344v-344h-163v610h148l258 -348v348h163v-610z" />
    <glyph glyph-name="Ograve" unicode="&#xd2;" horiz-adv-x="685" 
d="M433 679l-39 -41q-110 42 -189 97v31l115 63zM343 620q145 0 226.5 -82.5t81.5 -233.5q0 -150 -81.5 -231.5t-226.5 -81.5q-146 0 -227.5 81.5t-81.5 231.5q0 151 81.5 233.5t227.5 82.5zM343 137q68 0 105.5 42.5t37.5 124.5q0 84 -37.5 127t-105.5 43q-69 0 -106.5 -43
t-37.5 -127q0 -82 37.5 -124.5t106.5 -42.5z" />
    <glyph glyph-name="Oacute" unicode="&#xd3;" horiz-adv-x="685" 
d="M476 769v-32q-82 -55 -189 -96l-39 40l114 150zM343 620q145 0 226.5 -82.5t81.5 -233.5q0 -150 -81.5 -231.5t-226.5 -81.5q-146 0 -227.5 81.5t-81.5 231.5q0 151 81.5 233.5t227.5 82.5zM343 137q68 0 105.5 42.5t37.5 124.5q0 84 -37.5 127t-105.5 43
q-69 0 -106.5 -43t-37.5 -127q0 -82 37.5 -124.5t106.5 -42.5z" />
    <glyph glyph-name="Ocircumflex" unicode="&#xd4;" horiz-adv-x="685" 
d="M343 720l-137 -83l-40 42l131 138h91l131 -138l-39 -42zM343 620q145 0 226.5 -82.5t81.5 -233.5q0 -150 -81.5 -231.5t-226.5 -81.5q-146 0 -227.5 81.5t-81.5 231.5q0 151 81.5 233.5t227.5 82.5zM343 137q68 0 105.5 42.5t37.5 124.5q0 84 -37.5 127t-105.5 43
q-69 0 -106.5 -43t-37.5 -127q0 -82 37.5 -124.5t106.5 -42.5z" />
    <glyph glyph-name="Otilde" unicode="&#xd5;" horiz-adv-x="685" 
d="M461 790l58 -2q-2 -47 -20 -77.5t-44.5 -41t-54 -9.5t-52.5 12l-55 26q-23 11 -36 5t-33 -33l-54 2q2 46 19.5 76t42.5 40t52 9t52 -12l54 -26q25 -10 37.5 -3.5t33.5 34.5zM343 620q145 0 226.5 -82.5t81.5 -233.5q0 -150 -81.5 -231.5t-226.5 -81.5q-146 0 -227.5 81.5
t-81.5 231.5q0 151 81.5 233.5t227.5 82.5zM343 137q68 0 105.5 42.5t37.5 124.5q0 84 -37.5 127t-105.5 43q-69 0 -106.5 -43t-37.5 -127q0 -82 37.5 -124.5t106.5 -42.5z" />
    <glyph glyph-name="Odieresis" unicode="&#xd6;" horiz-adv-x="685" 
d="M239 804q31 0 52 -18.5t21 -51.5q0 -32 -21 -50.5t-52 -18.5q-29 0 -50.5 19t-21.5 50q0 32 21.5 51t50.5 19zM446 804q29 0 50.5 -19t21.5 -51q0 -31 -21.5 -50t-50.5 -19q-31 0 -51.5 18.5t-20.5 50.5q0 33 20.5 51.5t51.5 18.5zM343 620q145 0 226.5 -82.5
t81.5 -233.5q0 -150 -81.5 -231.5t-226.5 -81.5q-146 0 -227.5 81.5t-81.5 231.5q0 151 81.5 233.5t227.5 82.5zM343 137q68 0 105.5 42.5t37.5 124.5q0 84 -37.5 127t-105.5 43q-69 0 -106.5 -43t-37.5 -127q0 -82 37.5 -124.5t106.5 -42.5z" />
    <glyph glyph-name="multiply" unicode="&#xd7;" 
d="M145 67l-81 80l104 104l-107 107l82 81l106 -106l107 106l78 -82l-104 -105l104 -104l-81 -81l-104 104z" />
    <glyph glyph-name="Oslash" unicode="&#xd8;" horiz-adv-x="685" 
d="M639 561l-47 -49q59 -82 59 -209q0 -149 -81.5 -230.5t-227.5 -81.5q-119 0 -195 55l-52 -54l-58 57l52 55q-55 76 -55 199q0 151 81.5 234t227.5 83q114 0 190 -52l48 50zM209 229l214 224q-33 21 -81 21q-68 0 -105.5 -43.5t-37.5 -127.5q0 -44 10 -74zM473 388
l-216 -227q33 -24 85 -24q69 0 106.5 42t37.5 124q0 50 -13 85z" />
    <glyph glyph-name="Ugrave" unicode="&#xd9;" horiz-adv-x="663" 
d="M422 679l-39 -41q-108 41 -190 97v31l115 63zM610 610v-319q0 -152 -69 -226t-210 -74q-140 0 -209 74t-69 226v319h163v-319q0 -154 115 -154q116 0 116 154v319h163z" />
    <glyph glyph-name="Uacute" unicode="&#xda;" horiz-adv-x="663" 
d="M465 769v-32q-80 -54 -189 -96l-39 40l113 150zM610 610v-319q0 -152 -69 -226t-210 -74q-140 0 -209 74t-69 226v319h163v-319q0 -154 115 -154q116 0 116 154v319h163z" />
    <glyph glyph-name="Ucircumflex" unicode="&#xdb;" horiz-adv-x="663" 
d="M331 720l-137 -83l-39 42l131 138h91l131 -138l-40 -42zM610 610v-319q0 -152 -69 -226t-210 -74q-140 0 -209 74t-69 226v319h163v-319q0 -154 115 -154q116 0 116 154v319h163z" />
    <glyph glyph-name="Udieresis" unicode="&#xdc;" horiz-adv-x="663" 
d="M228 804q31 0 51.5 -18.5t20.5 -51.5q0 -32 -20.5 -50.5t-51.5 -18.5q-29 0 -50.5 19t-21.5 50q0 32 21.5 51t50.5 19zM435 804q29 0 50.5 -19t21.5 -51q0 -31 -21.5 -50t-50.5 -19q-31 0 -52 18.5t-21 50.5q0 33 21 51.5t52 18.5zM610 610v-319q0 -152 -69 -226
t-210 -74q-140 0 -209 74t-69 226v319h163v-319q0 -154 115 -154q116 0 116 154v319h163z" />
    <glyph glyph-name="Yacute" unicode="&#xdd;" horiz-adv-x="638" 
d="M453 769v-32q-80 -54 -189 -96l-39 40l113 150zM400 192v-192h-162v192l-229 418h171l102 -192q24 -45 37 -77q13 32 37 77l102 192h171z" />
    <glyph glyph-name="Thorn" unicode="&#xde;" horiz-adv-x="592" 
d="M221 528h81q138 0 203.5 -56t65.5 -173q0 -116 -63.5 -168.5t-197.5 -52.5h-89v-78h-163v610h163v-82zM221 207h88q104 0 104 92q0 90 -112 90h-80v-182z" />
    <glyph glyph-name="germandbls" unicode="&#xdf;" horiz-adv-x="618" 
d="M-1 483l73 -1q29 71 97 111.5t162 40.5q99 0 161 -47t62 -123q0 -101 -105 -132q139 -35 139 -168q0 -78 -54 -125.5t-143 -47.5q-67 0 -120 16l11 112q58 -6 83 -6q36 0 56 18.5t20 50.5q0 69 -130 69h-27v118h27q44 0 68.5 20t24.5 56q0 59 -71 59q-56 0 -87 -30
t-31 -86v-388h-160v359l-56 9v115z" />
    <glyph glyph-name="agrave" unicode="&#xe0;" horiz-adv-x="526" 
d="M370 565l-39 -41q-113 47 -190 104v32l100 70zM95 348l-24 108q139 36 211 36q105 0 151.5 -47t46.5 -152v-293h-156v57q-64 -66 -141 -66q-80 0 -119.5 35t-39.5 117q0 150 204 150h96q0 42 -15 59t-57 17q-60 0 -157 -21zM324 208h-75q-43 0 -61 -8.5t-18 -37.5
q0 -26 17.5 -41.5t47.5 -15.5q49 0 89 42v61z" />
    <glyph glyph-name="aacute" unicode="&#xe1;" horiz-adv-x="526" 
d="M397 660v-32q-78 -58 -189 -104l-39 41l128 165zM95 348l-24 108q139 36 211 36q105 0 151.5 -47t46.5 -152v-293h-156v57q-64 -66 -141 -66q-80 0 -119.5 35t-39.5 117q0 150 204 150h96q0 42 -15 59t-57 17q-60 0 -157 -21zM324 208h-75q-43 0 -61 -8.5t-18 -37.5
q0 -26 17.5 -41.5t47.5 -15.5q49 0 89 42v61z" />
    <glyph glyph-name="acircumflex" unicode="&#xe2;" horiz-adv-x="526" 
d="M437 567l-38 -40q-25 16 -69.5 42l-62.5 37l-131 -79l-38 40l126 140h87zM95 348l-24 108q139 36 211 36q105 0 151.5 -47t46.5 -152v-293h-156v57q-64 -66 -141 -66q-80 0 -119.5 35t-39.5 117q0 150 204 150h96q0 42 -15 59t-57 17q-60 0 -157 -21zM324 208h-75
q-43 0 -61 -8.5t-18 -37.5q0 -26 17.5 -41.5t47.5 -15.5q49 0 89 42v61z" />
    <glyph glyph-name="atilde" unicode="&#xe3;" horiz-adv-x="526" 
d="M382 690l58 -2q-2 -47 -20.5 -77.5t-44.5 -41t-53.5 -9.5t-52.5 12l-55 26q-23 11 -36.5 5t-32.5 -33l-54 2q2 46 19 76t42.5 40t52.5 9t52 -12l54 -26q25 -10 37.5 -3.5t33.5 34.5zM95 348l-24 108q139 36 211 36q105 0 151.5 -47t46.5 -152v-293h-156v57
q-64 -66 -141 -66q-80 0 -119.5 35t-39.5 117q0 150 204 150h96q0 42 -15 59t-57 17q-60 0 -157 -21zM324 208h-75q-43 0 -61 -8.5t-18 -37.5q0 -26 17.5 -41.5t47.5 -15.5q49 0 89 42v61z" />
    <glyph glyph-name="adieresis" unicode="&#xe4;" horiz-adv-x="526" 
d="M160 693q33 0 54.5 -19.5t21.5 -53.5q0 -33 -21.5 -52.5t-54.5 -19.5q-30 0 -53 19.5t-23 52.5q0 34 22.5 53.5t53.5 19.5zM367 693q31 0 53.5 -19.5t22.5 -53.5q0 -33 -23 -52.5t-53 -19.5q-32 0 -53.5 19.5t-21.5 52.5q0 34 21.5 53.5t53.5 19.5zM95 348l-24 108
q139 36 211 36q105 0 151.5 -47t46.5 -152v-293h-156v57q-64 -66 -141 -66q-80 0 -119.5 35t-39.5 117q0 150 204 150h96q0 42 -15 59t-57 17q-60 0 -157 -21zM324 208h-75q-43 0 -61 -8.5t-18 -37.5q0 -26 17.5 -41.5t47.5 -15.5q49 0 89 42v61z" />
    <glyph glyph-name="aring" unicode="&#xe5;" horiz-adv-x="526" 
d="M272 744q48 0 78.5 -29.5t30.5 -77.5q0 -46 -30.5 -75t-79.5 -29q-48 0 -78 29t-30 75q0 48 30 77.5t79 29.5zM271 598q20 0 31.5 10.5t11.5 28.5q0 20 -11.5 31t-30.5 11t-31 -11t-12 -31q0 -18 12 -28.5t30 -10.5zM95 348l-24 108q139 36 211 36q105 0 151.5 -47
t46.5 -152v-293h-156v57q-64 -66 -141 -66q-80 0 -119.5 35t-39.5 117q0 150 204 150h96q0 42 -15 59t-57 17q-60 0 -157 -21zM324 208h-75q-43 0 -61 -8.5t-18 -37.5q0 -26 17.5 -41.5t47.5 -15.5q49 0 89 42v61z" />
    <glyph glyph-name="ae" unicode="&#xe6;" horiz-adv-x="824" 
d="M790 195h-312q16 -80 97 -80q89 0 171 44l45 -90q-104 -78 -223 -78q-113 0 -178 62q-93 -62 -187 -62t-136.5 34t-42.5 118q0 146 204 146h93q0 44 -14.5 64t-54.5 20q-60 0 -157 -21l-24 104q139 36 211 36q91 0 135 -41q61 41 152 41q104 0 164 -59.5t61 -172.5
q0 -32 -4 -65zM477 290h180q-6 91 -88 91q-79 0 -92 -91zM321 195h-72q-45 0 -61.5 -8t-16.5 -33q0 -49 69 -49q45 0 102 23q-12 35 -16 67h-5z" />
    <glyph glyph-name="ccedilla" unicode="&#xe7;" horiz-adv-x="492" 
d="M273 -9v-21q55 -4 75.5 -22.5t20.5 -58.5q0 -41 -26 -67.5t-73 -26.5q-55 0 -118 22l14 59q42 -9 68 -9q40 0 40 30q0 20 -11 28t-40 8h-27l13 63q-81 16 -130.5 78.5t-49.5 164.5q0 122 64 187.5t170 65.5q108 0 198 -53l-44 -101q-63 27 -132 27q-47 0 -73 -32.5
t-26 -93.5q0 -58 25.5 -89.5t72.5 -31.5q76 0 147 37l47 -91q-47 -37 -94 -54.5t-111 -18.5z" />
    <glyph glyph-name="egrave" unicode="&#xe8;" horiz-adv-x="529" 
d="M368 566l-39 -41q-106 43 -189 104v31l100 71zM451 159l45 -90q-104 -78 -223 -78q-114 0 -179 63.5t-65 183.5q0 124 65 189t180 65q104 0 164 -59.5t61 -172.5q0 -32 -4 -65h-312q16 -80 97 -80q88 0 171 44zM182 290h180q-6 91 -88 91q-79 0 -92 -91z" />
    <glyph glyph-name="eacute" unicode="&#xe9;" horiz-adv-x="529" 
d="M395 660v-31q-80 -60 -189 -104l-39 41l129 165zM451 159l45 -90q-104 -78 -223 -78q-114 0 -179 63.5t-65 183.5q0 124 65 189t180 65q104 0 164 -59.5t61 -172.5q0 -32 -4 -65h-312q16 -80 97 -80q88 0 171 44zM182 290h180q-6 91 -88 91q-79 0 -92 -91z" />
    <glyph glyph-name="ecircumflex" unicode="&#xea;" horiz-adv-x="529" 
d="M436 568l-38 -40l-132 79l-132 -79l-38 40l126 139h87zM451 159l45 -90q-104 -78 -223 -78q-114 0 -179 63.5t-65 183.5q0 124 65 189t180 65q104 0 164 -59.5t61 -172.5q0 -32 -4 -65h-312q16 -80 97 -80q88 0 171 44zM182 290h180q-6 91 -88 91q-79 0 -92 -91z" />
    <glyph glyph-name="edieresis" unicode="&#xeb;" horiz-adv-x="529" 
d="M158 693q33 0 54.5 -19.5t21.5 -53.5q0 -33 -21.5 -52.5t-54.5 -19.5q-30 0 -53 19.5t-23 52.5q0 34 22.5 53.5t53.5 19.5zM365 693q31 0 53.5 -19.5t22.5 -53.5q0 -33 -23 -52.5t-53 -19.5q-32 0 -53.5 19.5t-21.5 52.5q0 34 21.5 53.5t53.5 19.5zM451 159l45 -90
q-104 -78 -223 -78q-114 0 -179 63.5t-65 183.5q0 124 65 189t180 65q104 0 164 -59.5t61 -172.5q0 -32 -4 -65h-312q16 -80 97 -80q88 0 171 44zM182 290h180q-6 91 -88 91q-79 0 -92 -91z" />
    <glyph glyph-name="igrave" unicode="&#xec;" horiz-adv-x="269" 
d="M241 565l-39 -41q-113 47 -190 104v32l100 70zM215 0h-160v483h160v-483z" />
    <glyph glyph-name="iacute" unicode="&#xed;" horiz-adv-x="269" 
d="M268 660v-32q-78 -58 -189 -104l-39 41l128 165zM215 0h-160v483h160v-483z" />
    <glyph glyph-name="icircumflex" unicode="&#xee;" horiz-adv-x="269" 
d="M308 567l-38 -40q-25 16 -69.5 42l-62.5 37l-131 -79l-39 40l127 140h87zM215 0h-160v483h160v-483z" />
    <glyph glyph-name="idieresis" unicode="&#xef;" horiz-adv-x="269" 
d="M31 693q33 0 54.5 -19.5t21.5 -53.5q0 -33 -21.5 -52.5t-54.5 -19.5q-30 0 -53 19.5t-23 52.5q0 34 22.5 53.5t53.5 19.5zM238 693q31 0 53.5 -19.5t22.5 -53.5q0 -33 -23 -52.5t-53 -19.5q-32 0 -53.5 19.5t-21.5 52.5q0 34 21.5 53.5t53.5 19.5zM215 0h-160v483h160
v-483z" />
    <glyph glyph-name="eth" unicode="&#xf0;" horiz-adv-x="561" 
d="M437 610l-59 -24q80 -83 117 -161t37 -186q0 -118 -66 -183t-186 -65q-119 0 -185 65t-66 183q0 103 66.5 167t190.5 64q-30 31 -57 55l-100 -41l-20 53l69 28q-27 21 -60 42v21l156 57l60 -56l84 34zM280 118q47 0 70.5 28t23.5 93q0 74 -25 135q-96 -3 -129.5 -34.5
t-33.5 -108.5q0 -113 94 -113z" />
    <glyph glyph-name="ntilde" unicode="&#xf1;" horiz-adv-x="566" 
d="M403 690l58 -2q-2 -47 -20.5 -77.5t-44.5 -41t-53.5 -9.5t-52.5 12l-55 26q-23 11 -36.5 5t-32.5 -33l-54 2q2 46 19 76t42.5 40t52.5 9t52 -12l54 -26q25 -10 37.5 -3.5t33.5 34.5zM209 483v-63q80 72 159 72q78 0 115 -44t37 -141v-307h-160v262q0 46 -11.5 63.5
t-44.5 17.5q-51 0 -95 -55v-288h-160v483h160z" />
    <glyph glyph-name="ograve" unicode="&#xf2;" horiz-adv-x="561" 
d="M386 566l-39 -41q-106 43 -189 104v31l100 71zM280 492q120 0 186 -66t66 -187q0 -118 -66 -183t-186 -65q-119 0 -185 65t-66 183q0 121 66 187t185 66zM280 118q48 0 71.5 28t23.5 93q0 68 -23.5 97t-71.5 29q-47 0 -70.5 -29.5t-23.5 -96.5q0 -65 23.5 -93t70.5 -28z
" />
    <glyph glyph-name="oacute" unicode="&#xf3;" horiz-adv-x="561" 
d="M413 660v-31q-80 -60 -189 -104l-39 41l129 165zM280 492q120 0 186 -66t66 -187q0 -118 -66 -183t-186 -65q-119 0 -185 65t-66 183q0 121 66 187t185 66zM280 118q48 0 71.5 28t23.5 93q0 68 -23.5 97t-71.5 29q-47 0 -70.5 -29.5t-23.5 -96.5q0 -65 23.5 -93t70.5 -28
z" />
    <glyph glyph-name="ocircumflex" unicode="&#xf4;" horiz-adv-x="561" 
d="M454 568l-38 -40l-132 79l-132 -79l-38 40l126 139h87zM280 492q120 0 186 -66t66 -187q0 -118 -66 -183t-186 -65q-119 0 -185 65t-66 183q0 121 66 187t185 66zM280 118q48 0 71.5 28t23.5 93q0 68 -23.5 97t-71.5 29q-47 0 -70.5 -29.5t-23.5 -96.5q0 -65 23.5 -93
t70.5 -28z" />
    <glyph glyph-name="otilde" unicode="&#xf5;" horiz-adv-x="561" 
d="M398 682l58 -2q-2 -47 -20.5 -77.5t-44.5 -41t-53.5 -9.5t-52.5 12l-55 26q-23 11 -36.5 5t-32.5 -33l-54 2q2 46 19 76t42 40t52 9t53 -12l54 -26q25 -10 37.5 -4t33.5 35zM280 492q120 0 186 -66t66 -187q0 -118 -66 -183t-186 -65q-119 0 -185 65t-66 183
q0 121 66 187t185 66zM280 118q48 0 71.5 28t23.5 93q0 68 -23.5 97t-71.5 29q-47 0 -70.5 -29.5t-23.5 -96.5q0 -65 23.5 -93t70.5 -28z" />
    <glyph glyph-name="odieresis" unicode="&#xf6;" horiz-adv-x="561" 
d="M176 693q33 0 54.5 -19t21.5 -53t-21.5 -53t-54.5 -19q-31 0 -53 19.5t-22 52.5t22 52.5t53 19.5zM384 693q31 0 53.5 -19.5t22.5 -52.5t-22.5 -52.5t-53.5 -19.5q-33 0 -54.5 19t-21.5 53t21.5 53t54.5 19zM280 492q120 0 186 -66t66 -187q0 -118 -66 -183t-186 -65
q-119 0 -185 65t-66 183q0 121 66 187t185 66zM280 118q48 0 71.5 28t23.5 93q0 68 -23.5 97t-71.5 29q-47 0 -70.5 -29.5t-23.5 -96.5q0 -65 23.5 -93t70.5 -28z" />
    <glyph glyph-name="divide" unicode="&#xf7;" horiz-adv-x="496" 
d="M193 406q0 24 16 40.5t40 16.5q25 0 41 -16.5t16 -40.5t-16 -40t-41 -16t-40.5 16t-15.5 40zM45 188v113h406v-113h-406zM193 84q0 24 15.5 40t40.5 16t41 -16t16 -40t-16 -40.5t-41 -16.5q-24 0 -40 16.5t-16 40.5z" />
    <glyph glyph-name="oslash" unicode="&#xf8;" horiz-adv-x="548" 
d="M512 449l-35 -36q54 -66 54 -174q0 -118 -66 -183t-186 -65q-99 0 -162 46l-37 -39l-42 42l37 38q-47 62 -47 161q0 121 66 187t185 66q92 0 154 -40l37 38zM188 196l147 154q-22 15 -56 15q-47 0 -70.5 -29.5t-23.5 -96.5q0 -23 3 -43zM368 298l-153 -159q21 -21 64 -21
q48 0 71.5 28t23.5 93q0 35 -6 59z" />
    <glyph glyph-name="ugrave" unicode="&#xf9;" horiz-adv-x="569" 
d="M390 565l-38 -41q-111 46 -190 104v32l100 70zM358 0v57q-73 -48 -101 -57q-25 -9 -54 -9q-78 0 -117.5 45t-39.5 141v306h160v-265q0 -46 11.5 -64t44.5 -18q52 0 96 56v291h160v-483h-160z" />
    <glyph glyph-name="uacute" unicode="&#xfa;" horiz-adv-x="569" 
d="M418 660v-32q-79 -58 -190 -104l-38 41l128 165zM358 0v57q-73 -48 -101 -57q-25 -9 -54 -9q-78 0 -117.5 45t-39.5 141v306h160v-265q0 -46 11.5 -64t44.5 -18q52 0 96 56v291h160v-483h-160z" />
    <glyph glyph-name="ucircumflex" unicode="&#xfb;" horiz-adv-x="569" 
d="M458 567l-38 -40q-25 16 -69.5 42l-62.5 37l-62.5 -37t-69.5 -42l-38 40l127 140h87zM358 0v57q-73 -48 -101 -57q-25 -9 -54 -9q-78 0 -117.5 45t-39.5 141v306h160v-265q0 -46 11.5 -64t44.5 -18q52 0 96 56v291h160v-483h-160z" />
    <glyph glyph-name="udieresis" unicode="&#xfc;" horiz-adv-x="569" 
d="M181 693q32 0 53.5 -19.5t21.5 -53.5q0 -33 -21.5 -52.5t-53.5 -19.5q-30 0 -53 19.5t-23 52.5q0 34 22.5 53.5t53.5 19.5zM388 693q31 0 53.5 -19.5t22.5 -53.5q0 -33 -23 -52.5t-53 -19.5q-33 0 -54.5 19.5t-21.5 52.5q0 34 21.5 53.5t54.5 19.5zM358 0v57
q-73 -48 -101 -57q-25 -9 -54 -9q-78 0 -117.5 45t-39.5 141v306h160v-265q0 -46 11.5 -64t44.5 -18q52 0 96 56v291h160v-483h-160z" />
    <glyph glyph-name="yacute" unicode="&#xfd;" horiz-adv-x="554" 
d="M411 660v-32q-79 -58 -190 -104l-38 41l128 165zM383 483l168 -1q-3 -8 -15 -43t-15.5 -44.5l-14.5 -41l-15.5 -43.5l-15 -39.5l-16 -41l-15 -36t-17 -37.5l-16 -33t-17.5 -33q-55 -97 -121 -158t-164 -94l-52 119q80 36 122 79l-178 446h164l85 -221l24 -77
q51 105 109 299z" />
    <glyph glyph-name="thorn" unicode="&#xfe;" horiz-adv-x="568" 
d="M209 610v-172q79 54 149 54q90 0 135.5 -59.5t45.5 -186.5q0 -128 -54.5 -191.5t-137.5 -63.5q-47 0 -75.5 12.5t-62.5 40.5v-198h-160v764h160zM209 317v-156q39 -39 87 -39q85 0 85 124q0 113 -81 113q-46 0 -91 -42z" />
    <glyph glyph-name="ydieresis" unicode="&#xff;" horiz-adv-x="554" 
d="M174 693q32 0 53.5 -19.5t21.5 -53.5q0 -33 -21.5 -52.5t-53.5 -19.5q-30 0 -53 19.5t-23 52.5q0 34 22.5 53.5t53.5 19.5zM381 693q31 0 53.5 -19.5t22.5 -53.5q0 -33 -23 -52.5t-53 -19.5q-33 0 -54.5 19.5t-21.5 52.5q0 34 21.5 53.5t54.5 19.5zM383 483l168 -1
q-3 -8 -15 -43t-15.5 -44.5l-14.5 -41l-15.5 -43.5l-15 -39.5l-16 -41l-15 -36t-17 -37.5l-16 -33t-17.5 -33q-55 -97 -121 -158t-164 -94l-52 119q80 36 122 79l-178 446h164l85 -221l24 -77q51 105 109 299z" />
    <glyph glyph-name="Amacron" unicode="&#x100;" horiz-adv-x="695" 
d="M498 674h-300v109h300v-109zM218 97l-34 -97h-175l228 610h222l227 -610h-174l-34 97h-260zM426 245l-61 175q-14 44 -17 56l-18 -56l-61 -175h157z" />
    <glyph glyph-name="amacron" unicode="&#x101;" horiz-adv-x="526" 
d="M418 563h-308v113h308v-113zM95 348l-24 108q139 36 211 36q105 0 151.5 -47t46.5 -152v-293h-156v57q-64 -66 -141 -66q-80 0 -119.5 35t-39.5 117q0 150 204 150h96q0 42 -15 59t-57 17q-60 0 -157 -21zM324 208h-75q-43 0 -61 -8.5t-18 -37.5q0 -26 17.5 -41.5
t47.5 -15.5q49 0 89 42v61z" />
    <glyph glyph-name="Abreve" unicode="&#x102;" horiz-adv-x="695" 
d="M411 792h89q0 -66 -38.5 -101t-113.5 -35q-74 0 -112.5 35t-38.5 101h89q2 -21 18 -35t44 -14q29 0 45.5 14t17.5 35zM218 97l-34 -97h-175l228 610h222l227 -610h-174l-34 97h-260zM426 245l-61 175q-14 44 -17 56l-18 -56l-61 -175h157z" />
    <glyph glyph-name="abreve" unicode="&#x103;" horiz-adv-x="526" 
d="M334 687h89q0 -143 -152 -143t-152 143h90q0 -26 16.5 -41.5t45.5 -15.5q30 0 46.5 15.5t16.5 41.5zM95 348l-24 108q139 36 211 36q105 0 151.5 -47t46.5 -152v-293h-156v57q-64 -66 -141 -66q-80 0 -119.5 35t-39.5 117q0 150 204 150h96q0 42 -15 59t-57 17
q-60 0 -157 -21zM324 208h-75q-43 0 -61 -8.5t-18 -37.5q0 -26 17.5 -41.5t47.5 -15.5q49 0 89 42v61z" />
    <glyph glyph-name="Aogonek" unicode="&#x104;" horiz-adv-x="695" 
d="M686 0h-53q-118 -8 -118 -53q0 -18 16 -29t44 -11q16 0 79 10l16 -76q-70 -27 -138 -27q-54 0 -86 25t-32 66q0 36 24.5 65t68.5 44l-29 83h-260l-34 -97h-175l228 610h222zM426 245l-61 175q-14 44 -17 56l-18 -56l-61 -175h157z" />
    <glyph glyph-name="aogonek" unicode="&#x105;" horiz-adv-x="526" 
d="M472 -83l16 -76q-70 -27 -138 -27q-54 0 -86 25t-32 66q0 36 24.5 65.5t67.5 44.5v42q-64 -66 -141 -66q-80 0 -119.5 35t-39.5 117q0 150 204 150h96q0 42 -15 59t-57 17q-60 0 -157 -21l-23 108q133 36 210 36q106 0 152 -46.5t46 -152.5v-293h-60q-87 -8 -87 -53
q0 -18 16.5 -29t44.5 -11q15 0 78 10zM324 208h-75q-43 0 -61 -8.5t-18 -37.5q0 -26 17.5 -41.5t47.5 -15.5q49 0 89 42v61z" />
    <glyph glyph-name="Cacute" unicode="&#x106;" horiz-adv-x="612" 
d="M467 776v-31q-81 -56 -189 -97l-39 41l114 150zM542 182l53 -121q-126 -70 -260 -70q-140 0 -220.5 82t-80.5 231q0 151 82 233.5t229 82.5q122 0 228 -55l-49 -122q-108 31 -171 31q-154 0 -154 -170q0 -75 39.5 -121t104.5 -46q87 0 199 45z" />
    <glyph glyph-name="cacute" unicode="&#x107;" horiz-adv-x="492" 
d="M393 660v-31q-80 -60 -189 -104l-39 41l129 165zM431 155l47 -91q-50 -39 -99.5 -56t-117.5 -17q-101 0 -166.5 65t-65.5 183q0 122 64 187.5t170 65.5q108 0 198 -53l-44 -101q-63 27 -132 27q-47 0 -73 -32.5t-26 -93.5q0 -58 25.5 -89.5t72.5 -31.5q76 0 147 37z" />
    <glyph glyph-name="Cdotaccent" unicode="&#x10a;" horiz-adv-x="612" 
d="M334 818q32 0 55.5 -20.5t23.5 -56.5q0 -34 -24 -54.5t-55 -20.5q-34 0 -57 20t-23 55q0 36 23 56.5t57 20.5zM542 182l53 -121q-126 -70 -260 -70q-140 0 -220.5 82t-80.5 231q0 151 82 233.5t229 82.5q122 0 228 -55l-49 -122q-108 31 -171 31q-154 0 -154 -170
q0 -75 39.5 -121t104.5 -46q87 0 199 45z" />
    <glyph glyph-name="cdotaccent" unicode="&#x10b;" horiz-adv-x="492" 
d="M260 705q33 0 58 -22t25 -59q0 -36 -25 -57.5t-58 -21.5q-36 0 -59.5 21.5t-23.5 57.5q0 38 23.5 59.5t59.5 21.5zM431 155l47 -91q-50 -39 -99.5 -56t-117.5 -17q-101 0 -166.5 65t-65.5 183q0 122 64 187.5t170 65.5q108 0 198 -53l-44 -101q-63 27 -132 27
q-47 0 -73 -32.5t-26 -93.5q0 -58 25.5 -89.5t72.5 -31.5q76 0 147 37z" />
    <glyph glyph-name="Ccaron" unicode="&#x10c;" horiz-adv-x="612" 
d="M379 652h-91l-131 138l40 41l137 -83l137 83l39 -41zM542 182l53 -121q-126 -70 -260 -70q-140 0 -220.5 82t-80.5 231q0 151 82 233.5t229 82.5q122 0 228 -55l-49 -122q-108 31 -171 31q-154 0 -154 -170q0 -75 39.5 -121t104.5 -46q87 0 199 45z" />
    <glyph glyph-name="ccaron" unicode="&#x10d;" horiz-adv-x="492" 
d="M304 532h-87l-127 140l38 40l132 -80l132 80l38 -40zM431 155l47 -91q-50 -39 -99.5 -56t-117.5 -17q-101 0 -166.5 65t-65.5 183q0 122 64 187.5t170 65.5q108 0 198 -53l-44 -101q-63 27 -132 27q-47 0 -73 -32.5t-26 -93.5q0 -58 25.5 -89.5t72.5 -31.5q76 0 147 37z
" />
    <glyph glyph-name="Dcaron" unicode="&#x10e;" horiz-adv-x="657" 
d="M345 644h-92l-130 138l39 42l137 -83l137 83l40 -42zM58 610h216q164 0 256.5 -83t92.5 -223q0 -138 -93.5 -221t-255.5 -83h-216v610zM221 143h53q184 0 184 161q0 84 -44.5 123.5t-139.5 39.5h-53v-324z" />
    <glyph glyph-name="dcaron" unicode="&#x10f;" horiz-adv-x="573" 
d="M365 0v54q-35 -34 -63.5 -48.5t-80.5 -14.5q-83 0 -137.5 63.5t-54.5 191.5q0 126 47.5 186t134.5 60q91 0 154 -66v219h160v-645h-160zM679 645v-12q-7 -97 -45 -172h-71l3 184h113zM365 174v130q-41 55 -97 55q-82 0 -82 -113q0 -124 87 -124q32 0 52.5 12.5t39.5 39.5
z" />
    <glyph glyph-name="Dcroat" unicode="&#x110;" horiz-adv-x="655" 
d="M56 610h216q164 0 256.5 -83t92.5 -223q0 -138 -93.5 -221t-255.5 -83h-216v241h-51v125h51v244zM219 143h53q184 0 184 161q0 84 -44.5 123.5t-139.5 39.5h-53v-101h97v-125h-97v-98z" />
    <glyph glyph-name="dcroat" unicode="&#x111;" horiz-adv-x="576" 
d="M559 518h-34v-518h-160v54q-35 -34 -63.5 -48.5t-80.5 -14.5q-83 0 -137.5 63.5t-54.5 191.5q0 126 47.5 186t134.5 60q91 0 154 -66v92h-117v73h117v54h160v-54h34v-73zM365 174v130q-41 55 -97 55q-82 0 -82 -113q0 -124 87 -124q32 0 52.5 12.5t39.5 39.5z" />
    <glyph glyph-name="Emacron" unicode="&#x112;" horiz-adv-x="560" 
d="M426 674h-300v109h300v-109zM516 0h-458v610h450v-148h-287v-92h245v-140h-245v-85h295v-145z" />
    <glyph glyph-name="emacron" unicode="&#x113;" horiz-adv-x="529" 
d="M423 548h-308v113h308v-113zM451 159l45 -90q-104 -78 -223 -78q-114 0 -179 63.5t-65 183.5q0 124 65 189t180 65q104 0 164 -59.5t61 -172.5q0 -32 -4 -65h-312q16 -80 97 -80q88 0 171 44zM182 290h180q-6 91 -88 91q-79 0 -92 -91z" />
    <glyph glyph-name="Edotaccent" unicode="&#x116;" horiz-adv-x="560" 
d="M276 810q32 0 56 -20.5t24 -55.5t-24 -55.5t-56 -20.5q-34 0 -56.5 20t-22.5 56t22.5 56t56.5 20zM516 0h-458v610h450v-148h-287v-92h245v-140h-245v-85h295v-145z" />
    <glyph glyph-name="edotaccent" unicode="&#x117;" horiz-adv-x="529" 
d="M266 704q33 0 58 -22t25 -58t-25 -58t-58 -22q-36 0 -60 21.5t-24 58.5t24 58.5t60 21.5zM451 159l45 -90q-104 -78 -223 -78q-114 0 -179 63.5t-65 183.5q0 124 65 189t180 65q104 0 164 -59.5t61 -172.5q0 -32 -4 -65h-312q16 -80 97 -80q88 0 171 44zM182 290h180
q-6 91 -88 91q-79 0 -92 -91z" />
    <glyph glyph-name="Eogonek" unicode="&#x118;" horiz-adv-x="560" 
d="M516 0h-72q-87 -8 -87 -53q0 -18 16.5 -29t44.5 -11q15 0 78 10l16 -76q-68 -27 -138 -27q-53 0 -85 25t-32 66q0 59 59 95h-258v610h450v-148h-287v-92h245v-140h-245v-85h295v-145z" />
    <glyph glyph-name="eogonek" unicode="&#x119;" horiz-adv-x="529" 
d="M451 159l45 -90q-84 -64 -179 -76q-49 -13 -49 -46q0 -18 16 -29t44 -11q16 0 79 10l16 -76q-70 -27 -138 -27q-54 0 -86 25t-32 66q0 55 52 90q-90 15 -140 76.5t-50 166.5q0 124 65 189t180 65q104 0 164 -59.5t61 -172.5q0 -32 -4 -65h-312q16 -80 97 -80q88 0 171 44
zM182 290h180q-6 91 -88 91q-79 0 -92 -91z" />
    <glyph glyph-name="Ecaron" unicode="&#x11a;" horiz-adv-x="560" 
d="M322 644h-92l-130 138l39 42l137 -83l137 83l40 -42zM516 0h-458v610h450v-148h-287v-92h245v-140h-245v-85h295v-145z" />
    <glyph glyph-name="ecaron" unicode="&#x11b;" horiz-adv-x="529" 
d="M306 532h-87l-127 140l38 40l132 -80l132 80l38 -40zM451 159l45 -90q-104 -78 -223 -78q-114 0 -179 63.5t-65 183.5q0 124 65 189t180 65q104 0 164 -59.5t61 -172.5q0 -32 -4 -65h-312q16 -80 97 -80q88 0 171 44zM182 290h180q-6 91 -88 91q-79 0 -92 -91z" />
    <glyph glyph-name="Gbreve" unicode="&#x11e;" horiz-adv-x="673" 
d="M398 792h89q0 -66 -38.5 -101t-113.5 -35q-74 0 -112.5 35t-38.5 101h89q2 -21 18 -35t44 -14q29 0 45.5 14t17.5 35zM629 347v-280q-153 -76 -296 -76q-139 0 -219 82t-80 231q0 142 83.5 229t220.5 87q140 0 264 -55l-41 -121q-125 34 -208 34q-70 0 -112 -48t-42 -126
q0 -82 37 -125.5t104 -43.5q86 0 148 23v61h-156v128h297z" />
    <glyph glyph-name="gbreve" unicode="&#x11f;" horiz-adv-x="568" 
d="M356 687h89q0 -143 -152 -143q-151 0 -151 143h89q0 -25 16.5 -40.5t45.5 -15.5q30 0 46.5 15.5t16.5 40.5zM524 483v-399q0 -135 -61 -196.5t-184 -61.5t-213 41l21 109q114 -29 170 -29t81.5 31t25.5 106v3q-30 -37 -62 -51.5t-88 -14.5q-86 0 -135.5 59t-49.5 173
q0 239 182 239q79 0 153 -63v54h160zM364 197v107q-41 55 -96 55q-42 0 -62 -24t-20 -82q0 -109 87 -109q32 0 52 12.5t39 40.5z" />
    <glyph glyph-name="Gdotaccent" unicode="&#x120;" horiz-adv-x="673" 
d="M335 810q32 0 56 -20.5t24 -55.5t-24 -55.5t-56 -20.5q-34 0 -56.5 20t-22.5 56t22.5 56t56.5 20zM629 347v-280q-153 -76 -296 -76q-139 0 -219 82t-80 231q0 142 83.5 229t220.5 87q140 0 264 -55l-41 -121q-125 34 -208 34q-70 0 -112 -48t-42 -126q0 -82 37 -125.5
t104 -43.5q86 0 148 23v61h-156v128h297z" />
    <glyph glyph-name="gdotaccent" unicode="&#x121;" horiz-adv-x="568" 
d="M286 705q33 0 58 -22t25 -59q0 -36 -25 -57.5t-58 -21.5q-36 0 -59.5 21.5t-23.5 57.5q0 38 23.5 59.5t59.5 21.5zM524 483v-399q0 -135 -61 -196.5t-184 -61.5t-213 41l21 109q114 -29 170 -29t81.5 31t25.5 106v3q-30 -37 -62 -51.5t-88 -14.5q-86 0 -135.5 59
t-49.5 173q0 239 182 239q79 0 153 -63v54h160zM364 197v107q-41 55 -96 55q-42 0 -62 -24t-20 -82q0 -109 87 -109q32 0 52 12.5t39 40.5z" />
    <glyph glyph-name="Gcommaaccent" unicode="&#x122;" horiz-adv-x="673" 
d="M629 347v-280q-153 -76 -296 -76q-139 0 -219 82t-80 231q0 142 83.5 229t220.5 87q140 0 264 -55l-41 -121q-125 34 -208 34q-70 0 -112 -48t-42 -126q0 -82 37 -125.5t104 -43.5q86 0 148 23v61h-156v128h297zM292 -235l-15 39q32 21 41 36q-19 6 -30.5 22t-11.5 37
q0 27 17.5 45t44.5 18q28 0 45.5 -19.5t17.5 -48.5q0 -44 -30 -79.5t-79 -49.5z" />
    <glyph glyph-name="gcommaaccent" unicode="&#x123;" horiz-adv-x="568" 
d="M332 758l18 -43q-32 -19 -47 -38q23 -8 36 -26t13 -42q0 -30 -20 -50.5t-51 -20.5t-51.5 22.5t-20.5 55.5q0 47 29 81t94 61zM524 483v-399q0 -135 -61 -196.5t-184 -61.5t-213 41l21 109q114 -29 170 -29t81.5 31t25.5 106v3q-30 -37 -62 -51.5t-88 -14.5
q-86 0 -135.5 59t-49.5 173q0 239 182 239q79 0 153 -63v54h160zM364 197v107q-41 55 -96 55q-42 0 -62 -24t-20 -82q0 -109 87 -109q32 0 52 12.5t39 40.5z" />
    <glyph glyph-name="Hbar" unicode="&#x126;" horiz-adv-x="682" 
d="M663 423h-43v-423h-163v203h-232v-203h-162v423h-44v107h44v80h162v-80h232v80h163v-80h43v-107zM457 423h-232v-79h232v79z" />
    <glyph glyph-name="hbar" unicode="&#x127;" horiz-adv-x="564" 
d="M207 518v-109q74 83 159 83q78 0 115 -44t37 -141v-307h-160v252q0 46 -11.5 63.5t-44.5 17.5q-51 0 -95 -56v-277h-160v518h-32v73h32v54h160v-54h119v-73h-119z" />
    <glyph glyph-name="Imacron" unicode="&#x12a;" horiz-adv-x="279" 
d="M290 674h-300v109h300v-109zM221 0h-163v610h163v-610z" />
    <glyph glyph-name="imacron" unicode="&#x12b;" horiz-adv-x="269" 
d="M289 563h-309v113h309v-113zM215 0h-160v483h160v-483z" />
    <glyph glyph-name="Iogonek" unicode="&#x12e;" horiz-adv-x="279" 
d="M242 -83l16 -76q-70 -27 -138 -27q-54 0 -86 25t-32 66q0 58 59 95h-3v610h163v-610h-31q-87 -8 -87 -53q0 -18 16 -29t44 -11q16 0 79 10z" />
    <glyph glyph-name="iogonek" unicode="&#x12f;" horiz-adv-x="269" 
d="M135 544q-36 0 -60 21.5t-24 58.5t24 58.5t60 21.5q33 0 58 -22t25 -58t-25 -58t-58 -22zM246 -83l16 -76q-68 -27 -138 -27q-54 0 -86 25t-32 66q0 59 60 95h-11v483h160v-483h-21q-87 -8 -87 -53q0 -18 16.5 -29t44.5 -11q15 0 78 10z" />
    <glyph glyph-name="Idotaccent" unicode="&#x130;" horiz-adv-x="279" 
d="M140 810q32 0 56 -20.5t24 -55.5t-24 -55.5t-56 -20.5q-34 0 -56.5 20t-22.5 56t22.5 56t56.5 20zM221 0h-163v610h163v-610z" />
    <glyph glyph-name="dotlessi" unicode="&#x131;" horiz-adv-x="269" 
d="M215 0h-160v483h160v-483z" />
    <glyph glyph-name="IJ" unicode="&#x132;" horiz-adv-x="764" 
d="M221 0h-163v610h163v-610zM702 610v-368q0 -131 -49 -191t-158 -60q-95 0 -205 54l37 118q78 -24 130 -24q82 0 82 103v368h163z" />
    <glyph glyph-name="ij" unicode="&#x133;" horiz-adv-x="518" 
d="M45 624q0 39 26 60t64 21t64 -21t26 -60t-26 -60.5t-64 -21.5t-64 21.5t-26 60.5zM382 542q-38 0 -64 21.5t-26 60.5t26 60t64 21t64 -21t26 -60t-26 -60.5t-64 -21.5zM215 0h-160v483h160v-483zM463 483v-425q0 -99 -42.5 -155t-148.5 -79l-32 106q39 21 51 48t12 80
v425h160z" />
    <glyph glyph-name="Kcommaaccent" unicode="&#x136;" horiz-adv-x="645" 
d="M300 210l-79 -94v-116h-163v610h163v-270l228 270h176v-11l-219 -261l229 -327v-11h-184zM278 -235l-15 39q31 19 41 36q-19 6 -30.5 22t-11.5 37q0 27 17.5 45t45.5 18q27 0 44.5 -19.5t17.5 -48.5q0 -44 -30 -79.5t-79 -49.5z" />
    <glyph glyph-name="kcommaaccent" unicode="&#x137;" horiz-adv-x="558" 
d="M545 483v-11l-183 -195l187 -266v-11h-179l-113 159l-48 -53v-106h-160v645h160v-330l157 168h179zM234 -235l-14 39q31 20 40 36q-19 6 -30.5 22.5t-11.5 36.5q0 27 17.5 45t45.5 18q27 0 44.5 -19.5t17.5 -48.5q0 -44 -29.5 -79.5t-79.5 -49.5z" />
    <glyph glyph-name="Lacute" unicode="&#x139;" horiz-adv-x="520" 
d="M285 769v-32q-82 -55 -189 -96l-39 40l114 150zM493 0h-435v610h163v-462h272v-148z" />
    <glyph glyph-name="lacute" unicode="&#x13a;" horiz-adv-x="258" 
d="M272 822v-31q-80 -60 -189 -104l-39 41l129 165zM209 0h-160v645h160v-645z" />
    <glyph glyph-name="Lcommaaccent" unicode="&#x13b;" horiz-adv-x="520" 
d="M493 0h-435v610h163v-462h272v-148zM218 -235l-14 39q30 20 41 36q-19 6 -30.5 22t-11.5 37q0 27 17.5 45t44.5 18q28 0 45.5 -19.5t17.5 -48.5q0 -44 -30 -79.5t-80 -49.5z" />
    <glyph glyph-name="lcommaaccent" unicode="&#x13c;" horiz-adv-x="258" 
d="M209 0h-160v645h160v-645zM83 -235l-14 39q31 20 40 36q-19 6 -30.5 22.5t-11.5 36.5q0 27 17.5 45t45.5 18q27 0 44.5 -19.5t17.5 -48.5q0 -44 -29.5 -79.5t-79.5 -49.5z" />
    <glyph glyph-name="Lcaron" unicode="&#x13d;" horiz-adv-x="520" 
d="M493 0h-435v610h163v-462h272v-148zM437 610v-12q-7 -97 -45 -172h-71l3 184h113z" />
    <glyph glyph-name="lcaron" unicode="&#x13e;" horiz-adv-x="269" 
d="M209 0h-160v645h160v-645zM372 645v-12q-8 -101 -45 -172h-70l2 184h113z" />
    <glyph glyph-name="Ldot" unicode="&#x13f;" horiz-adv-x="520" 
d="M493 0h-435v610h163v-462h272v-148zM295 337q0 39 25 64.5t65 25.5t65 -25.5t25 -64.5t-25 -65t-65 -26t-65 26t-25 65z" />
    <glyph glyph-name="ldot" unicode="&#x140;" horiz-adv-x="440" 
d="M209 0h-160v645h160v-645zM250 320q0 39 25 64.5t65 25.5t65 -25.5t25 -64.5t-25 -65t-65 -26t-65 26t-25 65z" />
    <glyph glyph-name="Lslash" unicode="&#x141;" horiz-adv-x="528" 
d="M490 148v-148h-434v232l-46 -13v126l46 13v252h163v-207l127 35v-126l-127 -35v-129h271z" />
    <glyph glyph-name="lslash" unicode="&#x142;" horiz-adv-x="269" 
d="M261 312l-49 -16v-296h-160v241l-42 -14v126l42 14v278h160v-224l49 17v-126z" />
    <glyph glyph-name="Nacute" unicode="&#x143;" horiz-adv-x="685" 
d="M476 769v-32q-80 -54 -189 -96l-39 40l113 150zM627 0h-148l-258 344v-344h-163v610h148l258 -348v348h163v-610z" />
    <glyph glyph-name="nacute" unicode="&#x144;" horiz-adv-x="566" 
d="M418 660v-32q-78 -58 -189 -104l-39 41l128 165zM209 483v-63q80 72 159 72q78 0 115 -44t37 -141v-307h-160v262q0 46 -11.5 63.5t-44.5 17.5q-51 0 -95 -55v-288h-160v483h160z" />
    <glyph glyph-name="Ncommaaccent" unicode="&#x145;" horiz-adv-x="685" 
d="M627 0h-148l-258 344v-344h-163v610h148l258 -348v348h163v-610zM294 -235l-15 39q32 21 41 36q-19 6 -30.5 22t-11.5 37q0 27 17.5 45t44.5 18q28 0 45.5 -19.5t17.5 -48.5q0 -44 -30 -79.5t-79 -49.5z" />
    <glyph glyph-name="ncommaaccent" unicode="&#x146;" horiz-adv-x="566" 
d="M209 483v-63q80 72 159 72q78 0 115 -44t37 -141v-307h-160v262q0 46 -11.5 63.5t-44.5 17.5q-51 0 -95 -55v-288h-160v483h160zM236 -235l-14 39q31 20 40 36q-19 6 -30.5 22.5t-11.5 36.5q0 27 17.5 45t45.5 18q27 0 44.5 -19.5t17.5 -48.5q0 -44 -29.5 -79.5
t-79.5 -49.5z" />
    <glyph glyph-name="Ncaron" unicode="&#x147;" horiz-adv-x="685" 
d="M388 644h-92l-130 138l39 42l137 -83l137 83l40 -42zM627 0h-148l-258 344v-344h-163v610h148l258 -348v348h163v-610z" />
    <glyph glyph-name="ncaron" unicode="&#x148;" horiz-adv-x="566" 
d="M328 532h-87l-126 139l38 40l76.5 -46.5t55.5 -32.5l131 79l38 -40zM209 483v-63q80 72 159 72q78 0 115 -44t37 -141v-307h-160v262q0 46 -11.5 63.5t-44.5 17.5q-51 0 -95 -55v-288h-160v483h160z" />
    <glyph glyph-name="Omacron" unicode="&#x14c;" horiz-adv-x="685" 
d="M493 674h-301v109h301v-109zM343 620q145 0 226.5 -82.5t81.5 -233.5q0 -150 -81.5 -231.5t-226.5 -81.5q-146 0 -227.5 81.5t-81.5 231.5q0 151 81.5 233.5t227.5 82.5zM343 137q68 0 105.5 42.5t37.5 124.5q0 84 -37.5 127t-105.5 43q-69 0 -106.5 -43t-37.5 -127
q0 -82 37.5 -124.5t106.5 -42.5z" />
    <glyph glyph-name="omacron" unicode="&#x14d;" horiz-adv-x="561" 
d="M434 564h-308v113h308v-113zM280 492q120 0 186 -66t66 -187q0 -118 -66 -183t-186 -65q-119 0 -185 65t-66 183q0 121 66 187t185 66zM280 118q48 0 71.5 28t23.5 93q0 68 -23.5 97t-71.5 29q-47 0 -70.5 -29.5t-23.5 -96.5q0 -65 23.5 -93t70.5 -28z" />
    <glyph glyph-name="Ohungarumlaut" unicode="&#x150;" horiz-adv-x="685" 
d="M386 781v-30q-89 -70 -144 -107l-52 34l94 156zM568 781v-30q-82 -65 -143 -107l-52 34l93 156zM343 620q145 0 226.5 -82.5t81.5 -233.5q0 -150 -81.5 -231.5t-226.5 -81.5q-146 0 -227.5 81.5t-81.5 231.5q0 151 81.5 233.5t227.5 82.5zM343 137q68 0 105.5 42.5
t37.5 124.5q0 84 -37.5 127t-105.5 43q-69 0 -106.5 -43t-37.5 -127q0 -82 37.5 -124.5t106.5 -42.5z" />
    <glyph glyph-name="ohungarumlaut" unicode="&#x151;" horiz-adv-x="561" 
d="M324 677v-31q-61 -58 -143 -114l-45 34l94 164zM499 677v-31q-61 -58 -143 -114l-45 34l94 164zM280 492q120 0 186 -66t66 -187q0 -118 -66 -183t-186 -65q-119 0 -185 65t-66 183q0 121 66 187t185 66zM280 118q48 0 71.5 28t23.5 93q0 68 -23.5 97t-71.5 29
q-47 0 -70.5 -29.5t-23.5 -96.5q0 -65 23.5 -93t70.5 -28z" />
    <glyph glyph-name="OE" unicode="&#x152;" horiz-adv-x="939" 
d="M895 145v-145h-458v6q-42 -15 -94 -15q-146 0 -227.5 81.5t-81.5 230.5q0 151 81.5 234t227.5 83q52 0 94 -15v5h450v-148h-287v-92h245v-140h-245v-85h295zM437 168v275q-35 31 -95 31q-68 0 -105.5 -43t-37.5 -127q0 -82 37.5 -124.5t105.5 -42.5q60 0 95 31z" />
    <glyph glyph-name="oe" unicode="&#x153;" horiz-adv-x="878" 
d="M844 195h-311q15 -80 96 -80q89 0 171 44l45 -90q-104 -78 -223 -78q-106 0 -169 54q-65 -54 -173 -54q-119 0 -185 65t-66 183q0 121 66 187t185 66q108 0 174 -55q62 55 169 55q104 0 164 -59.5t61 -172.5q0 -32 -4 -65zM531 290h180q-6 91 -88 91q-79 0 -92 -91z
M280 118q48 0 71.5 28t23.5 93q0 68 -23.5 97t-71.5 29q-47 0 -70.5 -29.5t-23.5 -96.5q0 -65 23.5 -93t70.5 -28z" />
    <glyph glyph-name="Racute" unicode="&#x154;" horiz-adv-x="608" 
d="M428 769v-32q-80 -54 -189 -96l-39 40l113 150zM600 13v-13h-174l-122 170h-83v-170h-163v610h253q129 0 199 -59.5t70 -168.5q0 -134 -116 -185zM221 297h92q51 0 78.5 22t27.5 63q0 42 -27.5 65t-78.5 23h-92v-173z" />
    <glyph glyph-name="racute" unicode="&#x155;" horiz-adv-x="408" 
d="M334 660v-32q-78 -58 -189 -104l-39 41l128 165zM209 483v-89q51 98 129 98q33 0 60 -3l-11 -161q-24 2 -57 2q-48 0 -77.5 -19.5t-43.5 -69.5v-241h-160v483h160z" />
    <glyph glyph-name="Rcommaaccent" unicode="&#x156;" horiz-adv-x="608" 
d="M600 13v-13h-174l-122 170h-83v-170h-163v610h253q129 0 199 -59.5t70 -168.5q0 -134 -116 -185zM221 297h92q51 0 78.5 22t27.5 63q0 42 -27.5 65t-78.5 23h-92v-173zM260 -235l-15 39q32 21 41 36q-19 6 -30.5 22t-11.5 37q0 27 17.5 45t44.5 18q28 0 45.5 -19.5
t17.5 -48.5q0 -44 -30 -79.5t-79 -49.5z" />
    <glyph glyph-name="rcommaaccent" unicode="&#x157;" horiz-adv-x="408" 
d="M209 483v-89q51 98 129 98q33 0 60 -3l-11 -161q-24 2 -57 2q-48 0 -77.5 -19.5t-43.5 -69.5v-241h-160v483h160zM81 -235l-14 39q32 21 41 36q-19 6 -30.5 22t-11.5 37q0 27 17.5 45t44.5 18q28 0 45.5 -19.5t17.5 -48.5q0 -44 -30 -79.5t-80 -49.5z" />
    <glyph glyph-name="Rcaron" unicode="&#x158;" horiz-adv-x="608" 
d="M249 644l-131 138l39 42l137 -83l137 83l40 -42l-131 -138h-91zM600 13v-13h-174l-122 170h-83v-170h-163v610h253q129 0 199 -59.5t70 -168.5q0 -134 -116 -185zM221 297h92q51 0 78.5 22t27.5 63q0 42 -27.5 65t-78.5 23h-92v-173z" />
    <glyph glyph-name="rcaron" unicode="&#x159;" horiz-adv-x="426" 
d="M262 532h-87l-126 139l38 40l76.5 -46.5t55.5 -32.5l131 79l38 -40zM227 483v-89q51 98 129 98q33 0 60 -3l-11 -161q-24 2 -57 2q-48 0 -77.5 -19.5t-43.5 -69.5v-241h-160v483h160z" />
    <glyph glyph-name="Sacute" unicode="&#x15a;" horiz-adv-x="582" 
d="M423 769v-32q-80 -54 -189 -96l-39 40l113 150zM527 562l-48 -119q-124 46 -198 46q-27 0 -45.5 -10.5t-18.5 -29.5q0 -21 27 -35t127 -48q93 -32 128.5 -73t35.5 -117q0 -85 -59 -135t-165 -50q-62 0 -144.5 23t-143.5 60l61 127q129 -71 218 -71q56 0 56 41
q0 20 -23.5 32.5t-110.5 38.5q-174 52 -174 195q0 81 56 132t157 51q133 0 264 -58z" />
    <glyph glyph-name="sacute" unicode="&#x15b;" horiz-adv-x="477" 
d="M353 663v-31q-80 -60 -189 -104l-39 41l129 165zM437 455l-39 -110q-108 29 -168 29q-34 0 -34 -27q0 -6 2.5 -11t8 -9.5t11.5 -7.5t18 -6.5t21.5 -6l27.5 -7t31 -8.5q73 -20 101.5 -49.5t28.5 -90.5q0 -78 -51.5 -119t-150.5 -41q-102 0 -216 57l38 107q121 -45 180 -45
q40 0 40 24q0 5 -2 9.5t-7 8t-10.5 6t-16 6l-19 6.5t-24.5 7.5l-29 8.5q-132 41 -132 142q0 77 45 121t128 44q103 0 218 -38z" />
    <glyph glyph-name="Scedilla" unicode="&#x15e;" horiz-adv-x="582" 
d="M527 562l-48 -119q-124 46 -198 46q-27 0 -45.5 -10.5t-18.5 -29.5q0 -21 27 -35t127 -48q93 -32 128.5 -73t35.5 -117q0 -85 -59 -135t-165 -50h-15v-21q55 -4 75.5 -22.5t20.5 -58.5q0 -41 -26 -67.5t-73 -26.5q-55 0 -118 22l14 59q42 -9 68 -9q40 0 40 30
q0 20 -11 28t-40 8h-27l14 66q-119 20 -210 75l61 127q129 -71 218 -71q56 0 56 41q0 20 -23.5 32.5t-110.5 38.5q-174 52 -174 195q0 81 56 132t157 51q133 0 264 -58z" />
    <glyph glyph-name="scedilla" unicode="&#x15f;" horiz-adv-x="477" 
d="M437 455l-39 -110q-108 29 -168 29q-34 0 -34 -27q0 -6 2.5 -11t8 -9.5t11.5 -7.5t18 -6.5t21.5 -6l27.5 -7t31 -8.5q73 -20 101.5 -49.5t28.5 -90.5q0 -78 -51.5 -119t-150.5 -41h-2v-21q55 -4 75.5 -22.5t20.5 -58.5q0 -41 -26 -67.5t-73 -26.5q-55 0 -118 22l14 59
q42 -9 68 -9q40 0 40 30q0 20 -11 28t-40 8h-27l13 63q-70 11 -150 52l38 107q121 -45 180 -45q40 0 40 24q0 5 -2 9.5t-7 8t-10.5 6t-16 6l-19 6.5t-24.5 7.5l-29 8.5q-132 41 -132 142q0 77 45 121t128 44q103 0 218 -38z" />
    <glyph glyph-name="Scaron" unicode="&#x160;" horiz-adv-x="582" 
d="M335 644h-92l-130 138l39 42l137 -83l137 83l40 -42zM527 562l-48 -119q-124 46 -198 46q-27 0 -45.5 -10.5t-18.5 -29.5q0 -21 27 -35t127 -48q93 -32 128.5 -73t35.5 -117q0 -85 -59 -135t-165 -50q-62 0 -144.5 23t-143.5 60l61 127q129 -71 218 -71q56 0 56 41
q0 20 -23.5 32.5t-110.5 38.5q-174 52 -174 195q0 81 56 132t157 51q133 0 264 -58z" />
    <glyph glyph-name="scaron" unicode="&#x161;" horiz-adv-x="477" 
d="M264 535h-87l-127 140l38 40l132 -80l132 80l38 -40zM437 455l-39 -110q-108 29 -168 29q-34 0 -34 -27q0 -6 2.5 -11t8 -9.5t11.5 -7.5t18 -6.5t21.5 -6l27.5 -7t31 -8.5q73 -20 101.5 -49.5t28.5 -90.5q0 -78 -51.5 -119t-150.5 -41q-102 0 -216 57l38 107
q121 -45 180 -45q40 0 40 24q0 5 -2 9.5t-7 8t-10.5 6t-16 6l-19 6.5t-24.5 7.5l-29 8.5q-132 41 -132 142q0 77 45 121t128 44q103 0 218 -38z" />
    <glyph glyph-name="Tcaron" unicode="&#x164;" horiz-adv-x="576" 
d="M334 644h-92l-130 138l39 42l137 -83l137 83l40 -42zM558 462h-189v-462h-163v462h-188v148h540v-148z" />
    <glyph glyph-name="tcaron" unicode="&#x165;" horiz-adv-x="403" 
d="M388 697v-12q-7 -97 -45 -172h-71l3 184h113zM363 122l15 -96q-58 -33 -140 -33q-85 0 -122.5 42.5t-37.5 141.5v175h-68v131h68v107h160v-107h118v-131h-118v-168q0 -34 13 -49t47 -15q38 0 65 2z" />
    <glyph glyph-name="Umacron" unicode="&#x16a;" horiz-adv-x="663" 
d="M482 674h-301v109h301v-109zM610 610v-319q0 -152 -69 -226t-210 -74q-140 0 -209 74t-69 226v319h163v-319q0 -154 115 -154q116 0 116 154v319h163z" />
    <glyph glyph-name="umacron" unicode="&#x16b;" horiz-adv-x="569" 
d="M438 563h-308v113h308v-113zM358 0v57q-73 -48 -101 -57q-25 -9 -54 -9q-78 0 -117.5 45t-39.5 141v306h160v-265q0 -46 11.5 -64t44.5 -18q52 0 96 56v291h160v-483h-160z" />
    <glyph glyph-name="Uring" unicode="&#x16e;" horiz-adv-x="663" 
d="M331 859q49 0 79 -29.5t30 -77.5q0 -47 -30 -75.5t-79 -28.5q-48 0 -78.5 29t-30.5 75q0 48 30.5 77.5t78.5 29.5zM331 713q20 0 31.5 10.5t11.5 28.5q0 20 -11.5 31t-31.5 11q-19 0 -30.5 -11t-11.5 -31q0 -18 11.5 -28.5t30.5 -10.5zM610 610v-319q0 -152 -69 -226
t-210 -74q-140 0 -209 74t-69 226v319h163v-319q0 -154 115 -154q116 0 116 154v319h163z" />
    <glyph glyph-name="uring" unicode="&#x16f;" horiz-adv-x="569" 
d="M284 744q49 0 79 -29.5t30 -77.5q0 -47 -30 -75.5t-79 -28.5q-48 0 -78.5 29t-30.5 75q0 48 30.5 77.5t78.5 29.5zM284 598q20 0 31.5 10.5t11.5 28.5q0 20 -11.5 31t-31.5 11q-19 0 -30.5 -11t-11.5 -31q0 -18 11.5 -28.5t30.5 -10.5zM358 0v57q-73 -48 -101 -57
q-25 -9 -54 -9q-78 0 -117.5 45t-39.5 141v306h160v-265q0 -46 11.5 -64t44.5 -18q52 0 96 56v291h160v-483h-160z" />
    <glyph glyph-name="Uhungarumlaut" unicode="&#x170;" horiz-adv-x="663" 
d="M375 781v-30q-89 -70 -144 -107l-52 34l94 156zM557 781v-30q-82 -65 -143 -107l-53 34l94 156zM610 610v-319q0 -152 -69 -226t-210 -74q-140 0 -209 74t-69 226v319h163v-319q0 -154 115 -154q116 0 116 154v319h163z" />
    <glyph glyph-name="uhungarumlaut" unicode="&#x171;" horiz-adv-x="569" 
d="M328 676v-30q-60 -59 -143 -115l-45 34l94 164zM503 676v-30q-60 -59 -143 -115l-45 34l94 164zM358 0v57q-73 -48 -101 -57q-25 -9 -54 -9q-78 0 -117.5 45t-39.5 141v306h160v-265q0 -46 11.5 -64t44.5 -18q52 0 96 56v291h160v-483h-160z" />
    <glyph glyph-name="Uogonek" unicode="&#x172;" horiz-adv-x="663" 
d="M610 610v-320q0 -285 -250 -298q-44 -14 -44 -45q0 -18 16.5 -29t44.5 -11q15 0 78 10l16 -76q-68 -27 -138 -27q-54 0 -86 25t-32 66q0 54 52 90q-214 31 -214 296v319h163v-319q0 -154 115 -154q116 0 116 154v319h163z" />
    <glyph glyph-name="uogonek" unicode="&#x173;" horiz-adv-x="569" 
d="M509 -83l16 -76q-68 -27 -138 -27q-54 0 -86 25t-32 66q0 35 24 64.5t65 44.5v43q-73 -48 -101 -57q-25 -9 -54 -9q-78 0 -117.5 45t-39.5 141v306h160v-265q0 -46 11.5 -64t44.5 -18q52 0 96 56v291h160v-483h-61q-87 -8 -87 -53q0 -18 16.5 -29t44.5 -11q15 0 78 10z
" />
    <glyph glyph-name="Wcircumflex" unicode="&#x174;" horiz-adv-x="930" 
d="M465 720l-137 -83l-39 42l130 138h92l131 -138l-40 -42zM751 0h-193l-76 279q-10 52 -17 94q-7 -42 -17 -94l-76 -279h-193l-160 610h171l84 -363q7 -35 12 -79q1 7 13 79l78 363h176l78 -363q5 -29 12 -76q5 43 12 76l85 363h171z" />
    <glyph glyph-name="wcircumflex" unicode="&#x175;" horiz-adv-x="771" 
d="M560 567l-38 -40l-132 79l-62.5 -37t-69.5 -42l-38 40l126 140h87zM631 0h-180l-65 260l-65 -260h-180l-130 483h152l71 -266q6 -36 8 -60q4 30 12 60l76 266h111l76 -266q8 -35 12 -67q1 32 9 67l70 266h153z" />
    <glyph glyph-name="Ycircumflex" unicode="&#x176;" horiz-adv-x="638" 
d="M319 720l-137 -83l-39 42l130 138h92l131 -138l-40 -42zM400 192v-192h-162v192l-229 418h171l102 -192q24 -45 37 -77q13 32 37 77l102 192h171z" />
    <glyph glyph-name="ycircumflex" unicode="&#x177;" horiz-adv-x="554" 
d="M451 567l-38 -40q-25 16 -69.5 42l-62.5 37l-62.5 -37t-69.5 -42l-38 40l127 140h87zM383 483l168 -1q-3 -8 -15 -43t-15.5 -44.5l-14.5 -41l-15.5 -43.5l-15 -39.5l-16 -41l-15 -36t-17 -37.5l-16 -33t-17.5 -33q-55 -97 -121 -158t-164 -94l-52 119q80 36 122 79
l-178 446h164l85 -221l24 -77q51 105 109 299z" />
    <glyph glyph-name="Ydieresis" unicode="&#x178;" horiz-adv-x="638" 
d="M215 804q32 0 52.5 -18.5t20.5 -51.5q0 -32 -20.5 -50.5t-52.5 -18.5q-28 0 -50 19t-22 50q0 32 22 51t50 19zM423 804q29 0 50.5 -19t21.5 -51q0 -31 -21.5 -50t-50.5 -19q-31 0 -52 18.5t-21 50.5q0 33 21 51.5t52 18.5zM400 192v-192h-162v192l-229 418h171l102 -192
q24 -45 37 -77q13 32 37 77l102 192h171z" />
    <glyph glyph-name="Zacute" unicode="&#x179;" horiz-adv-x="605" 
d="M437 769v-32q-80 -54 -189 -96l-39 40l113 150zM569 0h-529v119l313 347q-88 -4 -132 -4h-158v148h502v-127l-291 -340q72 5 126 5h169v-148z" />
    <glyph glyph-name="zacute" unicode="&#x17a;" horiz-adv-x="526" 
d="M396 660v-32q-75 -57 -189 -104l-39 41l129 165zM490 0h-454v100l232 255q-47 -3 -93 -3h-130v131h433v-97l-222 -260q58 3 102 3h132v-129z" />
    <glyph glyph-name="Zdotaccent" unicode="&#x17b;" horiz-adv-x="605" 
d="M303 810q32 0 56 -20.5t24 -55.5t-24 -55.5t-56 -20.5q-34 0 -56.5 20t-22.5 56t22.5 56t56.5 20zM569 0h-529v119l313 347q-88 -4 -132 -4h-158v148h502v-127l-291 -340q72 5 126 5h169v-148z" />
    <glyph glyph-name="zdotaccent" unicode="&#x17c;" horiz-adv-x="526" 
d="M263 704q33 0 58 -22t25 -58t-25 -58t-58 -22q-36 0 -59.5 21.5t-23.5 58.5t23.5 58.5t59.5 21.5zM490 0h-454v100l232 255q-47 -3 -93 -3h-130v131h433v-97l-222 -260q58 3 102 3h132v-129z" />
    <glyph glyph-name="Zcaron" unicode="&#x17d;" horiz-adv-x="605" 
d="M349 644h-92l-130 138l39 42l137 -83l137 83l40 -42zM569 0h-529v119l313 347q-88 -4 -132 -4h-158v148h502v-127l-291 -340q72 5 126 5h169v-148z" />
    <glyph glyph-name="zcaron" unicode="&#x17e;" horiz-adv-x="526" 
d="M307 532h-87l-127 139l38 40q25 -16 69.5 -42l62.5 -37l62.5 37t69.5 42l38 -40zM490 0h-454v100l232 255q-47 -3 -93 -3h-130v131h433v-97l-222 -260q58 3 102 3h132v-129z" />
    <glyph glyph-name="florin" unicode="&#x192;" horiz-adv-x="577" 
d="M565 506l-44 -97q-81 26 -134 26q-101 0 -129 -150l-2 -10h189l-20 -102h-188l-32 -173h-156l31 173h-55l20 102h54l2 10q26 141 90.5 208.5t172.5 67.5q105 0 201 -55z" />
    <glyph glyph-name="Acaron" unicode="&#x1cd;" horiz-adv-x="695" 
d="M394 644h-92l-130 138l39 42l137 -83l137 83l40 -42zM218 97l-34 -97h-175l228 610h222l227 -610h-174l-34 97h-260zM426 245l-61 175q-14 44 -17 56l-18 -56l-61 -175h157z" />
    <glyph glyph-name="Scommaaccent" unicode="&#x218;" horiz-adv-x="582" 
d="M527 562l-48 -119q-124 46 -198 46q-27 0 -45.5 -10.5t-18.5 -29.5q0 -21 27 -35t127 -48q93 -32 128.5 -73t35.5 -117q0 -85 -59 -135t-165 -50q-62 0 -144.5 23t-143.5 60l61 127q129 -71 218 -71q56 0 56 41q0 20 -23.5 32.5t-110.5 38.5q-174 52 -174 195
q0 81 56 132t157 51q133 0 264 -58zM241 -235l-14 39q31 20 40 36q-19 6 -30.5 22.5t-11.5 36.5q0 27 17.5 45t45.5 18q27 0 44.5 -19.5t17.5 -48.5q0 -44 -29.5 -79.5t-79.5 -49.5z" />
    <glyph glyph-name="scommaaccent" unicode="&#x219;" horiz-adv-x="477" 
d="M437 455l-39 -110q-108 29 -168 29q-34 0 -34 -27q0 -6 2.5 -11t8 -9.5t11.5 -7.5t18 -6.5t21.5 -6l27.5 -7t31 -8.5q73 -20 101.5 -49.5t28.5 -90.5q0 -78 -51.5 -119t-150.5 -41q-102 0 -216 57l38 107q121 -45 180 -45q40 0 40 24q0 5 -2 9.5t-7 8t-10.5 6t-16 6
l-19 6.5t-24.5 7.5l-29 8.5q-132 41 -132 142q0 77 45 121t128 44q103 0 218 -38zM187 -235l-14 39q31 20 40 36q-19 6 -30.5 22.5t-11.5 36.5q0 27 17.5 45t45.5 18q27 0 44.5 -19.5t17.5 -48.5q0 -44 -29.5 -79.5t-79.5 -49.5z" />
    <glyph glyph-name="uni021A" unicode="&#x21a;" horiz-adv-x="576" 
d="M558 462h-189v-462h-163v462h-188v148h540v-148zM242 -235l-14 39q31 20 40 36q-19 6 -30.5 22.5t-11.5 36.5q0 27 17.5 45t45.5 18q27 0 44.5 -19.5t17.5 -48.5q0 -44 -29.5 -79.5t-79.5 -49.5z" />
    <glyph glyph-name="uni021B" unicode="&#x21b;" horiz-adv-x="393" 
d="M363 122l15 -96q-58 -33 -140 -33q-85 0 -122.5 42.5t-37.5 141.5v175h-68v131h68v107h160v-107h118v-131h-118v-168q0 -34 13 -49t47 -15q38 0 65 2zM160 -233l-15 39q32 21 41 36q-19 6 -30.5 22t-11.5 37q0 27 17.5 45t44.5 18q28 0 45.5 -19.5t17.5 -48.5
q0 -44 -30 -79.5t-79 -49.5z" />
    <glyph glyph-name="circumflex" unicode="&#x2c6;" 
d="M421 567l-38 -40q-25 16 -69.5 42l-62.5 37l-131 -79l-38 40l126 140h87z" />
    <glyph glyph-name="caron" unicode="&#x2c7;" 
d="M291 532h-87l-126 139l38 40l76.5 -46.5t55.5 -32.5l131 79l38 -40z" />
    <glyph glyph-name="breve" unicode="&#x2d8;" 
d="M318 687h89q0 -143 -152 -143t-152 143h90q0 -26 16.5 -41.5t45.5 -15.5q30 0 46.5 15.5t16.5 41.5z" />
    <glyph glyph-name="dotaccent" unicode="&#x2d9;" 
d="M248 704q33 0 58 -22t25 -58t-25 -58t-58 -22q-36 0 -60 21.5t-24 58.5t24 58.5t60 21.5z" />
    <glyph glyph-name="ring" unicode="&#x2da;" 
d="M248 744q48 0 78.5 -29.5t30.5 -77.5q0 -46 -30.5 -75t-79.5 -29q-48 0 -78 29t-30 75q0 48 30 77.5t79 29.5zM247 598q20 0 31.5 10.5t11.5 28.5q0 20 -11.5 31t-30.5 11t-31 -11t-12 -31q0 -18 12 -28.5t30 -10.5z" />
    <glyph glyph-name="ogonek" unicode="&#x2db;" 
d="M351 -83l16 -76q-68 -27 -138 -27q-53 0 -85 25t-32 66q0 48 42 83t109 39l36 -27q-87 -8 -87 -53q0 -18 16.5 -29t44.5 -11q15 0 78 10z" />
    <glyph glyph-name="tilde" unicode="&#x2dc;" 
d="M366 690l58 -2q-2 -47 -20.5 -77.5t-44.5 -41t-53.5 -9.5t-52.5 12l-55 26q-23 11 -36.5 5t-32.5 -33l-54 2q2 46 19 76t42 40t52 9t53 -12l54 -26q25 -10 37.5 -4t33.5 35z" />
    <glyph glyph-name="hungarumlaut" unicode="&#x2dd;" 
d="M287 676v-30q-62 -59 -144 -115l-45 34l94 164zM462 676v-30q-62 -59 -144 -115l-45 34l94 164z" />
    <glyph glyph-name="commaturnedabovecomb" unicode="&#x312;" horiz-adv-x="0" 
d="M292 758l18 -43q-32 -19 -47 -38q23 -8 36 -26t13 -42q0 -30 -20 -50.5t-51 -20.5t-51.5 22.5t-20.5 55.5q0 47 29 81t94 61z" />
    <glyph glyph-name="commaaccentcomb" unicode="&#x326;" horiz-adv-x="0" 
d="M199 -235l-14 39q30 20 41 36q-19 6 -30.5 22t-11.5 37q0 27 17.5 45t44.5 18q28 0 45.5 -19.5t17.5 -48.5q0 -44 -30 -79.5t-80 -49.5z" />
    <glyph glyph-name="Wgrave" unicode="&#x1e80;" horiz-adv-x="930" 
d="M555 679l-38 -41q-111 42 -190 97v31l115 63zM751 0h-193l-76 279q-10 52 -17 94q-7 -42 -17 -94l-76 -279h-193l-160 610h171l84 -363q7 -35 12 -79q1 7 13 79l78 363h176l78 -363q5 -29 12 -76q5 43 12 76l85 363h171z" />
    <glyph glyph-name="wgrave" unicode="&#x1e81;" horiz-adv-x="771" 
d="M492 565l-39 -41q-111 46 -189 104v32l100 70zM631 0h-180l-65 260l-65 -260h-180l-130 483h152l71 -266q6 -36 8 -60q4 30 12 60l76 266h111l76 -266q8 -35 12 -67q1 32 9 67l70 266h153z" />
    <glyph glyph-name="Wacute" unicode="&#x1e82;" horiz-adv-x="930" 
d="M599 769v-32q-80 -54 -189 -96l-39 40l113 150zM751 0h-193l-76 279q-10 52 -17 94q-7 -42 -17 -94l-76 -279h-193l-160 610h171l84 -363q7 -35 12 -79q1 7 13 79l78 363h176l78 -363q5 -29 12 -76q5 43 12 76l85 363h171z" />
    <glyph glyph-name="wacute" unicode="&#x1e83;" horiz-adv-x="771" 
d="M519 660v-32q-75 -57 -189 -104l-39 41l129 165zM631 0h-180l-65 260l-65 -260h-180l-130 483h152l71 -266q6 -36 8 -60q4 30 12 60l76 266h111l76 -266q8 -35 12 -67q1 32 9 67l70 266h153z" />
    <glyph glyph-name="Wdieresis" unicode="&#x1e84;" horiz-adv-x="930" 
d="M361 804q32 0 52.5 -18.5t20.5 -51.5q0 -32 -20.5 -50.5t-52.5 -18.5q-28 0 -50 19t-22 50q0 32 22 51t50 19zM569 804q29 0 50.5 -19t21.5 -51q0 -31 -21.5 -50t-50.5 -19q-31 0 -52 18.5t-21 50.5q0 33 21 51.5t52 18.5zM751 0h-193l-76 279q-10 52 -17 94
q-7 -42 -17 -94l-76 -279h-193l-160 610h171l84 -363q7 -35 12 -79q1 7 13 79l78 363h176l78 -363q5 -29 12 -76q5 43 12 76l85 363h171z" />
    <glyph glyph-name="wdieresis" unicode="&#x1e85;" horiz-adv-x="771" 
d="M282 693q33 0 54.5 -19.5t21.5 -53.5q0 -33 -21.5 -52.5t-54.5 -19.5q-30 0 -52.5 19.5t-22.5 52.5q0 34 22.5 53.5t52.5 19.5zM490 693q31 0 53.5 -19.5t22.5 -53.5q0 -33 -23 -52.5t-53 -19.5q-33 0 -54.5 19.5t-21.5 52.5q0 34 21.5 53.5t54.5 19.5zM631 0h-180
l-65 260l-65 -260h-180l-130 483h152l71 -266q6 -36 8 -60q4 30 12 60l76 266h111l76 -266q8 -35 12 -67q1 32 9 67l70 266h153z" />
    <glyph glyph-name="Ygrave" unicode="&#x1ef2;" horiz-adv-x="638" 
d="M409 679l-38 -41q-111 42 -190 97v31l115 63zM400 192v-192h-162v192l-229 418h171l102 -192q24 -45 37 -77q13 32 37 77l102 192h171z" />
    <glyph glyph-name="ygrave" unicode="&#x1ef3;" horiz-adv-x="554" 
d="M383 565l-38 -41q-111 46 -190 104v32l100 70zM383 483l168 -1q-3 -8 -15 -43t-15.5 -44.5l-14.5 -41l-15.5 -43.5l-15 -39.5l-16 -41l-15 -36t-17 -37.5l-16 -33t-17.5 -33q-55 -97 -121 -158t-164 -94l-52 119q80 36 122 79l-178 446h164l85 -221l24 -77
q51 105 109 299z" />
    <glyph glyph-name="uni2009" unicode="&#x2009;" horiz-adv-x="85" 
 />
    <glyph glyph-name="endash" unicode="&#x2013;" horiz-adv-x="499" 
d="M442 330v-118h-385v118h385z" />
    <glyph glyph-name="emdash" unicode="&#x2014;" horiz-adv-x="929" 
d="M872 330v-118h-815v118h815z" />
    <glyph glyph-name="quoteleft" unicode="&#x2018;" horiz-adv-x="281" 
d="M203 662l37 -46q-54 -43 -71 -87q28 -7 45.5 -30.5t17.5 -54.5q0 -39 -25 -65t-65 -26t-65.5 28t-25.5 70q0 55 41 113t111 98z" />
    <glyph glyph-name="quoteright" unicode="&#x2019;" horiz-adv-x="281" 
d="M81 353l-37 46q54 43 71 87q-29 8 -46 31.5t-17 54.5q0 39 25 64.5t65 25.5t65.5 -28t25.5 -70q0 -55 -41 -113t-111 -98z" />
    <glyph glyph-name="quotesinglbase" unicode="&#x201a;" horiz-adv-x="281" 
d="M81 -127l-37 46q54 43 71 87q-29 8 -46 31.5t-17 54.5q0 39 25 64.5t65 25.5t65.5 -28t25.5 -70q0 -55 -41 -113t-111 -98z" />
    <glyph glyph-name="quotedblleft" unicode="&#x201c;" horiz-adv-x="501" 
d="M203 662l37 -46q-54 -43 -71 -87q28 -7 45.5 -30.5t17.5 -54.5q0 -39 -25 -65t-65 -26t-65.5 28t-25.5 70q0 55 41 113t111 98zM423 662l37 -46q-54 -43 -71 -87q28 -7 45.5 -30.5t17.5 -54.5q0 -39 -25 -65t-65 -26t-65.5 28t-25.5 70q0 55 41 113t111 98z" />
    <glyph glyph-name="quotedblright" unicode="&#x201d;" horiz-adv-x="501" 
d="M81 353l-37 46q54 43 71 87q-29 8 -46 31.5t-17 54.5q0 39 25 64.5t65 25.5t65.5 -28t25.5 -70q0 -55 -41 -113t-111 -98zM301 353l-37 46q54 43 71 87q-28 7 -45.5 30.5t-17.5 54.5q0 39 25 65t65 26t65.5 -28t25.5 -70q0 -55 -41 -113t-111 -98z" />
    <glyph glyph-name="quotedblbase" unicode="&#x201e;" horiz-adv-x="501" 
d="M81 -127l-37 46q54 43 71 87q-29 8 -46 31.5t-17 54.5q0 39 25 64.5t65 25.5t65.5 -28t25.5 -70q0 -55 -41 -113t-111 -98zM301 -127l-37 46q54 43 71 87q-28 7 -45.5 30.5t-17.5 54.5q0 39 25 65t65 26t65.5 -28t25.5 -70q0 -55 -41 -113t-111 -98z" />
    <glyph glyph-name="dagger" unicode="&#x2020;" horiz-adv-x="523" 
d="M315 324l-12 -421h-84l-12 421l-165 11v83l167 11l10 181h84l11 -181l166 -11v-83z" />
    <glyph glyph-name="daggerdbl" unicode="&#x2021;" horiz-adv-x="523" 
d="M317 194l163 -11v-83l-166 -11l-11 -181h-84l-10 181l-167 11v83l163 11v130l-163 11v83l167 11l10 181h84l11 -181l166 -11v-83l-163 -11v-130z" />
    <glyph glyph-name="bullet" unicode="&#x2022;" horiz-adv-x="347" 
d="M54 269q0 52 33.5 86t86.5 34t86.5 -34t33.5 -86t-33.5 -86t-86.5 -34t-86.5 34t-33.5 86z" />
    <glyph glyph-name="ellipsis" unicode="&#x2026;" horiz-adv-x="824" 
d="M139 174q40 0 65 -25.5t25 -64.5t-25 -65t-65 -26t-65 26t-25 65t25 64.5t65 25.5zM412 174q40 0 65 -25.5t25 -64.5t-25 -65t-65 -26t-65 26t-25 65t25 64.5t65 25.5zM685 174q40 0 65 -25.5t25 -64.5t-25 -65t-65 -26t-65 26t-25 65t25 64.5t65 25.5z" />
    <glyph glyph-name="perthousand" unicode="&#x2030;" horiz-adv-x="1267" 
d="M199 620q167 0 167 -189q0 -186 -167 -186q-168 0 -168 186q0 189 168 189zM653 610l-343 -610h-89l343 610h89zM199 338q35 0 49 22.5t14 70.5q0 50 -14 73t-49 23q-36 0 -50 -23t-14 -73q0 -48 14 -70.5t50 -22.5zM680 367q167 0 167 -189q0 -187 -167 -187t-167 187
q0 189 167 189zM1069 367q167 0 167 -189q0 -187 -167 -187q-168 0 -168 187q0 189 168 189zM680 84q35 0 49.5 23t14.5 71q0 50 -14.5 73t-49.5 23t-49 -23t-14 -73q0 -48 14 -71t49 -23zM1069 84q35 0 49 23t14 71q0 50 -14 73t-49 23q-36 0 -50 -23t-14 -73
q0 -49 14.5 -71.5t49.5 -22.5z" />
    <glyph glyph-name="guilsinglleft" unicode="&#x2039;" horiz-adv-x="381" 
d="M334 392l-101 -102q-17 -17 -40 -35q18 -13 41 -34l100 -103l-79 -76l-223 214l222 215z" />
    <glyph glyph-name="guilsinglright" unicode="&#x203a;" horiz-adv-x="381" 
d="M126 42l-78 76l99 103q20 19 41 35q-28 22 -40 34l-100 102l79 79l222 -215z" />
    <glyph glyph-name="fraction" unicode="&#x2044;" horiz-adv-x="211" 
d="M322 610l-344 -610h-89l343 610h90z" />
    <glyph glyph-name="Euro" unicode="&#x20ac;" horiz-adv-x="562" 
d="M493 162l51 -97q-51 -40 -101.5 -57t-121.5 -17q-86 0 -151 48t-86 144h-61v62h53l-1 27v8h-52v62h58q18 102 83.5 158.5t158.5 56.5q103 0 203 -54l-44 -103q-73 32 -136 32q-84 0 -107 -90h196l-18 -62h-185v-8v-28h173l-18 -61h-143q24 -67 100 -67q78 0 149 46z" />
    <glyph glyph-name="uni2116" unicode="&#x2116;" horiz-adv-x="1158" 
d="M625 0h-148l-258 344v-344h-163v610h148l258 -348v348h163v-610zM904 565q93 0 142.5 -51t49.5 -143q0 -90 -49.5 -140t-142.5 -50t-142.5 50t-49.5 140q0 92 49.5 143t142.5 51zM904 296q59 0 59 75q0 77 -59 77t-59 -77q0 -75 59 -75zM1077 0h-346v118h346v-118z" />
    <glyph glyph-name="trademark" unicode="&#x2122;" horiz-adv-x="784" 
d="M313 527h-101v-214h-94v214h-103v83h298v-83zM632 473l-65 -160h-69l-65 159l-4 -159h-92l13 297h102l73 -167q2 -5 5 -13.5t3 -9.5q1 2 3 10.5t4 12.5l74 167h101l14 -297h-93z" />
    <glyph glyph-name="oneeighth" unicode="&#x215b;" horiz-adv-x="926" 
d="M323 231h-273v87h86v179q-48 -12 -87 -17l-19 65q69 25 125 65h83v-292h85v-87zM666 610l-344 -610h-89l343 610h90zM704 -9q-173 0 -173 113q0 59 72 92q-56 30 -56 81t41 77.5t115 26.5q71 0 108 -25.5t37 -73.5q0 -53 -64 -79q42 -18 62 -40.5t20 -57.5
q1 -54 -42.5 -84.5t-119.5 -29.5zM699 316q-24 0 -38.5 -10.5t-14.5 -27.5q0 -16 14.5 -27t49.5 -23q44 19 44 52q0 17 -15 26.5t-40 9.5zM695 68q28 0 45 11.5t17 29.5q0 17 -18 29.5t-66 28.5q-44 -22 -44 -55q0 -21 18 -32.5t48 -11.5z" />
    <glyph glyph-name="threeeighths" unicode="&#x215c;" horiz-adv-x="914" 
d="M46 516l-21 68q88 36 158 36q61 0 98.5 -29t37.5 -77q0 -31 -16 -52.5t-41 -31.5q66 -26 66 -82t-39 -86.5t-109 -30.5q-93 0 -167 41l28 70q68 -32 134 -32q56 0 56 39q0 41 -79 41h-55v76h55q39 0 55.5 7.5t16.5 26.5q0 41 -55 41q-50 0 -123 -25zM656 610l-343 -610
h-89l343 610h89zM695 -9q-174 0 -174 113q0 58 72 92q-55 30 -55 81q0 50 40.5 77t115.5 27q70 0 107.5 -26t37.5 -73q0 -52 -65 -79q43 -18 63 -41t20 -58q1 -54 -43 -84t-119 -29zM689 316q-23 0 -37.5 -10.5t-14.5 -27.5q0 -16 14 -27t49 -23q45 19 45 52q0 16 -15 26
t-41 10zM686 68q27 0 44 11.5t17 29.5q0 17 -18 29.5t-65 28.5q-45 -22 -45 -55q0 -21 18.5 -32.5t48.5 -11.5z" />
    <glyph glyph-name="fiveeighths" unicode="&#x215d;" horiz-adv-x="933" 
d="M142 525l-6 -76q43 27 89 27q57 0 88 -31.5t31 -87.5q0 -62 -42 -96.5t-108 -34.5q-96 0 -171 41l28 74q73 -31 128 -31q29 0 48 14t19 38q0 22 -14.5 34.5t-39.5 12.5q-29 0 -62 -25l-83 12l13 214h268v-85h-186zM668 610l-344 -610h-89l343 610h90zM714 -9
q-173 0 -173 113q0 59 72 92q-56 30 -56 81t41 77.5t115 26.5q71 0 108 -25.5t37 -73.5q0 -53 -64 -79q42 -18 62 -40.5t20 -57.5q1 -54 -42.5 -84.5t-119.5 -29.5zM709 316q-24 0 -38.5 -10.5t-14.5 -27.5q0 -16 14.5 -27t49.5 -23q44 19 44 52q0 17 -15 26.5t-40 9.5z
M705 68q28 0 45 11.5t17 29.5q0 17 -18 29.5t-66 28.5q-44 -22 -44 -55q0 -21 18 -32.5t48 -11.5z" />
    <glyph glyph-name="seveneighths" unicode="&#x215e;" horiz-adv-x="848" 
d="M312 610v-77q-94 -134 -138 -302h-120q60 174 147 293h-185v86h296zM573 610l-344 -610h-89l343 610h90zM626 -9q-173 0 -173 113q0 59 72 92q-56 30 -56 81t41 77.5t115 26.5q71 0 108 -25.5t37 -73.5q0 -53 -64 -79q42 -18 62 -40.5t20 -57.5q1 -54 -42.5 -84.5
t-119.5 -29.5zM621 316q-24 0 -38.5 -10.5t-14.5 -27.5q0 -16 14.5 -27t49.5 -23q44 19 44 52q0 17 -15 26.5t-40 9.5zM617 68q28 0 45 11.5t17 29.5q0 17 -18 29.5t-66 28.5q-44 -22 -44 -55q0 -21 18 -32.5t48 -11.5z" />
    <glyph glyph-name="arrowleft" unicode="&#x2190;" horiz-adv-x="648" 
d="M263 234l139 -141l-93 -93l-286 299l286 301l93 -93l-140 -142h367v-131h-366z" />
    <glyph glyph-name="arrowup" unicode="&#x2191;" horiz-adv-x="657" 
d="M395 382v-382h-132v382l-141 -133l-92 93l299 276l298 -276l-92 -93z" />
    <glyph glyph-name="arrowright" unicode="&#x2192;" horiz-adv-x="648" 
d="M339 0l-93 93l138 141h-365v131h366l-139 142l93 93l286 -301z" />
    <glyph glyph-name="arrowdown" unicode="&#x2193;" horiz-adv-x="657" 
d="M329 -8l-299 276l92 93l141 -133v382h132v-382l140 133l92 -93z" />
    <glyph glyph-name="arrowupleft" unicode="&#x2196;" horiz-adv-x="677" 
d="M173 388l4 -219h-132v441h440v-131l-219 3l389 -389l-94 -93z" />
    <glyph glyph-name="arrowupright" unicode="&#x2197;" horiz-adv-x="677" 
d="M632 169h-131l3 219l-388 -388l-93 93l388 389l-219 -3v131h440v-441z" />
    <glyph glyph-name="arrowdownright" unicode="&#x2198;" horiz-adv-x="677" 
d="M632 0h-440v131l219 -3l-388 389l93 93l388 -388l-3 219h131v-441z" />
    <glyph glyph-name="arrowdownleft" unicode="&#x2199;" horiz-adv-x="677" 
d="M485 131v-131h-440v441h132l-4 -219l388 388l94 -93l-389 -389z" />
    <glyph glyph-name="minus" unicode="&#x2212;" horiz-adv-x="496" 
d="M45 186v113h406v-113h-406z" />
    <glyph glyph-name="J.ss01" horiz-adv-x="305" 
d="M247 610v-481q0 -107 -39 -164t-136 -98l-64 105q43 25 59.5 49.5t16.5 76.5v512h163z" />
    <glyph glyph-name="K.ss02" horiz-adv-x="634" 
d="M221 218v-218h-163v610h163v-224h71l147 224h176v-13l-182 -288l191 -296v-13h-190l-136 218h-77z" />
    <glyph glyph-name="Kcommaaccent.ss02" horiz-adv-x="634" 
d="M221 218v-218h-163v610h163v-224h71l147 224h176v-13l-182 -288l191 -296v-13h-190l-136 218h-77zM270 -235l-15 39q31 19 41 36q-19 6 -30.5 22t-11.5 37q0 27 17.5 45t45.5 18q27 0 44.5 -19.5t17.5 -48.5q0 -44 -30 -79.5t-79 -49.5z" />
    <glyph glyph-name="Q.ss03" horiz-adv-x="670" 
d="M626 -32l-114 -90q-63 69 -101 120q-32 -7 -76 -7q-145 0 -223 81t-78 231q0 152 78 234.5t223 82.5t223 -82.5t78 -234.5q0 -168 -96 -247q28 -32 86 -88zM199 303q0 -166 136 -166t136 166q0 171 -136 171t-136 -171z" />
    <glyph glyph-name="R.ss04" horiz-adv-x="640" 
d="M58 610h252q129 0 199 -58.5t70 -167.5q0 -71 -26.5 -108t-79.5 -53q30 -15 52.5 -41t37.5 -62.5t21.5 -59.5t15.5 -60h-186q-19 74 -45 117.5t-72 43.5h-77v-161h-162v610zM220 297h92q52 0 79.5 22.5t26.5 64.5q0 41 -27.5 63.5t-78.5 22.5h-92v-173z" />
    <glyph glyph-name="Racute.ss04" horiz-adv-x="640" 
d="M440 769v-32q-80 -54 -189 -96l-39 40l113 150zM58 610h252q129 0 199 -58.5t70 -167.5q0 -71 -26.5 -108t-79.5 -53q30 -15 52.5 -41t37.5 -62.5t21.5 -59.5t15.5 -60h-186q-19 74 -45 117.5t-72 43.5h-77v-161h-162v610zM220 297h92q52 0 79.5 22.5t26.5 64.5
q0 41 -27.5 63.5t-78.5 22.5h-92v-173z" />
    <glyph glyph-name="Rcaron.ss04" horiz-adv-x="640" 
d="M260 644l-130 138l39 42l137 -83l137 83l40 -42l-131 -138h-92zM58 610h252q129 0 199 -58.5t70 -167.5q0 -71 -26.5 -108t-79.5 -53q30 -15 52.5 -41t37.5 -62.5t21.5 -59.5t15.5 -60h-186q-19 74 -45 117.5t-72 43.5h-77v-161h-162v610zM220 297h92q52 0 79.5 22.5
t26.5 64.5q0 41 -27.5 63.5t-78.5 22.5h-92v-173z" />
    <glyph glyph-name="Rcommaaccent.ss04" horiz-adv-x="640" 
d="M58 610h252q129 0 199 -58.5t70 -167.5q0 -71 -26.5 -108t-79.5 -53q30 -15 52.5 -41t37.5 -62.5t21.5 -59.5t15.5 -60h-186q-19 74 -45 117.5t-72 43.5h-77v-161h-162v610zM220 297h92q52 0 79.5 22.5t26.5 64.5q0 41 -27.5 63.5t-78.5 22.5h-92v-173zM258 -235l-14 39
q31 20 40 36q-19 6 -30.5 22.5t-11.5 36.5q0 27 17.5 45t45.5 18q27 0 44.5 -19.5t17.5 -48.5q0 -44 -29.5 -79.5t-79.5 -49.5z" />
    <glyph glyph-name="k.ss02" horiz-adv-x="553" 
d="M209 179v-179h-160v645h160v-321h56l99 159h170v-12l-146 -217l156 -241v-13h-177l-105 179h-53z" />
    <glyph glyph-name="kcommaaccent.ss02" horiz-adv-x="553" 
d="M209 179v-179h-160v645h160v-321h56l99 159h170v-12l-146 -217l156 -241v-13h-177l-105 179h-53zM225 -235l-14 39q30 20 41 36q-19 6 -30.5 22t-11.5 37q0 27 17.5 45t44.5 18q28 0 45.5 -19.5t17.5 -48.5q0 -44 -30 -79.5t-80 -49.5z" />
    <glyph glyph-name="a.ss05" horiz-adv-x="573" 
d="M364 0v54q-35 -34 -63.5 -48.5t-79.5 -14.5q-83 0 -137.5 63.5t-54.5 191.5q0 126 47.5 186t134.5 60q86 0 153 -56v47h160v-483h-160zM364 174v130q-41 55 -96 55q-80 0 -80 -113q0 -124 85 -124q32 0 52 12t39 40z" />
    <glyph glyph-name="aacute.ss05" horiz-adv-x="573" 
d="M435 660v-31q-80 -60 -189 -104l-39 41l129 165zM364 0v54q-35 -34 -63.5 -48.5t-79.5 -14.5q-83 0 -137.5 63.5t-54.5 191.5q0 126 47.5 186t134.5 60q86 0 153 -56v47h160v-483h-160zM364 174v130q-41 55 -96 55q-80 0 -80 -113q0 -124 85 -124q32 0 52 12t39 40z" />
    <glyph glyph-name="abreve.ss05" horiz-adv-x="573" 
d="M372 687h89q0 -143 -152 -143q-151 0 -151 143h89q0 -25 16.5 -40.5t45.5 -15.5q30 0 46.5 15.5t16.5 40.5zM364 0v54q-35 -34 -63.5 -48.5t-79.5 -14.5q-83 0 -137.5 63.5t-54.5 191.5q0 126 47.5 186t134.5 60q86 0 153 -56v47h160v-483h-160zM364 174v130
q-41 55 -96 55q-80 0 -80 -113q0 -124 85 -124q32 0 52 12t39 40z" />
    <glyph glyph-name="acircumflex.ss05" horiz-adv-x="573" 
d="M476 568l-38 -40l-132 79l-132 -79l-38 40l126 139h87zM364 0v54q-35 -34 -63.5 -48.5t-79.5 -14.5q-83 0 -137.5 63.5t-54.5 191.5q0 126 47.5 186t134.5 60q86 0 153 -56v47h160v-483h-160zM364 174v130q-41 55 -96 55q-80 0 -80 -113q0 -124 85 -124q32 0 52 12t39 40
z" />
    <glyph glyph-name="adieresis.ss05" horiz-adv-x="573" 
d="M198 693q33 0 54.5 -19t21.5 -53t-21.5 -53t-54.5 -19q-31 0 -53 19.5t-22 52.5t22 52.5t53 19.5zM406 693q31 0 53.5 -19.5t22.5 -52.5t-22.5 -52.5t-53.5 -19.5q-33 0 -54.5 19t-21.5 53t21.5 53t54.5 19zM364 0v54q-35 -34 -63.5 -48.5t-79.5 -14.5q-83 0 -137.5 63.5
t-54.5 191.5q0 126 47.5 186t134.5 60q86 0 153 -56v47h160v-483h-160zM364 174v130q-41 55 -96 55q-80 0 -80 -113q0 -124 85 -124q32 0 52 12t39 40z" />
    <glyph glyph-name="agrave.ss05" horiz-adv-x="573" 
d="M408 566l-39 -41q-106 43 -189 104v31l100 71zM364 0v54q-35 -34 -63.5 -48.5t-79.5 -14.5q-83 0 -137.5 63.5t-54.5 191.5q0 126 47.5 186t134.5 60q86 0 153 -56v47h160v-483h-160zM364 174v130q-41 55 -96 55q-80 0 -80 -113q0 -124 85 -124q32 0 52 12t39 40z" />
    <glyph glyph-name="amacron.ss05" horiz-adv-x="573" 
d="M456 564h-308v113h308v-113zM364 0v54q-35 -34 -63.5 -48.5t-79.5 -14.5q-83 0 -137.5 63.5t-54.5 191.5q0 126 47.5 186t134.5 60q86 0 153 -56v47h160v-483h-160zM364 174v130q-41 55 -96 55q-80 0 -80 -113q0 -124 85 -124q32 0 52 12t39 40z" />
    <glyph glyph-name="aogonek.ss05" horiz-adv-x="573" 
d="M522 -83l16 -76q-70 -27 -138 -27q-54 0 -86 25t-32 66q0 34 22 62t60 44v43q-35 -34 -63.5 -48.5t-79.5 -14.5q-83 0 -137.5 63.5t-54.5 191.5q0 126 47.5 186t134.5 60q86 0 153 -56v47h160v-483h-54q-87 -8 -87 -53q0 -18 16 -29t44 -11q16 0 79 10zM364 174v130
q-41 55 -96 55q-80 0 -80 -113q0 -124 85 -124q32 0 52 12t39 40z" />
    <glyph glyph-name="aring.ss05" horiz-adv-x="573" 
d="M302 744q48 0 78.5 -29.5t30.5 -77.5q0 -46 -30.5 -74.5t-78.5 -28.5t-78.5 28.5t-30.5 74.5q0 48 30.5 77.5t78.5 29.5zM302 598q20 0 31.5 10.5t11.5 28.5q0 20 -11.5 31.5t-31.5 11.5q-19 0 -31 -11.5t-12 -31.5q0 -18 12 -28.5t31 -10.5zM364 0v54
q-35 -34 -63.5 -48.5t-79.5 -14.5q-83 0 -137.5 63.5t-54.5 191.5q0 126 47.5 186t134.5 60q86 0 153 -56v47h160v-483h-160zM364 174v130q-41 55 -96 55q-80 0 -80 -113q0 -124 85 -124q32 0 52 12t39 40z" />
    <glyph glyph-name="atilde.ss05" horiz-adv-x="573" 
d="M420 691l59 -2q-2 -47 -20.5 -77.5t-45 -41t-54 -10t-52.5 11.5l-55 27q-23 10 -36 4.5t-33 -33.5l-54 2q2 46 19.5 76t42.5 40.5t52 9.5t52 -12l55 -26q24 -10 36.5 -3.5t33.5 34.5zM364 0v54q-35 -34 -63.5 -48.5t-79.5 -14.5q-83 0 -137.5 63.5t-54.5 191.5
q0 126 47.5 186t134.5 60q86 0 153 -56v47h160v-483h-160zM364 174v130q-41 55 -96 55q-80 0 -80 -113q0 -124 85 -124q32 0 52 12t39 40z" />
    <glyph glyph-name="g.ss06" horiz-adv-x="583" 
d="M561 404h-42q-19 0 -33 -3q16 -37 16 -83q0 -96 -51 -137t-171 -41q-76 0 -121 17q-14 -13 -14 -27q0 -19 10 -24t43 -5h178q97 0 133.5 -30t36.5 -110q0 -97 -63.5 -138.5t-209.5 -41.5q-136 0 -198 28t-62 92q0 68 64 89q-38 30 -38 95q0 37 14 60t59 37
q-54 44 -54 136q0 94 51 134t171 40q84 0 137 -24q48 32 95 32q38 0 60 -9zM280 243q38 0 54.5 17.5t16.5 57.5q0 79 -71 79q-38 0 -54 -18t-16 -61q0 -75 70 -75zM376 -42h-183q-35 -1 -45 -7.5t-10 -20.5q0 -31 33 -42.5t102 -11.5q81 0 110.5 10.5t29.5 41.5q0 30 -37 30
z" />
    <glyph glyph-name="gbreve.ss06" horiz-adv-x="583" 
d="M361 687h89q0 -143 -152 -143t-152 143h90q0 -26 16.5 -41.5t45.5 -15.5q30 0 46.5 15.5t16.5 41.5zM561 404h-42q-19 0 -33 -3q16 -37 16 -83q0 -96 -51 -137t-171 -41q-76 0 -121 17q-14 -13 -14 -27q0 -19 10 -24t43 -5h178q97 0 133.5 -30t36.5 -110
q0 -97 -63.5 -138.5t-209.5 -41.5q-136 0 -198 28t-62 92q0 68 64 89q-38 30 -38 95q0 37 14 60t59 37q-54 44 -54 136q0 94 51 134t171 40q84 0 137 -24q48 32 95 32q38 0 60 -9zM280 243q38 0 54.5 17.5t16.5 57.5q0 79 -71 79q-38 0 -54 -18t-16 -61q0 -75 70 -75z
M376 -42h-183q-35 -1 -45 -7.5t-10 -20.5q0 -31 33 -42.5t102 -11.5q81 0 110.5 10.5t29.5 41.5q0 30 -37 30z" />
    <glyph glyph-name="gcommaaccent.ss06" horiz-adv-x="583" 
d="M336 768l18 -43q-32 -19 -47 -38q23 -8 36 -26t13 -42q0 -30 -20.5 -50.5t-51.5 -20.5t-51 22.5t-20 55.5q0 47 29 81t94 61zM561 404h-42q-19 0 -33 -3q16 -37 16 -83q0 -96 -51 -137t-171 -41q-76 0 -121 17q-14 -13 -14 -27q0 -19 10 -24t43 -5h178q97 0 133.5 -30
t36.5 -110q0 -97 -63.5 -138.5t-209.5 -41.5q-136 0 -198 28t-62 92q0 68 64 89q-38 30 -38 95q0 37 14 60t59 37q-54 44 -54 136q0 94 51 134t171 40q84 0 137 -24q48 32 95 32q38 0 60 -9zM280 243q38 0 54.5 17.5t16.5 57.5q0 79 -71 79q-38 0 -54 -18t-16 -61
q0 -75 70 -75zM376 -42h-183q-35 -1 -45 -7.5t-10 -20.5q0 -31 33 -42.5t102 -11.5q81 0 110.5 10.5t29.5 41.5q0 30 -37 30z" />
    <glyph glyph-name="gdotaccent.ss06" horiz-adv-x="583" 
d="M291 704q33 0 58 -22t25 -58t-25 -58t-58 -22q-36 0 -60 21.5t-24 58.5t24 58.5t60 21.5zM561 404h-42q-19 0 -33 -3q16 -37 16 -83q0 -96 -51 -137t-171 -41q-76 0 -121 17q-14 -13 -14 -27q0 -19 10 -24t43 -5h178q97 0 133.5 -30t36.5 -110q0 -97 -63.5 -138.5
t-209.5 -41.5q-136 0 -198 28t-62 92q0 68 64 89q-38 30 -38 95q0 37 14 60t59 37q-54 44 -54 136q0 94 51 134t171 40q84 0 137 -24q48 32 95 32q38 0 60 -9zM280 243q38 0 54.5 17.5t16.5 57.5q0 79 -71 79q-38 0 -54 -18t-16 -61q0 -75 70 -75zM376 -42h-183
q-35 -1 -45 -7.5t-10 -20.5q0 -31 33 -42.5t102 -11.5q81 0 110.5 10.5t29.5 41.5q0 30 -37 30z" />
    <glyph glyph-name="y.ss07" horiz-adv-x="586" 
d="M542 483v-399q0 -135 -61 -196.5t-184 -61.5q-124 0 -214 41l22 106q101 -29 169 -29q55 0 81.5 30.5t26.5 99.5v3q-30 -30 -63 -43t-88 -13q-94 0 -139.5 56.5t-45.5 175.5v230h160v-230q0 -59 21 -81.5t63 -22.5q56 0 92 53v281h160z" />
    <glyph glyph-name="yacute.ss07" horiz-adv-x="586" 
d="M430 660v-32q-78 -58 -189 -104l-39 41l128 165zM542 483v-399q0 -135 -61 -196.5t-184 -61.5q-124 0 -214 41l22 106q101 -29 169 -29q55 0 81.5 30.5t26.5 99.5v3q-30 -30 -63 -43t-88 -13q-94 0 -139.5 56.5t-45.5 175.5v230h160v-230q0 -59 21 -81.5t63 -22.5
q56 0 92 53v281h160z" />
    <glyph glyph-name="ycircumflex.ss07" horiz-adv-x="586" 
d="M470 567l-38 -40q-25 16 -69.5 42l-62.5 37l-131 -79l-38 40l126 140h87zM542 483v-399q0 -135 -61 -196.5t-184 -61.5q-124 0 -214 41l22 106q101 -29 169 -29q55 0 81.5 30.5t26.5 99.5v3q-30 -30 -63 -43t-88 -13q-94 0 -139.5 56.5t-45.5 175.5v230h160v-230
q0 -59 21 -81.5t63 -22.5q56 0 92 53v281h160z" />
    <glyph glyph-name="ydieresis.ss07" horiz-adv-x="586" 
d="M193 693q33 0 54.5 -19.5t21.5 -53.5q0 -33 -21.5 -52.5t-54.5 -19.5q-30 0 -53 19.5t-23 52.5q0 34 22.5 53.5t53.5 19.5zM400 693q31 0 53.5 -19.5t22.5 -53.5q0 -33 -23 -52.5t-53 -19.5q-32 0 -53.5 19.5t-21.5 52.5q0 34 21.5 53.5t53.5 19.5zM542 483v-399
q0 -135 -61 -196.5t-184 -61.5q-124 0 -214 41l22 106q101 -29 169 -29q55 0 81.5 30.5t26.5 99.5v3q-30 -30 -63 -43t-88 -13q-94 0 -139.5 56.5t-45.5 175.5v230h160v-230q0 -59 21 -81.5t63 -22.5q56 0 92 53v281h160z" />
    <glyph glyph-name="ygrave.ss07" horiz-adv-x="586" 
d="M403 565l-39 -41q-113 47 -190 104v32l100 70zM542 483v-399q0 -135 -61 -196.5t-184 -61.5q-124 0 -214 41l22 106q101 -29 169 -29q55 0 81.5 30.5t26.5 99.5v3q-30 -30 -63 -43t-88 -13q-94 0 -139.5 56.5t-45.5 175.5v230h160v-230q0 -59 21 -81.5t63 -22.5
q56 0 92 53v281h160z" />
    <glyph glyph-name="uni00660062" horiz-adv-x="942" 
d="M577 675v-246q73 62 154 62q90 0 135.5 -59t46.5 -186q0 -128 -54.5 -191.5t-137.5 -63.5q-52 0 -81 14.5t-63 47.5v-53h-160v561q-51 3 -119 3q-35 0 -47.5 -16t-12.5 -50v-16h119v-130h-119v-352h-160v352h-67v130h67v16q0 97 45 141t145 44q46 0 149 -23v15h160z
M577 304v-131q37 -51 92 -51q85 0 85 124q0 113 -81 113q-55 0 -96 -55z" />
    <glyph glyph-name="uni006600660062" horiz-adv-x="1276" 
d="M911 675v-246q74 63 154 63q90 0 136 -59.5t46 -186.5q0 -128 -54.5 -191.5t-137.5 -63.5q-52 0 -80.5 14.5t-63.5 48.5v-54h-160v561q-30 2 -72.5 3t-45.5 1q-36 -1 -48.5 -17t-12.5 -50v-16h120v-130h-120v-352h-160v352h-178v-352h-160v352h-63v130h63v16
q0 96 47 140.5t147 44.5q52 0 104 -11l-11 -109q-23 1 -63 1q-36 0 -50 -17t-14 -50v-15h178v15q0 97 45.5 141.5t145.5 44.5q38 0 148 -22v14h160zM911 304v-130q19 -27 39.5 -39.5t52.5 -12.5q85 0 85 124q0 113 -80 113q-56 0 -97 -55z" />
    <glyph glyph-name="uni006600660066" horiz-adv-x="1092" 
d="M1094 672l-11 -109q-46 2 -63 2q-36 0 -50 -17t-14 -50v-15h123v-131h-123v-352h-160v352h-201v-352h-160v352h-201v-352h-160v352h-63v131h63v15q0 96 47 140.5t147 44.5q52 0 104 -11l-11 -109q-46 2 -63 2q-36 0 -50 -17t-14 -50v-15h201v15q0 96 47 140.5t147 44.5
q52 0 104 -11l-11 -109q-46 2 -63 2q-36 0 -50 -17t-14 -50v-15h201v15q0 96 47 140.5t147 44.5q52 0 104 -11z" />
    <glyph glyph-name="uni006600660068" horiz-adv-x="1272" 
d="M915 675v-256q93 72 169 72q77 0 109.5 -43t32.5 -141v-307h-160v262q0 46 -11 63.5t-44 17.5q-52 0 -96 -55v-288h-160v561q-51 3 -118 3q-36 0 -48.5 -16t-12.5 -50v-16h120v-130h-120v-352h-160v352h-182v-352h-160v352h-63v130h63v16q0 96 47 140.5t147 44.5
q52 0 104 -11l-11 -109q-23 1 -63 1q-36 0 -50 -17t-14 -50v-15h182v16q0 97 45.5 141t145.5 44q42 0 148 -22v14h160z" />
    <glyph glyph-name="uni00660066006A" horiz-adv-x="972" 
d="M836 542q-38 0 -64 21.5t-26 60.5t26 60t64 21t64 -21t26 -60t-26 -60.5t-64 -21.5zM576 483h336v-425q0 -99 -42 -155t-148 -79l-32 106q39 21 50.5 47.5t11.5 80.5v294h-176v-352h-160v352h-182v-352h-160v352h-63v131h63v15q0 96 47 140.5t147 44.5q52 0 104 -11
l-11 -109q-46 2 -63 2q-36 0 -50 -17t-14 -50v-15h182v15q0 97 45.5 141t145.5 44q39 0 99 -12l-11 -108q-11 0 -24 0.5t-20.5 1t-13.5 0.5q-36 0 -48.5 -16.5t-12.5 -50.5v-15z" />
    <glyph glyph-name="uni00660066006B" horiz-adv-x="1272" 
d="M1253 483l-183 -207q117 -133 202 -276h-178q-59 95 -124 163l-54 -61v-102h-160v561q-64 4 -119 4q-36 0 -48.5 -16.5t-12.5 -50.5v-15h120v-131h-120v-352h-160v352h-182v-352h-160v352h-63v131h63v15q0 96 47 140.5t147 44.5q52 0 104 -11l-11 -109q-46 2 -63 2
q-36 0 -50 -17t-14 -50v-15h182v15q0 97 45.5 141t145.5 44q48 0 149 -22v14h160v-365l156 173h181z" />
    <glyph glyph-name="uni006600660074" horiz-adv-x="1092" 
d="M1062 122l15 -96q-58 -33 -140 -33q-85 0 -122.5 42.5t-37.5 141.5v175h-182v-352h-160v352h-201v-352h-160v352h-63v131h63v15q0 96 47 140.5t147 44.5q52 0 104 -11l-11 -109q-46 2 -63 2q-36 0 -50 -17t-14 -50v-15h201v15q0 96 47 140.5t147 44.5q52 0 104 -11
l-11 -109q-46 2 -63 2q-36 0 -50 -17t-14 -50v-15h182v107h160v-107h118v-131h-118v-168q0 -34 13 -49t47 -15q38 0 65 2z" />
    <glyph glyph-name="uni00660068" horiz-adv-x="934" 
d="M577 675v-256q92 72 169 72t109.5 -43t32.5 -141v-307h-160v262q0 46 -11 63.5t-44 17.5q-52 0 -96 -55v-288h-160v561q-51 3 -119 3q-35 0 -47.5 -16t-12.5 -50v-16h119v-130h-119v-352h-160v352h-67v130h67v16q0 97 45 141t145 44q46 0 149 -23v15h160z" />
    <glyph glyph-name="uni0066006A" horiz-adv-x="634" 
d="M498 542q-38 0 -64 21.5t-26 60.5t26 60t64 21t64 -21t26 -60t-26 -60.5t-64 -21.5zM574 483v-425q0 -99 -42 -155t-149 -79l-31 106q39 21 50.5 47.5t11.5 80.5v294h-176v-352h-160v352h-67v131h67v15q0 97 45 141t145 44q44 0 111 -14l-13 -106q-64 2 -68 2
q-35 0 -47.5 -16.5t-12.5 -50.5v-15h336z" />
    <glyph glyph-name="uni0066006B" horiz-adv-x="933" 
d="M577 314l157 169h181l-184 -206q115 -131 202 -277h-177q-56 92 -126 165l-53 -59v-106h-160v561q-51 3 -119 3q-35 0 -47.5 -16t-12.5 -50v-16h119v-130h-119v-352h-160v352h-67v130h67v16q0 97 45 141t145 44q46 0 149 -23v15h160v-361z" />
    <glyph glyph-name="uni00660074" horiz-adv-x="734" 
d="M704 122l15 -96q-58 -33 -140 -33q-85 0 -122.5 42.5t-37.5 141.5v175h-185v-352h-160v352h-63v131h63v15q0 96 47 140.5t147 44.5q52 0 104 -11l-11 -109q-46 2 -63 2q-36 0 -50 -17t-14 -50v-15h185v107h160v-107h118v-131h-118v-168q0 -34 13 -49t47 -15q38 0 65 2z
" />
    <glyph glyph-name="uni00720066" horiz-adv-x="799" 
d="M801 667l-16 -104q-70 2 -79 2q-36 0 -48.5 -16.5t-12.5 -50.5v-15h120v-131h-120v-352h-160v352h-51v131h51v15q0 97 45.5 141t145.5 44q62 0 125 -16zM209 483v-89q51 98 129 98q33 0 60 -3l-11 -161q-24 2 -57 2q-48 0 -77.5 -19.5t-43.5 -69.5v-241h-160v483h160z
" />
    <glyph glyph-name="uni00720074" horiz-adv-x="796" 
d="M765 122l16 -96q-59 -33 -140 -33q-85 0 -123 43t-38 141v175h-50v131h50v107h160v-107h119v-131h-119v-168q0 -34 13 -49t48 -15q38 0 64 2zM209 483v-89q51 98 129 98q33 0 60 -3l-11 -161q-24 2 -57 2q-48 0 -77.5 -19.5t-43.5 -69.5v-241h-160v483h160z" />
    <glyph glyph-name="zero.osf" horiz-adv-x="605" 
d="M303 535q131 0 199.5 -74.5t68.5 -199.5q0 -123 -68.5 -196.5t-199.5 -73.5q-132 0 -200.5 73.5t-68.5 196.5q0 125 68.5 199.5t200.5 74.5zM303 137q103 0 103 124q0 128 -103 128q-104 0 -104 -128q0 -124 104 -124z" />
    <glyph glyph-name="one.osf" horiz-adv-x="511" 
d="M477 0h-431v136h147v212q-62 -17 -139 -28l-31 100q107 39 201 105h132v-389h121v-136z" />
    <glyph glyph-name="two.osf" horiz-adv-x="538" 
d="M508 0h-477v115q180 87 226 117q78 51 78 94q0 35 -22 54t-58 19q-73 0 -195 -51l-44 113q86 39 147 56.5t121 17.5q99 0 159 -50.5t60 -133.5q0 -43 -18.5 -77.5t-54 -60.5t-76.5 -44.5t-96 -36.5q70 4 99 4h151v-136z" />
    <glyph glyph-name="three.osf" horiz-adv-x="556" 
d="M70 368l-34 107q138 60 251 60q96 0 157 -47.5t61 -124.5q1 -49 -24 -83t-66 -49q107 -42 107 -136q0 -89 -64.5 -138.5t-175.5 -49.5q-144 0 -266 65l45 110q115 -51 214 -51q43 0 67.5 18t24.5 49q0 67 -126 67h-85v119h85q61 0 88 12.5t27 42.5q0 33 -24 51.5
t-66 18.5q-75 0 -196 -41z" />
    <glyph glyph-name="four.osf" horiz-adv-x="619" 
d="M512 0v-100h-160v100h-327l-8 110l335 405h160v-389h87v-126h-87zM352 126v220q-25 -34 -46 -57l-80 -99q-32 -38 -60 -64h186z" />
    <glyph glyph-name="five.osf" horiz-adv-x="567" 
d="M208 381l-11 -129q68 43 144 43q90 0 141 -50t51 -138q0 -99 -69 -155t-173 -56q-153 0 -275 65l45 118q115 -51 207 -51q47 0 79 24t32 62q0 34 -24.5 55.5t-66.5 21.5q-48 0 -99 -40l-131 19l21 345h429v-134h-300z" />
    <glyph glyph-name="six.osf" horiz-adv-x="583" 
d="M536 580l-39 -113q-88 22 -144 22q-135 -1 -158 -146q67 52 168 52q87 0 141 -52t54 -136q0 -100 -65 -158t-180 -58q-134 0 -206.5 76t-72.5 209q0 159 85.5 251.5t225.5 92.5q97 0 191 -40zM313 120q41 0 67 25.5t26 68.5q0 36 -26 57.5t-69 21.5q-73 0 -116 -60
q19 -113 118 -113z" />
    <glyph glyph-name="seven.osf" horiz-adv-x="499" 
d="M488 515v-121q-69 -100 -128.5 -231.5t-93.5 -257.5h-189q101 292 236 473h-299v137h474z" />
    <glyph glyph-name="eight.osf" horiz-adv-x="580" 
d="M426 333q69 -29 101.5 -65.5t32.5 -93.5q0 -87 -69.5 -135t-190.5 -48q-146 0 -213 46.5t-67 136.5q0 96 117 147q-91 50 -91 130q0 81 66 125t186 44q114 0 174 -42t60 -119q0 -84 -106 -126zM291 518q-40 0 -64 -17.5t-24 -46.5q0 -27 23 -44.5t83 -37.5q75 28 75 84
q0 28 -25.5 45t-67.5 17zM285 113q47 0 74.5 18.5t27.5 49.5q0 29 -30 49t-109 47q-72 -34 -72 -91q0 -35 29.5 -54t79.5 -19z" />
    <glyph glyph-name="nine.osf" horiz-adv-x="583" 
d="M50 -52l39 113q90 -24 146 -24q66 1 101 35.5t44 104.5q-60 -51 -160 -51q-87 0 -141 54.5t-54 139.5q0 100 65.5 157.5t182.5 57.5q132 0 200.5 -75.5t68.5 -209.5q0 -171 -77 -257.5t-222 -86.5q-99 0 -193 42zM272 233q60 0 109 56q-14 117 -108 117q-43 0 -69.5 -25
t-26.5 -69q0 -36 26 -57.5t69 -21.5z" />
    <glyph glyph-name="zero.tf" horiz-adv-x="565" 
d="M283 620q134 0 202.5 -81.5t68.5 -234.5q0 -152 -68.5 -232.5t-202.5 -80.5q-135 0 -203.5 80.5t-68.5 232.5q0 153 69 234.5t203 81.5zM283 137q57 0 81.5 41t24.5 126q0 87 -24.5 128.5t-81.5 41.5t-82 -41.5t-25 -128.5q0 -85 25 -126t82 -41z" />
    <glyph glyph-name="one.tf" horiz-adv-x="565" 
d="M496 0h-421v136h137v295q-62 -17 -139 -28l-31 102q107 39 201 105h132v-474h121v-136z" />
    <glyph glyph-name="two.tf" horiz-adv-x="565" 
d="M519 0h-477v115l69 54.5l66 52l55 44.5t48.5 43l34 36.5t24.5 35.5t7 30q0 35 -22 54.5t-58 19.5q-71 0 -195 -52l-44 114q87 38 147.5 55.5t120.5 17.5q100 0 159.5 -56t59.5 -150q0 -33 -14 -64.5t-34.5 -56.5t-58 -56t-69 -52l-84.5 -55q80 6 114 6h151v-136z" />
    <glyph glyph-name="three.tf" horiz-adv-x="565" 
d="M73 452l-34 107q138 60 255 60q96 0 157 -47.5t61 -124.5q0 -50 -25 -84.5t-65 -49.5q107 -42 107 -134q0 -89 -64.5 -138.5t-175.5 -49.5q-146 0 -269 65l44 110q106 -47 217 -47q93 0 93 63q0 67 -130 67h-85v119h85q64 0 91.5 12.5t27.5 42.5q0 33 -24.5 51.5
t-66.5 18.5q-78 0 -199 -41z" />
    <glyph glyph-name="four.tf" horiz-adv-x="565" 
d="M487 111v-111h-160v111h-313l-7 110l320 389h160v-373h72v-126h-72zM327 237v207q-12 -21 -28 -40l-100 -123q-2 -2 -16 -19t-22 -25h166z" />
    <glyph glyph-name="five.tf" horiz-adv-x="565" 
d="M225 474l-10 -122q55 38 133 38q90 0 141 -50t51 -138q0 -99 -69 -155t-173 -56q-151 0 -275 65l45 118q106 -47 207 -47q47 0 79 22t32 60q0 34 -24.5 55.5t-66.5 21.5q-48 0 -99 -40l-131 19l21 345h429v-136h-290z" />
    <glyph glyph-name="six.tf" horiz-adv-x="565" 
d="M524 580l-39 -113q-89 22 -144 22q-136 -1 -158 -146q67 52 168 52q87 0 141 -52t54 -136q0 -100 -65.5 -158t-180.5 -58q-134 0 -206 76t-72 209q0 159 85.5 251.5t225.5 92.5q95 0 191 -40zM300 120q42 0 68 25t26 69q0 36 -26 57.5t-69 21.5q-75 0 -116 -60
q19 -113 117 -113z" />
    <glyph glyph-name="seven.tf" horiz-adv-x="565" 
d="M519 610v-121q-69 -100 -128.5 -231.5t-93.5 -257.5h-190q104 294 237 473h-299v137h474z" />
    <glyph glyph-name="eight.tf" horiz-adv-x="565" 
d="M418 333q69 -29 101.5 -65.5t32.5 -93.5q0 -87 -69.5 -135t-190.5 -48q-146 0 -213 46.5t-67 136.5q0 96 117 147q-91 50 -91 130q0 81 66 125t186 44q114 0 174 -42t60 -119q0 -84 -106 -126zM283 518q-40 0 -64 -17.5t-24 -46.5q0 -27 23 -44.5t83 -37.5q75 28 75 84
q0 28 -25.5 45t-67.5 17zM277 113q47 0 74.5 18.5t27.5 49.5q0 29 -30 49t-109 47q-72 -34 -72 -91q0 -35 29.5 -54t79.5 -19z" />
    <glyph glyph-name="nine.tf" horiz-adv-x="565" 
d="M45 34l39 112q88 -24 146 -24q66 1 101 35.5t44 104.5q-60 -51 -160 -51q-87 0 -141 54.5t-54 139.5q0 100 65.5 157.5t182.5 57.5q131 0 199.5 -75.5t68.5 -209.5q1 -171 -76 -257.5t-222 -86.5q-100 0 -193 43zM267 318q60 0 109 56q-16 117 -108 117q-43 0 -70 -25
t-27 -69q0 -36 26.5 -57.5t69.5 -21.5z" />
    <glyph glyph-name="zero.zero" horiz-adv-x="625" 
d="M313 620q139 0 208.5 -81t69.5 -235q0 -153 -69.5 -233t-208.5 -80t-209 80t-70 233q0 154 70 235t209 81zM201 253l186 196q-26 25 -74 25q-63 0 -88.5 -41t-25.5 -129q0 -19 2 -51zM422 367l-190 -200q27 -30 81 -30q62 0 87.5 40.5t25.5 126.5q0 38 -4 63z" />
    <glyph glyph-name="zero.dnom" horiz-adv-x="399" 
d="M200 381q86 0 129.5 -50t43.5 -146q0 -94 -43.5 -144t-129.5 -50q-87 0 -130.5 50t-43.5 144q0 196 174 196zM200 84q39 0 54 24t15 77q0 55 -15 79.5t-54 24.5t-54.5 -24.5t-15.5 -79.5q0 -53 15.5 -77t54.5 -24z" />
    <glyph glyph-name="one.dnom" horiz-adv-x="342" 
d="M323 0h-273v87h86v179q-48 -12 -87 -17l-19 65q69 25 125 65h83v-292h85v-87z" />
    <glyph glyph-name="two.dnom" horiz-adv-x="357" 
d="M325 0h-296v73l43 34l40.5 32l33 27.5t29.5 26.5t20.5 22t15 21.5t4.5 18.5q0 44 -47 44q-46 0 -120 -32l-29 73q104 45 168 45q62 0 98.5 -35t36.5 -93q0 -47 -38 -84t-121 -90q48 4 68 4h94v-87z" />
    <glyph glyph-name="three.dnom" horiz-adv-x="360" 
d="M46 276l-21 68q88 36 158 36q61 0 98.5 -29t37.5 -77q0 -31 -16 -52.5t-41 -31.5q66 -26 66 -82t-39 -86.5t-109 -30.5q-93 0 -167 41l28 70q68 -32 134 -32q56 0 56 39q0 41 -79 41h-55v76h55q39 0 55.5 7.5t16.5 26.5q0 41 -55 41q-50 0 -123 -25z" />
    <glyph glyph-name="four.dnom" horiz-adv-x="398" 
d="M322 67v-67h-99v67h-203l-5 70l208 242h99v-232h55v-80h-55zM223 147v127q-17 -22 -27 -32l-51 -57q-17 -20 -37 -38h115z" />
    <glyph glyph-name="five.dnom" horiz-adv-x="371" 
d="M142 290l-6 -76q43 27 89 27q57 0 88 -31.5t31 -87.5q0 -62 -42 -96.5t-108 -34.5q-96 0 -171 41l28 74q73 -31 128 -31q29 0 48 14t19 38q0 22 -14.5 34.5t-39.5 12.5q-29 0 -62 -25l-83 12l13 214h268v-85h-186z" />
    <glyph glyph-name="six.dnom" horiz-adv-x="378" 
d="M339 357l-24 -72q-51 13 -89 13q-88 0 -99 -96q44 37 106 37q55 0 88 -31.5t33 -82.5q1 -61 -39.5 -97.5t-113.5 -36.5q-84 0 -129.5 47.5t-45.5 129.5q0 99 53.5 156t141.5 57q60 0 118 -24zM201 73q26 0 41.5 15.5t15.5 41.5q0 21 -16 34t-42 13q-45 0 -72 -32
q11 -72 73 -72z" />
    <glyph glyph-name="seven.dnom" horiz-adv-x="332" 
d="M312 379v-77q-94 -134 -138 -302h-120q60 174 147 293h-185v86h296z" />
    <glyph glyph-name="eight.dnom" horiz-adv-x="383" 
d="M197 -9q-173 0 -173 113q0 59 72 92q-56 30 -56 81t41 77.5t115 26.5q71 0 108 -25.5t37 -73.5q0 -53 -64 -79q42 -18 62 -40.5t20 -57.5q1 -54 -42.5 -84.5t-119.5 -29.5zM192 316q-24 0 -38.5 -10.5t-14.5 -27.5q0 -16 14.5 -27t49.5 -23q44 19 44 52q0 17 -15 26.5
t-40 9.5zM188 68q28 0 45 11.5t17 29.5q0 17 -18 29.5t-66 28.5q-44 -22 -44 -55q0 -21 18 -32.5t48 -11.5z" />
    <glyph glyph-name="nine.dnom" horiz-adv-x="368" 
d="M37 17l25 72q54 -15 90 -15q43 0 63.5 22.5t25.5 69.5q-41 -31 -99 -31q-54 0 -87 30.5t-33 82.5q0 62 40.5 97.5t112.5 35.5q82 0 124.5 -46.5t42.5 -129.5q0 -106 -47.5 -160t-137.5 -54q-62 0 -120 26zM175 196q40 0 67 27q-8 77 -67 77q-27 0 -42.5 -14.5
t-15.5 -41.5q0 -48 58 -48z" />
    <glyph glyph-name="zero.numr" horiz-adv-x="399" 
d="M200 620q86 0 129.5 -50t43.5 -146q0 -94 -43.5 -144t-129.5 -50q-87 0 -130.5 50t-43.5 144q0 196 174 196zM200 323q39 0 54 24t15 77q0 55 -15 79.5t-54 24.5t-54.5 -24.5t-15.5 -79.5q0 -53 15.5 -77t54.5 -24z" />
    <glyph glyph-name="one.numr" horiz-adv-x="342" 
d="M323 231h-273v87h86v179q-48 -12 -87 -17l-19 65q69 25 125 65h83v-292h85v-87z" />
    <glyph glyph-name="two.numr" horiz-adv-x="357" 
d="M325 235h-296v73l43 34l40.5 32l33 27.5t29.5 26.5t20.5 22t15 21.5t4.5 18.5q0 44 -47 44q-46 0 -120 -32l-29 72q103 46 168 46q61 0 98 -35t37 -93q0 -47 -38 -84t-121 -90q48 4 68 4h94v-87z" />
    <glyph glyph-name="three.numr" horiz-adv-x="360" 
d="M46 516l-21 68q88 36 158 36q61 0 98.5 -29t37.5 -77q0 -31 -16 -52.5t-41 -31.5q66 -26 66 -82t-39 -86.5t-109 -30.5q-93 0 -167 41l28 70q68 -32 134 -32q56 0 56 39q0 41 -79 41h-55v76h55q39 0 55.5 7.5t16.5 26.5q0 41 -55 41q-50 0 -123 -25z" />
    <glyph glyph-name="four.numr" horiz-adv-x="398" 
d="M322 298v-67h-99v67h-203l-5 70l208 242h99v-232h55v-80h-55zM223 378v127q-17 -22 -27 -32l-51 -57q-17 -20 -37 -38h115z" />
    <glyph glyph-name="five.numr" horiz-adv-x="371" 
d="M142 525l-6 -76q43 27 89 27q57 0 88 -31.5t31 -87.5q0 -62 -42 -96.5t-108 -34.5q-96 0 -171 41l28 74q73 -31 128 -31q29 0 48 14t19 38q0 22 -14.5 34.5t-39.5 12.5q-29 0 -62 -25l-83 12l13 214h268v-85h-186z" />
    <glyph glyph-name="six.numr" horiz-adv-x="378" 
d="M339 596l-24 -72q-51 13 -89 13q-88 0 -99 -96q44 37 106 37q55 0 88 -31.5t33 -82.5q1 -61 -39.5 -97.5t-113.5 -36.5q-84 0 -129.5 47.5t-45.5 129.5q0 99 53.5 156t141.5 57q60 0 118 -24zM201 312q26 0 41.5 15.5t15.5 41.5q0 21 -16 34t-42 13q-45 0 -72 -32
q11 -72 73 -72z" />
    <glyph glyph-name="seven.numr" horiz-adv-x="332" 
d="M312 610v-77q-94 -134 -138 -302h-120q60 174 147 293h-185v86h296z" />
    <glyph glyph-name="eight.numr" horiz-adv-x="383" 
d="M197 230q-173 0 -173 113q0 59 72 92q-56 30 -56 81t41 77.5t115 26.5q71 0 108 -25.5t37 -73.5q0 -53 -64 -79q42 -18 62 -40.5t20 -57.5q1 -54 -42.5 -84.5t-119.5 -29.5zM192 555q-24 0 -38.5 -10.5t-14.5 -27.5q0 -16 14.5 -27t49.5 -23q44 19 44 52q0 17 -15 26.5
t-40 9.5zM188 307q28 0 45 11.5t17 29.5q0 17 -18 29.5t-66 28.5q-44 -22 -44 -55q0 -21 18 -32.5t48 -11.5z" />
    <glyph glyph-name="nine.numr" horiz-adv-x="368" 
d="M37 256l25 72q54 -15 90 -15q43 0 63.5 22.5t25.5 69.5q-41 -31 -99 -31q-54 0 -87 30.5t-33 82.5q0 62 40.5 97.5t112.5 35.5q82 0 124.5 -46.5t42.5 -129.5q0 -106 -47.5 -160t-137.5 -54q-62 0 -120 26zM175 435q40 0 67 27q-8 77 -67 77q-27 0 -42.5 -14.5
t-15.5 -41.5q0 -48 58 -48z" />
    <glyph glyph-name="backslash.case" horiz-adv-x="443" 
d="M400 -62h-132l-224 717h135z" />
    <glyph glyph-name="bullet.case" horiz-adv-x="347" 
d="M54 299q0 52 33.5 86t86.5 34t86.5 -34t33.5 -86t-33.5 -86t-86.5 -34t-86.5 34t-33.5 86z" />
    <glyph glyph-name="exclamdown.case" horiz-adv-x="262" 
d="M131 466q-33 0 -54 22t-21 54t21 53.5t54 21.5t54 -21.5t21 -53.5t-21 -54t-54 -22zM216 0h-170l23 393h124z" />
    <glyph glyph-name="periodcentered.case" horiz-adv-x="288" 
d="M52 309q0 39 25 64.5t65 25.5t65 -25.5t25 -64.5t-25 -65t-65 -26t-65 26t-25 65z" />
    <glyph glyph-name="questiondown.case" horiz-adv-x="540" 
d="M304 467q-33 0 -54 22t-21 54t21 53.5t54 21.5t54 -21.5t21 -53.5t-21 -54t-54 -22zM478 178l44 -113q-86 -39 -147 -56.5t-121 -17.5q-99 0 -159 53.5t-60 137.5q0 71 55 119t154 68l-2 49h127l23 -148q-105 -3 -147 -20.5t-42 -49.5q0 -35 22 -54.5t58 -19.5
q71 0 195 52z" />
    <glyph glyph-name="slash.case" horiz-adv-x="450" 
d="M408 655l-232 -744h-132l229 744h135z" />
    <glyph glyph-name="braceleft.case" horiz-adv-x="405" 
d="M286 144v-17q0 -39 21.5 -57.5t85.5 -26.5l-9 -112q-133 3 -190.5 48.5t-57.5 147.5v17q0 59 -21 79t-87 25v113q64 6 86 28.5t22 76.5v16q0 103 57.5 148.5t190.5 47.5l9 -111q-65 -9 -86 -27t-21 -58v-16q0 -75 -27.5 -111.5t-86.5 -48.5q60 -12 87 -48t27 -114z" />
    <glyph glyph-name="braceright.case" horiz-adv-x="405" 
d="M122 127v17q0 78 27 114t87 48q-59 12 -86.5 48.5t-27.5 111.5v16q0 40 -21 58t-86 27l9 111q133 -2 190.5 -47.5t57.5 -148.5v-16q0 -54 22 -76.5t87 -28.5v-113q-66 -5 -87.5 -25t-21.5 -79v-17q0 -102 -57.5 -147.5t-190.5 -48.5l-9 112q64 8 85.5 26.5t21.5 57.5z
" />
    <glyph glyph-name="bracketleft.case" horiz-adv-x="390" 
d="M370 537h-139v-472h139v-122h-284v717h284v-123z" />
    <glyph glyph-name="bracketright.case" horiz-adv-x="390" 
d="M307 660v-717h-284v122h139v472h-139v123h284z" />
    <glyph glyph-name="parenleft.case" horiz-adv-x="339" 
d="M222 661l94 -53q-40 -58 -59 -91t-35.5 -90.5t-16.5 -125.5t16.5 -125t35.5 -90.5t59 -90.5l-94 -54q-84 94 -121.5 171t-37.5 189t37.5 189.5t121.5 170.5z" />
    <glyph glyph-name="parenright.case" horiz-adv-x="331" 
d="M18 608l94 53q84 -93 122 -170.5t38 -189.5q0 -111 -38 -188.5t-122 -171.5l-94 54q40 56 59.5 90t35.5 91t16 125t-16 125t-35.5 91t-59.5 91z" />
    <glyph glyph-name="emdash.case" horiz-adv-x="929" 
d="M872 369v-118h-815v118h815z" />
    <glyph glyph-name="endash.case" horiz-adv-x="499" 
d="M442 369v-118h-385v118h385z" />
    <glyph glyph-name="hyphen.case" horiz-adv-x="409" 
d="M352 384v-140h-295v140h295z" />
    <glyph glyph-name="guillemotleft.case" horiz-adv-x="616" 
d="M334 438l-101 -102q-17 -17 -40 -35q18 -13 41 -34l100 -103l-79 -76l-223 214l222 215zM569 438l-101 -102q-17 -17 -40 -35q18 -13 41 -34l100 -103l-79 -76l-223 214l222 215z" />
    <glyph glyph-name="guillemotright.case" horiz-adv-x="616" 
d="M126 88l-78 76l99 103q20 19 41 35q-28 22 -40 34l-100 102l79 79l222 -215zM361 88l-78 76l99 103q20 19 41 35q-28 22 -40 34l-100 102l79 79l222 -215z" />
    <glyph glyph-name="guilsinglleft.case" horiz-adv-x="381" 
d="M334 438l-101 -102q-17 -17 -40 -35q18 -13 41 -34l100 -103l-79 -76l-223 214l222 215z" />
    <glyph glyph-name="guilsinglright.case" horiz-adv-x="381" 
d="M126 88l-78 76l99 103q20 19 41 35q-28 22 -40 34l-100 102l79 79l222 -215z" />
    <glyph glyph-name="florin.tf" horiz-adv-x="565" 
d="M552 506l-44 -97q-81 26 -134 26q-101 0 -129 -150l-2 -10h189l-20 -102h-188l-32 -173h-156l32 173h-56l20 102h54l2 10q26 141 90.5 208.5t172.5 67.5q107 0 201 -55z" />
    <glyph glyph-name="cent.tf" horiz-adv-x="565" 
d="M469 162l51 -97q-76 -60 -164 -71v-52h-104v53q-89 14 -145 83t-56 194q0 118 55 192t146 89v57h104v-57q68 -10 147 -50l-45 -103q-64 28 -136 28q-111 0 -111 -156q0 -152 110 -152q83 0 148 42z" />
    <glyph glyph-name="dollar.tf" horiz-adv-x="565" 
d="M502 506l-36 -111q-130 45 -193 45q-27 0 -42.5 -11t-15.5 -28q0 -22 23 -33t114 -37q89 -26 127.5 -65.5t38.5 -106.5q0 -70 -49 -114.5t-138 -51.5v-55h-103v60q-103 16 -191 70l51 113q124 -70 209 -70q33 0 50 12t17 31q0 21 -26.5 34.5t-111.5 39.5q-92 28 -128 68
t-36 104q0 65 43.5 106t122.5 48v59h103v-62q73 -9 171 -45z" />
    <glyph glyph-name="Euro.tf" horiz-adv-x="565" 
d="M489 162l51 -97q-51 -40 -101.5 -57t-121.5 -17q-86 0 -151 48t-86 144h-61v62h53l-1 27v8h-52v62h58q18 102 83.5 158.5t158.5 56.5q103 0 203 -54l-44 -103q-73 32 -136 32q-84 0 -107 -90h196l-18 -62h-185v-8v-28h173l-18 -61h-143q24 -67 100 -67q78 0 149 46z" />
    <glyph glyph-name="sterling.tf" horiz-adv-x="565" 
d="M247 131h263v-131h-483v117l64 10l8 86h-72v84h81q15 136 73.5 200t164.5 64q112 0 201 -55l-44 -102q-74 31 -134 31q-46 0 -71 -31t-34 -107h163v-84h-171z" />
    <glyph glyph-name="yen.tf" horiz-adv-x="565" 
d="M383 214l-16 -33h151v-62h-154v-119h-163v119h-150v62h147l-16 33h-131v62h101l-135 273h166l77 -160l10 -34t13 -38q5 12 11.5 36t11.5 36l76 160h167l-135 -273h104v-62h-135z" />
    <glyph glyph-name="arrowdown.ss08" horiz-adv-x="639" 
d="M320 568q119 0 204 -85t85 -204q0 -120 -85 -205t-204 -85q-120 0 -205 85t-85 205q0 119 85 204t205 85zM287 240l-73 70l-47 -47l153 -143l152 142l-47 48l-71 -70v182h-67v-182z" />
    <glyph glyph-name="arrowdownleft.ss08" horiz-adv-x="639" 
d="M609 278q0 120 -85 205t-204 86q-120 -1 -205 -86t-85 -205q0 -119 85 -204t205 -85q119 0 204 85t85 204zM200 375h67v-101l130 129l47 -47l-129 -131h100v-65h-215v215z" />
    <glyph glyph-name="arrowdownright.ss08" horiz-adv-x="639" 
d="M609 278q0 120 -85 205t-204 86q-120 -1 -205 -86t-85 -205q0 -119 85 -204t205 -85q119 0 204 85t85 204zM323 225l-129 131l47 47l131 -129v101h67v-215h-216v65h100z" />
    <glyph glyph-name="arrowleft.ss08" horiz-adv-x="639" 
d="M320 569q119 -1 204 -86t85 -205q0 -119 -85 -204t-204 -85q-120 0 -205 85t-85 204q0 120 85 205t205 86zM303 126l48 47l-70 72h182v67h-182l70 72l-47 47l-143 -153z" />
    <glyph glyph-name="arrowright.ss08" horiz-adv-x="639" 
d="M319 569q120 -1 205 -86t85 -205q0 -119 -85 -204t-205 -85q-119 0 -204 85t-85 204q0 120 85 205t204 86zM359 312h-183v-67h183l-71 -72l48 -47l142 152l-142 153l-48 -47z" />
    <glyph glyph-name="arrowup.ss08" horiz-adv-x="639" 
d="M320 568q119 0 204 -85t85 -205q0 -119 -85 -204t-204 -85q-120 0 -205 85t-85 204q0 120 85 205t205 85zM214 247l73 71v-183h67v183l71 -70l47 47l-152 142l-153 -142z" />
    <glyph glyph-name="arrowupleft.ss08" horiz-adv-x="639" 
d="M609 280q0 119 -85 204t-204 85q-120 0 -205 -85t-85 -204q0 -120 85 -205t205 -86q119 1 204 86t85 205zM315 333l129 -131l-47 -47l-130 129v-101h-67v215h215v-65h-100z" />
    <glyph glyph-name="arrowupright.ss08" horiz-adv-x="639" 
d="M609 280q0 119 -85 204t-205 85q-119 0 -204 -85t-85 -204q0 -120 85 -205t204 -86q120 1 205 86t85 205zM439 183h-66v101l-131 -129l-47 47l129 131h-100v65h215v-215z" />
    <glyph glyph-name="arrowdown.ss13" horiz-adv-x="493" 
d="M247 495q89 0 152.5 -63.5t63.5 -152.5t-63.5 -153t-152.5 -64t-153 64t-64 153t64 152.5t153 63.5zM247 457q-73 0 -125.5 -52.5t-52.5 -125.5t52.5 -125.5t125.5 -52.5t125.5 52.5t52.5 125.5t-52.5 125.5t-125.5 52.5zM222 251l-53 52l-37 -37l115 -106l114 106
l-37 37l-52 -52v135h-50v-135z" />
    <glyph glyph-name="arrowdownleft.ss13" horiz-adv-x="493" 
d="M247 495q89 0 152.5 -63.5t63.5 -152.5t-63.5 -153t-152.5 -64t-153 64t-64 153q0 88 63.5 152t153.5 64zM247 457q-73 0 -125.5 -52.5t-52.5 -125.5t52.5 -125.5t125.5 -52.5t125.5 52.5t52.5 125.5t-52.5 125.5t-125.5 52.5zM251 240h73v-49h-161v161h51v-75l97 96
l36 -36z" />
    <glyph glyph-name="arrowdownright.ss13" horiz-adv-x="493" 
d="M246 495q90 0 153.5 -64t63.5 -152q0 -89 -64 -153t-153 -64t-152.5 64t-63.5 153t64 152.5t152 63.5zM246 457q-73 0 -125 -52.5t-52 -125.5t52 -125.5t125 -52.5q74 0 126.5 52.5t52.5 125.5t-53 125.5t-126 52.5zM279 352h51v-161h-161v49h73l-95 97l35 36l97 -96v75z
" />
    <glyph glyph-name="arrowleft.ss13" horiz-adv-x="493" 
d="M247 495q89 0 152.5 -63.5t63.5 -152.5t-63.5 -153t-152.5 -64t-153 64t-64 153t64 152.5t153 63.5zM247 457q-73 0 -125.5 -52.5t-52.5 -125.5t52.5 -125.5t125.5 -52.5t125.5 52.5t52.5 125.5t-52.5 125.5t-125.5 52.5zM219 303l52 53l-37 37l-106 -115l106 -114l37 37
l-52 52h135v50h-135z" />
    <glyph glyph-name="arrowright.ss13" horiz-adv-x="493" 
d="M246 495q89 0 153 -63.5t64 -152.5t-64 -153t-153 -64t-152.5 64t-63.5 153t64 152.5t152 63.5zM246 457q-73 0 -125 -52.5t-52 -125.5t52 -125.5t125 -52.5q74 0 126.5 52.5t52.5 125.5t-53 125.5t-126 52.5zM223 201l36 -37l106 114l-106 115l-37 -37l52 -53h-135v-50
h135z" />
    <glyph glyph-name="arrowup.ss13" horiz-adv-x="493" 
d="M247 62q-89 0 -153 63.5t-64 152.5t64 153t153 64t152.5 -64t63.5 -153q0 -88 -63.5 -152t-152.5 -64zM247 101q73 0 125.5 52t52.5 125t-52.5 126t-125.5 53t-125.5 -52.5t-52.5 -126.5q0 -73 52.5 -125t125.5 -52zM324 255l37 36l-114 106l-115 -106l37 -37l53 52v-135
h50v135z" />
    <glyph glyph-name="arrowupleft.ss13" horiz-adv-x="493" 
d="M247 62q-90 0 -153.5 64t-63.5 152q0 89 64 153t153 64t152.5 -64t63.5 -153q0 -88 -63.5 -152t-152.5 -64zM247 101q73 0 125.5 52t52.5 125t-52.5 126t-125.5 53t-125.5 -52.5t-52.5 -126.5q0 -73 52.5 -125t125.5 -52zM214 206h-51v160h161v-49h-73l96 -97l-36 -35
l-97 95v-74z" />
    <glyph glyph-name="arrowupright.ss13" horiz-adv-x="493" 
d="M246 62q-88 0 -152 64t-64 152q0 89 63.5 153t152.5 64t153 -64t64 -153q0 -88 -63.5 -152t-153.5 -64zM246 101q74 0 126.5 52t52.5 125q0 74 -52.5 126.5t-126.5 52.5q-73 0 -125 -52.5t-52 -126.5q0 -73 52 -125t125 -52zM242 317h-73v49h161v-160h-51v74l-97 -95
l-35 35z" />
    <glyph glyph-name="at.case" horiz-adv-x="884" 
d="M647 492v-282q0 -43 7.5 -57t25.5 -14q15 0 30 7t32 24.5t28 56.5t12 94q0 141 -87.5 225.5t-237.5 84.5q-158 0 -256 -97.5t-98 -255.5q0 -153 89.5 -241.5t239.5 -88.5q125 0 247 48l22 -54q-113 -62 -269 -62q-179 0 -288.5 109.5t-109.5 288.5q0 185 119 300t304 115
q178 0 285.5 -103t107.5 -269q-1 -65 -16.5 -114t-37.5 -75.5t-52 -42.5t-53 -20.5t-48 -4.5q-95 0 -120 64q-39 -37 -71 -50.5t-81 -13.5q-158 0 -158 217q0 219 162 219q75 0 135 -57v49h137zM510 210v134q-36 41 -85 41q-39 0 -58.5 -23.5t-19.5 -80.5q0 -61 18 -85.5
t57 -24.5q44 0 88 36v3z" />
    <glyph glyph-name="registered.ss04" horiz-adv-x="732" 
d="M367 620q130 0 221.5 -92t91.5 -223t-91 -222.5t-222 -91.5t-222.5 91.5t-91.5 222.5t91.5 223t222.5 92zM367 28q114 0 195 81t81 196t-81 196.5t-195 81.5q-115 0 -196 -81.5t-81 -196.5t81 -196t196 -81zM221 483h148q156 0 156 -123q0 -84 -62 -111l76 -119h-110
l-62 105h-49v-106h-97v354zM318 315h61q51 0 51 41q0 48 -60 48h-52v-89z" />
    <glyph glyph-name="ampersand.ss09" horiz-adv-x="629" 
d="M620 289v-129q-22 0 -68 2q-18 -88 -77 -129.5t-174 -41.5q-129 0 -197 46t-68 137q0 49 26.5 84.5t91.5 68.5q-61 60 -61 138q0 74 54.5 114.5t152.5 40.5q82 0 131.5 -41t49.5 -109q0 -117 -134 -171l-42 -16.5l-36 -14t-27.5 -11.5t-22.5 -12.5t-14.5 -13t-10 -16.5
t-2.5 -21q0 -68 109 -68q77 0 98.5 33.5t21.5 129.5h199zM234 459q0 -37 45 -77q82 32 82 77q0 58 -61 58q-28 0 -47 -15.5t-19 -42.5z" />
    <glyph glyph-name="ampersand.ss10" horiz-adv-x="517" 
d="M456 157l47 -111q-79 -39 -162 -50v-58h-118v55q-193 15 -193 153q0 105 110 134q-75 32 -75 111q0 142 155 162v60h118v-60q75 -9 145 -40l-45 -113q-85 27 -154 27q-82 0 -82 -51q0 -24 24.5 -33t84.5 -9h63v-112h-98q-50 0 -72.5 -11t-22.5 -41q0 -51 93 -51
q50 0 87.5 8t94.5 30z" />
    <glyph glyph-name="copyright.ss11" horiz-adv-x="476" 
d="M238 233q-81 0 -137 56.5t-56 136.5q0 81 56 137.5t137 56.5t137 -56.5t56 -137.5q0 -80 -56 -136.5t-137 -56.5zM238 263q67 0 114.5 48t47.5 115q0 68 -47.5 116t-114.5 48t-114.5 -48t-47.5 -116q0 -67 47.5 -115t114.5 -48zM310 391l23 -43q-43 -33 -95 -33
q-46 0 -76 29t-30 79q0 53 28 83t77 30q45 0 89 -25l-20 -47q-35 15 -59 15q-45 0 -45 -56q0 -51 45 -51q27 0 63 19z" />
    <glyph glyph-name="registered.ss12" horiz-adv-x="476" 
d="M238 233q-81 0 -137 56.5t-56 136.5q0 81 56 137.5t137 56.5t137 -56.5t56 -137.5q0 -80 -56 -136.5t-137 -56.5zM238 263q67 0 114.5 48t47.5 115q0 68 -47.5 116t-114.5 48t-114.5 -48t-47.5 -116q0 -67 47.5 -115t114.5 -48zM152 532h88q95 0 95 -72q0 -44 -37 -55
q27 -15 43 -78h-71q-13 48 -24 55q-5 4 -11 4h-24v-59h-59v205zM216 430h30q26 0 26 27t-32 27h-24v-54z" />
    <glyph glyph-name="caron.alt" 
d="M300 711v-12q-7 -97 -45 -172h-71l3 184h113z" />
    <glyph glyph-name="acute.case" 
d="M381 769v-32q-80 -54 -189 -96l-39 40l113 150z" />
    <glyph glyph-name="breve.case" 
d="M310 792h89q0 -66 -38.5 -101t-113.5 -35q-74 0 -112.5 35t-38.5 101h89q2 -21 18 -35t44 -14q29 0 45.5 14t17.5 35z" />
    <glyph glyph-name="caron.case" 
d="M293 644h-91l-131 138l40 42l137 -83l137 83l39 -42z" />
    <glyph glyph-name="circumflex.case" 
d="M248 720l-137 -83l-40 42l131 138h91l131 -138l-39 -42z" />
    <glyph glyph-name="dieresis.case" 
d="M144 804q31 0 52 -18.5t21 -51.5q0 -32 -21 -50.5t-52 -18.5q-29 0 -50.5 19t-21.5 50q0 32 21.5 51t50.5 19zM351 804q29 0 50.5 -19t21.5 -51q0 -31 -21.5 -50t-50.5 -19q-31 0 -51.5 18.5t-20.5 50.5q0 33 20.5 51.5t51.5 18.5z" />
    <glyph glyph-name="dotaccent.case" 
d="M248 810q31 0 55 -20.5t24 -55.5t-24 -55.5t-55 -20.5q-34 0 -57 20t-23 56t23 56t57 20z" />
    <glyph glyph-name="grave.case" 
d="M339 679l-39 -41q-108 41 -190 97v31l115 63z" />
    <glyph glyph-name="hungarumlaut.case" 
d="M272 781v-30q-89 -70 -144 -107l-52 34l94 156zM454 781v-30q-82 -65 -143 -107l-53 34l94 156z" />
    <glyph glyph-name="macron.case" 
d="M398 674h-301v109h301v-109z" />
    <glyph glyph-name="ring.case" 
d="M248 859q48 0 78.5 -29.5t30.5 -77.5q0 -46 -30.5 -75t-79.5 -29q-48 0 -78 29t-30 75q0 48 30 77.5t79 29.5zM247 713q20 0 31.5 10.5t11.5 28.5q0 20 -11.5 31t-30.5 11t-31 -11t-12 -31q0 -18 12 -28.5t30 -10.5z" />
    <glyph glyph-name="tilde.case" 
d="M366 790l58 -2q-2 -47 -20.5 -77.5t-44.5 -41t-53.5 -9.5t-52.5 12l-55 26q-23 11 -36.5 5t-32.5 -33l-54 2q2 46 19 76t42 40t52 9t53 -12l54 -26q25 -10 37.5 -4t33.5 35z" />
    </font>
</defs>
</svg>
