<?xml version="1.0" standalone="no"?>
<!DOCTYPE svg PUBLIC "-//W3C//DTD SVG 1.1//EN" "http://www.w3.org/Graphics/SVG/1.1/DTD/svg11.dtd" >
<svg>
<metadata>
Created by FontForge 20090622 at Thu Jun 16 15:17:03 2016
 By deploy user
Copyright &#194;&#169; 2013 by Rene Bieder. All rights reserved.
</metadata>
<defs>
<font id="Gentona-Light" horiz-adv-x="485" >
  <font-face 
    font-family="Gentona Light"
    font-weight="300"
    font-stretch="normal"
    units-per-em="1000"
    panose-1="0 0 4 0 0 0 0 0 0 0"
    ascent="800"
    descent="-200"
    x-height="467"
    cap-height="610"
    bbox="-94 -223 1165 876"
    underline-thickness="50"
    underline-position="-50"
    unicode-range="U+0020-U+FB02"
  />
<missing-glyph horiz-adv-x="750" 
d="M658 0h-565v610h565v-610zM133 570v-530h485v530h-485zM343 236l-5 66q109 12 109 76q0 26 -18 41.5t-48 15.5q-45 0 -106 -22l-11 29q65 26 117 26q46 0 75 -24.5t29 -65.5t-30.5 -67t-78.5 -33v-42h-33zM359 179q22 0 22 -22q0 -24 -22 -24q-23 0 -23 24q0 22 23 22z
" />
    <glyph glyph-name="fi" unicode="fi" horiz-adv-x="538" 
d="M459 0h-67v411h-233v-411h-66v411h-69v57h69v45q0 79 33.5 117t110.5 38q34 0 108 -11l-6 -51q-61 6 -92 6q-49 0 -68.5 -24t-19.5 -75v-45h300v-468zM427 565q-18 0 -30 10.5t-12 28.5q0 19 12 29.5t30 10.5t30 -10.5t12 -29.5q0 -18 -12 -28.5t-30 -10.5z" />
    <glyph glyph-name="fl" unicode="fl" horiz-adv-x="535" 
d="M458 0h-66v600q-91 12 -145 12q-49 0 -68.5 -24t-19.5 -75v-45h151v-57h-151v-411h-66v411h-69v57h69v45q0 79 33.5 117t110.5 38q44 0 155 -20v17h66v-665z" />
    <glyph glyph-name="f_f" unicode="ff" horiz-adv-x="632" 
d="M639 660l-5 -51q-30 3 -73 3q-49 0 -69 -24.5t-20 -75.5v-44h152v-57h-152v-411h-66v411h-248v-411h-67v411h-67v57h67v45q0 79 34.5 117t111.5 38q53 0 88 -8l-6 -51q-30 3 -72 3q-49 0 -69 -24.5t-20 -75.5v-44h248v45q0 79 34 117t111 38q53 0 88 -8z" />
    <glyph glyph-name="f_f_i" unicode="ffi" horiz-adv-x="847" 
d="M768 468v-468h-66v411h-234v-411h-66v411h-244v-411h-67v411h-67v57h67v45q0 79 34.5 117t111.5 38q53 0 88 -8l-6 -51q-30 3 -72 3q-49 0 -69 -24t-20 -75v-45h244v45q0 79 33.5 117t110.5 38q39 0 104 -10l-5 -48q-60 6 -89 6q-49 0 -68.5 -25.5t-19.5 -77.5v-45h300z
M736 565q-18 0 -30 10.5t-12 29.5q0 18 12 28.5t30 10.5t30 -10.5t12 -28.5q0 -19 -12 -29.5t-30 -10.5z" />
    <glyph glyph-name="f_f_l" unicode="ffl" horiz-adv-x="842" 
d="M765 665v-665h-66v600q-91 12 -146 12q-49 0 -68 -24t-19 -75v-45h150v-57h-150v-411h-67v411h-241v-411h-67v411h-67v57h67v45q0 79 34.5 117t111.5 38q53 0 88 -8l-6 -51q-30 3 -72 3q-49 0 -69 -24.5t-20 -75.5v-44h241v45q0 79 34 117t110 38q45 0 156 -20v17h66z
" />
    <glyph glyph-name=".notdef" horiz-adv-x="750" 
d="M658 0h-565v610h565v-610zM133 570v-530h485v530h-485zM343 236l-5 66q109 12 109 76q0 26 -18 41.5t-48 15.5q-45 0 -106 -22l-11 29q65 26 117 26q46 0 75 -24.5t29 -65.5t-30.5 -67t-78.5 -33v-42h-33zM359 179q22 0 22 -22q0 -24 -22 -24q-23 0 -23 24q0 22 23 22z
" />
    <glyph glyph-name=".null" horiz-adv-x="0" 
 />
    <glyph glyph-name="nonmarkingreturn" horiz-adv-x="333" 
 />
    <glyph glyph-name="space" unicode=" " horiz-adv-x="230" 
 />
    <glyph glyph-name="exclam" unicode="!" horiz-adv-x="206" 
d="M75 193l-8 417h72l-9 -417h-55zM103 73q17 0 27.5 -10t10.5 -27t-10.5 -28t-27.5 -11t-27.5 11t-10.5 28t10.5 27t27.5 10z" />
    <glyph glyph-name="quotedbl" unicode="&#x22;" horiz-adv-x="287" 
d="M120 655l-18 -256h-45v256h63zM228 655l-19 -256h-45v256h64z" />
    <glyph glyph-name="numbersign" unicode="#" horiz-adv-x="685" 
d="M462 187h130l-10 -49h-132l-34 -138h-56l34 138h-171l-34 -138h-56l34 138h-122l10 49h124l43 177h-122l10 49h124l34 137h56l-34 -137h172l34 137h55l-34 -137h130l-10 -49h-131zM278 364l-44 -177h172l44 177h-172z" />
    <glyph glyph-name="dollar" unicode="$" horiz-adv-x="522" 
d="M444 491l-18 -47q-110 48 -186 48q-51 0 -81.5 -22t-30.5 -58q0 -40 29.5 -60.5t127.5 -51.5q102 -31 141.5 -67.5t39.5 -96.5q0 -65 -51.5 -105t-138.5 -40v-58h-48v61q-108 11 -192 84l26 47q93 -80 213 -80q58 0 92 24.5t34 65.5t-32 64.5t-130 55.5
q-101 33 -138 64.5t-37 92.5q0 58 44.5 94t119.5 37v68h48v-70q82 -9 168 -50z" />
    <glyph glyph-name="percent" unicode="%" horiz-adv-x="832" 
d="M192 620q72 0 109.5 -46t37.5 -135q0 -88 -37.5 -133.5t-109.5 -45.5t-110 45.5t-38 133.5t38 134.5t110 46.5zM612 610l-359 -610h-44l358 610h45zM192 303q100 0 100 136q0 138 -100 138q-101 0 -101 -138q0 -136 101 -136zM641 352q72 0 109.5 -46.5t37.5 -134.5
t-37.5 -134t-109.5 -46t-110 46t-38 134t38 134.5t110 46.5zM641 34q100 0 100 137q0 138 -100 138q-101 0 -101 -138q0 -137 101 -137z" />
    <glyph glyph-name="ampersand" unicode="&#x26;" horiz-adv-x="639" 
d="M577 0l-99 83q-82 -92 -200 -92q-108 0 -168.5 44.5t-60.5 126.5q0 52 34.5 87.5t113.5 71.5q-49 47 -68 81.5t-19 76.5q0 65 46 103t125 38q74 0 117.5 -39t43.5 -107q0 -105 -146 -165l174 -147q34 48 69 115l47 -28q-38 -73 -73 -121l97 -81zM171 478q0 -35 18 -62.5
t64 -70.5q78 32 106.5 60t28.5 66q0 49 -28.5 75.5t-78.5 26.5q-49 0 -79.5 -26t-30.5 -69zM435 119l-197 166q-66 -28 -94.5 -53t-28.5 -63q0 -58 45 -91t118 -33q90 0 157 74z" />
    <glyph glyph-name="quotesingle" unicode="'" horiz-adv-x="180" 
d="M127 655l-19 -256h-45v256h64z" />
    <glyph glyph-name="parenleft" unicode="(" horiz-adv-x="308" 
d="M238 659l42 -27q-131 -177 -131 -388q0 -210 131 -389l-42 -27q-150 183 -150 416q0 232 150 415z" />
    <glyph glyph-name="parenright" unicode=")" horiz-adv-x="305" 
d="M33 633l42 26q150 -183 150 -415q0 -233 -150 -416l-42 27q131 179 131 389t-131 389z" />
    <glyph glyph-name="asterisk" unicode="*" horiz-adv-x="413" 
d="M321 337l-27 -23l-87 97l-88 -97l-27 23l77 101l-116 47l11 34l119 -38l5 129h37l5 -129l120 38l11 -34l-117 -48z" />
    <glyph glyph-name="plus" unicode="+" horiz-adv-x="465" 
d="M256 210v-172h-50v172h-172v52h172v172h50v-173h174v-50z" />
    <glyph glyph-name="comma" unicode="," horiz-adv-x="248" 
d="M81 -126l-20 21q49 43 58 105q-33 7 -33 40q0 19 12 31t31 12t31 -13.5t12 -34.5q0 -93 -91 -161z" />
    <glyph glyph-name="hyphen" unicode="-" horiz-adv-x="390" 
d="M324 312v-60h-258v60h258z" />
    <glyph glyph-name="period" unicode="." horiz-adv-x="238" 
d="M76 41q0 19 12 30.5t31 11.5t31 -11.5t12 -30.5t-12 -31.5t-31 -12.5t-31 12.5t-12 31.5z" />
    <glyph glyph-name="slash" unicode="/" horiz-adv-x="408" 
d="M354 664l-259 -869h-58l258 869h59z" />
    <glyph glyph-name="zero" unicode="0" horiz-adv-x="611" 
d="M306 620q124 0 189 -81.5t65 -233.5t-65 -233t-189 -81t-189.5 81.5t-65.5 232.5q0 152 65.5 233.5t189.5 81.5zM306 53q91 0 138 65t47 187q0 123 -47 188t-138 65q-92 0 -139 -65t-47 -188q0 -122 47 -187t139 -65z" />
    <glyph glyph-name="one" unicode="1" horiz-adv-x="475" 
d="M429 0h-370v59h164v471q-73 -31 -154 -48l-13 43q105 34 182 85h53v-551h138v-59z" />
    <glyph glyph-name="two" unicode="2" horiz-adv-x="515" 
d="M486 0h-444v50q32 27 103.5 83t103.5 84t75 70.5t60.5 76.5t17.5 67q0 62 -35.5 96.5t-99.5 34.5q-97 0 -208 -54l-20 50q129 62 238 62q91 0 143 -50.5t52 -137.5q0 -28 -8 -55t-30.5 -57t-39 -50t-57.5 -54l-60.5 -49.5l-73.5 -56l-72 -54.5q5 0 37 1.5t46 1.5h272v-59
z" />
    <glyph glyph-name="three" unicode="3" horiz-adv-x="524" 
d="M59 512l-17 47q118 58 237 58q87 0 141 -46t54 -121q0 -51 -30 -86t-82 -49q131 -34 131 -152q0 -79 -59 -125.5t-157 -46.5q-137 0 -248 60l21 48q105 -52 225 -52q69 0 110.5 31.5t41.5 85.5q0 60 -45 90.5t-126 30.5h-90v59h90q154 0 154 98q0 55 -38 87.5t-100 32.5
q-102 0 -213 -50z" />
    <glyph glyph-name="four" unicode="4" horiz-adv-x="592" 
d="M463 0h-67v144h-362l-3 53l365 413h67v-407h107v-59h-107v-144zM396 203v323q-40 -51 -52 -64l-174 -194q-29 -35 -59 -65h285z" />
    <glyph glyph-name="five" unicode="5" horiz-adv-x="536" 
d="M150 551l-17 -222q87 38 163 38q91 0 145 -49.5t54 -132.5q0 -89 -62 -141.5t-161 -52.5q-129 0 -243 60l21 50q103 -51 215 -51q73 0 119 37.5t46 99.5q0 59 -41.5 95.5t-109.5 36.5q-72 0 -154 -40l-58 9l24 322h382v-59h-323z" />
    <glyph glyph-name="six" unicode="6" horiz-adv-x="564" 
d="M501 589l-17 -50q-72 25 -139 25q-102 -1 -163 -74t-64 -201q72 100 205 100q93 0 149.5 -51.5t56.5 -138.5q0 -98 -61.5 -153t-162.5 -55q-124 0 -189 76t-65 215q0 152 81.5 245t209.5 93q89 0 159 -31zM305 47q70 0 115 40.5t45 114.5q0 65 -43.5 102.5t-115.5 37.5
q-64 0 -112.5 -31t-72.5 -80q10 -89 56.5 -136.5t127.5 -47.5z" />
    <glyph glyph-name="seven" unicode="7" horiz-adv-x="452" 
d="M448 610v-52q-87 -107 -160.5 -259t-112.5 -299h-79q43 149 116.5 298.5t159.5 252.5h-361v59h437z" />
    <glyph glyph-name="eight" unicode="8" horiz-adv-x="583" 
d="M380 322q163 -40 163 -160q0 -80 -67 -125.5t-182 -45.5q-123 0 -188.5 45t-65.5 126q0 116 153 156q-124 39 -124 142q0 74 61 117t165 43q101 0 159.5 -42.5t58.5 -114.5q0 -104 -133 -141zM292 573q-70 0 -113.5 -31t-43.5 -81q0 -49 39 -78.5t126 -45.5
q150 25 150 125q0 50 -43.5 80.5t-114.5 30.5zM289 45q84 0 133 32t49 88q0 53 -46.5 85t-155.5 49q-163 -29 -163 -133q0 -57 49 -89t134 -32z" />
    <glyph glyph-name="nine" unicode="9" horiz-adv-x="564" 
d="M72 31l20 48q68 -31 142 -31q204 0 210 272q-70 -100 -203 -100q-93 0 -149.5 52.5t-56.5 139.5q0 99 62.5 153.5t168.5 54.5q118 0 181 -76t63 -215q0 -164 -70.5 -251t-200.5 -87q-96 0 -167 40zM259 269q61 0 109 31t73 77q-9 90 -54 138.5t-121 48.5
q-75 0 -121 -40.5t-46 -114.5q0 -65 43.5 -102.5t116.5 -37.5z" />
    <glyph glyph-name="colon" unicode=":" horiz-adv-x="238" 
d="M76 381q0 19 12 31t31 12t31 -12t12 -31t-12 -31t-31 -12t-31 12t-12 31zM76 41q0 19 12 30.5t31 11.5t31 -11.5t12 -30.5t-12 -31.5t-31 -12.5t-31 12.5t-12 31.5z" />
    <glyph glyph-name="semicolon" unicode=";" horiz-adv-x="248" 
d="M73 381q0 19 12 31t31 12t31 -12t12 -31t-12 -31t-31 -12t-31 12t-12 31zM74 -126l-19 21q49 43 58 105q-34 7 -34 40q0 19 12 31t31 12t31 -13.5t12 -34.5q0 -93 -91 -161z" />
    <glyph glyph-name="less" unicode="&#x3c;" horiz-adv-x="397" 
d="M335 410l-171 -142q-20 -15 -35 -25l36 -27l170 -141l-32 -35l-247 203l246 203z" />
    <glyph glyph-name="equal" unicode="=" horiz-adv-x="455" 
d="M34 296v45h386v-45h-386zM34 153v46h386v-46h-386z" />
    <glyph glyph-name="greater" unicode="&#x3e;" horiz-adv-x="399" 
d="M71 410l32 36l246 -203l-247 -203l-31 35l169 141l36 27q-15 10 -35 25z" />
    <glyph glyph-name="question" unicode="?" horiz-adv-x="504" 
d="M44 505l-20 53q129 62 238 62q89 0 141.5 -49.5t53.5 -133.5q-1 -70 -57 -116.5t-157 -63.5l2 -79h-56l-10 129q98 9 153 41.5t55 82.5q0 59 -36.5 93t-98.5 34q-99 0 -208 -53zM218 73q17 0 27.5 -10t10.5 -27t-10.5 -28t-27.5 -11t-27.5 11t-10.5 28t10.5 27t27.5 10z
" />
    <glyph glyph-name="at" unicode="@" horiz-adv-x="920" 
d="M648 413v-314q0 -38 13 -54t39 -16q51 0 91.5 55.5t41.5 168.5q0 151 -96.5 242t-261.5 91q-172 0 -279.5 -105.5t-107.5 -275.5q0 -166 102 -266.5t270 -100.5q133 0 240 60l16 -28q-106 -68 -256 -68q-184 0 -296.5 111t-112.5 292q0 185 118.5 300t305.5 115
q180 0 287 -101t107 -266q-1 -70 -17.5 -123.5t-44 -82t-57.5 -42.5t-62 -14q-84 0 -97 76q-41 -40 -79.5 -58t-93.5 -18q-168 0 -168 218q0 108 48.5 160.5t133.5 52.5t157 -56v47h59zM589 120v189q-68 62 -141 62q-140 0 -140 -162q0 -92 33 -131t94 -39q45 0 79.5 20
t74.5 61z" />
    <glyph glyph-name="A" unicode="A" horiz-adv-x="648" 
d="M159 161l-69 -161h-74l263 610h91l262 -610h-73l-70 161h-330zM463 224l-114 265q-20 52 -25 72q-5 -20 -25 -72l-114 -265h278z" />
    <glyph glyph-name="B" unicode="B" horiz-adv-x="594" 
d="M93 610h192q117 0 172 -40.5t55 -126.5q0 -96 -98 -125q138 -32 138 -153q0 -85 -62 -125t-190 -40h-207v610zM161 546v-200h158q128 0 128 92q0 56 -39 82t-123 26h-124zM161 283v-218h140q92 0 136.5 24.5t44.5 78.5q0 55 -42 85t-121 30h-158z" />
    <glyph glyph-name="C" unicode="C" horiz-adv-x="624" 
d="M554 118l28 -52q-95 -75 -249 -75q-134 0 -208 82t-74 232q0 152 75.5 233.5t216.5 81.5q127 0 214 -52l-23 -52q-86 40 -189 40q-110 0 -167 -64.5t-57 -187.5q0 -118 56.5 -183.5t158.5 -65.5q130 0 218 63z" />
    <glyph glyph-name="D" unicode="D" horiz-adv-x="652" 
d="M93 610h184q152 0 238 -77t86 -221q0 -153 -85.5 -232.5t-238.5 -79.5h-184v610zM161 64h116q119 0 187 63.5t68 184.5q0 113 -68 173.5t-187 60.5h-116v-482z" />
    <glyph glyph-name="E" unicode="E" horiz-adv-x="565" 
d="M501 0h-408v610h399v-64h-331v-206h290v-64h-290v-212h340v-64z" />
    <glyph glyph-name="F" unicode="F" horiz-adv-x="521" 
d="M161 330h281v-64h-281v-266h-68v610h389v-64h-321v-216z" />
    <glyph glyph-name="G" unicode="G" horiz-adv-x="667" 
d="M605 309v-233q-125 -85 -280 -85q-128 0 -201 82t-73 231t76 232.5t214 83.5q130 0 234 -49l-21 -56q-99 41 -208 41q-108 0 -166.5 -65.5t-58.5 -185.5q0 -121 54.5 -185.5t152.5 -64.5q127 0 212 58v133h-227v63h292z" />
    <glyph glyph-name="H" unicode="H" horiz-adv-x="687" 
d="M594 0h-68v280h-365v-280h-68v610h68v-266h365v266h68v-610z" />
    <glyph glyph-name="I" unicode="I" horiz-adv-x="254" 
d="M161 0h-68v610h68v-610z" />
    <glyph glyph-name="J" unicode="J" horiz-adv-x="478" 
d="M390 610v-409q1 -99 -48 -154.5t-134 -55.5q-88 0 -184 51l20 55q87 -39 151 -39q60 0 93.5 37t33.5 106v409h68z" />
    <glyph glyph-name="K" unicode="K" horiz-adv-x="632" 
d="M300 302l-139 -147v-155h-68v610h68v-358l343 358h81v-5l-240 -253l260 -347v-5h-76z" />
    <glyph glyph-name="L" unicode="L" horiz-adv-x="502" 
d="M470 0h-377v610h68v-545h309v-65z" />
    <glyph glyph-name="M" unicode="M" horiz-adv-x="835" 
d="M674 0l-16 451v28l-211 -479h-59l-211 479v-26l-16 -453h-69l21 610h81l210 -481q7 -14 13 -34q3 10 13 34l211 481h81l21 -610h-69z" />
    <glyph glyph-name="N" unicode="N" horiz-adv-x="692" 
d="M599 0h-63l-375 493v-493h-68v610h62l376 -495v17v478h68v-610z" />
    <glyph glyph-name="O" unicode="O" horiz-adv-x="671" 
d="M336 620q135 0 209.5 -82t74.5 -234q0 -150 -74.5 -231.5t-209.5 -81.5q-136 0 -210.5 81.5t-74.5 231.5q0 152 74.5 234t210.5 82zM335 55q104 0 159.5 64t55.5 185q0 123 -55.5 187.5t-159.5 64.5q-103 0 -158.5 -64.5t-55.5 -187.5q0 -121 55.5 -185t158.5 -64z" />
    <glyph glyph-name="P" unicode="P" horiz-adv-x="571" 
d="M93 610h200q119 0 181.5 -53.5t62.5 -156.5t-62 -156.5t-180 -53.5h-134v-190h-68v610zM161 254h134q175 0 175 146q0 71 -45.5 108.5t-131.5 37.5h-132v-292z" />
    <glyph glyph-name="Q" unicode="Q" horiz-adv-x="666" 
d="M615 305q0 -151 -73.5 -232.5t-208.5 -81.5t-208.5 81.5t-73.5 232.5t73.5 233t208.5 82t208.5 -82t73.5 -233zM121 304q0 -121 54.5 -185t157.5 -64t157.5 64t54.5 185q0 123 -54.5 187.5t-157.5 64.5t-157.5 -64.5t-54.5 -187.5zM273 -91l15 39q64 -39 129 -56t155 -17
v-56q-175 0 -299 90z" />
    <glyph glyph-name="R" unicode="R" horiz-adv-x="594" 
d="M568 6v-6h-75l-175 208h-157v-208h-68v610h216q120 0 182 -51.5t62 -150.5q0 -73 -44.5 -124.5t-118.5 -68.5zM161 272h156q76 0 121.5 36.5t45.5 99.5q0 136 -174 138h-149v-274z" />
    <glyph glyph-name="S" unicode="S" horiz-adv-x="548" 
d="M473 571l-22 -55q-97 43 -199 43q-53 0 -85.5 -26.5t-32.5 -62.5q0 -51 33 -72.5t138 -56.5q101 -34 144.5 -72t43.5 -110q0 -84 -55.5 -126t-140.5 -42q-68 0 -138.5 23t-123.5 63l28 52q116 -75 231 -75q62 0 95.5 25t33.5 71q0 52 -34.5 78.5t-138.5 59.5
q-51 16 -78.5 27.5t-56 31.5t-40 48t-11.5 69q0 70 51.5 113t137.5 43q113 0 220 -49z" />
    <glyph glyph-name="T" unicode="T" horiz-adv-x="535" 
d="M523 546h-221v-546h-69v546h-220v64h510v-64z" />
    <glyph glyph-name="U" unicode="U" horiz-adv-x="664" 
d="M586 610v-337q0 -135 -66 -208.5t-188 -73.5t-188 73.5t-66 209.5v336h68v-336q0 -105 48.5 -161.5t137.5 -56.5t137.5 56.5t48.5 161.5v336h68z" />
    <glyph glyph-name="V" unicode="V" horiz-adv-x="627" 
d="M353 0h-79l-258 610h77l196 -470q14 -37 25 -72q8 29 24 72l199 470h74z" />
    <glyph glyph-name="W" unicode="W" horiz-adv-x="879" 
d="M683 0h-98l-131 446q-7 25 -14 63q-6 -36 -14 -63l-131 -446h-98l-180 610h76l135 -470q8 -28 16 -77q3 14 10 42t9 35l138 470h77l138 -470q13 -45 19 -77q5 31 16 77l135 470h77z" />
    <glyph glyph-name="X" unicode="X" horiz-adv-x="589" 
d="M566 0h-83l-173 249q-3 4 -8.5 12.5l-7.5 11.5q-2 -4 -7.5 -12l-7.5 -11l-174 -250h-83l218 312l-210 298h84l165 -231l15 -25l16 25l164 231h84l-211 -298z" />
    <glyph glyph-name="Y" unicode="Y" horiz-adv-x="560" 
d="M314 210v-210h-68v210l-227 400h70l173 -294q9 -16 18 -42q8 24 19 42l172 294h71z" />
    <glyph glyph-name="Z" unicode="Z" horiz-adv-x="582" 
d="M538 0h-486v54l394 494q-58 -2 -89 -2h-288v64h464v-56l-385 -492q56 2 85 2h305v-64z" />
    <glyph glyph-name="bracketleft" unicode="[" horiz-adv-x="353" 
d="M323 606h-163v-727h163v-54h-224v835h224v-54z" />
    <glyph glyph-name="backslash" unicode="\" horiz-adv-x="408" 
d="M378 -205h-57l-260 869h59z" />
    <glyph glyph-name="bracketright" unicode="]" horiz-adv-x="353" 
d="M262 660v-835h-224v54h162v727h-162v54h224z" />
    <glyph glyph-name="asciicircum" unicode="^" horiz-adv-x="467" 
d="M361 345l-101 204q-15 30 -26 59h-2q-11 -34 -25 -59l-101 -204h-53l158 310h46l158 -310h-54z" />
    <glyph glyph-name="underscore" unicode="_" horiz-adv-x="457" 
d="M58 -108v51h341v-51h-341z" />
    <glyph glyph-name="grave" unicode="`" 
d="M307 561l-22 -22q-66 44 -139 108l-1 14l55 36z" />
    <glyph glyph-name="a" unicode="a" horiz-adv-x="509" 
d="M100 393l-11 54q108 30 185 30q94 0 130 -45t36 -152v-280h-67v73q-77 -82 -172 -82q-160 0 -160 143q0 148 195 148q90 0 137 -1q0 79 -22 107.5t-87 28.5q-67 0 -164 -24zM373 233l-130 -1q-73 0 -106.5 -20.5t-33.5 -71.5q0 -98 116 -98q86 0 154 87v104z" />
    <glyph glyph-name="b" unicode="b" horiz-adv-x="561" 
d="M143 655v-259q77 80 183 80q189 0 189 -241q0 -124 -57.5 -184t-142.5 -60q-57 0 -95 19.5t-77 60.5v-71h-66v655h66zM143 332v-196q75 -89 154 -89q65 0 108.5 45.5t43.5 142.5q0 185 -142 185q-89 0 -164 -88z" />
    <glyph glyph-name="c" unicode="c" horiz-adv-x="495" 
d="M433 107l26 -44q-46 -40 -90.5 -56t-107.5 -16q-96 0 -155.5 63t-59.5 176q0 117 62.5 182t163.5 65q95 0 168 -48l-24 -46q-63 37 -143 37q-71 0 -116 -49.5t-45 -140.5q0 -87 43.5 -134t113.5 -47q90 0 164 58z" />
    <glyph glyph-name="d" unicode="d" horiz-adv-x="561" 
d="M418 0v71q-39 -41 -77 -60.5t-95 -19.5q-85 0 -142.5 60t-57.5 184q0 242 189 242q108 0 183 -78v256h67v-655h-67zM418 136v196q-70 88 -164 88q-142 0 -142 -185q0 -96 43.5 -142t108.5 -46q48 0 83 22.5t71 66.5z" />
    <glyph glyph-name="e" unicode="e" horiz-adv-x="522" 
d="M438 108l27 -43q-82 -74 -200 -74q-99 0 -159 58.5t-60 180.5q0 125 61.5 186t161.5 61q95 0 149 -57.5t57 -170.5q0 -18 -2 -33h-363q4 -88 46.5 -129.5t110.5 -41.5q94 0 171 63zM112 269h303q-4 77 -42.5 115t-102.5 38t-107 -37t-51 -116z" />
    <glyph glyph-name="f" unicode="f" horiz-adv-x="317" 
d="M325 660l-6 -51q-30 3 -72 3q-49 0 -69 -24.5t-20 -75.5v-44h152v-57h-152v-411h-67v411h-67v57h67v45q0 79 34.5 117t111.5 38q53 0 88 -8z" />
    <glyph glyph-name="g" unicode="g" horiz-adv-x="544" 
d="M485 468v-400q0 -114 -54.5 -168.5t-151.5 -54.5q-117 0 -207 53l20 50q84 -43 180 -43q146 0 146 163v33q-38 -42 -77 -61t-97 -19q-87 0 -142.5 53t-55.5 163q0 240 189 240q103 0 183 -77v68h67zM418 164v168q-77 88 -164 88q-142 0 -142 -183q0 -85 43 -123.5
t109 -38.5q47 0 82 22.5t72 66.5z" />
    <glyph glyph-name="h" unicode="h" horiz-adv-x="552" 
d="M143 655v-269q81 91 188 91q80 0 114.5 -44.5t34.5 -140.5v-292h-67v273q0 75 -21 106.5t-79 31.5q-94 0 -170 -97v-314h-66v655h66z" />
    <glyph glyph-name="i" unicode="i" horiz-adv-x="223" 
d="M70 605q0 18 12 28.5t30 10.5t30 -10.5t12 -28.5q0 -19 -12 -29.5t-30 -10.5t-30 10.5t-12 29.5zM145 0h-67v468h67v-468z" />
    <glyph glyph-name="j" unicode="j" horiz-adv-x="223" 
d="M111 565q-18 0 -30 10.5t-12 29.5q0 18 12 28.5t30 10.5t30 -10.5t12 -28.5q0 -19 -12 -29.5t-30 -10.5zM145 468v-449q0 -83 -24 -126t-84 -60l-15 53q33 16 44.5 44t11.5 89v449h67z" />
    <glyph glyph-name="k" unicode="k" horiz-adv-x="513" 
d="M476 468v-5l-188 -182l220 -276v-5h-79l-190 232l-96 -93v-139h-67v655h67v-428l251 241h82z" />
    <glyph glyph-name="l" unicode="l" horiz-adv-x="219" 
d="M143 0h-67v655h67v-655z" />
    <glyph glyph-name="m" unicode="m" horiz-adv-x="845" 
d="M143 468v-78q78 86 168 86q112 0 137 -97q87 97 179 97q74 0 110 -45.5t36 -139.5v-291h-66v277q0 72 -20 104.5t-70 32.5q-77 0 -159 -95q1 -5 1 -13v-306h-67v277q0 72 -20.5 104.5t-70.5 32.5q-84 0 -158 -95v-319h-67v468h67z" />
    <glyph glyph-name="n" unicode="n" horiz-adv-x="552" 
d="M143 468v-78q80 86 182 86q81 0 118 -44.5t37 -139.5v-292h-67v277q0 74 -21 105.5t-79 31.5q-96 0 -170 -95v-319h-67v468h67z" />
    <glyph glyph-name="o" unicode="o" horiz-adv-x="556" 
d="M278 477q107 0 169.5 -66.5t62.5 -180.5q0 -110 -63 -174.5t-170 -64.5q-106 0 -168.5 65t-62.5 174q0 114 62.5 180.5t169.5 66.5zM277 49q78 0 123 49t45 133q0 87 -45 137.5t-122 50.5t-121.5 -50.5t-44.5 -137.5q0 -84 44.5 -133t120.5 -49z" />
    <glyph glyph-name="p" unicode="p" horiz-adv-x="561" 
d="M143 468v-68q79 76 183 76q189 0 189 -242q0 -123 -57.5 -183t-142.5 -60q-57 0 -95 19t-77 59v-234h-66v633h66zM143 333v-198q76 -88 161 -88q64 0 104.5 45.5t40.5 142.5q0 99 -34.5 142t-100.5 43q-46 0 -92.5 -24.5t-78.5 -62.5z" />
    <glyph glyph-name="q" unicode="q" horiz-adv-x="561" 
d="M485 -165h-67v233q-39 -40 -77 -58.5t-95 -18.5q-85 0 -142.5 60t-57.5 184q0 242 189 242q105 0 183 -76v67h67v-633zM418 134v200q-72 86 -164 86q-142 0 -142 -185q0 -97 43.5 -142.5t108.5 -45.5q47 0 82.5 22.5t71.5 64.5z" />
    <glyph glyph-name="r" unicode="r" horiz-adv-x="369" 
d="M143 468v-98q17 47 57 76.5t89 29.5q33 0 60 -3l-5 -65q-24 2 -57 2q-49 0 -87 -32.5t-57 -94.5v-283h-67v468h67z" />
    <glyph glyph-name="s" unicode="s" horiz-adv-x="439" 
d="M379 436l-18 -50q-90 37 -155 37q-44 0 -68 -18t-24 -52q0 -22 16.5 -37.5t34 -22t66.5 -22.5q95 -31 130 -60.5t35 -90.5q0 -63 -44.5 -96t-118.5 -33q-117 0 -204 73l29 47q78 -64 174 -64q101 0 101 72q0 41 -26 58t-110 43q-81 26 -113 52.5t-32 78.5q0 61 40.5 94
t114.5 33q81 0 172 -42z" />
    <glyph glyph-name="t" unicode="t" horiz-adv-x="352" 
d="M319 65l8 -50q-61 -18 -100 -18q-72 0 -103 35t-31 114v265h-73v57h73v122h66v-122h147v-57h-147v-263q0 -52 20.5 -70.5t67.5 -18.5q34 0 72 6z" />
    <glyph glyph-name="u" unicode="u" horiz-adv-x="550" 
d="M406 0v78q-85 -87 -185 -87q-79 0 -115.5 45.5t-36.5 141.5v290h66v-276q0 -73 24 -106.5t82 -33.5q45 0 89 27.5t76 71.5v317h67v-468h-67z" />
    <glyph glyph-name="v" unicode="v" horiz-adv-x="503" 
d="M288 0h-73l-205 468h69l146 -323q13 -28 26 -73q2 5 11.5 32t15.5 41l147 323h68z" />
    <glyph glyph-name="w" unicode="w" horiz-adv-x="715" 
d="M547 0h-79l-110 358l-110 -358h-80l-158 468h65l114 -331q11 -32 19 -65q11 44 18 65l100 331h64l99 -331q4 -13 10 -36t8 -29q2 9 5 19.5t7.5 24t6.5 21.5l114 331h65z" />
    <glyph glyph-name="x" unicode="x" horiz-adv-x="468" 
d="M381 0l-115 151q-20 24 -32 44q-12 -20 -32 -44l-115 -151h-74l174 236l-170 232h76l109 -147q20 -24 32 -44q12 20 32 44l109 147h76l-170 -232l174 -236h-74z" />
    <glyph glyph-name="y" unicode="y" horiz-adv-x="495" 
d="M410 467h74q-114 -272 -174 -392q-86 -166 -210 -219l-24 57q76 39 123 100l-195 454h70l135 -315l31 -74l34 68.5t36 79.5l29.5 69l36 88z" />
    <glyph glyph-name="z" unicode="z" horiz-adv-x="490" 
d="M451 0h-412v45l319 369q-60 -3 -84 -3h-229v57h398v-44l-313 -370q48 2 85 2h236v-56z" />
    <glyph glyph-name="braceleft" unicode="{" horiz-adv-x="378" 
d="M235 81v-75q0 -54 26.5 -84t88.5 -41l-5 -47q-90 8 -131 50t-41 122v75q0 82 -24 110.5t-97 30.5v47q72 1 96.5 30t24.5 111v75q0 80 40.5 121.5t131.5 49.5l5 -47q-62 -10 -88.5 -40.5t-26.5 -83.5v-75q0 -82 -23 -118.5t-79 -46.5q56 -9 79 -45.5t23 -118.5z" />
    <glyph glyph-name="bar" unicode="|" horiz-adv-x="287" 
d="M115 -200v855h57v-855h-57z" />
    <glyph glyph-name="braceright" unicode="}" horiz-adv-x="378" 
d="M150 6v74q0 83 23 119.5t79 45.5q-56 10 -79 46.5t-23 118.5v75q0 53 -26.5 83.5t-88.5 40.5l6 47q90 -8 131 -49.5t41 -121.5v-75q0 -83 24 -111.5t96 -29.5v-47q-72 -2 -96 -30.5t-24 -111.5v-74q0 -80 -41 -122t-131 -50l-6 47q62 11 88.5 41t26.5 84z" />
    <glyph glyph-name="asciitilde" unicode="~" horiz-adv-x="425" 
d="M358 315l31 -20q-30 -58 -66 -73.5t-79 5.5l-85 40q-30 14 -51.5 5.5t-43.5 -46.5l-31 19q29 56 64.5 71t80.5 -7l85 -39q30 -14 52 -4.5t43 49.5z" />
    <glyph glyph-name="exclamdown" unicode="&#xa1;" horiz-adv-x="206" 
d="M96 402q-17 0 -27 10.5t-10 27.5t10 27.5t27 10.5t27.5 -10.5t10.5 -27.5t-10.5 -27.5t-27.5 -10.5zM132 -135h-72l9 418h54z" />
    <glyph glyph-name="cent" unicode="&#xa2;" horiz-adv-x="514" 
d="M456 109l26 -40q-67 -70 -174 -77v-58h-48v58q-88 5 -148.5 71t-60.5 202q0 133 60 202t149 77v66h48v-66q89 -6 155 -52l-23 -44q-61 41 -150 41q-72 0 -122.5 -54t-50.5 -170q0 -113 49 -165.5t119 -52.5q105 0 171 62z" />
    <glyph glyph-name="sterling" unicode="&#xa3;" horiz-adv-x="542" 
d="M187 56h313v-56h-464v49l86 6l12 157h-94v47h97l3 35q10 134 62 194t146 60q101 0 174 -53l-23 -44q-64 43 -143 43q-68 0 -105 -46t-45 -154l-3 -35h208v-47h-212z" />
    <glyph glyph-name="yen" unicode="&#xa5;" horiz-adv-x="514" 
d="M312 236h134v-39h-155v-66h155v-39h-155v-92h-68v92h-150v39h150v66h-150v39h129l-186 307h71l154 -247q11 -22 16 -34l17 34l153 247h71z" />
    <glyph glyph-name="brokenbar" unicode="&#xa6;" horiz-adv-x="287" 
d="M115 318v337h57v-337h-57zM115 -200v337h57v-337h-57z" />
    <glyph glyph-name="section" unicode="&#xa7;" horiz-adv-x="584" 
d="M91 20l22 46q38 -33 91.5 -52.5t99.5 -19.5t71.5 19.5t25.5 53.5q0 32 -28.5 49.5t-110.5 43.5q-106 34 -149.5 66t-43.5 85q0 32 17 55t57 52q-33 30 -33 79q0 57 41.5 90t113.5 33q99 0 188 -42l-18 -48q-78 40 -165 40q-46 0 -71.5 -19t-25.5 -53q0 -33 28.5 -50.5
t110.5 -43.5q105 -33 149 -65.5t44 -85.5q0 -31 -16.5 -54.5t-56.5 -52.5q32 -31 32 -78q0 -58 -42 -92t-115 -34q-55 0 -116 21.5t-100 56.5zM176 396q-28 -26 -37.5 -42t-9.5 -35q0 -37 40 -60t137 -54q56 -17 92 -36q47 43 47 77q0 37 -39.5 59.5t-137.5 53.5
q-65 22 -92 37z" />
    <glyph glyph-name="dieresis" unicode="&#xa8;" 
d="M151 651q19 0 31 -11.5t12 -30.5t-12 -30t-31 -11q-17 0 -29.5 11t-12.5 30t12.5 30.5t29.5 11.5zM334 651q18 0 30 -11.5t12 -30.5t-12 -30t-30 -11q-19 0 -31 11t-12 30t12 30.5t31 11.5z" />
    <glyph glyph-name="copyright" unicode="&#xa9;" horiz-adv-x="742" 
d="M372 -9q-131 0 -222.5 91.5t-91.5 222.5t91.5 223t222.5 92q130 0 221.5 -92t91.5 -223t-91 -222.5t-222 -91.5zM372 17q119 0 203.5 84t84.5 204q0 119 -85 204t-203 85q-120 0 -204.5 -85t-84.5 -204q0 -120 84.5 -204t204.5 -84zM503 215l21 -31q-61 -63 -148 -63
q-75 0 -124 49.5t-49 129.5q0 85 46 135.5t123 50.5q79 0 137 -44l-19 -33q-50 33 -113 33q-57 0 -90.5 -38t-33.5 -104q0 -62 36 -99t92 -37q68 0 122 51z" />
    <glyph glyph-name="ordfeminine" unicode="&#xaa;" horiz-adv-x="381" 
d="M82 559l-9 40q74 21 133 21q68 0 95.5 -31t27.5 -109v-200h-51v52q-54 -59 -124 -59q-114 0 -114 105q0 103 139 103q65 0 99 -1q0 55 -17 75t-63 20q-49 0 -116 -16zM278 444h-94q-51 0 -73.5 -14t-22.5 -48q0 -68 78 -68q60 0 112 61v69z" />
    <glyph glyph-name="guillemotleft" unicode="&#xab;" horiz-adv-x="519" 
d="M285 412l-129 -134q-18 -20 -39 -36q25 -19 40 -36l128 -133l-36 -33l-200 203l199 203zM450 412l-128 -134q-25 -25 -39 -36q19 -15 40 -36l127 -133l-36 -33l-199 203l198 203z" />
    <glyph glyph-name="registered" unicode="&#xae;" horiz-adv-x="742" 
d="M372 -9q-131 0 -222.5 91.5t-91.5 222.5t91.5 223t222.5 92q130 0 221.5 -92t91.5 -223t-91 -222.5t-222 -91.5zM372 17q119 0 203.5 84t84.5 204q0 119 -85 204t-203 85q-120 0 -204.5 -85t-84.5 -204q0 -120 84.5 -204t204.5 -84zM243 481h131q143 0 143 -113
q0 -86 -81 -97q46 -20 96 -142h-54q-53 125 -91 125h-98v-125h-46v352zM292 293h101q76 0 76 74t-95 74h-82v-148z" />
    <glyph glyph-name="macron" unicode="&#xaf;" 
d="M359 574h-233v59h233v-59z" />
    <glyph glyph-name="degree" unicode="&#xb0;" horiz-adv-x="334" 
d="M167 620q52 0 83 -31.5t31 -84.5q0 -50 -31.5 -80t-83.5 -30q-51 0 -82 30t-31 80q0 53 31 84.5t83 31.5zM166 435q34 0 53.5 18.5t19.5 50.5q0 35 -19.5 55.5t-52.5 20.5t-53 -21t-20 -55q0 -31 20 -50t52 -19z" />
    <glyph glyph-name="plusminus" unicode="&#xb1;" horiz-adv-x="465" 
d="M429 295h-175v-142h-46v142h-174v47h174v142h46v-142h175v-47zM427 108v-46h-394v46h394z" />
    <glyph glyph-name="twosuperior" unicode="&#xb2;" horiz-adv-x="340" 
d="M306 335h-276v36l63.5 51l62.5 51t45.5 42.5t36 46t10.5 41.5q0 37 -20 56.5t-58 19.5q-60 0 -127 -32l-15 35q81 38 148 38q57 0 89 -31t32 -86q0 -15 -5 -30.5t-11 -28t-21 -29l-24.5 -26.5t-31.5 -28l-33 -27t-39 -29.5t-39 -29.5q30 2 43 2h170v-42z" />
    <glyph glyph-name="threesuperior" unicode="&#xb3;" horiz-adv-x="339" 
d="M39 718l-13 34q73 35 146 35q56 0 88.5 -27t32.5 -76q1 -65 -65 -84q77 -23 77 -94q0 -52 -35 -79.5t-99 -27.5q-86 0 -153 37l15 34q63 -32 137 -32q43 0 66 18t23 51q0 73 -100 73h-64v40h64q90 0 90 59q0 33 -21.5 51t-59.5 18q-63 0 -129 -30z" />
    <glyph glyph-name="acute" unicode="&#xb4;" 
d="M338 652l-1 -14q-74 -67 -139 -108l-22 22l108 136z" />
    <glyph glyph-name="paragraph" unicode="&#xb6;" horiz-adv-x="536" 
d="M489 557l-108 -6v-551h-63v211h-19q-133 0 -189.5 44.5t-56.5 152.5q0 110 56.5 156t189.5 46h190v-53z" />
    <glyph glyph-name="periodcentered" unicode="&#xb7;" horiz-adv-x="268" 
d="M84 283q0 19 12 31t31 12t31 -12t12 -31t-12 -31t-31 -12t-31 12t-12 31z" />
    <glyph glyph-name="cedilla" unicode="&#xb8;" 
d="M250 17l-6 -53q56 -1 78 -19t22 -62q0 -42 -26 -64.5t-71 -22.5q-39 0 -90 15l9 40q40 -8 68 -8q63 0 63 40q0 25 -16 33.5t-58 8.5h-33l20 92h40z" />
    <glyph glyph-name="onesuperior" unicode="&#xb9;" horiz-adv-x="313" 
d="M290 331h-250v42h107v282q-46 -17 -107 -32l-10 32q71 26 126 55h38v-337h96v-42z" />
    <glyph glyph-name="ordmasculine" unicode="&#xba;" horiz-adv-x="434" 
d="M217 620q79 0 122.5 -46t43.5 -130q0 -82 -43.5 -126.5t-123.5 -44.5q-79 0 -122 44.5t-43 126.5q0 84 43.5 130t122.5 46zM216 318q117 0 117 126q0 132 -116 132q-115 0 -115 -132q0 -126 114 -126z" />
    <glyph glyph-name="guillemotright" unicode="&#xbb;" horiz-adv-x="519" 
d="M90 40l-34 33l127 133q19 20 39 36q-32 30 -38 36l-128 134l35 34l199 -203zM255 40l-34 33l127 133q21 21 40 36q-21 18 -39 36l-128 134l35 34l199 -203z" />
    <glyph glyph-name="onequarter" unicode="&#xbc;" horiz-adv-x="873" 
d="M290 231h-250v42h107v282q-46 -17 -107 -32l-10 32q71 26 126 55h38v-337h96v-42zM629 610l-359 -610h-44l359 610h44zM739 84v-84h-47v84h-225l-1 36l226 259h47v-256h62v-39h-62zM692 123v200q-11 -16 -25 -31l-116 -129q-22 -26 -37 -40h178z" />
    <glyph glyph-name="onehalf" unicode="&#xbd;" horiz-adv-x="879" 
d="M290 231h-250v42h107v282q-46 -17 -107 -32l-10 32q71 26 126 55h38v-337h96v-42zM629 610l-359 -610h-44l359 610h44zM814 0h-276v36l63.5 51l62.5 51t45.5 42.5t36 46t10.5 41.5q0 37 -20 56.5t-58 19.5q-60 0 -127 -32l-15 34q80 39 148 39q57 0 89 -31t32 -86
q0 -15 -5 -30.5t-11 -28t-21 -29l-24.5 -26.5t-31.5 -28l-33 -27t-39 -29.5t-39 -29.5q15 1 43 1h170v-41z" />
    <glyph glyph-name="threequarters" unicode="&#xbe;" horiz-adv-x="862" 
d="M39 552l-13 33q72 36 146 36q56 0 88.5 -27.5t32.5 -76.5q1 -64 -65 -84q77 -23 77 -93q0 -52 -35 -80t-99 -28q-85 0 -153 38l15 34q65 -33 137 -33q43 0 66 18t23 51q0 73 -100 73h-64v40h64q90 0 90 59q0 33 -21 51t-60 18q-65 0 -129 -29zM633 610l-359 -610h-44
l358 610h45zM737 84v-84h-46v84h-226l-1 36l227 259h46v-255h62v-40h-62zM691 124v199q-4 -6 -25 -30l-117 -129q-20 -24 -36 -40h178z" />
    <glyph glyph-name="questiondown" unicode="&#xbf;" horiz-adv-x="504" 
d="M294 402q-17 0 -27 10t-10 27t10 28t27 11t27.5 -11t10.5 -28t-10.5 -27t-27.5 -10zM468 -30l20 -53q-129 -62 -238 -62q-89 0 -141.5 49.5t-53.5 133.5q1 70 57 116.5t157 63.5l-2 79h56l10 -129q-98 -9 -153 -41.5t-55 -82.5q0 -59 36.5 -93t98.5 -34q99 0 208 53z" />
    <glyph glyph-name="Agrave" unicode="&#xc0;" horiz-adv-x="648" 
d="M361 678l-22 -22q-43 24 -69.5 43.5t-69.5 57.5l-1 14l55 36zM159 161l-69 -161h-74l263 610h91l262 -610h-73l-70 161h-330zM463 224l-114 265q-20 52 -25 72q-5 -20 -25 -72l-114 -265h278z" />
    <glyph glyph-name="Aacute" unicode="&#xc1;" horiz-adv-x="648" 
d="M448 779l-1 -14q-77 -68 -139 -102l-22 22l108 130zM159 161l-69 -161h-74l263 610h91l262 -610h-73l-70 161h-330zM463 224l-114 265q-20 52 -25 72q-5 -20 -25 -72l-114 -265h278z" />
    <glyph glyph-name="Acircumflex" unicode="&#xc2;" horiz-adv-x="648" 
d="M325 742l-118 -85l-27 27l119 112h51l120 -112l-27 -27zM159 161l-69 -161h-74l263 610h91l262 -610h-73l-70 161h-330zM463 224l-114 265q-20 52 -25 72q-5 -20 -25 -72l-114 -265h278z" />
    <glyph glyph-name="Atilde" unicode="&#xc3;" horiz-adv-x="648" 
d="M440 775l37 -10q-14 -58 -55 -77.5t-81 3.5l-55 28q-52 26 -76 -31l-37 10q14 56 53.5 73.5t80.5 -5.5l55 -26q53 -26 78 35zM159 161l-69 -161h-74l263 610h91l262 -610h-73l-70 161h-330zM463 224l-114 265q-20 52 -25 72q-5 -20 -25 -72l-114 -265h278z" />
    <glyph glyph-name="Adieresis" unicode="&#xc4;" horiz-adv-x="648" 
d="M233 770q19 0 31 -11.5t12 -30.5t-12 -30t-31 -11q-17 0 -29.5 11t-12.5 30t12.5 30.5t29.5 11.5zM416 770q18 0 30.5 -11.5t12.5 -30.5t-12.5 -30t-30.5 -11q-19 0 -31 11t-12 30t12.5 30.5t30.5 11.5zM159 161l-69 -161h-74l263 610h91l262 -610h-73l-70 161h-330z
M463 224l-114 265q-20 52 -25 72q-5 -20 -25 -72l-114 -265h278z" />
    <glyph glyph-name="Aring" unicode="&#xc5;" horiz-adv-x="648" 
d="M325 841q41 0 67 -25.5t26 -68.5q0 -39 -26 -63.5t-68 -24.5q-41 0 -66.5 24.5t-25.5 63.5q0 43 26 68.5t67 25.5zM324 699q24 0 38.5 13t14.5 35q0 25 -14.5 39.5t-37.5 14.5t-37.5 -14.5t-14.5 -39.5q0 -22 14 -35t37 -13zM159 161l-69 -161h-74l263 610h91l262 -610
h-73l-70 161h-330zM463 224l-114 265q-20 52 -25 72q-5 -20 -25 -72l-114 -265h278z" />
    <glyph glyph-name="AE" unicode="&#xc6;" horiz-adv-x="945" 
d="M874 64v-64h-408v159h-260l-110 -159h-80l424 610h425v-64h-331v-206h290v-64h-290v-212h340zM466 223v315l-217 -315h217z" />
    <glyph glyph-name="Ccedilla" unicode="&#xc7;" horiz-adv-x="624" 
d="M323 -9l-2 -27q55 -1 77 -19t22 -62q0 -42 -26 -64.5t-71 -22.5q-39 0 -90 15l9 40q40 -8 68 -8q63 0 63 40q0 25 -16 33.5t-58 8.5h-33l15 69q-110 16 -170 96t-60 215q0 152 75.5 233.5t216.5 81.5q127 0 214 -52l-23 -52q-86 40 -189 40q-110 0 -167 -64.5t-57 -187.5
q0 -118 56.5 -183.5t158.5 -65.5q130 0 218 63l28 -52q-95 -75 -249 -75h-10z" />
    <glyph glyph-name="Egrave" unicode="&#xc8;" horiz-adv-x="565" 
d="M331 678l-22 -22q-43 24 -69.5 43.5t-69.5 57.5l-1 14l55 36zM501 0h-408v610h399v-64h-331v-206h290v-64h-290v-212h340v-64z" />
    <glyph glyph-name="Eacute" unicode="&#xc9;" horiz-adv-x="565" 
d="M398 779l-1 -14q-77 -68 -139 -102l-22 22l108 130zM501 0h-408v610h399v-64h-331v-206h290v-64h-290v-212h340v-64z" />
    <glyph glyph-name="Ecircumflex" unicode="&#xca;" horiz-adv-x="565" 
d="M285 745l-119 -85l-27 28l120 111h51l120 -111l-27 -28zM501 0h-408v610h399v-64h-331v-206h290v-64h-290v-212h340v-64z" />
    <glyph glyph-name="Edieresis" unicode="&#xcb;" horiz-adv-x="565" 
d="M197 770q19 0 30.5 -11.5t11.5 -30.5t-11.5 -30t-30.5 -11q-18 0 -30 11t-12 30t12 30.5t30 11.5zM379 770q18 0 30.5 -11.5t12.5 -30.5t-12.5 -30t-30.5 -11t-30 11t-12 30t12 30.5t30 11.5zM501 0h-408v610h399v-64h-331v-206h290v-64h-290v-212h340v-64z" />
    <glyph glyph-name="Igrave" unicode="&#xcc;" horiz-adv-x="254" 
d="M164 678l-22 -22q-67 36 -139 101l-1 14l54 36zM161 0h-68v610h68v-610z" />
    <glyph glyph-name="Iacute" unicode="&#xcd;" horiz-adv-x="254" 
d="M251 779l-1 -14q-31 -28 -46 -40.5t-39.5 -29t-54.5 -32.5l-22 22l109 130zM161 0h-68v610h68v-610z" />
    <glyph glyph-name="Icircumflex" unicode="&#xce;" horiz-adv-x="254" 
d="M127 742l-118 -85l-27 27l120 112h50l121 -112l-27 -27zM161 0h-68v610h68v-610z" />
    <glyph glyph-name="Idieresis" unicode="&#xcf;" horiz-adv-x="254" 
d="M36 770q19 0 30.5 -11.5t11.5 -30.5t-11.5 -30t-30.5 -11q-18 0 -30 11t-12 30t12 30.5t30 11.5zM219 770q18 0 30 -11.5t12 -30.5t-12 -30t-30 -11q-19 0 -31 11t-12 30t12 30.5t31 11.5zM161 0h-68v610h68v-610z" />
    <glyph glyph-name="Eth" unicode="&#xd0;" horiz-adv-x="653" 
d="M86 610h184q153 0 239 -77t86 -221q0 -153 -86 -232.5t-239 -79.5h-184v273h-71v56h71v281zM155 64h115q120 0 187.5 63.5t67.5 184.5q0 114 -68 174t-187 60h-115v-217h136v-56h-136v-209z" />
    <glyph glyph-name="Ntilde" unicode="&#xd1;" horiz-adv-x="692" 
d="M461 775l37 -10q-14 -57 -55 -77t-80 3l-55 28q-53 26 -77 -31l-37 10q14 56 53.5 73.5t80.5 -5.5l55 -26q54 -26 78 35zM599 0h-63l-375 493v-493h-68v610h62l376 -495v17v478h68v-610z" />
    <glyph glyph-name="Ograve" unicode="&#xd2;" horiz-adv-x="671" 
d="M372 678l-22 -22q-67 36 -139 101l-1 14l54 36zM335 620q136 0 210.5 -82t74.5 -234q0 -150 -74.5 -231.5t-210.5 -81.5q-135 0 -209.5 81.5t-74.5 231.5q0 152 74.5 234t209.5 82zM335 55q104 0 159.5 64t55.5 185q0 123 -55.5 187.5t-159.5 64.5q-103 0 -158.5 -64.5
t-55.5 -187.5q0 -121 55.5 -185t158.5 -64z" />
    <glyph glyph-name="Oacute" unicode="&#xd3;" horiz-adv-x="671" 
d="M459 779l-1 -14q-77 -68 -139 -102l-22 22l108 130zM335 620q136 0 210.5 -82t74.5 -234q0 -150 -74.5 -231.5t-210.5 -81.5q-135 0 -209.5 81.5t-74.5 231.5q0 152 74.5 234t209.5 82zM335 55q104 0 159.5 64t55.5 185q0 123 -55.5 187.5t-159.5 64.5
q-103 0 -158.5 -64.5t-55.5 -187.5q0 -121 55.5 -185t158.5 -64z" />
    <glyph glyph-name="Ocircumflex" unicode="&#xd4;" horiz-adv-x="671" 
d="M336 742l-119 -85l-27 27l120 112h51l120 -112l-27 -27zM336 620q135 0 209.5 -82t74.5 -234q0 -150 -74.5 -231.5t-209.5 -81.5q-136 0 -210.5 81.5t-74.5 231.5q0 152 74.5 234t210.5 82zM335 55q104 0 159.5 64t55.5 185q0 123 -55.5 187.5t-159.5 64.5
q-103 0 -158.5 -64.5t-55.5 -187.5q0 -121 55.5 -185t158.5 -64z" />
    <glyph glyph-name="Otilde" unicode="&#xd5;" horiz-adv-x="671" 
d="M451 775l37 -10q-14 -58 -55 -77.5t-81 3.5l-55 28q-52 26 -76 -31l-37 10q14 56 53.5 73.5t80.5 -5.5l55 -26q53 -26 78 35zM336 620q135 0 209.5 -82t74.5 -234q0 -150 -74.5 -231.5t-209.5 -81.5q-136 0 -210.5 81.5t-74.5 231.5q0 152 74.5 234t210.5 82zM335 55
q104 0 159.5 64t55.5 185q0 123 -55.5 187.5t-159.5 64.5q-103 0 -158.5 -64.5t-55.5 -187.5q0 -121 55.5 -185t158.5 -64z" />
    <glyph glyph-name="Odieresis" unicode="&#xd6;" horiz-adv-x="671" 
d="M244 770q19 0 31 -11.5t12 -30.5t-12 -30t-31 -11q-17 0 -29.5 11t-12.5 30t12.5 30.5t29.5 11.5zM427 770q18 0 30 -11.5t12 -30.5t-12 -30t-30 -11q-19 0 -31 11t-12 30t12 30.5t31 11.5zM336 620q135 0 209.5 -82t74.5 -234q0 -150 -74.5 -231.5t-209.5 -81.5
q-136 0 -210.5 81.5t-74.5 231.5q0 152 74.5 234t210.5 82zM335 55q104 0 159.5 64t55.5 185q0 123 -55.5 187.5t-159.5 64.5q-103 0 -158.5 -64.5t-55.5 -187.5q0 -121 55.5 -185t158.5 -64z" />
    <glyph glyph-name="multiply" unicode="&#xd7;" horiz-adv-x="462" 
d="M103 80l-36 36l130 130l-127 127l37 37l127 -126l126 125l36 -36l-125 -126l130 -130l-37 -37l-130 130z" />
    <glyph glyph-name="Oslash" unicode="&#xd8;" horiz-adv-x="671" 
d="M606 588l-56 -64q63 -81 63 -220q0 -150 -74.5 -231.5t-209.5 -81.5q-117 0 -191 63l-52 -60l-30 28l54 61q-65 80 -65 221q0 152 74.5 234t209.5 82q121 0 193 -66l54 62zM157 137l320 366q-55 53 -148 53q-103 0 -159 -65t-56 -187q0 -104 43 -167zM503 471l-320 -366
q55 -50 146 -50q103 0 159 64t56 185q0 103 -41 167z" />
    <glyph glyph-name="Ugrave" unicode="&#xd9;" horiz-adv-x="663" 
d="M372 678l-22 -22q-67 36 -139 101l-1 14l54 36zM586 610v-337q0 -135 -66 -208.5t-188 -73.5t-188 73.5t-66 209.5v336h68v-336q0 -105 48.5 -161.5t137.5 -56.5t137.5 56.5t48.5 161.5v336h68z" />
    <glyph glyph-name="Uacute" unicode="&#xda;" horiz-adv-x="663" 
d="M445 779l-1 -14q-43 -39 -69.5 -59t-69.5 -43l-22 22l108 130zM586 610v-337q0 -135 -66 -208.5t-188 -73.5t-188 73.5t-66 209.5v336h68v-336q0 -105 48.5 -161.5t137.5 -56.5t137.5 56.5t48.5 161.5v336h68z" />
    <glyph glyph-name="Ucircumflex" unicode="&#xdb;" horiz-adv-x="664" 
d="M332 742l-118 -85l-27 27l119 112h51l120 -112l-27 -27zM586 610v-337q0 -135 -66 -208.5t-188 -73.5t-188 73.5t-66 209.5v336h68v-336q0 -105 48.5 -161.5t137.5 -56.5t137.5 56.5t48.5 161.5v336h68z" />
    <glyph glyph-name="Udieresis" unicode="&#xdc;" horiz-adv-x="664" 
d="M240 770q19 0 31 -11.5t12 -30.5t-12 -30t-31 -11q-17 0 -29.5 11t-12.5 30t12.5 30.5t29.5 11.5zM423 770q18 0 30.5 -11.5t12.5 -30.5t-12.5 -30t-30.5 -11q-19 0 -31 11t-12 30t12.5 30.5t30.5 11.5zM586 610v-337q0 -135 -66 -208.5t-188 -73.5t-188 73.5t-66 209.5
v336h68v-336q0 -105 48.5 -161.5t137.5 -56.5t137.5 56.5t48.5 161.5v336h68z" />
    <glyph glyph-name="Yacute" unicode="&#xdd;" horiz-adv-x="560" 
d="M404 779l-1 -14q-31 -28 -46 -40.5t-39.5 -29t-54.5 -32.5l-22 22l109 130zM314 210v-210h-68v210l-227 400h70l173 -294q9 -16 18 -42q8 24 19 42l172 294h71z" />
    <glyph glyph-name="Thorn" unicode="&#xde;" horiz-adv-x="571" 
d="M161 503h132q125 0 184.5 -50.5t59.5 -156.5q0 -105 -59 -154t-183 -49h-134v-93h-68v610h68v-107zM161 149h134q175 0 175 147q0 75 -43.5 111t-134.5 36h-131v-294z" />
    <glyph glyph-name="germandbls" unicode="&#xdf;" horiz-adv-x="580" 
d="M-4 468h84q14 80 76 127t153 47q83 0 136.5 -44.5t53.5 -115.5q0 -55 -30 -93t-80 -56q67 -17 104 -62t37 -113q0 -75 -51.5 -121t-136.5 -46q-62 0 -120 15l7 50q53 -12 105 -12q60 0 96.5 33.5t36.5 87.5q0 64 -46.5 101t-124.5 37h-57v51h57q64 0 101.5 33t37.5 89
q0 50 -35 80t-90 30q-76 0 -122 -44.5t-46 -118.5v-423h-67v413l-79 6v49z" />
    <glyph glyph-name="agrave" unicode="&#xe0;" horiz-adv-x="509" 
d="M319 561l-22 -22q-66 44 -139 108l-1 14l55 36zM100 393l-11 54q108 30 185 30q94 0 130 -45t36 -152v-280h-67v73q-77 -82 -172 -82q-160 0 -160 143q0 148 195 148q90 0 137 -1q0 79 -22 107.5t-87 28.5q-67 0 -164 -24zM373 233l-130 -1q-73 0 -106.5 -20.5
t-33.5 -71.5q0 -98 116 -98q86 0 154 87v104z" />
    <glyph glyph-name="aacute" unicode="&#xe1;" horiz-adv-x="509" 
d="M350 652l-1 -14q-74 -67 -139 -108l-22 22l108 136zM100 393l-11 54q108 30 185 30q94 0 130 -45t36 -152v-280h-67v73q-77 -82 -172 -82q-160 0 -160 143q0 148 195 148q90 0 137 -1q0 79 -22 107.5t-87 28.5q-67 0 -164 -24zM373 233l-130 -1q-73 0 -106.5 -20.5
t-33.5 -71.5q0 -98 116 -98q86 0 154 87v104z" />
    <glyph glyph-name="acircumflex" unicode="&#xe2;" horiz-adv-x="509" 
d="M400 561l-27 -27l-118 91l-119 -91l-27 27l120 118h51zM100 393l-11 54q108 30 185 30q94 0 130 -45t36 -152v-280h-67v73q-77 -82 -172 -82q-160 0 -160 143q0 148 195 148q90 0 137 -1q0 79 -22 107.5t-87 28.5q-67 0 -164 -24zM373 233l-130 -1q-73 0 -106.5 -20.5
t-33.5 -71.5q0 -98 116 -98q86 0 154 87v104z" />
    <glyph glyph-name="atilde" unicode="&#xe3;" horiz-adv-x="509" 
d="M370 664l37 -10q-14 -57 -55 -77t-80 3l-55 28q-53 27 -77 -31l-37 10q14 56 53.5 73.5t80.5 -4.5l55 -26q29 -14 47.5 -5.5t30.5 39.5zM100 393l-11 54q108 30 185 30q94 0 130 -45t36 -152v-280h-67v73q-77 -82 -172 -82q-160 0 -160 143q0 148 195 148q90 0 137 -1
q0 79 -22 107.5t-87 28.5q-67 0 -164 -24zM373 233l-130 -1q-73 0 -106.5 -20.5t-33.5 -71.5q0 -98 116 -98q86 0 154 87v104z" />
    <glyph glyph-name="adieresis" unicode="&#xe4;" horiz-adv-x="509" 
d="M163 651q19 0 31 -11.5t12 -30.5t-12 -30t-31 -11q-17 0 -29.5 11t-12.5 30t12.5 30.5t29.5 11.5zM346 651q18 0 30 -11.5t12 -30.5t-12 -30t-30 -11q-19 0 -31 11t-12 30t12 30.5t31 11.5zM100 393l-11 54q108 30 185 30q94 0 130 -45t36 -152v-280h-67v73
q-77 -82 -172 -82q-160 0 -160 143q0 148 195 148q90 0 137 -1q0 79 -22 107.5t-87 28.5q-67 0 -164 -24zM373 233l-130 -1q-73 0 -106.5 -20.5t-33.5 -71.5q0 -98 116 -98q86 0 154 87v104z" />
    <glyph glyph-name="aring" unicode="&#xe5;" horiz-adv-x="509" 
d="M255 709q41 0 67 -25.5t26 -67.5q0 -39 -26.5 -64t-67.5 -25q-40 0 -66 25t-26 64q0 42 26 67.5t67 25.5zM254 568q24 0 38.5 13t14.5 35q0 25 -14.5 39.5t-37.5 14.5q-24 0 -38 -14.5t-14 -39.5q0 -22 14 -35t37 -13zM100 393l-11 54q108 30 185 30q94 0 130 -45
t36 -152v-280h-67v73q-77 -82 -172 -82q-160 0 -160 143q0 148 195 148q90 0 137 -1q0 79 -22 107.5t-87 28.5q-67 0 -164 -24zM373 233l-130 -1q-73 0 -106.5 -20.5t-33.5 -71.5q0 -98 116 -98q86 0 154 87v104z" />
    <glyph glyph-name="ae" unicode="&#xe6;" horiz-adv-x="849" 
d="M100 398l-11 49q104 30 185 30q105 0 137 -82q59 82 179 82q95 0 149 -57.5t57 -170.5q0 -18 -2 -33h-363q4 -88 46.5 -129.5t110.5 -41.5q94 0 171 63l27 -43q-82 -74 -200 -74q-121 0 -177 82q-85 -82 -188 -82q-94 0 -137 36t-43 110q0 63 49 98t146 35q27 0 66 -0.5
t65 -0.5q1 83 -20 117.5t-83 34.5q-71 0 -164 -23zM433 269h303q-4 77 -42.5 115t-102.5 38t-107 -37t-51 -116zM367 216q-26 0 -63 0.5t-61 0.5q-73 0 -106 -18t-33 -58q0 -96 129 -96q80 0 155 65q-18 44 -21 106z" />
    <glyph glyph-name="ccedilla" unicode="&#xe7;" horiz-adv-x="495" 
d="M260 -9l-2 -27q55 -1 77 -19t22 -62q0 -42 -26 -64.5t-71 -22.5q-39 0 -90 15l9 40q40 -8 68 -8q63 0 63 40q0 25 -16 33.5t-58 8.5h-33l16 70q-79 13 -126 74.5t-47 160.5q0 117 62.5 182t163.5 65q95 0 168 -48l-24 -46q-63 37 -143 37q-71 0 -116 -49.5t-45 -140.5
q0 -87 43.5 -134t113.5 -47q90 0 164 58l26 -44q-46 -40 -90.5 -56t-108.5 -16z" />
    <glyph glyph-name="egrave" unicode="&#xe8;" horiz-adv-x="522" 
d="M315 561l-22 -22q-69 45 -139 108l-1 14l54 36zM438 108l27 -43q-82 -74 -200 -74q-99 0 -159 58.5t-60 180.5q0 125 61.5 186t161.5 61q95 0 149 -57.5t57 -170.5q0 -18 -2 -33h-363q4 -88 46.5 -129.5t110.5 -41.5q94 0 171 63zM112 269h303q-4 77 -42.5 115t-102.5 38
t-107 -37t-51 -116z" />
    <glyph glyph-name="eacute" unicode="&#xe9;" horiz-adv-x="522" 
d="M359 652l-1 -14q-74 -67 -139 -108l-22 22l108 136zM438 108l27 -43q-82 -74 -200 -74q-99 0 -159 58.5t-60 180.5q0 125 61.5 186t161.5 61q95 0 149 -57.5t57 -170.5q0 -18 -2 -33h-363q4 -88 46.5 -129.5t110.5 -41.5q94 0 171 63zM112 269h303q-4 77 -42.5 115
t-102.5 38t-107 -37t-51 -116z" />
    <glyph glyph-name="ecircumflex" unicode="&#xea;" horiz-adv-x="522" 
d="M405 561l-27 -27l-118 91l-118 -91l-27 27l119 118h51zM438 108l27 -43q-82 -74 -200 -74q-99 0 -159 58.5t-60 180.5q0 125 61.5 186t161.5 61q95 0 149 -57.5t57 -170.5q0 -18 -2 -33h-363q4 -88 46.5 -129.5t110.5 -41.5q94 0 171 63zM112 269h303q-4 77 -42.5 115
t-102.5 38t-107 -37t-51 -116z" />
    <glyph glyph-name="edieresis" unicode="&#xeb;" horiz-adv-x="522" 
d="M168 651q19 0 31 -11.5t12 -30.5t-12 -30t-31 -11q-17 0 -29.5 11t-12.5 30t12.5 30.5t29.5 11.5zM351 651q18 0 30.5 -11.5t12.5 -30.5t-12.5 -30t-30.5 -11q-19 0 -31 11t-12 30t12.5 30.5t30.5 11.5zM438 108l27 -43q-82 -74 -200 -74q-99 0 -159 58.5t-60 180.5
q0 125 61.5 186t161.5 61q95 0 149 -57.5t57 -170.5q0 -18 -2 -33h-363q4 -88 46.5 -129.5t110.5 -41.5q94 0 171 63zM112 269h303q-4 77 -42.5 115t-102.5 38t-107 -37t-51 -116z" />
    <glyph glyph-name="igrave" unicode="&#xec;" horiz-adv-x="223" 
d="M159 561l-22 -22q-66 44 -139 108l-1 14l55 36zM145 0h-67v468h67v-468z" />
    <glyph glyph-name="iacute" unicode="&#xed;" horiz-adv-x="223" 
d="M217 652l-1 -14q-77 -68 -139 -108l-22 22l108 136zM145 0h-67v468h67v-468z" />
    <glyph glyph-name="icircumflex" unicode="&#xee;" horiz-adv-x="223" 
d="M257 561l-27 -27l-118 91l-119 -91l-27 27l120 118h51zM145 0h-67v468h67v-468z" />
    <glyph glyph-name="idieresis" unicode="&#xef;" horiz-adv-x="223" 
d="M20 651q19 0 31 -11.5t12 -30.5t-12 -30t-31 -11q-17 0 -29.5 11t-12.5 30t12.5 30.5t29.5 11.5zM203 651q18 0 30 -11.5t12 -30.5t-12 -30t-30 -11q-19 0 -31 11t-12 30t12 30.5t31 11.5zM145 0h-67v468h67v-468z" />
    <glyph glyph-name="eth" unicode="&#xf0;" horiz-adv-x="556" 
d="M412 626l-83 -44q99 -81 140 -160.5t41 -191.5q0 -114 -60.5 -176.5t-172.5 -62.5q-110 0 -170.5 62.5t-60.5 176.5q0 116 73 177t240 62q-34 40 -91 83l-128 -66l-19 41l106 56q-37 25 -84 54v11l59 26q50 -33 88 -61l102 54zM277 46q81 0 124 47t43 137q0 111 -48 188
q-163 -1 -223.5 -45t-60.5 -145q0 -89 42.5 -135.5t122.5 -46.5z" />
    <glyph glyph-name="ntilde" unicode="&#xf1;" horiz-adv-x="552" 
d="M399 664l37 -10q-14 -57 -55 -77t-80 3l-55 28q-53 27 -77 -31l-37 10q14 56 53.5 73.5t80.5 -4.5l55 -26q29 -14 47.5 -5.5t30.5 39.5zM143 468v-78q80 86 182 86q81 0 118 -44.5t37 -139.5v-292h-67v277q0 74 -21 105.5t-79 31.5q-96 0 -170 -95v-319h-67v468h67z" />
    <glyph glyph-name="ograve" unicode="&#xf2;" horiz-adv-x="557" 
d="M333 561l-22 -22q-69 45 -139 108l-1 14l54 36zM278 477q107 0 169.5 -66.5t62.5 -180.5q0 -110 -63 -174.5t-170 -64.5q-106 0 -168.5 65t-62.5 174q0 114 62.5 180.5t169.5 66.5zM277 49q78 0 123 49t45 133q0 87 -45 137.5t-122 50.5t-121.5 -50.5t-44.5 -137.5
q0 -84 44.5 -133t120.5 -49z" />
    <glyph glyph-name="oacute" unicode="&#xf3;" horiz-adv-x="557" 
d="M381 652l-1 -14q-77 -68 -140 -108l-22 22l109 136zM278 477q107 0 169.5 -66.5t62.5 -180.5q0 -110 -63 -174.5t-170 -64.5q-106 0 -168.5 65t-62.5 174q0 114 62.5 180.5t169.5 66.5zM277 49q78 0 123 49t45 133q0 87 -45 137.5t-122 50.5t-121.5 -50.5t-44.5 -137.5
q0 -84 44.5 -133t120.5 -49z" />
    <glyph glyph-name="ocircumflex" unicode="&#xf4;" horiz-adv-x="556" 
d="M424 561l-28 -27l-118 91l-118 -91l-27 27l120 119h50zM278 477q107 0 169.5 -66.5t62.5 -180.5q0 -110 -63 -174.5t-170 -64.5q-106 0 -168.5 65t-62.5 174q0 114 62.5 180.5t169.5 66.5zM277 49q78 0 123 49t45 133q0 87 -45 137.5t-122 50.5t-121.5 -50.5
t-44.5 -137.5q0 -84 44.5 -133t120.5 -49z" />
    <glyph glyph-name="otilde" unicode="&#xf5;" horiz-adv-x="556" 
d="M394 664l37 -10q-14 -58 -55 -77.5t-81 3.5l-55 28q-53 26 -76 -31l-37 10q14 56 53.5 73.5t80.5 -4.5l55 -26q29 -14 47 -5.5t31 39.5zM278 477q107 0 169.5 -66.5t62.5 -180.5q0 -110 -63 -174.5t-170 -64.5q-106 0 -168.5 65t-62.5 174q0 114 62.5 180.5t169.5 66.5z
M277 49q78 0 123 49t45 133q0 87 -45 137.5t-122 50.5t-121.5 -50.5t-44.5 -137.5q0 -84 44.5 -133t120.5 -49z" />
    <glyph glyph-name="odieresis" unicode="&#xf6;" horiz-adv-x="556" 
d="M187 651q19 0 30.5 -11t11.5 -31q0 -19 -11.5 -29.5t-30.5 -10.5q-18 0 -30 11t-12 29q0 20 12 31t30 11zM369 651q18 0 30.5 -11.5t12.5 -30.5q0 -18 -12.5 -29t-30.5 -11t-30 11t-12 29q0 20 11.5 31t30.5 11zM278 477q107 0 169.5 -66.5t62.5 -180.5
q0 -110 -63 -174.5t-170 -64.5q-106 0 -168.5 65t-62.5 174q0 114 62.5 180.5t169.5 66.5zM277 49q78 0 123 49t45 133q0 87 -45 137.5t-122 50.5t-121.5 -50.5t-44.5 -137.5q0 -84 44.5 -133t120.5 -49z" />
    <glyph glyph-name="divide" unicode="&#xf7;" horiz-adv-x="463" 
d="M192 395q0 17 10 27t27 10t27.5 -10t10.5 -27t-10.5 -27.5t-27.5 -10.5q-16 0 -26.5 10.5t-10.5 27.5zM34 211v51h393v-51h-393zM192 87q0 17 10.5 27.5t26.5 10.5q17 0 27.5 -10.5t10.5 -27.5t-10.5 -27t-27.5 -10t-27 10t-10 27z" />
    <glyph glyph-name="oslash" unicode="&#xf8;" horiz-adv-x="552" 
d="M476 452l-36 -41q63 -66 63 -181q0 -110 -63 -174.5t-170 -64.5q-94 0 -155 52l-33 -38l-23 21l34 40q-54 63 -54 164q0 114 62.5 180.5t169.5 66.5q86 0 144 -44l36 42zM136 115l238 272q-41 32 -103 32q-77 0 -121.5 -50.5t-44.5 -137.5q0 -69 31 -116zM398 363
l-241 -273q43 -41 113 -41q78 0 123 49t45 133q0 83 -40 132z" />
    <glyph glyph-name="ugrave" unicode="&#xf9;" horiz-adv-x="550" 
d="M340 561l-22 -22q-67 44 -140 108l-1 14l55 36zM406 0v78q-85 -87 -185 -87q-79 0 -115.5 45.5t-36.5 141.5v290h66v-276q0 -73 24 -106.5t82 -33.5q45 0 89 27.5t76 71.5v317h67v-468h-67z" />
    <glyph glyph-name="uacute" unicode="&#xfa;" horiz-adv-x="550" 
d="M371 652l-1 -14q-77 -68 -140 -108l-22 22l109 136zM406 0v78q-85 -87 -185 -87q-79 0 -115.5 45.5t-36.5 141.5v290h66v-276q0 -73 24 -106.5t82 -33.5q45 0 89 27.5t76 71.5v317h67v-468h-67z" />
    <glyph glyph-name="ucircumflex" unicode="&#xfb;" horiz-adv-x="550" 
d="M420 561l-27 -27l-118 91l-118 -91l-27 27l119 118h51zM406 0v78q-85 -87 -185 -87q-79 0 -115.5 45.5t-36.5 141.5v290h66v-276q0 -73 24 -106.5t82 -33.5q45 0 89 27.5t76 71.5v317h67v-468h-67z" />
    <glyph glyph-name="udieresis" unicode="&#xfc;" horiz-adv-x="550" 
d="M183 651q19 0 31 -11.5t12 -30.5t-12 -30t-31 -11q-17 0 -29.5 11t-12.5 30t12.5 30.5t29.5 11.5zM366 651q18 0 30.5 -11.5t12.5 -30.5t-12.5 -30t-30.5 -11q-19 0 -31 11t-12 30t12.5 30.5t30.5 11.5zM406 0v78q-85 -87 -185 -87q-79 0 -115.5 45.5t-36.5 141.5v290h66
v-276q0 -73 24 -106.5t82 -33.5q45 0 89 27.5t76 71.5v317h67v-468h-67z" />
    <glyph glyph-name="yacute" unicode="&#xfd;" horiz-adv-x="495" 
d="M344 652l-1 -14q-77 -68 -140 -108l-22 22l109 136zM410 467h74q-114 -272 -174 -392q-86 -166 -210 -219l-24 57q76 39 123 100l-195 455h70l135 -316l31 -74l34 68.5t36 79.5l29.5 69l36 88z" />
    <glyph glyph-name="thorn" unicode="&#xfe;" horiz-adv-x="559" 
d="M143 643v-241q82 75 182 75q188 0 188 -242q0 -124 -57 -184t-143 -60q-55 0 -92.5 18.5t-77.5 58.5v-233h-67v808h67zM143 338v-208q37 -42 71.5 -62.5t81.5 -20.5q64 0 107.5 46t43.5 142q0 185 -142 185q-85 0 -162 -82z" />
    <glyph glyph-name="ydieresis" unicode="&#xff;" horiz-adv-x="495" 
d="M156 651q19 0 31 -11.5t12 -30.5t-12 -30t-31 -11q-17 0 -29.5 11t-12.5 30t12.5 30.5t29.5 11.5zM339 651q18 0 30.5 -11.5t12.5 -30.5t-12.5 -30t-30.5 -11q-19 0 -31 11t-12 30t12.5 30.5t30.5 11.5zM410 467h74q-114 -272 -174 -392q-86 -166 -210 -219l-24 57
q76 39 123 100l-195 455h70l135 -316l31 -74l34 68.5t36 79.5l29.5 69l36 88z" />
    <glyph glyph-name="Amacron" unicode="&#x100;" horiz-adv-x="648" 
d="M442 698h-234v59h234v-59zM159 161l-69 -161h-74l263 610h91l262 -610h-73l-70 161h-330zM463 224l-114 265q-20 52 -25 72q-5 -20 -25 -72l-114 -265h278z" />
    <glyph glyph-name="amacron" unicode="&#x101;" horiz-adv-x="509" 
d="M371 574h-233v59h233v-59zM100 393l-11 54q108 30 185 30q94 0 130 -45t36 -152v-280h-67v73q-77 -82 -172 -82q-160 0 -160 143q0 148 195 148q90 0 137 -1q0 79 -22 107.5t-87 28.5q-67 0 -164 -24zM373 233l-130 -1q-73 0 -106.5 -20.5t-33.5 -71.5q0 -98 116 -98
q86 0 154 87v104z" />
    <glyph glyph-name="Abreve" unicode="&#x102;" horiz-adv-x="648" 
d="M408 788h51q0 -119 -135 -119q-133 0 -133 119h50q5 -69 83 -69q77 0 84 69zM159 161l-69 -161h-74l263 610h91l262 -610h-73l-70 161h-330zM463 224l-114 265q-20 52 -25 72q-5 -20 -25 -72l-114 -265h278z" />
    <glyph glyph-name="abreve" unicode="&#x103;" horiz-adv-x="509" 
d="M338 659h51q0 -126 -135 -126q-133 0 -133 125h50q5 -76 83 -76t84 77zM100 393l-11 54q108 30 185 30q94 0 130 -45t36 -152v-280h-67v73q-77 -82 -172 -82q-160 0 -160 143q0 148 195 148q90 0 137 -1q0 79 -22 107.5t-87 28.5q-67 0 -164 -24zM373 233l-130 -1
q-73 0 -106.5 -20.5t-33.5 -71.5q0 -98 116 -98q86 0 154 87v104z" />
    <glyph glyph-name="Aogonek" unicode="&#x104;" horiz-adv-x="648" 
d="M621 -121l9 -46q-46 -16 -90 -16q-49 0 -77 24.5t-28 66.5q0 70 109 110l-61 143h-331l-69 -161h-73l262 610h91l262 -610h-30q-102 -29 -102 -77q0 -25 16 -39t46 -14q12 0 66 9zM456 224l-114 265q-16 43 -24 72q-11 -36 -25 -72l-114 -265h277z" />
    <glyph glyph-name="aogonek" unicode="&#x105;" horiz-adv-x="509" 
d="M465 -121l10 -46q-46 -16 -91 -16q-49 0 -77 24.5t-28 69.5q0 68 94 109v53q-77 -82 -172 -82q-160 0 -160 143q0 148 195 148q90 0 137 -1q0 79 -22 107.5t-87 28.5q-67 0 -164 -24l-12 54q110 30 186 30q94 0 130 -45t36 -152v-280h-33q-36 -13 -56.5 -33.5
t-20.5 -43.5q0 -24 19 -38.5t51 -14.5q13 0 65 9zM373 233l-130 -1q-73 0 -106.5 -20.5t-33.5 -71.5q0 -98 116 -98q86 0 154 87v104z" />
    <glyph glyph-name="Cacute" unicode="&#x106;" horiz-adv-x="624" 
d="M458 781l-1 -14q-31 -28 -46 -40.5t-39 -28.5t-54 -32l-22 22l108 129zM554 118l28 -52q-95 -75 -249 -75q-134 0 -208 82t-74 232q0 152 75.5 233.5t216.5 81.5q127 0 214 -52l-23 -52q-86 40 -189 40q-110 0 -167 -64.5t-57 -187.5q0 -118 56.5 -183.5t158.5 -65.5
q130 0 218 63z" />
    <glyph glyph-name="cacute" unicode="&#x107;" horiz-adv-x="496" 
d="M362 652l-1 -14q-77 -68 -140 -108l-22 22l109 136zM433 107l26 -44q-46 -40 -90.5 -56t-107.5 -16q-96 0 -155.5 63t-59.5 176q0 117 62.5 182t163.5 65q95 0 168 -48l-24 -46q-63 37 -143 37q-71 0 -116 -49.5t-45 -140.5q0 -87 43.5 -134t113.5 -47q90 0 164 58z" />
    <glyph glyph-name="Cdotaccent" unicode="&#x10a;" horiz-adv-x="624" 
d="M335 778q20 0 34 -13t14 -35q0 -21 -14 -34t-34 -13q-22 0 -36 13t-14 34q0 23 14 35.5t36 12.5zM554 118l28 -52q-95 -75 -249 -75q-134 0 -208 82t-74 232q0 152 75.5 233.5t216.5 81.5q127 0 214 -52l-23 -52q-86 40 -189 40q-110 0 -167 -64.5t-57 -187.5
q0 -118 56.5 -183.5t158.5 -65.5q130 0 218 63z" />
    <glyph glyph-name="cdotaccent" unicode="&#x10b;" horiz-adv-x="495" 
d="M263 659q20 0 34.5 -13t14.5 -35t-14.5 -34.5t-34.5 -12.5q-22 0 -35.5 12.5t-13.5 34.5t14 35t35 13zM433 107l26 -44q-46 -40 -90.5 -56t-107.5 -16q-96 0 -155.5 63t-59.5 176q0 117 62.5 182t163.5 65q95 0 168 -48l-24 -46q-63 37 -143 37q-71 0 -116 -49.5
t-45 -140.5q0 -87 43.5 -134t113.5 -47q90 0 164 58z" />
    <glyph glyph-name="Ccaron" unicode="&#x10c;" horiz-adv-x="624" 
d="M360 669h-51l-120 112l27 27l119 -84l118 84l27 -27zM554 118l28 -52q-95 -75 -249 -75q-134 0 -208 82t-74 232q0 152 75.5 233.5t216.5 81.5q127 0 214 -52l-23 -52q-86 40 -189 40q-110 0 -167 -64.5t-57 -187.5q0 -118 56.5 -183.5t158.5 -65.5q130 0 218 63z" />
    <glyph glyph-name="ccaron" unicode="&#x10d;" horiz-adv-x="495" 
d="M288 533h-51l-119 118l27 28l118 -91l118 91l27 -28zM433 107l26 -44q-46 -40 -90.5 -56t-107.5 -16q-96 0 -155.5 63t-59.5 176q0 117 62.5 182t163.5 65q95 0 168 -48l-24 -46q-63 37 -143 37q-71 0 -116 -49.5t-45 -140.5q0 -87 43.5 -134t113.5 -47q90 0 164 58z" />
    <glyph glyph-name="Dcaron" unicode="&#x10e;" horiz-adv-x="653" 
d="M331 666h-50l-120 112l27 27l118 -84l119 84l27 -27zM93 610h184q152 0 238 -77t86 -221q0 -153 -85.5 -232.5t-238.5 -79.5h-184v610zM161 64h116q119 0 187 63.5t68 184.5q0 113 -68 173.5t-187 60.5h-116v-482z" />
    <glyph glyph-name="dcaron" unicode="&#x10f;" horiz-adv-x="561" 
d="M601 655v-13q-4 -77 -25 -152h-40l8 165h57zM418 0v71q-39 -41 -77 -60.5t-95 -19.5q-85 0 -142.5 60t-57.5 184q0 242 189 242q108 0 183 -78v256h67v-655h-67zM418 136v196q-70 88 -164 88q-142 0 -142 -185q0 -96 43.5 -142t108.5 -46q48 0 83 22.5t71 66.5z" />
    <glyph glyph-name="Dcroat" unicode="&#x110;" horiz-adv-x="652" 
d="M85 610h184q153 0 239 -77t86 -221q0 -153 -86 -232.5t-239 -79.5h-184v274h-70v55h70v281zM154 64h115q120 0 187.5 63.5t67.5 184.5q0 114 -68 174t-187 60h-115v-217h137v-55h-137v-210z" />
    <glyph glyph-name="dcroat" unicode="&#x111;" horiz-adv-x="562" 
d="M533 528h-55v-528h-66v71q-40 -41 -78 -60.5t-94 -19.5q-86 0 -143 60t-57 184q0 242 188 242q108 0 184 -78v129h-136v51h136v76h66v-76h55v-51zM412 136v196q-70 88 -165 88q-141 0 -141 -185q0 -96 43.5 -142t107.5 -46q48 0 83 22.5t72 66.5z" />
    <glyph glyph-name="Emacron" unicode="&#x112;" horiz-adv-x="565" 
d="M405 698h-233v59h233v-59zM501 0h-408v610h399v-64h-331v-206h290v-64h-290v-212h340v-64z" />
    <glyph glyph-name="emacron" unicode="&#x113;" horiz-adv-x="522" 
d="M377 574h-233v59h233v-59zM438 108l27 -43q-82 -74 -200 -74q-99 0 -159 58.5t-60 180.5q0 125 61.5 186t161.5 61q95 0 149 -57.5t57 -170.5q0 -18 -2 -33h-363q4 -88 46.5 -129.5t110.5 -41.5q94 0 171 63zM112 269h303q-4 77 -42.5 115t-102.5 38t-107 -37t-51 -116z
" />
    <glyph glyph-name="Edotaccent" unicode="&#x116;" horiz-adv-x="565" 
d="M288 776q20 0 34.5 -13t14.5 -35t-14.5 -35t-34.5 -13q-21 0 -35 13t-14 35t14 35t35 13zM501 0h-408v610h399v-64h-331v-206h290v-64h-290v-212h340v-64z" />
    <glyph glyph-name="edotaccent" unicode="&#x117;" horiz-adv-x="522" 
d="M260 659q20 0 34.5 -13t14.5 -35t-14.5 -34.5t-34.5 -12.5q-22 0 -35.5 12.5t-13.5 34.5t14 35t35 13zM438 108l27 -43q-82 -74 -200 -74q-99 0 -159 58.5t-60 180.5q0 125 61.5 186t161.5 61q95 0 149 -57.5t57 -170.5q0 -18 -2 -33h-363q4 -88 46.5 -129.5t110.5 -41.5
q94 0 171 63zM112 269h303q-4 77 -42.5 115t-102.5 38t-107 -37t-51 -116z" />
    <glyph glyph-name="Eogonek" unicode="&#x118;" horiz-adv-x="565" 
d="M498 -121l10 -46q-46 -16 -91 -16q-49 0 -77 24.5t-28 69.5q0 50 57 89h-276v610h399v-64h-331v-206h290v-64h-290v-212h340v-64h-61q-36 -13 -56.5 -33.5t-20.5 -43.5q0 -24 19 -38.5t51 -14.5q13 0 65 9z" />
    <glyph glyph-name="eogonek" unicode="&#x119;" horiz-adv-x="522" 
d="M383 -121l10 -46q-46 -16 -91 -16q-49 0 -77 24.5t-28 69.5t46 81q-90 6 -143.5 65t-53.5 173q0 125 61.5 186t161.5 61q95 0 149 -57.5t57 -170.5q0 -18 -2 -33h-363q4 -88 46.5 -129.5t110.5 -41.5q94 0 171 63l27 -43q-69 -62 -156 -72q-61 -27 -61 -70
q0 -24 19 -38.5t51 -14.5q13 0 65 9zM112 269h303q-4 77 -42.5 115t-102.5 38t-107 -37t-51 -116z" />
    <glyph glyph-name="Ecaron" unicode="&#x11a;" horiz-adv-x="565" 
d="M313 666h-50l-120 112l27 27l118 -84l119 84l27 -27zM501 0h-408v610h399v-64h-331v-206h290v-64h-290v-212h340v-64z" />
    <glyph glyph-name="ecaron" unicode="&#x11b;" horiz-adv-x="522" 
d="M285 533h-51l-119 118l27 28l118 -91l118 91l27 -28zM438 108l27 -43q-82 -74 -200 -74q-99 0 -159 58.5t-60 180.5q0 125 61.5 186t161.5 61q95 0 149 -57.5t57 -170.5q0 -18 -2 -33h-363q4 -88 46.5 -129.5t110.5 -41.5q94 0 171 63zM112 269h303q-4 77 -42.5 115
t-102.5 38t-107 -37t-51 -116z" />
    <glyph glyph-name="Gbreve" unicode="&#x11e;" horiz-adv-x="667" 
d="M413 791h51q0 -118 -135 -118q-133 0 -133 118h51q3 -69 82 -69q77 0 84 69zM605 309v-233q-125 -85 -280 -85q-128 0 -201 82t-73 231t76 232.5t214 83.5q130 0 234 -49l-21 -56q-99 41 -208 41q-108 0 -166.5 -65.5t-58.5 -185.5q0 -121 54.5 -185.5t152.5 -64.5
q127 0 212 58v133h-227v63h292z" />
    <glyph glyph-name="gbreve" unicode="&#x11f;" horiz-adv-x="544" 
d="M356 659h51q0 -126 -135 -126q-133 0 -133 126h50q5 -77 83 -77t84 77zM485 468v-400q0 -114 -54.5 -168.5t-151.5 -54.5q-117 0 -207 53l20 50q84 -43 180 -43q146 0 146 163v33q-38 -42 -77 -61t-97 -19q-87 0 -142.5 53t-55.5 163q0 240 189 240q103 0 183 -77v68h67z
M418 164v168q-77 88 -164 88q-142 0 -142 -183q0 -85 43 -123.5t109 -38.5q47 0 82 22.5t72 66.5z" />
    <glyph glyph-name="Gdotaccent" unicode="&#x120;" horiz-adv-x="667" 
d="M333 776q20 0 34.5 -13t14.5 -35t-14.5 -35t-34.5 -13q-21 0 -35 13t-14 35t14 35t35 13zM605 309v-233q-125 -85 -280 -85q-128 0 -201 82t-73 231t76 232.5t214 83.5q130 0 234 -49l-21 -56q-99 41 -208 41q-108 0 -166.5 -65.5t-58.5 -185.5q0 -121 54.5 -185.5
t152.5 -64.5q127 0 212 58v133h-227v63h292z" />
    <glyph glyph-name="gdotaccent" unicode="&#x121;" horiz-adv-x="544" 
d="M273 659q21 0 35 -13t14 -35q0 -21 -14.5 -34t-34.5 -13q-21 0 -35 13t-14 34q0 23 13.5 35.5t35.5 12.5zM485 468v-400q0 -114 -54.5 -168.5t-151.5 -54.5q-117 0 -207 53l20 50q84 -43 180 -43q146 0 146 163v33q-38 -42 -77 -61t-97 -19q-87 0 -142.5 53t-55.5 163
q0 240 189 240q103 0 183 -77v68h67zM418 164v168q-77 88 -164 88q-142 0 -142 -183q0 -85 43 -123.5t109 -38.5q47 0 82 22.5t72 66.5z" />
    <glyph glyph-name="Gcommaaccent" unicode="&#x122;" horiz-adv-x="667" 
d="M605 309v-233q-125 -85 -280 -85q-128 0 -201 82t-73 231t76 232.5t214 83.5q130 0 234 -49l-21 -56q-99 41 -208 41q-108 0 -166.5 -65.5t-58.5 -185.5q0 -121 54.5 -185.5t152.5 -64.5q127 0 212 58v133h-227v63h292zM302 -223l-14 22q39 39 46 75q-30 8 -30 37
q0 18 11 29t29 11q17 0 27.5 -12.5t10.5 -30.5q0 -35 -20.5 -70t-59.5 -61z" />
    <glyph glyph-name="gcommaaccent" unicode="&#x123;" horiz-adv-x="544" 
d="M305 697l14 -22q-36 -36 -46 -72q14 -2 23 -12.5t9 -24.5q0 -17 -11.5 -28t-28.5 -11q-18 0 -29 12.5t-11 30.5q0 68 80 127zM485 468v-400q0 -114 -54.5 -168.5t-151.5 -54.5q-117 0 -207 53l20 50q84 -43 180 -43q146 0 146 163v33q-38 -42 -77 -61t-97 -19
q-87 0 -142.5 53t-55.5 163q0 240 189 240q103 0 183 -77v68h67zM418 164v168q-77 88 -164 88q-142 0 -142 -183q0 -85 43 -123.5t109 -38.5q47 0 82 22.5t72 66.5z" />
    <glyph glyph-name="Hbar" unicode="&#x126;" horiz-adv-x="676" 
d="M589 457v-457h-68v267h-365v-267h-69v457h-51v56h51v97h69v-97h365v97h68v-97h51v-56h-51zM521 457h-365v-126h365v126z" />
    <glyph glyph-name="hbar" unicode="&#x127;" horiz-adv-x="551" 
d="M136 536v-150q80 91 188 91q80 0 114.5 -44.5t34.5 -140.5v-292h-67v273q0 74 -21 106t-79 32q-95 0 -170 -97v-314h-67v536h-44v37h44v82h67v-82h146v-37h-146z" />
    <glyph glyph-name="Imacron" unicode="&#x12a;" horiz-adv-x="254" 
d="M244 698h-233v59h233v-59zM161 0h-68v610h68v-610z" />
    <glyph glyph-name="imacron" unicode="&#x12b;" horiz-adv-x="223" 
d="M228 574h-233v59h233v-59zM145 0h-67v468h67v-468z" />
    <glyph glyph-name="Iogonek" unicode="&#x12e;" horiz-adv-x="254" 
d="M197 -121l9 -46q-45 -16 -91 -16q-49 0 -77 24.5t-28 69.5q0 62 83 104v595h68v-610h-23q-36 -13 -56.5 -33.5t-20.5 -43.5q0 -24 19 -38.5t51 -14.5q14 0 66 9z" />
    <glyph glyph-name="iogonek" unicode="&#x12f;" horiz-adv-x="223" 
d="M112 564q-22 0 -36 12.5t-14 34.5t14 35t36 13q20 0 34 -13t14 -35t-14 -34.5t-34 -12.5zM184 -121l10 -46q-46 -16 -91 -16q-50 0 -77.5 24.5t-27.5 69.5q0 61 80 103v454h67v-468h-19q-36 -13 -57 -33.5t-21 -43.5q0 -24 19.5 -38.5t51.5 -14.5q13 0 65 9z" />
    <glyph glyph-name="Idotaccent" unicode="&#x130;" horiz-adv-x="254" 
d="M127 776q21 0 35 -13t14 -35t-14 -35t-35 -13t-35 13t-14 35t14 35t35 13zM161 0h-68v610h68v-610z" />
    <glyph glyph-name="dotlessi" unicode="&#x131;" horiz-adv-x="223" 
d="M145 0h-67v468h67v-468z" />
    <glyph glyph-name="IJ" unicode="&#x132;" horiz-adv-x="724" 
d="M161 0h-68v610h68v-610zM637 610v-409q0 -99 -48.5 -154.5t-133.5 -55.5q-87 0 -185 51l21 55q85 -39 151 -39q60 0 93.5 37t33.5 106v409h68z" />
    <glyph glyph-name="ij" unicode="&#x133;" horiz-adv-x="427" 
d="M70 605q0 18 12 28.5t30 10.5t30 -10.5t12 -28.5q0 -19 -12 -29.5t-30 -10.5t-30 10.5t-12 29.5zM314 565q-18 0 -30 10.5t-12 29.5q0 18 12 28.5t30 10.5t30 -10.5t12 -28.5q0 -19 -12 -29.5t-30 -10.5zM145 0h-67v468h67v-468zM348 468v-449q0 -83 -23.5 -126
t-83.5 -60l-16 53q33 16 44.5 44t11.5 89v449h67z" />
    <glyph glyph-name="Kcommaaccent" unicode="&#x136;" horiz-adv-x="632" 
d="M300 302l-139 -147v-155h-68v610h68v-358l343 358h81v-5l-240 -253l260 -347v-5h-76zM277 -223l-14 22q39 39 46 75q-30 8 -30 37q0 18 11 29t29 11q17 0 27.5 -12.5t10.5 -30.5q0 -35 -20.5 -70t-59.5 -61z" />
    <glyph glyph-name="kcommaaccent" unicode="&#x137;" horiz-adv-x="513" 
d="M476 468v-5l-188 -182l220 -276v-5h-79l-190 232l-96 -93v-139h-67v655h67v-428l251 241h82zM231 -223l-13 22q39 39 46 75q-30 8 -30 37q0 18 11 29t29 11q17 0 27.5 -12.5t10.5 -30.5q0 -35 -21 -70t-60 -61z" />
    <glyph glyph-name="Lacute" unicode="&#x139;" horiz-adv-x="502" 
d="M254 779l-1 -14q-77 -68 -139 -102l-22 22l108 130zM469 0h-376v610h68v-545h308v-65z" />
    <glyph glyph-name="lacute" unicode="&#x13a;" horiz-adv-x="219" 
d="M236 840l-1 -14q-77 -68 -140 -108l-22 21l109 137zM143 0h-67v655h67v-655z" />
    <glyph glyph-name="Lcommaaccent" unicode="&#x13b;" horiz-adv-x="502" 
d="M470 0h-377v610h68v-545h309v-65zM234 -223l-13 22q39 39 46 75q-30 8 -30 37q0 18 10.5 29t28.5 11t28.5 -12.5t10.5 -30.5q0 -35 -21 -70t-60 -61z" />
    <glyph glyph-name="lcommaaccent" unicode="&#x13c;" horiz-adv-x="219" 
d="M143 0h-67v655h67v-655zM71 -223l-13 22q39 39 46 75q-30 8 -30 37q0 18 10.5 29t28.5 11t28.5 -12.5t10.5 -30.5q0 -35 -21 -70t-60 -61z" />
    <glyph glyph-name="Lcaron" unicode="&#x13d;" horiz-adv-x="502" 
d="M363 610v-13q-6 -85 -25 -152h-40l7 165h58zM470 0h-377v610h68v-545h309v-65z" />
    <glyph glyph-name="lcaron" unicode="&#x13e;" horiz-adv-x="223" 
d="M254 655v-13q-4 -77 -25 -152h-39l7 165h57zM143 0h-67v655h67v-655z" />
    <glyph glyph-name="Ldot" unicode="&#x13f;" horiz-adv-x="502" 
d="M470 0h-377v610h68v-545h309v-65zM292 305q0 19 12 31t31 12t31 -12t12 -31t-12 -31t-31 -12t-31 12t-12 31z" />
    <glyph glyph-name="ldot" unicode="&#x140;" horiz-adv-x="293" 
d="M143 0h-67v655h67v-655zM197 326q0 19 12 31t31 12t30.5 -12t11.5 -31t-11.5 -31t-30.5 -12t-31 12t-12 31z" />
    <glyph glyph-name="Lslash" unicode="&#x141;" horiz-adv-x="505" 
d="M462 65v-65h-377v270l-60 -20v55l60 20v285h69v-263l167 56v-56l-167 -55v-227h308z" />
    <glyph glyph-name="lslash" unicode="&#x142;" horiz-adv-x="223" 
d="M203 349l-63 -27v-322h-66v293l-49 -21v56l49 21v306h66v-278l63 27v-55z" />
    <glyph glyph-name="Nacute" unicode="&#x143;" horiz-adv-x="692" 
d="M469 779l-1 -14q-43 -39 -69.5 -59t-69.5 -43l-22 22l108 130zM599 0h-63l-375 493v-493h-68v610h62l376 -495v17v478h68v-610z" />
    <glyph glyph-name="nacute" unicode="&#x144;" horiz-adv-x="552" 
d="M379 652l-1 -14q-74 -67 -139 -108l-22 22l108 136zM143 468v-78q80 86 182 86q81 0 118 -44.5t37 -139.5v-292h-67v277q0 74 -21 105.5t-79 31.5q-96 0 -170 -95v-319h-67v468h67z" />
    <glyph glyph-name="Ncommaaccent" unicode="&#x145;" horiz-adv-x="692" 
d="M599 0h-63l-375 493v-493h-68v610h62l376 -495v17v478h68v-610zM300 -223l-14 22q39 39 46 75q-30 8 -30 37q0 18 11 29t29 11q17 0 27.5 -12.5t10.5 -30.5q0 -35 -20.5 -70t-59.5 -61z" />
    <glyph glyph-name="ncommaaccent" unicode="&#x146;" horiz-adv-x="552" 
d="M143 468v-78q80 86 182 86q81 0 118 -44.5t37 -139.5v-292h-67v277q0 74 -21 105.5t-79 31.5q-96 0 -170 -95v-319h-67v468h67zM237 -223l-13 22q39 39 46 75q-30 8 -30 37q0 18 11 29t29 11q17 0 27.5 -12.5t10.5 -30.5q0 -35 -21 -70t-60 -61z" />
    <glyph glyph-name="Ncaron" unicode="&#x147;" horiz-adv-x="692" 
d="M371 666h-50l-120 112l27 27l118 -84l119 84l27 -27zM599 0h-63l-375 493v-493h-68v610h62l376 -495v17v478h68v-610z" />
    <glyph glyph-name="ncaron" unicode="&#x148;" horiz-adv-x="552" 
d="M309 533h-51l-120 118l27 28l119 -91l118 91l27 -28zM143 468v-78q80 86 182 86q81 0 118 -44.5t37 -139.5v-292h-67v277q0 74 -21 105.5t-79 31.5q-96 0 -170 -95v-319h-67v468h67z" />
    <glyph glyph-name="Omacron" unicode="&#x14c;" horiz-adv-x="671" 
d="M452 698h-233v59h233v-59zM336 620q135 0 209.5 -82t74.5 -234q0 -150 -74.5 -231.5t-209.5 -81.5q-136 0 -210.5 81.5t-74.5 231.5q0 152 74.5 234t210.5 82zM335 55q104 0 159.5 64t55.5 185q0 123 -55.5 187.5t-159.5 64.5q-103 0 -158.5 -64.5t-55.5 -187.5
q0 -121 55.5 -185t158.5 -64z" />
    <glyph glyph-name="omacron" unicode="&#x14d;" horiz-adv-x="556" 
d="M395 574h-233v59h233v-59zM278 477q107 0 169.5 -66.5t62.5 -180.5q0 -110 -63 -174.5t-170 -64.5q-106 0 -168.5 65t-62.5 174q0 114 62.5 180.5t169.5 66.5zM277 49q78 0 123 49t45 133q0 87 -45 137.5t-122 50.5t-121.5 -50.5t-44.5 -137.5q0 -84 44.5 -133t120.5 -49
z" />
    <glyph glyph-name="Ohungarumlaut" unicode="&#x150;" horiz-adv-x="671" 
d="M396 789l-1 -15q-72 -69 -122 -106l-30 16l101 131zM524 789l-1 -15q-76 -71 -123 -106l-29 16l101 131zM335 620q136 0 210.5 -82t74.5 -234q0 -150 -74.5 -231.5t-210.5 -81.5q-135 0 -209.5 81.5t-74.5 231.5q0 152 74.5 234t209.5 82zM335 55q104 0 159.5 64
t55.5 185q0 123 -55.5 187.5t-159.5 64.5q-103 0 -158.5 -64.5t-55.5 -187.5q0 -121 55.5 -185t158.5 -64z" />
    <glyph glyph-name="ohungarumlaut" unicode="&#x151;" horiz-adv-x="556" 
d="M461 669l-1 -15l-122 -112l-30 15l102 139zM333 669v-15l-123 -113l-29 16l101 138zM278 477q107 0 169.5 -66.5t62.5 -180.5q0 -110 -63 -174.5t-170 -64.5q-106 0 -168.5 65t-62.5 174q0 114 62.5 180.5t169.5 66.5zM277 49q78 0 123 49t45 133q0 87 -45 137.5
t-122 50.5t-121.5 -50.5t-44.5 -137.5q0 -84 44.5 -133t120.5 -49z" />
    <glyph glyph-name="OE" unicode="&#x152;" horiz-adv-x="960" 
d="M889 64v-64h-408v30q-58 -39 -145 -39q-136 0 -210.5 81.5t-74.5 231.5q0 152 74.5 234t210.5 82q85 0 145 -40v30h399v-64h-331v-206h290v-64h-290v-212h340zM481 104v403q-52 49 -146 49q-103 0 -158.5 -64.5t-55.5 -187.5q0 -121 55.5 -185t158.5 -64q94 0 146 49z
" />
    <glyph glyph-name="oe" unicode="&#x153;" horiz-adv-x="921" 
d="M503 216v-5q5 -87 47.5 -126.5t109.5 -39.5q93 0 171 63l26 -43q-81 -74 -200 -74q-135 0 -189 101q-60 -101 -197 -101q-106 0 -168.5 64.5t-62.5 174.5q0 114 62.5 180.5t168.5 66.5q138 0 198 -105q56 105 193 105q94 0 148 -57.5t57 -170.5q0 -18 -2 -33h-362z
M504 269h304q-4 77 -42.5 115t-103.5 38q-64 0 -107 -37t-51 -116zM271 49q77 0 122 49t45 133q0 87 -44.5 137.5t-121.5 50.5t-122 -50.5t-45 -137.5q0 -84 44.5 -133t121.5 -49z" />
    <glyph glyph-name="Racute" unicode="&#x154;" horiz-adv-x="594" 
d="M416 779l-1 -14q-77 -68 -139 -102l-22 22l108 130zM568 6v-6h-75l-175 208h-157v-208h-68v610h216q120 0 182 -51.5t62 -150.5q0 -73 -44.5 -124.5t-118.5 -68.5zM161 272h156q76 0 121.5 36.5t45.5 99.5q0 136 -174 138h-149v-274z" />
    <glyph glyph-name="racute" unicode="&#x155;" horiz-adv-x="369" 
d="M279 652l-1 -14q-74 -67 -139 -108l-22 22l108 136zM143 468v-98q17 47 57 76.5t89 29.5q33 0 60 -3l-5 -65q-24 2 -57 2q-49 0 -87 -32.5t-57 -94.5v-283h-67v468h67z" />
    <glyph glyph-name="Rcommaaccent" unicode="&#x156;" horiz-adv-x="594" 
d="M568 6v-6h-75l-175 208h-157v-208h-68v610h216q120 0 182 -51.5t62 -150.5q0 -73 -44.5 -124.5t-118.5 -68.5zM161 272h156q76 0 121.5 36.5t45.5 99.5q0 136 -174 138h-149v-274zM268 -223l-14 22q39 39 46 75q-30 8 -30 37q0 18 11 29t29 11q17 0 27.5 -12.5
t10.5 -30.5q0 -35 -20.5 -70t-59.5 -61z" />
    <glyph glyph-name="rcommaaccent" unicode="&#x157;" horiz-adv-x="369" 
d="M143 468v-98q17 47 57 76.5t89 29.5q33 0 60 -3l-5 -65q-24 2 -57 2q-49 0 -87 -32.5t-57 -94.5v-283h-67v468h67zM70 -223l-14 22q39 39 46 75q-30 8 -30 37q0 18 11 29t29 11q17 0 27.5 -12.5t10.5 -30.5q0 -35 -20.5 -70t-59.5 -61z" />
    <glyph glyph-name="Rcaron" unicode="&#x158;" horiz-adv-x="594" 
d="M267 666l-119 112l27 27l118 -84l118 84l27 -27l-120 -112h-51zM568 6v-6h-75l-175 208h-157v-208h-68v610h216q120 0 182 -51.5t62 -150.5q0 -73 -44.5 -124.5t-118.5 -68.5zM161 272h156q76 0 121.5 36.5t45.5 99.5q0 136 -174 138h-149v-274z" />
    <glyph glyph-name="rcaron" unicode="&#x159;" horiz-adv-x="369" 
d="M215 533h-51l-120 118l27 28l119 -91l118 91l27 -28zM143 468v-98q17 47 57 76.5t89 29.5q33 0 60 -3l-5 -65q-24 2 -57 2q-49 0 -87 -32.5t-57 -94.5v-283h-67v468h67z" />
    <glyph glyph-name="Sacute" unicode="&#x15a;" horiz-adv-x="548" 
d="M391 779l-1 -14q-31 -28 -46 -40.5t-39.5 -29t-54.5 -32.5l-22 22l109 130zM473 571l-22 -55q-97 43 -199 43q-53 0 -85.5 -26.5t-32.5 -62.5q0 -51 33 -72.5t138 -56.5q101 -34 144.5 -72t43.5 -110q0 -84 -55.5 -126t-140.5 -42q-68 0 -138.5 23t-123.5 63l28 52
q116 -75 231 -75q62 0 95.5 25t33.5 71q0 52 -34.5 78.5t-138.5 59.5q-51 16 -78.5 27.5t-56 31.5t-40 48t-11.5 69q0 70 51.5 113t137.5 43q113 0 220 -49z" />
    <glyph glyph-name="sacute" unicode="&#x15b;" horiz-adv-x="439" 
d="M313 653l-1 -14q-74 -67 -139 -108l-22 22l108 136zM379 436l-18 -50q-90 37 -155 37q-44 0 -68 -18t-24 -52q0 -22 16.5 -37.5t34 -22t66.5 -22.5q95 -31 130 -60.5t35 -90.5q0 -63 -44.5 -96t-118.5 -33q-117 0 -204 73l29 47q78 -64 174 -64q101 0 101 72q0 41 -26 58
t-110 43q-81 26 -113 52.5t-32 78.5q0 61 40.5 94t114.5 33q81 0 172 -42z" />
    <glyph glyph-name="Scedilla" unicode="&#x15e;" horiz-adv-x="548" 
d="M473 571l-22 -55q-97 43 -199 43q-53 0 -85.5 -26.5t-32.5 -62.5q0 -51 33 -72.5t138 -56.5q101 -34 144.5 -72t43.5 -110q0 -84 -55.5 -126t-140.5 -42q-20 0 -30 1l-2 -28q55 -1 77 -19t22 -62q0 -42 -26 -64.5t-71 -22.5q-39 0 -90 15l9 40q40 -8 68 -8q63 0 63 40
q0 25 -16 33.5t-58 8.5h-33l16 72q-108 19 -191 80l28 52q116 -75 231 -75q62 0 95.5 25t33.5 71q0 52 -34.5 78.5t-138.5 59.5q-51 16 -78.5 27.5t-56 31.5t-40 48t-11.5 69q0 70 51.5 113t137.5 43q113 0 220 -49z" />
    <glyph glyph-name="scedilla" unicode="&#x15f;" horiz-adv-x="439" 
d="M379 436l-18 -50q-90 37 -155 37q-44 0 -68 -18t-24 -52q0 -22 16.5 -37.5t34 -22t66.5 -22.5q95 -31 130 -60.5t35 -90.5q0 -63 -44.5 -96t-118.5 -33h-10l-2 -27q55 -1 77 -19t22 -62q0 -42 -26 -64.5t-71 -22.5q-39 0 -90 15l9 40q40 -8 68 -8q63 0 63 40
q0 25 -16 33.5t-58 8.5h-33l16 70q-89 16 -153 69l29 47q78 -64 174 -64q101 0 101 72q0 41 -26 58t-110 43q-81 26 -113 52.5t-32 78.5q0 61 40.5 94t114.5 33q81 0 172 -42z" />
    <glyph glyph-name="Scaron" unicode="&#x160;" horiz-adv-x="548" 
d="M293 666h-51l-120 112l27 27l118 -84l119 84l27 -27zM473 571l-22 -55q-97 43 -199 43q-53 0 -85.5 -26.5t-32.5 -62.5q0 -51 33 -72.5t138 -56.5q101 -34 144.5 -72t43.5 -110q0 -84 -55.5 -126t-140.5 -42q-68 0 -138.5 23t-123.5 63l28 52q116 -75 231 -75
q62 0 95.5 25t33.5 71q0 52 -34.5 78.5t-138.5 59.5q-51 16 -78.5 27.5t-56 31.5t-40 48t-11.5 69q0 70 51.5 113t137.5 43q113 0 220 -49z" />
    <glyph glyph-name="scaron" unicode="&#x161;" horiz-adv-x="439" 
d="M243 534h-51l-120 118l27 28l119 -91l118 91l27 -28zM379 436l-18 -50q-90 37 -155 37q-44 0 -68 -18t-24 -52q0 -22 16.5 -37.5t34 -22t66.5 -22.5q95 -31 130 -60.5t35 -90.5q0 -63 -44.5 -96t-118.5 -33q-117 0 -204 73l29 47q78 -64 174 -64q101 0 101 72
q0 41 -26 58t-110 43q-81 26 -113 52.5t-32 78.5q0 61 40.5 94t114.5 33q81 0 172 -42z" />
    <glyph glyph-name="Tcaron" unicode="&#x164;" horiz-adv-x="535" 
d="M293 666h-50l-120 112l27 27l118 -84l119 84l27 -27zM523 546h-221v-546h-69v546h-220v64h510v-64z" />
    <glyph glyph-name="tcaron" unicode="&#x165;" horiz-adv-x="352" 
d="M278 672v-13q-6 -83 -25 -152h-40l7 165h58zM319 65l8 -50q-61 -18 -100 -18q-72 0 -103 35t-31 114v265h-73v57h73v122h66v-122h147v-57h-147v-263q0 -52 20.5 -70.5t67.5 -18.5q34 0 72 6z" />
    <glyph glyph-name="Umacron" unicode="&#x16a;" horiz-adv-x="664" 
d="M449 698h-234v59h234v-59zM586 610v-337q0 -135 -66 -208.5t-188 -73.5t-188 73.5t-66 209.5v336h68v-336q0 -105 48.5 -161.5t137.5 -56.5t137.5 56.5t48.5 161.5v336h68z" />
    <glyph glyph-name="umacron" unicode="&#x16b;" horiz-adv-x="550" 
d="M392 574h-234v59h234v-59zM406 0v78q-85 -87 -185 -87q-79 0 -115.5 45.5t-36.5 141.5v290h66v-276q0 -73 24 -106.5t82 -33.5q45 0 89 27.5t76 71.5v317h67v-468h-67z" />
    <glyph glyph-name="Uring" unicode="&#x16e;" horiz-adv-x="664" 
d="M332 841q42 0 67.5 -25.5t25.5 -68.5q0 -39 -26 -63.5t-68 -24.5q-41 0 -66.5 24.5t-25.5 63.5q0 43 25.5 68.5t67.5 25.5zM331 699q24 0 38.5 13t14.5 35q0 25 -14.5 39.5t-37.5 14.5t-37.5 -14.5t-14.5 -39.5q0 -22 14 -35t37 -13zM586 610v-337q0 -135 -66 -208.5
t-188 -73.5t-188 73.5t-66 209.5v336h68v-336q0 -105 48.5 -161.5t137.5 -56.5t137.5 56.5t48.5 161.5v336h68z" />
    <glyph glyph-name="uring" unicode="&#x16f;" horiz-adv-x="550" 
d="M275 709q41 0 67 -25.5t26 -67.5q0 -39 -26 -64t-68 -25q-40 0 -66 25t-26 64q0 42 26 67.5t67 25.5zM274 568q24 0 38.5 13t14.5 35q0 25 -14.5 39.5t-37.5 14.5t-37.5 -14.5t-14.5 -39.5q0 -22 14 -35t37 -13zM406 0v78q-85 -87 -185 -87q-79 0 -115.5 45.5
t-36.5 141.5v290h66v-276q0 -73 24 -106.5t82 -33.5q45 0 89 27.5t76 71.5v317h67v-468h-67z" />
    <glyph glyph-name="Uhungarumlaut" unicode="&#x170;" horiz-adv-x="663" 
d="M379 789v-15q-76 -71 -123 -106l-29 16l101 131zM507 789l-1 -15q-80 -75 -123 -106l-29 16l102 131zM586 610v-337q0 -135 -66 -208.5t-188 -73.5t-188 73.5t-66 209.5v336h68v-336q0 -105 48.5 -161.5t137.5 -56.5t137.5 56.5t48.5 161.5v336h68z" />
    <glyph glyph-name="uhungarumlaut" unicode="&#x171;" horiz-adv-x="550" 
d="M458 669l-1 -15l-122 -113l-30 16l102 138zM330 669v-15l-123 -113l-29 16l101 138zM406 0v78q-85 -87 -185 -87q-79 0 -115.5 45.5t-36.5 141.5v290h66v-276q0 -73 24 -106.5t82 -33.5q45 0 89 27.5t76 71.5v317h67v-468h-67z" />
    <glyph glyph-name="Uogonek" unicode="&#x172;" horiz-adv-x="664" 
d="M586 610v-337q0 -131 -62 -204t-178 -78q-57 -27 -57 -68q0 -24 19.5 -38.5t51.5 -14.5q13 0 65 9l10 -46q-46 -16 -91 -16q-50 0 -77.5 24.5t-27.5 69.5q0 46 48 83q-101 13 -155 85t-54 195v336h68v-336q0 -105 48.5 -161.5t137.5 -56.5t137.5 56.5t48.5 161.5v336h68z
" />
    <glyph glyph-name="uogonek" unicode="&#x173;" horiz-adv-x="550" 
d="M498 -121l10 -46q-46 -16 -91 -16q-49 0 -77 24.5t-28 69.5q0 68 94 109v58q-85 -87 -185 -87q-79 0 -115.5 45.5t-36.5 141.5v290h66v-276q0 -73 24 -106.5t82 -33.5q45 0 89 27.5t76 71.5v317h67v-468h-33q-36 -13 -56.5 -33.5t-20.5 -43.5q0 -24 19 -38.5t51 -14.5
q13 0 65 9z" />
    <glyph glyph-name="Wcircumflex" unicode="&#x174;" horiz-adv-x="879" 
d="M440 742l-119 -85l-27 27l120 112h51l120 -112l-27 -27zM683 0h-98l-131 446q-7 25 -14 63q-6 -36 -14 -63l-131 -446h-98l-180 610h76l135 -470q8 -28 16 -77q3 14 10 42t9 35l138 470h77l138 -470q13 -45 19 -77q5 31 16 77l135 470h77z" />
    <glyph glyph-name="wcircumflex" unicode="&#x175;" horiz-adv-x="715" 
d="M504 561l-28 -27l-118 91l-118 -91l-27 27l120 118h50zM547 0h-79l-110 358l-110 -358h-80l-158 468h65l114 -331q11 -32 19 -65q11 44 18 65l100 331h64l99 -331q4 -13 10 -36t8 -29q2 9 5 19.5t7.5 24t6.5 21.5l114 331h65z" />
    <glyph glyph-name="Ycircumflex" unicode="&#x176;" horiz-adv-x="560" 
d="M281 742l-119 -85l-27 27l120 112h51l120 -112l-27 -27zM314 210v-210h-68v210l-227 400h70l173 -294q9 -16 18 -42q8 24 19 42l172 294h71z" />
    <glyph glyph-name="ycircumflex" unicode="&#x177;" horiz-adv-x="495" 
d="M393 561l-27 -27l-118 91l-118 -91l-27 27l119 118h51zM410 467h74q-114 -272 -174 -392q-86 -166 -210 -219l-24 57q76 39 123 100l-195 454h70l135 -315l31 -74l34 68.5t36 79.5l29.5 69l36 88z" />
    <glyph glyph-name="Ydieresis" unicode="&#x178;" horiz-adv-x="560" 
d="M189 770q19 0 31 -11.5t12 -30.5t-12 -30t-31 -11q-17 0 -29.5 11t-12.5 30t12.5 30.5t29.5 11.5zM372 770q18 0 30 -11.5t12 -30.5t-12 -30t-30 -11q-19 0 -31 11t-12 30t12 30.5t31 11.5zM314 210v-210h-68v210l-227 400h70l173 -294q9 -16 18 -42q8 24 19 42l172 294
h71z" />
    <glyph glyph-name="Zacute" unicode="&#x179;" horiz-adv-x="582" 
d="M414 779l-1 -14q-43 -39 -69.5 -59t-69.5 -43l-22 22l108 130zM538 0h-486v54l394 494q-58 -2 -89 -2h-288v64h464v-56l-385 -492q56 2 85 2h305v-64z" />
    <glyph glyph-name="zacute" unicode="&#x17a;" horiz-adv-x="490" 
d="M341 652l-1 -14q-77 -68 -139 -108l-22 22l108 136zM451 0h-412v45l319 369q-60 -3 -84 -3h-229v57h398v-44l-313 -370q48 2 85 2h236v-56z" />
    <glyph glyph-name="Zdotaccent" unicode="&#x17b;" horiz-adv-x="582" 
d="M291 776q20 0 34.5 -13t14.5 -35t-14.5 -35t-34.5 -13q-21 0 -35 13t-14 35t14 35t35 13zM538 0h-486v54l394 494q-58 -2 -89 -2h-288v64h464v-56l-385 -492q56 2 85 2h305v-64z" />
    <glyph glyph-name="zdotaccent" unicode="&#x17c;" horiz-adv-x="490" 
d="M245 659q20 0 34.5 -13t14.5 -35t-14.5 -34.5t-34.5 -12.5q-22 0 -35.5 12.5t-13.5 34.5t14 35t35 13zM451 0h-412v45l319 369q-60 -3 -84 -3h-229v57h398v-44l-313 -370q48 2 85 2h236v-56z" />
    <glyph glyph-name="Zcaron" unicode="&#x17d;" horiz-adv-x="582" 
d="M316 666h-50l-120 112l27 27l118 -84l119 84l27 -27zM538 0h-486v54l394 494q-58 -2 -89 -2h-288v64h464v-56l-385 -492q56 2 85 2h305v-64z" />
    <glyph glyph-name="zcaron" unicode="&#x17e;" horiz-adv-x="490" 
d="M270 533h-51l-119 118l27 28l118 -91l119 91l27 -28zM451 0h-412v45l319 369q-60 -3 -84 -3h-229v57h398v-44l-313 -370q48 2 85 2h236v-56z" />
    <glyph glyph-name="florin" unicode="&#x192;" horiz-adv-x="544" 
d="M526 495l-22 -42q-66 41 -144 41q-138 0 -177 -200l-9 -42h242l-10 -46h-241l-40 -206h-66l41 206h-65l9 46h65l8 42q26 133 84 193.5t152 60.5q99 0 173 -53z" />
    <glyph glyph-name="Acaron" unicode="&#x1cd;" horiz-adv-x="648" 
d="M350 666h-51l-119 112l27 27l118 -84l118 84l27 -27zM159 161l-69 -161h-74l263 610h91l262 -610h-73l-70 161h-330zM463 224l-114 265q-20 52 -25 72q-5 -20 -25 -72l-114 -265h278z" />
    <glyph glyph-name="Scommaaccent" unicode="&#x218;" horiz-adv-x="555" 
d="M473 571l-22 -55q-97 43 -199 43q-53 0 -85.5 -26.5t-32.5 -62.5q0 -51 33 -72.5t138 -56.5q101 -34 144.5 -72t43.5 -110q0 -84 -55.5 -126t-140.5 -42q-68 0 -138.5 23t-123.5 63l28 52q116 -75 231 -75q62 0 95.5 25t33.5 71q0 52 -34.5 78.5t-138.5 59.5
q-51 16 -78.5 27.5t-56 31.5t-40 48t-11.5 69q0 70 51.5 113t137.5 43q113 0 220 -49zM227 -223l-13 22q39 39 46 75q-30 8 -30 37q0 18 10.5 29t28.5 11t28.5 -12.5t10.5 -30.5q0 -35 -21 -70t-60 -61z" />
    <glyph glyph-name="scommaaccent" unicode="&#x219;" horiz-adv-x="439" 
d="M379 436l-18 -50q-90 37 -155 37q-44 0 -68 -18t-24 -52q0 -22 16.5 -37.5t34 -22t66.5 -22.5q95 -31 130 -60.5t35 -90.5q0 -63 -44.5 -96t-118.5 -33q-117 0 -204 73l29 47q78 -64 174 -64q101 0 101 72q0 41 -26 58t-110 43q-81 26 -113 52.5t-32 78.5q0 61 40.5 94
t114.5 33q81 0 172 -42zM178 -223l-13 22q39 39 46 75q-30 8 -30 37q0 18 11 29t29 11q17 0 27.5 -12.5t10.5 -30.5q0 -35 -21 -70t-60 -61z" />
    <glyph glyph-name="uni021A" unicode="&#x21a;" horiz-adv-x="535" 
d="M523 546h-221v-546h-69v546h-220v64h510v-64zM229 -223l-13 22q39 39 46 75q-30 8 -30 37q0 18 11 29t29 11q17 0 27.5 -12.5t10.5 -30.5q0 -35 -21 -70t-60 -61z" />
    <glyph glyph-name="uni021B" unicode="&#x21b;" horiz-adv-x="352" 
d="M319 65l8 -50q-61 -18 -100 -18q-72 0 -103 35t-31 114v265h-73v57h73v122h66v-122h147v-57h-147v-263q0 -52 20.5 -70.5t67.5 -18.5q34 0 72 6zM144 -216l-14 22q39 39 46 76q-30 8 -30 37q0 17 11 28t29 11q17 0 27.5 -12.5t10.5 -30.5q0 -35 -20.5 -70t-59.5 -61z" />
    <glyph glyph-name="circumflex" unicode="&#x2c6;" 
d="M388 561l-27 -27l-118 91l-119 -91l-27 27l120 118h51z" />
    <glyph glyph-name="caron" unicode="&#x2c7;" 
d="M268 533h-51l-120 118l27 28l119 -91l118 91l27 -28z" />
    <glyph glyph-name="breve" unicode="&#x2d8;" 
d="M326 659h51q0 -126 -135 -126q-133 0 -133 125h50q5 -76 83 -76t84 77z" />
    <glyph glyph-name="dotaccent" unicode="&#x2d9;" 
d="M243 659q20 0 34 -13t14 -35t-14 -34.5t-34 -12.5q-22 0 -36 12.5t-14 34.5t14 35t36 13z" />
    <glyph glyph-name="ring" unicode="&#x2da;" 
d="M243 709q41 0 67 -25.5t26 -67.5q0 -39 -26.5 -64t-67.5 -25q-40 0 -66 25t-26 64q0 42 26 67.5t67 25.5zM242 568q24 0 38.5 13t14.5 35q0 25 -14.5 39.5t-37.5 14.5q-24 0 -38 -14.5t-14 -39.5q0 -22 14 -35t37 -13z" />
    <glyph glyph-name="ogonek" unicode="&#x2db;" 
d="M309 -121l10 -46q-46 -16 -91 -16q-50 0 -77.5 24.5t-27.5 69.5q0 37 32 68.5t86 50.5l25 -25q-42 -12 -67.5 -34.5t-25.5 -47.5q0 -24 19.5 -38.5t51.5 -14.5q13 0 65 9z" />
    <glyph glyph-name="tilde" unicode="&#x2dc;" 
d="M358 664l37 -10q-14 -57 -55 -77t-80 3l-55 28q-53 27 -77 -31l-37 10q14 56 53.5 73.5t80.5 -4.5l55 -26q29 -14 47.5 -5.5t30.5 39.5z" />
    <glyph glyph-name="hungarumlaut" unicode="&#x2dd;" 
d="M411 669l-1 -15l-123 -113l-29 16l102 138zM283 669v-15l-123 -113l-29 16l101 138z" />
    <glyph glyph-name="commaturnedabovecomb" unicode="&#x312;" horiz-adv-x="0" 
d="M262 697l14 -22q-36 -34 -46 -72q14 -2 22.5 -12.5t8.5 -24.5q0 -17 -11 -28t-29 -11t-28.5 12.5t-10.5 30.5q0 69 80 127z" />
    <glyph glyph-name="commaaccentcomb" unicode="&#x326;" horiz-adv-x="0" 
d="M197 -223l-13 22q39 39 46 75q-30 8 -30 37q0 18 10.5 29t28.5 11t28.5 -12.5t10.5 -30.5q0 -35 -21 -70t-60 -61z" />
    <glyph glyph-name="Wgrave" unicode="&#x1e80;" horiz-adv-x="879" 
d="M476 678l-22 -22q-43 24 -69.5 43.5t-69.5 57.5l-1 14l55 36zM683 0h-98l-131 446q-7 25 -14 63q-6 -36 -14 -63l-131 -446h-98l-180 610h76l135 -470q8 -28 16 -77q3 14 10 42t9 35l138 470h77l138 -470q13 -45 19 -77q5 31 16 77l135 470h77z" />
    <glyph glyph-name="wgrave" unicode="&#x1e81;" horiz-adv-x="715" 
d="M406 561l-22 -22q-69 45 -139 108l-1 14l54 36zM547 0h-79l-110 358l-110 -358h-80l-158 468h65l114 -331q11 -32 19 -65q11 44 18 65l100 331h64l99 -331q4 -13 10 -36t8 -29q2 9 5 19.5t7.5 24t6.5 21.5l114 331h65z" />
    <glyph glyph-name="Wacute" unicode="&#x1e82;" horiz-adv-x="879" 
d="M563 779l-1 -14q-77 -68 -139 -102l-22 22l108 130zM683 0h-98l-131 446q-7 25 -14 63q-6 -36 -14 -63l-131 -446h-98l-180 610h76l135 -470q8 -28 16 -77q3 14 10 42t9 35l138 470h77l138 -470q13 -45 19 -77q5 31 16 77l135 470h77z" />
    <glyph glyph-name="wacute" unicode="&#x1e83;" horiz-adv-x="715" 
d="M464 652l-1 -14q-77 -68 -140 -108l-22 22l109 136zM547 0h-79l-110 358l-110 -358h-80l-158 468h65l114 -331q11 -32 19 -65q11 44 18 65l100 331h64l99 -331q4 -13 10 -36t8 -29q2 9 5 19.5t7.5 24t6.5 21.5l114 331h65z" />
    <glyph glyph-name="Wdieresis" unicode="&#x1e84;" horiz-adv-x="879" 
d="M348 770q19 0 31 -11.5t12 -30.5t-12 -30t-31 -11q-17 0 -29.5 11t-12.5 30t12.5 30.5t29.5 11.5zM531 770q18 0 30 -11.5t12 -30.5t-12 -30t-30 -11q-19 0 -31 11t-12 30t12 30.5t31 11.5zM683 0h-98l-131 446q-7 25 -14 63q-6 -36 -14 -63l-131 -446h-98l-180 610h76
l135 -470q8 -28 16 -77q3 14 10 42t9 35l138 470h77l138 -470q13 -45 19 -77q5 31 16 77l135 470h77z" />
    <glyph glyph-name="wdieresis" unicode="&#x1e85;" horiz-adv-x="715" 
d="M267 651q19 0 30.5 -11.5t11.5 -30.5t-11.5 -30t-30.5 -11q-18 0 -30 11t-12 30t12 30.5t30 11.5zM449 651q18 0 30.5 -11.5t12.5 -30.5t-12.5 -30t-30.5 -11t-30 11t-12 30t12 30.5t30 11.5zM547 0h-79l-110 358l-110 -358h-80l-158 468h65l114 -331q11 -32 19 -65
q11 44 18 65l100 331h64l99 -331q4 -13 10 -36t8 -29q2 9 5 19.5t7.5 24t6.5 21.5l114 331h65z" />
    <glyph glyph-name="Ygrave" unicode="&#x1ef2;" horiz-adv-x="560" 
d="M317 678l-22 -22q-67 36 -139 101l-1 14l54 36zM314 210v-210h-68v210l-227 400h70l173 -294q9 -16 18 -42q8 24 19 42l172 294h71z" />
    <glyph glyph-name="ygrave" unicode="&#x1ef3;" horiz-adv-x="495" 
d="M313 561l-22 -22q-67 44 -140 108l-1 14l55 36zM410 467h74q-114 -272 -174 -392q-86 -166 -210 -219l-24 57q76 39 123 100l-195 454h70l135 -315l31 -74l34 68.5t36 79.5l29.5 69l36 88z" />
    <glyph glyph-name="uni2009" unicode="&#x2009;" horiz-adv-x="95" 
 />
    <glyph glyph-name="endash" unicode="&#x2013;" horiz-adv-x="500" 
d="M434 303v-52h-368v52h368z" />
    <glyph glyph-name="emdash" unicode="&#x2014;" horiz-adv-x="890" 
d="M824 303v-52h-758v52h758z" />
    <glyph glyph-name="quoteleft" unicode="&#x2018;" horiz-adv-x="248" 
d="M175 666l19 -21q-49 -44 -58 -105q34 -7 34 -40q0 -19 -12 -31t-31 -12t-31 13.5t-12 34.5q0 93 91 161z" />
    <glyph glyph-name="quoteright" unicode="&#x2019;" horiz-adv-x="248" 
d="M74 457l-19 21q49 44 58 105q-34 7 -34 40q0 19 12 31t31 12t31 -13.5t12 -34.5q0 -93 -91 -161z" />
    <glyph glyph-name="quotesinglbase" unicode="&#x201a;" horiz-adv-x="248" 
d="M74 -103l-19 21q49 44 58 105q-34 7 -34 40q0 19 12 31t31 12t31 -13.5t12 -34.5q0 -93 -91 -161z" />
    <glyph glyph-name="quotedblleft" unicode="&#x201c;" horiz-adv-x="388" 
d="M175 666l19 -21q-49 -44 -58 -105q34 -7 34 -40q0 -19 -12 -31t-31 -12t-31 13.5t-12 34.5q0 93 91 161zM315 666l19 -21q-49 -44 -58 -105q34 -7 34 -40q0 -19 -12 -31t-31 -12t-31 13.5t-12 34.5q0 93 91 161z" />
    <glyph glyph-name="quotedblright" unicode="&#x201d;" horiz-adv-x="388" 
d="M214 457l-19 21q49 44 58 105q-34 7 -34 40q0 19 12 31t31 12t31 -13.5t12 -34.5q0 -93 -91 -161zM74 457l-19 21q49 44 58 105q-34 7 -34 40q0 19 12 31t31 12t31 -13.5t12 -34.5q0 -93 -91 -161z" />
    <glyph glyph-name="quotedblbase" unicode="&#x201e;" horiz-adv-x="388" 
d="M214 -103l-19 21q49 44 58 105q-34 7 -34 40q0 19 12 31t31 12t31 -13.5t12 -34.5q0 -93 -91 -161zM74 -103l-19 21q49 44 58 105q-34 7 -34 40q0 19 12 31t31 12t31 -13.5t12 -34.5q0 -93 -91 -161z" />
    <glyph glyph-name="dagger" unicode="&#x2020;" horiz-adv-x="504" 
d="M275 377l-5 -459h-38l-5 459l-179 5v38l179 5l6 185h37l5 -185l181 -5v-38z" />
    <glyph glyph-name="daggerdbl" unicode="&#x2021;" horiz-adv-x="504" 
d="M276 153l180 -5v-38l-181 -5l-5 -185h-37l-6 185l-179 5v38l179 5v224l-179 5v38l179 5l6 185h37l5 -185l181 -5v-38l-180 -5v-224z" />
    <glyph glyph-name="bullet" unicode="&#x2022;" horiz-adv-x="308" 
d="M91 282q0 28 17.5 45.5t45.5 17.5q29 0 46 -17t17 -46q0 -27 -17 -44.5t-46 -17.5q-28 0 -45.5 17.5t-17.5 44.5z" />
    <glyph glyph-name="ellipsis" unicode="&#x2026;" horiz-adv-x="684" 
d="M112 83q19 0 31 -11.5t12 -30.5t-12 -31.5t-31 -12.5t-30.5 12.5t-11.5 31.5t11.5 30.5t30.5 11.5zM336 83q19 0 30.5 -11.5t11.5 -30.5t-11.5 -31.5t-30.5 -12.5t-31 12.5t-12 31.5t12 30.5t31 11.5zM558 83q19 0 31 -11.5t12 -30.5t-12 -31.5t-31 -12.5t-30.5 12.5
t-11.5 31.5t11.5 30.5t30.5 11.5z" />
    <glyph glyph-name="perthousand" unicode="&#x2030;" horiz-adv-x="1209" 
d="M192 620q72 0 109.5 -46t37.5 -135q0 -88 -37.5 -133.5t-109.5 -45.5t-110 45.5t-38 133.5t38 134.5t110 46.5zM612 610l-359 -610h-44l358 610h45zM192 303q100 0 100 136q0 138 -100 138q-101 0 -101 -138q0 -136 101 -136zM648 352q72 0 110 -46.5t38 -134.5t-38 -134
t-110 -46t-110 46t-38 134t38 134.5t110 46.5zM1018 352q72 0 109.5 -46.5t37.5 -134.5t-37.5 -134t-109.5 -46t-110 46t-38 134t38 134.5t110 46.5zM648 34q101 0 101 137q0 138 -101 138q-100 0 -100 -138q0 -137 100 -137zM1018 34q100 0 100 137q0 138 -100 138
q-101 0 -101 -138q0 -137 101 -137z" />
    <glyph glyph-name="guilsinglleft" unicode="&#x2039;" horiz-adv-x="354" 
d="M291 412l-128 -134q-18 -20 -39 -36q19 -15 40 -36l127 -133l-35 -33l-200 203l199 203z" />
    <glyph glyph-name="guilsinglright" unicode="&#x203a;" horiz-adv-x="354" 
d="M97 40l-34 33l127 133q25 25 39 36q-23 20 -38 36l-128 134l35 34l198 -203z" />
    <glyph glyph-name="fraction" unicode="&#x2044;" horiz-adv-x="216" 
d="M309 610l-359 -610h-44l359 610h44z" />
    <glyph glyph-name="Euro" unicode="&#x20ac;" horiz-adv-x="593" 
d="M524 109l26 -40q-77 -78 -205 -78q-79 0 -141 48t-79 150h-78v39h73q-1 12 -1 37t1 36h-73v40h78q18 103 80.5 153.5t144.5 50.5q104 0 181 -53l-23 -44q-64 43 -151 43q-56 0 -102.5 -35.5t-63.5 -114.5h265l-12 -40h-258q-2 -22 -2 -36q0 -13 2 -37h240l-12 -39h-223
q16 -78 60.5 -111t101.5 -33q103 0 171 64z" />
    <glyph glyph-name="uni2116" unicode="&#x2116;" horiz-adv-x="1163" 
d="M592 0h-63l-375 493v-493h-69v610h63l375 -495v17v478h69v-610zM889 534q186 0 186 -200q0 -91 -45.5 -142t-140.5 -51t-140.5 51t-45.5 142q0 200 186 200zM889 193q128 0 128 141q0 148 -128 148q-127 0 -127 -148q0 -141 127 -141zM1056 0h-333v51h333v-51z" />
    <glyph glyph-name="trademark" unicode="&#x2122;" horiz-adv-x="762" 
d="M308 571h-119v-240h-44v240h-120v39h283v-39zM627 540l-98 -209h-36l-98 209l-7 -209h-43l12 279h44l104 -218q2 -3 3.5 -9t2.5 -8q1 2 2.5 8t3.5 9l104 218h44l12 -279h-43z" />
    <glyph glyph-name="oneeighth" unicode="&#x215b;" horiz-adv-x="916" 
d="M290 231h-250v42h107v282q-46 -17 -107 -32l-10 32q71 26 126 55h38v-337h96v-42zM629 610l-359 -610h-44l359 610h44zM682 -9q-75 0 -116.5 29t-41.5 78q0 69 90 94q-71 28 -71 91q0 45 38 71.5t102 26.5q62 0 98.5 -26t36.5 -70q0 -64 -77 -90q95 -26 95 -98
q1 -49 -41.5 -78t-112.5 -28zM681 347q-41 0 -66.5 -17.5t-25.5 -45.5q0 -59 96 -77q88 16 88 77q0 28 -25.5 45.5t-66.5 17.5zM679 30q48 0 77.5 19t29.5 50q0 61 -120 80q-95 -19 -95 -79q0 -32 29.5 -51t78.5 -19z" />
    <glyph glyph-name="threeeighths" unicode="&#x215c;" horiz-adv-x="912" 
d="M39 552l-13 33q72 36 146 36q56 0 88.5 -27.5t32.5 -76.5q1 -64 -65 -84q77 -23 77 -93q0 -52 -35 -80t-99 -28q-85 0 -153 38l15 34q65 -33 137 -33q43 0 66 18t23 51q0 73 -100 73h-64v40h64q90 0 90 59q0 33 -21 51t-60 18q-65 0 -129 -29zM633 610l-359 -610h-44
l358 610h45zM685 -9q-74 0 -115.5 29t-41.5 78q0 69 90 94q-72 28 -72 91q0 45 38 71.5t102 26.5q63 0 99 -26t36 -70q0 -64 -77 -90q96 -26 96 -97q0 -49 -42 -78.5t-113 -28.5zM685 347q-42 0 -67.5 -17.5t-25.5 -45.5q0 -59 97 -77q87 17 87 77q0 29 -25 46t-66 17z
M682 30q49 0 78.5 19t29.5 50q0 61 -120 80q-95 -19 -95 -79q0 -31 29.5 -50.5t77.5 -19.5z" />
    <glyph glyph-name="fiveeighths" unicode="&#x215d;" horiz-adv-x="928" 
d="M107 569l-11 -131q59 27 104 27q59 0 91 -31t32 -88q0 -58 -37 -89t-101 -31q-81 0 -151 38l16 36q65 -33 130 -33q46 0 71.5 21.5t25.5 59.5q0 39 -23 60.5t-65 21.5q-41 0 -96 -25l-41 6l15 199h242v-41h-202zM647 610l-359 -610h-44l358 610h45zM702 -9
q-75 0 -116.5 28.5t-41.5 77.5q0 70 90 95q-71 28 -71 91q0 45 38 71.5t102 26.5q62 0 98.5 -26t36.5 -70q0 -64 -77 -90q95 -26 95 -98q1 -49 -41.5 -78t-112.5 -28zM701 347q-41 0 -66.5 -17.5t-25.5 -45.5q0 -59 96 -77q88 16 88 77q0 28 -25.5 45.5t-66.5 17.5zM699 30
q48 0 77.5 19t29.5 50q0 61 -120 80q-95 -19 -95 -79q0 -32 29.5 -51t78.5 -19z" />
    <glyph glyph-name="seveneighths" unicode="&#x215e;" horiz-adv-x="865" 
d="M304 610v-36q-55 -68 -101 -160.5t-69 -182.5h-55q26 91 72 182t101 156h-220v41h272zM553 610l-359 -610h-44l358 610h45zM630 -9q-74 0 -115.5 28.5t-41.5 77.5q0 70 90 95q-72 29 -72 91q0 45 38 71.5t102 26.5q63 0 99 -26t36 -70q0 -64 -76 -90q95 -26 95 -98
q0 -49 -42.5 -78t-112.5 -28zM630 347q-42 0 -67.5 -17.5t-25.5 -45.5q0 -59 97 -77q87 17 87 77q0 29 -25 46t-66 17zM627 30q49 0 78.5 19t29.5 50q0 61 -120 80q-95 -19 -95 -79q0 -31 29.5 -50.5t77.5 -19.5z" />
    <glyph glyph-name="arrowleft" unicode="&#x2190;" horiz-adv-x="667" 
d="M133 277l216 -228l-41 -41l-280 297l280 298l41 -41l-216 -228h507v-57h-507z" />
    <glyph glyph-name="arrowup" unicode="&#x2191;" horiz-adv-x="640" 
d="M349 512v-512h-57v512l-201 -187l-41 41l270 251l270 -251l-40 -41z" />
    <glyph glyph-name="arrowright" unicode="&#x2192;" horiz-adv-x="667" 
d="M358 8l-41 41l217 228h-508v57h508l-217 228l41 41l281 -298z" />
    <glyph glyph-name="arrowdown" unicode="&#x2193;" horiz-adv-x="640" 
d="M320 -7l-270 251l41 41l201 -187v512h57v-512l201 187l40 -41z" />
    <glyph glyph-name="arrowupleft" unicode="&#x2196;" horiz-adv-x="694" 
d="M114 513v-334h-59v431h431v-56h-334l514 -515l-40 -40z" />
    <glyph glyph-name="arrowupright" unicode="&#x2197;" horiz-adv-x="694" 
d="M639 179h-56v334l-515 -514l-40 40l513 513h-333v58h431v-431z" />
    <glyph glyph-name="arrowdownright" unicode="&#x2198;" horiz-adv-x="694" 
d="M639 0h-431v56h333l-513 515l40 40l512 -514v334h59v-431z" />
    <glyph glyph-name="arrowdownleft" unicode="&#x2199;" horiz-adv-x="694" 
d="M486 58v-58h-431v431h56v-334l515 514l40 -40l-514 -513h334z" />
    <glyph glyph-name="minus" unicode="&#x2212;" horiz-adv-x="463" 
d="M34 211v50h393v-50h-393z" />
    <glyph glyph-name="J.ss01" horiz-adv-x="262" 
d="M170 610v-544q0 -97 -31 -143.5t-111 -73.5l-24 56q54 21 75.5 53t21.5 95v557h69z" />
    <glyph glyph-name="K.ss02" horiz-adv-x="612" 
d="M161 278v-278h-68v610h68v-268h124l214 268h75v-5l-230 -293l240 -306v-6h-80l-218 278h-125z" />
    <glyph glyph-name="Kcommaaccent.ss02" horiz-adv-x="612" 
d="M161 278v-278h-68v610h68v-268h124l214 268h75v-5l-230 -293l240 -306v-6h-80l-218 278h-125zM259 -223l-14 22q39 39 46 75q-30 8 -30 37q0 18 11 29t29 11q17 0 27.5 -12.5t10.5 -30.5q0 -35 -20.5 -70t-59.5 -61z" />
    <glyph glyph-name="Q.ss03" horiz-adv-x="666" 
d="M601 -91l-48 -40q-82 81 -125 134q-44 -12 -95 -12q-135 0 -208.5 81.5t-73.5 232.5t73.5 233t208.5 82t208.5 -82t73.5 -233q0 -206 -132 -278q33 -37 118 -118zM121 304q0 -121 54.5 -185t157.5 -64t157.5 64t54.5 185q0 123 -54.5 187.5t-157.5 64.5t-157.5 -64.5
t-54.5 -187.5z" />
    <glyph glyph-name="R.ss04" horiz-adv-x="626" 
d="M93 610h216q120 0 182 -49.5t62 -144.5q0 -85 -34.5 -126t-103.5 -52q32 -14 59 -41t49 -69.5t30.5 -63l25.5 -64.5h-78l-14 33l-14.5 33.5t-17.5 37l-18.5 32.5t-23 32l-24.5 22.5t-28.5 17.5t-30.5 5h-169v-213h-68v610zM161 277h170q153 0 153 137q0 132 -175 132
h-148v-269z" />
    <glyph glyph-name="Racute.ss04" horiz-adv-x="626" 
d="M430 779l-1 -14q-77 -68 -139 -102l-22 22l108 130zM93 610h216q120 0 182 -49.5t62 -144.5q0 -85 -34.5 -126t-103.5 -52q32 -14 59 -41t49 -69.5t30.5 -63l25.5 -64.5h-78l-14 33l-14.5 33.5t-17.5 37l-18.5 32.5t-23 32l-24.5 22.5t-28.5 17.5t-30.5 5h-169v-213h-68
v610zM161 277h170q153 0 153 137q0 132 -175 132h-148v-269z" />
    <glyph glyph-name="Rcaron.ss04" horiz-adv-x="626" 
d="M281 666l-120 112l27 27l119 -84l118 84l27 -27l-120 -112h-51zM93 610h216q120 0 182 -49.5t62 -144.5q0 -85 -34.5 -126t-103.5 -52q32 -14 59 -41t49 -69.5t30.5 -63l25.5 -64.5h-78l-14 33l-14.5 33.5t-17.5 37l-18.5 32.5t-23 32l-24.5 22.5t-28.5 17.5t-30.5 5
h-169v-213h-68v610zM161 277h170q153 0 153 137q0 132 -175 132h-148v-269z" />
    <glyph glyph-name="Rcommaaccent.ss04" horiz-adv-x="626" 
d="M93 610h216q120 0 182 -49.5t62 -144.5q0 -85 -34.5 -126t-103.5 -52q32 -14 59 -41t49 -69.5t30.5 -63l25.5 -64.5h-78l-14 33l-14.5 33.5t-17.5 37l-18.5 32.5t-23 32l-24.5 22.5t-28.5 17.5t-30.5 5h-169v-213h-68v610zM161 277h170q153 0 153 137q0 132 -175 132
h-148v-269zM261 -223l-14 22q39 39 46 75q-30 8 -30 37q0 18 11 29t29 11q17 0 27.5 -12.5t10.5 -30.5q0 -35 -20.5 -70t-59.5 -61z" />
    <glyph glyph-name="k.ss02" horiz-adv-x="498" 
d="M143 218v-218h-67v655h67v-377h108l158 190h71v-5l-175 -215l188 -242v-6h-74l-170 218h-106z" />
    <glyph glyph-name="kcommaaccent.ss02" horiz-adv-x="498" 
d="M143 218v-218h-67v655h67v-377h108l158 190h71v-5l-175 -215l188 -242v-6h-74l-170 218h-106zM215 -223l-13 22q39 39 46 75q-30 8 -30 37q0 18 10.5 29t28.5 11t28.5 -12.5t10.5 -30.5q0 -35 -21 -70t-60 -61z" />
    <glyph glyph-name="a.ss05" horiz-adv-x="561" 
d="M418 0v71q-41 -41 -78 -60.5t-94 -19.5q-85 0 -142.5 60t-57.5 184q0 242 189 242q105 0 183 -75v66h67v-468h-67zM418 136v196q-74 88 -164 88q-141 0 -141 -185q0 -97 43 -142.5t108 -45.5q49 0 81.5 20.5t72.5 68.5z" />
    <glyph glyph-name="aacute.ss05" horiz-adv-x="561" 
d="M382 652l-1 -14q-73 -64 -139 -108l-22 22l108 136zM418 0v71q-41 -41 -78 -60.5t-94 -19.5q-85 0 -142.5 60t-57.5 184q0 242 189 242q105 0 183 -75v66h67v-468h-67zM418 136v196q-74 88 -164 88q-141 0 -141 -185q0 -97 43 -142.5t108 -45.5q49 0 81.5 20.5t72.5 68.5
z" />
    <glyph glyph-name="abreve.ss05" horiz-adv-x="561" 
d="M370 659h50q0 -126 -135 -126q-133 0 -133 126h51q2 -38 21.5 -57.5t60.5 -19.5q79 0 85 77zM418 0v71q-41 -41 -78 -60.5t-94 -19.5q-85 0 -142.5 60t-57.5 184q0 242 189 242q105 0 183 -75v66h67v-468h-67zM418 136v196q-74 88 -164 88q-141 0 -141 -185
q0 -97 43 -142.5t108 -45.5q49 0 81.5 20.5t72.5 68.5z" />
    <glyph glyph-name="acircumflex.ss05" horiz-adv-x="561" 
d="M432 561l-28 -27l-118 91l-118 -91l-27 27l120 118h50zM418 0v71q-41 -41 -78 -60.5t-94 -19.5q-85 0 -142.5 60t-57.5 184q0 242 189 242q105 0 183 -75v66h67v-468h-67zM418 136v196q-74 88 -164 88q-141 0 -141 -185q0 -97 43 -142.5t108 -45.5q49 0 81.5 20.5
t72.5 68.5z" />
    <glyph glyph-name="adieresis.ss05" horiz-adv-x="561" 
d="M195 651q19 0 30.5 -11t11.5 -31q0 -19 -11.5 -29.5t-30.5 -10.5q-18 0 -30 11t-12 29q0 20 12 31t30 11zM377 651q18 0 30.5 -11.5t12.5 -30.5q0 -18 -12.5 -29t-30.5 -11t-30 11t-12 29q0 20 11.5 31t30.5 11zM418 0v71q-41 -41 -78 -60.5t-94 -19.5q-85 0 -142.5 60
t-57.5 184q0 242 189 242q105 0 183 -75v66h67v-468h-67zM418 136v196q-74 88 -164 88q-141 0 -141 -185q0 -97 43 -142.5t108 -45.5q49 0 81.5 20.5t72.5 68.5z" />
    <glyph glyph-name="agrave.ss05" horiz-adv-x="561" 
d="M351 561l-22 -21q-63 40 -140 108l-1 14l55 36zM418 0v71q-41 -41 -78 -60.5t-94 -19.5q-85 0 -142.5 60t-57.5 184q0 242 189 242q105 0 183 -75v66h67v-468h-67zM418 136v196q-74 88 -164 88q-141 0 -141 -185q0 -97 43 -142.5t108 -45.5q49 0 81.5 20.5t72.5 68.5z
" />
    <glyph glyph-name="amacron.ss05" horiz-adv-x="561" 
d="M403 574h-233v59h233v-59zM418 0v71q-41 -41 -78 -60.5t-94 -19.5q-85 0 -142.5 60t-57.5 184q0 242 189 242q105 0 183 -75v66h67v-468h-67zM418 136v196q-74 88 -164 88q-141 0 -141 -185q0 -97 43 -142.5t108 -45.5q49 0 81.5 20.5t72.5 68.5z" />
    <glyph glyph-name="aogonek.ss05" horiz-adv-x="561" 
d="M513 -121l9 -46q-45 -16 -91 -16q-49 0 -77 24.5t-28 69.5q0 67 92 108v52q-41 -41 -78 -60.5t-94 -19.5q-85 0 -142.5 60t-57.5 184q0 242 189 242q105 0 183 -75v66h67v-468h-31q-36 -13 -56.5 -33.5t-20.5 -43.5q0 -24 19 -38.5t51 -14.5q14 0 66 9zM418 136v196
q-74 88 -164 88q-141 0 -141 -185q0 -97 43 -142.5t108 -45.5q49 0 81.5 20.5t72.5 68.5z" />
    <glyph glyph-name="aring.ss05" horiz-adv-x="561" 
d="M286 710q42 0 67.5 -26t25.5 -68q0 -39 -26 -64t-68 -25q-40 0 -66 25t-26 64q0 42 26 68t67 26zM285 568q25 0 39 13t14 35q0 25 -14 39.5t-38 14.5q-23 0 -37.5 -14.5t-14.5 -39.5q0 -22 14 -35t37 -13zM418 0v71q-41 -41 -78 -60.5t-94 -19.5q-85 0 -142.5 60
t-57.5 184q0 242 189 242q105 0 183 -75v66h67v-468h-67zM418 136v196q-74 88 -164 88q-141 0 -141 -185q0 -97 43 -142.5t108 -45.5q49 0 81.5 20.5t72.5 68.5z" />
    <glyph glyph-name="atilde.ss05" horiz-adv-x="561" 
d="M402 664l37 -10q-14 -58 -55 -77.5t-81 3.5l-55 28q-53 26 -76 -31l-37 10q14 56 53.5 73.5t80.5 -4.5l55 -26q29 -14 47 -5.5t31 39.5zM418 0v71q-41 -41 -78 -60.5t-94 -19.5q-85 0 -142.5 60t-57.5 184q0 242 189 242q105 0 183 -75v66h67v-468h-67zM418 136v196
q-74 88 -164 88q-141 0 -141 -185q0 -97 43 -142.5t108 -45.5q49 0 81.5 20.5t72.5 68.5z" />
    <glyph glyph-name="g.ss06" horiz-adv-x="553" 
d="M529 474l-5 -47q-22 1 -52 1q-20 0 -41 -6q44 -44 44 -125q0 -168 -202 -168q-67 0 -111 19q-33 -18 -33 -41q0 -24 11 -33t42 -9h176q79 0 117 -27.5t38 -86.5q0 -90 -59 -130t-179 -40q-141 0 -194.5 27.5t-53.5 102.5q0 79 74 113q-28 20 -28 68q0 51 53 75
q-55 43 -55 130q0 180 202 180q67 0 114 -22q40 24 82 24q37 0 60 -5zM273 183q71 0 104.5 27t33.5 87q0 66 -33 97t-105 31q-139 0 -139 -128q0 -59 34 -86.5t105 -27.5zM358 6h-170q-98 0 -98 -85q0 -49 38 -66t147 -17q174 0 174 102q0 35 -22 50.5t-69 15.5z" />
    <glyph glyph-name="gbreve.ss06" horiz-adv-x="553" 
d="M360 659h50q0 -126 -135 -126q-133 0 -133 125h51q5 -76 82 -76q79 0 85 77zM529 474l-5 -47q-22 1 -52 1q-20 0 -41 -6q44 -44 44 -125q0 -168 -202 -168q-67 0 -111 19q-33 -18 -33 -41q0 -24 11 -33t42 -9h176q79 0 117 -27.5t38 -86.5q0 -90 -59 -130t-179 -40
q-141 0 -194.5 27.5t-53.5 102.5q0 79 74 113q-28 20 -28 68q0 51 53 75q-55 43 -55 130q0 180 202 180q67 0 114 -22q40 24 82 24q36 0 60 -5zM273 183q71 0 104.5 27t33.5 87q0 66 -33 97t-105 31q-139 0 -139 -128q0 -59 34 -86.5t105 -27.5zM358 6h-170q-98 0 -98 -85
q0 -49 38 -66t147 -17q174 0 174 102q0 35 -22 50.5t-69 15.5z" />
    <glyph glyph-name="gcommaaccent.ss06" horiz-adv-x="553" 
d="M310 727l14 -22q-36 -34 -46 -72q14 -2 22.5 -12.5t8.5 -24.5q0 -17 -11 -28t-29 -11t-28.5 12.5t-10.5 30.5q0 69 80 127zM529 474l-5 -47q-22 1 -52 1q-20 0 -41 -6q44 -44 44 -125q0 -168 -202 -168q-67 0 -111 19q-33 -18 -33 -41q0 -24 11 -33t42 -9h176
q79 0 117 -27.5t38 -86.5q0 -90 -59 -130t-179 -40q-141 0 -194.5 27.5t-53.5 102.5q0 79 74 113q-28 20 -28 68q0 51 53 75q-55 43 -55 130q0 180 202 180q67 0 114 -22q40 24 82 24q36 0 60 -5zM273 183q71 0 104.5 27t33.5 87q0 66 -33 97t-105 31q-139 0 -139 -128
q0 -59 34 -86.5t105 -27.5zM358 6h-170q-98 0 -98 -85q0 -49 38 -66t147 -17q174 0 174 102q0 35 -22 50.5t-69 15.5z" />
    <glyph glyph-name="gdotaccent.ss06" horiz-adv-x="553" 
d="M276 659q21 0 35 -13t14 -35t-14 -34.5t-35 -12.5t-35 12.5t-14 34.5t14 35t35 13zM529 474l-5 -47q-22 1 -52 1q-20 0 -41 -6q44 -44 44 -125q0 -168 -202 -168q-67 0 -111 19q-33 -18 -33 -41q0 -24 11 -33t42 -9h176q79 0 117 -27.5t38 -86.5q0 -90 -59 -130t-179 -40
q-141 0 -194.5 27.5t-53.5 102.5q0 79 74 113q-28 20 -28 68q0 51 53 75q-55 43 -55 130q0 180 202 180q67 0 114 -22q40 24 82 24q37 0 60 -5zM273 183q71 0 104.5 27t33.5 87q0 66 -33 97t-105 31q-139 0 -139 -128q0 -59 34 -86.5t105 -27.5zM358 6h-170q-98 0 -98 -85
q0 -49 38 -66t147 -17q174 0 174 102q0 35 -22 50.5t-69 15.5z" />
    <glyph glyph-name="y.ss07" horiz-adv-x="567" 
d="M507 468v-400q0 -223 -206 -223q-117 0 -207 53l21 52q85 -45 179 -45q147 0 147 160v33q-39 -40 -78 -59.5t-97 -19.5q-88 0 -142.5 54t-54.5 164v231h66v-231q0 -85 42.5 -121.5t108.5 -36.5q46 0 81 20.5t74 66.5v302h66z" />
    <glyph glyph-name="yacute.ss07" horiz-adv-x="567" 
d="M387 652l-1 -14q-74 -67 -139 -108l-22 22l108 136zM507 468v-400q0 -223 -206 -223q-117 0 -207 53l21 52q85 -45 179 -45q147 0 147 160v33q-39 -40 -78 -59.5t-97 -19.5q-88 0 -142.5 54t-54.5 164v231h66v-231q0 -85 42.5 -121.5t108.5 -36.5q46 0 81 20.5t74 66.5
v302h66z" />
    <glyph glyph-name="ycircumflex.ss07" horiz-adv-x="567" 
d="M437 561l-27 -27l-118 91l-119 -91l-27 27l120 118h51zM507 468v-400q0 -223 -206 -223q-117 0 -207 53l21 52q85 -45 179 -45q147 0 147 160v33q-39 -40 -78 -59.5t-97 -19.5q-88 0 -142.5 54t-54.5 164v231h66v-231q0 -85 42.5 -121.5t108.5 -36.5q46 0 81 20.5
t74 66.5v302h66z" />
    <glyph glyph-name="ydieresis.ss07" horiz-adv-x="567" 
d="M200 651q19 0 31 -11.5t12 -30.5t-12 -30t-31 -11q-17 0 -29.5 11t-12.5 30t12.5 30.5t29.5 11.5zM383 651q18 0 30 -11.5t12 -30.5t-12 -30t-30 -11q-19 0 -31 11t-12 30t12 30.5t31 11.5zM507 468v-400q0 -223 -206 -223q-117 0 -207 53l21 52q85 -45 179 -45
q147 0 147 160v33q-39 -40 -78 -59.5t-97 -19.5q-88 0 -142.5 54t-54.5 164v231h66v-231q0 -85 42.5 -121.5t108.5 -36.5q46 0 81 20.5t74 66.5v302h66z" />
    <glyph glyph-name="ygrave.ss07" horiz-adv-x="567" 
d="M356 561l-22 -22q-66 44 -139 108l-1 14l55 36zM507 468v-400q0 -223 -206 -223q-117 0 -207 53l21 52q85 -45 179 -45q147 0 147 160v33q-39 -40 -78 -59.5t-97 -19.5q-88 0 -142.5 54t-54.5 164v231h66v-231q0 -85 42.5 -121.5t108.5 -36.5q46 0 81 20.5t74 66.5v302
h66z" />
    <glyph glyph-name="uni00660062" horiz-adv-x="878" 
d="M460 665v-269q75 80 182 80q189 0 189 -241q0 -124 -57.5 -184t-142.5 -60q-57 0 -94 19.5t-77 60.5v-71h-67v599q-91 13 -146 13q-49 0 -68.5 -24t-19.5 -75v-45h151v-57h-151v-411h-66v411h-69v57h69v45q0 79 33.5 117t110.5 38q44 0 156 -20v17h67zM460 332v-196
q73 -89 154 -89q64 0 108 46t44 142q0 185 -142 185q-45 0 -88.5 -24.5t-75.5 -63.5z" />
    <glyph glyph-name="uni006600660062" horiz-adv-x="1183" 
d="M764 665v-269q77 80 183 80q189 0 189 -241q0 -124 -57.5 -184t-142.5 -60q-57 0 -95 19.5t-77 60.5v-71h-66v599q-90 13 -146 13q-49 0 -68 -24t-19 -75v-45h150v-57h-150v-411h-67v411h-240v-411h-67v411h-67v57h67v45q0 79 34.5 117t111.5 38q53 0 88 -8l-6 -51
q-30 3 -72 3q-49 0 -69 -24.5t-20 -75.5v-44h240v44q0 79 34 117t110 39q43 0 156 -20v17h66zM764 332v-196q75 -89 154 -89q65 0 108.5 46t43.5 142q0 185 -142 185q-89 0 -164 -88z" />
    <glyph glyph-name="uni006600660066" horiz-adv-x="946" 
d="M953 660l-5 -51q-30 3 -72 3q-50 0 -69.5 -24t-19.5 -75v-45h152v-57h-152v-411h-67v411h-248v-411h-66v411h-248v-411h-67v411h-67v57h67v45q0 79 34.5 117t111.5 38q53 0 88 -8l-6 -51q-30 3 -72 3q-49 0 -69 -24.5t-20 -75.5v-44h248v45q0 79 34 117t111 38
q53 0 88 -8l-5 -51q-30 3 -73 3q-49 0 -69 -24.5t-20 -75.5v-44h248v45q0 79 34 117t111 38q54 0 88 -8z" />
    <glyph glyph-name="uni006600660068" horiz-adv-x="1175" 
d="M767 665v-276q80 88 188 88q80 0 114 -44.5t34 -140.5v-292h-66v277q0 72 -24 104.5t-83 32.5q-91 0 -163 -94v-320h-67v599q-91 13 -147 13q-49 0 -68 -24t-19 -75v-45h150v-57h-150v-411h-67v411h-241v-411h-67v411h-67v57h67v45q0 79 34.5 117t111.5 38q53 0 88 -8
l-6 -51q-30 3 -72 3q-49 0 -69 -24.5t-20 -75.5v-44h241v45q0 79 34 117t110 38q45 0 157 -20v17h67z" />
    <glyph glyph-name="uni00660066006A" horiz-adv-x="845" 
d="M466 468h299v-449q0 -83 -23.5 -126t-82.5 -60l-16 53q33 16 44.5 44t11.5 89v392h-233v-411h-67v411h-241v-411h-67v411h-67v57h67v45q0 79 34.5 117t111.5 38q53 0 88 -8l-6 -51q-30 3 -72 3q-49 0 -69 -24.5t-20 -75.5v-44h241v45q0 79 34 117t111 38q38 0 104 -10
l-6 -52q-59 6 -89 6q-49 0 -68 -24t-19 -75v-45zM733 565q-18 0 -30 10.5t-12 28.5q0 19 12 29.5t30 10.5t30 -10.5t12 -29.5q0 -18 -12 -28.5t-30 -10.5z" />
    <glyph glyph-name="uni00660066006B" horiz-adv-x="1139" 
d="M1103 468l-191 -188q116 -120 227 -280h-79q-98 139 -194 235l-99 -97v-138h-67v600q-77 12 -147 12q-49 0 -68 -24t-19 -75v-45h150v-57h-150v-411h-67v411h-241v-411h-67v411h-67v57h67v45q0 79 34.5 117t111.5 38q53 0 88 -8l-6 -51q-30 3 -72 3q-49 0 -69 -24.5
t-20 -75.5v-44h241v45q0 79 34 117t111 38q61 0 156 -20v17h67v-439l251 242h85z" />
    <glyph glyph-name="uni006600660074" horiz-adv-x="953" 
d="M920 65l8 -50q-60 -18 -100 -18q-72 0 -103 35t-31 114v265h-222v-411h-66v411h-248v-411h-67v411h-67v57h67v45q0 79 34.5 117t111.5 38q53 0 88 -8l-6 -51q-30 3 -72 3q-49 0 -69 -24.5t-20 -75.5v-44h248v45q0 79 34 117t111 38q53 0 88 -8l-5 -51q-30 3 -73 3
q-49 0 -69 -24.5t-20 -75.5v-44h222v122h66v-122h147v-57h-147v-263q0 -52 20.5 -70.5t67.5 -18.5q34 0 72 6z" />
    <glyph glyph-name="uni00660068" horiz-adv-x="869" 
d="M460 665v-276q81 88 188 88q80 0 114.5 -44.5t34.5 -140.5v-292h-67v277q0 72 -23.5 104.5t-82.5 32.5q-93 0 -164 -94v-320h-67v599q-91 13 -146 13q-49 0 -68.5 -24t-19.5 -75v-45h151v-57h-151v-411h-66v411h-69v57h69v45q0 79 33.5 117t110.5 38q44 0 156 -20v17h67z
" />
    <glyph glyph-name="uni0066006A" horiz-adv-x="539" 
d="M459 468v-449q0 -83 -23.5 -126t-83.5 -60l-16 53q33 16 44.5 44t11.5 89v392h-233v-411h-66v411h-69v57h69v45q0 79 33.5 117t110.5 38q34 0 108 -11l-6 -51q-61 6 -92 6q-49 0 -68.5 -24t-19.5 -75v-45h300zM427 565q-18 0 -30 10.5t-12 28.5q0 19 12 29.5t30 10.5
t30 -10.5t12 -29.5q0 -18 -12 -28.5t-30 -10.5z" />
    <glyph glyph-name="uni0066006B" horiz-adv-x="832" 
d="M460 227l251 241h85l-192 -187q113 -116 228 -281h-79q-98 141 -194 235l-99 -96v-139h-67v599q-91 13 -146 13q-49 0 -68.5 -24t-19.5 -75v-45h151v-57h-151v-411h-66v411h-69v57h69v45q0 79 33.5 117t110.5 38q44 0 156 -20v17h67v-438z" />
    <glyph glyph-name="uni00660074" horiz-adv-x="646" 
d="M614 65l7 -50q-60 -18 -100 -18q-72 0 -103 35t-31 114v265h-229v-411h-67v411h-67v57h67v45q0 79 34.5 117t111.5 38q53 0 88 -8l-6 -51q-30 3 -72 3q-49 0 -69 -24.5t-20 -75.5v-44h229v122h67v-122h147v-57h-147v-263q0 -52 20 -70.5t67 -18.5q35 0 73 6z" />
    <glyph glyph-name="uni00720066" horiz-adv-x="694" 
d="M701 658l-7 -49q-36 3 -78 3q-49 0 -68.5 -24t-19.5 -75v-45h151v-57h-151v-411h-66v411h-64v57h64v45q0 79 34 117t110 38q59 0 95 -10zM143 468v-98q17 47 57 76.5t89 29.5q33 0 60 -3l-5 -65q-24 2 -57 2q-49 0 -87 -32.5t-57 -94.5v-283h-67v468h67z" />
    <glyph glyph-name="uni00720074" horiz-adv-x="706" 
d="M674 65l7 -50q-60 -18 -100 -18q-72 0 -103 35t-31 114v265h-60v57h60v122h66v-122h147v-57h-147v-263q0 -52 20.5 -70.5t67.5 -18.5q35 0 73 6zM143 468v-98q17 47 57 76.5t89 29.5q33 0 60 -3l-5 -65q-24 2 -57 2q-49 0 -87 -32.5t-57 -94.5v-283h-67v468h67z" />
    <glyph glyph-name="zero.osf" horiz-adv-x="591" 
d="M296 525q118 0 181 -73.5t63 -194.5q0 -119 -63 -192.5t-181 -73.5q-119 0 -182 73.5t-63 192.5q0 121 63 194.5t182 73.5zM296 53q86 0 130.5 57t44.5 147q0 92 -44.5 149t-130.5 57t-131 -57t-45 -149q0 -90 45 -147t131 -57z" />
    <glyph glyph-name="one.osf" horiz-adv-x="476" 
d="M434 0h-380v59h170v378q-84 -34 -173 -55l-13 44q102 33 201 89h54v-456h141v-59z" />
    <glyph glyph-name="two.osf" horiz-adv-x="515" 
d="M486 0h-444v50q176 88 221 117q136 87 139 169q0 61 -35.5 95.5t-99.5 34.5q-99 0 -208 -53l-20 49q128 63 238 63q91 0 143 -48.5t52 -132.5q0 -33 -11.5 -63t-37.5 -56.5t-51.5 -47t-70 -44.5t-74.5 -38.5t-84 -38.5q37 3 71 3h272v-59z" />
    <glyph glyph-name="three.osf" horiz-adv-x="516" 
d="M59 420l-17 47q118 58 236 58q87 0 141 -46t54 -121q0 -53 -32 -87t-87 -46q137 -31 137 -153q0 -79 -58.5 -126t-156.5 -47q-136 0 -247 60l21 48q107 -53 224 -53q68 0 110 32.5t42 86.5q0 60 -45 90.5t-125 30.5h-90v57h90q153 0 153 99q0 55 -38 87.5t-100 32.5
q-101 0 -212 -50z" />
    <glyph glyph-name="four.osf" horiz-adv-x="592" 
d="M463 0v-120h-67v120h-362l-3 49l365 456h67v-450h107v-55h-107zM396 55v368q-47 -63 -49 -65l-185 -237q-52 -58 -60 -66h294z" />
    <glyph glyph-name="five.osf" horiz-adv-x="536" 
d="M147 447l-18 -228q91 43 167 43q91 0 145 -49.5t54 -133.5q0 -88 -62 -140.5t-161 -52.5q-131 0 -243 59l21 51q107 -53 215 -53q73 0 119 38.5t46 100.5q0 59 -41.5 95.5t-109.5 36.5q-72 0 -154 -40l-58 9l24 322h382v-58h-326z" />
    <glyph glyph-name="six.osf" horiz-adv-x="564" 
d="M501 589l-17 -50q-72 25 -139 25q-102 -1 -163 -74t-64 -201q72 100 205 100q93 0 149.5 -51.5t56.5 -138.5q0 -98 -61.5 -153t-162.5 -55q-124 0 -189 76t-65 215q0 152 81.5 245t209.5 93q89 0 159 -31zM305 47q70 0 115 40.5t45 114.5q0 65 -43.5 102.5t-115.5 37.5
q-64 0 -112.5 -31t-72.5 -80q10 -89 56.5 -136.5t127.5 -47.5z" />
    <glyph glyph-name="seven.osf" horiz-adv-x="452" 
d="M448 505v-52q-87 -107 -160.5 -259t-112.5 -299h-79q43 149 116.5 298.5t159.5 252.5h-361v59h437z" />
    <glyph glyph-name="eight.osf" horiz-adv-x="583" 
d="M380 322q163 -40 163 -160q0 -80 -67 -125.5t-182 -45.5q-123 0 -188.5 45t-65.5 126q0 116 153 156q-124 39 -124 142q0 74 61 117t165 43q101 0 159.5 -42.5t58.5 -114.5q0 -104 -133 -141zM292 573q-70 0 -113.5 -31t-43.5 -81q0 -49 39 -78.5t126 -45.5
q150 25 150 125q0 50 -43.5 80.5t-114.5 30.5zM289 45q84 0 133 32t49 88q0 53 -46.5 85t-155.5 49q-163 -29 -163 -133q0 -57 49 -89t134 -32z" />
    <glyph glyph-name="nine.osf" horiz-adv-x="564" 
d="M72 -65l20 48q66 -30 142 -30q204 0 210 271q-69 -99 -203 -99q-93 0 -149.5 52t-56.5 139q0 99 62.5 154t168.5 55q118 0 181 -76.5t63 -214.5q0 -164 -70.5 -251t-200.5 -87q-96 0 -167 39zM259 174q61 0 109 30.5t73 77.5q-9 90 -54 138t-121 48q-75 0 -121 -40
t-46 -114q0 -65 43.5 -102.5t116.5 -37.5z" />
    <glyph glyph-name="zero.tf" horiz-adv-x="555" 
d="M278 620q122 0 186.5 -81.5t64.5 -233.5q0 -151 -64.5 -232.5t-186.5 -81.5q-123 0 -187.5 81.5t-64.5 232.5q0 152 64.5 233.5t187.5 81.5zM278 53q89 0 135.5 65t46.5 187q0 123 -46.5 188t-135.5 65q-90 0 -136.5 -65t-46.5 -188q0 -122 46.5 -187t136.5 -65z" />
    <glyph glyph-name="one.tf" horiz-adv-x="555" 
d="M482 0h-392v59h167v471q-85 -36 -173 -54l-13 45q111 34 201 89h54v-551h156v-59z" />
    <glyph glyph-name="two.tf" horiz-adv-x="555" 
d="M496 0h-445v50q32 27 103.5 83t103.5 84t75 70.5t60.5 76.5t17.5 67q0 62 -35 96.5t-99 34.5q-97 0 -208 -54l-20 50q127 62 238 62q91 0 142.5 -50.5t51.5 -137.5q0 -25 -8.5 -50.5t-19.5 -46.5t-35 -47.5l-41 -44t-53 -46.5l-55.5 -44.5l-63.5 -48.5l-64 -48
q5 0 36.5 1.5t45.5 1.5h273v-59z" />
    <glyph glyph-name="three.tf" horiz-adv-x="555" 
d="M69 512l-17 47q118 58 237 58q87 0 141 -46t54 -121q0 -51 -30 -86t-82 -49q130 -34 130 -152q0 -79 -58.5 -125.5t-156.5 -46.5q-139 0 -248 60l20 48q107 -52 225 -52q69 0 111 31.5t42 85.5q0 60 -45 90.5t-126 30.5h-90v59h90q154 0 154 98q0 55 -38 87.5t-101 32.5
q-102 0 -212 -50z" />
    <glyph glyph-name="four.tf" horiz-adv-x="555" 
d="M442 144v-144h-68v144h-357l-3 49l360 417h68v-410h102v-56h-102zM374 200v328q-34 -44 -46 -58l-185 -212q-46 -52 -53 -58h284z" />
    <glyph glyph-name="five.tf" horiz-adv-x="555" 
d="M167 551l-17 -222q87 38 163 38q91 0 145 -49.5t54 -132.5q0 -89 -62 -141.5t-161 -52.5q-129 0 -243 60l21 50q103 -51 215 -51q73 0 119 37.5t46 99.5q0 59 -41.5 95.5t-109.5 36.5q-72 0 -154 -40l-58 9l24 322h382v-59h-323z" />
    <glyph glyph-name="six.tf" horiz-adv-x="555" 
d="M491 589l-18 -50q-72 25 -139 25q-101 -1 -162 -73.5t-65 -201.5q72 100 205 100q93 0 149.5 -51.5t56.5 -138.5q0 -98 -61 -153t-162 -55q-125 0 -189.5 75.5t-64.5 215.5q0 152 81 245t210 93q89 0 159 -31zM295 47q70 0 114.5 40.5t44.5 114.5q0 65 -43 102.5
t-116 37.5q-63 0 -112 -31.5t-73 -79.5q22 -184 185 -184z" />
    <glyph glyph-name="seven.tf" horiz-adv-x="555" 
d="M498 610v-52q-87 -107 -160.5 -259t-112.5 -299h-79q44 150 117.5 299t159.5 252h-361v59h436z" />
    <glyph glyph-name="eight.tf" horiz-adv-x="555" 
d="M366 322q163 -40 163 -160q0 -80 -67 -125.5t-182 -45.5q-123 0 -188.5 45t-65.5 126q0 116 153 156q-124 39 -124 142q0 74 61 117t165 43q101 0 159.5 -42.5t58.5 -114.5q0 -104 -133 -141zM278 573q-70 0 -113.5 -31t-43.5 -81q0 -49 39 -78.5t126 -45.5
q150 25 150 125q0 50 -43.5 80.5t-114.5 30.5zM275 45q84 0 133 32t49 88q0 53 -46.5 85t-155.5 49q-163 -29 -163 -133q0 -57 49 -89t134 -32z" />
    <glyph glyph-name="nine.tf" horiz-adv-x="555" 
d="M70 31l20 48q68 -31 142 -31q204 0 210 272q-70 -100 -202 -100q-93 0 -150 52.5t-57 139.5q0 99 62.5 153.5t168.5 54.5q119 0 182 -76t63 -215q0 -164 -71 -251t-201 -87q-51 0 -87.5 8t-79.5 32zM257 269q61 0 109 31t74 77q-10 90 -55 138.5t-121 48.5
q-75 0 -120.5 -40.5t-45.5 -114.5q0 -65 43 -102.5t116 -37.5z" />
    <glyph glyph-name="zero.zero" horiz-adv-x="611" 
d="M299 620q124 0 189 -81.5t65 -233.5t-65 -233t-189 -81t-189 81t-65 233t65 233.5t189 81.5zM139 156l295 341q-47 61 -135 61q-92 0 -138.5 -65t-46.5 -189q0 -91 25 -148zM456 460l-296 -342q47 -65 139 -65q91 0 138 64.5t47 186.5q0 96 -28 156z" />
    <glyph glyph-name="zero.dnom" horiz-adv-x="393" 
d="M197 381q77 0 117 -50t40 -145q0 -94 -40 -144.5t-117 -50.5t-117.5 50.5t-40.5 144.5q0 95 40 145t118 50zM197 35q56 0 82.5 37t26.5 114q0 152 -109 152q-57 0 -83.5 -37.5t-26.5 -114.5t26.5 -114t83.5 -37z" />
    <glyph glyph-name="one.dnom" horiz-adv-x="313" 
d="M290 0h-250v42h107v282q-46 -17 -107 -32l-10 32q71 26 126 55h38v-337h96v-42z" />
    <glyph glyph-name="two.dnom" horiz-adv-x="340" 
d="M306 0h-276v36l63.5 51l62.5 51t45.5 42.5t36 46t10.5 41.5q0 37 -20 56.5t-58 19.5q-60 0 -127 -32l-15 35q81 38 148 38q57 0 89 -31t32 -86q0 -15 -5 -30.5t-11 -28t-21 -29l-24.5 -26.5t-31.5 -28l-33 -27t-39 -29.5t-39 -29.5q30 2 43 2h170v-42z" />
    <glyph glyph-name="three.dnom" horiz-adv-x="339" 
d="M39 311l-13 33q72 36 146 36q56 0 88.5 -27.5t32.5 -76.5q1 -64 -65 -84q77 -23 77 -93q0 -52 -35 -80t-99 -28q-85 0 -153 38l15 34q65 -33 137 -33q43 0 66 18t23 51q0 73 -100 73h-64v40h64q90 0 90 59q0 33 -21 51t-60 18q-65 0 -129 -29z" />
    <glyph glyph-name="four.dnom" horiz-adv-x="374" 
d="M288 84v-84h-46v84h-225l-2 36l227 259h46v-255h62v-40h-62zM242 124v199q-4 -6 -25 -30l-117 -129q-14 -18 -36 -40h178z" />
    <glyph glyph-name="five.dnom" horiz-adv-x="346" 
d="M100 334l-11 -131q59 27 105 27q59 0 91 -31t32 -88q0 -58 -37 -89t-101 -31q-83 0 -151 38l15 36q65 -33 131 -33q45 0 71 21.5t26 59.5q0 39 -23 60.5t-65 21.5q-43 0 -96 -25l-41 6l15 199h242v-41h-203z" />
    <glyph glyph-name="six.dnom" horiz-adv-x="373" 
d="M324 362l-13 -34q-42 13 -84 13q-64 0 -102 -43t-40 -119q46 58 129 58q58 0 92.5 -32t34.5 -85q1 -58 -37 -93.5t-102 -35.5q-78 0 -120.5 47.5t-42.5 133.5q0 95 51 152t135 57q57 0 99 -19zM202 31q42 0 68 25t26 66q0 36 -25.5 59t-67.5 23q-37 0 -68.5 -17
t-47.5 -45q7 -54 36.5 -82.5t78.5 -28.5z" />
    <glyph glyph-name="seven.dnom" horiz-adv-x="311" 
d="M291 379v-36q-55 -68 -101 -160.5t-69 -182.5h-56q26 90 72 181t101 157h-219v41h272z" />
    <glyph glyph-name="eight.dnom" horiz-adv-x="374" 
d="M189 -9q-75 0 -116.5 29t-41.5 78q0 69 90 94q-71 28 -71 91q0 45 38 71.5t102 26.5q62 0 98.5 -26t36.5 -70q0 -64 -77 -90q95 -26 95 -98q1 -49 -41.5 -78t-112.5 -28zM188 347q-41 0 -66.5 -17.5t-25.5 -45.5q0 -59 96 -77q88 16 88 77q0 28 -25.5 45.5t-66.5 17.5z
M186 30q48 0 77.5 19t29.5 50q0 61 -120 80q-95 -19 -95 -79q0 -32 29.5 -51t78.5 -19z" />
    <glyph glyph-name="nine.dnom" horiz-adv-x="365" 
d="M54 15l13 35q42 -19 88 -19q62 0 92 38.5t32 116.5q-46 -50 -120 -50q-58 0 -93 31t-35 85q0 61 38.5 95t104.5 34q74 0 113 -47t39 -133q0 -102 -43.5 -156t-126.5 -54q-59 0 -102 24zM170 169q73 0 109 53q-8 119 -105 119q-98 0 -98 -90q0 -82 94 -82z" />
    <glyph glyph-name="zero.numr" horiz-adv-x="393" 
d="M197 620q77 0 117 -50t40 -145q0 -94 -40 -144.5t-117 -50.5t-117.5 50.5t-40.5 144.5q0 95 40 145t118 50zM197 274q56 0 82.5 37t26.5 114q0 152 -109 152q-57 0 -83.5 -37.5t-26.5 -114.5t26.5 -114t83.5 -37z" />
    <glyph glyph-name="one.numr" horiz-adv-x="313" 
d="M290 231h-250v42h107v282q-46 -17 -107 -32l-10 32q71 26 126 55h38v-337h96v-42z" />
    <glyph glyph-name="two.numr" horiz-adv-x="340" 
d="M306 235h-276v36l63.5 51l62.5 51t45.5 42.5t36 46t10.5 41.5q0 37 -20 56.5t-58 19.5q-60 0 -127 -32l-15 35q81 38 148 38q57 0 89 -31t32 -86q0 -15 -5 -30.5t-11 -28t-21 -29l-24.5 -26.5t-31.5 -28l-33 -27t-39 -29.5t-39 -29.5q30 2 43 2h170v-42z" />
    <glyph glyph-name="three.numr" horiz-adv-x="339" 
d="M39 552l-13 33q72 36 146 36q56 0 88.5 -27.5t32.5 -76.5q1 -64 -65 -84q77 -23 77 -93q0 -52 -35 -80t-99 -28q-85 0 -153 38l15 34q65 -33 137 -33q43 0 66 18t23 51q0 73 -100 73h-64v40h64q90 0 90 59q0 33 -21 51t-60 18q-65 0 -129 -29z" />
    <glyph glyph-name="four.numr" horiz-adv-x="374" 
d="M288 315v-84h-46v84h-225l-2 36l227 259h46v-255h62v-40h-62zM242 355v199q-4 -6 -25 -30l-117 -129q-14 -18 -36 -40h178z" />
    <glyph glyph-name="five.numr" horiz-adv-x="346" 
d="M100 569l-11 -131q59 27 105 27q59 0 91 -31t32 -88q0 -58 -37 -89t-101 -31q-83 0 -151 38l15 36q65 -33 131 -33q45 0 71 21.5t26 59.5q0 39 -23 60.5t-65 21.5q-43 0 -96 -25l-41 6l15 199h242v-41h-203z" />
    <glyph glyph-name="six.numr" horiz-adv-x="373" 
d="M324 601l-13 -34q-42 13 -84 13q-64 0 -102 -43t-40 -119q46 58 129 58q58 0 92.5 -32t34.5 -85q1 -58 -37 -93.5t-102 -35.5q-78 0 -120.5 47.5t-42.5 133.5q0 95 51 152t135 57q57 0 99 -19zM202 270q42 0 68 25t26 66q0 36 -25.5 59t-67.5 23q-37 0 -68.5 -17
t-47.5 -45q7 -54 36.5 -82.5t78.5 -28.5z" />
    <glyph glyph-name="seven.numr" horiz-adv-x="311" 
d="M291 610v-36q-55 -68 -101 -160.5t-69 -182.5h-56q26 90 72 181t101 157h-219v41h272z" />
    <glyph glyph-name="eight.numr" horiz-adv-x="374" 
d="M189 230q-75 0 -116.5 29t-41.5 78q0 69 90 94q-71 28 -71 91q0 45 38 71.5t102 26.5q62 0 98.5 -26t36.5 -70q0 -64 -77 -90q95 -26 95 -98q1 -49 -41.5 -78t-112.5 -28zM188 586q-41 0 -66.5 -17.5t-25.5 -45.5q0 -59 96 -77q88 16 88 77q0 28 -25.5 45.5t-66.5 17.5z
M186 269q48 0 77.5 19t29.5 50q0 61 -120 80q-95 -19 -95 -79q0 -32 29.5 -51t78.5 -19z" />
    <glyph glyph-name="nine.numr" horiz-adv-x="365" 
d="M54 254l13 35q42 -19 88 -19q62 0 92 38.5t32 116.5q-46 -50 -120 -50q-58 0 -93 31t-35 85q0 61 38.5 95t104.5 34q74 0 113 -47t39 -133q0 -102 -43.5 -156t-126.5 -54q-59 0 -102 24zM170 408q73 0 109 53q-8 119 -105 119q-98 0 -98 -90q0 -82 94 -82z" />
    <glyph glyph-name="backslash.case" horiz-adv-x="400" 
d="M339 -71h-58l-220 735h59z" />
    <glyph glyph-name="bullet.case" horiz-adv-x="308" 
d="M91 312q0 28 17.5 45.5t45.5 17.5q29 0 46 -17t17 -46q0 -27 -17 -44.5t-46 -17.5q-28 0 -45.5 17.5t-17.5 44.5z" />
    <glyph glyph-name="exclamdown.case" horiz-adv-x="206" 
d="M96 537q-17 0 -27 10.5t-10 27.5t10 27.5t27 10.5t27.5 -10.5t10.5 -27.5t-10.5 -27.5t-27.5 -10.5zM132 0h-72l9 418h54z" />
    <glyph glyph-name="periodcentered.case" horiz-adv-x="268" 
d="M84 316q0 19 12 31t31 12t31 -12t12 -31t-12 -31t-31 -12t-31 12t-12 31z" />
    <glyph glyph-name="questiondown.case" horiz-adv-x="504" 
d="M294 537q-17 0 -27 10.5t-10 27.5t10 27.5t27 10.5t27.5 -10.5t10.5 -27.5t-10.5 -27.5t-27.5 -10.5zM468 106l20 -53q-126 -62 -238 -62q-89 0 -141.5 49.5t-53.5 133.5q1 70 57 116.5t157 63.5l-2 79h56l10 -129q-98 -9 -153 -41.5t-55 -82.5q0 -59 36.5 -93t98.5 -34
q99 0 208 53z" />
    <glyph glyph-name="slash.case" horiz-adv-x="409" 
d="M348 664l-229 -768h-58l228 768h59z" />
    <glyph glyph-name="braceleft.case" horiz-adv-x="378" 
d="M235 142v-32q0 -50 26.5 -79.5t88.5 -40.5l-5 -47q-90 8 -131 49t-41 118v32q0 82 -24 109.5t-96 29.5v47q72 1 96 29.5t24 109.5v32q0 77 41 117.5t131 48.5l5 -47q-62 -10 -88.5 -39.5t-26.5 -79.5v-32q0 -82 -23 -117.5t-79 -45.5q56 -9 79 -44.5t23 -117.5z" />
    <glyph glyph-name="braceright.case" horiz-adv-x="378" 
d="M150 110v32q0 82 23 117.5t79 44.5q-56 10 -79 45.5t-23 116.5v33q0 50 -26.5 79.5t-88.5 39.5l6 47q90 -8 131 -49t41 -117v-33q0 -81 24 -109t96 -29v-47q-73 -2 -96.5 -29.5t-23.5 -109.5v-32q0 -77 -41 -118t-131 -49l-6 47q62 11 88.5 40.5t26.5 79.5z" />
    <glyph glyph-name="bracketleft.case" horiz-adv-x="353" 
d="M323 606h-163v-603h163v-54h-224v711h224v-54z" />
    <glyph glyph-name="bracketright.case" horiz-adv-x="353" 
d="M262 660v-711h-224v54h162v603h-162v54h224z" />
    <glyph glyph-name="parenleft.case" horiz-adv-x="306" 
d="M238 659l41 -26q-66 -77 -98 -150.5t-32 -178.5t32 -178.5t98 -150.5l-41 -27q-77 83 -113.5 163t-36.5 193t36.5 193t113.5 162z" />
    <glyph glyph-name="parenright.case" horiz-adv-x="304" 
d="M33 633l40 26q78 -82 114.5 -162t36.5 -193t-36.5 -193.5t-114.5 -162.5l-40 27q66 77 97.5 150.5t31.5 178.5t-31.5 178.5t-97.5 150.5z" />
    <glyph glyph-name="emdash.case" horiz-adv-x="890" 
d="M817 341v-53h-758v53h758z" />
    <glyph glyph-name="endash.case" horiz-adv-x="500" 
d="M427 341v-53h-368v53h368z" />
    <glyph glyph-name="hyphen.case" horiz-adv-x="390" 
d="M317 346v-60h-258v60h258z" />
    <glyph glyph-name="guillemotleft.case" horiz-adv-x="519" 
d="M285 471l-129 -134q-18 -19 -39 -36q25 -19 40 -36l128 -133l-36 -33l-200 203l199 203zM450 471l-128 -134q-25 -25 -39 -36q19 -15 40 -36l127 -133l-36 -33l-199 203l198 203z" />
    <glyph glyph-name="guillemotright.case" horiz-adv-x="519" 
d="M90 99l-34 33l127 133q19 19 39 36q-32 30 -38 36l-128 134l35 34l199 -203zM255 99l-34 33l127 133q21 21 40 36q-21 18 -39 36l-128 134l35 34l199 -203z" />
    <glyph glyph-name="guilsinglleft.case" horiz-adv-x="354" 
d="M285 471l-129 -134q-18 -19 -39 -36q25 -19 40 -36l128 -133l-36 -33l-200 203l199 203z" />
    <glyph glyph-name="guilsinglright.case" horiz-adv-x="354" 
d="M90 99l-34 33l127 133q19 19 39 36q-32 30 -38 36l-128 134l35 34l199 -203z" />
    <glyph glyph-name="florin.tf" horiz-adv-x="555" 
d="M522 495l-23 -42q-65 41 -143 41q-139 0 -178 -200l-8 -42h241l-9 -46h-241l-40 -206h-66l40 206h-64l9 46h64l9 42q26 133 84 193.5t151 60.5q100 0 174 -53z" />
    <glyph glyph-name="cent.tf" horiz-adv-x="555" 
d="M468 109l27 -40q-68 -70 -174 -77v-58h-48v58q-89 5 -149 71t-60 202q0 134 60 202.5t149 76.5v66h48v-66q89 -6 155 -52l-23 -44q-62 41 -151 41q-71 0 -121.5 -53.5t-50.5 -170.5q0 -114 48.5 -166t119.5 -52q104 0 170 62z" />
    <glyph glyph-name="dollar.tf" horiz-adv-x="555" 
d="M465 491l-19 -47q-108 48 -186 48q-51 0 -81 -22t-30 -59q0 -39 29.5 -59.5t126.5 -51.5q102 -31 141.5 -67.5t39.5 -96.5q0 -66 -51.5 -105.5t-138.5 -39.5v-58h-48v61q-108 11 -192 84l27 47q93 -81 212 -81q59 0 93 25t34 66t-32.5 64.5t-130.5 55.5q-101 32 -138 64
t-37 92q0 59 44.5 95t119.5 37v68h48v-70q81 -8 169 -50z" />
    <glyph glyph-name="Euro.tf" horiz-adv-x="555" 
d="M496 109l26 -40q-77 -78 -205 -78q-79 0 -141 48t-79 150h-78v39h73q-1 12 -1 37t1 36h-73v40h78q18 103 80.5 153.5t144.5 50.5q104 0 181 -53l-23 -44q-64 43 -151 43q-56 0 -102.5 -35.5t-63.5 -114.5h265l-12 -40h-258q-2 -22 -2 -36q0 -13 2 -37h240l-12 -39h-223
q16 -78 60.5 -111t101.5 -33q103 0 171 64z" />
    <glyph glyph-name="sterling.tf" horiz-adv-x="555" 
d="M189 56h313v-56h-463v49l85 6l12 157h-94v47h98l3 35q10 134 62 194t146 60q100 0 173 -53l-22 -44q-65 43 -144 43q-67 0 -104 -46t-46 -154l-3 -35h209v-47h-212z" />
    <glyph glyph-name="yen.tf" horiz-adv-x="555" 
d="M312 197v-66h155v-39h-155v-92h-68v92h-151v39h151v66h-151v39h131l-182 307h71l151 -247q10 -16 14 -34q8 23 15 34l150 247h71l-182 -307h135v-39h-155z" />
    <glyph glyph-name="arrowdown.ss08" horiz-adv-x="679" 
d="M340 568q119 0 204 -85t85 -204q0 -120 -85 -205t-204 -85q-120 0 -205 85t-85 205q0 119 85 204t205 85zM322 187l-111 110l-26 -25l155 -151l155 150l-26 26l-110 -110v245h-37v-245z" />
    <glyph glyph-name="arrowdownleft.ss08" horiz-adv-x="679" 
d="M629 279q0 119 -85 204t-204 85q-120 0 -205 -85t-85 -204q0 -120 85 -205t205 -85q119 0 204 85t85 205zM225 383h37v-158l174 174l25 -25l-174 -174h157v-37h-219v220z" />
    <glyph glyph-name="arrowdownright.ss08" horiz-adv-x="679" 
d="M629 279q0 119 -85 204t-204 85q-120 0 -205 -85t-85 -204q0 -120 85 -205t205 -85q119 0 204 85t85 205zM392 200l-174 174l25 25l174 -174v158h37v-220h-219v37h157z" />
    <glyph glyph-name="arrowleft.ss08" horiz-adv-x="679" 
d="M340 568q119 0 204 -85t85 -204q0 -120 -85 -205t-204 -85q-120 0 -205 85t-85 205q0 119 85 204t205 85zM332 123l26 26l-110 111h245v37h-245l110 110l-25 26l-151 -154z" />
    <glyph glyph-name="arrowright.ss08" horiz-adv-x="679" 
d="M340 568q119 0 204 -85t85 -204q0 -120 -85 -205t-204 -85q-120 0 -205 85t-85 205q0 119 85 204t205 85zM432 297h-246v-37h246l-111 -111l26 -26l150 156l-150 154l-26 -26z" />
    <glyph glyph-name="arrowup.ss08" horiz-adv-x="679" 
d="M340 568q119 0 204 -85t85 -204q0 -120 -85 -205t-204 -85q-120 0 -205 85t-85 205q0 119 85 204t205 85zM211 260l111 111v-246h37v246l110 -110l26 25l-155 150l-155 -150z" />
    <glyph glyph-name="arrowupleft.ss08" horiz-adv-x="679" 
d="M629 279q0 119 -85 204t-204 85q-120 0 -205 -85t-85 -204q0 -120 85 -205t205 -85q119 0 204 85t85 205zM287 358l174 -175l-25 -25l-174 174v-158h-37v220h219v-36h-157z" />
    <glyph glyph-name="arrowupright.ss08" horiz-adv-x="679" 
d="M629 279q0 119 -85 204t-204 85q-120 0 -205 -85t-85 -204q0 -120 85 -205t205 -85q119 0 204 85t85 205zM454 174h-36v158l-175 -174l-25 25l174 175h-157v36h219v-220z" />
    <glyph glyph-name="arrowdown.ss13" horiz-adv-x="513" 
d="M257 485q85 0 145.5 -60.5t60.5 -145.5t-60.5 -146t-145.5 -61t-146 61t-61 146t61 145.5t146 60.5zM257 460q-75 0 -128 -53.5t-53 -127.5q0 -75 53 -128t128 -53q74 0 127.5 53t53.5 128q0 74 -53.5 127.5t-127.5 53.5zM243 214l-77 78l-19 -19l110 -107l110 107
l-20 19l-77 -78v174h-27v-174z" />
    <glyph glyph-name="arrowdownleft.ss13" horiz-adv-x="513" 
d="M257 485q85 0 145.5 -60.5t60.5 -145.5t-60.5 -146t-145.5 -61t-146 61t-61 146q0 84 60 145t147 61zM257 460q-76 0 -128.5 -53t-52.5 -128q0 -76 52.5 -128.5t128.5 -52.5q75 0 128 52.5t53 128.5q0 75 -53 128t-128 53zM222 223h110v-25h-155v155h26v-111l123 124
l20 -20z" />
    <glyph glyph-name="arrowdownright.ss13" horiz-adv-x="513" 
d="M256 485q87 0 147 -61t60 -145q0 -85 -60.5 -146t-146.5 -61q-85 0 -145.5 61t-60.5 146t60.5 145.5t145.5 60.5zM256 460q-75 0 -127.5 -53t-52.5 -128q0 -76 52.5 -128.5t127.5 -52.5q76 0 129 52.5t53 128.5q0 75 -53 128t-129 53zM309 353h27v-156h-155v26h110
l-123 123l19 20l122 -124v111z" />
    <glyph glyph-name="arrowleft.ss13" horiz-adv-x="513" 
d="M257 485q85 0 145.5 -60.5t60.5 -145.5t-60.5 -146t-145.5 -61t-146 61t-61 146t61 145.5t146 60.5zM257 460q-76 0 -128.5 -53t-52.5 -128q0 -76 52.5 -128.5t128.5 -52.5q75 0 128 52.5t53 128.5q0 75 -53 128t-128 53zM192 292l78 77l-19 19l-107 -109l107 -111l19 20
l-78 77h174v27h-174z" />
    <glyph glyph-name="arrowright.ss13" horiz-adv-x="513" 
d="M256 485q85 0 146 -60.5t61 -145.5t-60.5 -146t-146.5 -61q-85 0 -145.5 61t-60.5 146t60.5 145.5t145.5 60.5zM256 460q-75 0 -127.5 -53t-52.5 -128q0 -76 52.5 -128.5t127.5 -52.5q76 0 129 52.5t53 128.5q0 75 -53 128t-129 53zM244 188l18 -20l107 111l-107 109
l-19 -19l78 -77h-174v-27h174z" />
    <glyph glyph-name="arrowup.ss13" horiz-adv-x="513" 
d="M257 72q-85 0 -146 60.5t-61 145.5q0 86 61 146.5t146 60.5t145.5 -61t60.5 -146t-60.5 -145.5t-145.5 -60.5zM257 98q74 0 127.5 53t53.5 127q0 75 -53.5 128.5t-127.5 53.5q-75 0 -128 -53.5t-53 -128.5q0 -74 53 -127t128 -53zM347 266l20 18l-110 107l-110 -107
l19 -19l77 78v-174h27v174z" />
    <glyph glyph-name="arrowupleft.ss13" horiz-adv-x="513" 
d="M257 72q-87 0 -147 61t-60 145q0 86 61 146.5t146 60.5t145.5 -61t60.5 -146t-60.5 -145.5t-145.5 -60.5zM257 98q75 0 128 52.5t53 127.5q0 76 -53 129t-128 53q-76 0 -128.5 -53t-52.5 -129q0 -75 52.5 -127.5t128.5 -52.5zM204 205h-27v155h155v-26h-110l124 -123
l-20 -19l-122 123v-110z" />
    <glyph glyph-name="arrowupright.ss13" horiz-adv-x="513" 
d="M256 72q-85 0 -145.5 60.5t-60.5 145.5t60.5 146t145.5 61q86 0 146.5 -60.5t60.5 -146.5q0 -84 -60 -145t-147 -61zM256 98q76 0 129 52.5t53 127.5q0 76 -53 129t-129 53q-75 0 -127.5 -53t-52.5 -129q0 -75 52.5 -127.5t127.5 -52.5zM291 334h-110v25h155v-154h-26
v110l-123 -123l-19 19z" />
    <glyph glyph-name="at.case" horiz-adv-x="920" 
d="M641 491v-314q0 -38 13 -54t39 -16q51 0 91.5 55.5t41.5 168.5q0 151 -96.5 242t-261.5 91q-171 0 -279 -105.5t-108 -275.5q0 -166 102 -266.5t270 -100.5q134 0 241 60l16 -28q-108 -68 -257 -68q-184 0 -296 111t-112 292q0 185 118.5 300t304.5 115q180 0 287 -101
t107 -266q-1 -135 -55.5 -198.5t-125.5 -63.5q-84 0 -97 76q-41 -40 -79.5 -58t-92.5 -18q-169 0 -169 218q0 108 48.5 160.5t133.5 52.5t157 -56v47h59zM582 198v189q-67 62 -140 62q-65 0 -103 -39t-38 -123q0 -93 33 -131.5t95 -38.5q44 0 78.5 20t74.5 61z" />
    <glyph glyph-name="registered.ss04" horiz-adv-x="742" 
d="M372 620q130 0 221.5 -92t91.5 -223t-91 -222.5t-222 -91.5t-222.5 91.5t-91.5 222.5t91.5 223t222.5 92zM372 17q119 0 203.5 84t84.5 204q0 119 -85 204t-203 85q-120 0 -204.5 -85t-84.5 -204q0 -120 84.5 -204t204.5 -84zM243 482h131q142 0 142 -113q0 -93 -82 -110
l102 -128h-54l-97 124h-96v-127h-46v354zM289 295h105q77 0 77 73q0 74 -96 74h-86v-147z" />
    <glyph glyph-name="ampersand.ss09" horiz-adv-x="596" 
d="M591 266v-58q-1 0 -27.5 1t-39.5 2q-9 -116 -66 -168t-180 -52q-108 0 -168.5 45t-60.5 126q0 52 34 87.5t112 71.5q-50 47 -69 81.5t-19 77.5q0 64 46 102t125 38q73 0 117 -38.5t44 -106.5q0 -102 -137 -160q-114 -48 -141 -66q-46 -31 -46 -80q0 -58 44.5 -89
t118.5 -31q104 0 145 49t41 168h127zM169 478q0 -36 17.5 -63.5t63.5 -69.5q78 32 106.5 60t28.5 66q0 48 -29 74.5t-78 26.5t-79 -25.5t-30 -68.5z" />
    <glyph glyph-name="ampersand.ss10" horiz-adv-x="499" 
d="M445 82l23 -49q-73 -35 -158 -41v-59h-53v59q-207 6 -207 145q0 109 121 136q-89 29 -89 118q0 141 168 151v69h53v-68q77 -5 139 -28l-20 -50q-72 22 -139 22q-142 0 -142 -100q0 -48 37.5 -69t119.5 -21h72v-51h-83q-89 0 -131 -23.5t-42 -77.5q0 -98 165 -98
q84 0 166 35z" />
    <glyph glyph-name="copyright.ss11" 
d="M243 244q-79 0 -133.5 55t-54.5 133t54.5 133t133.5 55q78 0 132.5 -55t54.5 -133t-54.5 -133t-132.5 -55zM243 268q67 0 115.5 48t48.5 116t-48.5 116.5t-115.5 48.5q-68 0 -116 -48.5t-48 -116.5t48 -116t116 -48zM314 383l15 -22q-37 -34 -86 -34q-44 0 -73 27.5
t-29 73.5q0 51 26.5 79t73.5 28q42 0 82 -26l-13 -24q-36 20 -66 20q-67 0 -67 -77q0 -33 19 -52t50 -19q35 0 68 26z" />
    <glyph glyph-name="registered.ss12" 
d="M243 244q-79 0 -133.5 55t-54.5 133t54.5 133t133.5 55q78 0 132.5 -55t54.5 -133t-54.5 -133t-132.5 -55zM243 268q67 0 115.5 48t48.5 116t-48.5 116.5t-115.5 48.5q-68 0 -116 -48.5t-48 -116.5t48 -116t116 -48zM165 536h78q87 0 87 -66q0 -51 -45 -57q24 -12 52 -82
h-37q-32 73 -53 73h-51v-73h-31v205zM198 430h59q19 0 29.5 10.5t10.5 28.5q0 40 -54 40h-45v-79z" />
    <glyph glyph-name="caron.alt" 
d="M262 677v-13q-6 -85 -25 -152h-40l7 165h58z" />
    <glyph glyph-name="acute.case" 
d="M338 779l-1 -14q-43 -39 -69.5 -59t-69.5 -43l-22 22l108 130z" />
    <glyph glyph-name="breve.case" 
d="M326 788h51q0 -119 -135 -119q-133 0 -133 119h50q5 -69 83 -69q77 0 84 69z" />
    <glyph glyph-name="caron.case" 
d="M268 666h-51l-120 112l27 27l119 -84l118 84l27 -27z" />
    <glyph glyph-name="circumflex.case" 
d="M243 742l-119 -85l-27 27l120 112h51l120 -112l-27 -27z" />
    <glyph glyph-name="dieresis.case" 
d="M151 770q19 0 31 -11.5t12 -30.5t-12 -30t-31 -11q-17 0 -29.5 11t-12.5 30t12.5 30.5t29.5 11.5zM334 770q18 0 30 -11.5t12 -30.5t-12 -30t-30 -11q-19 0 -31 11t-12 30t12 30.5t31 11.5z" />
    <glyph glyph-name="dotaccent.case" 
d="M243 776q20 0 34 -13t14 -35t-14 -35t-34 -13q-22 0 -36 13t-14 35t14 35t36 13z" />
    <glyph glyph-name="grave.case" 
d="M307 678l-22 -22q-43 24 -69.5 43.5t-69.5 57.5l-1 14l55 36z" />
    <glyph glyph-name="hungarumlaut.case" 
d="M283 789v-15q-76 -71 -123 -106l-29 16l101 131zM411 789l-1 -15q-80 -75 -123 -106l-29 16l102 131z" />
    <glyph glyph-name="macron.case" 
d="M359 698h-233v59h233v-59z" />
    <glyph glyph-name="ring.case" 
d="M243 841q41 0 67 -26t26 -68q0 -39 -26.5 -63.5t-67.5 -24.5t-66.5 24.5t-25.5 63.5q0 43 26 68.5t67 25.5zM242 699q24 0 38.5 13t14.5 35q0 25 -14.5 39.5t-37.5 14.5q-24 0 -38 -14.5t-14 -39.5q0 -22 14 -35t37 -13z" />
    <glyph glyph-name="tilde.case" 
d="M358 775l37 -10q-14 -57 -55 -77t-80 3l-55 28q-53 26 -77 -31l-37 10q14 56 53.5 73.5t80.5 -5.5l55 -26q54 -26 78 35z" />
    </font>
</defs>
</svg>
