<?xml version="1.0" standalone="no"?>
<!DOCTYPE svg PUBLIC "-//W3C//DTD SVG 1.1//EN" "http://www.w3.org/Graphics/SVG/1.1/DTD/svg11.dtd" >
<svg>
<metadata>
Created by FontForge 20090622 at Thu Jun 16 15:08:50 2016
 By deploy user
Copyright &#194;&#169; 2013 by Rene Bieder. All rights reserved.
</metadata>
<defs>
<font id="Gentona-Book" horiz-adv-x="558" >
  <font-face 
    font-family="Gentona Book"
    font-weight="400"
    font-stretch="normal"
    units-per-em="1000"
    panose-1="0 0 5 0 0 0 0 0 0 0"
    ascent="800"
    descent="-200"
    x-height="471"
    cap-height="610"
    bbox="-98 -240 1183 875"
    underline-thickness="50"
    underline-position="-50"
    unicode-range="U+0020-U+FB02"
  />
<missing-glyph horiz-adv-x="753" 
d="M659 0h-565v610h565v-610zM134 570v-530h485v530h-485zM344 236l-5 66q109 12 109 76q0 26 -18 41.5t-48 15.5q-45 0 -106 -22l-11 29q65 26 117 26q46 0 75 -24.5t29 -65.5t-30.5 -67t-78.5 -33v-42h-33zM360 179q22 0 22 -22q0 -24 -22 -24q-23 0 -23 24q0 22 23 22z
" />
    <glyph glyph-name="fi" unicode="fi" horiz-adv-x="562" 
d="M488 0h-90v396h-219v-396h-90v396h-68v76h68v37q0 84 36.5 123.5t119.5 39.5q31 0 109 -12l-8 -67q-57 5 -86 5q-46 0 -63.5 -21t-17.5 -68v-37h309v-472zM445 559q-23 0 -38.5 13.5t-15.5 36.5q0 24 15.5 37t38.5 13t38.5 -13t15.5 -37q0 -23 -15.5 -36.5t-38.5 -13.5z
" />
    <glyph glyph-name="fl" unicode="fl" horiz-adv-x="557" 
d="M487 0h-90v588q-82 10 -137 10q-46 0 -63.5 -21t-17.5 -68v-37h143v-76h-143v-396h-90v396h-68v76h68v37q0 84 36.5 123.5t119.5 39.5q39 0 152 -21v17h90v-668z" />
    <glyph glyph-name="f_f" unicode="ff" horiz-adv-x="657" 
d="M663 663l-7 -68q-31 3 -70 3q-46 0 -64.5 -21.5t-18.5 -67.5v-37h145v-76h-145v-396h-90v396h-236v-396h-90v396h-66v76h66v37q0 84 37.5 123.5t120.5 39.5q55 0 92 -9l-7 -68q-31 3 -70 3q-46 0 -64.5 -21.5t-18.5 -67.5v-37h236v37q0 84 37.5 123.5t120.5 39.5
q55 0 92 -9z" />
    <glyph glyph-name="f_f_i" unicode="ffi" horiz-adv-x="880" 
d="M497 472h310v-472h-90v396h-220v-396h-90v396h-230v-396h-90v396h-66v76h66v37q0 84 37.5 123.5t120.5 39.5q55 0 92 -9l-7 -68q-31 3 -70 3q-46 0 -64.5 -21.5t-18.5 -67.5v-37h230v37q0 84 36.5 123.5t119.5 39.5q36 0 103 -11l-7 -63q-55 5 -81 5q-46 0 -63.5 -23.5
t-17.5 -70.5v-37zM763 559q-23 0 -38.5 13.5t-15.5 36.5q0 24 15.5 37t38.5 13t38.5 -13t15.5 -37q0 -23 -15.5 -36.5t-38.5 -13.5z" />
    <glyph glyph-name="f_f_l" unicode="ffl" horiz-adv-x="872" 
d="M802 667v-667h-90v588q-82 10 -138 10q-46 0 -63 -21t-17 -68v-37h142v-76h-142v-396h-90v396h-227v-396h-90v396h-66v76h66v37q0 83 37.5 123t120.5 40q47 0 92 -9l-7 -68q-31 3 -70 3q-46 0 -64.5 -21.5t-18.5 -67.5v-37h227v37q0 83 36.5 123t118.5 40q41 0 153 -21
v17z" />
    <glyph glyph-name=".notdef" horiz-adv-x="753" 
d="M659 0h-565v610h565v-610zM134 570v-530h485v530h-485zM344 236l-5 66q109 12 109 76q0 26 -18 41.5t-48 15.5q-45 0 -106 -22l-11 29q65 26 117 26q46 0 75 -24.5t29 -65.5t-30.5 -67t-78.5 -33v-42h-33zM360 179q22 0 22 -22q0 -24 -22 -24q-23 0 -23 24q0 22 23 22z
" />
    <glyph glyph-name=".null" horiz-adv-x="0" 
 />
    <glyph glyph-name="nonmarkingreturn" horiz-adv-x="333" 
 />
    <glyph glyph-name="space" unicode=" " horiz-adv-x="220" 
 />
    <glyph glyph-name="exclam" unicode="!" horiz-adv-x="220" 
d="M74 199l-13 411h97l-13 -411h-71zM110 91q21 0 34 -13t13 -34t-13 -34.5t-34 -13.5t-34 13.5t-13 34.5q0 20 13 33.5t34 13.5z" />
    <glyph glyph-name="quotedbl" unicode="&#x22;" horiz-adv-x="319" 
d="M144 653l-24 -256h-60v256h84zM265 653l-24 -256h-60v256h84z" />
    <glyph glyph-name="numbersign" unicode="#" horiz-adv-x="691" 
d="M478 195h124l-13 -66h-126l-30 -129h-73l30 129h-158l-30 -129h-73l30 129h-116l13 66h118l38 161h-117l13 66h119l30 128h73l-30 -128h158l30 128h73l-30 -128h123l-13 -66h-125zM285 356l-38 -161h158l38 161h-158z" />
    <glyph glyph-name="dollar" unicode="$" horiz-adv-x="529" 
d="M455 495l-22 -64q-115 48 -188 48q-45 0 -71.5 -19.5t-26.5 -50.5q0 -35 28 -53.5t123 -47.5q99 -30 138.5 -67t39.5 -99q0 -67 -51 -108t-139 -43v-57h-61v60q-107 14 -193 81l33 64q100 -78 212 -78q52 0 81.5 21.5t29.5 56.5q0 37 -30.5 57.5t-125.5 51.5
q-98 31 -135 65t-37 96q0 60 44 97t120 40v65h62v-67q77 -9 169 -49z" />
    <glyph glyph-name="percent" unicode="%" horiz-adv-x="843" 
d="M193 620q75 0 114 -46.5t39 -136.5q0 -89 -39 -135t-114 -46q-152 0 -152 181q0 183 152 183zM622 610l-355 -610h-55l354 610h56zM193 311q92 0 92 126q0 128 -92 128q-91 0 -91 -128q0 -126 91 -126zM650 355q152 0 152 -183q0 -181 -152 -181q-75 0 -114 46t-39 135
q0 90 39 136.5t114 46.5zM650 47q91 0 91 125q0 128 -91 128t-91 -128q0 -125 91 -125z" />
    <glyph glyph-name="ampersand" unicode="&#x26;" horiz-adv-x="646" 
d="M578 0l-96 79q-81 -88 -198 -88q-114 0 -176 45t-62 129q0 51 33 86.5t109 71.5q-46 43 -63.5 77.5t-17.5 75.5q0 67 48.5 105.5t131.5 38.5q76 0 121 -39.5t45 -107.5q0 -110 -135 -165l153 -124q22 30 63 104l61 -37q-40 -74 -68 -113l94 -76zM189 473q0 -31 16 -56.5
t56 -62.5q69 29 95.5 54t26.5 60q0 44 -25.5 67.5t-69.5 23.5t-71.5 -23.5t-27.5 -62.5zM425 126l-183 151q-57 -25 -82.5 -48t-25.5 -54q0 -53 41.5 -83t108.5 -30q81 0 141 64z" />
    <glyph glyph-name="quotesingle" unicode="'" horiz-adv-x="197" 
d="M149 653l-24 -256h-60v256h84z" />
    <glyph glyph-name="parenleft" unicode="(" horiz-adv-x="316" 
d="M234 660l56 -34q-127 -180 -127 -383t127 -383l-56 -34q-153 185 -153 417t153 417z" />
    <glyph glyph-name="parenright" unicode=")" horiz-adv-x="313" 
d="M29 626l56 34q153 -185 153 -417t-153 -417l-56 34q127 178 127 383t-127 383z" />
    <glyph glyph-name="asterisk" unicode="*" horiz-adv-x="422" 
d="M334 329l-35 -30l-88 95l-89 -95l-34 30l74 100l-113 48l14 43l117 -34l6 124h49l7 -125l117 35l15 -43l-115 -48z" />
    <glyph glyph-name="plus" unicode="+" horiz-adv-x="475" 
d="M269 204v-166h-66v166h-167v67h167v167h66v-167h168v-67h-168z" />
    <glyph glyph-name="comma" unicode="," horiz-adv-x="256" 
d="M81 -128l-24 27q49 42 62 100q-41 10 -41 52q0 24 15 39.5t39 15.5t39.5 -17t15.5 -43q0 -101 -106 -174z" />
    <glyph glyph-name="hyphen" unicode="-" horiz-adv-x="394" 
d="M331 321v-80h-268v80h268z" />
    <glyph glyph-name="period" unicode="." horiz-adv-x="248" 
d="M69 51q0 24 15 39.5t40 15.5t40 -15.5t15 -39.5t-15.5 -39.5t-39.5 -15.5t-39.5 15.5t-15.5 39.5z" />
    <glyph glyph-name="slash" unicode="/" horiz-adv-x="420" 
d="M369 662l-262 -868h-76l260 868h78z" />
    <glyph glyph-name="zero" unicode="0" horiz-adv-x="615" 
d="M307 620q128 0 194.5 -81.5t66.5 -234.5q0 -151 -66.5 -232t-194.5 -81q-127 0 -193.5 81t-66.5 232q0 153 66 234.5t194 81.5zM307 74q168 0 168 230q0 233 -168 233q-167 0 -167 -233q0 -230 167 -230z" />
    <glyph glyph-name="one" unicode="1" horiz-adv-x="484" 
d="M435 0h-370v78h150v427q-71 -26 -136 -38l-18 56q105 39 173 87h72v-532h129v-78z" />
    <glyph glyph-name="two" unicode="2" horiz-adv-x="520" 
d="M492 0h-453v66l100.5 81t99.5 80.5t72 66.5t57.5 71t16.5 61q0 55 -32 85.5t-89 30.5q-94 0 -205 -53l-26 66q138 65 246 65q93 0 146.5 -51.5t53.5 -140.5q0 -44 -21 -85t-66 -83.5t-87.5 -75.5l-111.5 -83l-38 -27q68 4 95 4h242v-78z" />
    <glyph glyph-name="three" unicode="3" horiz-adv-x="533" 
d="M62 497l-21 62q122 58 241 58q89 0 145 -46.5t56 -121.5q0 -49 -27.5 -84.5t-72.5 -51.5q118 -40 118 -146q0 -81 -60.5 -128.5t-161.5 -47.5q-140 0 -253 61l26 64q106 -51 224 -51q63 0 100 28t37 76q0 105 -161 105h-88v78h88q146 0 146 85q0 49 -34.5 78.5
t-92.5 29.5q-95 0 -209 -48z" />
    <glyph glyph-name="four" unicode="4" horiz-adv-x="599" 
d="M476 0h-91v136h-354l-3 70l357 404h91v-395h102v-79h-102v-136zM385 215v284q-26 -35 -51 -63l-141 -158q-32 -38 -59 -63h251z" />
    <glyph glyph-name="five" unicode="5" horiz-adv-x="543" 
d="M167 532l-16 -197q81 38 156 38q91 0 144.5 -49.5t53.5 -134.5q0 -91 -64 -144.5t-164 -53.5q-138 0 -251 61l26 67q107 -50 214 -50q67 0 109 34t42 90q0 53 -37 85.5t-99 32.5q-67 0 -140 -41l-76 12l23 328h394v-78h-315z" />
    <glyph glyph-name="six" unicode="6" horiz-adv-x="569" 
d="M510 587l-23 -66q-75 24 -140 24q-92 -1 -149 -65.5t-62 -175.5q72 87 197 87q92 0 147.5 -52t55.5 -138q0 -99 -62 -154.5t-167 -55.5q-127 0 -193.5 76t-66.5 213q0 154 82.5 246.5t213.5 93.5q89 0 167 -33zM307 65q63 0 103 37t40 103q0 57 -39 91t-104 34
q-56 0 -100.5 -27.5t-67.5 -71.5q22 -166 168 -166z" />
    <glyph glyph-name="seven" unicode="7" horiz-adv-x="464" 
d="M458 610v-69q-82 -105 -152 -252t-108 -289h-107q44 144 114 287.5t152 244.5h-345v78h446z" />
    <glyph glyph-name="eight" unicode="8" horiz-adv-x="582" 
d="M394 325q79 -23 116 -62t37 -98q0 -82 -67.5 -128t-184.5 -46q-129 0 -194.5 45t-65.5 129q0 109 140 154q-112 44 -112 139q0 75 62.5 118.5t170.5 43.5q104 0 163 -42.5t59 -115.5q0 -99 -124 -137zM292 559q-63 0 -101.5 -28t-38.5 -72t35 -70.5t116 -43.5
q130 27 130 116q0 44 -39 71t-102 27zM288 62q75 0 118.5 28.5t43.5 78.5q0 48 -43.5 77t-149.5 49q-134 -34 -134 -124q0 -51 44.5 -80t120.5 -29z" />
    <glyph glyph-name="nine" unicode="9" horiz-adv-x="569" 
d="M67 31l24 65q71 -29 143 -29q186 0 195 236q-72 -85 -193 -85q-91 0 -147 53t-56 139q0 99 63 154.5t172 55.5q121 0 185.5 -76t64.5 -213q0 -166 -72.5 -253t-208.5 -87q-56 0 -91 8.5t-79 31.5zM262 281q52 0 95.5 26.5t69.5 67.5q-9 83 -49.5 127t-109.5 44
q-67 0 -108 -36.5t-41 -103.5q0 -57 39 -91t104 -34z" />
    <glyph glyph-name="colon" unicode=":" horiz-adv-x="248" 
d="M69 382q0 24 15 39.5t40 15.5t40 -15.5t15 -39.5t-15.5 -39.5t-39.5 -15.5t-39.5 15.5t-15.5 39.5zM69 51q0 24 15 39.5t40 15.5t40 -15.5t15 -39.5t-15.5 -39.5t-39.5 -15.5t-39.5 15.5t-15.5 39.5z" />
    <glyph glyph-name="semicolon" unicode=";" horiz-adv-x="256" 
d="M70 382q0 24 15 39.5t39 15.5t39.5 -15.5t15.5 -39.5t-15 -39.5t-40 -15.5q-24 0 -39 15.5t-15 39.5zM76 -128l-24 27q49 42 62 100q-41 10 -41 52q0 24 15 39.5t39 15.5t39.5 -17t15.5 -43q0 -101 -106 -174z" />
    <glyph glyph-name="less" unicode="&#x3c;" horiz-adv-x="402" 
d="M343 403l-160 -132q-6 -4 -17.5 -12.5t-17.5 -12.5l36 -26l159 -132l-41 -47l-252 205l251 206z" />
    <glyph glyph-name="equal" unicode="=" horiz-adv-x="465" 
d="M36 292v59h391v-59h-391zM36 143v59h391v-59h-391z" />
    <glyph glyph-name="greater" unicode="&#x3e;" horiz-adv-x="404" 
d="M65 403l42 49l251 -206l-252 -205l-41 47l159 132l36 26q-6 4 -17.5 12.5t-17.5 12.5z" />
    <glyph glyph-name="question" unicode="?" horiz-adv-x="513" 
d="M49 484l-26 71q138 65 246 65q90 0 145 -51t55 -134q0 -71 -55 -118t-158 -64l3 -71h-74l-13 138q98 8 150.5 35.5t52.5 70.5q0 50 -33 80.5t-88 30.5q-94 0 -205 -53zM223 91q21 0 34 -13t13 -34t-13 -34.5t-34 -13.5t-34 13.5t-13 34.5q0 20 13 33.5t34 13.5z" />
    <glyph glyph-name="at" unicode="@" horiz-adv-x="911" 
d="M647 415v-306q0 -39 12 -55t36 -16q47 0 85.5 52t39.5 162q0 149 -94.5 238t-255.5 89q-168 0 -273.5 -103.5t-105.5 -270.5q0 -163 99.5 -260.5t262.5 -97.5q131 0 242 57l17 -34q-108 -67 -259 -67q-183 0 -294.5 110.5t-111.5 291.5q0 185 118.5 300t304.5 115
q179 0 286.5 -101.5t107.5 -266.5q-1 -73 -19 -126.5t-47.5 -81.5t-59.5 -40.5t-62 -12.5q-84 0 -102 70q-41 -37 -78 -53.5t-89 -16.5q-166 0 -166 218q0 214 177 214q78 0 151 -51v43h78zM569 125v174q-66 57 -127 57q-125 0 -125 -147q0 -85 29.5 -120t85.5 -35
q38 0 67.5 17t69.5 54z" />
    <glyph glyph-name="A" unicode="A" horiz-adv-x="660" 
d="M173 144l-59 -144h-99l254 610h123l254 -610h-99l-59 144h-315zM453 229l-100 243q-13 37 -23 73q-10 -36 -23 -73l-100 -243h246z" />
    <glyph glyph-name="B" unicode="B" horiz-adv-x="596" 
d="M84 610h205q117 0 173 -41t56 -127q0 -93 -98 -123q68 -16 103 -54.5t35 -94.5q0 -87 -63 -128.5t-194 -41.5h-217v610zM176 524v-167h148q51 0 79 20.5t28 57.5q0 89 -142 89h-113zM176 272v-185h127q160 0 160 88q0 47 -36 72t-103 25h-148z" />
    <glyph glyph-name="C" unicode="C" horiz-adv-x="621" 
d="M550 136l35 -71q-103 -74 -251 -74q-136 0 -211.5 82t-75.5 231q0 152 77 234t220 82q125 0 217 -53l-29 -70q-87 37 -185 37q-101 0 -153.5 -58.5t-52.5 -171.5q0 -107 52 -167t145 -60q118 0 212 59z" />
    <glyph glyph-name="D" unicode="D" horiz-adv-x="654" 
d="M84 610h192q159 0 245 -78t86 -222q0 -149 -86 -229.5t-245 -80.5h-192v610zM176 86h100q114 0 175.5 58.5t61.5 165.5q0 103 -61.5 158.5t-175.5 55.5h-100v-438z" />
    <glyph glyph-name="E" unicode="E" horiz-adv-x="564" 
d="M505 0h-421v610h412v-86h-320v-175h279v-86h-279v-177h329v-86z" />
    <glyph glyph-name="F" unicode="F" horiz-adv-x="522" 
d="M176 333h271v-86h-271v-247h-92v610h403v-86h-311v-191z" />
    <glyph glyph-name="G" unicode="G" horiz-adv-x="669" 
d="M611 317v-243q-133 -83 -284 -83q-131 0 -205.5 82t-74.5 231q0 147 78 231.5t215 84.5q130 0 242 -45l-26 -76q-102 35 -208 35q-99 0 -153 -59.5t-54 -169.5q0 -111 50 -169.5t140 -58.5q120 0 192 47v109h-205v84h293z" />
    <glyph glyph-name="H" unicode="H" horiz-adv-x="683" 
d="M599 0h-92v268h-331v-268h-92v610h92v-256h331v256h92v-610z" />
    <glyph glyph-name="I" unicode="I" horiz-adv-x="260" 
d="M176 0h-92v610h92v-610z" />
    <glyph glyph-name="J" unicode="J" horiz-adv-x="480" 
d="M399 610v-399q0 -99 -52 -159.5t-137 -60.5q-87 0 -189 52l26 75q87 -37 144 -37q52 0 84 35.5t32 94.5v399h92z" />
    <glyph glyph-name="K" unicode="K" horiz-adv-x="638" 
d="M303 284l-127 -139v-145h-92v610h92v-335l311 335h109v-6l-233 -253l250 -344v-7h-102z" />
    <glyph glyph-name="L" unicode="L" horiz-adv-x="507" 
d="M475 0h-391v610h92v-522h299v-88z" />
    <glyph glyph-name="M" unicode="M" horiz-adv-x="835" 
d="M659 0l-13 409v33l-192 -442h-73l-191 442v-31l-14 -411h-93l22 610h111l188 -439q5 -12 13 -37q6 19 14 37l188 439h112l22 -610h-94z" />
    <glyph glyph-name="N" unicode="N" horiz-adv-x="690" 
d="M606 0h-84l-346 453v-453h-92v610h84l346 -455v455h92v-610z" />
    <glyph glyph-name="O" unicode="O" horiz-adv-x="675" 
d="M337 620q139 0 215 -82t76 -234q0 -150 -76.5 -231.5t-214.5 -81.5t-214 81.5t-76 231.5q0 152 76 234t214 82zM337 77q95 0 146 58t51 169q0 113 -51 171.5t-146 58.5q-94 0 -145 -59t-51 -171q0 -111 51 -169t145 -58z" />
    <glyph glyph-name="P" unicode="P" horiz-adv-x="576" 
d="M84 610h211q120 0 185 -56.5t65 -161.5q0 -104 -64 -160.5t-182 -56.5h-123v-175h-92v610zM176 261h122q76 0 117 34t40 97q0 63 -42 97.5t-118 34.5h-119v-263z" />
    <glyph glyph-name="Q" unicode="Q" horiz-adv-x="667" 
d="M620 304q0 -150 -74.5 -231.5t-211.5 -81.5q-138 0 -212.5 81.5t-74.5 231.5q0 152 74.5 234t212.5 82q137 0 211.5 -82t74.5 -234zM141 304q0 -112 49 -169.5t144 -57.5q94 0 143 57.5t49 169.5q0 113 -49 171.5t-143 58.5q-95 0 -144 -58.5t-49 -171.5zM269 -101l18 53
q71 -36 135 -50.5t153 -14.5v-73q-171 0 -306 85z" />
    <glyph glyph-name="R" unicode="R" horiz-adv-x="599" 
d="M574 7v-7h-101l-155 192h-142v-192h-92v610h225q121 0 186 -55t65 -156q0 -71 -39.5 -122.5t-109.5 -72.5zM176 278h135q74 0 114.5 31.5t40.5 89.5q0 59 -40.5 91.5t-114.5 33.5h-135v-246z" />
    <glyph glyph-name="S" unicode="S" horiz-adv-x="549" 
d="M479 572l-28 -74q-101 41 -196 41q-46 0 -73 -22t-27 -52q0 -50 42 -74q19 -10 121 -44q92 -30 135 -67.5t43 -112.5q0 -86 -55.5 -131t-141.5 -45q-63 0 -136 21.5t-132 54.5l36 72q131 -64 228 -64q49 0 77.5 20t28.5 58q0 48 -32 72t-130 53q-45 14 -70 24t-54 29.5
t-42 50.5t-13 74q0 74 53 119t143 45q110 0 223 -48z" />
    <glyph glyph-name="T" unicode="T" horiz-adv-x="546" 
d="M532 524h-213v-524h-92v524h-213v86h518v-86z" />
    <glyph glyph-name="U" unicode="U" horiz-adv-x="663" 
d="M592 610v-332q0 -138 -67.5 -212.5t-192.5 -74.5t-192.5 74.5t-67.5 212.5v332h92v-332q0 -96 43.5 -147.5t124.5 -51.5t124.5 51t43.5 148v332h92z" />
    <glyph glyph-name="V" unicode="V" horiz-adv-x="638" 
d="M372 0h-106l-251 610h103l178 -443q14 -37 23 -75q10 37 23 75l182 443h100z" />
    <glyph glyph-name="W" unicode="W" horiz-adv-x="892" 
d="M702 0h-134l-107 399q-1 6 -4 20.5l-6 28t-5 26.5q-2 -16 -14 -75l-108 -399h-134l-175 610h103l122 -443q10 -43 14 -84l18 84l123 443h102l123 -443q10 -42 17 -83q7 47 15 83l123 443h103z" />
    <glyph glyph-name="X" unicode="X" horiz-adv-x="605" 
d="M585 0h-111l-155 232q-14 21 -16 25q-3 -5 -9 -13.5l-8 -11.5l-155 -232h-111l210 311l-204 299h113l147 -216l17 -26q3 6 16 26l147 216h112l-205 -299z" />
    <glyph glyph-name="Y" unicode="Y" horiz-adv-x="580" 
d="M336 200v-200h-92v200l-226 410h94l155 -271q8 -13 23 -52q9 27 23 52l155 271h94z" />
    <glyph glyph-name="Z" unicode="Z" horiz-adv-x="588" 
d="M546 0h-497v71l374 456q-99 -3 -100 -3h-255v86h473v-75l-362 -452l96 3h271v-86z" />
    <glyph glyph-name="bracketleft" unicode="[" horiz-adv-x="362" 
d="M335 589h-157v-694h157v-71h-239v836h239v-71z" />
    <glyph glyph-name="backslash" unicode="\" horiz-adv-x="420" 
d="M395 -206h-76l-262 868h78z" />
    <glyph glyph-name="bracketright" unicode="]" horiz-adv-x="362" 
d="M273 660v-836h-239v71h157v694h-157v71h239z" />
    <glyph glyph-name="asciicircum" unicode="^" horiz-adv-x="477" 
d="M356 343l-90 182q-19 35 -27 64h-2q-9 -33 -26 -64l-90 -182h-72l160 310h59l160 -310h-72z" />
    <glyph glyph-name="underscore" unicode="_" horiz-adv-x="465" 
d="M57 -119v67h351v-67h-351z" />
    <glyph glyph-name="grave" unicode="`" horiz-adv-x="488" 
d="M315 568l-29 -29q-51 27 -79.5 47t-73.5 57l-1 18l74 47z" />
    <glyph glyph-name="a" unicode="a" horiz-adv-x="513" 
d="M99 376l-15 73q121 32 192 32q97 0 135.5 -45.5t38.5 -152.5v-283h-90v59q-40 -32 -77 -50t-86 -18q-81 0 -120.5 34t-39.5 109q0 151 197 151q82 0 126 -1q0 70 -19.5 93.5t-79.5 23.5q-61 0 -162 -25zM360 220h-115q-66 0 -95.5 -16.5t-29.5 -60.5q0 -85 103 -85
q72 0 137 72v90z" />
    <glyph glyph-name="b" unicode="b" horiz-adv-x="564" 
d="M160 653v-246q78 73 175 73q187 0 187 -242q0 -125 -57 -186t-141 -61q-55 0 -90 17t-74 54v-62h-90v653h90zM160 325v-179q72 -80 138 -80q59 0 97.5 42t38.5 130q0 167 -127 167q-73 0 -147 -80z" />
    <glyph glyph-name="c" unicode="c" horiz-adv-x="495" 
d="M432 119l33 -60q-51 -39 -95.5 -53.5t-108.5 -14.5q-98 0 -158.5 66.5t-60.5 175.5q0 112 64 180t169 68q94 0 172 -46l-31 -61q-63 31 -140 31q-65 0 -105 -47.5t-40 -124.5q0 -75 38.5 -120t103.5 -45q82 0 159 51z" />
    <glyph glyph-name="d" unicode="d" horiz-adv-x="565" 
d="M405 0v62q-39 -36 -74.5 -53.5t-90.5 -17.5q-84 0 -141 61t-57 186q0 243 187 243q101 0 176 -70v242h90v-653h-90zM405 146v179q-67 80 -147 80q-127 0 -127 -167q0 -88 38 -130t97 -42q42 0 72.5 20.5t66.5 59.5z" />
    <glyph glyph-name="e" unicode="e" horiz-adv-x="524" 
d="M442 121l33 -58q-49 -39 -96.5 -55.5t-111.5 -16.5q-102 0 -163.5 60t-61.5 181q0 125 62.5 187t166.5 62q98 0 153 -59.5t57 -169.5q0 -23 -3 -41h-350q11 -148 143 -148q88 0 171 58zM130 281h271q-11 127 -130 127q-57 0 -94.5 -31t-46.5 -96z" />
    <glyph glyph-name="f" unicode="f" horiz-adv-x="330" 
d="M337 663l-7 -68q-31 3 -70 3q-46 0 -64.5 -21.5t-18.5 -67.5v-37h145v-76h-145v-396h-90v396h-66v76h66v37q0 84 37.5 123.5t120.5 39.5q55 0 92 -9z" />
    <glyph glyph-name="g" unicode="g" horiz-adv-x="550" 
d="M495 472l-1 -400q0 -232 -215 -232q-119 0 -209 50l26 68q85 -38 172 -38q68 0 102 35t34 117v20q-36 -37 -73.5 -54t-94.5 -17q-86 0 -140 55t-54 165q0 240 187 240q91 0 176 -69v60h90zM404 173v152q-75 80 -147 80q-127 0 -127 -164q0 -78 38 -113.5t98 -35.5
q42 0 72.5 20.5t65.5 60.5z" />
    <glyph glyph-name="h" unicode="h" horiz-adv-x="556" 
d="M160 653v-256q85 83 183 83q79 0 113 -44t34 -141v-295h-90v268q0 69 -16.5 96.5t-67.5 27.5q-80 0 -156 -87v-305h-90v653h90z" />
    <glyph glyph-name="i" unicode="i" horiz-adv-x="235" 
d="M63 609q0 24 15.5 37t38.5 13t38.5 -13t15.5 -37q0 -23 -15.5 -36.5t-38.5 -13.5t-38.5 13.5t-15.5 36.5zM163 0h-90v472h90v-472z" />
    <glyph glyph-name="j" unicode="j" horiz-adv-x="235" 
d="M117 559q-23 0 -38.5 13.5t-15.5 36.5q0 24 15.5 37t38.5 13t38.5 -13t15.5 -37q0 -23 -15.5 -36.5t-38.5 -13.5zM162 472v-443q0 -87 -28.5 -133.5t-99.5 -64.5l-20 71q35 17 46.5 42.5t11.5 84.5v443h90z" />
    <glyph glyph-name="k" unicode="k" horiz-adv-x="524" 
d="M492 472v-6l-185 -187l211 -272v-7h-106l-171 213l-81 -82v-131h-90v653h90v-404l222 223h110z" />
    <glyph glyph-name="l" unicode="l" horiz-adv-x="229" 
d="M160 0h-90v653h90v-653z" />
    <glyph glyph-name="m" unicode="m" horiz-adv-x="846" 
d="M160 472l-1 -70q81 78 160 78q110 0 138 -91q48 49 88 70t85 21q150 0 150 -185v-295h-90v273q0 66 -15.5 94.5t-59.5 28.5q-64 0 -144 -83v-313h-90v273q0 66 -16.5 94.5t-60.5 28.5q-71 0 -144 -83v-313h-90v472h90z" />
    <glyph glyph-name="n" unicode="n" horiz-adv-x="556" 
d="M160 472v-69q85 77 173 77q81 0 119 -44.5t38 -140.5v-295h-90v273q0 69 -16.5 96t-67.5 27q-83 0 -156 -84v-312h-90v472h90z" />
    <glyph glyph-name="o" unicode="o" 
d="M279 481q107 0 172 -68t65 -180q0 -109 -65.5 -175.5t-172.5 -66.5q-106 0 -171 66.5t-65 175.5q0 112 65 180t172 68zM278 68q68 0 109 45.5t41 119.5q0 77 -41 124t-108 47t-108 -47t-41 -124q0 -74 40.5 -119.5t107.5 -45.5z" />
    <glyph glyph-name="p" unicode="p" horiz-adv-x="564" 
d="M160 472v-59q83 67 175 67q187 0 187 -243q0 -124 -57 -185t-141 -61q-54 0 -89 17t-75 52v-222h-90v634h90zM160 326v-181q71 -79 148 -79q57 0 91 41t34 130q0 90 -29 129t-87 39q-40 0 -83.5 -23t-73.5 -56z" />
    <glyph glyph-name="q" unicode="q" horiz-adv-x="564" 
d="M494 -162h-90v221q-39 -35 -74.5 -51.5t-89.5 -16.5q-84 0 -141 61t-57 185q0 243 187 243q97 0 176 -66v58h90zM404 143v185q-71 77 -147 77q-126 0 -126 -167q0 -88 38 -130t97 -42q42 0 73 20t65 57z" />
    <glyph glyph-name="r" unicode="r" horiz-adv-x="379" 
d="M160 472v-92q19 45 57 72.5t84 27.5q33 0 60 -3l-6 -89q-24 2 -57 2q-48 0 -84 -31t-54 -87v-272h-90v472h90z" />
    <glyph glyph-name="s" unicode="s" horiz-adv-x="446" 
d="M392 440l-24 -68q-101 38 -154 38q-79 0 -79 -59q0 -9 2 -16t8.5 -13t11 -9.5t16.5 -8.5t18.5 -7l23.5 -7t25 -8q96 -31 131 -59.5t35 -96.5q0 -63 -46 -99t-124 -36q-113 0 -207 69l38 63q43 -30 80 -43.5t88 -13.5q40 0 63.5 15t23.5 44q0 13 -2 22.5t-8.5 17t-12 12
t-19.5 10t-22.5 8.5t-30.5 9.5l-35 10.5q-76 24 -108.5 51.5t-32.5 81.5q0 65 43 99.5t122 34.5q77 0 176 -42z" />
    <glyph glyph-name="t" unicode="t" horiz-adv-x="362" 
d="M330 84l10 -66q-62 -22 -110 -22q-75 0 -108 37.5t-33 120.5v242h-71v76h71v118h90v-118h140v-76h-140v-239q0 -46 18 -62t63 -16q35 0 70 5z" />
    <glyph glyph-name="u" unicode="u" horiz-adv-x="554" 
d="M394 0v68q-95 -77 -177 -77q-79 0 -116.5 45.5t-37.5 141.5v294h90v-273q0 -67 20.5 -96.5t72.5 -29.5q76 0 148 88v311h90v-472h-90z" />
    <glyph glyph-name="v" unicode="v" horiz-adv-x="518" 
d="M309 0h-100l-201 472h92l134 -303q2 -4 25 -74q14 48 26 74l133 303h92z" />
    <glyph glyph-name="w" unicode="w" horiz-adv-x="729" 
d="M569 0h-110l-94 323l-94 -323h-111l-150 472h87l104 -315q10 -40 15 -64q15 58 17 64l89 315h86l88 -315l8.5 -32.5t8.5 -31.5q6 28 16 64l103 315h87z" />
    <glyph glyph-name="x" unicode="x" horiz-adv-x="486" 
d="M376 0l-106 143q-26 39 -27 41q-10 -17 -28 -41l-105 -143h-99l168 238l-164 234h101l99 -140q18 -24 28 -41q1 2 27 41l100 139h101l-164 -233l167 -238h-98z" />
    <glyph glyph-name="y" unicode="y" horiz-adv-x="510" 
d="M402 471h99q-114 -282 -170 -392q-90 -173 -229 -228l-32 77q78 37 123 90l-190 453h94l123 -292q1 -1 29 -74q41 81 153 366z" />
    <glyph glyph-name="z" unicode="z" horiz-adv-x="499" 
d="M461 0h-423v59l298 340q-36 -3 -87 -3h-204v76h407v-57l-290 -343q84 3 89 3h210v-75z" />
    <glyph glyph-name="braceleft" unicode="{" horiz-adv-x="385" 
d="M248 79v-67q0 -53 25 -81t88 -38l-6 -63q-101 7 -146 50t-45 132v67q0 77 -23.5 104t-94.5 30v63q71 3 94.5 30t23.5 104v67q0 88 45 131t146 50l6 -63q-63 -9 -88 -37t-25 -81v-67q0 -82 -25 -118.5t-83 -47.5q58 -10 83 -46.5t25 -118.5z" />
    <glyph glyph-name="bar" unicode="|" horiz-adv-x="301" 
d="M113 -200v853h75v-853h-75z" />
    <glyph glyph-name="braceright" unicode="}" horiz-adv-x="385" 
d="M143 12v67q0 82 25 118.5t83 46.5q-58 11 -83 47.5t-25 118.5v67q0 53 -25 81t-88 37l6 63q101 -7 146 -50t45 -131v-67q0 -77 24 -104t94 -30v-63q-70 -3 -94 -30t-24 -104v-67q0 -89 -45 -132t-146 -50l-6 63q63 10 88 37.5t25 81.5z" />
    <glyph glyph-name="asciitilde" unicode="~" horiz-adv-x="446" 
d="M370 326l38 -25q-33 -63 -72 -79.5t-85 4.5l-82 38q-28 14 -50 5t-45 -46l-38 25q33 61 71 77t85 -6l82 -37q29 -14 51 -4.5t45 48.5z" />
    <glyph glyph-name="exclamdown" unicode="&#xa1;" horiz-adv-x="220" 
d="M105 387q-21 0 -34 13.5t-13 33.5q0 21 13 34.5t34 13.5t34 -13.5t13 -34.5t-13 -34t-34 -13zM153 -132h-97l13 411h71z" />
    <glyph glyph-name="cent" unicode="&#xa2;" horiz-adv-x="514" 
d="M454 122l33 -54q-70 -67 -171 -76v-56h-62v56q-89 8 -148 75t-59 200q0 129 58.5 199.5t148.5 80.5v63h62v-63q81 -8 153 -53l-29 -58q-63 38 -146 38q-68 0 -113.5 -50.5t-45.5 -156.5q0 -103 44.5 -152.5t110.5 -49.5q99 0 164 57z" />
    <glyph glyph-name="sterling" unicode="&#xa3;" horiz-adv-x="552" 
d="M205 75h300v-75h-468v66l80 7l11 134h-88v62h93l2 23q11 136 64.5 197.5t151.5 61.5q104 0 181 -53l-29 -59q-66 40 -140 40q-63 0 -97 -42.5t-43 -144.5l-2 -23h197v-62h-202z" />
    <glyph glyph-name="yen" unicode="&#xa5;" horiz-adv-x="531" 
d="M341 246h125v-50h-154l-1 -1v-51h155v-50h-155v-94h-91v94h-151v50h151v51l-1 1h-150v50h121l-175 299h94l137 -225l20 -44l20 44l136 225h95z" />
    <glyph glyph-name="brokenbar" unicode="&#xa6;" horiz-adv-x="301" 
d="M113 314v339h75v-339h-75zM113 -200v339h75v-339h-75z" />
    <glyph glyph-name="section" unicode="&#xa7;" horiz-adv-x="590" 
d="M85 9l28 62q41 -33 94.5 -51.5t97.5 -18.5q41 0 63.5 16.5t22.5 45.5t-27 45t-109 41q-106 33 -149 65.5t-43 85.5q0 34 18.5 57.5t57.5 50.5q-34 31 -34 82q0 60 43 95t120 35q105 0 196 -43l-23 -64q-86 42 -166 42q-41 0 -63.5 -17t-22.5 -46t27 -44.5t109 -41.5
q105 -32 148.5 -65t43.5 -86q0 -34 -17.5 -58t-57.5 -50q33 -32 33 -82q0 -60 -44 -96.5t-122 -36.5q-56 0 -118.5 21t-105.5 56zM183 379q-39 -39 -39 -67q0 -33 38 -53.5t135 -50.5q43 -14 80 -31q39 39 39 67q0 37 -62 65q-27 12 -112 39q-49 15 -79 31z" />
    <glyph glyph-name="dieresis" unicode="&#xa8;" horiz-adv-x="488" 
d="M149 665q24 0 39.5 -14.5t15.5 -39.5q0 -24 -15 -38t-40 -14q-22 0 -38 14t-16 38t16 39t38 15zM338 665q23 0 39 -14.5t16 -39.5q0 -24 -16 -38t-39 -14q-24 0 -39.5 14t-15.5 38q0 25 15.5 39.5t39.5 14.5z" />
    <glyph glyph-name="copyright" unicode="&#xa9;" horiz-adv-x="740" 
d="M370 -9q-131 0 -222.5 91.5t-91.5 222.5t91.5 223t222.5 92q130 0 221.5 -92t91.5 -223t-91 -222.5t-222 -91.5zM370 20q118 0 202 83.5t84 201.5t-84 202t-202 84t-201.5 -84t-83.5 -202q0 -119 83.5 -202t201.5 -83zM499 222l25 -40q-63 -60 -150 -60q-75 0 -124 49
t-49 130q0 85 46 135t124 50t139 -43l-23 -43q-53 31 -109 31q-52 0 -82 -34.5t-30 -95.5q0 -58 32 -91.5t83 -33.5q64 0 118 46z" />
    <glyph glyph-name="ordfeminine" unicode="&#xaa;" horiz-adv-x="384" 
d="M81 546l-11 51q79 23 137 23q71 0 99.5 -31.5t28.5 -109.5v-202h-67v43q-58 -50 -118 -50q-114 0 -114 106q0 104 142 104q59 0 90 -1q0 49 -15 66t-57 17q-48 0 -115 -16zM268 435h-83q-86 0 -86 -52q0 -61 70 -61q47 0 99 50v63z" />
    <glyph glyph-name="guillemotleft" unicode="&#xab;" horiz-adv-x="543" 
d="M297 407l-121 -126q-6 -6 -41 -36q26 -19 42 -35l120 -126l-46 -43l-206 205l205 206zM480 407l-121 -126q-6 -6 -41 -36q26 -19 42 -35l120 -126l-46 -44l-206 206l205 206z" />
    <glyph glyph-name="registered" unicode="&#xae;" horiz-adv-x="740" 
d="M370 -9q-131 0 -222.5 91.5t-91.5 222.5t91.5 223t222.5 92q130 0 221.5 -92t91.5 -223t-91 -222.5t-222 -91.5zM370 20q118 0 202 83.5t84 201.5t-84 202t-202 84t-201.5 -84t-83.5 -202q0 -119 83.5 -202t201.5 -83zM238 481h135q147 0 147 -116q0 -82 -77 -96
q46 -22 90 -139h-69q-24 59 -43.5 88.5t-39.5 29.5h-85v-118h-58v351zM300 297h89q68 0 68 67t-84 67h-73v-134z" />
    <glyph glyph-name="macron" unicode="&#xaf;" horiz-adv-x="488" 
d="M369 565h-250v79h250v-79z" />
    <glyph glyph-name="degree" unicode="&#xb0;" horiz-adv-x="342" 
d="M171 620q56 0 89.5 -34t33.5 -90q0 -53 -33.5 -85.5t-89.5 -32.5q-55 0 -88.5 32.5t-33.5 85.5q0 56 33.5 90t88.5 34zM171 430q32 0 50.5 18t18.5 48q0 33 -18.5 53t-50.5 20q-31 0 -50 -20t-19 -53q0 -30 19 -48t50 -18z" />
    <glyph glyph-name="plusminus" unicode="&#xb1;" horiz-adv-x="475" 
d="M436 292h-171v-137h-58v137h-171v59h171v137h59v-137h170v-59zM433 111v-59h-397v59h397z" />
    <glyph glyph-name="twosuperior" unicode="&#xb2;" horiz-adv-x="344" 
d="M311 335h-282v45l62.5 49.5t61 49.5t43.5 40t34.5 43t9.5 38q0 33 -18.5 50.5t-51.5 17.5q-57 0 -126 -32l-18 44q86 40 153 40q58 0 91 -32t33 -88q0 -27 -11.5 -51t-42 -52.5t-50 -43.5l-69.5 -51l-22 -16q38 2 52 2h151v-53z" />
    <glyph glyph-name="threesuperior" unicode="&#xb3;" horiz-adv-x="344" 
d="M41 743l-16 42q77 36 150 36q57 0 91 -28t34 -76q0 -32 -17.5 -53.5t-46.5 -31.5q75 -24 75 -90q0 -53 -36 -81.5t-102 -28.5q-85 0 -157 39l19 42q65 -32 136 -32q81 0 81 62q0 64 -95 64h-61v51h61q86 0 86 51q0 62 -75 62q-62 0 -127 -28z" />
    <glyph glyph-name="acute" unicode="&#xb4;" horiz-adv-x="488" 
d="M353 647l-1 -18q-45 -37 -73.5 -57t-79.5 -47l-29 29l110 140z" />
    <glyph glyph-name="paragraph" unicode="&#xb6;" horiz-adv-x="549" 
d="M505 540l-104 -8v-532h-85v206h-19q-133 0 -190.5 46t-57.5 154q0 111 57.5 157.5t190.5 46.5h208v-70z" />
    <glyph glyph-name="periodcentered" unicode="&#xb7;" horiz-adv-x="273" 
d="M76 280q0 24 15 39.5t40 15.5t40 -15.5t15 -39.5t-15.5 -39.5t-39.5 -15.5t-39.5 15.5t-15.5 39.5z" />
    <glyph glyph-name="cedilla" unicode="&#xb8;" horiz-adv-x="488" 
d="M252 26l-4 -58q59 0 81 -18t22 -67q0 -46 -26.5 -69.5t-75.5 -23.5q-46 0 -102 18l11 52q42 -9 71 -9q31 0 46 6t14 27q0 23 -12.5 28t-54.5 5h-43l22 109h51z" />
    <glyph glyph-name="onesuperior" unicode="&#xb9;" horiz-adv-x="320" 
d="M296 331h-254v53h102v256q-44 -14 -102 -27l-12 40q71 28 126 57h49v-326h91v-53z" />
    <glyph glyph-name="ordmasculine" unicode="&#xba;" horiz-adv-x="432" 
d="M216 620q81 0 125 -46.5t44 -131.5q0 -82 -44.5 -127t-125.5 -45q-80 0 -124 45t-44 127q0 85 44 131.5t125 46.5zM215 328q105 0 105 114q0 121 -104 121t-104 -121q0 -114 103 -114z" />
    <glyph glyph-name="guillemotright" unicode="&#xbb;" horiz-adv-x="543" 
d="M99 40l-45 44l120 126q6 6 41 36q-23 18 -40 35l-121 126l46 45l204 -206zM282 40l-45 44l120 126q6 6 41 36q-23 18 -40 35l-121 126l46 45l204 -206z" />
    <glyph glyph-name="onequarter" unicode="&#xbc;" horiz-adv-x="878" 
d="M296 231h-254v53h102v256q-44 -14 -102 -27l-12 40q71 28 126 57h49v-326h91v-53zM638 610l-355 -610h-55l355 610h55zM749 80v-80h-59v80h-220l-2 44l222 255h59v-250h61v-49h-61zM690 129v182q-12 -17 -26 -31l-100 -111q-13 -16 -37 -40h163z" />
    <glyph glyph-name="onehalf" unicode="&#xbd;" horiz-adv-x="887" 
d="M296 231h-254v53h102v256q-44 -14 -102 -27l-12 40q71 28 126 57h49v-326h91v-53zM638 610l-355 -610h-55l355 610h55zM825 0h-282v45l62.5 49.5t61 49.5t43.5 40t34.5 43t9.5 38q0 33 -18.5 50.5t-51.5 17.5q-57 0 -126 -32l-18 44q86 40 153 40q58 0 91 -32t33 -88
q0 -27 -11.5 -51t-42 -52.5t-50 -43.5l-69.5 -51l-22 -16q38 2 52 2h151v-53z" />
    <glyph glyph-name="threequarters" unicode="&#xbe;" horiz-adv-x="866" 
d="M41 543l-16 42q77 36 150 36q57 0 91 -28t34 -76q0 -32 -17.5 -53.5t-46.5 -31.5q75 -24 75 -90q0 -53 -36 -81.5t-102 -28.5q-85 0 -157 39l19 42q65 -32 136 -32q81 0 81 62q0 64 -95 64h-61v51h61q86 0 86 51q0 62 -75 62q-62 0 -127 -28zM638 610l-355 -610h-55
l354 610h56zM747 80v-80h-60v80h-220l-2 44l222 255h60v-250h60v-49h-60zM687 129v182q-11 -16 -25 -31l-100 -111q-21 -24 -37 -40h162z" />
    <glyph glyph-name="questiondown" unicode="&#xbf;" horiz-adv-x="513" 
d="M297 387q-21 0 -34 13t-13 34t13 34.5t34 13.5t34 -13.5t13 -34.5q0 -20 -13 -33.5t-34 -13.5zM471 -6l26 -71q-138 -65 -246 -65q-90 0 -145 51t-55 134q0 71 55 118t158 64l-3 71h74l13 -138q-98 -8 -150.5 -35.5t-52.5 -70.5q0 -50 33 -80.5t88 -30.5q94 0 205 53z
" />
    <glyph glyph-name="Agrave" unicode="&#xc0;" horiz-adv-x="660" 
d="M380 688l-29 -29q-50 20 -79 38t-74 56l-1 18l74 47zM173 144l-59 -144h-99l254 610h123l254 -610h-99l-59 144h-315zM453 229l-100 243q-13 37 -23 73q-10 -36 -23 -73l-100 -243h246z" />
    <glyph glyph-name="Aacute" unicode="&#xc1;" horiz-adv-x="660" 
d="M461 777l-1 -18q-45 -38 -74 -56t-79 -38l-29 29l110 130zM173 144l-59 -144h-99l254 610h123l254 -610h-99l-59 144h-315zM453 229l-100 243q-13 37 -23 73q-10 -36 -23 -73l-100 -243h246z" />
    <glyph glyph-name="Acircumflex" unicode="&#xc2;" horiz-adv-x="660" 
d="M331 733l-118 -71l-35 36l122 108h61l123 -108l-35 -36zM173 144l-59 -144h-99l254 610h123l254 -610h-99l-59 144h-315zM453 229l-100 243q-13 37 -23 73q-10 -36 -23 -73l-100 -243h246z" />
    <glyph glyph-name="Atilde" unicode="&#xc3;" horiz-adv-x="660" 
d="M442 787l47 -11q-8 -44 -32.5 -70t-53.5 -28t-58 10l-55 28q-49 25 -70 -31l-46 11q12 64 55.5 85.5t86.5 -2.5l55 -26q51 -25 71 34zM173 144l-59 -144h-99l254 610h123l254 -610h-99l-59 144h-315zM453 229l-100 243q-13 37 -23 73q-10 -36 -23 -73l-100 -243h246z" />
    <glyph glyph-name="Adieresis" unicode="&#xc4;" horiz-adv-x="660" 
d="M236 788q24 0 39.5 -14.5t15.5 -39.5q0 -24 -15 -38t-40 -14q-22 0 -38 14t-16 38t16 39t38 15zM425 788q23 0 39 -14.5t16 -39.5q0 -24 -16 -38t-39 -14q-24 0 -39.5 14t-15.5 38q0 25 15.5 39.5t39.5 14.5zM173 144l-59 -144h-99l254 610h123l254 -610h-99l-59 144
h-315zM453 229l-100 243q-13 37 -23 73q-10 -36 -23 -73l-100 -243h246z" />
    <glyph glyph-name="Aring" unicode="&#xc5;" horiz-adv-x="660" 
d="M331 850q43 0 70 -26.5t27 -70.5q0 -41 -27.5 -66.5t-70.5 -25.5q-42 0 -69 26t-27 66q0 44 27 70.5t70 26.5zM330 712q21 0 33.5 11t12.5 30q0 22 -12.5 34.5t-32.5 12.5t-32.5 -12.5t-12.5 -34.5q0 -19 12 -30t32 -11zM173 144l-59 -144h-99l254 610h123l254 -610h-99
l-59 144h-315zM453 229l-100 243q-13 37 -23 73q-10 -36 -23 -73l-100 -243h246z" />
    <glyph glyph-name="AE" unicode="&#xc6;" horiz-adv-x="953" 
d="M889 86v-86h-421v142h-252l-95 -142h-106l415 610h450v-86h-320v-175h279v-86h-279v-177h329zM468 227v291l-195 -291h195z" />
    <glyph glyph-name="Ccedilla" unicode="&#xc7;" horiz-adv-x="621" 
d="M325 -9l-2 -23q59 0 81 -18t22 -67q0 -46 -26.5 -69.5t-75.5 -23.5q-46 0 -102 18l11 52q42 -9 71 -9q31 0 46 6t14 27q0 23 -12.5 28t-54.5 5h-43l16 79q-107 18 -165 97.5t-58 210.5q0 152 77 234t219 82q126 0 218 -53l-30 -70q-86 37 -184 37q-101 0 -153.5 -58.5
t-52.5 -171.5q0 -107 52 -167t145 -60q118 0 212 59l35 -71q-103 -74 -252 -74h-8z" />
    <glyph glyph-name="Egrave" unicode="&#xc8;" horiz-adv-x="564" 
d="M335 688l-29 -29q-50 20 -79 38t-74 56l-1 18l74 47zM505 0h-421v610h412v-86h-320v-175h279v-86h-279v-177h329v-86z" />
    <glyph glyph-name="Eacute" unicode="&#xc9;" horiz-adv-x="564" 
d="M415 777l-1 -18q-45 -38 -74 -56t-79 -38l-29 29l110 130zM505 0h-421v610h412v-86h-320v-175h279v-86h-279v-177h329v-86z" />
    <glyph glyph-name="Ecircumflex" unicode="&#xca;" horiz-adv-x="564" 
d="M285 733l-118 -71l-35 36l122 108h61l123 -108l-35 -36zM505 0h-421v610h412v-86h-320v-175h279v-86h-279v-177h329v-86z" />
    <glyph glyph-name="Edieresis" unicode="&#xcb;" horiz-adv-x="564" 
d="M190 788q24 0 39.5 -14.5t15.5 -39.5q0 -24 -15 -38t-40 -14q-22 0 -38 14t-16 38t16 39t38 15zM379 788q23 0 39 -14.5t16 -39.5q0 -24 -16 -38t-39 -14q-24 0 -39.5 14t-15.5 38q0 25 15.5 39.5t39.5 14.5zM505 0h-421v610h412v-86h-320v-175h279v-86h-279v-177h329
v-86z" />
    <glyph glyph-name="Igrave" unicode="&#xcc;" horiz-adv-x="260" 
d="M180 688l-29 -29q-50 20 -79 38t-74 56l-1 18l74 47zM176 0h-92v610h92v-610z" />
    <glyph glyph-name="Iacute" unicode="&#xcd;" horiz-adv-x="260" 
d="M261 777l-1 -18q-45 -38 -74 -56t-79 -38l-29 29l110 130zM176 0h-92v610h92v-610z" />
    <glyph glyph-name="Icircumflex" unicode="&#xce;" horiz-adv-x="260" 
d="M131 733l-118 -71l-35 36l122 108h61l123 -108l-35 -36zM176 0h-92v610h92v-610z" />
    <glyph glyph-name="Idieresis" unicode="&#xcf;" horiz-adv-x="260" 
d="M36 788q24 0 39.5 -14.5t15.5 -39.5q0 -24 -15 -38t-40 -14q-22 0 -38 14t-16 38t16 39t38 15zM225 788q23 0 39 -14.5t16 -39.5q0 -24 -16 -38t-39 -14q-24 0 -39.5 14t-15.5 38q0 25 15.5 39.5t39.5 14.5zM176 0h-92v610h92v-610z" />
    <glyph glyph-name="Eth" unicode="&#xd0;" horiz-adv-x="654" 
d="M80 610h192q159 0 245 -78t86 -222q0 -149 -86 -229.5t-245 -80.5h-192v265h-67v73h67v272zM172 86h100q114 0 175.5 58.5t61.5 165.5q0 103 -61.5 158.5t-175.5 55.5h-100v-186h125v-73h-125v-179z" />
    <glyph glyph-name="Ntilde" unicode="&#xd1;" horiz-adv-x="690" 
d="M456 787l47 -11q-8 -44 -32.5 -70t-53.5 -28t-58 10l-55 28q-49 25 -70 -31l-46 11q12 64 55.5 85.5t86.5 -2.5l55 -26q51 -25 71 34zM606 0h-84l-346 453v-453h-92v610h84l346 -455v455h92v-610z" />
    <glyph glyph-name="Ograve" unicode="&#xd2;" horiz-adv-x="675" 
d="M387 688l-29 -29q-50 20 -79 38t-74 56l-1 18l74 47zM337 620q139 0 215 -82t76 -234q0 -150 -76.5 -231.5t-214.5 -81.5t-214 81.5t-76 231.5q0 152 76 234t214 82zM337 77q95 0 146 58t51 169q0 113 -51 171.5t-146 58.5q-94 0 -145 -59t-51 -171q0 -111 51 -169
t145 -58z" />
    <glyph glyph-name="Oacute" unicode="&#xd3;" horiz-adv-x="675" 
d="M467 777l-1 -18q-45 -38 -74 -56t-79 -38l-29 29l110 130zM337 620q139 0 215 -82t76 -234q0 -150 -76.5 -231.5t-214.5 -81.5t-214 81.5t-76 231.5q0 152 76 234t214 82zM337 77q95 0 146 58t51 169q0 113 -51 171.5t-146 58.5q-94 0 -145 -59t-51 -171q0 -111 51 -169
t145 -58z" />
    <glyph glyph-name="Ocircumflex" unicode="&#xd4;" horiz-adv-x="675" 
d="M338 733l-118 -71l-35 36l122 108h61l123 -108l-35 -36zM337 620q139 0 215 -82t76 -234q0 -150 -76.5 -231.5t-214.5 -81.5t-214 81.5t-76 231.5q0 152 76 234t214 82zM337 77q95 0 146 58t51 169q0 113 -51 171.5t-146 58.5q-94 0 -145 -59t-51 -171q0 -111 51 -169
t145 -58z" />
    <glyph glyph-name="Otilde" unicode="&#xd5;" horiz-adv-x="675" 
d="M448 787l47 -11q-8 -44 -32.5 -70t-53.5 -28t-58 10l-55 28q-49 25 -70 -31l-46 11q12 64 55.5 85.5t86.5 -2.5l55 -26q51 -25 71 34zM337 620q139 0 215 -82t76 -234q0 -150 -76.5 -231.5t-214.5 -81.5t-214 81.5t-76 231.5q0 152 76 234t214 82zM337 77q95 0 146 58
t51 169q0 113 -51 171.5t-146 58.5q-94 0 -145 -59t-51 -171q0 -111 51 -169t145 -58z" />
    <glyph glyph-name="Odieresis" unicode="&#xd6;" horiz-adv-x="675" 
d="M243 788q24 0 39.5 -14.5t15.5 -39.5q0 -24 -15 -38t-40 -14q-22 0 -38 14t-16 38t16 39t38 15zM432 788q23 0 39 -14.5t16 -39.5q0 -24 -16 -38t-39 -14q-24 0 -39.5 14t-15.5 38q0 25 15.5 39.5t39.5 14.5zM337 620q139 0 215 -82t76 -234q0 -150 -76.5 -231.5
t-214.5 -81.5t-214 81.5t-76 231.5q0 152 76 234t214 82zM337 77q95 0 146 58t51 169q0 113 -51 171.5t-146 58.5q-94 0 -145 -59t-51 -171q0 -111 51 -169t145 -58z" />
    <glyph glyph-name="multiply" unicode="&#xd7;" horiz-adv-x="470" 
d="M114 76l-48 48l124 123l-122 122l48 48l122 -121l121 120l47 -47l-120 -121l124 -124l-48 -48l-124 124z" />
    <glyph glyph-name="Oslash" unicode="&#xd8;" horiz-adv-x="675" 
d="M615 582l-54 -61q62 -82 62 -217q0 -150 -76.5 -231.5t-214.5 -81.5q-117 0 -192 61l-52 -59l-37 35l54 60q-63 81 -63 216q0 152 76 234t214 82q120 0 193 -62l53 59zM169 160l295 330q-50 44 -132 44q-94 0 -145 -59t-51 -171q0 -90 33 -144zM496 449l-294 -329
q49 -43 130 -43q95 0 146 58t51 169q0 91 -33 145z" />
    <glyph glyph-name="Ugrave" unicode="&#xd9;" horiz-adv-x="663" 
d="M382 688l-29 -29q-50 20 -79 38t-74 56l-1 18l74 47zM592 610v-332q0 -138 -67.5 -212.5t-192.5 -74.5t-192.5 74.5t-67.5 212.5v332h92v-332q0 -96 43.5 -147.5t124.5 -51.5t124.5 51t43.5 148v332h92z" />
    <glyph glyph-name="Uacute" unicode="&#xda;" horiz-adv-x="663" 
d="M462 777l-1 -18q-45 -38 -74 -56t-79 -38l-29 29l110 130zM592 610v-332q0 -138 -67.5 -212.5t-192.5 -74.5t-192.5 74.5t-67.5 212.5v332h92v-332q0 -96 43.5 -147.5t124.5 -51.5t124.5 51t43.5 148v332h92z" />
    <glyph glyph-name="Ucircumflex" unicode="&#xdb;" horiz-adv-x="663" 
d="M332 733l-118 -71l-35 36l122 108h61l123 -108l-35 -36zM592 610v-332q0 -138 -67.5 -212.5t-192.5 -74.5t-192.5 74.5t-67.5 212.5v332h92v-332q0 -96 43.5 -147.5t124.5 -51.5t124.5 51t43.5 148v332h92z" />
    <glyph glyph-name="Udieresis" unicode="&#xdc;" horiz-adv-x="663" 
d="M237 788q24 0 39.5 -14.5t15.5 -39.5q0 -24 -15 -38t-40 -14q-22 0 -38 14t-16 38t16 39t38 15zM426 788q23 0 39 -14.5t16 -39.5q0 -24 -16 -38t-39 -14q-24 0 -39.5 14t-15.5 38q0 25 15.5 39.5t39.5 14.5zM592 610v-332q0 -138 -67.5 -212.5t-192.5 -74.5t-192.5 74.5
t-67.5 212.5v332h92v-332q0 -96 43.5 -147.5t124.5 -51.5t124.5 51t43.5 148v332h92z" />
    <glyph glyph-name="Yacute" unicode="&#xdd;" horiz-adv-x="580" 
d="M420 777l-1 -18q-45 -38 -74 -56t-79 -38l-29 29l110 130zM336 200v-200h-92v200l-226 410h94l155 -271q8 -13 23 -52q9 27 23 52l155 271h94z" />
    <glyph glyph-name="Thorn" unicode="&#xde;" horiz-adv-x="576" 
d="M176 509h119q129 0 190 -52t61 -160t-60 -158t-187 -50h-123v-89h-92v610h92v-101zM176 164h123q157 0 157 133q0 67 -39 100t-122 33h-119v-266z" />
    <glyph glyph-name="germandbls" unicode="&#xdf;" horiz-adv-x="590" 
d="M-3 471h79q18 78 82 123.5t156 45.5q88 0 143.5 -45t55.5 -117q0 -104 -101 -147q133 -41 133 -171q0 -76 -52.5 -122.5t-138.5 -46.5q-62 0 -120 15l8 66q57 -11 99 -11q54 0 87 30t33 78q0 58 -43.5 89.5t-117.5 31.5h-50v68h50q58 0 93 30t35 80q0 45 -31 71.5
t-81 26.5q-72 0 -114 -41t-42 -111v-414h-90v399l-73 7v65z" />
    <glyph glyph-name="agrave" unicode="&#xe0;" horiz-adv-x="513" 
d="M328 568l-29 -29q-51 27 -79.5 47t-73.5 57l-1 18l74 47zM99 376l-15 73q121 32 192 32q97 0 135.5 -45.5t38.5 -152.5v-283h-90v59q-40 -32 -77 -50t-86 -18q-81 0 -120.5 34t-39.5 109q0 151 197 151q82 0 126 -1q0 70 -19.5 93.5t-79.5 23.5q-61 0 -162 -25zM360 220
h-115q-66 0 -95.5 -16.5t-29.5 -60.5q0 -85 103 -85q72 0 137 72v90z" />
    <glyph glyph-name="aacute" unicode="&#xe1;" horiz-adv-x="513" 
d="M366 647l-1 -18q-45 -37 -73.5 -57t-79.5 -47l-29 29l110 140zM99 376l-15 73q121 32 192 32q97 0 135.5 -45.5t38.5 -152.5v-283h-90v59q-40 -32 -77 -50t-86 -18q-81 0 -120.5 34t-39.5 109q0 151 197 151q82 0 126 -1q0 70 -19.5 93.5t-79.5 23.5q-61 0 -162 -25z
M360 220h-115q-66 0 -95.5 -16.5t-29.5 -60.5q0 -85 103 -85q72 0 137 72v90z" />
    <glyph glyph-name="acircumflex" unicode="&#xe2;" horiz-adv-x="513" 
d="M375 532l-118 81l-118 -81l-35 36l122 118h61l123 -118zM99 376l-15 73q121 32 192 32q97 0 135.5 -45.5t38.5 -152.5v-283h-90v59q-40 -32 -77 -50t-86 -18q-81 0 -120.5 34t-39.5 109q0 151 197 151q82 0 126 -1q0 70 -19.5 93.5t-79.5 23.5q-61 0 -162 -25zM360 220
h-115q-66 0 -95.5 -16.5t-29.5 -60.5q0 -85 103 -85q72 0 137 72v90z" />
    <glyph glyph-name="atilde" unicode="&#xe3;" horiz-adv-x="513" 
d="M368 671l47 -11q-8 -44 -32.5 -70t-53.5 -28t-58 10l-55 28q-49 25 -70 -31l-46 11q12 64 55.5 85.5t86.5 -2.5l55 -26q51 -25 71 34zM99 376l-15 73q121 32 192 32q97 0 135.5 -45.5t38.5 -152.5v-283h-90v59q-40 -32 -77 -50t-86 -18q-81 0 -120.5 34t-39.5 109
q0 151 197 151q82 0 126 -1q0 70 -19.5 93.5t-79.5 23.5q-61 0 -162 -25zM360 220h-115q-66 0 -95.5 -16.5t-29.5 -60.5q0 -85 103 -85q72 0 137 72v90z" />
    <glyph glyph-name="adieresis" unicode="&#xe4;" horiz-adv-x="513" 
d="M162 665q24 0 39.5 -14.5t15.5 -39.5q0 -24 -15 -38t-40 -14q-22 0 -38 14t-16 38t16 39t38 15zM351 665q23 0 39 -14.5t16 -39.5q0 -24 -16 -38t-39 -14q-24 0 -39.5 14t-15.5 38q0 25 15.5 39.5t39.5 14.5zM99 376l-15 73q121 32 192 32q97 0 135.5 -45.5t38.5 -152.5
v-283h-90v59q-40 -32 -77 -50t-86 -18q-81 0 -120.5 34t-39.5 109q0 151 197 151q82 0 126 -1q0 70 -19.5 93.5t-79.5 23.5q-61 0 -162 -25zM360 220h-115q-66 0 -95.5 -16.5t-29.5 -60.5q0 -85 103 -85q72 0 137 72v90z" />
    <glyph glyph-name="aring" unicode="&#xe5;" horiz-adv-x="513" 
d="M261 718q43 0 70 -26.5t27 -70.5q0 -41 -27.5 -66.5t-70.5 -25.5q-42 0 -69 26t-27 66q0 44 27 70.5t70 26.5zM260 580q21 0 33.5 11t12.5 30q0 22 -12.5 34.5t-32.5 12.5t-32.5 -12.5t-12.5 -34.5q0 -19 12 -30t32 -11zM99 376l-15 73q121 32 192 32q97 0 135.5 -45.5
t38.5 -152.5v-283h-90v59q-40 -32 -77 -50t-86 -18q-81 0 -120.5 34t-39.5 109q0 151 197 151q82 0 126 -1q0 70 -19.5 93.5t-79.5 23.5q-61 0 -162 -25zM360 220h-115q-66 0 -95.5 -16.5t-29.5 -60.5q0 -85 103 -85q72 0 137 72v90z" />
    <glyph glyph-name="ae" unicode="&#xe6;" horiz-adv-x="843" 
d="M99 384l-15 65q116 32 192 32q101 0 137 -68q61 67 172 67q99 1 154 -58.5t57 -169.5q0 -23 -3 -42h-351q6 -76 44 -112t99 -36q90 1 171 58l34 -57q-49 -39 -96.5 -55.5t-111.5 -16.5q-120 0 -178 76q-88 -76 -188 -76q-93 0 -136 35.5t-43 111.5q0 67 50 105.5
t147 38.5q24 0 60.5 -0.5t61.5 -0.5q1 72 -18 99t-77 27q-69 0 -162 -23zM444 281h272q-11 127 -130 127q-122 0 -142 -127zM357 211h-1h-111q-66 0 -95 -15.5t-29 -51.5q0 -82 114 -82q70 0 142 53q-17 42 -20 96z" />
    <glyph glyph-name="ccedilla" unicode="&#xe7;" horiz-adv-x="495" 
d="M263 -9l-1 -23q59 0 81 -18t22 -67q0 -46 -26.5 -69.5t-75.5 -23.5q-46 0 -102 18l11 52q42 -9 71 -9q31 0 46 6t14 27q0 23 -12.5 28t-54.5 5h-43l16 80q-77 17 -122 80t-45 156q0 112 64 180t169 68q94 0 172 -46l-31 -61q-63 31 -140 31q-65 0 -105 -47.5t-40 -124.5
q0 -75 38.5 -120t103.5 -45q82 0 159 51l33 -60q-51 -39 -95 -53.5t-107 -14.5z" />
    <glyph glyph-name="egrave" unicode="&#xe8;" horiz-adv-x="524" 
d="M332 568l-29 -29q-51 27 -79.5 47t-73.5 57l-1 18l74 47zM442 121l33 -58q-49 -39 -96.5 -55.5t-111.5 -16.5q-102 0 -163.5 60t-61.5 181q0 125 62.5 187t166.5 62q98 0 153 -59.5t57 -169.5q0 -23 -3 -41h-350q11 -148 143 -148q88 0 171 58zM130 281h271
q-11 127 -130 127q-57 0 -94.5 -31t-46.5 -96z" />
    <glyph glyph-name="eacute" unicode="&#xe9;" horiz-adv-x="524" 
d="M370 647l-1 -18q-45 -37 -73.5 -57t-79.5 -47l-29 29l110 140zM442 121l33 -58q-49 -39 -96.5 -55.5t-111.5 -16.5q-102 0 -163.5 60t-61.5 181q0 125 62.5 187t166.5 62q98 0 153 -59.5t57 -169.5q0 -23 -3 -41h-350q11 -148 143 -148q88 0 171 58zM130 281h271
q-11 127 -130 127q-57 0 -94.5 -31t-46.5 -96z" />
    <glyph glyph-name="ecircumflex" unicode="&#xea;" horiz-adv-x="524" 
d="M379 532l-118 81l-118 -81l-35 36l122 118h61l123 -118zM442 121l33 -58q-49 -39 -96.5 -55.5t-111.5 -16.5q-102 0 -163.5 60t-61.5 181q0 125 62.5 187t166.5 62q98 0 153 -59.5t57 -169.5q0 -23 -3 -41h-350q11 -148 143 -148q88 0 171 58zM130 281h271
q-11 127 -130 127q-57 0 -94.5 -31t-46.5 -96z" />
    <glyph glyph-name="edieresis" unicode="&#xeb;" horiz-adv-x="524" 
d="M166 665q24 0 39.5 -14.5t15.5 -39.5q0 -24 -15 -38t-40 -14q-22 0 -38 14t-16 38t16 39t38 15zM355 665q23 0 39 -14.5t16 -39.5q0 -24 -16 -38t-39 -14q-24 0 -39.5 14t-15.5 38q0 25 15.5 39.5t39.5 14.5zM442 121l33 -58q-49 -39 -96.5 -55.5t-111.5 -16.5
q-102 0 -163.5 60t-61.5 181q0 125 62.5 187t166.5 62q98 0 153 -59.5t57 -169.5q0 -23 -3 -41h-350q11 -148 143 -148q88 0 171 58zM130 281h271q-11 127 -130 127q-57 0 -94.5 -31t-46.5 -96z" />
    <glyph glyph-name="igrave" unicode="&#xec;" horiz-adv-x="235" 
d="M189 568l-29 -29q-51 27 -79.5 47t-73.5 57l-1 18l74 47zM163 0h-90v472h90v-472z" />
    <glyph glyph-name="iacute" unicode="&#xed;" horiz-adv-x="235" 
d="M227 647l-1 -18q-45 -37 -73.5 -57t-79.5 -47l-29 29l110 140zM163 0h-90v472h90v-472z" />
    <glyph glyph-name="icircumflex" unicode="&#xee;" horiz-adv-x="235" 
d="M236 532l-118 81l-119 -81l-35 36l123 118h61l123 -118zM163 0h-90v472h90v-472z" />
    <glyph glyph-name="idieresis" unicode="&#xef;" horiz-adv-x="235" 
d="M23 665q24 0 39.5 -14.5t15.5 -39.5q0 -24 -15 -38t-40 -14q-23 0 -39 14t-16 38q0 25 16 39.5t39 14.5zM212 665q23 0 39 -14.5t16 -39.5q0 -24 -16 -38t-39 -14q-24 0 -39.5 14t-15.5 38q0 25 15.5 39.5t39.5 14.5zM163 0h-90v472h90v-472z" />
    <glyph glyph-name="eth" unicode="&#xf0;" 
d="M421 617l-75 -36q92 -80 130.5 -158.5t38.5 -190.5q0 -115 -62 -178t-175 -63t-174.5 63t-61.5 178q0 237 299 237q-34 38 -77 72l-124 -60l-24 53l96 47q-60 39 -75 48v12l83 36q43 -29 76 -55l99 48zM278 64q148 0 148 168q0 99 -38 170q-150 -1 -204 -40t-54 -134
q0 -81 38 -122.5t110 -41.5z" />
    <glyph glyph-name="ntilde" unicode="&#xf1;" horiz-adv-x="556" 
d="M395 671l47 -11q-8 -44 -32.5 -70t-53.5 -28t-58 10l-55 28q-49 25 -70 -31l-46 11q12 64 55.5 85.5t86.5 -2.5l55 -26q51 -25 71 34zM160 472v-69q85 77 173 77q81 0 119 -44.5t38 -140.5v-295h-90v273q0 69 -16.5 96t-67.5 27q-83 0 -156 -84v-312h-90v472h90z" />
    <glyph glyph-name="ograve" unicode="&#xf2;" 
d="M350 568l-29 -29q-51 27 -79.5 47t-73.5 57l-1 18l74 47zM279 481q107 0 172 -68t65 -180q0 -109 -65.5 -175.5t-172.5 -66.5q-106 0 -171 66.5t-65 175.5q0 112 65 180t172 68zM278 68q68 0 109 45.5t41 119.5q0 77 -41 124t-108 47t-108 -47t-41 -124
q0 -74 40.5 -119.5t107.5 -45.5z" />
    <glyph glyph-name="oacute" unicode="&#xf3;" 
d="M388 647l-1 -18q-45 -37 -73.5 -57t-79.5 -47l-29 29l110 140zM279 481q107 0 172 -68t65 -180q0 -109 -65.5 -175.5t-172.5 -66.5q-106 0 -171 66.5t-65 175.5q0 112 65 180t172 68zM278 68q68 0 109 45.5t41 119.5q0 77 -41 124t-108 47t-108 -47t-41 -124
q0 -74 40.5 -119.5t107.5 -45.5z" />
    <glyph glyph-name="ocircumflex" unicode="&#xf4;" 
d="M397 532l-118 81l-118 -81l-35 36l122 118h61l123 -118zM279 481q107 0 172 -68t65 -180q0 -109 -65.5 -175.5t-172.5 -66.5q-106 0 -171 66.5t-65 175.5q0 112 65 180t172 68zM278 68q68 0 109 45.5t41 119.5q0 77 -41 124t-108 47t-108 -47t-41 -124q0 -74 40.5 -119.5
t107.5 -45.5z" />
    <glyph glyph-name="otilde" unicode="&#xf5;" 
d="M390 667l47 -11q-8 -44 -32.5 -70t-53.5 -28t-58 10l-55 28q-49 25 -70 -31l-46 11q12 64 55.5 85.5t86.5 -2.5l55 -26q51 -25 71 34zM279 481q107 0 172 -68t65 -180q0 -109 -65.5 -175.5t-172.5 -66.5q-106 0 -171 66.5t-65 175.5q0 112 65 180t172 68zM278 68
q68 0 109 45.5t41 119.5q0 77 -41 124t-108 47t-108 -47t-41 -124q0 -74 40.5 -119.5t107.5 -45.5z" />
    <glyph glyph-name="odieresis" unicode="&#xf6;" 
d="M184 665q24 0 39.5 -14.5t15.5 -39.5q0 -24 -15 -38t-40 -14q-22 0 -38 14t-16 38t16 39t38 15zM373 665q23 0 39 -14.5t16 -39.5q0 -24 -16 -38t-39 -14q-24 0 -39.5 14t-15.5 38q0 25 15.5 39.5t39.5 14.5zM279 481q107 0 172 -68t65 -180q0 -109 -65.5 -175.5
t-172.5 -66.5q-106 0 -171 66.5t-65 175.5q0 112 65 180t172 68zM278 68q68 0 109 45.5t41 119.5q0 77 -41 124t-108 47t-108 -47t-41 -124q0 -74 40.5 -119.5t107.5 -45.5z" />
    <glyph glyph-name="divide" unicode="&#xf7;" horiz-adv-x="471" 
d="M192 398q0 18 11.5 30t30.5 12t30.5 -12t11.5 -30q0 -19 -11.5 -31t-30.5 -12t-30.5 12t-11.5 31zM36 205v67h397v-67h-397zM192 86q0 19 11.5 31t30.5 12t30.5 -12t11.5 -31q0 -18 -11.5 -30t-30.5 -12t-30.5 12t-11.5 30z" />
    <glyph glyph-name="oslash" unicode="&#xf8;" horiz-adv-x="551" 
d="M487 451l-38 -42q61 -67 61 -177q1 -108 -64.5 -174.5t-172.5 -66.5q-94 0 -154 51l-35 -39l-28 27l35 39q-54 63 -54 163q0 112 65 180.5t171 67.5q87 1 147 -45l38 44zM150 134l214 240q-38 30 -90 30q-67 0 -108 -47t-41 -124q0 -59 25 -99zM391 345l-216 -241
q39 -36 98 -36q67 0 108.5 45.5t41.5 119.5q0 66 -32 112z" />
    <glyph glyph-name="ugrave" unicode="&#xf9;" horiz-adv-x="554" 
d="M348 568l-29 -29q-51 27 -79.5 47t-73.5 57l-1 18l74 47zM394 0v68q-95 -77 -177 -77q-79 0 -116.5 45.5t-37.5 141.5v294h90v-273q0 -67 20.5 -96.5t72.5 -29.5q76 0 148 88v311h90v-472h-90z" />
    <glyph glyph-name="uacute" unicode="&#xfa;" horiz-adv-x="554" 
d="M386 647l-1 -18q-45 -37 -73.5 -57t-79.5 -47l-29 29l110 140zM394 0v68q-95 -77 -177 -77q-79 0 -116.5 45.5t-37.5 141.5v294h90v-273q0 -67 20.5 -96.5t72.5 -29.5q76 0 148 88v311h90v-472h-90z" />
    <glyph glyph-name="ucircumflex" unicode="&#xfb;" horiz-adv-x="554" 
d="M395 532l-118 81l-118 -81l-35 36l122 118h61l123 -118zM394 0v68q-95 -77 -177 -77q-79 0 -116.5 45.5t-37.5 141.5v294h90v-273q0 -67 20.5 -96.5t72.5 -29.5q76 0 148 88v311h90v-472h-90z" />
    <glyph glyph-name="udieresis" unicode="&#xfc;" horiz-adv-x="554" 
d="M182 665q24 0 39.5 -14.5t15.5 -39.5q0 -24 -15 -38t-40 -14q-22 0 -38 14t-16 38t16 39t38 15zM371 665q23 0 39 -14.5t16 -39.5q0 -24 -16 -38t-39 -14q-24 0 -39.5 14t-15.5 38q0 25 15.5 39.5t39.5 14.5zM394 0v68q-95 -77 -177 -77q-79 0 -116.5 45.5t-37.5 141.5
v294h90v-273q0 -67 20.5 -96.5t72.5 -29.5q76 0 148 88v311h90v-472h-90z" />
    <glyph glyph-name="yacute" unicode="&#xfd;" horiz-adv-x="510" 
d="M364 647l-1 -18q-45 -37 -73.5 -57t-79.5 -47l-29 29l110 140zM402 471h99q-114 -282 -170 -392q-90 -173 -229 -228l-32 77q78 37 123 90l-190 453h94l123 -292q1 -1 29 -74q41 81 153 366z" />
    <glyph glyph-name="thorn" unicode="&#xfe;" horiz-adv-x="562" 
d="M160 635v-219q85 64 173 64q187 0 187 -243q0 -124 -57 -185t-141 -61q-53 0 -87.5 16t-74.5 50v-219h-90v797h90zM160 332l-1 -194q26 -25 41.5 -37.5t41.5 -23.5t54 -11q59 0 97 42t38 130q0 167 -127 167q-67 0 -144 -73z" />
    <glyph glyph-name="ydieresis" unicode="&#xff;" horiz-adv-x="510" 
d="M160 665q24 0 39.5 -14.5t15.5 -39.5q0 -24 -15 -38t-40 -14q-22 0 -38 14t-16 38t16 39t38 15zM349 665q23 0 39 -14.5t16 -39.5q0 -24 -16 -38t-39 -14q-24 0 -39.5 14t-15.5 38q0 25 15.5 39.5t39.5 14.5zM402 471h99q-114 -282 -170 -392q-90 -173 -229 -228l-32 77
q78 37 123 90l-190 453h94l123 -292q1 -1 29 -74q41 81 153 366z" />
    <glyph glyph-name="Amacron" unicode="&#x100;" horiz-adv-x="660" 
d="M456 695h-250v79h250v-79zM173 144l-59 -144h-99l254 610h123l254 -610h-99l-59 144h-315zM453 229l-100 243q-13 37 -23 73q-10 -36 -23 -73l-100 -243h246z" />
    <glyph glyph-name="amacron" unicode="&#x101;" horiz-adv-x="513" 
d="M382 565h-250v79h250v-79zM99 376l-15 73q121 32 192 32q97 0 135.5 -45.5t38.5 -152.5v-283h-90v59q-40 -32 -77 -50t-86 -18q-81 0 -120.5 34t-39.5 109q0 151 197 151q82 0 126 -1q0 70 -19.5 93.5t-79.5 23.5q-61 0 -162 -25zM360 220h-115q-66 0 -95.5 -16.5
t-29.5 -60.5q0 -85 103 -85q72 0 137 72v90z" />
    <glyph glyph-name="Abreve" unicode="&#x102;" horiz-adv-x="660" 
d="M406 792h67q0 -120 -143 -120q-141 0 -141 120h67q6 -55 74 -55q67 0 76 55zM173 144l-59 -144h-99l254 610h123l254 -610h-99l-59 144h-315zM453 229l-100 243q-13 37 -23 73q-10 -36 -23 -73l-100 -243h246z" />
    <glyph glyph-name="abreve" unicode="&#x103;" horiz-adv-x="513" 
d="M332 664h67q0 -68 -35 -100t-108 -32q-72 0 -106.5 32t-34.5 99h67q3 -34 20 -50t54 -16t54 16t22 51zM99 376l-15 73q121 32 192 32q97 0 135.5 -45.5t38.5 -152.5v-283h-90v59q-40 -32 -77 -50t-86 -18q-81 0 -120.5 34t-39.5 109q0 151 197 151q82 0 126 -1
q0 70 -19.5 93.5t-79.5 23.5q-61 0 -162 -25zM360 220h-115q-66 0 -95.5 -16.5t-29.5 -60.5q0 -85 103 -85q72 0 137 72v90z" />
    <glyph glyph-name="Aogonek" unicode="&#x104;" horiz-adv-x="660" 
d="M634 -108l11 -62q-54 -19 -107 -19t-83 26t-30 69q0 73 108 117l-50 121h-315l-60 -144h-99l254 610h124l253 -610h-47q-91 -29 -91 -71q0 -47 59 -47q15 0 73 10zM448 229l-100 243q-13 37 -23 73q-10 -36 -23 -73l-100 -243h246z" />
    <glyph glyph-name="aogonek" unicode="&#x105;" horiz-adv-x="513" 
d="M471 -108l12 -62q-54 -19 -108 -19t-84 25.5t-30 74.5q0 70 99 115v33q-40 -32 -77 -50t-86 -18q-81 0 -120.5 34t-39.5 109q0 151 197 151q82 0 126 -1q0 70 -19.5 93.5t-79.5 23.5q-61 0 -162 -25l-15 73q121 32 192 32q97 0 135.5 -45.5t38.5 -152.5v-283h-50
q-33 -12 -52.5 -31t-19.5 -40t19.5 -34t51.5 -13q16 0 72 10zM360 220h-115q-66 0 -95.5 -16.5t-29.5 -60.5q0 -85 103 -85q72 0 137 72v90z" />
    <glyph glyph-name="Cacute" unicode="&#x106;" horiz-adv-x="621" 
d="M464 781l-1 -18q-45 -38 -74 -56t-79 -38l-29 29l110 130zM550 136l35 -71q-103 -74 -251 -74q-136 0 -211.5 82t-75.5 231q0 152 77 234t220 82q125 0 217 -53l-29 -70q-87 37 -185 37q-101 0 -153.5 -58.5t-52.5 -171.5q0 -107 52 -167t145 -60q118 0 212 59z" />
    <glyph glyph-name="cacute" unicode="&#x107;" horiz-adv-x="495" 
d="M371 647l-1 -18q-45 -37 -73.5 -57t-79.5 -47l-29 29l110 140zM432 119l33 -60q-51 -39 -95.5 -53.5t-108.5 -14.5q-98 0 -158.5 66.5t-60.5 175.5q0 112 64 180t169 68q94 0 172 -46l-31 -61q-63 31 -140 31q-65 0 -105 -47.5t-40 -124.5q0 -75 38.5 -120t103.5 -45
q82 0 159 51z" />
    <glyph glyph-name="Cdotaccent" unicode="&#x10a;" horiz-adv-x="621" 
d="M334 801q27 0 45.5 -17t18.5 -46q0 -28 -18.5 -45t-45.5 -17q-28 0 -46.5 17t-18.5 45q0 29 18.5 46t46.5 17zM550 136l35 -71q-103 -74 -251 -74q-136 0 -211.5 82t-75.5 231q0 152 77 234t220 82q125 0 217 -53l-29 -70q-87 37 -185 37q-101 0 -153.5 -58.5
t-52.5 -171.5q0 -107 52 -167t145 -60q118 0 212 59z" />
    <glyph glyph-name="cdotaccent" unicode="&#x10b;" horiz-adv-x="495" 
d="M262 677q27 0 45.5 -17t18.5 -46q0 -28 -18.5 -45t-45.5 -17q-28 0 -46.5 17t-18.5 45q0 29 18.5 46t46.5 17zM432 119l33 -60q-51 -39 -95.5 -53.5t-108.5 -14.5q-98 0 -158.5 66.5t-60.5 175.5q0 112 64 180t169 68q94 0 172 -46l-31 -61q-63 31 -140 31
q-65 0 -105 -47.5t-40 -124.5q0 -75 38.5 -120t103.5 -45q82 0 159 51z" />
    <glyph glyph-name="Ccaron" unicode="&#x10c;" horiz-adv-x="621" 
d="M365 675h-61l-122 108l35 36l118 -70l118 70l35 -36zM550 136l35 -71q-103 -74 -251 -74q-136 0 -211.5 82t-75.5 231q0 152 77 234t220 82q125 0 217 -53l-29 -70q-87 37 -185 37q-101 0 -153.5 -58.5t-52.5 -171.5q0 -107 52 -167t145 -60q118 0 212 59z" />
    <glyph glyph-name="ccaron" unicode="&#x10d;" horiz-adv-x="495" 
d="M292 531h-61l-122 118l35 36l118 -80l118 80l35 -36zM432 119l33 -60q-51 -39 -95.5 -53.5t-108.5 -14.5q-98 0 -158.5 66.5t-60.5 175.5q0 112 64 180t169 68q94 0 172 -46l-31 -61q-63 31 -140 31q-65 0 -105 -47.5t-40 -124.5q0 -75 38.5 -120t103.5 -45q82 0 159 51z
" />
    <glyph glyph-name="Dcaron" unicode="&#x10e;" horiz-adv-x="654" 
d="M342 671h-61l-122 108l35 36l118 -70l118 70l35 -36zM84 610h192q159 0 245 -78t86 -222q0 -149 -86 -229.5t-245 -80.5h-192v610zM176 86h100q114 0 175.5 58.5t61.5 165.5q0 103 -61.5 158.5t-175.5 55.5h-100v-438z" />
    <glyph glyph-name="dcaron" unicode="&#x10f;" horiz-adv-x="564" 
d="M626 653v-13q-6 -87 -30 -157h-53l6 170h77zM405 0v62q-39 -36 -74.5 -53.5t-90.5 -17.5q-84 0 -141 61t-57 186q0 243 187 243q101 0 176 -70v242h90v-653h-90zM405 146v179q-67 80 -147 80q-127 0 -127 -167q0 -88 38 -130t97 -42q42 0 72.5 20.5t66.5 59.5z" />
    <glyph glyph-name="Dcroat" unicode="&#x110;" horiz-adv-x="653" 
d="M78 610h192q159 0 245 -78t86 -222q0 -149 -86 -229.5t-245 -80.5h-192v265h-65v73h65v272zM170 86h100q114 0 175.5 58.5t61.5 165.5q0 103 -61.5 158.5t-175.5 55.5h-100v-186h127v-73h-127v-179z" />
    <glyph glyph-name="dcroat" unicode="&#x111;" horiz-adv-x="566" 
d="M540 519h-50v-519h-90v62q-39 -36 -74.5 -53.5t-90.5 -17.5q-84 0 -141 61t-57 186q0 243 187 243q101 0 176 -70v108h-131v67h131v67h90v-67h50v-67zM400 146v179q-67 80 -147 80q-127 0 -127 -167q0 -88 38 -130t97 -42q43 0 73 20.5t66 59.5z" />
    <glyph glyph-name="Emacron" unicode="&#x112;" horiz-adv-x="564" 
d="M410 695h-250v79h250v-79zM505 0h-421v610h412v-86h-320v-175h279v-86h-279v-177h329v-86z" />
    <glyph glyph-name="emacron" unicode="&#x113;" horiz-adv-x="524" 
d="M389 558h-250v79h250v-79zM442 121l33 -58q-49 -39 -96.5 -55.5t-111.5 -16.5q-102 0 -163.5 60t-61.5 181q0 125 62.5 187t166.5 62q98 0 153 -59.5t57 -169.5q0 -23 -3 -41h-350q11 -148 143 -148q88 0 171 58zM130 281h271q-11 127 -130 127q-57 0 -94.5 -31
t-46.5 -96z" />
    <glyph glyph-name="Edotaccent" unicode="&#x116;" horiz-adv-x="564" 
d="M285 797q27 0 45.5 -17t18.5 -46q0 -28 -18.5 -45t-45.5 -17q-28 0 -46.5 17t-18.5 45q0 29 18.5 46t46.5 17zM505 0h-421v610h412v-86h-320v-175h279v-86h-279v-177h329v-86z" />
    <glyph glyph-name="edotaccent" unicode="&#x117;" horiz-adv-x="524" 
d="M263 677q27 0 45.5 -17t18.5 -46q0 -28 -18.5 -45t-45.5 -17q-28 0 -46.5 17t-18.5 45q0 29 18.5 46t46.5 17zM442 121l33 -58q-49 -39 -96.5 -55.5t-111.5 -16.5q-102 0 -163.5 60t-61.5 181q0 125 62.5 187t166.5 62q98 0 153 -59.5t57 -169.5q0 -23 -3 -41h-350
q11 -148 143 -148q88 0 171 58zM130 281h271q-11 127 -130 127q-57 0 -94.5 -31t-46.5 -96z" />
    <glyph glyph-name="Eogonek" unicode="&#x118;" horiz-adv-x="564" 
d="M514 -108l12 -62q-54 -19 -108 -19t-84 25.5t-30 74.5q0 50 53 89h-273v610h412v-86h-320v-175h279v-86h-279v-177h328v-86h-61q-33 -12 -52.5 -31t-19.5 -40t19.5 -34t51.5 -13q16 0 72 10z" />
    <glyph glyph-name="eogonek" unicode="&#x119;" horiz-adv-x="524" 
d="M397 -108l12 -62q-54 -19 -108 -19t-84 25.5t-30 74.5q0 46 44 82q-87 10 -138 69.5t-51 169.5q0 124 62 186t166 62q99 1 154 -58.5t57 -169.5q0 -23 -3 -42h-350q6 -76 43.5 -112t98.5 -36q90 1 171 58l34 -57q-77 -62 -167 -70q-54 -25 -54 -64q0 -21 19.5 -34
t51.5 -13q16 0 72 10zM130 281h271q-11 127 -130 127q-57 0 -94.5 -31t-46.5 -96z" />
    <glyph glyph-name="Ecaron" unicode="&#x11a;" horiz-adv-x="564" 
d="M315 671h-61l-122 108l35 36l118 -70l118 70l35 -36zM505 0h-421v610h412v-86h-320v-175h279v-86h-279v-177h329v-86z" />
    <glyph glyph-name="ecaron" unicode="&#x11b;" horiz-adv-x="524" 
d="M291 531h-61l-122 118l35 36l118 -80l118 80l35 -36zM442 121l33 -58q-49 -39 -96.5 -55.5t-111.5 -16.5q-102 0 -163.5 60t-61.5 181q0 125 62.5 187t166.5 62q98 0 153 -59.5t57 -169.5q0 -23 -3 -41h-350q11 -148 143 -148q88 0 171 58zM130 281h271q-11 127 -130 127
q-57 0 -94.5 -31t-46.5 -96z" />
    <glyph glyph-name="Gbreve" unicode="&#x11e;" horiz-adv-x="669" 
d="M409 792h67q0 -120 -143 -120q-141 0 -141 120h67q6 -55 74 -55q67 0 76 55zM611 317v-243q-133 -83 -284 -83q-131 0 -205.5 82t-74.5 231q0 147 78 231.5t215 84.5q130 0 242 -45l-26 -76q-102 35 -208 35q-99 0 -153 -59.5t-54 -169.5q0 -111 50 -169.5t140 -58.5
q120 0 192 47v109h-205v84h293z" />
    <glyph glyph-name="gbreve" unicode="&#x11f;" horiz-adv-x="550" 
d="M351 664h67q0 -68 -35 -100t-108 -32q-72 0 -106.5 32t-34.5 99h67q3 -34 20 -50t54 -16t54 16t22 51zM495 472l-1 -400q0 -232 -215 -232q-119 0 -209 50l26 68q85 -38 172 -38q68 0 102 35t34 117v20q-36 -37 -73.5 -54t-94.5 -17q-86 0 -140 55t-54 165q0 240 187 240
q91 0 176 -69v60h90zM404 173v152q-75 80 -147 80q-127 0 -127 -164q0 -78 38 -113.5t98 -35.5q42 0 72.5 20.5t65.5 60.5z" />
    <glyph glyph-name="Gdotaccent" unicode="&#x120;" horiz-adv-x="669" 
d="M334 797q27 0 45.5 -17t18.5 -46q0 -28 -18.5 -45t-45.5 -17q-28 0 -46.5 17t-18.5 45q0 29 18.5 46t46.5 17zM611 317v-243q-133 -83 -284 -83q-131 0 -205.5 82t-74.5 231q0 147 78 231.5t215 84.5q130 0 242 -45l-26 -76q-102 35 -208 35q-99 0 -153 -59.5t-54 -169.5
q0 -111 50 -169.5t140 -58.5q120 0 192 47v109h-205v84h293z" />
    <glyph glyph-name="gdotaccent" unicode="&#x121;" horiz-adv-x="550" 
d="M276 677q27 0 45.5 -17t18.5 -46q0 -28 -18.5 -45t-45.5 -17q-28 0 -46.5 17t-18.5 45q0 29 18.5 46t46.5 17zM495 472l-1 -400q0 -232 -215 -232q-119 0 -209 50l26 68q85 -38 172 -38q68 0 102 35t34 117v20q-36 -37 -73.5 -54t-94.5 -17q-86 0 -140 55t-54 165
q0 240 187 240q91 0 176 -69v60h90zM404 173v152q-75 80 -147 80q-127 0 -127 -164q0 -78 38 -113.5t98 -35.5q42 0 72.5 20.5t65.5 60.5z" />
    <glyph glyph-name="Gcommaaccent" unicode="&#x122;" horiz-adv-x="669" 
d="M611 317v-243q-133 -83 -284 -83q-131 0 -205.5 82t-74.5 231q0 147 78 231.5t215 84.5q130 0 242 -45l-26 -76q-102 35 -208 35q-99 0 -153 -59.5t-54 -169.5q0 -111 50 -169.5t140 -58.5q120 0 192 47v109h-205v84h293zM296 -240l-15 29q41 37 49 71q-36 11 -36 47
q0 22 13.5 36t36.5 14q21 0 34.5 -15.5t13.5 -38.5q0 -41 -25 -79t-71 -64z" />
    <glyph glyph-name="gcommaaccent" unicode="&#x123;" horiz-adv-x="550" 
d="M314 717l16 -29q-36 -32 -49 -66q17 -4 27.5 -17t10.5 -30q0 -22 -14 -36t-36 -14t-36 15.5t-14 38.5q0 78 95 138zM495 472l-1 -400q0 -232 -215 -232q-119 0 -209 50l26 68q85 -38 172 -38q68 0 102 35t34 117v20q-36 -37 -73.5 -54t-94.5 -17q-86 0 -140 55t-54 165
q0 240 187 240q91 0 176 -69v60h90zM404 173v152q-75 80 -147 80q-127 0 -127 -164q0 -78 38 -113.5t98 -35.5q42 0 72.5 20.5t65.5 60.5z" />
    <glyph glyph-name="Hbar" unicode="&#x126;" horiz-adv-x="678" 
d="M597 444v-444h-92v248h-332v-248h-92v444h-49v73h49v93h92v-93h332v93h92v-93h49v-73h-49zM505 444h-332v-110h332v110z" />
    <glyph glyph-name="hbar" unicode="&#x127;" horiz-adv-x="555" 
d="M154 532v-135q85 83 183 83q79 0 113 -44t34 -141v-295h-90v268q0 69 -16.5 96.5t-67.5 27.5q-80 0 -156 -87v-305h-90v532h-41v46h41v75h90v-75h139v-46h-139z" />
    <glyph glyph-name="Imacron" unicode="&#x12a;" horiz-adv-x="260" 
d="M256 695h-250v79h250v-79zM176 0h-92v610h92v-610z" />
    <glyph glyph-name="imacron" unicode="&#x12b;" horiz-adv-x="235" 
d="M243 565h-251v79h251v-79zM163 0h-90v472h90v-472z" />
    <glyph glyph-name="Iogonek" unicode="&#x12e;" horiz-adv-x="260" 
d="M212 -108l12 -62q-54 -19 -108 -19t-84 25.5t-30 74.5q0 63 82 107v592h92v-610h-35q-33 -12 -52.5 -31t-19.5 -40t19.5 -34t51.5 -13q16 0 72 10z" />
    <glyph glyph-name="iogonek" unicode="&#x12f;" horiz-adv-x="235" 
d="M118 552q-28 0 -46.5 17t-18.5 45q0 29 18.5 46t46.5 17q27 0 45.5 -17t18.5 -46q0 -28 -18.5 -45t-45.5 -17zM204 -108l12 -62q-54 -19 -108 -19t-84 25.5t-30 74.5q0 63 78 105v456h90v-472h-29q-33 -12 -52.5 -31t-19.5 -40t19.5 -34t51.5 -13q16 0 72 10z" />
    <glyph glyph-name="Idotaccent" unicode="&#x130;" horiz-adv-x="260" 
d="M131 797q27 0 45.5 -17t18.5 -46q0 -28 -18.5 -45t-45.5 -17q-28 0 -46.5 17t-18.5 45q0 29 18.5 46t46.5 17zM176 0h-92v610h92v-610z" />
    <glyph glyph-name="dotlessi" unicode="&#x131;" horiz-adv-x="235" 
d="M163 0h-90v472h90v-472z" />
    <glyph glyph-name="IJ" unicode="&#x132;" horiz-adv-x="740" 
d="M176 0h-92v610h92v-610zM659 610v-399q0 -99 -52 -159.5t-137 -60.5q-87 0 -189 52l26 75q87 -37 144 -37q52 0 84 35.5t32 94.5v399h92z" />
    <glyph glyph-name="ij" unicode="&#x133;" horiz-adv-x="450" 
d="M63 609q0 24 15.5 37t38.5 13t38.5 -13t15.5 -37q0 -23 -15.5 -36.5t-38.5 -13.5t-38.5 13.5t-15.5 36.5zM332 559q-23 0 -38.5 13.5t-15.5 36.5q0 24 15.5 37t38.5 13t38.5 -13t15.5 -37q0 -23 -15.5 -36.5t-38.5 -13.5zM163 0h-90v472h90v-472zM377 472v-443
q0 -87 -28.5 -133.5t-99.5 -64.5l-20 71q35 17 46.5 42.5t11.5 84.5v443h90z" />
    <glyph glyph-name="Kcommaaccent" unicode="&#x136;" horiz-adv-x="638" 
d="M303 284l-127 -139v-145h-92v610h92v-335l311 335h109v-6l-233 -253l250 -344v-7h-102zM273 -240l-15 29q41 37 49 71q-36 11 -36 47q0 22 13.5 36t36.5 14q21 0 34.5 -15.5t13.5 -38.5q0 -41 -25 -79t-71 -64z" />
    <glyph glyph-name="kcommaaccent" unicode="&#x137;" horiz-adv-x="524" 
d="M492 472v-6l-185 -187l211 -272v-7h-106l-171 213l-81 -82v-131h-90v653h90v-404l222 223h110zM228 -240l-15 29q41 37 49 71q-36 11 -36 47q0 22 13.5 36t36.5 14q21 0 34.5 -15.5t13.5 -38.5q0 -41 -25 -79t-71 -64z" />
    <glyph glyph-name="Lacute" unicode="&#x139;" horiz-adv-x="507" 
d="M266 777l-1 -18q-45 -38 -74 -56t-79 -38l-29 29l110 130zM475 0h-391v610h92v-522h299v-88z" />
    <glyph glyph-name="lacute" unicode="&#x13a;" horiz-adv-x="229" 
d="M249 828l-1 -18q-45 -37 -73.5 -57t-79.5 -47l-29 29l110 140zM160 0h-90v653h90v-653z" />
    <glyph glyph-name="Lcommaaccent" unicode="&#x13b;" horiz-adv-x="507" 
d="M475 0h-391v610h92v-522h299v-88zM227 -240l-15 29q41 37 49 71q-36 11 -36 47q0 22 13.5 36t36.5 14q21 0 34.5 -15.5t13.5 -38.5q0 -41 -25 -79t-71 -64z" />
    <glyph glyph-name="lcommaaccent" unicode="&#x13c;" horiz-adv-x="229" 
d="M160 0h-90v653h90v-653zM70 -240l-15 29q41 37 49 71q-36 11 -36 47q0 22 13.5 36t36.5 14q21 0 34.5 -15.5t13.5 -38.5q0 -41 -25 -79t-71 -64z" />
    <glyph glyph-name="Lcaron" unicode="&#x13d;" horiz-adv-x="507" 
d="M386 610v-12q-6 -87 -30 -158h-52l6 170h76zM475 0h-391v610h92v-522h299v-88z" />
    <glyph glyph-name="lcaron" unicode="&#x13e;" horiz-adv-x="235" 
d="M289 653v-13q-6 -87 -30 -157h-53l7 170h76zM160 0h-90v653h90v-653z" />
    <glyph glyph-name="Ldot" unicode="&#x13f;" horiz-adv-x="507" 
d="M475 0h-391v610h92v-522h299v-88zM293 313q0 24 15 39.5t40 15.5t40 -15.5t15 -39.5t-15.5 -39.5t-39.5 -15.5t-39.5 15.5t-15.5 39.5z" />
    <glyph glyph-name="ldot" unicode="&#x140;" horiz-adv-x="330" 
d="M160 0h-90v653h90v-653zM210 324q0 24 15 39.5t40 15.5t40 -15.5t15 -39.5t-15.5 -39.5t-39.5 -15.5t-39.5 15.5t-15.5 39.5z" />
    <glyph glyph-name="Lslash" unicode="&#x141;" horiz-adv-x="510" 
d="M469 88v-88h-391v260l-57 -18v73l57 18v277h92v-248l157 49v-73l-157 -49v-201h299z" />
    <glyph glyph-name="lslash" unicode="&#x142;" horiz-adv-x="235" 
d="M218 340l-62 -25v-315h-90v279l-45 -18v73l45 18v301h90v-265l62 25v-73z" />
    <glyph glyph-name="Nacute" unicode="&#x143;" horiz-adv-x="690" 
d="M475 777l-1 -18q-45 -38 -74 -56t-79 -38l-29 29l110 130zM606 0h-84l-346 453v-453h-92v610h84l346 -455v455h92v-610z" />
    <glyph glyph-name="nacute" unicode="&#x144;" horiz-adv-x="556" 
d="M393 647l-1 -18q-45 -37 -73.5 -57t-79.5 -47l-29 29l110 140zM160 472v-69q85 77 173 77q81 0 119 -44.5t38 -140.5v-295h-90v273q0 69 -16.5 96t-67.5 27q-83 0 -156 -84v-312h-90v472h90z" />
    <glyph glyph-name="Ncommaaccent" unicode="&#x145;" horiz-adv-x="690" 
d="M606 0h-84l-346 453v-453h-92v610h84l346 -455v455h92v-610zM295 -240l-15 29q41 37 49 71q-36 11 -36 47q0 22 13.5 36t36.5 14q21 0 34.5 -15.5t13.5 -38.5q0 -41 -25 -79t-71 -64z" />
    <glyph glyph-name="ncommaaccent" unicode="&#x146;" horiz-adv-x="556" 
d="M160 472v-69q85 77 173 77q81 0 119 -44.5t38 -140.5v-295h-90v273q0 69 -16.5 96t-67.5 27q-83 0 -156 -84v-312h-90v472h90zM233 -240l-15 29q41 37 49 71q-36 11 -36 47q0 22 13.5 36t36.5 14q21 0 34.5 -15.5t13.5 -38.5q0 -41 -25 -79t-71 -64z" />
    <glyph glyph-name="Ncaron" unicode="&#x147;" horiz-adv-x="690" 
d="M375 671h-61l-122 108l35 36l118 -70l118 70l35 -36zM606 0h-84l-346 453v-453h-92v610h84l346 -455v455h92v-610z" />
    <glyph glyph-name="ncaron" unicode="&#x148;" horiz-adv-x="556" 
d="M314 531h-61l-122 118l35 36l118 -80l118 80l35 -36zM160 472v-69q85 77 173 77q81 0 119 -44.5t38 -140.5v-295h-90v273q0 69 -16.5 96t-67.5 27q-83 0 -156 -84v-312h-90v472h90z" />
    <glyph glyph-name="Omacron" unicode="&#x14c;" horiz-adv-x="675" 
d="M463 695h-250v79h250v-79zM337 620q139 0 215 -82t76 -234q0 -150 -76.5 -231.5t-214.5 -81.5t-214 81.5t-76 231.5q0 152 76 234t214 82zM337 77q95 0 146 58t51 169q0 113 -51 171.5t-146 58.5q-94 0 -145 -59t-51 -171q0 -111 51 -169t145 -58z" />
    <glyph glyph-name="omacron" unicode="&#x14d;" 
d="M404 565h-250v79h250v-79zM279 481q107 0 172 -68t65 -180q0 -109 -65.5 -175.5t-172.5 -66.5q-106 0 -171 66.5t-65 175.5q0 112 65 180t172 68zM278 68q68 0 109 45.5t41 119.5q0 77 -41 124t-108 47t-108 -47t-41 -124q0 -74 40.5 -119.5t107.5 -45.5z" />
    <glyph glyph-name="Ohungarumlaut" unicode="&#x150;" horiz-adv-x="675" 
d="M393 792v-19q-82 -73 -128 -101l-40 20l99 133zM535 792l-1 -19q-82 -73 -128 -101l-40 20l100 133zM337 620q139 0 215 -82t76 -234q0 -150 -76.5 -231.5t-214.5 -81.5t-214 81.5t-76 231.5q0 152 76 234t214 82zM337 77q95 0 146 58t51 169q0 113 -51 171.5t-146 58.5
q-94 0 -145 -59t-51 -171q0 -111 51 -169t145 -58z" />
    <glyph glyph-name="ohungarumlaut" unicode="&#x151;" 
d="M327 672v-19q-90 -80 -128 -111l-40 20l99 143zM469 672l-1 -19q-90 -80 -128 -111l-40 20l100 143zM279 481q107 0 172 -68t65 -180q0 -109 -65.5 -175.5t-172.5 -66.5q-106 0 -171 66.5t-65 175.5q0 112 65 180t172 68zM278 68q68 0 109 45.5t41 119.5q0 77 -41 124
t-108 47t-108 -47t-41 -124q0 -74 40.5 -119.5t107.5 -45.5z" />
    <glyph glyph-name="OE" unicode="&#x152;" horiz-adv-x="955" 
d="M890 86v-86h-420v24q-54 -33 -133 -33q-138 0 -214 81.5t-76 231.5q0 152 76 234t214 82q79 0 133 -33v23h412v-86h-320v-175h279v-86h-279v-177h328zM470 120v371q-47 43 -133 43q-94 0 -145 -59t-51 -171q0 -111 51 -169t145 -58q86 0 133 43z" />
    <glyph glyph-name="oe" unicode="&#x153;" horiz-adv-x="910" 
d="M510 211v-3q6 -75 43.5 -110t98.5 -35q88 0 171 58l33 -58q-49 -39 -96.5 -55.5t-111.5 -16.5q-127 0 -185 87q-65 -87 -190 -87q-106 0 -171 66.5t-65 175.5q0 112 65 180t172 68q125 0 190 -90q59 90 188 90q99 0 154 -59.5t57 -169.5q0 -23 -3 -41h-350zM511 281h272
q-5 62 -39 94.5t-92 32.5q-57 0 -94.5 -31t-46.5 -96zM273 68q67 0 108.5 45.5t41.5 119.5q0 77 -41 124t-108 47t-108 -47t-41 -124q0 -74 40.5 -119.5t107.5 -45.5z" />
    <glyph glyph-name="Racute" unicode="&#x154;" horiz-adv-x="599" 
d="M423 777l-1 -18q-45 -38 -74 -56t-79 -38l-29 29l110 130zM574 7v-7h-101l-155 192h-142v-192h-92v610h225q121 0 186 -55t65 -156q0 -71 -39.5 -122.5t-109.5 -72.5zM176 278h135q74 0 114.5 31.5t40.5 89.5q0 59 -40.5 91.5t-114.5 33.5h-135v-246z" />
    <glyph glyph-name="racute" unicode="&#x155;" horiz-adv-x="379" 
d="M297 647l-1 -18q-45 -37 -73.5 -57t-79.5 -47l-29 29l110 140zM160 472v-92q19 45 57 72.5t84 27.5q33 0 60 -3l-6 -89q-24 2 -57 2q-48 0 -84 -31t-54 -87v-272h-90v472h90z" />
    <glyph glyph-name="Rcommaaccent" unicode="&#x156;" horiz-adv-x="599" 
d="M574 7v-7h-101l-155 192h-142v-192h-92v610h225q121 0 186 -55t65 -156q0 -71 -39.5 -122.5t-109.5 -72.5zM176 278h135q74 0 114.5 31.5t40.5 89.5q0 59 -40.5 91.5t-114.5 33.5h-135v-246zM262 -240l-15 29q41 37 49 71q-36 11 -36 47q0 22 13.5 36t36.5 14
q21 0 34.5 -15.5t13.5 -38.5q0 -41 -25 -79t-71 -64z" />
    <glyph glyph-name="rcommaaccent" unicode="&#x157;" horiz-adv-x="379" 
d="M160 472v-92q19 45 57 72.5t84 27.5q33 0 60 -3l-6 -89q-24 2 -57 2q-48 0 -84 -31t-54 -87v-272h-90v472h90zM69 -240l-15 29q41 37 49 71q-36 11 -36 47q0 22 13.5 36t36.5 14q21 0 34.5 -15.5t13.5 -38.5q0 -41 -25 -79t-71 -64z" />
    <glyph glyph-name="Rcaron" unicode="&#x158;" horiz-adv-x="599" 
d="M262 671l-122 108l35 36l118 -70l118 70l35 -36l-123 -108h-61zM574 7v-7h-101l-155 192h-142v-192h-92v610h225q121 0 186 -55t65 -156q0 -71 -39.5 -122.5t-109.5 -72.5zM176 278h135q74 0 114.5 31.5t40.5 89.5q0 59 -40.5 91.5t-114.5 33.5h-135v-246z" />
    <glyph glyph-name="rcaron" unicode="&#x159;" horiz-adv-x="388" 
d="M227 531h-61l-122 118l35 36l118 -80l118 80l35 -36zM169 472v-92q19 45 57 72.5t84 27.5q33 0 60 -3l-6 -89q-24 2 -57 2q-48 0 -84 -31t-54 -87v-272h-90v472h90z" />
    <glyph glyph-name="Sacute" unicode="&#x15a;" horiz-adv-x="549" 
d="M399 777l-1 -18q-45 -38 -74 -56t-79 -38l-29 29l110 130zM479 572l-28 -74q-101 41 -196 41q-46 0 -73 -22t-27 -52q0 -50 42 -74q19 -10 121 -44q92 -30 135 -67.5t43 -112.5q0 -86 -55.5 -131t-141.5 -45q-63 0 -136 21.5t-132 54.5l36 72q131 -64 228 -64
q49 0 77.5 20t28.5 58q0 48 -32 72t-130 53q-45 14 -70 24t-54 29.5t-42 50.5t-13 74q0 74 53 119t143 45q110 0 223 -48z" />
    <glyph glyph-name="sacute" unicode="&#x15b;" horiz-adv-x="446" 
d="M334 649l-1 -18q-45 -37 -73.5 -57t-79.5 -47l-29 29l110 140zM392 440l-24 -68q-101 38 -154 38q-79 0 -79 -59q0 -9 2 -16t8.5 -13t11 -9.5t16.5 -8.5t18.5 -7l23.5 -7t25 -8q96 -31 131 -59.5t35 -96.5q0 -63 -46 -99t-124 -36q-113 0 -207 69l38 63q43 -30 80 -43.5
t88 -13.5q40 0 63.5 15t23.5 44q0 13 -2 22.5t-8.5 17t-12 12t-19.5 10t-22.5 8.5t-30.5 9.5l-35 10.5q-76 24 -108.5 51.5t-32.5 81.5q0 65 43 99.5t122 34.5q77 0 176 -42z" />
    <glyph glyph-name="Scedilla" unicode="&#x15e;" horiz-adv-x="549" 
d="M479 572l-28 -74q-101 41 -196 41q-46 0 -73 -22t-27 -52q0 -50 42 -74q19 -10 121 -44q92 -30 135 -67.5t43 -112.5q0 -86 -55.5 -131t-141.5 -45q-19 0 -28 1l-2 -24q59 0 81 -18t22 -67q0 -46 -26.5 -69.5t-75.5 -23.5q-46 0 -102 18l11 52q42 -9 71 -9q31 0 46 6
t14 27q0 23 -12.5 28t-54.5 5h-43l17 82q-102 20 -186 68l36 72q131 -64 228 -64q49 0 77.5 20t28.5 58q0 48 -32 72t-130 53q-45 14 -70 24t-54 29.5t-42 50.5t-13 74q0 74 53 119t143 45q110 0 223 -48z" />
    <glyph glyph-name="scedilla" unicode="&#x15f;" horiz-adv-x="446" 
d="M392 440l-24 -68q-101 38 -154 38q-79 0 -79 -59q0 -9 2 -16t8.5 -13t11 -9.5t16.5 -8.5t18.5 -7l23.5 -7t25 -8q96 -31 131 -59.5t35 -96.5q0 -63 -46 -99t-124 -36h-5l-2 -23q59 0 81 -18t22 -67q0 -46 -26.5 -69.5t-75.5 -23.5q-46 0 -102 18l11 52q42 -9 71 -9
q31 0 46 6t14 27q0 23 -12.5 28t-54.5 5h-43l16 79q-80 15 -147 64l38 63q43 -30 80 -43.5t88 -13.5q40 0 63.5 15t23.5 44q0 13 -2 22.5t-8.5 17t-12 12t-19.5 10t-22.5 8.5t-30.5 9.5l-35 10.5q-76 24 -108.5 51.5t-32.5 81.5q0 65 43 99.5t122 34.5q77 0 176 -42z" />
    <glyph glyph-name="Scaron" unicode="&#x160;" horiz-adv-x="549" 
d="M299 671h-61l-122 108l35 36l118 -70l118 70l35 -36zM479 572l-28 -74q-101 41 -196 41q-46 0 -73 -22t-27 -52q0 -50 42 -74q19 -10 121 -44q92 -30 135 -67.5t43 -112.5q0 -86 -55.5 -131t-141.5 -45q-63 0 -136 21.5t-132 54.5l36 72q131 -64 228 -64q49 0 77.5 20
t28.5 58q0 48 -32 72t-130 53q-45 14 -70 24t-54 29.5t-42 50.5t-13 74q0 74 53 119t143 45q110 0 223 -48z" />
    <glyph glyph-name="scaron" unicode="&#x161;" horiz-adv-x="446" 
d="M255 533h-61l-122 118l35 36l118 -80l118 80l35 -36zM392 440l-24 -68q-101 38 -154 38q-79 0 -79 -59q0 -9 2 -16t8.5 -13t11 -9.5t16.5 -8.5t18.5 -7l23.5 -7t25 -8q96 -31 131 -59.5t35 -96.5q0 -63 -46 -99t-124 -36q-113 0 -207 69l38 63q43 -30 80 -43.5t88 -13.5
q40 0 63.5 15t23.5 44q0 13 -2 22.5t-8.5 17t-12 12t-19.5 10t-22.5 8.5t-30.5 9.5l-35 10.5q-76 24 -108.5 51.5t-32.5 81.5q0 65 43 99.5t122 34.5q77 0 176 -42z" />
    <glyph glyph-name="Tcaron" unicode="&#x164;" horiz-adv-x="546" 
d="M303 671h-61l-122 108l35 36l118 -70l118 70l35 -36zM532 524h-213v-524h-92v524h-213v86h518v-86z" />
    <glyph glyph-name="tcaron" unicode="&#x165;" horiz-adv-x="367" 
d="M310 679v-13q-6 -87 -30 -157h-52l6 170h76zM330 84l10 -66q-62 -22 -110 -22q-75 0 -108 37.5t-33 120.5v242h-71v76h71v118h90v-118h140v-76h-140v-239q0 -46 18 -62t63 -16q35 0 70 5z" />
    <glyph glyph-name="Umacron" unicode="&#x16a;" horiz-adv-x="663" 
d="M457 695h-250v79h250v-79zM592 610v-332q0 -138 -67.5 -212.5t-192.5 -74.5t-192.5 74.5t-67.5 212.5v332h92v-332q0 -96 43.5 -147.5t124.5 -51.5t124.5 51t43.5 148v332h92z" />
    <glyph glyph-name="umacron" unicode="&#x16b;" horiz-adv-x="554" 
d="M402 565h-250v79h250v-79zM394 0v68q-95 -77 -177 -77q-79 0 -116.5 45.5t-37.5 141.5v294h90v-273q0 -67 20.5 -96.5t72.5 -29.5q76 0 148 88v311h90v-472h-90z" />
    <glyph glyph-name="Uring" unicode="&#x16e;" horiz-adv-x="663" 
d="M332 850q43 0 70 -26.5t27 -70.5q0 -41 -27.5 -66.5t-70.5 -25.5q-42 0 -69 26t-27 66q0 44 27 70.5t70 26.5zM331 712q21 0 33.5 11t12.5 30q0 22 -12.5 34.5t-32.5 12.5t-32.5 -12.5t-12.5 -34.5q0 -19 12 -30t32 -11zM592 610v-332q0 -138 -67.5 -212.5t-192.5 -74.5
t-192.5 74.5t-67.5 212.5v332h92v-332q0 -96 43.5 -147.5t124.5 -51.5t124.5 51t43.5 148v332h92z" />
    <glyph glyph-name="uring" unicode="&#x16f;" horiz-adv-x="554" 
d="M277 718q43 0 70 -26.5t27 -70.5q0 -41 -27.5 -66.5t-70.5 -25.5q-42 0 -69 26t-27 66q0 44 27 70.5t70 26.5zM276 580q21 0 33.5 11t12.5 30q0 22 -12.5 34.5t-32.5 12.5t-32.5 -12.5t-12.5 -34.5q0 -19 12 -30t32 -11zM394 0v68q-95 -77 -177 -77q-79 0 -116.5 45.5
t-37.5 141.5v294h90v-273q0 -67 20.5 -96.5t72.5 -29.5q76 0 148 88v311h90v-472h-90z" />
    <glyph glyph-name="Uhungarumlaut" unicode="&#x170;" horiz-adv-x="663" 
d="M388 792v-19q-82 -73 -128 -101l-40 20l99 133zM530 792l-1 -19q-82 -73 -128 -101l-40 20l100 133zM592 610v-332q0 -138 -67.5 -212.5t-192.5 -74.5t-192.5 74.5t-67.5 212.5v332h92v-332q0 -96 43.5 -147.5t124.5 -51.5t124.5 51t43.5 148v332h92z" />
    <glyph glyph-name="uhungarumlaut" unicode="&#x171;" horiz-adv-x="554" 
d="M326 672v-19q-90 -80 -128 -111l-40 20l99 143zM468 672l-1 -19q-90 -80 -128 -111l-40 20l100 143zM394 0v68q-95 -77 -177 -77q-79 0 -116.5 45.5t-37.5 141.5v294h90v-273q0 -67 20.5 -96.5t72.5 -29.5q76 0 148 88v311h90v-472h-90z" />
    <glyph glyph-name="Uogonek" unicode="&#x172;" horiz-adv-x="663" 
d="M592 610v-332q0 -134 -64 -208t-183 -79q-51 -25 -51 -62q0 -21 19.5 -34t51.5 -13q16 0 72 10l12 -62q-54 -19 -108 -19t-84 25.5t-30 74.5q0 46 47 85q-98 16 -150 88.5t-52 193.5v332h92v-332q0 -96 43.5 -147.5t124.5 -51.5t124.5 51t43.5 148v332h92z" />
    <glyph glyph-name="uogonek" unicode="&#x173;" horiz-adv-x="554" 
d="M505 -108l12 -62q-54 -19 -108 -19t-84 25.5t-30 74.5q0 70 99 115v42q-95 -77 -178 -77q-79 0 -116 45.5t-37 141.5v294h90v-273q0 -67 20.5 -96.5t72.5 -29.5q76 0 148 88v311h90v-472h-50q-33 -12 -52.5 -31t-19.5 -40t19.5 -34t51.5 -13q16 0 72 10z" />
    <glyph glyph-name="Wcircumflex" unicode="&#x174;" horiz-adv-x="892" 
d="M446 733l-118 -71l-35 36l122 108h61l123 -108l-35 -36zM702 0h-134l-107 399q-1 6 -4 20.5l-6 28t-5 26.5q-2 -16 -14 -75l-108 -399h-134l-175 610h103l122 -443q10 -43 14 -84l18 84l123 443h102l123 -443q10 -42 17 -83q7 47 15 83l123 443h103z" />
    <glyph glyph-name="wcircumflex" unicode="&#x175;" horiz-adv-x="729" 
d="M483 532l-118 81l-118 -81l-35 36l122 118h61l123 -118zM569 0h-110l-94 323l-94 -323h-111l-150 472h87l104 -315q10 -40 15 -64q15 58 17 64l89 315h86l88 -315l8.5 -32.5t8.5 -31.5q6 28 16 64l103 315h87z" />
    <glyph glyph-name="Ycircumflex" unicode="&#x176;" horiz-adv-x="580" 
d="M290 733l-118 -71l-35 36l122 108h61l123 -108l-35 -36zM336 200v-200h-92v200l-226 410h94l155 -271q8 -13 23 -52q9 27 23 52l155 271h94z" />
    <glyph glyph-name="ycircumflex" unicode="&#x177;" horiz-adv-x="510" 
d="M373 532l-118 81l-118 -81l-35 36l122 118h61l123 -118zM402 471h99q-114 -282 -170 -392q-90 -173 -229 -228l-32 77q78 37 123 90l-190 453h94l123 -292q1 -1 29 -74q41 81 153 366z" />
    <glyph glyph-name="Ydieresis" unicode="&#x178;" horiz-adv-x="580" 
d="M195 788q24 0 39.5 -14.5t15.5 -39.5q0 -24 -15 -38t-40 -14q-22 0 -38 14t-16 38t16 39t38 15zM384 788q23 0 39 -14.5t16 -39.5q0 -24 -16 -38t-39 -14q-24 0 -39.5 14t-15.5 38q0 25 15.5 39.5t39.5 14.5zM336 200v-200h-92v200l-226 410h94l155 -271q8 -13 23 -52
q9 27 23 52l155 271h94z" />
    <glyph glyph-name="Zacute" unicode="&#x179;" horiz-adv-x="588" 
d="M424 777l-1 -18q-45 -38 -74 -56t-79 -38l-29 29l110 130zM546 0h-497v71l374 456q-99 -3 -100 -3h-255v86h473v-75l-362 -452l96 3h271v-86z" />
    <glyph glyph-name="zacute" unicode="&#x17a;" horiz-adv-x="499" 
d="M359 647l-1 -18q-45 -37 -73.5 -57t-79.5 -47l-29 29l110 140zM461 0h-423v59l298 340q-36 -3 -87 -3h-204v76h407v-57l-290 -343q84 3 89 3h210v-75z" />
    <glyph glyph-name="Zdotaccent" unicode="&#x17b;" horiz-adv-x="588" 
d="M294 797q27 0 45.5 -17t18.5 -46q0 -28 -18.5 -45t-45.5 -17q-28 0 -46.5 17t-18.5 45q0 29 18.5 46t46.5 17zM546 0h-497v71l374 456q-99 -3 -100 -3h-255v86h473v-75l-362 -452l96 3h271v-86z" />
    <glyph glyph-name="zdotaccent" unicode="&#x17c;" horiz-adv-x="499" 
d="M250 677q27 0 45.5 -17t18.5 -46q0 -28 -18.5 -45t-45.5 -17q-28 0 -46.5 17t-18.5 45q0 29 18.5 46t46.5 17zM461 0h-423v59l298 340q-36 -3 -87 -3h-204v76h407v-57l-290 -343q84 3 89 3h210v-75z" />
    <glyph glyph-name="Zcaron" unicode="&#x17d;" horiz-adv-x="588" 
d="M324 671h-61l-122 108l35 36l118 -70l118 70l35 -36zM546 0h-497v71l374 456q-99 -3 -100 -3h-255v86h473v-75l-362 -452l96 3h271v-86z" />
    <glyph glyph-name="zcaron" unicode="&#x17e;" horiz-adv-x="499" 
d="M280 531h-61l-122 118l35 36l118 -80l118 80l35 -36zM461 0h-423v59l298 340q-36 -3 -87 -3h-204v76h407v-57l-290 -343q84 3 89 3h210v-75z" />
    <glyph glyph-name="florin" unicode="&#x192;" horiz-adv-x="552" 
d="M536 498l-28 -56q-70 37 -141 37q-63 0 -105 -44t-61 -143l-6 -35h228l-12 -60h-228l-38 -197h-88l38 197h-62l11 60h62l7 35q26 134 85.5 196.5t156.5 62.5q102 0 181 -53z" />
    <glyph glyph-name="Acaron" unicode="&#x1cd;" horiz-adv-x="660" 
d="M361 671h-61l-122 108l35 36l118 -70l118 70l35 -36zM173 144l-59 -144h-99l254 610h123l254 -610h-99l-59 144h-315zM453 229l-100 243q-13 37 -23 73q-10 -36 -23 -73l-100 -243h246z" />
    <glyph glyph-name="Scommaaccent" unicode="&#x218;" horiz-adv-x="549" 
d="M479 572l-28 -74q-101 41 -196 41q-46 0 -73 -22t-27 -52q0 -50 42 -74q19 -10 121 -44q92 -30 135 -67.5t43 -112.5q0 -86 -55.5 -131t-141.5 -45q-63 0 -136 21.5t-132 54.5l36 72q131 -64 228 -64q49 0 77.5 20t28.5 58q0 48 -32 72t-130 53q-45 14 -70 24t-54 29.5
t-42 50.5t-13 74q0 74 53 119t143 45q110 0 223 -48zM220 -240l-15 29q41 37 49 71q-36 11 -36 47q0 22 13.5 36t36.5 14q21 0 34.5 -15.5t13.5 -38.5q0 -41 -25 -79t-71 -64z" />
    <glyph glyph-name="scommaaccent" unicode="&#x219;" horiz-adv-x="446" 
d="M392 440l-24 -68q-101 38 -154 38q-79 0 -79 -59q0 -9 2 -16t8.5 -13t11 -9.5t16.5 -8.5t18.5 -7l23.5 -7t25 -8q96 -31 131 -59.5t35 -96.5q0 -63 -46 -99t-124 -36q-113 0 -207 69l38 63q43 -30 80 -43.5t88 -13.5q40 0 63.5 15t23.5 44q0 13 -2 22.5t-8.5 17t-12 12
t-19.5 10t-22.5 8.5t-30.5 9.5l-35 10.5q-76 24 -108.5 51.5t-32.5 81.5q0 65 43 99.5t122 34.5q77 0 176 -42zM180 -240l-15 29q41 37 49 71q-36 11 -36 47q0 22 13.5 36t36.5 14q21 0 34.5 -15.5t13.5 -38.5q0 -41 -25 -79t-71 -64z" />
    <glyph glyph-name="uni021A" unicode="&#x21a;" horiz-adv-x="546" 
d="M532 524h-213v-524h-92v524h-213v86h518v-86zM229 -240l-15 29q41 37 49 71q-36 11 -36 47q0 22 13.5 36t36.5 14q21 0 34.5 -15.5t13.5 -38.5q0 -41 -25 -79t-71 -64z" />
    <glyph glyph-name="uni021B" unicode="&#x21b;" horiz-adv-x="362" 
d="M330 84l10 -66q-62 -22 -110 -22q-75 0 -108 37.5t-33 120.5v242h-71v76h71v118h90v-118h140v-76h-140v-239q0 -46 18 -62t63 -16q35 0 70 5zM144 -234l-15 29q41 37 49 71q-36 11 -36 47q0 22 13.5 36t36.5 14q21 0 34.5 -15.5t13.5 -38.5q0 -41 -25 -79t-71 -64z" />
    <glyph glyph-name="circumflex" unicode="&#x2c6;" horiz-adv-x="488" 
d="M362 532l-118 81l-118 -81l-35 36l122 118h61l123 -118z" />
    <glyph glyph-name="caron" unicode="&#x2c7;" horiz-adv-x="488" 
d="M274 531h-61l-122 118l35 36l118 -80l118 80l35 -36z" />
    <glyph glyph-name="breve" unicode="&#x2d8;" horiz-adv-x="488" 
d="M319 664h67q0 -68 -35 -100t-108 -32q-72 0 -106.5 32t-34.5 99h67q3 -34 20 -50t54 -16t54 16t22 51z" />
    <glyph glyph-name="dotaccent" unicode="&#x2d9;" horiz-adv-x="488" 
d="M244 677q27 0 45.5 -17t18.5 -46q0 -28 -18.5 -45t-45.5 -17q-28 0 -46.5 17t-18.5 45q0 29 18.5 46t46.5 17z" />
    <glyph glyph-name="ring" unicode="&#x2da;" horiz-adv-x="488" 
d="M244 718q43 0 70 -26.5t27 -70.5q0 -41 -27.5 -66.5t-70.5 -25.5q-42 0 -69 26t-27 66q0 44 27 70.5t70 26.5zM243 580q21 0 33.5 11t12.5 30q0 22 -12.5 34.5t-32.5 12.5t-32.5 -12.5t-12.5 -34.5q0 -19 12 -30t32 -11z" />
    <glyph glyph-name="ogonek" unicode="&#x2db;" horiz-adv-x="488" 
d="M324 -108l12 -62q-54 -19 -108 -19t-84 25.5t-30 74.5q0 42 36 75t97 53l30 -32q-43 -10 -69.5 -31.5t-26.5 -46.5q0 -21 19.5 -34t51.5 -13q16 0 72 10z" />
    <glyph glyph-name="tilde" unicode="&#x2dc;" horiz-adv-x="488" 
d="M355 671l47 -11q-8 -44 -32.5 -70t-53.5 -28t-58 10l-55 28q-49 25 -70 -31l-46 11q12 64 55.5 85.5t86.5 -2.5l55 -26q51 -25 71 34z" />
    <glyph glyph-name="hungarumlaut" unicode="&#x2dd;" horiz-adv-x="488" 
d="M280 672v-19q-90 -80 -128 -111l-40 20l99 143zM422 672l-1 -19q-90 -80 -128 -111l-40 20l100 143z" />
    <glyph glyph-name="commaturnedabovecomb" unicode="&#x312;" horiz-adv-x="0" 
d="M271 717l16 -29q-36 -32 -49 -66q17 -4 27.5 -17t10.5 -30q0 -22 -14 -36t-36 -14t-36 15.5t-14 38.5q0 78 95 138z" />
    <glyph glyph-name="commaaccentcomb" unicode="&#x326;" horiz-adv-x="0" 
d="M194 -240l-15 29q41 37 49 71q-36 11 -36 47q0 22 13.5 36t36.5 14q21 0 34.5 -15.5t13.5 -38.5q0 -41 -25 -79t-71 -64z" />
    <glyph glyph-name="Wgrave" unicode="&#x1e80;" horiz-adv-x="892" 
d="M496 688l-29 -29q-50 20 -79 38t-74 56l-1 18l74 47zM702 0h-134l-107 399q-1 6 -4 20.5l-6 28t-5 26.5q-2 -16 -14 -75l-108 -399h-134l-175 610h103l122 -443q10 -43 14 -84l18 84l123 443h102l123 -443q10 -42 17 -83q7 47 15 83l123 443h103z" />
    <glyph glyph-name="wgrave" unicode="&#x1e81;" horiz-adv-x="729" 
d="M436 568l-29 -29q-51 27 -79.5 47t-73.5 57l-1 18l74 47zM569 0h-110l-94 323l-94 -323h-111l-150 472h87l104 -315q10 -40 15 -64q15 58 17 64l89 315h86l88 -315l8.5 -32.5t8.5 -31.5q6 28 16 64l103 315h87z" />
    <glyph glyph-name="Wacute" unicode="&#x1e82;" horiz-adv-x="892" 
d="M576 777l-1 -18q-45 -38 -74 -56t-79 -38l-29 29l110 130zM702 0h-134l-107 399q-1 6 -4 20.5l-6 28t-5 26.5q-2 -16 -14 -75l-108 -399h-134l-175 610h103l122 -443q10 -43 14 -84l18 84l123 443h102l123 -443q10 -42 17 -83q7 47 15 83l123 443h103z" />
    <glyph glyph-name="wacute" unicode="&#x1e83;" horiz-adv-x="729" 
d="M474 647l-1 -18q-45 -37 -73.5 -57t-79.5 -47l-29 29l110 140zM569 0h-110l-94 323l-94 -323h-111l-150 472h87l104 -315q10 -40 15 -64q15 58 17 64l89 315h86l88 -315l8.5 -32.5t8.5 -31.5q6 28 16 64l103 315h87z" />
    <glyph glyph-name="Wdieresis" unicode="&#x1e84;" horiz-adv-x="892" 
d="M351 788q24 0 39.5 -14.5t15.5 -39.5q0 -24 -15 -38t-40 -14q-22 0 -38 14t-16 38t16 39t38 15zM540 788q23 0 39 -14.5t16 -39.5q0 -24 -16 -38t-39 -14q-24 0 -39.5 14t-15.5 38q0 25 15.5 39.5t39.5 14.5zM702 0h-134l-107 399q-1 6 -4 20.5l-6 28t-5 26.5
q-2 -16 -14 -75l-108 -399h-134l-175 610h103l122 -443q10 -43 14 -84l18 84l123 443h102l123 -443q10 -42 17 -83q7 47 15 83l123 443h103z" />
    <glyph glyph-name="wdieresis" unicode="&#x1e85;" horiz-adv-x="729" 
d="M270 665q24 0 39.5 -14.5t15.5 -39.5q0 -24 -15 -38t-40 -14q-22 0 -38 14t-16 38t16 39t38 15zM459 665q23 0 39 -14.5t16 -39.5q0 -24 -16 -38t-39 -14q-24 0 -39.5 14t-15.5 38q0 25 15.5 39.5t39.5 14.5zM569 0h-110l-94 323l-94 -323h-111l-150 472h87l104 -315
q10 -40 15 -64q15 58 17 64l89 315h86l88 -315l8.5 -32.5t8.5 -31.5q6 28 16 64l103 315h87z" />
    <glyph glyph-name="Ygrave" unicode="&#x1ef2;" horiz-adv-x="580" 
d="M340 688l-29 -29q-50 20 -79 38t-74 56l-1 18l74 47zM336 200v-200h-92v200l-226 410h94l155 -271q8 -13 23 -52q9 27 23 52l155 271h94z" />
    <glyph glyph-name="ygrave" unicode="&#x1ef3;" horiz-adv-x="510" 
d="M326 568l-29 -29q-51 27 -79.5 47t-73.5 57l-1 18l74 47zM402 471h99q-114 -282 -170 -392q-90 -173 -229 -228l-32 77q78 37 123 90l-190 453h94l123 -292q1 -1 29 -74q41 81 153 366z" />
    <glyph glyph-name="uni2009" unicode="&#x2009;" horiz-adv-x="93" 
 />
    <glyph glyph-name="endash" unicode="&#x2013;" horiz-adv-x="499" 
d="M436 310v-69h-373v69h373z" />
    <glyph glyph-name="emdash" unicode="&#x2014;" horiz-adv-x="899" 
d="M836 310v-69h-773v69h773z" />
    <glyph glyph-name="quoteleft" unicode="&#x2018;" horiz-adv-x="256" 
d="M182 665l24 -27q-49 -42 -62 -100q19 -5 30.5 -19t11.5 -33q0 -24 -15 -39.5t-40 -15.5q-24 0 -39.5 17t-15.5 43q0 101 106 174z" />
    <glyph glyph-name="quoteright" unicode="&#x2019;" horiz-adv-x="256" 
d="M76 431l-24 27q49 42 62 100q-41 10 -41 52q0 24 15 39.5t39 15.5t39.5 -17t15.5 -43q0 -101 -106 -174z" />
    <glyph glyph-name="quotesinglbase" unicode="&#x201a;" horiz-adv-x="256" 
d="M76 -109l-24 27q49 42 62 100q-41 10 -41 52q0 24 15 39.5t39 15.5t39.5 -17t15.5 -43q0 -101 -106 -174z" />
    <glyph glyph-name="quotedblleft" unicode="&#x201c;" horiz-adv-x="416" 
d="M182 665l24 -27q-49 -42 -62 -100q19 -5 30.5 -19t11.5 -33q0 -24 -15 -39.5t-40 -15.5q-24 0 -39.5 17t-15.5 43q0 101 106 174zM342 665l24 -27q-49 -42 -62 -100q19 -5 30.5 -19t11.5 -33q0 -24 -15 -39.5t-40 -15.5q-24 0 -39.5 17t-15.5 43q0 101 106 174z" />
    <glyph glyph-name="quotedblright" unicode="&#x201d;" horiz-adv-x="416" 
d="M76 431l-24 27q49 42 62 100q-41 10 -41 52q0 24 15 39.5t39 15.5t39.5 -17t15.5 -43q0 -101 -106 -174zM236 431l-24 27q49 42 62 100q-19 5 -30.5 19t-11.5 33q0 24 15 39.5t40 15.5q24 0 39.5 -17t15.5 -43q0 -101 -106 -174z" />
    <glyph glyph-name="quotedblbase" unicode="&#x201e;" horiz-adv-x="416" 
d="M76 -109l-24 27q49 42 62 100q-41 10 -41 52q0 24 15 39.5t39 15.5t39.5 -17t15.5 -43q0 -101 -106 -174zM236 -109l-24 27q49 42 62 100q-19 5 -30.5 19t-11.5 33q0 24 15 39.5t40 15.5q24 0 39.5 -17t15.5 -43q0 -101 -106 -174z" />
    <glyph glyph-name="dagger" unicode="&#x2020;" horiz-adv-x="508" 
d="M286 364l-8 -450h-49l-7 450l-176 6v50l176 6l7 184h49l7 -184l177 -6v-50z" />
    <glyph glyph-name="daggerdbl" unicode="&#x2021;" horiz-adv-x="508" 
d="M286 163l176 -6v-50l-177 -6l-7 -184h-49l-7 184l-176 6v50l175 6v201l-175 6v50l176 6l7 184h49l7 -184l177 -6v-50l-176 -6v-201z" />
    <glyph glyph-name="bullet" unicode="&#x2022;" horiz-adv-x="318" 
d="M82 279q0 34 21.5 55.5t55.5 21.5q35 0 56 -21.5t21 -55.5t-21 -55.5t-56 -21.5q-34 0 -55.5 22t-21.5 55z" />
    <glyph glyph-name="ellipsis" unicode="&#x2026;" horiz-adv-x="719" 
d="M119 106q25 0 40 -15.5t15 -39.5t-15.5 -39.5t-39.5 -15.5t-39.5 15.5t-15.5 39.5t15 39.5t40 15.5zM355 106q25 0 40 -15.5t15 -39.5t-15.5 -39.5t-39.5 -15.5t-39.5 15.5t-15.5 39.5t15 39.5t40 15.5zM590 106q25 0 40 -15.5t15 -39.5t-15.5 -39.5t-39.5 -15.5
t-39.5 15.5t-15.5 39.5t15 39.5t40 15.5z" />
    <glyph glyph-name="perthousand" unicode="&#x2030;" horiz-adv-x="1224" 
d="M193 620q75 0 114 -46.5t39 -136.5q0 -89 -39 -135t-114 -46q-152 0 -152 181q0 183 152 183zM622 610l-355 -610h-55l354 610h56zM193 311q92 0 92 126q0 128 -92 128q-91 0 -91 -128q0 -126 91 -126zM656 355q75 0 114 -46.5t39 -136.5q0 -89 -39 -135t-114 -46
t-114 46t-39 135q0 90 39 136.5t114 46.5zM1030 355q75 0 114 -46.5t39 -136.5q0 -89 -39 -135t-114 -46q-152 0 -152 181q0 183 152 183zM656 47q91 0 91 125q0 128 -91 128t-91 -128q0 -125 91 -125zM1030 47q92 0 92 125q0 128 -92 128q-91 0 -91 -128q0 -125 91 -125z
" />
    <glyph glyph-name="guilsinglleft" unicode="&#x2039;" horiz-adv-x="361" 
d="M302 407l-121 -126q-6 -6 -41 -36q26 -19 42 -35l120 -126l-46 -43l-206 205l205 206z" />
    <glyph glyph-name="guilsinglright" unicode="&#x203a;" horiz-adv-x="361" 
d="M104 40l-45 44l120 126q6 6 41 36q-23 18 -40 35l-121 126l46 45l204 -206z" />
    <glyph glyph-name="fraction" unicode="&#x2044;" horiz-adv-x="214" 
d="M312 610l-355 -610h-55l355 610h55z" />
    <glyph glyph-name="Euro" unicode="&#x20ac;" horiz-adv-x="585" 
d="M516 122l33 -54q-43 -41 -92 -59t-118 -18q-82 0 -144 47.5t-80 148.5h-74v50h68l-1 30q0 20 1 29h-68v50h74q19 100 81.5 151t146.5 51q103 0 187 -54l-28 -58q-68 40 -148 40q-51 0 -92.5 -31t-57.5 -99h247l-14 -50h-240q0 -4 -0.5 -14t-0.5 -15q0 -6 0.5 -16t0.5 -14
h224l-14 -50h-203q29 -124 147 -124q96 0 165 59z" />
    <glyph glyph-name="uni2116" unicode="&#x2116;" horiz-adv-x="1162" 
d="M600 0h-84l-346 453v-453h-92v610h84l346 -455v455h92v-610zM893 542q95 0 141 -52.5t46 -146.5q0 -90 -46.5 -141t-141.5 -51q-94 0 -140.5 51t-46.5 141q0 94 46.5 146.5t141.5 52.5zM893 219q111 0 111 125q0 130 -111 130q-110 0 -110 -130q0 -125 110 -125zM1061 0
h-336v68h336v-68z" />
    <glyph glyph-name="trademark" unicode="&#x2122;" horiz-adv-x="768" 
d="M309 560h-114v-233h-57v233h-115v50h286v-50zM628 525l-89 -198h-45l-89 198l-7 -198h-55l12 283h58l97 -205q2 -4 4 -10.5t3 -8.5q1 2 2.5 8.5t3.5 10.5l96 205h59l12 -283h-55z" />
    <glyph glyph-name="oneeighth" unicode="&#x215b;" horiz-adv-x="919" 
d="M296 231h-254v53h102v256q-44 -14 -102 -27l-12 40q71 28 126 57h49v-326h91v-53zM638 610l-355 -610h-55l355 610h55zM687 -9q-78 0 -119.5 29t-41.5 79q0 65 84 94q-66 29 -66 89q0 46 38.5 72.5t105.5 26.5q64 0 100.5 -26t36.5 -71q0 -62 -73 -87q92 -30 92 -98
q0 -50 -43 -79.5t-114 -28.5zM686 339q-38 0 -60.5 -15.5t-22.5 -41.5q0 -50 89 -71q76 19 76 72q0 25 -22.5 40.5t-59.5 15.5zM683 39q43 0 69.5 17.5t26.5 45.5t-27 45.5t-87 29.5q-79 -22 -79 -74q0 -29 26.5 -46.5t70.5 -17.5z" />
    <glyph glyph-name="threeeighths" unicode="&#x215c;" horiz-adv-x="913" 
d="M41 543l-16 42q77 36 150 36q57 0 91 -28t34 -76q0 -32 -17.5 -53.5t-46.5 -31.5q75 -24 75 -90q0 -53 -36 -81.5t-102 -28.5q-85 0 -157 39l19 42q65 -32 136 -32q81 0 81 62q0 64 -95 64h-61v51h61q86 0 86 51q0 62 -75 62q-62 0 -127 -28zM639 610l-356 -610h-55
l355 610h56zM687 -9q-78 0 -119.5 29t-41.5 79q0 65 84 94q-66 29 -66 89q0 46 38.5 72.5t105.5 26.5q64 0 100.5 -26t36.5 -71q0 -62 -73 -87q92 -29 92 -98q0 -50 -42.5 -79.5t-114.5 -28.5zM686 339q-38 0 -60.5 -15.5t-22.5 -41.5q0 -50 89 -71q76 19 76 72
q0 26 -22.5 41t-59.5 15zM683 39q43 0 69.5 17.5t26.5 45.5t-27 45.5t-87 29.5q-79 -22 -79 -74q0 -29 26.5 -46.5t70.5 -17.5z" />
    <glyph glyph-name="fiveeighths" unicode="&#x215d;" horiz-adv-x="930" 
d="M116 558l-10 -119q53 28 100 28q59 0 91 -30.5t32 -87.5q0 -59 -38.5 -91t-103.5 -32q-84 0 -156 39l19 45q67 -33 130 -33q41 0 65 20t24 55q0 34 -20.5 53.5t-58.5 19.5q-39 0 -87 -25l-52 7l14 203h249v-52h-198zM652 610l-355 -610h-55l354 610h56zM705 -9
q-78 0 -120 29t-42 79q0 65 84 94q-66 29 -66 89q0 46 39 72.5t105 26.5q65 0 101.5 -26t36.5 -71q0 -61 -73 -87q91 -29 91 -98q1 -50 -42 -79.5t-114 -28.5zM703 339q-37 0 -59.5 -15.5t-22.5 -41.5q0 -51 89 -71q76 19 76 72q0 25 -22.5 40.5t-60.5 15.5zM700 39
q43 0 69.5 17.5t26.5 45.5t-27 45.5t-87 29.5q-79 -22 -79 -74q0 -29 26.5 -46.5t70.5 -17.5z" />
    <glyph glyph-name="seveneighths" unicode="&#x215e;" horiz-adv-x="861" 
d="M306 610v-46q-112 -143 -162 -333h-72q59 195 167 326h-211v53h278zM558 610l-355 -610h-55l354 610h56zM629 -9q-78 0 -119.5 29t-41.5 79q0 65 84 94q-66 29 -66 89q0 46 38.5 72.5t105.5 26.5q64 0 100.5 -26t36.5 -71q0 -62 -73 -87q92 -30 92 -98q0 -50 -43 -79.5
t-114 -28.5zM628 339q-38 0 -60.5 -15.5t-22.5 -41.5q0 -50 89 -71q76 19 76 72q0 25 -22.5 40.5t-59.5 15.5zM625 39q43 0 69.5 17.5t26.5 45.5t-27 45.5t-87 29.5q-79 -22 -79 -74q0 -29 26.5 -46.5t70.5 -17.5z" />
    <glyph glyph-name="arrowleft" unicode="&#x2190;" horiz-adv-x="662" 
d="M165 266l197 -206l-54 -54l-282 298l282 298l54 -54l-198 -206h473v-76h-472z" />
    <glyph glyph-name="arrowup" unicode="&#x2191;" horiz-adv-x="644" 
d="M361 480v-480h-77v480l-185 -174l-54 54l277 257l277 -257l-53 -54z" />
    <glyph glyph-name="arrowright" unicode="&#x2192;" horiz-adv-x="662" 
d="M353 6l-54 54l198 206h-473v76h474l-199 206l54 54l283 -298z" />
    <glyph glyph-name="arrowdown" unicode="&#x2193;" horiz-adv-x="644" 
d="M322 -7l-277 257l54 54l185 -174v480h77v-480l185 174l53 -54z" />
    <glyph glyph-name="arrowupleft" unicode="&#x2196;" horiz-adv-x="690" 
d="M129 482v-305h-76v433h433v-74h-306l483 -483l-53 -54z" />
    <glyph glyph-name="arrowupright" unicode="&#x2197;" horiz-adv-x="690" 
d="M637 177h-74v305l-483 -483l-54 54l483 481h-305v76h433v-433z" />
    <glyph glyph-name="arrowdownright" unicode="&#x2198;" horiz-adv-x="690" 
d="M637 0h-433v74h305l-483 484l54 53l480 -483v306h77v-434z" />
    <glyph glyph-name="arrowdownleft" unicode="&#x2199;" horiz-adv-x="690" 
d="M486 76v-76h-433v434h73v-306l484 483l53 -53l-483 -482h306z" />
    <glyph glyph-name="minus" unicode="&#x2212;" horiz-adv-x="471" 
d="M36 204v67h397v-67h-397z" />
    <glyph glyph-name="J.ss01" horiz-adv-x="273" 
d="M189 610v-528q0 -100 -32.5 -149t-117.5 -80l-34 75q51 23 71.5 52.5t20.5 83.5v546h92z" />
    <glyph glyph-name="K.ss02" horiz-adv-x="620" 
d="M176 265v-265h-92v610h92v-259h111l197 259h101v-6l-219 -293l228 -304v-7h-107l-197 265h-114z" />
    <glyph glyph-name="Kcommaaccent.ss02" horiz-adv-x="620" 
d="M176 265v-265h-92v610h92v-259h111l197 259h101v-6l-219 -293l228 -304v-7h-107l-197 265h-114zM258 -240l-15 29q41 37 49 71q-36 11 -36 47q0 22 13.5 36t36.5 14q21 0 34.5 -15.5t13.5 -38.5q0 -41 -25 -79t-71 -64z" />
    <glyph glyph-name="Q.ss03" horiz-adv-x="667" 
d="M607 -76l-64 -53q-83 85 -119 131q-42 -11 -90 -11q-138 0 -212.5 81.5t-74.5 231.5q0 152 74.5 234t212.5 82q137 0 211.5 -82t74.5 -234q0 -194 -122 -271q36 -39 109 -109zM141 304q0 -112 49 -169.5t144 -57.5q94 0 143 57.5t49 169.5q0 113 -49 171.5t-143 58.5
q-95 0 -144 -58.5t-49 -171.5z" />
    <glyph glyph-name="R.ss04" horiz-adv-x="624" 
d="M84 610h225q121 0 186 -51.5t65 -146.5q0 -83 -33 -124.5t-101 -53.5q33 -14 59 -40.5t46.5 -68t29 -61.5t23.5 -64h-105q-14 40 -26 67t-32 61.5t-45 53t-54 18.5h-146v-200h-92v610zM176 286h146q69 -1 106.5 31t37.5 92q0 55 -40.5 85t-115.5 30h-134v-238z" />
    <glyph glyph-name="Racute.ss04" horiz-adv-x="624" 
d="M437 777l-1 -18q-45 -38 -74 -56t-79 -38l-29 29l110 130zM84 610h225q121 0 186 -51.5t65 -146.5q0 -83 -33 -124.5t-101 -53.5q33 -14 59 -40.5t46.5 -68t29 -61.5t23.5 -64h-105q-14 40 -26 67t-32 61.5t-45 53t-54 18.5h-146v-200h-92v610zM176 286h146
q69 -1 106.5 31t37.5 92q0 55 -40.5 85t-115.5 30h-134v-238z" />
    <glyph glyph-name="Rcaron.ss04" horiz-adv-x="624" 
d="M276 671l-122 108l35 36l118 -70l118 70l35 -36l-123 -108h-61zM84 610h225q121 0 186 -51.5t65 -146.5q0 -83 -33 -124.5t-101 -53.5q33 -14 59 -40.5t46.5 -68t29 -61.5t23.5 -64h-105q-14 40 -26 67t-32 61.5t-45 53t-54 18.5h-146v-200h-92v610zM176 286h146
q69 -1 106.5 31t37.5 92q0 55 -40.5 85t-115.5 30h-134v-238z" />
    <glyph glyph-name="Rcommaaccent.ss04" horiz-adv-x="624" 
d="M84 610h225q121 0 186 -51.5t65 -146.5q0 -83 -33 -124.5t-101 -53.5q33 -14 59 -40.5t46.5 -68t29 -61.5t23.5 -64h-105q-14 40 -26 67t-32 61.5t-45 53t-54 18.5h-146v-200h-92v610zM176 286h146q69 -1 106.5 31t37.5 92q0 55 -40.5 85t-115.5 30h-134v-238zM256 -240
l-15 29q41 37 49 71q-36 11 -36 47q0 22 13.5 36t36.5 14q21 0 34.5 -15.5t13.5 -38.5q0 -41 -25 -79t-71 -64z" />
    <glyph glyph-name="k.ss02" horiz-adv-x="511" 
d="M160 209v-209h-90v653h90v-363h94l144 182h96v-6l-168 -216l180 -243v-7h-100l-155 209h-91z" />
    <glyph glyph-name="kcommaaccent.ss02" horiz-adv-x="511" 
d="M160 209v-209h-90v653h90v-363h94l144 182h96v-6l-168 -216l180 -243v-7h-100l-155 209h-91zM214 -240l-15 29q41 37 49 71q-36 11 -36 47q0 22 13.5 36t36.5 14q21 0 34.5 -15.5t13.5 -38.5q0 -41 -25 -79t-71 -64z" />
    <glyph glyph-name="a.ss05" horiz-adv-x="564" 
d="M404 0v62q-39 -37 -74 -54t-90 -17q-84 0 -141 61t-57 185q0 243 187 243q96 0 176 -65v57h90v-472h-91zM404 146v179q-72 80 -147 80q-126 0 -126 -167q0 -88 38 -130t97 -42q44 0 71.5 17.5t66.5 62.5z" />
    <glyph glyph-name="aacute.ss05" horiz-adv-x="564" 
d="M399 647l-1 -18q-45 -37 -73.5 -57t-79.5 -47l-29 29l110 140zM404 0v62q-39 -37 -74 -54t-90 -17q-84 0 -141 61t-57 185q0 243 187 243q96 0 176 -65v57h90v-472h-91zM404 146v179q-72 80 -147 80q-126 0 -126 -167q0 -88 38 -130t97 -42q44 0 71.5 17.5t66.5 62.5z
" />
    <glyph glyph-name="abreve.ss05" horiz-adv-x="564" 
d="M365 664h67q0 -68 -35 -100t-108 -32q-72 0 -106.5 32t-34.5 99h67q3 -34 20 -50t54 -16t54 16t22 51zM404 0v62q-39 -37 -74 -54t-90 -17q-84 0 -141 61t-57 185q0 243 187 243q96 0 176 -65v57h90v-472h-91zM404 146v179q-72 80 -147 80q-126 0 -126 -167
q0 -88 38 -130t97 -42q44 0 71.5 17.5t66.5 62.5z" />
    <glyph glyph-name="acircumflex.ss05" horiz-adv-x="564" 
d="M408 532l-118 81l-118 -81l-35 36l122 118h61l123 -118zM404 0v62q-39 -37 -74 -54t-90 -17q-84 0 -141 61t-57 185q0 243 187 243q96 0 176 -65v57h90v-472h-91zM404 146v179q-72 80 -147 80q-126 0 -126 -167q0 -88 38 -130t97 -42q44 0 71.5 17.5t66.5 62.5z" />
    <glyph glyph-name="adieresis.ss05" horiz-adv-x="564" 
d="M195 665q24 0 39.5 -14.5t15.5 -39.5q0 -24 -15 -38t-40 -14q-22 0 -38 14t-16 38t16 39t38 15zM384 665q23 0 39 -14.5t16 -39.5q0 -24 -16 -38t-39 -14q-24 0 -39.5 14t-15.5 38q0 25 15.5 39.5t39.5 14.5zM404 0v62q-39 -37 -74 -54t-90 -17q-84 0 -141 61t-57 185
q0 243 187 243q96 0 176 -65v57h90v-472h-91zM404 146v179q-72 80 -147 80q-126 0 -126 -167q0 -88 38 -130t97 -42q44 0 71.5 17.5t66.5 62.5z" />
    <glyph glyph-name="agrave.ss05" horiz-adv-x="564" 
d="M361 568l-29 -29q-51 27 -79.5 47t-73.5 57l-1 18l74 47zM404 0v62q-39 -37 -74 -54t-90 -17q-84 0 -141 61t-57 185q0 243 187 243q96 0 176 -65v57h90v-472h-91zM404 146v179q-72 80 -147 80q-126 0 -126 -167q0 -88 38 -130t97 -42q44 0 71.5 17.5t66.5 62.5z" />
    <glyph glyph-name="amacron.ss05" horiz-adv-x="564" 
d="M415 565h-250v79h250v-79zM404 0v62q-39 -37 -74 -54t-90 -17q-84 0 -141 61t-57 185q0 243 187 243q96 0 176 -65v57h90v-472h-91zM404 146v179q-72 80 -147 80q-126 0 -126 -167q0 -88 38 -130t97 -42q44 0 71.5 17.5t66.5 62.5z" />
    <glyph glyph-name="aogonek.ss05" horiz-adv-x="564" 
d="M519 -108l12 -62q-54 -19 -108 -19t-84 25.5t-30 74.5q0 68 95 113v38q-39 -37 -74 -54t-90 -17q-84 0 -141 61t-57 185q0 243 187 243q96 0 175 -65v57h90v-472h-46q-33 -12 -52.5 -31t-19.5 -40t19.5 -34t51.5 -13q16 0 72 10zM404 145v180q-71 79 -147 79
q-126 0 -126 -167q0 -88 38 -129.5t97 -41.5q44 0 71.5 17.5t66.5 61.5z" />
    <glyph glyph-name="aring.ss05" horiz-adv-x="564" 
d="M290 718q43 0 70 -26.5t27 -70.5q0 -41 -27.5 -66.5t-70.5 -25.5q-42 0 -69 26t-27 66q0 44 27 70.5t70 26.5zM289 580q21 0 33.5 11t12.5 30q0 22 -12.5 34.5t-32.5 12.5t-32.5 -12.5t-12.5 -34.5q0 -19 12 -30t32 -11zM404 0v62q-39 -37 -74 -54t-90 -17q-84 0 -141 61
t-57 185q0 243 187 243q96 0 176 -65v57h90v-472h-91zM404 146v179q-72 80 -147 80q-126 0 -126 -167q0 -88 38 -130t97 -42q44 0 71.5 17.5t66.5 62.5z" />
    <glyph glyph-name="atilde.ss05" horiz-adv-x="564" 
d="M401 671l47 -11q-8 -44 -32.5 -70t-53.5 -28t-58 10l-55 28q-49 25 -70 -31l-46 11q12 64 55.5 85.5t86.5 -2.5l55 -26q51 -25 71 34zM404 0v62q-39 -37 -74 -54t-90 -17q-84 0 -141 61t-57 185q0 243 187 243q96 0 176 -65v57h90v-472h-91zM404 146v179q-72 80 -147 80
q-126 0 -126 -167q0 -88 38 -130t97 -42q44 0 71.5 17.5t66.5 62.5z" />
    <glyph glyph-name="g.ss06" horiz-adv-x="561" 
d="M540 478l-7 -62q-20 1 -49 1q-16 0 -34 -3q32 -43 32 -112q0 -86 -50.5 -128t-156.5 -42q-62 0 -107 15q-30 -13 -30 -34q0 -23 11 -31t42 -8h161q169 0 169 -121q0 -91 -60 -131.5t-186 -40.5q-140 0 -195.5 27.5t-55.5 99.5q0 77 68 109q-27 23 -27 73q0 29 12 49
t45 33q-54 40 -54 130q0 91 50.5 135t156.5 44q71 0 120 -23q40 26 85 26q34 0 60 -6zM275 203q65 0 93 23t28 76q0 60 -28 85.5t-93 25.5q-66 0 -94 -25.5t-28 -85.5q0 -53 28 -76t94 -23zM353 -6h-163q-46 0 -64.5 -17t-18.5 -54q0 -38 35 -52t133 -14q160 0 160 80
q0 57 -82 57z" />
    <glyph glyph-name="gbreve.ss06" horiz-adv-x="561" 
d="M355 664h67q0 -68 -35 -100t-108 -32q-72 0 -106.5 32t-34.5 99h67q3 -34 20 -50t54 -16t54 16t22 51zM540 478l-7 -62q-20 1 -49 1q-16 0 -34 -3q32 -43 32 -112q0 -86 -50.5 -128t-156.5 -42q-62 0 -107 15q-30 -13 -30 -34q0 -23 11 -31t42 -8h161q169 0 169 -121
q0 -91 -60 -131.5t-186 -40.5q-140 0 -195.5 27.5t-55.5 99.5q0 77 68 109q-27 23 -27 73q0 29 12 49t45 33q-54 40 -54 130q0 91 50.5 135t156.5 44q71 0 120 -23q40 26 85 26q34 0 60 -6zM275 203q65 0 93 23t28 76q0 60 -28 85.5t-93 25.5q-66 0 -94 -25.5t-28 -85.5
q0 -53 28 -76t94 -23zM353 -6h-163q-46 0 -64.5 -17t-18.5 -54q0 -38 35 -52t133 -14q160 0 160 80q0 57 -82 57z" />
    <glyph glyph-name="gcommaaccent.ss06" horiz-adv-x="561" 
d="M318 742l16 -29q-36 -32 -49 -66q17 -4 27.5 -17t10.5 -30q0 -22 -14 -36t-36 -14t-36 15.5t-14 38.5q0 78 95 138zM540 478l-7 -62q-20 1 -49 1q-16 0 -34 -3q32 -43 32 -112q0 -86 -50.5 -128t-156.5 -42q-62 0 -107 15q-30 -13 -30 -34q0 -23 11 -31t42 -8h161
q169 0 169 -121q0 -91 -60 -131.5t-186 -40.5q-140 0 -195.5 27.5t-55.5 99.5q0 77 68 109q-27 23 -27 73q0 29 12 49t45 33q-54 40 -54 130q0 91 50.5 135t156.5 44q71 0 120 -23q40 26 85 26q34 0 60 -6zM275 203q65 0 93 23t28 76q0 60 -28 85.5t-93 25.5
q-66 0 -94 -25.5t-28 -85.5q0 -53 28 -76t94 -23zM353 -6h-163q-46 0 -64.5 -17t-18.5 -54q0 -38 35 -52t133 -14q160 0 160 80q0 57 -82 57z" />
    <glyph glyph-name="gdotaccent.ss06" horiz-adv-x="561" 
d="M280 677q27 0 45.5 -17t18.5 -46q0 -28 -18.5 -45t-45.5 -17q-28 0 -46.5 17t-18.5 45q0 29 18.5 46t46.5 17zM540 478l-7 -62q-20 1 -49 1q-16 0 -34 -3q32 -43 32 -112q0 -86 -50.5 -128t-156.5 -42q-62 0 -107 15q-30 -13 -30 -34q0 -23 11 -31t42 -8h161
q169 0 169 -121q0 -91 -60 -131.5t-186 -40.5q-140 0 -195.5 27.5t-55.5 99.5q0 77 68 109q-27 23 -27 73q0 29 12 49t45 33q-54 40 -54 130q0 91 50.5 135t156.5 44q71 0 120 -23q40 26 85 26q34 0 60 -6zM275 203q65 0 93 23t28 76q0 60 -28 85.5t-93 25.5
q-66 0 -94 -25.5t-28 -85.5q0 -53 28 -76t94 -23zM353 -6h-163q-46 0 -64.5 -17t-18.5 -54q0 -38 35 -52t133 -14q160 0 160 80q0 57 -82 57z" />
    <glyph glyph-name="y.ss07" horiz-adv-x="572" 
d="M516 472v-400q0 -118 -53 -175t-163 -57q-119 0 -209 50l27 70q83 -39 171 -39q137 0 137 146v21q-39 -35 -76 -52.5t-93 -17.5q-90 0 -142 55t-52 168v231h90v-231q0 -142 134 -142q39 0 70.5 17.5t68.5 58.5v297h90z" />
    <glyph glyph-name="yacute.ss07" horiz-adv-x="572" 
d="M402 647l-1 -18q-45 -37 -73.5 -57t-79.5 -47l-29 29l110 140zM516 472v-400q0 -118 -53 -175t-163 -57q-119 0 -209 50l27 70q83 -39 171 -39q137 0 137 146v21q-39 -35 -76 -52.5t-93 -17.5q-90 0 -142 55t-52 168v231h90v-231q0 -142 134 -142q39 0 70.5 17.5
t68.5 58.5v297h90z" />
    <glyph glyph-name="ycircumflex.ss07" horiz-adv-x="572" 
d="M411 532l-118 81l-118 -81l-35 36l122 118h61l123 -118zM516 472v-400q0 -118 -53 -175t-163 -57q-119 0 -209 50l27 70q83 -39 171 -39q137 0 137 146v21q-39 -35 -76 -52.5t-93 -17.5q-90 0 -142 55t-52 168v231h90v-231q0 -142 134 -142q39 0 70.5 17.5t68.5 58.5v297
h90z" />
    <glyph glyph-name="ydieresis.ss07" horiz-adv-x="572" 
d="M198 665q24 0 39.5 -14.5t15.5 -39.5q0 -24 -15 -38t-40 -14q-22 0 -38 14t-16 38t16 39t38 15zM387 665q23 0 39 -14.5t16 -39.5q0 -24 -16 -38t-39 -14q-24 0 -39.5 14t-15.5 38q0 25 15.5 39.5t39.5 14.5zM516 472v-400q0 -118 -53 -175t-163 -57q-119 0 -209 50
l27 70q83 -39 171 -39q137 0 137 146v21q-39 -35 -76 -52.5t-93 -17.5q-90 0 -142 55t-52 168v231h90v-231q0 -142 134 -142q39 0 70.5 17.5t68.5 58.5v297h90z" />
    <glyph glyph-name="ygrave.ss07" horiz-adv-x="572" 
d="M364 568l-29 -29q-51 27 -79.5 47t-73.5 57l-1 18l74 47zM516 472v-400q0 -118 -53 -175t-163 -57q-119 0 -209 50l27 70q83 -39 171 -39q137 0 137 146v21q-39 -35 -76 -52.5t-93 -17.5q-90 0 -142 55t-52 168v231h90v-231q0 -142 134 -142q39 0 70.5 17.5t68.5 58.5
v297h90z" />
    <glyph glyph-name="uni00660062" horiz-adv-x="894" 
d="M489 668v-261q78 73 175 73q187 0 187 -242q0 -125 -57 -186t-141 -61q-55 0 -90 17t-74 54v-62h-90v588q-83 10 -139 10q-46 0 -63.5 -21t-17.5 -68v-37h143v-76h-143v-396h-90v396h-68v76h68v37q0 83 36.5 123t119.5 40q40 0 154 -21v17h90zM489 325v-179
q72 -80 138 -80q59 0 97.5 42t38.5 130q0 167 -127 167q-73 0 -147 -80z" />
    <glyph glyph-name="uni006600660062" horiz-adv-x="1206" 
d="M801 668v-261q78 73 175 73q187 0 187 -242q0 -125 -57 -186t-141 -61q-55 0 -90 17t-74 54v-62h-90v588q-82 10 -139 10q-45 0 -62.5 -21t-17.5 -68v-37h142v-76h-142v-396h-90v396h-225v-396h-90v396h-66v76h66v37q0 83 37.5 123t120.5 40q47 0 92 -9l-7 -68
q-31 3 -70 3q-46 0 -64.5 -21.5t-18.5 -67.5v-37h225v37q0 83 36 122.5t119 40.5q37 0 154 -21v17h90zM801 325v-179q72 -80 138 -80q59 0 97.5 42t38.5 130q0 167 -127 167q-73 0 -147 -80z" />
    <glyph glyph-name="uni006600660066" horiz-adv-x="983" 
d="M989 663l-7 -68q-32 3 -70 3q-46 0 -64.5 -21.5t-18.5 -67.5v-37h145v-76h-145v-396h-90v396h-236v-396h-90v396h-236v-396h-90v396h-66v76h66v37q0 84 37.5 123.5t120.5 39.5q55 0 92 -9l-7 -68q-31 3 -70 3q-46 0 -64.5 -21.5t-18.5 -67.5v-37h236v37q0 84 37.5 123.5
t120.5 39.5q55 0 92 -9l-7 -68q-31 3 -70 3q-46 0 -64.5 -21.5t-18.5 -67.5v-37h236v37q0 84 37.5 123.5t120.5 39.5q55 0 92 -9z" />
    <glyph glyph-name="uni006600660068" horiz-adv-x="1200" 
d="M804 668v-266q86 78 183 78q79 0 113 -44t34 -141v-295h-90v273q0 66 -20.5 94.5t-73.5 28.5q-41 0 -74.5 -20.5t-71.5 -63.5v-312h-90v588q-83 10 -140 10q-46 0 -63 -21t-17 -68v-37h142v-76h-142v-396h-90v396h-227v-396h-90v396h-66v76h66v37q0 83 37.5 123t120.5 40
q47 0 92 -9l-7 -68q-31 3 -70 3q-46 0 -64.5 -21.5t-18.5 -67.5v-37h227v37q0 83 36.5 123t118.5 40q40 0 155 -21v17h90z" />
    <glyph glyph-name="uni00660066006A" horiz-adv-x="877" 
d="M494 472h308v-443q0 -87 -28.5 -133.5t-99.5 -64.5l-19 71q34 17 45.5 42.5t11.5 84.5v367h-218v-396h-90v396h-227v-396h-90v396h-66v76h66v37q0 84 37.5 123.5t120.5 39.5q55 0 92 -9l-7 -68q-31 3 -70 3q-46 0 -64.5 -21.5t-18.5 -67.5v-37h227v37q0 84 36.5 123.5
t118.5 39.5q35 0 104 -11l-8 -68q-55 5 -81 5q-46 0 -63 -21t-17 -68v-37zM759 559q-23 0 -38.5 13.5t-15.5 36.5q0 24 15.5 37t38.5 13t38.5 -13t15.5 -37q0 -23 -15.5 -36.5t-38.5 -13.5z" />
    <glyph glyph-name="uni00660066006B" horiz-adv-x="1172" 
d="M1141 471l-189 -192q118 -126 220 -279h-105q-81 119 -176 217l-87 -88v-129h-90v588q-71 10 -140 10q-46 0 -63 -21t-17 -68v-37h142v-76h-142v-396h-90v396h-227v-396h-90v396h-66v76h66v37q0 84 37.5 123.5t120.5 39.5q55 0 92 -9l-7 -68q-31 3 -70 3
q-46 0 -64.5 -21.5t-18.5 -67.5v-37h227v37q0 84 36.5 123.5t118.5 39.5q56 0 155 -21v17h90v-420l223 223h114z" />
    <glyph glyph-name="uni006600660074" horiz-adv-x="988" 
d="M956 84l9 -66q-60 -22 -110 -22q-75 0 -107.5 37t-32.5 121v242h-212v-396h-90v396h-236v-396h-90v396h-66v76h66v37q0 84 37.5 123.5t120.5 39.5q55 0 92 -9l-7 -68q-31 3 -70 3q-46 0 -64.5 -21.5t-18.5 -67.5v-37h236v37q0 84 37.5 123.5t120.5 39.5q55 0 92 -9
l-7 -68q-31 3 -70 3q-46 0 -64.5 -21.5t-18.5 -67.5v-37h212v118h90v-118h140v-76h-140v-239q0 -46 18 -62t63 -16q35 0 70 5z" />
    <glyph glyph-name="uni00660068" horiz-adv-x="885" 
d="M489 668v-266q88 78 184 78q79 0 113 -44t34 -140v-296h-90v273q0 66 -20.5 94.5t-73.5 28.5q-74 0 -147 -84v-312h-90v588q-83 10 -139 10q-46 0 -63.5 -21t-17.5 -68v-37h143v-76h-143v-396h-90v396h-68v76h68v37q0 83 36.5 123t119.5 40q40 0 154 -21v17h90z" />
    <glyph glyph-name="uni0066006A" horiz-adv-x="563" 
d="M488 472v-443q0 -87 -28.5 -133.5t-99.5 -64.5l-20 71q35 17 46.5 42.5t11.5 84.5v367h-219v-396h-90v396h-68v76h68v37q0 84 36.5 123.5t119.5 39.5q31 0 109 -12l-8 -67q-57 5 -86 5q-46 0 -63.5 -21t-17.5 -68v-37h309zM445 559q-23 0 -38.5 13.5t-15.5 36.5
q0 24 15.5 37t38.5 13t38.5 -13t15.5 -37q0 -23 -15.5 -36.5t-38.5 -13.5z" />
    <glyph glyph-name="uni0066006B" horiz-adv-x="857" 
d="M489 250l223 221h114l-190 -191q115 -121 221 -280h-105q-89 130 -177 218l-86 -87v-131h-90v588q-83 10 -139 10q-46 0 -63.5 -21t-17.5 -68v-37h143v-76h-143v-396h-90v396h-68v76h68v37q0 83 36.5 123t119.5 40q40 0 154 -21v17h90v-418z" />
    <glyph glyph-name="uni00660074" horiz-adv-x="668" 
d="M636 84l10 -66q-62 -22 -110 -22q-75 0 -108 37.5t-33 120.5v242h-218v-396h-90v396h-66v76h66v37q0 84 37.5 123.5t120.5 39.5q55 0 92 -9l-7 -68q-31 3 -70 3q-46 0 -64.5 -21.5t-18.5 -67.5v-37h218v118h90v-118h140v-76h-140v-239q0 -46 18 -62t63 -16q35 0 70 5z
" />
    <glyph glyph-name="uni00720066" horiz-adv-x="720" 
d="M726 660l-9 -65q-41 3 -78 3q-46 0 -63.5 -21t-17.5 -68v-37h143v-76h-143v-396h-90v396h-61v76h61v37q0 84 36.5 123.5t119.5 39.5q58 0 102 -12zM160 472v-92q19 45 57 72.5t84 27.5q33 0 60 -3l-6 -89q-24 2 -57 2q-48 0 -84 -31t-54 -87v-272h-90v472h90z" />
    <glyph glyph-name="uni00720074" horiz-adv-x="729" 
d="M697 84l9 -66q-60 -22 -110 -22q-75 0 -108 37.5t-33 120.5v242h-57v76h57v118h90v-118h140v-76h-140v-239q0 -46 18.5 -62t62.5 -16q36 0 71 5zM160 472v-92q19 45 57 72.5t84 27.5q33 0 60 -3l-6 -89q-24 2 -57 2q-48 0 -84 -31t-54 -87v-272h-90v472h90z" />
    <glyph glyph-name="zero.osf" horiz-adv-x="595" 
d="M297 528q122 0 186.5 -74t64.5 -196q0 -120 -64.5 -193.5t-186.5 -73.5q-121 0 -185.5 73.5t-64.5 193.5q0 122 64.5 196t185.5 74zM297 74q79 0 118.5 51t39.5 133q0 84 -39.5 135.5t-118.5 51.5q-78 0 -117.5 -51.5t-39.5 -135.5q0 -82 39.5 -133t117.5 -51z" />
    <glyph glyph-name="one.osf" horiz-adv-x="485" 
d="M442 0h-385v78h160v336q-85 -29 -165 -47l-18 58q105 38 201 93h74v-440h133v-78z" />
    <glyph glyph-name="two.osf" horiz-adv-x="520" 
d="M491 0h-452v66q175 89 217 114q127 81 129 154q0 55 -32.5 85.5t-88.5 30.5q-91 0 -205 -53l-26 65q137 66 246 66q93 0 146.5 -49t53.5 -133q0 -48 -24 -88t-73.5 -73.5t-95 -56t-119.5 -53.5q8 0 39 1.5t43 1.5h243z" />
    <glyph glyph-name="three.osf" horiz-adv-x="526" 
d="M62 407l-22 62q124 58 240 58q89 0 145 -46.5t56 -121.5q0 -51 -30.5 -85t-80.5 -48q129 -35 129 -149q0 -81 -60 -128.5t-161 -47.5q-139 0 -252 61l26 64q110 -53 222 -53q62 0 99.5 28.5t37.5 77.5q0 106 -159 106h-88v76h88q144 0 144 86q0 49 -34.5 78t-92.5 29
q-95 0 -207 -47z" />
    <glyph glyph-name="four.osf" horiz-adv-x="599" 
d="M476 0v-115h-91v115h-354l-3 64l357 444h91v-435h101v-73h-101zM385 73v326q-36 -49 -48 -63l-154 -198q-46 -52 -60 -65h262z" />
    <glyph glyph-name="five.osf" horiz-adv-x="543" 
d="M162 431l-16 -206q84 45 161 45q91 0 144.5 -49.5t53.5 -134.5q0 -91 -64 -144.5t-164 -53.5q-138 0 -251 61l26 68q110 -53 214 -53q66 0 108.5 35t42.5 91q0 53 -37 85.5t-99 32.5q-66 0 -140 -40l-76 12l23 328h394v-77h-320z" />
    <glyph glyph-name="six.osf" horiz-adv-x="569" 
d="M510 587l-23 -66q-75 24 -140 24q-92 -1 -149 -65.5t-62 -175.5q72 87 197 87q92 0 147.5 -52t55.5 -138q0 -99 -62 -154.5t-167 -55.5q-127 0 -193.5 76t-66.5 213q0 154 82.5 246.5t213.5 93.5q89 0 167 -33zM307 65q63 0 103 37t40 103q0 57 -39 91t-104 34
q-56 0 -100.5 -27.5t-67.5 -71.5q22 -166 168 -166z" />
    <glyph glyph-name="seven.osf" horiz-adv-x="464" 
d="M458 508v-70q-82 -105 -152.5 -252t-107.5 -289h-107q43 143 113.5 287t152.5 245h-345v79h446z" />
    <glyph glyph-name="eight.osf" horiz-adv-x="582" 
d="M394 325q79 -23 116 -62t37 -98q0 -82 -67.5 -128t-184.5 -46q-129 0 -194.5 45t-65.5 129q0 109 140 154q-112 44 -112 139q0 75 62.5 118.5t170.5 43.5q104 0 163 -42.5t59 -115.5q0 -99 -124 -137zM292 559q-63 0 -101.5 -28t-38.5 -72t35 -70.5t116 -43.5
q130 27 130 116q0 44 -39 71t-102 27zM288 62q75 0 118.5 28.5t43.5 78.5q0 48 -43.5 77t-149.5 49q-134 -34 -134 -124q0 -51 44.5 -80t120.5 -29z" />
    <glyph glyph-name="nine.osf" horiz-adv-x="569" 
d="M67 -62l24 65q71 -29 143 -29q186 0 195 236q-72 -85 -193 -85q-91 0 -147 53t-56 139q0 99 63 154.5t172 55.5q121 0 185.5 -76t64.5 -213q0 -166 -72.5 -253t-208.5 -87q-56 0 -91 8.5t-79 31.5zM262 188q52 0 95.5 26.5t69.5 67.5q-9 83 -49.5 127t-109.5 44
q-67 0 -108 -36.5t-41 -103.5q0 -57 39 -91t104 -34z" />
    <glyph glyph-name="zero.tf" 
d="M279 620q125 0 190.5 -81.5t65.5 -234.5q0 -151 -65.5 -232t-190.5 -81t-191 81t-66 232q0 153 66 234.5t191 81.5zM279 74q163 0 163 230q0 233 -163 233q-164 0 -164 -233q0 -230 164 -230z" />
    <glyph glyph-name="one.tf" 
d="M484 0h-393v78h155v426q-78 -30 -164 -46l-19 59q110 35 202 93h73v-532h146v-78z" />
    <glyph glyph-name="two.tf" 
d="M502 0h-453v66l100.5 81t99.5 80.5t72 66.5t57.5 71t16.5 61q0 55 -32 85.5t-89 30.5q-91 0 -205 -53l-26 66q138 65 246 65q93 0 146.5 -51.5t53.5 -141.5q0 -94 -120 -199q-43 -38 -200 -151q-2 -1 -4 -3q68 4 95 4h242v-78z" />
    <glyph glyph-name="three.tf" 
d="M70 497l-21 62q124 58 241 58q89 0 145 -46.5t56 -121.5q0 -49 -27.5 -84.5t-72.5 -51.5q118 -40 118 -146q0 -81 -60 -128.5t-161 -47.5q-141 0 -254 61l26 64q106 -51 224 -51q63 0 100 28t37 76q0 105 -161 105h-88v78h88q146 0 146 85q0 49 -34.5 78.5t-92.5 29.5
q-95 0 -209 -48z" />
    <glyph glyph-name="four.tf" 
d="M453 136v-136h-91v136h-346l-4 64l350 410h91v-401h95v-73h-95zM362 209v293q-16 -22 -41 -53l-159 -185l-27 -30.5t-22 -24.5h249z" />
    <glyph glyph-name="five.tf" 
d="M182 532l-16 -197q79 38 156 38q91 0 144 -49.5t53 -134.5q0 -91 -64 -144.5t-164 -53.5q-136 0 -251 61l27 67q107 -50 213 -50q67 0 109 34t42 90q0 53 -37 85.5t-98 32.5q-67 0 -140 -41l-77 12l24 328h393v-78h-314z" />
    <glyph glyph-name="six.tf" 
d="M499 587l-23 -66q-75 24 -140 24q-93 -1 -149.5 -65t-61.5 -176q72 87 197 87q92 0 147.5 -52t55.5 -138q0 -99 -62 -154.5t-167 -55.5q-127 0 -193.5 76t-66.5 213q0 154 82.5 246.5t213.5 93.5q89 0 167 -33zM296 65q63 0 103 37t40 103q0 57 -39 91t-104 34
q-56 0 -100.5 -27.5t-67.5 -71.5q22 -166 168 -166z" />
    <glyph glyph-name="seven.tf" 
d="M503 610v-69q-82 -105 -151.5 -251.5t-108.5 -289.5h-107q45 145 115 288.5t152 243.5h-346v78h446z" />
    <glyph glyph-name="eight.tf" 
d="M381 325q154 -45 154 -160q0 -82 -68 -128t-184 -46q-129 0 -195 45t-66 129q0 109 140 154q-111 43 -111 139q0 75 62 118.5t170 43.5q104 0 163 -42.5t59 -115.5q0 -99 -124 -137zM279 559q-63 0 -101.5 -28t-38.5 -72q0 -43 35.5 -70t116.5 -44q130 28 130 116
q0 44 -39 71t-103 27zM275 62q75 0 118.5 28.5t43.5 78.5q0 48 -43.5 77t-149.5 49q-133 -34 -133 -124q0 -51 44 -80t120 -29z" />
    <glyph glyph-name="nine.tf" 
d="M64 31l24 65q72 -29 144 -29q185 0 194 236q-72 -85 -193 -85q-91 0 -147 53t-56 139q0 99 63.5 154.5t171.5 55.5q122 0 186.5 -76t64.5 -213q0 -166 -73 -253t-209 -87q-56 0 -91 8.5t-79 31.5zM260 281q52 0 95.5 27t68.5 67q-9 83 -49.5 127t-109.5 44
q-67 0 -108 -36.5t-41 -103.5q0 -57 39 -91t105 -34z" />
    <glyph glyph-name="zero.zero" horiz-adv-x="615" 
d="M302 620q128 0 194.5 -81.5t66.5 -234.5q0 -151 -66.5 -232t-194.5 -81q-127 0 -193.5 81t-66.5 232q0 153 66 234.5t194 81.5zM153 180l270 305q-43 52 -121 52q-167 0 -167 -233q0 -73 18 -124zM449 437l-271 -306q40 -57 124 -57q168 0 168 230q0 80 -21 133z" />
    <glyph glyph-name="zero.dnom" horiz-adv-x="395" 
d="M197 381q80 0 121 -50t41 -145q0 -94 -41 -144.5t-121 -50.5q-79 0 -120 50.5t-41 144.5q0 95 41 145t120 50zM197 47q52 0 76 34t24 105t-24 105.5t-76 34.5t-75.5 -34.5t-23.5 -105.5t23.5 -105t75.5 -34z" />
    <glyph glyph-name="one.dnom" horiz-adv-x="320" 
d="M296 0h-254v53h102v256q-44 -14 -102 -27l-12 40q71 28 126 57h49v-326h91v-53z" />
    <glyph glyph-name="two.dnom" horiz-adv-x="344" 
d="M311 0h-282v45l62.5 49.5t61 49.5t43.5 40t34.5 43t9.5 38q0 33 -18.5 50.5t-51.5 17.5q-57 0 -126 -32l-18 44q86 40 153 40q58 0 91 -32t33 -88q0 -27 -11.5 -51t-42 -52.5t-50 -43.5l-69.5 -51l-22 -16q38 2 52 2h151v-53z" />
    <glyph glyph-name="three.dnom" horiz-adv-x="344" 
d="M41 302l-16 42q77 36 150 36q57 0 91 -28t34 -76q0 -32 -17.5 -53.5t-46.5 -31.5q75 -24 75 -90q0 -53 -36 -81.5t-102 -28.5q-85 0 -157 39l19 42q65 -32 136 -32q81 0 81 62q0 64 -95 64h-61v51h61q86 0 86 51q0 62 -75 62q-62 0 -127 -28z" />
    <glyph glyph-name="four.dnom" horiz-adv-x="380" 
d="M297 80v-80h-60v80h-220l-2 44l222 255h60v-250h60v-49h-60zM237 129v182q-11 -16 -25 -31l-101 -111q-17 -21 -36 -40h162z" />
    <glyph glyph-name="five.dnom" horiz-adv-x="352" 
d="M111 323l-10 -119q53 28 100 28q59 0 91 -30.5t32 -87.5q0 -59 -38.5 -91t-103.5 -32q-84 0 -156 39l19 45q67 -33 130 -33q41 0 65 20t24 55q0 34 -20.5 53.5t-58.5 19.5q-39 0 -87 -25l-52 7l14 203h249v-52h-198z" />
    <glyph glyph-name="six.dnom" horiz-adv-x="374" 
d="M328 361l-16 -44q-41 13 -85 13q-59 0 -93.5 -38.5t-37.5 -105.5q47 52 122 52q57 0 91.5 -32t34.5 -85q1 -58 -37.5 -94t-104.5 -36q-80 0 -123 47.5t-43 132.5q0 96 51.5 153t136.5 57q58 0 104 -20zM202 42q38 0 61.5 22.5t23.5 59.5q0 32 -23.5 52.5t-61.5 20.5
q-32 0 -60.5 -14.5t-44.5 -39.5q14 -101 105 -101z" />
    <glyph glyph-name="seven.dnom" horiz-adv-x="316" 
d="M296 379v-46q-112 -143 -162 -333h-72q59 195 167 326h-211v53h278z" />
    <glyph glyph-name="eight.dnom" horiz-adv-x="376" 
d="M191 -9q-78 0 -120 29t-42 79q0 65 84 94q-66 29 -66 89q0 46 39 72.5t105 26.5q65 0 101.5 -26t36.5 -71q0 -61 -73 -87q91 -29 91 -98q1 -50 -42 -79.5t-114 -28.5zM189 339q-37 0 -59.5 -15.5t-22.5 -41.5q0 -51 89 -71q76 19 76 72q0 25 -22.5 40.5t-60.5 15.5z
M186 39q43 0 69.5 17.5t26.5 45.5t-27 45.5t-87 29.5q-79 -22 -79 -74q0 -29 26.5 -46.5t70.5 -17.5z" />
    <glyph glyph-name="nine.dnom" horiz-adv-x="366" 
d="M49 16l17 43q45 -17 88 -17q57 0 85 34t31 105q-48 -46 -115 -46q-57 0 -92 31.5t-35 84.5q0 61 39.5 95.5t106.5 34.5q76 0 116 -46.5t40 -132.5q0 -103 -45 -157t-129 -54q-60 0 -107 25zM171 175q64 0 99 47q-8 109 -96 109q-41 0 -64.5 -20.5t-23.5 -61.5
q0 -74 85 -74z" />
    <glyph glyph-name="zero.numr" horiz-adv-x="395" 
d="M197 620q80 0 121 -50t41 -145q0 -94 -41 -144.5t-121 -50.5q-79 0 -120 50.5t-41 144.5q0 95 41 145t120 50zM197 286q52 0 76 34t24 105t-24 105.5t-76 34.5t-75.5 -34.5t-23.5 -105.5t23.5 -105t75.5 -34z" />
    <glyph glyph-name="one.numr" horiz-adv-x="320" 
d="M296 231h-254v53h102v256q-44 -14 -102 -27l-12 40q71 28 126 57h49v-326h91v-53z" />
    <glyph glyph-name="two.numr" horiz-adv-x="344" 
d="M311 235h-282v45l62.5 49.5t61 49.5t43.5 40t34.5 43t9.5 38q0 33 -18.5 50.5t-51.5 17.5q-57 0 -126 -32l-18 44q86 40 153 40q58 0 91 -32t33 -88q0 -27 -11.5 -51t-42 -52.5t-50 -43.5l-69.5 -51l-22 -16q38 2 52 2h151v-53z" />
    <glyph glyph-name="three.numr" horiz-adv-x="344" 
d="M41 543l-16 42q77 36 150 36q57 0 91 -28t34 -76q0 -32 -17.5 -53.5t-46.5 -31.5q75 -24 75 -90q0 -53 -36 -81.5t-102 -28.5q-85 0 -157 39l19 42q65 -32 136 -32q81 0 81 62q0 64 -95 64h-61v51h61q86 0 86 51q0 62 -75 62q-62 0 -127 -28z" />
    <glyph glyph-name="four.numr" horiz-adv-x="380" 
d="M297 311v-80h-60v80h-220l-2 44l222 255h60v-250h60v-49h-60zM237 360v182q-11 -16 -25 -31l-101 -111q-17 -21 -36 -40h162z" />
    <glyph glyph-name="five.numr" horiz-adv-x="352" 
d="M111 558l-10 -119q53 28 100 28q59 0 91 -30.5t32 -87.5q0 -59 -38.5 -91t-103.5 -32q-84 0 -156 39l19 45q67 -33 130 -33q41 0 65 20t24 55q0 34 -20.5 53.5t-58.5 19.5q-39 0 -87 -25l-52 7l14 203h249v-52h-198z" />
    <glyph glyph-name="six.numr" horiz-adv-x="374" 
d="M328 600l-16 -44q-41 13 -85 13q-59 0 -93.5 -38.5t-37.5 -105.5q47 52 122 52q57 0 91.5 -32t34.5 -85q1 -58 -37.5 -94t-104.5 -36q-80 0 -123 47.5t-43 132.5q0 96 51.5 153t136.5 57q58 0 104 -20zM202 281q38 0 61.5 22.5t23.5 59.5q0 32 -23.5 52.5t-61.5 20.5
q-32 0 -60.5 -14.5t-44.5 -39.5q14 -101 105 -101z" />
    <glyph glyph-name="seven.numr" horiz-adv-x="316" 
d="M296 610v-46q-112 -143 -162 -333h-72q59 195 167 326h-211v53h278z" />
    <glyph glyph-name="eight.numr" horiz-adv-x="376" 
d="M191 230q-78 0 -120 29t-42 79q0 65 84 94q-66 29 -66 89q0 46 39 72.5t105 26.5q65 0 101.5 -26t36.5 -71q0 -61 -73 -87q91 -29 91 -98q1 -50 -42 -79.5t-114 -28.5zM189 578q-37 0 -59.5 -15.5t-22.5 -41.5q0 -51 89 -71q76 19 76 72q0 25 -22.5 40.5t-60.5 15.5z
M186 278q43 0 69.5 17.5t26.5 45.5t-27 45.5t-87 29.5q-79 -22 -79 -74q0 -29 26.5 -46.5t70.5 -17.5z" />
    <glyph glyph-name="nine.numr" horiz-adv-x="366" 
d="M49 255l17 43q45 -17 88 -17q57 0 85 34t31 105q-48 -46 -115 -46q-57 0 -92 31.5t-35 84.5q0 61 39.5 95.5t106.5 34.5q76 0 116 -46.5t40 -132.5q0 -103 -45 -157t-129 -54q-60 0 -107 25zM171 414q64 0 99 47q-8 109 -96 109q-41 0 -64.5 -20.5t-23.5 -61.5
q0 -74 85 -74z" />
    <glyph glyph-name="backslash.case" horiz-adv-x="411" 
d="M354 -69h-77l-220 731h78z" />
    <glyph glyph-name="bullet.case" horiz-adv-x="318" 
d="M82 309q0 34 21.5 55.5t55.5 21.5q35 0 56 -21.5t21 -55.5t-21 -55.5t-56 -21.5q-34 0 -55.5 22t-21.5 55z" />
    <glyph glyph-name="exclamdown.case" horiz-adv-x="220" 
d="M105 519q-21 0 -34 13.5t-13 33.5q0 21 13 34.5t34 13.5t34 -13.5t13 -34.5t-13 -34t-34 -13zM153 0h-97l13 411h71z" />
    <glyph glyph-name="periodcentered.case" horiz-adv-x="273" 
d="M76 314q0 24 15 39.5t40 15.5t40 -15.5t15 -39.5t-15.5 -39.5t-39.5 -15.5t-39.5 15.5t-15.5 39.5z" />
    <glyph glyph-name="questiondown.case" horiz-adv-x="513" 
d="M297 520q-21 0 -34 13t-13 34t13 34.5t34 13.5t34 -13.5t13 -34.5q0 -20 -13 -33.5t-34 -13.5zM471 127l26 -71q-138 -65 -246 -65q-90 0 -145 51t-55 134q0 71 55 118t158 64l-3 71h74l13 -138q-98 -8 -150.5 -35.5t-52.5 -70.5q0 -50 33 -80.5t88 -30.5q94 0 205 53z
" />
    <glyph glyph-name="slash.case" horiz-adv-x="419" 
d="M363 662l-230 -762h-76l228 762h78z" />
    <glyph glyph-name="braceleft.case" horiz-adv-x="385" 
d="M248 143v-29q0 -48 25.5 -74.5t87.5 -36.5l-6 -63q-101 7 -146 49t-45 125v29q0 76 -23.5 101.5t-94.5 28.5v63q71 3 94.5 29.5t23.5 100.5v29q0 83 45 124.5t146 48.5l6 -63q-62 -9 -87.5 -36t-25.5 -74v-29q0 -79 -25 -115t-82 -46q58 -10 82.5 -45.5t24.5 -116.5z" />
    <glyph glyph-name="braceright.case" horiz-adv-x="385" 
d="M143 114v28q0 81 24.5 117t82.5 46q-57 10 -82 46t-25 115v29q0 47 -25 74t-88 36l6 63q101 -7 146 -48.5t45 -124.5v-29q0 -74 24 -100.5t94 -29.5v-63q-71 -3 -94.5 -29t-23.5 -101v-29q0 -83 -45 -125t-146 -49l-6 63q63 10 88 36.5t25 74.5z" />
    <glyph glyph-name="bracketleft.case" horiz-adv-x="362" 
d="M335 589h-157v-570h157v-72h-239v713h239v-71z" />
    <glyph glyph-name="bracketright.case" horiz-adv-x="362" 
d="M273 660v-713h-239v72h157v570h-157v71h239z" />
    <glyph glyph-name="parenleft.case" horiz-adv-x="314" 
d="M234 660l54 -34q-64 -78 -94.5 -148.5t-30.5 -174.5q0 -103 30.5 -173.5t94.5 -149.5l-54 -34q-79 85 -116 165t-37 192t37 192t116 165z" />
    <glyph glyph-name="parenright.case" horiz-adv-x="311" 
d="M29 626l54 34q79 -85 116 -165t37 -192t-37 -192t-116 -165l-54 34q64 79 94.5 149.5t30.5 173.5q0 104 -30.5 174.5t-94.5 148.5z" />
    <glyph glyph-name="emdash.case" horiz-adv-x="900" 
d="M831 348v-69h-773v69h773z" />
    <glyph glyph-name="endash.case" horiz-adv-x="500" 
d="M431 348v-69h-373v69h373z" />
    <glyph glyph-name="hyphen.case" horiz-adv-x="395" 
d="M326 356v-80h-268v80h268z" />
    <glyph glyph-name="guillemotleft.case" horiz-adv-x="543" 
d="M297 463l-121 -126q-6 -6 -41 -36q26 -19 42 -35l120 -126l-46 -43l-206 205l205 206zM480 463l-121 -126q-6 -6 -41 -36q26 -19 42 -35l120 -126l-46 -44l-206 206l205 206z" />
    <glyph glyph-name="guillemotright.case" horiz-adv-x="543" 
d="M99 96l-45 44l120 126q6 6 41 36q-23 18 -40 35l-121 126l46 45l204 -206zM282 96l-45 44l120 126q6 6 41 36q-23 18 -40 35l-121 126l46 45l204 -206z" />
    <glyph glyph-name="guilsinglleft.case" horiz-adv-x="361" 
d="M297 463l-121 -126q-6 -6 -41 -36q26 -19 42 -35l120 -126l-46 -43l-206 205l205 206z" />
    <glyph glyph-name="guilsinglright.case" horiz-adv-x="361" 
d="M99 96l-45 44l120 126q6 6 41 36q-23 18 -40 35l-121 126l46 45l204 -206z" />
    <glyph glyph-name="florin.tf" 
d="M530 498l-29 -56q-68 37 -140 37q-63 0 -105 -44t-61 -143l-7 -35h228l-11 -60h-228l-38 -197h-89l38 197h-62l12 60h62l7 35q26 134 85.5 196.5t156.5 62.5q101 0 181 -53z" />
    <glyph glyph-name="cent.tf" 
d="M468 122l33 -54q-70 -68 -172 -76v-56h-61v56q-89 8 -148 75t-59 200q0 129 58.5 199.5t148.5 80.5v63h61v-63q83 -8 153 -53l-28 -58q-64 38 -147 38q-67 0 -111.5 -50t-44.5 -157q0 -103 43 -152.5t110 -49.5q97 0 164 57z" />
    <glyph glyph-name="dollar.tf" 
d="M474 495l-23 -63q-115 47 -188 47q-45 0 -71 -19t-26 -51q0 -35 27.5 -53t123.5 -48q99 -30 138 -67t39 -99q0 -67 -50.5 -108t-138.5 -43v-57h-62v60q-106 14 -192 82l33 63q102 -78 212 -78q52 0 82 21.5t30 57.5t-31.5 57t-125.5 51q-98 32 -135 66t-37 95q0 60 44 97
t120 40v65h62v-67q82 -10 169 -49z" />
    <glyph glyph-name="Euro.tf" 
d="M494 122l33 -54q-43 -41 -92 -59t-118 -18q-82 0 -144 47.5t-80 148.5h-74v50h68l-1 30q0 20 1 29h-68v50h74q19 100 81.5 151t146.5 51q103 0 187 -54l-28 -58q-68 40 -148 40q-51 0 -92.5 -31t-57.5 -99h247l-14 -50h-240q0 -4 -0.5 -14t-0.5 -15q0 -6 0.5 -16t0.5 -14
h224l-14 -50h-203q29 -124 147 -124q96 0 165 59z" />
    <glyph glyph-name="sterling.tf" 
d="M203 75h301v-75h-468v66l79 7l12 134h-88v62h93l2 23q11 136 64.5 197.5t151.5 61.5q104 0 180 -53l-28 -59q-68 40 -141 40q-62 0 -96 -42.5t-43 -144.5l-2 -23h197v-62h-202z" />
    <glyph glyph-name="yen.tf" 
d="M325 195v-51h155v-50h-155v-94h-92v94h-150v50h150v51v1h-150v50h121l-168 299h95l132 -226q11 -18 16 -43q7 26 17 43l132 226h95l-169 -299h126v-50h-155v-1z" />
    <glyph glyph-name="arrowdown.ss08" horiz-adv-x="669" 
d="M335 568q119 0 204 -85t85 -204q0 -120 -85 -205t-204 -85q-120 0 -205 85t-85 205q0 119 85 204t205 85zM313 200l-101 100l-31 -31l154 -148l154 148l-31 31l-101 -100v230h-44v-230z" />
    <glyph glyph-name="arrowdownleft.ss08" horiz-adv-x="669" 
d="M624 279q0 119 -85 204t-204 85q-120 0 -205 -85t-85 -204q0 -120 85 -205t205 -85q119 0 204 85t85 205zM219 381h44v-144l163 163l31 -30l-163 -164h143v-44h-218v219z" />
    <glyph glyph-name="arrowdownright.ss08" horiz-adv-x="669" 
d="M624 279q0 119 -85 204t-204 85q-120 0 -205 -85t-85 -204q0 -120 85 -205t205 -85q119 0 204 85t85 205zM375 206l-163 164l31 30l163 -163v144h44v-219h-218v44h143z" />
    <glyph glyph-name="arrowleft.ss08" horiz-adv-x="669" 
d="M335 568q119 0 204 -85t85 -204q0 -120 -85 -205t-204 -85q-120 0 -205 85t-85 205q0 119 85 204t205 85zM325 124l31 31l-100 101h230v44h-230l100 101l-31 32l-148 -154z" />
    <glyph glyph-name="arrowright.ss08" horiz-adv-x="669" 
d="M335 568q119 0 204 -85t85 -204q0 -120 -85 -205t-204 -85q-120 0 -205 85t-85 205q0 119 85 204t205 85zM413 300h-229v-44h229l-100 -101l31 -31l148 155l-148 154l-31 -32z" />
    <glyph glyph-name="arrowup.ss08" horiz-adv-x="669" 
d="M335 568q119 0 204 -85t85 -204q0 -120 -85 -205t-204 -85q-120 0 -205 85t-85 205q0 119 85 204t205 85zM212 257l101 100v-229h44v229l101 -100l31 31l-154 148l-154 -148z" />
    <glyph glyph-name="arrowupleft.ss08" horiz-adv-x="669" 
d="M624 279q0 119 -85 204t-204 85q-120 0 -205 -85t-85 -204q0 -120 85 -205t205 -85q119 0 204 85t85 205zM294 351l163 -163l-31 -31l-163 163v-144h-44v219h218v-44h-143z" />
    <glyph glyph-name="arrowupright.ss08" horiz-adv-x="669" 
d="M624 279q0 119 -85 204t-204 85q-120 0 -205 -85t-85 -204q0 -120 85 -205t205 -85q119 0 204 85t85 205zM450 176h-44v144l-163 -163l-31 31l163 163h-143v44h218v-219z" />
    <glyph glyph-name="arrowdown.ss13" horiz-adv-x="508" 
d="M255 488q85 0 146.5 -61.5t61.5 -147.5t-61 -147.5t-147 -61.5q-87 0 -148.5 61.5t-61.5 147.5t61.5 147.5t148.5 61.5zM255 459q-75 0 -128 -53t-53 -127t53 -127.5t128 -53.5q73 0 126 53.5t53 127.5t-52.5 127t-126.5 53zM238 223l-71 72l-24 -24l112 -106l111 106
l-25 23l-70 -71v165h-33v-165z" />
    <glyph glyph-name="arrowdownleft.ss13" horiz-adv-x="508" 
d="M255 488q85 0 146.5 -61.5t61.5 -147.5t-61 -147.5t-147 -61.5q-87 0 -148.5 61.5t-61.5 147.5q0 85 61 147t149 62zM255 459q-75 0 -128 -52.5t-53 -127.5t52.5 -128t128.5 -53q74 0 126.5 53t52.5 128q0 74 -52.5 127t-126.5 53zM229 227h101v-31h-156v156h32v-101
l116 116l24 -23z" />
    <glyph glyph-name="arrowdownright.ss13" horiz-adv-x="508" 
d="M254 488q87 0 148 -62t61 -147q0 -86 -61.5 -147.5t-147.5 -61.5t-147.5 61.5t-61.5 147.5t61.5 147.5t147.5 61.5zM254 459q-75 0 -127.5 -53t-52.5 -127q0 -75 52.5 -128t127.5 -53t127.5 53t52.5 128q0 74 -52.5 127t-127.5 53zM302 352h33v-156h-157v31h101l-117 117
l24 23l116 -116v101z" />
    <glyph glyph-name="arrowleft.ss13" horiz-adv-x="508" 
d="M255 488q85 0 146.5 -61.5t61.5 -147.5t-61 -147.5t-147 -61.5q-87 0 -148.5 61.5t-61.5 147.5t61.5 147.5t148.5 61.5zM255 459q-75 0 -128 -52.5t-53 -127.5t52.5 -128t128.5 -53q74 0 126.5 53t52.5 128q0 74 -52.5 127t-126.5 53zM199 295l71 70l-23 24l-107 -110
l107 -112l23 24l-71 71h164v33h-164z" />
    <glyph glyph-name="arrowright.ss13" horiz-adv-x="508" 
d="M254 488q86 0 147.5 -61.5t61.5 -147.5t-61.5 -147.5t-147.5 -61.5t-147.5 61.5t-61.5 147.5t61.5 147.5t147.5 61.5zM254 459q-75 0 -127.5 -53t-52.5 -127q0 -75 52.5 -128t127.5 -53t127.5 53t52.5 128q0 74 -52.5 127t-127.5 53zM238 191l23 -24l107 112l-107 110
l-23 -24l71 -70h-164v-33h164z" />
    <glyph glyph-name="arrowup.ss13" horiz-adv-x="508" 
d="M255 70q-87 0 -148.5 61t-61.5 147t61.5 148t148.5 62q85 0 146.5 -62t61.5 -148t-61.5 -147t-146.5 -61zM255 98q73 0 126 53t53 127q0 75 -52.5 128t-126.5 53q-75 0 -128 -53t-53 -128q0 -74 53 -127t128 -53zM341 263l25 23l-111 107l-112 -107l24 -24l71 72v-164h33
v164z" />
    <glyph glyph-name="arrowupleft.ss13" horiz-adv-x="508" 
d="M255 70q-88 0 -149 61.5t-61 146.5q0 86 61.5 148t148.5 62q85 0 146.5 -62t61.5 -148t-61.5 -147t-146.5 -61zM255 98q74 0 126.5 53t52.5 127q0 75 -52.5 128t-126.5 53q-76 0 -128.5 -53t-52.5 -128q0 -74 53 -127t128 -53zM207 205h-33v157h156v-32h-101l117 -117
l-24 -23l-115 116v-101z" />
    <glyph glyph-name="arrowupright.ss13" horiz-adv-x="508" 
d="M254 70q-86 0 -147.5 61t-61.5 147t61.5 148t147.5 62t147.5 -62t61.5 -148q0 -85 -60.5 -146.5t-148.5 -61.5zM254 98q75 0 127.5 53t52.5 127q0 75 -52.5 128t-127.5 53t-127.5 -53t-52.5 -128q0 -74 52.5 -127t127.5 -53zM279 330h-101v31h157v-156h-33v101l-116 -116
l-24 23z" />
    <glyph glyph-name="at.case" horiz-adv-x="911" 
d="M642 492v-306q0 -39 12 -55t36 -16q47 0 85.5 52t39.5 162q0 149 -94.5 238t-255.5 89q-168 0 -273.5 -103.5t-105.5 -270.5q0 -163 99.5 -260.5t262.5 -97.5q131 0 242 57l17 -34q-108 -67 -259 -67q-183 0 -294.5 110.5t-111.5 291.5q0 185 118.5 300t304.5 115
q179 0 286.5 -101.5t107.5 -266.5q-1 -73 -19 -126.5t-47.5 -81.5t-59.5 -40.5t-62 -12.5q-85 0 -102 70q-41 -37 -78 -53.5t-89 -16.5q-166 0 -166 218q0 214 177 214q78 0 151 -51v43h78zM564 202v174q-66 57 -127 57q-125 0 -125 -147q0 -85 29.5 -120t85.5 -35
q38 0 67.5 17t69.5 54z" />
    <glyph glyph-name="registered.ss04" horiz-adv-x="740" 
d="M370 620q130 0 221.5 -92t91.5 -223t-91 -222.5t-222 -91.5t-222.5 91.5t-91.5 222.5t91.5 223t222.5 92zM370 20q118 0 202 83.5t84 201.5t-84 202t-202 84t-201.5 -84t-83.5 -202q0 -119 83.5 -202t201.5 -83zM238 482h135q146 0 146 -115q0 -90 -77 -111l95 -126h-69
l-87 120h-85v-122h-58v354zM296 300h94q71 0 71 65q0 68 -87 68h-78v-133z" />
    <glyph glyph-name="ampersand.ss09" horiz-adv-x="604" 
d="M598 272v-76q-22 0 -66 2q-11 -109 -68.5 -158t-179.5 -49q-114 0 -176 45t-62 129q0 51 32 87t106 71q-45 44 -62.5 78t-17.5 75q0 67 48 105.5t132 38.5q76 0 121 -39.5t45 -107.5q0 -104 -137 -162q-111 -46 -133 -60q-46 -29 -46 -76q0 -53 41 -80t109 -27
q97 0 133 45.5t36 158.5h145zM185 473q0 -31 16 -56.5t57 -62.5q69 29 95 54t26 60q0 44 -25.5 67.5t-69.5 23.5t-71.5 -23.5t-27.5 -62.5z" />
    <glyph glyph-name="ampersand.ss10" horiz-adv-x="504" 
d="M447 101l30 -65q-75 -35 -159 -43v-59h-69v58q-204 9 -204 147q0 108 118 136q-86 30 -86 116q0 141 166 154v67h69v-66q76 -6 140 -31l-26 -66q-76 23 -143 23q-127 0 -127 -88q0 -42 34.5 -60t110.5 -18h70v-66h-87q-79 0 -116 -20.5t-37 -68.5q0 -86 147 -86
q85 0 169 36z" />
    <glyph glyph-name="copyright.ss11" horiz-adv-x="482" 
d="M242 241q-79 0 -134 55t-55 135q0 78 55 133.5t134 55.5q78 0 133 -55.5t55 -133.5q0 -79 -55 -134.5t-133 -55.5zM242 266q67 0 115 48.5t48 116.5t-48 116t-115 48q-68 0 -116 -48t-48 -116t48 -116.5t116 -48.5zM313 385l17 -28q-39 -33 -89 -33q-44 0 -73 28t-29 75
q0 51 27 79.5t74 28.5q44 0 84 -25l-15 -30q-37 19 -64 19q-62 0 -62 -72q0 -31 17.5 -48.5t45.5 -17.5q34 0 67 24z" />
    <glyph glyph-name="registered.ss12" horiz-adv-x="482" 
d="M242 241q-79 0 -134 55t-55 135q0 78 55 133.5t134 55.5q78 0 133 -55.5t55 -133.5q0 -79 -55 -134.5t-133 -55.5zM242 266q67 0 115 48.5t48 116.5t-48 116t-115 48q-68 0 -116 -48t-48 -116t48 -116.5t116 -48.5zM162 535h81q89 0 89 -67q0 -49 -44 -57q24 -12 50 -81
h-45q-29 70 -49 70h-44v-70h-38v205zM203 430h51q37 0 37 36q0 37 -48 37h-40v-73z" />
    <glyph glyph-name="caron.alt" horiz-adv-x="488" 
d="M276 686v-13q-6 -87 -30 -157h-52l6 170h76z" />
    <glyph glyph-name="acute.case" horiz-adv-x="488" 
d="M353 777l-1 -18q-45 -38 -74 -56t-79 -38l-29 29l110 130z" />
    <glyph glyph-name="breve.case" horiz-adv-x="488" 
d="M319 792h67q0 -120 -143 -120q-141 0 -141 120h67q6 -55 74 -55q67 0 76 55z" />
    <glyph glyph-name="caron.case" horiz-adv-x="488" 
d="M274 671h-61l-122 108l35 36l118 -70l118 70l35 -36z" />
    <glyph glyph-name="circumflex.case" horiz-adv-x="488" 
d="M244 733l-118 -71l-35 36l122 108h61l123 -108l-35 -36z" />
    <glyph glyph-name="dieresis.case" horiz-adv-x="488" 
d="M149 788q24 0 39.5 -14.5t15.5 -39.5q0 -24 -15 -38t-40 -14q-22 0 -38 14t-16 38t16 39t38 15zM338 788q23 0 39 -14.5t16 -39.5q0 -24 -16 -38t-39 -14q-24 0 -39.5 14t-15.5 38q0 25 15.5 39.5t39.5 14.5z" />
    <glyph glyph-name="dotaccent.case" horiz-adv-x="488" 
d="M244 797q27 0 45.5 -17t18.5 -46q0 -28 -18.5 -45t-45.5 -17q-28 0 -46.5 17t-18.5 45q0 29 18.5 46t46.5 17z" />
    <glyph glyph-name="grave.case" horiz-adv-x="488" 
d="M315 688l-29 -29q-50 20 -79 38t-74 56l-1 18l74 47z" />
    <glyph glyph-name="hungarumlaut.case" horiz-adv-x="488" 
d="M280 792v-19q-82 -73 -128 -101l-40 20l99 133zM422 792l-1 -19q-82 -73 -128 -101l-40 20l100 133z" />
    <glyph glyph-name="macron.case" horiz-adv-x="488" 
d="M369 695h-250v79h250v-79z" />
    <glyph glyph-name="ring.case" horiz-adv-x="488" 
d="M244 850q43 0 70 -26.5t27 -70.5q0 -41 -27.5 -66.5t-70.5 -25.5q-42 0 -69 26t-27 66q0 44 27 70.5t70 26.5zM243 712q21 0 33.5 11t12.5 30q0 22 -12.5 34.5t-32.5 12.5t-32.5 -12.5t-12.5 -34.5q0 -19 12 -30t32 -11z" />
    <glyph glyph-name="tilde.case" horiz-adv-x="488" 
d="M355 787l47 -11q-8 -44 -32.5 -70t-53.5 -28t-58 10l-55 28q-49 25 -70 -31l-46 11q12 64 55.5 85.5t86.5 -2.5l55 -26q51 -25 71 34z" />
    </font>
</defs>
</svg>
