<?xml version="1.0" standalone="no"?>
<!DOCTYPE svg PUBLIC "-//W3C//DTD SVG 1.1//EN" "http://www.w3.org/Graphics/SVG/1.1/DTD/svg11.dtd" >
<svg>
<metadata>
Created by FontForge 20090622 at Thu Jun 16 15:08:04 2016
 By deploy user
Copyright &#194;&#169; 2013 by Rene Bieder. All rights reserved.
</metadata>
<defs>
<font id="Gentona-BookItalic" horiz-adv-x="558" >
  <font-face 
    font-family="Gentona Book"
    font-weight="400"
    font-style="italic"
    font-stretch="normal"
    units-per-em="1000"
    panose-1="0 0 5 0 0 0 0 0 0 0"
    ascent="800"
    descent="-200"
    x-height="472"
    cap-height="610"
    bbox="-141 -225 1167.71 886"
    underline-thickness="50"
    underline-position="-50"
    slope="-8"
    unicode-range="U+0020-U+FB02"
  />
<missing-glyph horiz-adv-x="753" 
d="M702 610l-86 -610h-565l86 610h565zM656 570h-485l-74 -530h485zM291 413l-7 29q68 26 121 26q46 0 71.5 -24.5t19.5 -65.5t-40 -67t-83 -34l-6 -41h-33l4 66q111 12 120 76q4 26 -12 41.5t-46 15.5q-45 0 -109 -22zM342 179q22 0 19 -22q-3 -24 -25 -24q-23 0 -20 24
q3 22 26 22z" />
    <glyph glyph-name="fi" unicode="fi" horiz-adv-x="572" 
d="M521 472l-66 -472h-90l55 396h-218l-56 -396h-90l56 396h-68l10 76h69l5 37q11 84 53 123.5t125 39.5q32 0 107 -12l-17 -67q-56 5 -85 5q-46 0 -66.5 -21t-26.5 -68l-5 -37h308zM504 659q23 0 37 -13t10 -37q-3 -23 -20.5 -36.5t-40.5 -13.5t-36.5 13.5t-10.5 36.5
q4 24 21 37t40 13z" />
    <glyph glyph-name="fl" unicode="fl" horiz-adv-x="557" 
d="M548 668l-94 -668h-90l83 588q-80 10 -136 10q-46 0 -66.5 -21t-26.5 -68l-5 -37h142l-10 -76h-143l-56 -396h-90l56 396h-68l10 76h69l5 37q11 84 53 123.5t125 39.5q40 0 150 -21l2 17h90z" />
    <glyph glyph-name="f_f" unicode="ff" horiz-adv-x="676" 
d="M723 663l-16 -68q-32 3 -70 3q-46 0 -67.5 -21.5t-27.5 -67.5l-5 -37h144l-10 -76h-145l-56 -396h-90l56 396h-236l-56 -396h-90l56 396h-66l10 76h67l5 37q11 84 54 123.5t126 39.5q55 0 91 -9l-16 -68q-32 3 -70 3q-46 0 -67.5 -21.5t-27.5 -67.5l-5 -37h236l5 37
q11 84 54 123.5t126 39.5q55 0 91 -9z" />
    <glyph glyph-name="f_f_i" unicode="ffi" horiz-adv-x="883" 
d="M833 472l-66 -472h-90l55 396h-219l-56 -396h-90l56 396h-223l-56 -396h-90l56 396h-66l10 76h67l5 37q11 84 54 123.5t126 39.5q55 0 91 -9l-16 -68q-32 3 -70 3q-46 0 -67.5 -21.5t-27.5 -67.5l-5 -37h223l5 37q11 84 53.5 123.5t125.5 39.5q35 0 101 -11l-16 -63
q-54 5 -80 5q-46 0 -67 -23.5t-27 -70.5l-5 -37h309zM815 659q23 0 37 -13t10 -37q-3 -23 -20.5 -36.5t-40.5 -13.5t-36.5 13.5t-10.5 36.5q4 24 21 37t40 13z" />
    <glyph glyph-name="f_f_l" unicode="ffl" horiz-adv-x="865" 
d="M856 668l-94 -668h-90l83 588q-80 10 -137 10q-46 0 -66.5 -21t-26.5 -68l-5 -37h142l-10 -76h-143l-55 -396h-90l55 396h-219l-56 -396h-90l56 396h-66l10 76h67l5 37q11 84 54 123.5t126 39.5q55 0 91 -9l-16 -68q-32 3 -70 3q-46 0 -67.5 -21.5t-27.5 -67.5l-5 -37
h219l5 37q12 84 54 123.5t125 39.5q41 0 150 -21l2 17h90z" />
    <glyph glyph-name=".notdef" horiz-adv-x="753" 
d="M702 610l-86 -610h-565l86 610h565zM656 570h-485l-74 -530h485zM291 413l-7 29q68 26 121 26q46 0 71.5 -24.5t19.5 -65.5t-40 -67t-83 -34l-6 -41h-33l4 66q111 12 120 76q4 26 -12 41.5t-46 15.5q-45 0 -109 -22zM342 179q22 0 19 -22q-3 -24 -25 -24q-23 0 -20 24
q3 22 26 22z" />
    <glyph glyph-name=".null" horiz-adv-x="0" 
 />
    <glyph glyph-name="nonmarkingreturn" horiz-adv-x="333" 
 />
    <glyph glyph-name="space" unicode=" " horiz-adv-x="220" 
 />
    <glyph glyph-name="exclam" unicode="!" horiz-adv-x="220" 
d="M137 199h-71l45 411h97zM87 91q21 0 32 -13.5t8 -33.5q-2 -20 -17 -34t-36 -14t-32.5 13.5t-8.5 34.5t18 34t36 13z" />
    <glyph glyph-name="quotedbl" unicode="&#x22;" horiz-adv-x="319" 
d="M116 653h83l-59 -256h-60zM237 653h83l-59 -256h-60z" />
    <glyph glyph-name="numbersign" unicode="#" horiz-adv-x="691" 
d="M522 356l-38 -161h123l-12 -66h-126l-30 -129h-73l30 129h-158l-30 -129h-73l30 129h-116l12 66h119l37 161h-116l13 66h118l30 128h74l-30 -128h158l30 128h73l-30 -128h123l-13 -66h-125zM449 356h-158l-38 -161h158z" />
    <glyph glyph-name="dollar" unicode="$" horiz-adv-x="529" 
d="M492 495l-32 -63q-104 47 -181 47q-45 0 -74 -19t-34 -51q-5 -34 20.5 -52.5t116.5 -48.5q95 -30 129 -67t26 -99q-10 -67 -66.5 -108t-144.5 -43l-8 -57h-62l9 60q-104 14 -181 82l42 63q89 -77 201 -77q52 0 84.5 21.5t37.5 56.5q5 36 -23 57t-118 51q-94 32 -126 66
t-23 95q8 60 57.5 97.5t125.5 40.5l10 65h61l-9 -68q79 -10 162 -49z" />
    <glyph glyph-name="percent" unicode="%" horiz-adv-x="843" 
d="M238 620q152 0 126 -183q-12 -89 -57.5 -135t-120.5 -46t-107.5 46t-19.5 135q13 90 58.5 136.5t120.5 46.5zM606 610h56l-441 -610h-55zM194 311q92 0 109 126q19 128 -73 128t-109 -128q-19 -126 73 -126zM657 355q75 0 107.5 -46.5t19.5 -136.5q-26 -181 -178 -181
t-128 181q13 90 58.5 136.5t120.5 46.5zM613 47q92 0 109 125q18 128 -73 128t-109 -128q-19 -125 73 -125z" />
    <glyph glyph-name="ampersand" unicode="&#x26;" horiz-adv-x="646" 
d="M538 290l59 -39q-46 -67 -83 -113l83 -76l-52 -62l-86 80q-95 -89 -220 -89q-106 0 -160.5 45t-42.5 129q7 51 45.5 86.5t118.5 71.5q-39 43 -51.5 77.5t-7.5 75.5q10 67 63.5 105.5t137.5 38.5q76 0 117.5 -41.5t31.5 -109.5q-16 -108 -160 -164l129 -118q27 31 78 103z
M223 473q-5 -31 7 -56.5t48 -62.5l18 7q112 44 120 107q6 44 -16 67.5t-67 23.5q-43 0 -74 -23.5t-36 -62.5zM406 129l-156 145q-63 -25 -91.5 -46t-32.5 -53q-7 -54 25.5 -83.5t97.5 -29.5q84 0 157 67z" />
    <glyph glyph-name="quotesingle" unicode="'" horiz-adv-x="197" 
d="M114 653h83l-59 -256h-60z" />
    <glyph glyph-name="parenleft" unicode="(" horiz-adv-x="316" 
d="M284 660l51 -34q-152 -180 -181 -383q-29 -202 73 -383l-60 -34q-128 185 -94 417q32 234 211 417z" />
    <glyph glyph-name="parenright" unicode=")" horiz-adv-x="313" 
d="M32 -174l-51 34q152 180 181 383q29 202 -73 383l60 34q128 -185 94 -417q-32 -234 -211 -417z" />
    <glyph glyph-name="asterisk" unicode="*" horiz-adv-x="422" 
d="M274 417l46 -115l-41 -20l-60 115l-111 -70l-25 38l97 77l-97 76l25 38l103 -63l39 118l47 -12l-26 -122l123 3l3 -46z" />
    <glyph glyph-name="plus" unicode="+" horiz-adv-x="475" 
d="M432 204h-167l-24 -166h-66l23 166h-166l10 68h166l23 166h67l-24 -167h168z" />
    <glyph glyph-name="comma" unicode="," horiz-adv-x="256" 
d="M30 -128l-20 27q54 41 76 100q-39 10 -34 52q3 24 20 39.5t42 15.5q24 0 36.5 -17t9.5 -43q-6 -46 -41.5 -93.5t-88.5 -80.5z" />
    <glyph glyph-name="hyphen" unicode="-" horiz-adv-x="394" 
d="M79 321h268l-11 -80h-268z" />
    <glyph glyph-name="period" unicode="." horiz-adv-x="248" 
d="M45 51q3 24 20 39.5t42 15.5q24 0 37 -15.5t10 -39.5t-20.5 -39.5t-41.5 -15.5t-37.5 15.5t-9.5 39.5z" />
    <glyph glyph-name="slash" unicode="/" horiz-adv-x="338" 
d="M320 662h78l-384 -868h-76z" />
    <glyph glyph-name="zero" unicode="0" horiz-adv-x="615" 
d="M362 620q127 0 182 -81.5t34 -234.5q-22 -151 -99.5 -232t-205.5 -81q-127 0 -182 81t-34 232q21 153 99 234.5t206 81.5zM285 74q168 0 200 230q32 233 -135 233q-168 0 -200 -233q-32 -230 135 -230z" />
    <glyph glyph-name="one" unicode="1" horiz-adv-x="484" 
d="M413 78l-11 -78h-370l11 78h150l60 429q-85 -26 -169 -46l-10 56q116 43 213 93h71l-74 -532h129z" />
    <glyph glyph-name="two" unicode="2" horiz-adv-x="520" 
d="M449 0h-453l9 66l114.5 81.5l112.5 80.5t85.5 68t69.5 71t27 62q7 51 -20.5 82.5t-78.5 31.5q-96 0 -230 -53l-17 65q147 65 255 65q91 0 138.5 -53t34.5 -140q-13 -94 -148 -200q-50 -38 -225 -153q68 4 95 4h242z" />
    <glyph glyph-name="three" unicode="3" horiz-adv-x="533" 
d="M89 497l-13 62q130 59 250 59q90 0 139 -46.5t38 -122.5q-15 -99 -118 -136q113 -39 96 -146q-11 -81 -78 -128.5t-168 -47.5q-139 0 -245 61l36 64q98 -51 216 -51q63 0 104 28t48 76q7 53 -31 79t-115 26h-88l11 78h88q149 0 162 90q6 47 -23 75t-83 28
q-105 0 -226 -48z" />
    <glyph glyph-name="four" unicode="4" horiz-adv-x="599" 
d="M452 136l-19 -136h-91l19 136h-354l7 70l414 404h90l-55 -396h102l-11 -78h-102zM372 214l40 285q-25 -30 -60 -63l-163 -158l-67 -64h250z" />
    <glyph glyph-name="five" unicode="5" horiz-adv-x="543" 
d="M209 532l-42 -197q82 38 160 38q91 0 137 -49.5t34 -134.5q-12 -91 -83.5 -144.5t-171.5 -53.5q-137 0 -243 61l36 67q100 -50 206 -50q67 0 114 34t55 90q8 53 -25 85.5t-94 32.5q-67 0 -146 -41l-74 12l69 328h393l-11 -78h-314z" />
    <glyph glyph-name="six" unicode="6" horiz-adv-x="569" 
d="M549 587l-32 -66q-68 23 -136 23q-93 0 -158.5 -64t-86.5 -176q86 86 209 86q92 0 140.5 -51.5t36.5 -137.5q-14 -98 -84.5 -154t-174.5 -56q-127 0 -183 76t-37 213q22 154 117.5 247t226.5 93q90 0 162 -33zM274 65q62 0 107.5 37t54.5 103q8 56 -26 85t-100 29
q-101 0 -181 -103q-2 -70 35 -110.5t110 -40.5z" />
    <glyph glyph-name="seven" unicode="7" horiz-adv-x="464" 
d="M508 610l-10 -69q-97 -105 -188 -252t-148 -289h-107q64 144 154.5 287.5t186.5 244.5h-345l11 78h446z" />
    <glyph glyph-name="eight" unicode="8" horiz-adv-x="582" 
d="M350 620q104 0 157.5 -42.5t42.5 -115.5q-14 -99 -144 -137q76 -23 108 -62t23 -98q-11 -82 -85 -128t-191 -46q-129 0 -188 45t-48 129q15 109 162 154q-106 44 -92 139q11 75 79 118.5t176 43.5zM338 559q-63 0 -105.5 -28t-48.5 -72q-6 -43 25 -68.5t110 -42.5
q135 28 146 113q7 44 -28 71t-99 27zM266 292q-139 -34 -151 -121q-7 -51 33 -80t116 -29q75 0 122.5 28.5t54.5 78.5q6 48 -32.5 75.5t-142.5 47.5z" />
    <glyph glyph-name="nine" unicode="9" horiz-adv-x="569" 
d="M37 24l32 66q68 -23 136 -23q94 0 162 64.5t89 175.5q-86 -86 -215 -86q-92 0 -140.5 51.5t-36.5 137.5q14 98 84.5 154t174.5 56q117 0 177.5 -79.5t42.5 -209.5q-22 -154 -117.5 -247t-226.5 -93q-90 0 -162 33zM276 292q45 0 98 24t89 79q2 69 -38 110t-113 41
q-62 0 -107.5 -37t-54.5 -103q-8 -56 26 -85t100 -29z" />
    <glyph glyph-name="colon" unicode=":" horiz-adv-x="248" 
d="M97 382q3 24 20 39.5t42 15.5q24 0 37 -15.5t10 -39.5t-20.5 -39.5t-41.5 -15.5t-37.5 15.5t-9.5 39.5zM50 51q3 24 20 39.5t42 15.5q24 0 37 -15.5t10 -39.5t-20.5 -39.5t-41.5 -15.5t-37.5 15.5t-9.5 39.5z" />
    <glyph glyph-name="semicolon" unicode=";" horiz-adv-x="256" 
d="M95 382q4 24 21 39.5t41 15.5t37.5 -15.5t9.5 -39.5q-3 -24 -20 -39.5t-42 -15.5q-24 0 -37 15.5t-10 39.5zM22 -128l-20 27q54 41 76 100q-39 10 -34 52q3 24 20 39.5t42 15.5q24 0 36.5 -17t9.5 -43q-6 -46 -41.5 -93.5t-88.5 -80.5z" />
    <glyph glyph-name="less" unicode="&#x3c;" horiz-adv-x="402" 
d="M180 266l-36 -24q3 -2 12.5 -10t15.5 -12l141 -132l-48 -47l-223 205l280 206l37 -54z" />
    <glyph glyph-name="equal" unicode="=" horiz-adv-x="465" 
d="M434 292h-391l9 59h390zM413 143h-391l9 59h390z" />
    <glyph glyph-name="greater" unicode="&#x3e;" horiz-adv-x="402" 
d="M353 247l-280 -206l-37 54l179 132l36 24q-3 2 -12.5 10t-15.5 12l-141 132l48 47z" />
    <glyph glyph-name="question" unicode="?" horiz-adv-x="513" 
d="M78 488l-20 67q147 65 255 65q90 0 138 -51t37 -134q-10 -71 -72 -117.5t-167 -63.5l-8 -72h-73l6 138q99 7 155.5 34.5t62.5 71.5q7 50 -21.5 80.5t-83.5 30.5q-13 0 -26.5 -1t-30 -4.5l-27.5 -6t-31.5 -8.5l-29 -8.5t-33 -10.5t-31.5 -10zM193 91q21 0 32 -13t9 -34
q-3 -21 -18 -34.5t-36 -13.5t-32.5 13.5t-8.5 34.5q3 20 18 33.5t36 13.5z" />
    <glyph glyph-name="at" unicode="@" horiz-adv-x="911" 
d="M647 -96l12 -34q-118 -67 -269 -67q-182 0 -278 110.5t-71 291.5q26 185 161 300t321 115q179 0 271.5 -101.5t69.5 -266.5q-11 -73 -36.5 -126.5t-58.5 -81.5t-65 -40.5t-64 -12.5q-81 0 -91 62q-53 -34 -91.5 -48t-87.5 -14q-166 0 -135 218q30 214 207 214
q78 0 144 -51l6 43h79l-43 -306q-6 -39 3.5 -55t33.5 -16q48 0 93.5 52t61.5 162q21 149 -60.5 238t-242.5 89q-168 0 -288 -103.5t-144 -270.5q-22 -163 63.5 -260.5t248.5 -97.5q131 0 250 57zM551 124l25 176q-58 56 -118 56q-126 0 -146 -147q-12 -85 12.5 -120
t80.5 -35q38 0 69.5 17t76.5 53z" />
    <glyph glyph-name="A" unicode="A" horiz-adv-x="660" 
d="M473 144h-315l-79 -144h-99l339 610h124l168 -610h-99zM450 229l-66 243q-6 23 -14 73h-1q-21 -55 -31 -73l-133 -243h245z" />
    <glyph glyph-name="B" unicode="B" horiz-adv-x="617" 
d="M137 610h215q110 0 163 -43.5t42 -124.5q-6 -42 -35 -75.5t-72 -46.5q59 -13 87.5 -52.5t20.5 -97.5q-12 -86 -80 -128t-200 -42h-227zM217 524l-24 -167h143q122 0 133 78q5 46 -25 67.5t-104 21.5h-123zM155 87h137q84 0 125 19t48 69q8 52 -25.5 74.5t-120.5 22.5
h-138z" />
    <glyph glyph-name="C" unicode="C" horiz-adv-x="621" 
d="M536 136l25 -71q-113 -74 -262 -74q-135 0 -199 82t-43 231q21 152 109.5 234t231.5 82q126 0 210 -53l-39 -70q-83 37 -180 37q-101 0 -161.5 -58.5t-76.5 -171.5q-15 -107 28.5 -167t136.5 -60q118 0 220 59z" />
    <glyph glyph-name="D" unicode="D" horiz-adv-x="654" 
d="M127 610h192q159 0 234 -78t55 -222q-21 -149 -117.5 -229.5t-253.5 -80.5h-196zM145 86h105q111 0 179.5 58.5t84.5 165.5q15 109 -35.5 161.5t-170.5 52.5h-101z" />
    <glyph glyph-name="E" unicode="E" horiz-adv-x="554" 
d="M207 524l-25 -175h279l-12 -86h-279l-25 -177h329l-12 -86h-421l86 610h411l-11 -86h-320z" />
    <glyph glyph-name="F" unicode="F" horiz-adv-x="522" 
d="M207 524l-27 -191h271l-12 -86h-271l-35 -247h-92l86 610h402l-11 -86h-311z" />
    <glyph glyph-name="G" unicode="G" horiz-adv-x="669" 
d="M623 317l-34 -243q-146 -83 -296 -83q-131 0 -194 82t-42 231q20 147 110 231.5t227 84.5q130 0 236 -45l-37 -76q-96 35 -203 35q-99 0 -161 -59.5t-78 -169.5q-16 -111 26 -169.5t132 -58.5q120 0 199 47l15 109h-205l12 84h293z" />
    <glyph glyph-name="H" unicode="H" horiz-adv-x="683" 
d="M652 610l-86 -610h-92l38 268h-331l-38 -268h-92l86 610h92l-36 -256h331l36 256h92z" />
    <glyph glyph-name="I" unicode="I" horiz-adv-x="260" 
d="M219 610l-86 -610h-92l86 610h92z" />
    <glyph glyph-name="J" unicode="J" horiz-adv-x="480" 
d="M449 610l-56 -399q-14 -106 -71 -163t-148 -57q-88 0 -182 52l37 75q81 -37 139 -37q116 0 133 130l56 399h92z" />
    <glyph glyph-name="K" unicode="K" horiz-adv-x="627" 
d="M636 605l-261 -248l194 -351l-1 -6h-89l-170 294l-155 -149l-21 -145h-92l86 610h92l-47 -336l358 336h107z" />
    <glyph glyph-name="L" unicode="L" horiz-adv-x="507" 
d="M446 88l-14 -88h-391l86 610h92l-74 -522h301z" />
    <glyph glyph-name="M" unicode="M" horiz-adv-x="835" 
d="M715 0h-94l44 409l5 33l-254 -442h-73l-129 442l-4 -31l-72 -411h-93l107 610h112l126 -439q2 -6 8 -37q7 17 19 37l250 439h111z" />
    <glyph glyph-name="N" unicode="N" horiz-adv-x="690" 
d="M568 0h-84l-283 453l-4 -37l-59 -416h-92l86 610h84l282 -455l3 21l61 434h92z" />
    <glyph glyph-name="O" unicode="O" horiz-adv-x="675" 
d="M392 620q138 0 202.5 -82t43.5 -234q-21 -149 -109 -231t-226 -82t-202.5 81.5t-43.5 231.5q21 152 108.5 234t226.5 82zM315 77q95 0 154 58t75 169q16 113 -27 171.5t-138 58.5q-94 0 -153 -59t-75 -171q-16 -111 27 -169t137 -58z" />
    <glyph glyph-name="P" unicode="P" horiz-adv-x="576" 
d="M127 610h211q119 0 176 -59.5t44 -162.5q-13 -105 -84.5 -161.5t-191.5 -56.5h-125l-24 -170h-92zM169 256h125q76 0 121 34.5t53 97.5q8 66 -27 101t-115 35h-119z" />
    <glyph glyph-name="Q" unicode="Q" horiz-adv-x="667" 
d="M378 620q137 0 200 -82t42 -234q-21 -150 -107 -231.5t-224 -81.5q-137 0 -200 81.5t-42 231.5q21 152 107 234t224 82zM302 77q94 0 151 57.5t73 169.5q16 113 -25 171.5t-135 58.5q-95 0 -152 -58.5t-73 -171.5q-16 -112 25 -169.5t136 -57.5zM519 -103l-13 -83
q-170 0 -295 85l28 63q67 -36 129 -50.5t151 -14.5z" />
    <glyph glyph-name="R" unicode="R" horiz-adv-x="609" 
d="M127 610h235q117 0 171 -55t42 -153q-10 -83 -55 -134.5t-116 -68.5l133 -191l-3 -8h-104l-135 192h-135l-27 -192h-92zM172 278h165q63 0 100.5 31.5t43.5 89.5q6 61 -23.5 93t-105.5 32h-145z" />
    <glyph glyph-name="S" unicode="S" horiz-adv-x="590" 
d="M567 571l-37 -73q-104 41 -208 41q-52 0 -87.5 -20.5t-40.5 -53.5q-5 -38 27 -60.5t138 -57.5q101 -33 141.5 -79.5t31.5 -114.5q-11 -73 -79 -117.5t-170 -44.5q-60 0 -137 25t-131 67l49 70q52 -37 116.5 -56.5t114.5 -19.5q59 0 97.5 22t43.5 59q5 38 -30 63.5
t-134 56.5q-107 34 -148 76.5t-31 116.5q9 66 77.5 107.5t165.5 41.5q109 0 231 -49z" />
    <glyph glyph-name="T" unicode="T" horiz-adv-x="547" 
d="M572 524h-212l-74 -524h-92l74 524h-213l12 86h517z" />
    <glyph glyph-name="U" unicode="U" horiz-adv-x="663" 
d="M645 610l-47 -332q-20 -138 -98 -212.5t-203 -74.5q-124 0 -181 74.5t-38 212.5l46 332h92l-46 -332q-13 -96 23 -147.5t117 -51.5q76 0 129.5 55t66.5 144l47 332h92z" />
    <glyph glyph-name="V" unicode="V" horiz-adv-x="638" 
d="M339 0h-116l-166 610h104l116 -443l15 -75q12 36 31 75l235 443h108z" />
    <glyph glyph-name="W" unicode="W" horiz-adv-x="892" 
d="M660 0h-135l-51 399q0 3 -1.5 30.5l-2.5 44.5q-10 -32 -25 -75l-164 -399h-134l-90 610h103l60 -443q3 -27 5 -84q6 26 28 84l185 443h102l61 -443q5 -63 7 -83q9 41 25 83l184 443h103z" />
    <glyph glyph-name="X" unicode="X" horiz-adv-x="605" 
d="M384 311l168 -311h-113l-122 232l-13 25q-3 -4 -10 -12.5t-10 -12.5l-188 -232h-112l255 311l-163 299h114l117 -216q9 -18 12 -26q1 2 20 26l178 216h114z" />
    <glyph glyph-name="Y" unicode="Y" horiz-adv-x="580" 
d="M332 201l-29 -201h-92l28 200l-172 410h98l117 -266q9 -21 16 -52q15 31 30 52l192 266h98z" />
    <glyph glyph-name="Z" unicode="Z" horiz-adv-x="588" 
d="M578 535l-428 -452l96 3h274l-12 -86h-497l10 71l436 456q-99 -3 -100 -3h-254l12 86h474z" />
    <glyph glyph-name="bracketleft" unicode="[" horiz-adv-x="362" 
d="M385 660l-11 -71h-156l-98 -694h157l-10 -71h-239l118 836h239z" />
    <glyph glyph-name="backslash" unicode="\" horiz-adv-x="420" 
d="M175 662l138 -868h-76l-140 868h78z" />
    <glyph glyph-name="bracketright" unicode="]" horiz-adv-x="362" 
d="M-19 -176l11 71h156l98 694h-157l10 71h239l-118 -836h-239z" />
    <glyph glyph-name="asciicircum" unicode="^" horiz-adv-x="477" 
d="M443 343h-72l-65 182q-15 41 -18 64q-11 -28 -36 -64l-116 -182h-72l204 310h59z" />
    <glyph glyph-name="underscore" unicode="_" horiz-adv-x="465" 
d="M358 -119h-351l10 67h351z" />
    <glyph glyph-name="grave" unicode="`" horiz-adv-x="488" 
d="M371 564l-30 -34q-91 51 -166 107l-3 18l70 49z" />
    <glyph glyph-name="a" unicode="a" horiz-adv-x="565" 
d="M535 472l-66 -472h-90l8 54q-36 -25 -52 -34.5t-46 -19t-66 -9.5q-86 0 -138 61.5t-35 185.5q33 243 221 243q82 0 167 -59l7 50h90zM397 127l31 222l-47.5 29t-41.5 18t-51 9q-126 0 -149 -167q-13 -88 19 -130t91 -42q28 0 54.5 9t40 17.5z" />
    <glyph glyph-name="b" unicode="b" horiz-adv-x="564" 
d="M209 653l-34 -238q98 65 185 65q186 0 153 -242q-18 -125 -83.5 -186t-149.5 -61q-51 0 -83.5 15.5t-71.5 48.5l-8 -55h-90l92 653h90zM163 329l-27 -191q36 -35 65.5 -53.5t62.5 -18.5q59 0 103 42t57 130q23 167 -103 167q-58 0 -158 -76z" />
    <glyph glyph-name="c" unicode="c" horiz-adv-x="495" 
d="M412 119l24 -60q-57 -39 -103 -53.5t-110 -14.5q-98 0 -149 66.5t-36 175.5q16 112 89.5 180t178.5 68q94 0 165 -46l-39 -61q-60 31 -136 31q-65 0 -112 -47.5t-58 -124.5q-10 -75 23 -120t97 -45q81 0 166 51z" />
    <glyph glyph-name="d" unicode="d" horiz-adv-x="565" 
d="M544 653l-92 -653h-90l8 54q-36 -25 -52 -34.5t-46 -19t-66 -9.5q-86 0 -138 61.5t-35 185.5q17 125 79 184t152 59q80 0 157 -62l33 234h90zM381 138l30 212q-84 55 -140 55q-126 0 -149 -167q-13 -88 19 -127.5t91 -39.5q27 0 55.5 11t45 22z" />
    <glyph glyph-name="e" unicode="e" horiz-adv-x="524" 
d="M420 117l21 -54q-55 -40 -100.5 -56t-107.5 -16q-104 0 -157.5 69t-37.5 182q16 115 83 177t174 62q99 0 145.5 -59.5t33.5 -169.5q-4 -26 -8 -41h-347q-5 -76 30 -112t97 -36q92 0 174 54zM130 281h268q4 62 -25 95.5t-87 33.5q-119 0 -156 -129z" />
    <glyph glyph-name="f" unicode="f" horiz-adv-x="350" 
d="M397 663l-16 -68q-32 3 -70 3q-46 0 -67.5 -21.5t-27.5 -67.5l-5 -37h144l-10 -76h-145l-56 -396h-90l56 396h-66l10 76h67l5 37q11 84 54 123.5t126 39.5q55 0 91 -9z" />
    <glyph glyph-name="g" unicode="g" horiz-adv-x="550" 
d="M528 472l-56 -400q-33 -232 -248 -232q-120 0 -202 50l26 72q89 -42 176 -42q68 0 107 35t51 117l2 13q-47 -34 -85.5 -49t-91.5 -15q-87 0 -133.5 55t-30.5 165q33 240 221 240q80 0 167 -62l7 53h90zM394 155l27 194q-4 2 -17 10.5t-17.5 11l-16 9t-17.5 8.5t-16.5 6.5
t-18 6t-17.5 3t-20 1.5q-126 0 -149 -164q-11 -78 22 -113.5t92 -35.5q14 0 28.5 3t24.5 6.5t25.5 11.5t22.5 12t24 15z" />
    <glyph glyph-name="h" unicode="h" horiz-adv-x="556" 
d="M214 653l-33 -235q50 34 87.5 48t84.5 14q73 0 113 -49.5t28 -135.5l-42 -295h-90l39 273q10 67 -8 95t-69 28q-70 0 -154 -59l-48 -337h-90l92 653h90z" />
    <glyph glyph-name="i" unicode="i" horiz-adv-x="235" 
d="M116 609q4 24 21 37t40 13t37 -13t10 -37q-4 -23 -21 -36.5t-40 -13.5t-37 13.5t-10 36.5zM196 472l-66 -472h-90l66 472h90z" />
    <glyph glyph-name="j" unicode="j" horiz-adv-x="236" 
d="M171 659q23 0 37 -13t10 -37q-3 -23 -20.5 -36.5t-40.5 -13.5t-36.5 13.5t-10.5 36.5q4 24 21 37t40 13zM190 472l-62 -443q-12 -87 -47 -133.5t-109 -64.5l-10 71q38 17 53 42.5t23 84.5l62 443h90z" />
    <glyph glyph-name="k" unicode="k" horiz-adv-x="524" 
d="M515 467l-213 -189l178 -275l-1 -3h-105l-143 215l-96 -84l-18 -131h-90l91 653h90l-55 -397l252 216h111z" />
    <glyph glyph-name="l" unicode="l" horiz-adv-x="229" 
d="M217 653l-91 -653h-90l91 653h90z" />
    <glyph glyph-name="m" unicode="m" horiz-adv-x="846" 
d="M188 472l-6 -40q74 48 151 48q91 0 126 -70q55 39 94.5 54.5t89.5 15.5q73 0 113 -49.5t28 -135.5l-42 -295h-90l39 273q10 67 -8 95t-69 28q-65 0 -138 -48q2 -29 -2 -53l-42 -295h-90l39 273q10 67 -8 95t-69 28q-62 0 -133 -44l-49 -352h-90l66 472h90z" />
    <glyph glyph-name="n" unicode="n" horiz-adv-x="556" 
d="M188 472l-8 -54q51 34 88.5 48t84.5 14q73 0 113 -49.5t28 -135.5l-42 -295h-90l42 283q10 67 -8 95t-69 28q-62 0 -158 -69l-47 -337h-90l66 472h90z" />
    <glyph glyph-name="o" unicode="o" 
d="M313 481q107 0 162.5 -68t39.5 -180q-14 -109 -89 -175.5t-182 -66.5q-106 0 -161.5 66.5t-40.5 175.5q16 112 90.5 180t180.5 68zM255 68q67 0 114.5 45.5t58.5 119.5q24 171 -125 171q-67 0 -115 -47t-58 -124q-24 -165 125 -165z" />
    <glyph glyph-name="p" unicode="p" horiz-adv-x="564" 
d="M183 472l-8 -54q105 62 185 62q186 0 153 -243q-18 -124 -83.5 -185t-149.5 -61q-51 0 -83.5 15t-72.5 48l-30 -216h-90l89 634h90zM165 342l-30 -211q4 -4 18.5 -15.5t20 -15.5t18.5 -12.5t22 -12t23 -6.5t28 -3q58 0 102 42t57 130q23 167 -103 167q-25 0 -56 -11.5
t-46.5 -20.5z" />
    <glyph glyph-name="q" unicode="q" horiz-adv-x="564" 
d="M528 472l-89 -634h-90l30 214q-49 -32 -85.5 -46.5t-87.5 -14.5q-84 0 -132.5 61t-30.5 186q33 243 221 243q86 0 167 -61l7 52h90zM391 136l29 206q-30 22 -44 31.5t-41.5 20.5t-53.5 11q-126 0 -149 -167q-13 -87 19 -126.5t91 -39.5q40 0 73 16t76 48z" />
    <glyph glyph-name="r" unicode="r" horiz-adv-x="379" 
d="M183 472l-11 -78q71 86 154 86q33 0 60 -3l-20 -89q-23 2 -56 2q-86 0 -153 -101l-40 -289h-90l66 472h90z" />
    <glyph glyph-name="s" unicode="s" horiz-adv-x="458" 
d="M428 439l-31 -66q-98 38 -161 38q-39 0 -63 -13.5t-27 -35.5q-5 -32 17.5 -48t89.5 -41q13 -4 20 -7q77 -29 106 -62t21 -93q-8 -55 -56.5 -87.5t-133.5 -32.5q-50 0 -109 18.5t-98 51.5l36 61q3 -2 18.5 -11.5t19 -11.5t17.5 -9.5t20.5 -10l20 -7.5t24 -6.5t25.5 -3
t30 -1.5q44 0 70.5 16.5t29.5 43.5q3 26 -19 44.5t-77 36.5q-96 31 -129 65.5t-25 94.5q16 119 174 119q98 0 190 -42z" />
    <glyph glyph-name="t" unicode="t" horiz-adv-x="362" 
d="M203 396l-33 -239q-9 -78 68 -78q21 0 81 5l10 -67q-60 -21 -123 -21q-68 0 -103.5 43.5t-24.5 114.5l34 242h-71l10 76h71l17 118h90l-16 -118h139l-10 -76h-139z" />
    <glyph glyph-name="u" unicode="u" horiz-adv-x="554" 
d="M516 472l-66 -472h-90l8 55q-51 -35 -89 -49t-85 -14q-73 0 -113 49.5t-28 135.5l42 295h90l-39 -273q-10 -67 8 -95t69 -28q69 0 156 60l47 336h90z" />
    <glyph glyph-name="v" unicode="v" horiz-adv-x="519" 
d="M273 0h-100l-125 472h92l81 -303q7 -24 15 -74q22 49 36 74l166 303h93z" />
    <glyph glyph-name="w" unicode="w" horiz-adv-x="730" 
d="M535 0h-110l-48 323l-140 -323h-111l-83 472h86l58 -315q5 -33 8 -64q5 14 26 64l133 315h86l44 -315q2 -11 4.5 -32.5t3.5 -31.5q7 19 25 64l147 315h87z" />
    <glyph glyph-name="x" unicode="x" horiz-adv-x="486" 
d="M343 0l-86 143q-14 24 -21 41q-6 -9 -33 -41l-126 -143h-99l206 238l-136 234h101l80 -140q17 -30 22 -41q6 9 33 41l119 140h101l-201 -234l139 -238h-99z" />
    <glyph glyph-name="y" unicode="y" horiz-adv-x="510" 
d="M438 472h99l-70 -131l-82.5 -153.5t-69.5 -116.5q-106 -161 -263 -220l-22 77q84 38 136 91l-127 453h95l81 -293q4 -14 10.5 -40t8.5 -35q24 38 51.5 86l43.5 77l55 103.5z" />
    <glyph glyph-name="z" unicode="z" horiz-adv-x="499" 
d="M428 0h-423l8 59l341 340q-36 -3 -87 -3h-199l10 76h408l-8 -57l-344 -343q12 0 48.5 1.5t51.5 1.5h205z" />
    <glyph glyph-name="braceleft" unicode="{" horiz-adv-x="385" 
d="M188 410l10 67q12 88 65 131t155 50l-10 -63q-64 -9 -91 -36.5t-35 -81.5l-9 -67q-12 -81 -42 -118t-89 -48q56 -10 76 -47t8 -118l-9 -67q-8 -54 11.5 -81.5t80.5 -37.5l-7 -63q-101 7 -141.5 50.5t-28.5 131.5l10 67q11 77 -9 104t-90 30l9 63q71 3 98 30t38 104z" />
    <glyph glyph-name="bar" unicode="|" horiz-adv-x="301" 
d="M122 -200h-75l119 853h76z" />
    <glyph glyph-name="braceright" unicode="}" horiz-adv-x="385" 
d="M256 476l-10 -67q-11 -77 9 -104t90 -30l-9 -63q-71 -3 -98 -30t-38 -104l-10 -67q-12 -88 -65 -131t-155 -50l10 63q64 9 91 36.5t35 81.5l9 67q12 81 42 118t89 48q-56 10 -76 47t-8 118l9 67q8 54 -11.5 81.5t-80.5 37.5l7 63q101 -7 141.5 -50.5t28.5 -131.5z" />
    <glyph glyph-name="asciitilde" unicode="~" horiz-adv-x="446" 
d="M383 326l35 -25q-42 -63 -83 -79.5t-84 4.5l-77 38q-26 14 -49.5 5t-51.5 -46l-34 25q41 61 81 77t85 -6l77 -37q26 -14 49.5 -4.5t51.5 48.5z" />
    <glyph glyph-name="exclamdown" unicode="&#xa1;" horiz-adv-x="220" 
d="M129 387q-21 0 -32 13.5t-8 33.5q2 20 17 34t36 14t32.5 -13.5t8.5 -34.5t-18 -34t-36 -13zM79 279h71l-45 -411h-97z" />
    <glyph glyph-name="cent" unicode="&#xa2;" horiz-adv-x="514" 
d="M505 494l-36 -58q-59 38 -142 38q-68 0 -120 -50.5t-67 -156.5q-15 -103 22.5 -152.5t103.5 -49.5q98 0 173 57l25 -54q-80 -68 -182 -76l-8 -56h-62l8 56q-88 8 -137.5 75t-31.5 200q18 129 87 199t160 80l9 64h61l-9 -63q84 -8 146 -53z" />
    <glyph glyph-name="sterling" unicode="&#xa3;" horiz-adv-x="552" 
d="M559 498l-37 -59q-61 40 -135 40q-63 0 -103.5 -42.5t-62.5 -144.5l-5 -23h197l-9 -62h-202l-29 -132h300l-11 -75h-468l10 66l80 7l30 134h-88l9 62h93l5 23q30 136 92.5 197.5t160.5 61.5q104 0 173 -53z" />
    <glyph glyph-name="yen" unicode="&#xa5;" horiz-adv-x="531" 
d="M343 246h130l-7 -50h-159l-1 -1l-7 -51h159l-7 -50h-160l-13 -94h-91l13 94h-146l7 50h146l7 51v1h-145l7 50h115l-133 299h95l105 -225q9 -28 13 -44l27 44l167 225h95z" />
    <glyph glyph-name="brokenbar" unicode="&#xa6;" horiz-adv-x="301" 
d="M195 314h-76l47 339h76zM122 -200h-75l47 339h76z" />
    <glyph glyph-name="section" unicode="&#xa7;" horiz-adv-x="590" 
d="M520 577l-32 -64q-79 42 -160 42q-85 0 -95 -62q-4 -29 20.5 -45t103.5 -42q101 -32 139.5 -65t31.5 -86q-5 -34 -26.5 -58t-64.5 -49q29 -31 22 -83q-8 -60 -57 -96.5t-127 -36.5q-56 0 -115.5 21t-97.5 56l36 62q37 -33 87.5 -51.5t94.5 -18.5q41 0 65.5 16.5
t29.5 46.5q4 29 -21 44.5t-103 40.5q-101 33 -139.5 65.5t-31.5 85.5q5 34 26.5 58t64.5 50q-30 31 -22 82q8 60 56.5 95t124.5 35q104 0 190 -43zM446 244q5 38 -53 65q-26 12 -107 39q-47 16 -75 31q-44 -39 -49 -67q-4 -33 31.5 -53.5t128.5 -50.5q47 -16 75 -31
q43 37 49 67z" />
    <glyph glyph-name="dieresis" unicode="&#xa8;" horiz-adv-x="488" 
d="M199 661q22 0 34.5 -12.5t9.5 -35.5q-4 -22 -20 -34.5t-38 -12.5q-20 0 -33 13t-10 34q4 22 20 35t37 13zM388 661q21 0 33.5 -13t9.5 -35q-4 -22 -20.5 -34.5t-36.5 -12.5q-22 0 -34 12.5t-8 34.5q3 23 18.5 35.5t37.5 12.5z" />
    <glyph glyph-name="copyright" unicode="&#xa9;" horiz-adv-x="740" 
d="M379 -9q-131 0 -222.5 91.5t-91.5 222.5t91.5 223t222.5 92q130 0 221.5 -92t91.5 -223t-91 -222.5t-222 -91.5zM379 20q118 0 202 83.5t84 201.5t-84 202t-202 84t-201.5 -84t-83.5 -202q0 -119 83 -202t202 -83zM499 222l20 -40q-71 -60 -159 -60q-75 0 -117 49
t-30 130q12 85 65 135t131 50q76 0 133 -43l-30 -43q-48 31 -104 31q-52 0 -87 -34.5t-43 -95.5q-9 -58 18.5 -91.5t78.5 -33.5q65 0 124 46z" />
    <glyph glyph-name="ordfeminine" unicode="&#xaa;" horiz-adv-x="384" 
d="M128 546l-4 51q81 23 140 23q71 0 95 -31.5t14 -109.5l-29 -202h-67l5 37q-72 -44 -124 -44q-114 0 -99 106q15 104 156 104q56 0 91 -1q7 49 -6 66t-55 17q-48 0 -117 -16zM300 435h-84q-86 0 -93 -52q-8 -61 61 -61q7 0 13 0.5t13 2.5t11.5 3t12.5 5t11 5t12 6.5
t10.5 6.5l11.5 7.5t11 6.5z" />
    <glyph glyph-name="guillemotleft" unicode="&#xab;" horiz-adv-x="543" 
d="M321 404l-139 -126l-42 -33q21 -17 33 -32l103 -126l-56 -46l-176 205l233 206zM504 404l-139 -126q-19 -16 -42 -33q21 -17 33 -32l103 -126l-56 -46l-176 205l233 206z" />
    <glyph glyph-name="registered" unicode="&#xae;" horiz-adv-x="740" 
d="M370 -9q-131 0 -222.5 91.5t-91.5 222.5t91.5 223t222.5 92q130 0 221.5 -92t91.5 -223t-91 -222.5t-222 -91.5zM370 20q118 0 202 83.5t84 201.5t-84 202t-202 84t-201.5 -84t-83.5 -202q0 -119 83.5 -202t201.5 -83zM266 481h136q73 0 105.5 -29.5t24.5 -86.5
q-12 -82 -90 -96q42 -22 71 -139h-70q-16 60 -31 89t-35 29h-85l-16 -118h-59zM303 297h89q69 0 77 67q5 32 -14.5 49.5t-59.5 17.5h-73z" />
    <glyph glyph-name="macron" unicode="&#xaf;" horiz-adv-x="488" 
d="M415 644l-9 -74h-250l9 74h250z" />
    <glyph glyph-name="degree" unicode="&#xb0;" horiz-adv-x="342" 
d="M223 620q56 0 84.5 -34t20.5 -90q-8 -53 -46 -85.5t-93 -32.5t-84 32.5t-21 85.5q7 56 45 90t94 34zM196 430q32 0 53 18t26 48q5 33 -11 53t-48 20q-31 0 -52.5 -20t-26.5 -53q-4 -30 12 -48t47 -18z" />
    <glyph glyph-name="plusminus" unicode="&#xb1;" horiz-adv-x="475" 
d="M453 351l-8 -59h-171l-20 -137h-59l19 137h-170l9 60h170l19 136h60l-20 -137h171zM19 111h397l-9 -59h-397z" />
    <glyph glyph-name="twosuperior" unicode="&#xb2;" horiz-adv-x="344" 
d="M335 335h-282l7 45l69 49.5t68.5 49.5t48 40t40.5 43.5t15 37.5q9 68 -61 68q-55 0 -129 -32l-13 44q89 40 159 40q58 0 86.5 -32t20.5 -88q-4 -27 -19 -51.5t-48.5 -52t-58 -44.5l-76.5 -51l-23 -15q38 2 52 2h151z" />
    <glyph glyph-name="threesuperior" unicode="&#xb3;" horiz-adv-x="344" 
d="M105 643l-9 42q81 36 154 36q58 0 88 -28t23 -77q-10 -63 -77 -84q33 -12 50 -36t13 -54q-7 -53 -47 -81.5t-106 -28.5q-86 0 -151 39l24 42q61 -32 132 -32q81 0 89 62q9 64 -86 64h-61l8 51h61q85 0 92 51q4 30 -12.5 46t-52.5 16q-62 0 -132 -28z" />
    <glyph glyph-name="acute" unicode="&#xb4;" horiz-adv-x="488" 
d="M341 704l70 -49l-3 -18q-75 -56 -166 -107l-30 34z" />
    <glyph glyph-name="paragraph" unicode="&#xb6;" horiz-adv-x="549" 
d="M543 540l-105 -8l-75 -532h-85l29 206h-19q-133 0 -184 46t-36 154q16 111 80 157.5t197 46.5h208z" />
    <glyph glyph-name="periodcentered" unicode="&#xb7;" horiz-adv-x="273" 
d="M90 280q3 24 20 39.5t42 15.5q24 0 37 -15.5t10 -39.5t-20.5 -39.5t-41.5 -15.5t-37.5 15.5t-9.5 39.5z" />
    <glyph glyph-name="cedilla" unicode="&#xb8;" horiz-adv-x="488" 
d="M211 15l-9 -51q54 -2 75 -19.5t16 -59.5q-4 -39 -31.5 -60t-73.5 -21q-62 0 -100 13l14 53q42 -8 64 -8q21 0 30.5 1t19 7t11.5 19q3 16 -5.5 21t-30.5 6h-62l29 99h53z" />
    <glyph glyph-name="onesuperior" unicode="&#xb9;" horiz-adv-x="320" 
d="M311 384l-8 -53h-254l8 53h101l36 262q-40 -12 -105 -27l-7 34q78 29 134 57h49l-46 -326h92z" />
    <glyph glyph-name="ordmasculine" unicode="&#xba;" horiz-adv-x="432" 
d="M273 620q81 0 118.5 -46.5t25.5 -131.5q-11 -82 -61.5 -127t-131.5 -45q-80 0 -118 45t-27 127q12 85 63 131.5t131 46.5zM231 328q105 0 121 114q17 121 -87 121t-120 -121q-17 -114 86 -114z" />
    <glyph glyph-name="guillemotright" unicode="&#xbb;" horiz-adv-x="543" 
d="M303 246l-234 -205l-39 43l138 126q24 21 46 36q-20 17 -35 35l-104 126l52 45zM486 246l-234 -205l-39 43l138 126q24 21 46 36q-20 17 -35 35l-104 126l52 45z" />
    <glyph glyph-name="onequarter" unicode="&#xbc;" horiz-adv-x="878" 
d="M54 231l8 53h101l36 262q-40 -12 -105 -27l-7 34q78 29 134 57h49l-46 -326h92l-8 -53h-254zM693 610l-441 -610h-55l440 610h56zM809 129l-7 -49h-60l-11 -80h-60l11 80h-219l4 44l258 255h59l-35 -250h60zM689 129l26 182q-10 -13 -30 -31l-116 -111q-22 -22 -42 -40
h162z" />
    <glyph glyph-name="onehalf" unicode="&#xbd;" horiz-adv-x="887" 
d="M49 231l8 53h101l36 262q-40 -12 -105 -27l-7 34q78 29 134 57h49l-46 -326h92l-8 -53h-254zM688 610l-441 -610h-55l440 610h56zM583 301l-13 44q89 40 159 40q58 0 86.5 -32t20.5 -88q-4 -27 -19 -51.5t-48.5 -52t-58 -44.5l-76.5 -51l-23 -15q38 2 52 2h151l-7 -53
h-282l7 45l69 49.5t68.5 49.5t48 40t40.5 43.5t15 37.5q9 68 -61 68q-55 0 -129 -32z" />
    <glyph glyph-name="threequarters" unicode="&#xbe;" horiz-adv-x="866" 
d="M99 543l-9 42q81 36 154 36q58 0 88 -28t23 -77q-10 -63 -77 -84q33 -12 50 -36t13 -54q-7 -53 -47 -81.5t-106 -28.5q-86 0 -151 39l24 42q61 -32 132 -32q81 0 89 62q9 64 -86 64h-61l8 51h61q85 0 92 51q4 30 -12.5 46t-52.5 16q-62 0 -132 -28zM688 610l-441 -610
h-55l440 610h56zM801 129l-7 -49h-60l-11 -80h-60l11 80h-219l4 44l258 255h59l-35 -250h60zM681 129l26 182q-10 -13 -30 -31l-116 -111q-22 -22 -42 -40h162z" />
    <glyph glyph-name="questiondown" unicode="&#xbf;" horiz-adv-x="513" 
d="M302 387q-21 0 -32 13t-9 34q3 21 18 34.5t36 13.5t32.5 -13.5t8.5 -34.5q-3 -20 -18 -33.5t-36 -13.5zM417 -10l20 -67q-147 -65 -255 -65q-90 0 -138 51t-37 134q10 71 72 117.5t167 63.5l8 72h73l-6 -138q-99 -7 -155.5 -34.5t-62.5 -71.5q-7 -50 21.5 -80.5
t83.5 -30.5q13 0 26.5 1t30 4.5l27.5 6t31.5 8.5l29 8.5t33 10.5t31.5 10z" />
    <glyph glyph-name="Agrave" unicode="&#xc0;" horiz-adv-x="660" 
d="M456 684l-30 -34q-91 51 -166 107l-3 18l70 49zM473 144h-315l-79 -144h-99l339 610h124l168 -610h-99zM450 229l-66 243q-6 23 -14 73h-1q-21 -55 -31 -73l-133 -243h245z" />
    <glyph glyph-name="Aacute" unicode="&#xc1;" horiz-adv-x="660" 
d="M528 775l-3 -18q-75 -56 -166 -107l-30 34l129 140zM473 144h-315l-79 -144h-99l339 610h124l168 -610h-99zM450 229l-66 243q-6 23 -14 73h-1q-21 -55 -31 -73l-133 -243h245z" />
    <glyph glyph-name="Acircumflex" unicode="&#xc2;" horiz-adv-x="660" 
d="M257 652l-32 36l141 118h61l105 -118l-39 -36l-104 76zM473 144h-315l-79 -144h-99l339 610h124l168 -610h-99zM450 229l-66 243q-6 23 -14 73h-1q-21 -55 -31 -73l-133 -243h245z" />
    <glyph glyph-name="Atilde" unicode="&#xc3;" horiz-adv-x="660" 
d="M408 690l-56 31q-29 14 -47.5 6t-35.5 -40l-48 5q15 47 44.5 73t60.5 26t63 -14l56 -29q52 -27 84 38l50 -6q-16 -48 -46.5 -75t-62 -27.5t-62.5 12.5zM473 144h-315l-79 -144h-99l339 610h124l168 -610h-99zM450 229l-66 243q-6 23 -14 73h-1q-21 -55 -31 -73l-133 -243
h245z" />
    <glyph glyph-name="Adieresis" unicode="&#xc4;" horiz-adv-x="660" 
d="M287 687q-20 0 -33 13t-10 34q4 22 20 35t37 13q22 0 34.5 -12.5t9.5 -35.5q-4 -22 -20 -34.5t-38 -12.5zM476 687q-22 0 -34 12.5t-8 34.5q3 23 18.5 35.5t37.5 12.5q21 0 33.5 -13t9.5 -35q-4 -22 -20.5 -34.5t-36.5 -12.5zM473 144h-315l-79 -144h-99l339 610h124
l168 -610h-99zM450 229l-66 243q-6 23 -14 73h-1q-21 -55 -31 -73l-133 -243h245z" />
    <glyph glyph-name="Aring" unicode="&#xc5;" horiz-adv-x="660" 
d="M378 661q-43 0 -66 25.5t-18 66.5q7 44 37.5 70.5t73.5 26.5t66 -26.5t17 -70.5q-5 -41 -36 -66.5t-74 -25.5zM347 753q-6 -41 39 -41q44 0 51 41q6 47 -40 47q-20 0 -33.5 -12.5t-16.5 -34.5zM473 144h-315l-79 -144h-99l339 610h124l168 -610h-99zM450 229l-66 243
q-6 23 -14 73h-1q-21 -55 -31 -73l-133 -243h245z" />
    <glyph glyph-name="AE" unicode="&#xc6;" horiz-adv-x="963" 
d="M616 524l-25 -175h279l-12 -86h-279l-25 -177h329l-12 -86h-421l20 142h-257l-123 -142h-110l535 610h432l-11 -86h-320zM482 227l38 270l-234 -270h196z" />
    <glyph glyph-name="Ccedilla" unicode="&#xc7;" horiz-adv-x="621" 
d="M608 567l-39 -70q-83 37 -180 37q-101 0 -161.5 -58.5t-76.5 -171.5q-15 -107 28.5 -167t136.5 -60q118 0 220 59l25 -71q-113 -74 -262 -74h-17l-5 -27q54 -2 75 -19.5t16 -59.5q-4 -39 -31.5 -60t-73.5 -21q-62 0 -100 13l14 53q42 -8 64 -8q21 0 30.5 1t19 7t11.5 19
q3 16 -5.5 21t-30.5 6h-62l24 82q-100 20 -144.5 99t-26.5 207q21 152 109.5 234t231.5 82q126 0 210 -53z" />
    <glyph glyph-name="Egrave" unicode="&#xc8;" horiz-adv-x="554" 
d="M401 684l-30 -34q-91 51 -166 107l-3 18l70 49zM207 524l-25 -175h279l-12 -86h-279l-25 -177h329l-12 -86h-421l86 610h411l-11 -86h-320z" />
    <glyph glyph-name="Eacute" unicode="&#xc9;" horiz-adv-x="554" 
d="M473 775l-3 -18q-75 -56 -166 -107l-30 34l129 140zM207 524l-25 -175h279l-12 -86h-279l-25 -177h329l-12 -86h-421l86 610h411l-11 -86h-320z" />
    <glyph glyph-name="Ecircumflex" unicode="&#xca;" horiz-adv-x="554" 
d="M202 652l-32 36l141 118h61l105 -118l-39 -36l-104 76zM207 524l-25 -175h279l-12 -86h-279l-25 -177h329l-12 -86h-421l86 610h411l-11 -86h-320z" />
    <glyph glyph-name="Edieresis" unicode="&#xcb;" horiz-adv-x="554" 
d="M232 687q-20 0 -33 13t-10 34q4 22 20 35t37 13q22 0 34.5 -12.5t9.5 -35.5q-4 -22 -20 -34.5t-38 -12.5zM421 687q-22 0 -34 12.5t-8 34.5q3 23 18.5 35.5t37.5 12.5q21 0 33.5 -13t9.5 -35q-4 -22 -20.5 -34.5t-36.5 -12.5zM207 524l-25 -175h279l-12 -86h-279
l-25 -177h329l-12 -86h-421l86 610h411l-11 -86h-320z" />
    <glyph glyph-name="Igrave" unicode="&#xcc;" horiz-adv-x="260" 
d="M256 684l-30 -34q-91 51 -166 107l-3 18l70 49zM219 610l-86 -610h-92l86 610h92z" />
    <glyph glyph-name="Iacute" unicode="&#xcd;" horiz-adv-x="260" 
d="M258 824l70 -49l-3 -18q-75 -56 -166 -107l-30 34zM219 610l-86 -610h-92l86 610h92z" />
    <glyph glyph-name="Icircumflex" unicode="&#xce;" horiz-adv-x="260" 
d="M332 688l-39 -36l-104 76l-132 -76l-32 36l141 118h61zM127 610h92l-86 -610h-92z" />
    <glyph glyph-name="Idieresis" unicode="&#xcf;" horiz-adv-x="260" 
d="M101 782q22 0 34.5 -12.5t9.5 -35.5q-4 -22 -20 -34.5t-38 -12.5q-20 0 -33 13t-10 34q4 22 20 35t37 13zM290 782q21 0 33.5 -13t9.5 -35q-4 -22 -20.5 -34.5t-36.5 -12.5q-22 0 -34 12.5t-8 34.5q3 23 18.5 35.5t37.5 12.5zM219 610l-86 -610h-92l86 610h92z" />
    <glyph glyph-name="Eth" unicode="&#xd0;" horiz-adv-x="654" 
d="M127 610h192q159 0 234 -78t55 -222q-21 -149 -117.5 -229.5t-253.5 -80.5h-196l37 265h-71l10 73h72zM145 86h105q111 0 179.5 58.5t84.5 165.5q15 109 -35.5 161.5t-170.5 52.5h-101l-26 -186h120l-10 -73h-121z" />
    <glyph glyph-name="Ntilde" unicode="&#xd1;" horiz-adv-x="690" 
d="M544 786l50 -6q-16 -48 -46.5 -75t-62 -27.5t-62.5 12.5l-56 31q-29 14 -47.5 6t-35.5 -40l-48 5q15 47 44.5 73t60.5 26t63 -14l56 -29q52 -27 84 38zM568 0h-84l-283 453l-4 -37l-59 -416h-92l86 610h84l282 -455l3 21l61 434h92z" />
    <glyph glyph-name="Ograve" unicode="&#xd2;" horiz-adv-x="675" 
d="M463 684l-30 -34q-91 51 -166 107l-3 18l70 49zM392 620q138 0 202.5 -82t43.5 -234q-21 -149 -109 -231t-226 -82t-202.5 81.5t-43.5 231.5q21 152 108.5 234t226.5 82zM315 77q95 0 154 58t75 169q16 113 -27 171.5t-138 58.5q-94 0 -153 -59t-75 -171
q-16 -111 27 -169t137 -58z" />
    <glyph glyph-name="Oacute" unicode="&#xd3;" horiz-adv-x="675" 
d="M465 824l70 -49l-3 -18q-75 -56 -166 -107l-30 34zM392 620q138 0 202.5 -82t43.5 -234q-21 -149 -109 -231t-226 -82t-202.5 81.5t-43.5 231.5q21 152 108.5 234t226.5 82zM315 77q95 0 154 58t75 169q16 113 -27 171.5t-138 58.5q-94 0 -153 -59t-75 -171
q-16 -111 27 -169t137 -58z" />
    <glyph glyph-name="Ocircumflex" unicode="&#xd4;" horiz-adv-x="675" 
d="M264 652l-32 36l141 118h61l105 -118l-39 -36l-104 76zM392 620q138 0 202.5 -82t43.5 -234q-21 -149 -109 -231t-226 -82t-202.5 81.5t-43.5 231.5q21 152 108.5 234t226.5 82zM544 304q16 113 -27 171.5t-138 58.5q-94 0 -153 -59t-75 -171q-16 -111 27 -169t137 -58
q95 0 154 58t75 169z" />
    <glyph glyph-name="Otilde" unicode="&#xd5;" horiz-adv-x="675" 
d="M536 786l50 -6q-16 -48 -46.5 -75t-62 -27.5t-62.5 12.5l-56 31q-29 14 -47.5 6t-35.5 -40l-48 5q15 47 44.5 73t60.5 26t63 -14l56 -29q52 -27 84 38zM392 620q138 0 202.5 -82t43.5 -234q-21 -149 -109 -231t-226 -82t-202.5 81.5t-43.5 231.5q21 152 108.5 234
t226.5 82zM315 77q95 0 154 58t75 169q16 113 -27 171.5t-138 58.5q-94 0 -153 -59t-75 -171q-16 -111 27 -169t137 -58z" />
    <glyph glyph-name="Odieresis" unicode="&#xd6;" horiz-adv-x="675" 
d="M308 782q22 0 34.5 -12.5t9.5 -35.5q-4 -22 -20 -34.5t-38 -12.5q-20 0 -33 13t-10 34q4 22 20 35t37 13zM497 782q21 0 33.5 -13t9.5 -35q-4 -22 -20.5 -34.5t-36.5 -12.5q-22 0 -34 12.5t-8 34.5q3 23 18.5 35.5t37.5 12.5zM392 620q138 0 202.5 -82t43.5 -234
q-21 -149 -109 -231t-226 -82t-202.5 81.5t-43.5 231.5q21 152 108.5 234t226.5 82zM315 77q95 0 154 58t75 169q16 113 -27 171.5t-138 58.5q-94 0 -153 -59t-75 -171q-16 -111 27 -169t137 -58z" />
    <glyph glyph-name="multiply" unicode="&#xd7;" horiz-adv-x="470" 
d="M283 248l107 -124l-54 -47l-107 124l-140 -124l-42 47l142 124l-105 121l54 48l105 -122l139 122l39 -48z" />
    <glyph glyph-name="Oslash" unicode="&#xd8;" horiz-adv-x="675" 
d="M671 582l-61 -59q52 -82 33 -219q-21 -149 -109 -231t-226 -82q-120 0 -184 62l-62 -60l-32 36l63 61q-50 83 -31 214q21 152 108.5 234t226.5 82q117 0 182 -60l60 57zM168 162l340 329q-43 43 -124 43q-94 0 -153 -59t-75 -171q-12 -88 12 -142zM536 451l-341 -330
q42 -44 125 -44q95 0 154 58t75 169q12 92 -13 147z" />
    <glyph glyph-name="Ugrave" unicode="&#xd9;" horiz-adv-x="663" 
d="M457 684l-30 -34q-91 51 -166 107l-3 18l70 49zM645 610l-47 -332q-20 -138 -98 -212.5t-203 -74.5q-124 0 -181 74.5t-38 212.5l46 332h92l-46 -332q-13 -96 23 -147.5t117 -51.5q76 0 129.5 55t66.5 144l47 332h92z" />
    <glyph glyph-name="Uacute" unicode="&#xda;" horiz-adv-x="663" 
d="M459 824l70 -49l-3 -18q-75 -56 -166 -107l-30 34zM645 610l-47 -332q-20 -138 -98 -212.5t-203 -74.5q-124 0 -181 74.5t-38 212.5l46 332h92l-46 -332q-13 -96 23 -147.5t117 -51.5q76 0 129.5 55t66.5 144l47 332h92z" />
    <glyph glyph-name="Ucircumflex" unicode="&#xdb;" horiz-adv-x="663" 
d="M258 652l-32 36l141 118h61l105 -118l-39 -36l-104 76zM645 610l-47 -332q-20 -138 -98 -212.5t-203 -74.5q-124 0 -181 74.5t-38 212.5l46 332h92l-46 -332q-13 -96 23 -147.5t117 -51.5q76 0 129.5 55t66.5 144l47 332h92z" />
    <glyph glyph-name="Udieresis" unicode="&#xdc;" horiz-adv-x="663" 
d="M302 782q22 0 34.5 -12.5t9.5 -35.5q-4 -22 -20 -34.5t-38 -12.5q-20 0 -33 13t-10 34q4 22 20 35t37 13zM491 782q21 0 33.5 -13t9.5 -35q-4 -22 -20.5 -34.5t-36.5 -12.5q-22 0 -34 12.5t-8 34.5q3 23 18.5 35.5t37.5 12.5zM645 610l-47 -332q-20 -138 -98 -212.5
t-203 -74.5q-124 0 -181 74.5t-38 212.5l46 332h92l-46 -332q-13 -96 23 -147.5t117 -51.5q76 0 129.5 55t66.5 144l47 332h92z" />
    <glyph glyph-name="Yacute" unicode="&#xdd;" horiz-adv-x="580" 
d="M488 775l-3 -18q-75 -56 -166 -107l-30 34l129 140zM332 201l-29 -201h-92l28 200l-172 410h98l117 -266q9 -21 16 -52q15 31 30 52l192 266h98z" />
    <glyph glyph-name="Thorn" unicode="&#xde;" horiz-adv-x="576" 
d="M205 509h119q121 0 178 -55t42 -157q-15 -107 -82 -157.5t-193 -50.5h-123l-13 -89h-92l86 610h92zM156 164h123q157 0 176 133q9 68 -26 100.5t-117 32.5h-118z" />
    <glyph glyph-name="germandbls" unicode="&#xdf;" horiz-adv-x="590" 
d="M43 471h79q29 78 99.5 123.5t163.5 45.5q87 0 136 -45t39 -117q-7 -48 -42.5 -89.5t-80.5 -59.5q57 -15 88 -61.5t22 -107.5q-11 -76 -70 -122.5t-144 -46.5q-61 0 -118 15l17 66q55 -11 98 -11q54 0 90.5 30t43.5 78q7 52 -32 84t-111 32h-50l9 78h50q58 0 97.5 29
t45.5 76q7 45 -20.5 71.5t-77.5 26.5q-71 0 -119 -41t-58 -111l-58 -414h-90l56 399l-72 7z" />
    <glyph glyph-name="agrave" unicode="&#xe0;" horiz-adv-x="565" 
d="M424 564l-30 -34q-91 51 -166 107l-3 18l70 49zM535 472l-66 -472h-90l8 54q-36 -25 -52 -34.5t-46 -19t-66 -9.5q-86 0 -138 61.5t-35 185.5q33 243 221 243q82 0 167 -59l7 50h90zM397 127l31 222l-47.5 29t-41.5 18t-51 9q-126 0 -149 -167q-13 -88 19 -130t91 -42
q28 0 54.5 9t40 17.5z" />
    <glyph glyph-name="aacute" unicode="&#xe1;" horiz-adv-x="565" 
d="M464 655l-3 -18q-75 -56 -166 -107l-30 34l129 140zM535 472l-66 -472h-90l8 54q-36 -25 -52 -34.5t-46 -19t-66 -9.5q-86 0 -138 61.5t-35 185.5q33 243 221 243q82 0 167 -59l7 50h90zM397 127l31 222l-47.5 29t-41.5 18t-51 9q-126 0 -149 -167q-13 -88 19 -130
t91 -42q28 0 54.5 9t40 17.5z" />
    <glyph glyph-name="acircumflex" unicode="&#xe2;" horiz-adv-x="565" 
d="M450 532l-105 77l-131 -77l-32 36l141 118h61l105 -118zM535 472l-66 -472h-90l8 54q-36 -25 -52 -34.5t-46 -19t-66 -9.5q-86 0 -138 61.5t-35 185.5q33 243 221 243q82 0 167 -59l7 50h90zM397 127l31 222l-47.5 29t-41.5 18t-51 9q-126 0 -149 -167q-13 -88 19 -130
t91 -42q28 0 54.5 9t40 17.5z" />
    <glyph glyph-name="atilde" unicode="&#xe3;" horiz-adv-x="565" 
d="M353 580l-56 31q-29 14 -47.5 6t-35.5 -40l-48 5q15 47 44.5 73t60.5 26t63 -14l56 -29q52 -27 84 38l50 -6q-16 -48 -46.5 -75t-62 -27.5t-62.5 12.5zM535 472l-66 -472h-90l8 54q-36 -25 -52 -34.5t-46 -19t-66 -9.5q-86 0 -138 61.5t-35 185.5q33 243 221 243
q82 0 167 -59l7 50h90zM397 127l31 222l-47.5 29t-41.5 18t-51 9q-126 0 -149 -167q-13 -88 19 -130t91 -42q28 0 54.5 9t40 17.5z" />
    <glyph glyph-name="adieresis" unicode="&#xe4;" horiz-adv-x="565" 
d="M238 566q-20 0 -33 13t-10 34q4 22 20 35t37 13q22 0 34.5 -12.5t9.5 -35.5q-4 -22 -20 -34.5t-38 -12.5zM427 566q-22 0 -34 12.5t-8 34.5q3 23 18.5 35.5t37.5 12.5q21 0 33.5 -13t9.5 -35q-4 -22 -20.5 -34.5t-36.5 -12.5zM535 472l-66 -472h-90l8 54
q-36 -25 -52 -34.5t-46 -19t-66 -9.5q-86 0 -138 61.5t-35 185.5q33 243 221 243q82 0 167 -59l7 50h90zM397 127l31 222l-47.5 29t-41.5 18t-51 9q-126 0 -149 -167q-13 -88 19 -130t91 -42q28 0 54.5 9t40 17.5z" />
    <glyph glyph-name="aring" unicode="&#xe5;" horiz-adv-x="565" 
d="M327 529q-43 0 -66 25.5t-18 66.5q7 44 37.5 70.5t73.5 26.5t66 -26.5t17 -70.5q-5 -41 -36 -66.5t-74 -25.5zM296 621q-6 -41 39 -41q44 0 51 41q6 47 -40 47q-20 0 -33.5 -12.5t-16.5 -34.5zM535 472l-66 -472h-90l8 54q-36 -25 -52 -34.5t-46 -19t-66 -9.5
q-86 0 -138 61.5t-35 185.5q33 243 221 243q82 0 167 -59l7 50h90zM397 127l31 222l-47.5 29t-41.5 18t-51 9q-126 0 -149 -167q-13 -88 19 -130t91 -42q28 0 54.5 9t40 17.5z" />
    <glyph glyph-name="ae" unicode="&#xe6;" horiz-adv-x="854" 
d="M126 384l-5 65q120 32 196 32q101 0 127 -68q70 68 181 68q99 0 145.5 -59.5t33.5 -169.5q-4 -26 -8 -41h-347q-5 -76 30 -112t97 -36q92 0 174 54l21 -54q-55 -40 -100.5 -56t-107.5 -16q-114 0 -167 83q-103 -83 -208 -83q-97 0 -133.5 34t-25.5 114q10 66 70 104.5
t158 38.5q24 0 56.5 -0.5t55.5 -0.5q11 71 -4.5 98.5t-73.5 27.5q-69 0 -165 -23zM460 281h268q4 62 -25 95.5t-87 33.5q-119 0 -156 -129zM365 211h-7q-24 0 -57.5 0.5t-53.5 0.5q-56 0 -92.5 -18.5t-40.5 -49.5q-7 -44 16.5 -63t86.5 -19q64 0 156 67q-10 33 -8 82z" />
    <glyph glyph-name="ccedilla" unicode="&#xe7;" horiz-adv-x="495" 
d="M412 119l24 -60q-57 -39 -103 -53.5t-110 -14.5h-2l-5 -27q54 -2 75 -19.5t16 -59.5q-4 -39 -31.5 -60t-73.5 -21q-62 0 -100 13l14 53q42 -8 64 -8q21 0 30.5 1t19 7t11.5 19q3 16 -5.5 21t-30.5 6h-62l24 82q-72 18 -107 80.5t-22 154.5q16 112 89.5 180t178.5 68
q94 0 165 -46l-39 -61q-60 31 -136 31q-65 0 -112 -47.5t-58 -124.5q-10 -75 23 -120t97 -45q81 0 166 51z" />
    <glyph glyph-name="egrave" unicode="&#xe8;" horiz-adv-x="524" 
d="M388 565l-30 -34q-91 51 -166 107l-3 18l70 49zM420 117l21 -54q-55 -40 -100.5 -56t-107.5 -16q-104 0 -157.5 69t-37.5 182q16 115 83 177t174 62q99 0 145.5 -59.5t33.5 -169.5q-4 -26 -8 -41h-347q-5 -76 30 -112t97 -36q92 0 174 54zM130 281h268q4 62 -25 95.5
t-87 33.5q-119 0 -156 -129z" />
    <glyph glyph-name="eacute" unicode="&#xe9;" horiz-adv-x="524" 
d="M428 656l-3 -18q-75 -56 -166 -107l-30 34l129 140zM420 117l21 -54q-55 -40 -100.5 -56t-107.5 -16q-104 0 -157.5 69t-37.5 182q16 115 83 177t174 62q99 0 145.5 -59.5t33.5 -169.5q-4 -26 -8 -41h-347q-5 -76 30 -112t97 -36q92 0 174 54zM130 281h268q4 62 -25 95.5
t-87 33.5q-119 0 -156 -129z" />
    <glyph glyph-name="ecircumflex" unicode="&#xea;" horiz-adv-x="524" 
d="M414 533l-105 77l-131 -77l-32 36l141 118h61l105 -118zM420 117l21 -54q-55 -40 -100.5 -56t-107.5 -16q-104 0 -157.5 69t-37.5 182q16 115 83 177t174 62q99 0 145.5 -59.5t33.5 -169.5q-4 -26 -8 -41h-347q-5 -76 30 -112t97 -36q92 0 174 54zM130 281h268
q4 62 -25 95.5t-87 33.5q-119 0 -156 -129z" />
    <glyph glyph-name="edieresis" unicode="&#xeb;" horiz-adv-x="524" 
d="M202 567q-20 0 -33 13t-10 34q4 22 20 35t37 13q22 0 34.5 -12.5t9.5 -35.5q-4 -22 -20 -34.5t-38 -12.5zM391 567q-22 0 -34 12.5t-8 34.5q3 23 18.5 35.5t37.5 12.5q21 0 33.5 -13t9.5 -35q-4 -22 -20.5 -34.5t-36.5 -12.5zM420 117l21 -54q-55 -40 -100.5 -56
t-107.5 -16q-104 0 -157.5 69t-37.5 182q16 115 83 177t174 62q99 0 145.5 -59.5t33.5 -169.5q-4 -26 -8 -41h-347q-5 -76 30 -112t97 -36q92 0 174 54zM130 281h268q4 62 -25 95.5t-87 33.5q-119 0 -156 -129z" />
    <glyph glyph-name="igrave" unicode="&#xec;" horiz-adv-x="235" 
d="M245 564l-30 -34q-91 51 -166 107l-3 18l70 49zM186 472l-66 -472h-90l66 472h90z" />
    <glyph glyph-name="iacute" unicode="&#xed;" horiz-adv-x="235" 
d="M215 704l70 -49l-3 -18q-75 -56 -166 -107l-30 34zM186 472l-66 -472h-90l66 472h90z" />
    <glyph glyph-name="icircumflex" unicode="&#xee;" horiz-adv-x="235" 
d="M310 568l-39 -36l-105 77l-131 -77l-32 36l141 118h61zM96 472h90l-66 -472h-90z" />
    <glyph glyph-name="idieresis" unicode="&#xef;" horiz-adv-x="235" 
d="M73 661q22 0 34.5 -12.5t9.5 -35.5q-4 -22 -20 -34.5t-38 -12.5q-20 0 -33 13t-10 34q4 22 20 35t37 13zM262 661q21 0 33.5 -13t9.5 -35q-4 -22 -20.5 -34.5t-36.5 -12.5q-22 0 -34 12.5t-8 34.5q3 23 18.5 35.5t37.5 12.5zM186 472l-66 -472h-90l66 472h90z" />
    <glyph glyph-name="eth" unicode="&#xf0;" 
d="M465 617l-80 -36q81 -80 108.5 -158.5t11.5 -189.5q-16 -115 -87 -178.5t-184 -63.5t-165.5 63.5t-36.5 178.5q33 236 332 236q-30 40 -66 72l-133 -60l-17 53l103 47q-34 26 -68 49l1 12l88 35q44 -34 68 -55l106 48zM244 64q148 0 172 169q14 97 -14 169
q-150 -1 -209.5 -40t-72.5 -133q-12 -82 20 -123.5t104 -41.5z" />
    <glyph glyph-name="ntilde" unicode="&#xf1;" horiz-adv-x="556" 
d="M345 580l-56 31q-29 14 -47.5 6t-35.5 -40l-48 5q15 47 44.5 73t60.5 26t63 -14l56 -29q52 -27 84 38l50 -6q-16 -48 -46.5 -75t-62 -27.5t-62.5 12.5zM188 472l-8 -54q51 34 88.5 48t84.5 14q73 0 113 -49.5t28 -135.5l-42 -295h-90l42 283q10 67 -8 95t-69 28
q-62 0 -158 -69l-47 -337h-90l66 472h90z" />
    <glyph glyph-name="ograve" unicode="&#xf2;" 
d="M416 565l-30 -34q-91 51 -166 107l-3 18l70 49zM313 481q107 0 162.5 -68t39.5 -180q-14 -109 -89 -175.5t-182 -66.5q-106 0 -161.5 66.5t-40.5 175.5q16 112 90.5 180t180.5 68zM255 68q67 0 114.5 45.5t58.5 119.5q24 171 -125 171q-67 0 -115 -47t-58 -124
q-24 -165 125 -165z" />
    <glyph glyph-name="oacute" unicode="&#xf3;" 
d="M386 705l70 -49l-3 -18q-75 -56 -166 -107l-30 34zM313 481q107 0 162.5 -68t39.5 -180q-14 -109 -89 -175.5t-182 -66.5q-106 0 -161.5 66.5t-40.5 175.5q16 112 90.5 180t180.5 68zM255 68q67 0 114.5 45.5t58.5 119.5q24 171 -125 171q-67 0 -115 -47t-58 -124
q-24 -165 125 -165z" />
    <glyph glyph-name="ocircumflex" unicode="&#xf4;" 
d="M442 533l-105 77l-131 -77l-32 36l141 118h61l105 -118zM313 481q107 0 162.5 -68t39.5 -180q-14 -109 -89 -175.5t-182 -66.5q-106 0 -161.5 66.5t-40.5 175.5q16 112 90.5 180t180.5 68zM428 233q24 171 -125 171q-67 0 -115 -47t-58 -124q-24 -165 125 -165
q67 0 114.5 45.5t58.5 119.5z" />
    <glyph glyph-name="otilde" unicode="&#xf5;" 
d="M466 677l50 -6q-16 -48 -46.5 -75t-62 -27.5t-62.5 12.5l-56 31q-29 14 -47.5 6t-35.5 -40l-48 5q15 47 44.5 73t60.5 26t63 -14l56 -29q52 -27 84 38zM313 481q107 0 162.5 -68t39.5 -180q-14 -109 -89 -175.5t-182 -66.5q-106 0 -161.5 66.5t-40.5 175.5
q16 112 90.5 180t180.5 68zM255 68q67 0 114.5 45.5t58.5 119.5q24 171 -125 171q-67 0 -115 -47t-58 -124q-24 -165 125 -165z" />
    <glyph glyph-name="odieresis" unicode="&#xf6;" 
d="M244 662q22 0 34.5 -12.5t9.5 -35.5q-4 -22 -20 -34.5t-38 -12.5q-20 0 -33 13t-10 34q4 22 20 35t37 13zM433 662q21 0 33.5 -13t9.5 -35q-4 -22 -20.5 -34.5t-36.5 -12.5q-22 0 -34 12.5t-8 34.5q3 23 18.5 35.5t37.5 12.5zM313 481q107 0 162.5 -68t39.5 -180
q-14 -109 -89 -175.5t-182 -66.5q-106 0 -161.5 66.5t-40.5 175.5q16 112 90.5 180t180.5 68zM255 68q67 0 114.5 45.5t58.5 119.5q24 171 -125 171q-67 0 -115 -47t-58 -124q-24 -165 125 -165z" />
    <glyph glyph-name="divide" unicode="&#xf7;" horiz-adv-x="471" 
d="M218 398q2 18 15.5 30t32.5 12t29 -12t7 -30q-2 -19 -15.5 -31t-32.5 -12t-29 12t-7 31zM432 205h-397l10 67h396zM174 86q2 19 15.5 31t32.5 12t29 -12t8 -31q-3 -18 -16.5 -30t-32.5 -12q-18 0 -28 12t-8 30z" />
    <glyph glyph-name="oslash" unicode="&#xf8;" 
d="M518 451l-41 -39q54 -68 38 -179q-14 -109 -89 -175.5t-182 -66.5q-94 0 -150 54l-43 -42l-24 27l44 43q-42 64 -29 160q16 112 90.5 180t180.5 68q85 0 137 -43l43 41zM135 134l256 247q-32 23 -88 23q-67 0 -115 -47t-58 -124q-9 -61 5 -99zM415 353l-261 -251
q31 -34 101 -34q67 0 114.5 45.5t58.5 119.5q11 79 -13 120z" />
    <glyph glyph-name="ugrave" unicode="&#xf9;" horiz-adv-x="554" 
d="M413 564l-30 -34q-91 51 -166 107l-3 18l70 49zM516 472l-66 -472h-90l8 55q-51 -35 -89 -49t-85 -14q-73 0 -113 49.5t-28 135.5l42 295h90l-39 -273q-10 -67 8 -95t69 -28q69 0 156 60l47 336h90z" />
    <glyph glyph-name="uacute" unicode="&#xfa;" horiz-adv-x="554" 
d="M453 655l-3 -18q-75 -56 -166 -107l-30 34l129 140zM516 472l-66 -472h-90l8 55q-51 -35 -89 -49t-85 -14q-73 0 -113 49.5t-28 135.5l42 295h90l-39 -273q-10 -67 8 -95t69 -28q69 0 156 60l47 336h90z" />
    <glyph glyph-name="ucircumflex" unicode="&#xfb;" horiz-adv-x="554" 
d="M439 532l-105 77l-131 -77l-32 36l141 118h61l105 -118zM516 472l-66 -472h-90l8 55q-51 -35 -89 -49t-85 -14q-73 0 -113 49.5t-28 135.5l42 295h90l-39 -273q-10 -67 8 -95t69 -28q69 0 156 60l47 336h90z" />
    <glyph glyph-name="udieresis" unicode="&#xfc;" horiz-adv-x="554" 
d="M227 566q-20 0 -33 13t-10 34q4 22 20 35t37 13q22 0 34.5 -12.5t9.5 -35.5q-4 -22 -20 -34.5t-38 -12.5zM416 566q-22 0 -34 12.5t-8 34.5q3 23 18.5 35.5t37.5 12.5q21 0 33.5 -13t9.5 -35q-4 -22 -20.5 -34.5t-36.5 -12.5zM516 472l-66 -472h-90l8 55q-51 -35 -89 -49
t-85 -14q-73 0 -113 49.5t-28 135.5l42 295h90l-39 -273q-10 -67 8 -95t69 -28q69 0 156 60l47 336h90z" />
    <glyph glyph-name="yacute" unicode="&#xfd;" horiz-adv-x="510" 
d="M435 655l-3 -18q-75 -56 -166 -107l-30 34l129 140zM438 472h99l-70 -131l-82.5 -153.5t-69.5 -116.5q-106 -161 -263 -220l-22 77q84 38 136 91l-127 453h95l81 -293q4 -14 10.5 -40t8.5 -35q24 38 51.5 86l43.5 77l55 103.5z" />
    <glyph glyph-name="thorn" unicode="&#xfe;" horiz-adv-x="562" 
d="M206 635l-30 -213q107 59 182 59q187 0 152 -243q-18 -125 -83 -186t-150 -61q-50 0 -81.5 14t-71.5 46l-30 -213h-90l112 797h90zM166 347l-32 -223q5 -3 16.5 -12t16.5 -12.5l15.5 -10.5t18 -10t18 -6.5t21 -5t22.5 -1.5q58 0 102 42t57 130q23 167 -103 167
q-24 0 -53.5 -10.5t-45.5 -18.5t-53 -29z" />
    <glyph glyph-name="ydieresis" unicode="&#xff;" horiz-adv-x="510" 
d="M209 566q-20 0 -33 13t-10 34q4 22 20 35t37 13q22 0 34.5 -12.5t9.5 -35.5q-4 -22 -20 -34.5t-38 -12.5zM398 566q-22 0 -34 12.5t-8 34.5q3 23 18.5 35.5t37.5 12.5q21 0 33.5 -13t9.5 -35q-4 -22 -20.5 -34.5t-36.5 -12.5zM438 472h99l-70 -131l-82.5 -153.5
t-69.5 -116.5q-106 -161 -263 -220l-22 77q84 38 136 91l-127 453h95l81 -293q4 -14 10.5 -40t8.5 -35q24 38 51.5 86l43.5 77l55 103.5z" />
    <glyph glyph-name="Amacron" unicode="&#x100;" horiz-adv-x="660" 
d="M509 700h-250l9 74h250zM473 144h-315l-79 -144h-99l339 610h124l168 -610h-99zM450 229l-66 243q-6 23 -14 73h-1q-21 -55 -31 -73l-133 -243h245z" />
    <glyph glyph-name="amacron" unicode="&#x101;" horiz-adv-x="565" 
d="M459 570h-250l9 74h250zM535 472l-66 -472h-90l8 54q-36 -25 -52 -34.5t-46 -19t-66 -9.5q-86 0 -138 61.5t-35 185.5q33 243 221 243q82 0 167 -59l7 50h90zM397 127l31 222l-47.5 29t-41.5 18t-51 9q-126 0 -149 -167q-13 -88 19 -130t91 -42q28 0 54.5 9t40 17.5z" />
    <glyph glyph-name="Abreve" unicode="&#x102;" horiz-adv-x="660" 
d="M460 783h66q-19 -121 -150 -121q-62 0 -91.5 34t-20.5 87h62q-3 -30 8 -45t47 -15q41 0 56 14.5t23 45.5zM473 144h-315l-79 -144h-99l339 610h124l168 -610h-99zM450 229l-66 243q-6 23 -14 73h-1q-21 -55 -31 -73l-133 -243h245z" />
    <glyph glyph-name="abreve" unicode="&#x103;" horiz-adv-x="565" 
d="M420 667h66q-19 -121 -150 -121q-62 0 -91.5 34t-20.5 87h62q-3 -30 8 -45t47 -15q41 0 56 14.5t23 45.5zM535 472l-66 -472h-90l8 54q-36 -25 -52 -34.5t-46 -19t-66 -9.5q-86 0 -138 61.5t-35 185.5q33 243 221 243q82 0 167 -59l7 50h90zM397 127l31 222l-47.5 29
t-41.5 18t-51 9q-126 0 -149 -167q-13 -88 19 -130t91 -42q28 0 54.5 9t40 17.5z" />
    <glyph glyph-name="Aogonek" unicode="&#x104;" horiz-adv-x="660" 
d="M611 0h-12q-75 0 -114 -21t-39 -50q0 -21 18 -33t46 -12q20 0 69 9l6 -58q-55 -19 -106 -19q-43 0 -73.5 25t-30.5 64q0 50 35.5 81t94.5 40l-32 118h-315l-79 -144h-99l339 610h124zM450 229l-66 243q-6 23 -14 73h-1q-21 -55 -31 -73l-133 -243h245z" />
    <glyph glyph-name="aogonek" unicode="&#x105;" horiz-adv-x="565" 
d="M469 0h-43q-35 -7 -59 -27t-28 -44q-3 -24 7 -33.5t41 -9.5q19 0 66 9l4 -56q-52 -18 -100 -18q-47 0 -71 23.5t-19 63.5q5 34 36 63.5t78 42.5l6 40q-36 -25 -52 -34.5t-46 -19t-66 -9.5q-86 0 -138 61.5t-35 185.5q33 243 221 243q82 0 167 -59l7 50h90zM397 127
l31 222l-47.5 29t-41.5 18t-51 9q-126 0 -149 -167q-13 -88 19 -130t91 -42q28 0 54.5 9t40 17.5z" />
    <glyph glyph-name="Cacute" unicode="&#x106;" horiz-adv-x="621" 
d="M463 828l70 -49l-3 -18q-75 -56 -166 -107l-30 34zM536 136l25 -71q-113 -74 -262 -74q-135 0 -199 82t-43 231q21 152 109.5 234t231.5 82q126 0 210 -53l-39 -70q-83 37 -180 37q-101 0 -161.5 -58.5t-76.5 -171.5q-15 -107 28.5 -167t136.5 -60q118 0 220 59z" />
    <glyph glyph-name="cacute" unicode="&#x107;" horiz-adv-x="495" 
d="M359 705l70 -49l-3 -18q-75 -56 -166 -107l-30 34zM412 119l24 -60q-57 -39 -103 -53.5t-110 -14.5q-98 0 -149 66.5t-36 175.5q16 112 89.5 180t178.5 68q94 0 165 -46l-39 -61q-60 31 -136 31q-65 0 -112 -47.5t-58 -124.5q-10 -75 23 -120t97 -45q81 0 166 51z" />
    <glyph glyph-name="Cdotaccent" unicode="&#x10a;" horiz-adv-x="621" 
d="M402 796q25 0 39.5 -15.5t10.5 -42.5q-4 -25 -23.5 -40.5t-43.5 -15.5q-25 0 -39.5 15t-10.5 41q4 27 22.5 42.5t44.5 15.5zM536 136l25 -71q-113 -74 -262 -74q-135 0 -199 82t-43 231q21 152 109.5 234t231.5 82q126 0 210 -53l-39 -70q-83 37 -180 37
q-101 0 -161.5 -58.5t-76.5 -171.5q-15 -107 28.5 -167t136.5 -60q118 0 220 59z" />
    <glyph glyph-name="cdotaccent" unicode="&#x10b;" horiz-adv-x="495" 
d="M313 673q25 0 39.5 -15.5t10.5 -42.5q-4 -25 -23.5 -40.5t-43.5 -15.5q-25 0 -39.5 15t-10.5 41q4 27 22.5 42.5t44.5 15.5zM412 119l24 -60q-57 -39 -103 -53.5t-110 -14.5q-98 0 -149 66.5t-36 175.5q16 112 89.5 180t178.5 68q94 0 165 -46l-39 -61q-60 31 -136 31
q-65 0 -112 -47.5t-58 -124.5q-10 -75 23 -120t97 -45q81 0 166 51z" />
    <glyph glyph-name="Ccaron" unicode="&#x10c;" horiz-adv-x="621" 
d="M353 665l-105 118l39 36l104 -76l117 79l37 -39l-131 -118h-61zM608 567l-39 -70q-83 37 -180 37q-101 0 -161.5 -58.5t-76.5 -171.5q-15 -107 28.5 -167t136.5 -60q118 0 220 59l25 -71q-113 -74 -262 -74q-135 0 -199 82t-43 231q21 152 109.5 234t231.5 82
q126 0 210 -53z" />
    <glyph glyph-name="ccaron" unicode="&#x10d;" horiz-adv-x="495" 
d="M264 534l-105 118l39 36l104 -76l117 79l37 -39l-131 -118h-61zM471 435l-39 -61q-60 31 -136 31q-65 0 -112 -47.5t-58 -124.5q-10 -75 23 -120t97 -45q81 0 166 51l24 -60q-57 -39 -103 -53.5t-110 -14.5q-98 0 -149 66.5t-36 175.5q16 112 89.5 180t178.5 68
q94 0 165 -46z" />
    <glyph glyph-name="Dcaron" unicode="&#x10e;" horiz-adv-x="654" 
d="M330 661l-105 118l39 36l104 -76l117 79l37 -39l-131 -118h-61zM127 610h192q159 0 234 -78t55 -222q-21 -149 -117.5 -229.5t-253.5 -80.5h-196zM145 86h105q111 0 179.5 58.5t84.5 165.5q15 109 -35.5 161.5t-170.5 52.5h-101z" />
    <glyph glyph-name="dcaron" unicode="&#x10f;" horiz-adv-x="607" 
d="M454 653h90l-92 -653h-90l8 54q-36 -25 -52 -34.5t-46 -19t-66 -9.5q-86 0 -138 61.5t-35 185.5q17 125 79 184t152 59q80 0 157 -62zM665 653l-2 -13q-18 -85 -52 -157h-53l30 170h77zM381 138l30 212q-84 55 -140 55q-126 0 -149 -167q-13 -88 19 -127.5t91 -39.5
q27 0 55.5 11t45 22z" />
    <glyph glyph-name="Dcroat" unicode="&#x110;" horiz-adv-x="654" 
d="M127 610h192q159 0 234 -78t55 -222q-21 -149 -117.5 -229.5t-253.5 -80.5h-196l37 265h-71l10 73h72zM145 86h105q111 0 179.5 58.5t84.5 165.5q15 109 -35.5 161.5t-170.5 52.5h-101l-26 -186h120l-10 -73h-121z" />
    <glyph glyph-name="dcroat" unicode="&#x111;" horiz-adv-x="614" 
d="M618 519h-93l-73 -519h-90l8 54q-36 -25 -52 -34.5t-46 -19t-66 -9.5q-86 0 -138 61.5t-35 185.5q17 125 79 184t152 59q80 0 157 -62l14 100h-88l9 67h89l9 67h90l-9 -67h92zM381 138l30 212q-84 55 -140 55q-126 0 -149 -167q-13 -88 19 -127.5t91 -39.5q27 0 55.5 11
t45 22z" />
    <glyph glyph-name="Emacron" unicode="&#x112;" horiz-adv-x="554" 
d="M454 700h-250l9 74h250zM207 524l-25 -175h279l-12 -86h-279l-25 -177h329l-12 -86h-421l86 610h411l-11 -86h-320z" />
    <glyph glyph-name="emacron" unicode="&#x113;" horiz-adv-x="524" 
d="M423 571h-250l9 74h250zM420 117l21 -54q-55 -40 -100.5 -56t-107.5 -16q-104 0 -157.5 69t-37.5 182q16 115 83 177t174 62q99 0 145.5 -59.5t33.5 -169.5q-4 -26 -8 -41h-347q-5 -76 30 -112t97 -36q92 0 174 54zM130 281h268q4 62 -25 95.5t-87 33.5q-119 0 -156 -129
z" />
    <glyph glyph-name="Edotaccent" unicode="&#x116;" horiz-adv-x="554" 
d="M325 678q-25 0 -39.5 15t-10.5 41q4 27 22.5 42.5t44.5 15.5q25 0 39.5 -15.5t10.5 -42.5q-4 -25 -23.5 -40.5t-43.5 -15.5zM207 524l-25 -175h279l-12 -86h-279l-25 -177h329l-12 -86h-421l86 610h411l-11 -86h-320z" />
    <glyph glyph-name="edotaccent" unicode="&#x117;" horiz-adv-x="524" 
d="M295 559q-25 0 -39.5 15t-10.5 41q4 27 22.5 42.5t44.5 15.5q25 0 39.5 -15.5t10.5 -42.5q-4 -25 -23.5 -40.5t-43.5 -15.5zM420 117l21 -54q-55 -40 -100.5 -56t-107.5 -16q-104 0 -157.5 69t-37.5 182q16 115 83 177t174 62q99 0 145.5 -59.5t33.5 -169.5
q-4 -26 -8 -41h-347q-5 -76 30 -112t97 -36q92 0 174 54zM130 281h268q4 62 -25 95.5t-87 33.5q-119 0 -156 -129z" />
    <glyph glyph-name="Eogonek" unicode="&#x118;" horiz-adv-x="554" 
d="M207 524l-25 -175h279l-12 -86h-279l-25 -177h329l-12 -86h-53q-35 -7 -59 -27t-28 -44q-3 -24 7 -33.5t41 -9.5q19 0 66 9l4 -56q-52 -18 -100 -18q-47 0 -71 23.5t-19 63.5q8 57 78 92h-287l86 610h411l-11 -86h-320z" />
    <glyph glyph-name="eogonek" unicode="&#x119;" horiz-adv-x="524" 
d="M329 -105l4 -56q-52 -18 -100 -18q-47 0 -71 23.5t-19 63.5q6 50 64 84q-92 9 -138 77t-31 173q16 115 83 177t174 62q99 0 145.5 -59.5t33.5 -169.5q-4 -26 -8 -41h-347q-5 -76 30 -112t97 -36q92 0 174 54l21 -54q-84 -61 -162 -70q-27 -10 -44 -27t-20 -37
q-3 -24 7 -33.5t41 -9.5q19 0 66 9zM130 281h268q4 62 -25 95.5t-87 33.5q-119 0 -156 -129z" />
    <glyph glyph-name="Ecaron" unicode="&#x11a;" horiz-adv-x="554" 
d="M293 661l-105 118l39 36l104 -76l117 79l37 -39l-131 -118h-61zM207 524l-25 -175h279l-12 -86h-279l-25 -177h329l-12 -86h-421l86 610h411l-11 -86h-320z" />
    <glyph glyph-name="ecaron" unicode="&#x11b;" horiz-adv-x="524" 
d="M263 534l-105 118l39 36l104 -76l117 79l37 -39l-131 -118h-61zM420 117l21 -54q-55 -40 -100.5 -56t-107.5 -16q-104 0 -157.5 69t-37.5 182q16 115 83 177t174 62q99 0 145.5 -59.5t33.5 -169.5q-4 -26 -8 -41h-347q-5 -76 30 -112t97 -36q92 0 174 54zM130 281h268
q4 62 -25 95.5t-87 33.5q-119 0 -156 -129z" />
    <glyph glyph-name="Gbreve" unicode="&#x11e;" horiz-adv-x="669" 
d="M463 783h66q-19 -121 -150 -121q-62 0 -91.5 34t-20.5 87h62q-3 -30 8 -45t47 -15q41 0 56 14.5t23 45.5zM623 317l-34 -243q-146 -83 -296 -83q-131 0 -194 82t-42 231q20 147 110 231.5t227 84.5q130 0 236 -45l-37 -76q-96 35 -203 35q-99 0 -161 -59.5t-78 -169.5
q-16 -111 26 -169.5t132 -58.5q120 0 199 47l15 109h-205l12 84h293z" />
    <glyph glyph-name="gbreve" unicode="&#x11f;" horiz-adv-x="550" 
d="M409 668h66q-19 -121 -150 -121q-62 0 -91.5 34t-20.5 87h62q-3 -30 8 -45t47 -15q41 0 56 14.5t23 45.5zM528 472l-56 -400q-33 -232 -248 -232q-120 0 -202 50l26 72q89 -42 176 -42q68 0 107 35t51 117l2 13q-47 -34 -85.5 -49t-91.5 -15q-87 0 -133.5 55t-30.5 165
q33 240 221 240q80 0 167 -62l7 53h90zM394 155l27 194q-4 2 -17 10.5t-17.5 11l-16 9t-17.5 8.5t-16.5 6.5t-18 6t-17.5 3t-20 1.5q-126 0 -149 -164q-11 -78 22 -113.5t92 -35.5q14 0 28.5 3t24.5 6.5t25.5 11.5t22.5 12t24 15z" />
    <glyph glyph-name="Gdotaccent" unicode="&#x120;" horiz-adv-x="669" 
d="M400 792q25 0 39.5 -15.5t10.5 -42.5q-4 -25 -23.5 -40.5t-43.5 -15.5q-25 0 -39.5 15t-10.5 41q4 27 22.5 42.5t44.5 15.5zM623 317l-34 -243q-146 -83 -296 -83q-131 0 -194 82t-42 231q20 147 110 231.5t227 84.5q130 0 236 -45l-37 -76q-96 35 -203 35
q-99 0 -161 -59.5t-78 -169.5q-16 -111 26 -169.5t132 -58.5q120 0 199 47l15 109h-205l12 84h293z" />
    <glyph glyph-name="gdotaccent" unicode="&#x121;" horiz-adv-x="550" 
d="M320 559q-25 0 -39.5 15t-10.5 41q4 27 22.5 42.5t44.5 15.5q25 0 39.5 -15.5t10.5 -42.5q-4 -25 -23.5 -40.5t-43.5 -15.5zM528 472l-56 -400q-33 -232 -248 -232q-120 0 -202 50l26 72q89 -42 176 -42q68 0 107 35t51 117l2 13q-47 -34 -85.5 -49t-91.5 -15
q-87 0 -133.5 55t-30.5 165q33 240 221 240q80 0 167 -62l7 53h90zM394 155l27 194q-4 2 -17 10.5t-17.5 11l-16 9t-17.5 8.5t-16.5 6.5t-18 6t-17.5 3t-20 1.5q-126 0 -149 -164q-11 -78 22 -113.5t92 -35.5q14 0 28.5 3t24.5 6.5t25.5 11.5t22.5 12t24 15z" />
    <glyph glyph-name="Gcommaaccent" unicode="&#x122;" horiz-adv-x="669" 
d="M330 317h293l-34 -243q-146 -83 -296 -83q-131 0 -194 82t-42 231q20 147 110 231.5t227 84.5q130 0 236 -45l-37 -76q-96 35 -203 35q-99 0 -161 -59.5t-78 -169.5q-16 -111 26 -169.5t132 -58.5q120 0 199 47l15 109h-205zM229 -225l-19 23q42 36 60 73q-35 8 -30 46
q2 22 17.5 36t38.5 14q22 0 33.5 -16t8.5 -39q-10 -69 -109 -137z" />
    <glyph glyph-name="gcommaaccent" unicode="&#x123;" horiz-adv-x="550" 
d="M374 708l11 -26q-40 -31 -53 -60q33 -9 28 -43q-3 -20 -17.5 -32.5t-34.5 -12.5t-30.5 14t-7.5 35q9 71 104 125zM528 472l-56 -400q-33 -232 -248 -232q-120 0 -202 50l26 72q89 -42 176 -42q68 0 107 35t51 117l2 13q-47 -34 -85.5 -49t-91.5 -15q-87 0 -133.5 55
t-30.5 165q33 240 221 240q80 0 167 -62l7 53h90zM394 155l27 194q-4 2 -17 10.5t-17.5 11l-16 9t-17.5 8.5t-16.5 6.5t-18 6t-17.5 3t-20 1.5q-126 0 -149 -164q-11 -78 22 -113.5t92 -35.5q14 0 28.5 3t24.5 6.5t25.5 11.5t22.5 12t24 15z" />
    <glyph glyph-name="Hbar" unicode="&#x126;" horiz-adv-x="678" 
d="M673 444h-49l-63 -444h-92l35 248h-332l-35 -248h-92l63 444h-49l10 73h49l13 93h92l-13 -93h332l13 93h92l-13 -93h48zM532 444h-332l-16 -110h332z" />
    <glyph glyph-name="hbar" unicode="&#x127;" horiz-adv-x="556" 
d="M197 532l-16 -114q50 34 87.5 48t84.5 14q73 0 113 -49.5t28 -135.5l-42 -295h-90l39 273q10 67 -8 95t-69 28q-70 0 -154 -59l-48 -337h-90l75 532h-53l7 46h52l11 75h90l-11 -75h128l-6 -46h-128z" />
    <glyph glyph-name="Imacron" unicode="&#x12a;" horiz-adv-x="260" 
d="M318 774l-9 -74h-250l9 74h250zM219 610l-86 -610h-92l86 610h92z" />
    <glyph glyph-name="imacron" unicode="&#x12b;" horiz-adv-x="235" 
d="M289 644l-9 -74h-250l9 74h250zM186 472l-66 -472h-90l66 472h90z" />
    <glyph glyph-name="Iogonek" unicode="&#x12e;" horiz-adv-x="260" 
d="M133 0h-16q-35 -7 -59 -27t-28 -44q-3 -24 7 -33.5t41 -9.5q19 0 66 9l4 -56q-52 -18 -100 -18q-47 0 -71 23.5t-19 63.5q8 59 83 95l86 607h92z" />
    <glyph glyph-name="iogonek" unicode="&#x12f;" horiz-adv-x="235" 
d="M169 672q25 0 39.5 -15.5t10.5 -42.5q-4 -25 -23.5 -40.5t-43.5 -15.5q-25 0 -39.5 15t-10.5 41q4 27 22.5 42.5t44.5 15.5zM120 0h-11q-35 -7 -59 -27t-28 -44q-3 -24 7 -33.5t41 -9.5q19 0 66 9l4 -56q-52 -18 -100 -18q-47 0 -71 23.5t-19 63.5q8 59 80 93l66 471h90z
" />
    <glyph glyph-name="Idotaccent" unicode="&#x130;" horiz-adv-x="260" 
d="M197 792q25 0 39.5 -15.5t10.5 -42.5q-4 -25 -23.5 -40.5t-43.5 -15.5q-25 0 -39.5 15t-10.5 41q4 27 22.5 42.5t44.5 15.5zM219 610l-86 -610h-92l86 610h92z" />
    <glyph glyph-name="dotlessi" unicode="&#x131;" horiz-adv-x="235" 
d="M186 472l-66 -472h-90l66 472h90z" />
    <glyph glyph-name="IJ" unicode="&#x132;" horiz-adv-x="730" 
d="M219 610l-86 -610h-92l86 610h92zM699 610l-56 -399q-14 -106 -71 -163t-148 -57q-88 0 -182 52l37 75q81 -37 139 -37q116 0 133 130l56 399h92z" />
    <glyph glyph-name="ij" unicode="&#x133;" horiz-adv-x="456" 
d="M116 609q4 24 21 37t40 13t37 -13t10 -37q-4 -23 -21 -36.5t-40 -13.5t-37 13.5t-10 36.5zM391 659q23 0 37 -13t10 -37q-3 -23 -20.5 -36.5t-40.5 -13.5t-36.5 13.5t-10.5 36.5q4 24 21 37t40 13zM196 472l-66 -472h-90l66 472h90zM410 472l-62 -443q-12 -87 -47 -133.5
t-109 -64.5l-10 71q38 17 53 42.5t23 84.5l62 443h90z" />
    <glyph glyph-name="Kcommaaccent" unicode="&#x136;" horiz-adv-x="627" 
d="M636 605l-261 -248l194 -351l-1 -6h-89l-170 294l-155 -149l-21 -145h-92l86 610h92l-47 -336l358 336h107zM207 -225l-19 23q42 36 60 73q-35 8 -30 46q2 22 17.5 36t38.5 14q22 0 33.5 -16t8.5 -39q-10 -69 -109 -137z" />
    <glyph glyph-name="kcommaaccent" unicode="&#x137;" horiz-adv-x="524" 
d="M515 467l-213 -189l178 -275l-1 -3h-105l-143 215l-96 -84l-18 -131h-90l91 653h90l-55 -397l252 216h111zM162 -225l-19 23q42 36 60 73q-35 8 -30 46q2 22 17.5 36t38.5 14q22 0 33.5 -16t8.5 -39q-10 -69 -109 -137z" />
    <glyph glyph-name="Lacute" unicode="&#x139;" horiz-adv-x="507" 
d="M334 775l-3 -18q-75 -56 -166 -107l-30 34l129 140zM446 88l-14 -88h-391l86 610h92l-74 -522h301z" />
    <glyph glyph-name="lacute" unicode="&#x13a;" horiz-adv-x="229" 
d="M271 886l70 -49l-3 -18q-75 -56 -166 -107l-30 34zM217 653l-91 -653h-90l91 653h90z" />
    <glyph glyph-name="Lcommaaccent" unicode="&#x13b;" horiz-adv-x="507" 
d="M446 88l-14 -88h-391l86 610h92l-74 -522h301zM160 -225l-19 23q42 36 60 73q-35 8 -30 46q2 22 17.5 36t38.5 14q22 0 33.5 -16t8.5 -39q-10 -69 -109 -137z" />
    <glyph glyph-name="lcommaaccent" unicode="&#x13c;" horiz-adv-x="229" 
d="M217 653l-91 -653h-90l91 653h90zM13 -225l-19 23q42 36 60 73q-35 8 -30 46q2 22 17.5 36t38.5 14q22 0 33.5 -16t8.5 -39q-10 -69 -109 -137z" />
    <glyph glyph-name="Lcaron" unicode="&#x13d;" horiz-adv-x="507" 
d="M446 88l-14 -88h-391l86 610h92l-74 -522h301zM377 610l-2 -13q-18 -85 -52 -157h-53l30 170h77z" />
    <glyph glyph-name="lcaron" unicode="&#x13e;" horiz-adv-x="278" 
d="M217 653l-91 -653h-90l91 653h90zM271 653h77l-2 -13q-18 -85 -52 -157h-53z" />
    <glyph glyph-name="Ldot" unicode="&#x13f;" horiz-adv-x="507" 
d="M446 88l-14 -88h-391l86 610h92l-74 -522h301zM336 258q-24 0 -37.5 15.5t-9.5 39.5q3 24 20 39.5t42 15.5q24 0 37 -15.5t10 -39.5t-20.5 -39.5t-41.5 -15.5z" />
    <glyph glyph-name="ldot" unicode="&#x140;" horiz-adv-x="347" 
d="M217 653l-91 -653h-90l91 653h90zM240 324q3 24 20 39.5t42 15.5q24 0 37 -15.5t10 -39.5t-20.5 -39.5t-41.5 -15.5t-37.5 15.5t-9.5 39.5z" />
    <glyph glyph-name="Lslash" unicode="&#x141;" horiz-adv-x="507" 
d="M446 88l-14 -88h-391l37 262l-66 -20l10 73l66 20l39 275h92l-35 -246l158 47l-11 -73l-157 -47l-29 -203h301z" />
    <glyph glyph-name="lslash" unicode="&#x142;" horiz-adv-x="229" 
d="M226 340l-56 -21l-44 -319h-90l39 283l-56 -22l10 73l57 21l41 298h90l-36 -261l56 21z" />
    <glyph glyph-name="Nacute" unicode="&#x143;" horiz-adv-x="690" 
d="M473 824l70 -49l-3 -18q-75 -56 -166 -107l-30 34zM568 0h-84l-283 453l-4 -37l-59 -416h-92l86 610h84l282 -455l3 21l61 434h92z" />
    <glyph glyph-name="nacute" unicode="&#x144;" horiz-adv-x="556" 
d="M456 655l-3 -18q-75 -56 -166 -107l-30 34l129 140zM188 472l-8 -54q51 34 88.5 48t84.5 14q73 0 113 -49.5t28 -135.5l-42 -295h-90l42 283q10 67 -8 95t-69 28q-62 0 -158 -69l-47 -337h-90l66 472h90z" />
    <glyph glyph-name="Ncommaaccent" unicode="&#x145;" horiz-adv-x="690" 
d="M654 610l-86 -610h-84l-283 453l-4 -37l-59 -416h-92l86 610h84l282 -455l3 21l61 434h92zM228 -225l-19 23q42 36 60 73q-35 8 -30 46q2 22 17.5 36t38.5 14q22 0 33.5 -16t8.5 -39q-10 -69 -109 -137z" />
    <glyph glyph-name="ncommaaccent" unicode="&#x146;" horiz-adv-x="556" 
d="M188 472l-8 -54q51 34 88.5 48t84.5 14q73 0 113 -49.5t28 -135.5l-42 -295h-90l42 283q10 67 -8 95t-69 28q-62 0 -158 -69l-47 -337h-90l66 472h90zM172 -225l-19 23q42 36 60 73q-35 8 -30 46q2 22 17.5 36t38.5 14q22 0 33.5 -16t8.5 -39q-10 -69 -109 -137z" />
    <glyph glyph-name="Ncaron" unicode="&#x147;" horiz-adv-x="690" 
d="M363 661l-105 118l39 36l104 -76l117 79l37 -39l-131 -118h-61zM654 610l-86 -610h-84l-283 453l-4 -37l-59 -416h-92l86 610h84l282 -455l3 21l61 434h92z" />
    <glyph glyph-name="ncaron" unicode="&#x148;" horiz-adv-x="556" 
d="M291 533l-105 118l39 36l104 -76l117 79l37 -39l-131 -118h-61zM188 472l-8 -54q51 34 88.5 48t84.5 14q73 0 113 -49.5t28 -135.5l-42 -295h-90l42 283q10 67 -8 95t-69 28q-62 0 -158 -69l-47 -337h-90l66 472h90z" />
    <glyph glyph-name="Omacron" unicode="&#x14c;" horiz-adv-x="675" 
d="M525 774l-9 -74h-250l9 74h250zM392 620q138 0 202.5 -82t43.5 -234q-21 -149 -109 -231t-226 -82t-202.5 81.5t-43.5 231.5q21 152 108.5 234t226.5 82zM315 77q95 0 154 58t75 169q16 113 -27 171.5t-138 58.5q-94 0 -153 -59t-75 -171q-16 -111 27 -169t137 -58z" />
    <glyph glyph-name="omacron" unicode="&#x14d;" 
d="M460 645l-9 -74h-250l9 74h250zM313 481q107 0 162.5 -68t39.5 -180q-14 -109 -89 -175.5t-182 -66.5q-106 0 -161.5 66.5t-40.5 175.5q16 112 90.5 180t180.5 68zM255 68q67 0 114.5 45.5t58.5 119.5q24 171 -125 171q-67 0 -115 -47t-58 -124q-24 -165 125 -165z" />
    <glyph glyph-name="Ohungarumlaut" unicode="&#x150;" horiz-adv-x="675" 
d="M406 825l54 -33l-3 -19l-143 -111l-28 20zM547 825l55 -33l-4 -19l-143 -111l-27 20zM392 620q138 0 202.5 -82t43.5 -234q-21 -149 -109 -231t-226 -82t-202.5 81.5t-43.5 231.5q21 152 108.5 234t226.5 82zM315 77q95 0 154 58t75 169q16 113 -27 171.5t-138 58.5
q-94 0 -153 -59t-75 -171q-16 -111 27 -169t137 -58z" />
    <glyph glyph-name="ohungarumlaut" unicode="&#x151;" 
d="M341 704l54 -33l-3 -19l-143 -111l-28 20zM482 704l55 -33l-4 -19l-143 -111l-27 20zM313 481q107 0 162.5 -68t39.5 -180q-14 -109 -89 -175.5t-182 -66.5q-106 0 -161.5 66.5t-40.5 175.5q16 112 90.5 180t180.5 68zM255 68q67 0 114.5 45.5t58.5 119.5
q24 171 -125 171q-67 0 -115 -47t-58 -124q-24 -165 125 -165z" />
    <glyph glyph-name="OE" unicode="&#x152;" horiz-adv-x="955" 
d="M550 524l-25 -175h279l-12 -86h-279l-25 -177h329l-12 -86h-421l1 4q-45 -13 -92 -13q-138 0 -202.5 81.5t-43.5 231.5q21 152 108.5 234t226.5 82q48 0 87 -14l1 4h411l-11 -86h-320zM397 93l60 425q-35 16 -88 16q-94 0 -153 -59t-75 -171q-16 -111 27 -169t137 -58
q53 0 92 16z" />
    <glyph glyph-name="oe" unicode="&#x153;" horiz-adv-x="921" 
d="M817 117l21 -54q-55 -40 -100.5 -56t-107.5 -16q-126 0 -175 97q-78 -97 -211 -97q-106 0 -161.5 66.5t-40.5 175.5q16 112 90.5 180t180.5 68q126 0 179 -91q69 91 200 91q99 0 145.5 -59.5t33.5 -169.5q-4 -26 -8 -41h-347q-5 -76 30 -112t97 -36q92 0 174 54zM527 281
h268q4 62 -25 95.5t-87 33.5q-119 0 -156 -129zM428 233q24 171 -125 171q-67 0 -115 -47t-58 -124q-24 -165 125 -165q67 0 114.5 45.5t58.5 119.5z" />
    <glyph glyph-name="Racute" unicode="&#x154;" horiz-adv-x="609" 
d="M491 775l-3 -18q-75 -56 -166 -107l-30 34l129 140zM127 610h235q117 0 171 -55t42 -153q-10 -83 -55 -134.5t-116 -68.5l133 -191l-3 -8h-104l-135 192h-135l-27 -192h-92zM172 278h165q63 0 100.5 31.5t43.5 89.5q6 61 -23.5 93t-105.5 32h-145z" />
    <glyph glyph-name="racute" unicode="&#x155;" horiz-adv-x="384" 
d="M360 655l-3 -18q-75 -56 -166 -107l-30 34l129 140zM188 472l-11 -78q71 86 154 86q33 0 60 -3l-20 -89q-23 2 -56 2q-86 0 -153 -101l-40 -289h-90l66 472h90z" />
    <glyph glyph-name="Rcommaaccent" unicode="&#x156;" horiz-adv-x="609" 
d="M127 610h235q117 0 171 -55t42 -153q-10 -83 -55 -134.5t-116 -68.5l133 -191l-3 -8h-104l-135 192h-135l-27 -192h-92zM172 278h165q63 0 100.5 31.5t43.5 89.5q6 61 -23.5 93t-105.5 32h-145zM195 -225l-19 23q42 36 60 73q-35 8 -30 46q2 22 17.5 36t38.5 14
q22 0 33.5 -16t8.5 -39q-10 -69 -109 -137z" />
    <glyph glyph-name="rcommaaccent" unicode="&#x157;" horiz-adv-x="379" 
d="M183 472l-11 -78q71 86 154 86q33 0 60 -3l-20 -89q-23 2 -56 2q-86 0 -153 -101l-40 -289h-90l66 472h90zM2 -225l-19 23q42 36 60 73q-35 8 -30 46q2 22 17.5 36t38.5 14q22 0 33.5 -16t8.5 -39q-10 -69 -109 -137z" />
    <glyph glyph-name="Rcaron" unicode="&#x158;" horiz-adv-x="609" 
d="M311 661l-105 118l39 36l104 -76l117 79l37 -39l-131 -118h-61zM127 610h235q117 0 171 -55t42 -153q-10 -83 -55 -134.5t-116 -68.5l133 -191l-3 -8h-104l-135 192h-135l-27 -192h-92zM172 278h165q63 0 100.5 31.5t43.5 89.5q6 61 -23.5 93t-105.5 32h-145z" />
    <glyph glyph-name="rcaron" unicode="&#x159;" horiz-adv-x="416" 
d="M227 533l-105 118l39 36l104 -76l117 79l37 -39l-131 -118h-61zM220 472l-11 -78q71 86 154 86q33 0 60 -3l-20 -89q-23 2 -56 2q-86 0 -153 -101l-40 -289h-90l66 472h90z" />
    <glyph glyph-name="Sacute" unicode="&#x15a;" horiz-adv-x="590" 
d="M417 824l70 -49l-3 -18q-75 -56 -166 -107l-30 34zM567 571l-37 -73q-104 41 -208 41q-52 0 -87.5 -20.5t-40.5 -53.5q-5 -38 27 -60.5t138 -57.5q101 -33 141.5 -79.5t31.5 -114.5q-11 -73 -79 -117.5t-170 -44.5q-60 0 -137 25t-131 67l49 70q52 -37 116.5 -56.5
t114.5 -19.5q59 0 97.5 22t43.5 59q5 38 -30 63.5t-134 56.5q-107 34 -148 76.5t-31 116.5q9 66 77.5 107.5t165.5 41.5q109 0 231 -49z" />
    <glyph glyph-name="sacute" unicode="&#x15b;" horiz-adv-x="468" 
d="M333 705l70 -49l-3 -18q-75 -56 -166 -107l-30 34zM428 439l-31 -66q-98 38 -161 38q-39 0 -63 -13.5t-27 -35.5q-5 -32 17.5 -48t89.5 -41q13 -4 20 -7q77 -29 106 -62t21 -93q-8 -55 -56.5 -87.5t-133.5 -32.5q-50 0 -109 18.5t-98 51.5l36 61q3 -2 18.5 -11.5
t19 -11.5t17.5 -9.5t20.5 -10l20 -7.5t24 -6.5t25.5 -3t30 -1.5q44 0 70.5 16.5t29.5 43.5q3 26 -19 44.5t-77 36.5q-96 31 -129 65.5t-25 94.5q16 119 174 119q98 0 190 -42z" />
    <glyph glyph-name="Scedilla" unicode="&#x15e;" horiz-adv-x="590" 
d="M567 571l-37 -73q-104 41 -208 41q-52 0 -87.5 -20.5t-40.5 -53.5q-5 -38 27 -60.5t138 -57.5q101 -33 141.5 -79.5t31.5 -114.5q-11 -73 -79 -117.5t-170 -44.5q-10 0 -36 2l-5 -29q54 -2 75 -19.5t16 -59.5q-4 -39 -31.5 -60t-73.5 -21q-62 0 -100 13l14 53
q42 -8 64 -8q21 0 30.5 1t19 7t11.5 19q3 16 -5.5 21t-30.5 6h-62l25 87q-107 24 -179 80l49 70q52 -37 116.5 -56.5t114.5 -19.5q59 0 97.5 22t43.5 59q5 38 -30 63.5t-134 56.5q-107 34 -148 76.5t-31 116.5q9 66 77.5 107.5t165.5 41.5q109 0 231 -49z" />
    <glyph glyph-name="scedilla" unicode="&#x15f;" horiz-adv-x="458" 
d="M428 439l-31 -66q-98 38 -161 38q-39 0 -63 -13.5t-27 -35.5q-5 -32 17.5 -48t89.5 -41q13 -4 20 -7q77 -29 106 -62t21 -93q-8 -55 -56.5 -87.5t-133.5 -32.5q-16 0 -25 1l-5 -28q54 -2 75 -19.5t16 -59.5q-4 -39 -31.5 -60t-73.5 -21q-62 0 -100 13l14 53q42 -8 64 -8
q21 0 30.5 1t19 7t11.5 19q3 16 -5.5 21t-30.5 6h-62l25 85q-82 19 -129 60l36 61q3 -2 18.5 -11.5t19 -11.5t17.5 -9.5t20.5 -10l20 -7.5t24 -6.5t25.5 -3t30 -1.5q44 0 70.5 16.5t29.5 43.5q3 26 -19 44.5t-77 36.5q-96 31 -129 65.5t-25 94.5q16 119 174 119
q98 0 190 -42z" />
    <glyph glyph-name="Scaron" unicode="&#x160;" horiz-adv-x="590" 
d="M307 661l-105 118l39 36l104 -76l117 79l37 -39l-131 -118h-61zM567 571l-37 -73q-104 41 -208 41q-52 0 -87.5 -20.5t-40.5 -53.5q-5 -38 27 -60.5t138 -57.5q101 -33 141.5 -79.5t31.5 -114.5q-11 -73 -79 -117.5t-170 -44.5q-60 0 -137 25t-131 67l49 70
q52 -37 116.5 -56.5t114.5 -19.5q59 0 97.5 22t43.5 59q5 38 -30 63.5t-134 56.5q-107 34 -148 76.5t-31 116.5q9 66 77.5 107.5t165.5 41.5q109 0 231 -49z" />
    <glyph glyph-name="scaron" unicode="&#x161;" horiz-adv-x="458" 
d="M233 534l-105 118l39 36l104 -76l117 79l37 -39l-131 -118h-61zM428 439l-31 -66q-98 38 -161 38q-39 0 -63 -13.5t-27 -35.5q-5 -32 17.5 -48t89.5 -41q13 -4 20 -7q77 -29 106 -62t21 -93q-8 -55 -56.5 -87.5t-133.5 -32.5q-50 0 -109 18.5t-98 51.5l36 61
q3 -2 18.5 -11.5t19 -11.5t17.5 -9.5t20.5 -10l20 -7.5t24 -6.5t25.5 -3t30 -1.5q44 0 70.5 16.5t29.5 43.5q3 26 -19 44.5t-77 36.5q-96 31 -129 65.5t-25 94.5q16 119 174 119q98 0 190 -42z" />
    <glyph glyph-name="Tcaron" unicode="&#x164;" horiz-adv-x="547" 
d="M291 661l-105 118l39 36l104 -76l117 79l37 -39l-131 -118h-61zM572 524h-212l-74 -524h-92l74 524h-213l12 86h517z" />
    <glyph glyph-name="tcaron" unicode="&#x165;" horiz-adv-x="362" 
d="M363 679l-2 -13q-18 -85 -52 -157h-53l30 170h77zM213 472h139l-10 -76h-139l-33 -239q-9 -78 68 -78q21 0 81 5l10 -67q-60 -21 -123 -21q-68 0 -103.5 43.5t-24.5 114.5l34 242h-71l10 76h71l17 118h90z" />
    <glyph glyph-name="Umacron" unicode="&#x16a;" horiz-adv-x="663" 
d="M519 774l-9 -74h-250l9 74h250zM645 610l-47 -332q-20 -138 -98 -212.5t-203 -74.5q-124 0 -181 74.5t-38 212.5l46 332h92l-46 -332q-13 -96 23 -147.5t117 -51.5q76 0 129.5 55t66.5 144l47 332h92z" />
    <glyph glyph-name="umacron" unicode="&#x16b;" horiz-adv-x="554" 
d="M448 570h-250l9 74h250zM516 472l-66 -472h-90l8 55q-51 -35 -89 -49t-85 -14q-73 0 -113 49.5t-28 135.5l42 295h90l-39 -273q-10 -67 8 -95t69 -28q69 0 156 60l47 336h90z" />
    <glyph glyph-name="Uring" unicode="&#x16e;" horiz-adv-x="663" 
d="M406 850q43 0 66 -26.5t17 -70.5q-5 -41 -36 -66.5t-74 -25.5t-66 25.5t-18 66.5q7 44 37.5 70.5t73.5 26.5zM387 712q44 0 51 41q6 47 -40 47q-20 0 -33.5 -12.5t-16.5 -34.5q-6 -41 39 -41zM645 610l-47 -332q-20 -138 -98 -212.5t-203 -74.5q-124 0 -181 74.5
t-38 212.5l46 332h92l-46 -332q-13 -96 23 -147.5t117 -51.5q76 0 129.5 55t66.5 144l47 332h92z" />
    <glyph glyph-name="uring" unicode="&#x16f;" horiz-adv-x="554" 
d="M316 529q-43 0 -66 25.5t-18 66.5q7 44 37.5 70.5t73.5 26.5t66 -26.5t17 -70.5q-5 -41 -36 -66.5t-74 -25.5zM285 621q-6 -41 39 -41q44 0 51 41q6 47 -40 47q-20 0 -33.5 -12.5t-16.5 -34.5zM516 472l-66 -472h-90l8 55q-51 -35 -89 -49t-85 -14q-73 0 -113 49.5
t-28 135.5l42 295h90l-39 -273q-10 -67 8 -95t69 -28q69 0 156 60l47 336h90z" />
    <glyph glyph-name="Uhungarumlaut" unicode="&#x170;" horiz-adv-x="663" 
d="M400 825l54 -33l-3 -19l-143 -111l-28 20zM541 825l55 -33l-4 -19l-143 -111l-27 20zM645 610l-47 -332q-20 -138 -98 -212.5t-203 -74.5q-124 0 -181 74.5t-38 212.5l46 332h92l-46 -332q-13 -96 23 -147.5t117 -51.5q76 0 129.5 55t66.5 144l47 332h92z" />
    <glyph glyph-name="uhungarumlaut" unicode="&#x171;" horiz-adv-x="554" 
d="M392 670l-3 -19l-143 -111l-28 20l120 143zM534 670l-4 -19l-143 -111l-27 20l119 143zM426 472h90l-66 -472h-90l8 55q-51 -35 -89 -49t-85 -14q-73 0 -113 49.5t-28 135.5l42 295h90l-39 -273q-10 -67 8 -95t69 -28q69 0 156 60z" />
    <glyph glyph-name="Uogonek" unicode="&#x172;" horiz-adv-x="663" 
d="M645 610l-47 -332q-19 -133 -92.5 -207.5t-191.5 -79.5q-52 -21 -59 -62q-3 -24 7 -33.5t41 -9.5q19 0 66 9l4 -56q-52 -18 -100 -18q-47 0 -71 23.5t-19 63.5q8 52 67 86q-100 14 -144.5 87t-27.5 197l46 332h92l-46 -332q-13 -96 23 -147.5t117 -51.5q76 0 129.5 55
t66.5 144l47 332h92z" />
    <glyph glyph-name="uogonek" unicode="&#x173;" horiz-adv-x="554" 
d="M450 0h-31q-35 -7 -59 -27t-28 -44q-3 -24 7 -33.5t41 -9.5q19 0 66 9l4 -56q-52 -18 -100 -18q-47 0 -71 23.5t-19 63.5q5 32 32 59.5t69 42.5l7 45q-51 -35 -89 -49t-85 -14q-73 0 -113 49.5t-28 135.5l42 295h90l-39 -273q-10 -67 8 -95t69 -28q69 0 156 60l47 336h90
z" />
    <glyph glyph-name="Wcircumflex" unicode="&#x174;" horiz-adv-x="892" 
d="M373 652l-32 36l141 118h61l105 -118l-39 -36l-104 76zM920 610l-260 -610h-135l-51 399q0 3 -1.5 30.5l-2.5 44.5q-10 -32 -25 -75l-164 -399h-134l-90 610h103l60 -443q3 -27 5 -84q6 26 28 84l185 443h102l61 -443q5 -63 7 -83q9 41 25 83l184 443h103z" />
    <glyph glyph-name="wcircumflex" unicode="&#x175;" horiz-adv-x="730" 
d="M518 532l-105 77l-131 -77l-32 36l141 118h61l105 -118zM751 472l-216 -472h-110l-48 323l-140 -323h-111l-83 472h86l58 -315q5 -33 8 -64q5 14 26 64l133 315h86l44 -315q2 -11 4.5 -32.5t3.5 -31.5q7 19 25 64l147 315h87z" />
    <glyph glyph-name="Ycircumflex" unicode="&#x176;" horiz-adv-x="580" 
d="M217 652l-32 36l141 118h61l105 -118l-39 -36l-104 76zM332 201l-29 -201h-92l28 200l-172 410h98l117 -266q9 -21 16 -52q15 31 30 52l192 266h98z" />
    <glyph glyph-name="ycircumflex" unicode="&#x177;" horiz-adv-x="510" 
d="M421 532l-105 77l-131 -77l-32 36l141 118h61l105 -118zM438 472h99l-70 -131l-82.5 -153.5t-69.5 -116.5q-106 -161 -263 -220l-22 77q84 38 136 91l-127 453h95l81 -293q4 -14 10.5 -40t8.5 -35q24 38 51.5 86l43.5 77l55 103.5z" />
    <glyph glyph-name="Ydieresis" unicode="&#x178;" horiz-adv-x="580" 
d="M247 687q-20 0 -33 13t-10 34q4 22 20 35t37 13q22 0 34.5 -12.5t9.5 -35.5q-4 -22 -20 -34.5t-38 -12.5zM436 687q-22 0 -34 12.5t-8 34.5q3 23 18.5 35.5t37.5 12.5q21 0 33.5 -13t9.5 -35q-4 -22 -20.5 -34.5t-36.5 -12.5zM332 201l-29 -201h-92l28 200l-172 410h98
l117 -266q9 -21 16 -52q15 31 30 52l192 266h98z" />
    <glyph glyph-name="Zacute" unicode="&#x179;" horiz-adv-x="588" 
d="M422 824l70 -49l-3 -18q-75 -56 -166 -107l-30 34zM578 535l-428 -452l96 3h274l-12 -86h-497l10 71l436 456q-99 -3 -100 -3h-254l12 86h474z" />
    <glyph glyph-name="zacute" unicode="&#x17a;" horiz-adv-x="499" 
d="M357 704l70 -49l-3 -18q-75 -56 -166 -107l-30 34zM428 0h-423l8 59l341 340q-36 -3 -87 -3h-199l10 76h408l-8 -57l-344 -343q12 0 48.5 1.5t51.5 1.5h205z" />
    <glyph glyph-name="Zdotaccent" unicode="&#x17b;" horiz-adv-x="588" 
d="M361 792q25 0 39.5 -15.5t10.5 -42.5q-4 -25 -23.5 -40.5t-43.5 -15.5q-25 0 -39.5 15t-10.5 41q4 27 22.5 42.5t44.5 15.5zM578 535l-428 -452l96 3h274l-12 -86h-497l10 71l436 456q-99 -3 -100 -3h-254l12 86h474z" />
    <glyph glyph-name="zdotaccent" unicode="&#x17c;" horiz-adv-x="499" 
d="M311 672q25 0 39.5 -15.5t10.5 -42.5q-4 -25 -23.5 -40.5t-43.5 -15.5q-25 0 -39.5 15t-10.5 41q4 27 22.5 42.5t44.5 15.5zM428 0h-423l8 59l341 340q-36 -3 -87 -3h-199l10 76h408l-8 -57l-344 -343q12 0 48.5 1.5t51.5 1.5h205z" />
    <glyph glyph-name="Zcaron" unicode="&#x17d;" horiz-adv-x="588" 
d="M312 661l-105 118l39 36l104 -76l117 79l37 -39l-131 -118h-61zM578 535l-428 -452l96 3h274l-12 -86h-497l10 71l436 456q-99 -3 -100 -3h-254l12 86h474z" />
    <glyph glyph-name="zcaron" unicode="&#x17e;" horiz-adv-x="499" 
d="M262 533l-105 118l39 36l104 -76l117 79l37 -39l-131 -118h-61zM478 415l-344 -343q12 0 48.5 1.5t51.5 1.5h205l-11 -75h-423l8 59l341 340q-36 -3 -87 -3h-199l10 76h408z" />
    <glyph glyph-name="florin" unicode="&#x192;" horiz-adv-x="552" 
d="M563 498l-36 -56q-64 37 -136 37q-128 0 -192 -187l-12 -35h229l-20 -60h-229l-65 -197h-88l65 197h-62l21 60h61l12 35q45 134 113.5 196.5t165.5 62.5q101 0 173 -53z" />
    <glyph glyph-name="Acaron" unicode="&#x1cd;" horiz-adv-x="660" 
d="M348 661l-105 118l39 36l104 -76l117 79l37 -39l-131 -118h-61zM473 144h-315l-79 -144h-99l339 610h124l168 -610h-99zM450 229l-66 243q-6 23 -14 73h-1q-21 -55 -31 -73l-133 -243h245z" />
    <glyph glyph-name="Scommaaccent" unicode="&#x218;" horiz-adv-x="590" 
d="M567 571l-37 -73q-104 41 -208 41q-52 0 -87.5 -20.5t-40.5 -53.5q-5 -38 27 -60.5t138 -57.5q101 -33 141.5 -79.5t31.5 -114.5q-11 -73 -79 -117.5t-170 -44.5q-60 0 -137 25t-131 67l49 70q52 -37 116.5 -56.5t114.5 -19.5q59 0 97.5 22t43.5 59q5 38 -30 63.5
t-134 56.5q-107 34 -148 76.5t-31 116.5q9 66 77.5 107.5t165.5 41.5q109 0 231 -49zM172 -225l-19 23q42 36 60 73q-35 8 -30 46q2 22 17.5 36t38.5 14q22 0 33.5 -16t8.5 -39q-10 -69 -109 -137z" />
    <glyph glyph-name="scommaaccent" unicode="&#x219;" horiz-adv-x="458" 
d="M428 439l-31 -66q-98 38 -161 38q-39 0 -63 -13.5t-27 -35.5q-5 -32 17.5 -48t89.5 -41q13 -4 20 -7q77 -29 106 -62t21 -93q-8 -55 -56.5 -87.5t-133.5 -32.5q-50 0 -109 18.5t-98 51.5l36 61q3 -2 18.5 -11.5t19 -11.5t17.5 -9.5t20.5 -10l20 -7.5t24 -6.5t25.5 -3
t30 -1.5q44 0 70.5 16.5t29.5 43.5q3 26 -19 44.5t-77 36.5q-96 31 -129 65.5t-25 94.5q16 119 174 119q98 0 190 -42zM110 -225l-19 23q42 36 60 73q-35 8 -30 46q2 22 17.5 36t38.5 14q22 0 33.5 -16t8.5 -39q-10 -69 -109 -137z" />
    <glyph glyph-name="uni021A" unicode="&#x21a;" horiz-adv-x="547" 
d="M572 524h-212l-74 -524h-92l74 524h-213l12 86h517zM162 -225l-19 23q42 36 60 73q-35 8 -30 46q2 22 17.5 36t38.5 14q22 0 33.5 -16t8.5 -39q-10 -69 -109 -137z" />
    <glyph glyph-name="uni021B" unicode="&#x21b;" horiz-adv-x="362" 
d="M203 396l-33 -239q-9 -78 68 -78q21 0 81 5l10 -67q-60 -21 -123 -21q-68 0 -103.5 43.5t-24.5 114.5l34 242h-71l10 76h71l17 118h90l-16 -118h139l-10 -76h-139zM78 -219l-19 23q42 36 60 73q-35 8 -30 46q2 22 17.5 36t38.5 14q22 0 33.5 -16t8.5 -39
q-10 -69 -109 -137z" />
    <glyph glyph-name="circumflex" unicode="&#x2c6;" horiz-adv-x="488" 
d="M397 532l-105 77l-131 -77l-32 36l141 118h61l105 -118z" />
    <glyph glyph-name="caron" unicode="&#x2c7;" horiz-adv-x="488" 
d="M438 651l-131 -118h-61l-105 118l39 36l104 -76l117 79z" />
    <glyph glyph-name="breve" unicode="&#x2d8;" horiz-adv-x="488" 
d="M367 667h66q-19 -121 -150 -121q-62 0 -91.5 34t-20.5 87h62q-3 -30 8 -45t47 -15q41 0 56 14.5t23 45.5z" />
    <glyph glyph-name="dotaccent" unicode="&#x2d9;" horiz-adv-x="488" 
d="M295 672q25 0 39.5 -15.5t10.5 -42.5q-4 -25 -23.5 -40.5t-43.5 -15.5q-25 0 -39.5 15t-10.5 41q4 27 22.5 42.5t44.5 15.5z" />
    <glyph glyph-name="ring" unicode="&#x2da;" horiz-adv-x="488" 
d="M301 718q43 0 66 -26.5t17 -70.5q-5 -41 -36 -66.5t-74 -25.5t-66 25.5t-18 66.5q7 44 37.5 70.5t73.5 26.5zM282 580q44 0 51 41q6 47 -40 47q-20 0 -33.5 -12.5t-16.5 -34.5q-6 -41 39 -41z" />
    <glyph glyph-name="ogonek" unicode="&#x2db;" horiz-adv-x="488" 
d="M256 -105l4 -56q-52 -18 -100 -18q-47 0 -71 23.5t-19 63.5q5 38 42.5 69.5t92.5 41.5l24 -19q-35 -7 -59 -27t-28 -44q-3 -24 7 -33.5t41 -9.5q19 0 66 9z" />
    <glyph glyph-name="tilde" unicode="&#x2dc;" horiz-adv-x="488" 
d="M421 676l50 -6q-16 -48 -46.5 -75t-62 -27.5t-62.5 12.5l-56 31q-29 14 -47.5 6t-35.5 -40l-48 5q15 47 44.5 73t60.5 26t63 -14l56 -29q52 -27 84 38z" />
    <glyph glyph-name="hungarumlaut" unicode="&#x2dd;" horiz-adv-x="488" 
d="M284 703l54 -33l-3 -19l-143 -111l-28 20zM425 703l55 -33l-4 -19l-143 -111l-27 20z" />
    <glyph glyph-name="commaturnedabovecomb" unicode="&#x312;" horiz-adv-x="0" 
d="M324 708l11 -26q-40 -31 -53 -60q33 -9 28 -43q-3 -20 -17.5 -32.5t-34.5 -12.5t-30.5 14t-7.5 35q9 71 104 125z" />
    <glyph glyph-name="commaaccentcomb" unicode="&#x326;" horiz-adv-x="0" 
d="M127 -225l-19 23q42 36 60 73q-35 8 -30 46q2 22 17.5 36t38.5 14q22 0 33.5 -16t8.5 -39q-10 -69 -109 -137z" />
    <glyph glyph-name="Wgrave" unicode="&#x1e80;" horiz-adv-x="892" 
d="M572 684l-30 -34q-91 51 -166 107l-3 18l70 49zM660 0h-135l-51 399q0 3 -1.5 30.5l-2.5 44.5q-10 -32 -25 -75l-164 -399h-134l-90 610h103l60 -443q3 -27 5 -84q6 26 28 84l185 443h102l61 -443q5 -63 7 -83q9 41 25 83l184 443h103z" />
    <glyph glyph-name="wgrave" unicode="&#x1e81;" horiz-adv-x="730" 
d="M492 564l-30 -34q-91 51 -166 107l-3 18l70 49zM535 0h-110l-48 323l-140 -323h-111l-83 472h86l58 -315q5 -33 8 -64q5 14 26 64l133 315h86l44 -315q2 -11 4.5 -32.5t3.5 -31.5q7 19 25 64l147 315h87z" />
    <glyph glyph-name="Wacute" unicode="&#x1e82;" horiz-adv-x="892" 
d="M574 824l70 -49l-3 -18q-75 -56 -166 -107l-30 34zM660 0h-135l-51 399q0 3 -1.5 30.5l-2.5 44.5q-10 -32 -25 -75l-164 -399h-134l-90 610h103l60 -443q3 -27 5 -84q6 26 28 84l185 443h102l61 -443q5 -63 7 -83q9 41 25 83l184 443h103z" />
    <glyph glyph-name="wacute" unicode="&#x1e83;" horiz-adv-x="730" 
d="M462 704l70 -49l-3 -18q-75 -56 -166 -107l-30 34zM535 0h-110l-48 323l-140 -323h-111l-83 472h86l58 -315q5 -33 8 -64q5 14 26 64l133 315h86l44 -315q2 -11 4.5 -32.5t3.5 -31.5q7 19 25 64l147 315h87z" />
    <glyph glyph-name="Wdieresis" unicode="&#x1e84;" horiz-adv-x="892" 
d="M417 782q22 0 34.5 -12.5t9.5 -35.5q-4 -22 -20 -34.5t-38 -12.5q-20 0 -33 13t-10 34q4 22 20 35t37 13zM606 782q21 0 33.5 -13t9.5 -35q-4 -22 -20.5 -34.5t-36.5 -12.5q-22 0 -34 12.5t-8 34.5q3 23 18.5 35.5t37.5 12.5zM660 0h-135l-51 399q0 3 -1.5 30.5
l-2.5 44.5q-10 -32 -25 -75l-164 -399h-134l-90 610h103l60 -443q3 -27 5 -84q6 26 28 84l185 443h102l61 -443q5 -63 7 -83q9 41 25 83l184 443h103z" />
    <glyph glyph-name="wdieresis" unicode="&#x1e85;" horiz-adv-x="730" 
d="M320 661q22 0 34.5 -12.5t9.5 -35.5q-4 -22 -20 -34.5t-38 -12.5q-20 0 -33 13t-10 34q4 22 20 35t37 13zM509 661q21 0 33.5 -13t9.5 -35q-4 -22 -20.5 -34.5t-36.5 -12.5q-22 0 -34 12.5t-8 34.5q3 23 18.5 35.5t37.5 12.5zM535 0h-110l-48 323l-140 -323h-111l-83 472
h86l58 -315q5 -33 8 -64q5 14 26 64l133 315h86l44 -315q2 -11 4.5 -32.5t3.5 -31.5q7 19 25 64l147 315h87z" />
    <glyph glyph-name="Ygrave" unicode="&#x1ef2;" horiz-adv-x="580" 
d="M416 684l-30 -34q-91 51 -166 107l-3 18l70 49zM332 201l-29 -201h-92l28 200l-172 410h98l117 -266q9 -21 16 -52q15 31 30 52l192 266h98z" />
    <glyph glyph-name="ygrave" unicode="&#x1ef3;" horiz-adv-x="510" 
d="M395 564l-30 -34q-91 51 -166 107l-3 18l70 49zM438 472h99l-70 -131l-82.5 -153.5t-69.5 -116.5q-106 -161 -263 -220l-22 77q84 38 136 91l-127 453h95l81 -293q4 -14 10.5 -40t8.5 -35q24 38 51.5 86l43.5 77l55 103.5z" />
    <glyph glyph-name="uni2009" unicode="&#x2009;" horiz-adv-x="93" 
 />
    <glyph glyph-name="endash" unicode="&#x2013;" horiz-adv-x="499" 
d="M74 310h373l-10 -69h-373z" />
    <glyph glyph-name="emdash" unicode="&#x2014;" horiz-adv-x="899" 
d="M74 310h773l-10 -69h-773z" />
    <glyph glyph-name="quoteleft" unicode="&#x2018;" horiz-adv-x="256" 
d="M236 665l20 -27q-54 -41 -76 -100q39 -10 34 -52q-3 -24 -20 -39.5t-42 -15.5q-24 0 -36.5 17t-9.5 43q6 46 41.5 93.5t88.5 80.5z" />
    <glyph glyph-name="quoteright" unicode="&#x2019;" horiz-adv-x="256" 
d="M111 431l-20 27q54 41 76 100q-39 10 -34 52q3 24 20 39.5t42 15.5q24 0 36.5 -17t9.5 -43q-6 -46 -41.5 -93.5t-88.5 -80.5z" />
    <glyph glyph-name="quotesinglbase" unicode="&#x201a;" horiz-adv-x="256" 
d="M35 -109l-20 27q54 41 76 100q-39 10 -34 52q3 24 20 39.5t42 15.5q24 0 36.5 -17t9.5 -43q-6 -46 -41.5 -93.5t-88.5 -80.5z" />
    <glyph glyph-name="quotedblleft" unicode="&#x201c;" horiz-adv-x="416" 
d="M396 665l20 -27q-54 -41 -76 -100q39 -10 34 -52q-3 -24 -20 -39.5t-42 -15.5q-24 0 -36.5 17t-9.5 43q6 46 41.5 93.5t88.5 80.5zM236 665l20 -27q-54 -41 -76 -100q39 -10 34 -52q-3 -24 -20 -39.5t-42 -15.5q-24 0 -36.5 17t-9.5 43q6 46 41.5 93.5t88.5 80.5z" />
    <glyph glyph-name="quotedblright" unicode="&#x201d;" horiz-adv-x="416" 
d="M111 431l-20 27q54 41 76 100q-39 10 -34 52q3 24 20 39.5t42 15.5q24 0 36.5 -17t9.5 -43q-6 -46 -41.5 -93.5t-88.5 -80.5zM271 431l-20 27q54 41 76 100q-39 10 -34 52q3 24 20 39.5t42 15.5q24 0 36.5 -17t9.5 -43q-6 -46 -41.5 -93.5t-88.5 -80.5z" />
    <glyph glyph-name="quotedblbase" unicode="&#x201e;" horiz-adv-x="416" 
d="M25 -109l-20 27q54 41 76 100q-39 10 -34 52q3 24 20 39.5t42 15.5q24 0 36.5 -17t9.5 -43q-6 -46 -41.5 -93.5t-88.5 -80.5zM185 -109l-20 27q54 41 76 100q-39 10 -34 52q3 24 20 39.5t42 15.5q24 0 36.5 -17t9.5 -43q-6 -46 -41.5 -93.5t-88.5 -80.5z" />
    <glyph glyph-name="dagger" unicode="&#x2020;" horiz-adv-x="508" 
d="M481 370l-177 -7l-71 -449h-49l56 449l-175 7l7 50l178 7l32 183h49l-19 -183l176 -7z" />
    <glyph glyph-name="daggerdbl" unicode="&#x2021;" horiz-adv-x="508" 
d="M305 363l-29 -199l175 -7l-7 -49l-177 -7l-33 -184h-49l19 184l-176 7l7 49l176 7l29 199l-175 7l7 50l178 7l32 183h49l-19 -183l176 -7l-7 -50z" />
    <glyph glyph-name="bullet" unicode="&#x2022;" horiz-adv-x="318" 
d="M88 279q5 34 29.5 55.5t58.5 21.5q35 0 53 -21.5t13 -55.5q-5 -33 -29 -55t-58 -22q-35 0 -53.5 22t-13.5 55z" />
    <glyph glyph-name="ellipsis" unicode="&#x2026;" horiz-adv-x="719" 
d="M119 106q24 0 37 -15.5t10 -39.5t-20.5 -39.5t-41.5 -15.5t-37.5 15.5t-9.5 39.5q3 24 20 39.5t42 15.5zM355 106q24 0 37 -15.5t10 -39.5t-20.5 -39.5t-41.5 -15.5t-37.5 15.5t-9.5 39.5q3 24 20 39.5t42 15.5zM590 106q24 0 37 -15.5t10 -39.5t-20.5 -39.5t-41.5 -15.5
t-37.5 15.5t-9.5 39.5q3 24 20 39.5t42 15.5z" />
    <glyph glyph-name="perthousand" unicode="&#x2030;" horiz-adv-x="1224" 
d="M238 620q152 0 126 -183q-12 -89 -57.5 -135t-120.5 -46t-107.5 46t-19.5 135q13 90 58.5 136.5t120.5 46.5zM606 610h56l-441 -610h-55zM194 311q92 0 109 126q19 128 -73 128t-109 -128q-19 -126 73 -126zM663 355q75 0 107.5 -46.5t19.5 -136.5q-26 -181 -178 -181
q-75 0 -107.5 46t-19.5 135q26 183 178 183zM1037 355q75 0 107.5 -46.5t19.5 -136.5q-26 -181 -178 -181q-75 0 -107.5 46t-19.5 135q26 183 178 183zM620 47q90 0 109 125q17 128 -74 128t-109 -128q-17 -125 74 -125zM994 47q90 0 109 125q18 128 -73 128
q-92 0 -110 -128q-17 -125 74 -125z" />
    <glyph glyph-name="guilsinglleft" unicode="&#x2039;" horiz-adv-x="361" 
d="M319 404l-139 -126l-42 -33q21 -17 33 -32l103 -126l-56 -46l-176 205l233 206z" />
    <glyph glyph-name="guilsinglright" unicode="&#x203a;" horiz-adv-x="361" 
d="M301 246l-234 -205l-39 43l138 126q24 21 46 36q-20 17 -35 35l-104 126l52 45z" />
    <glyph glyph-name="fraction" unicode="&#x2044;" horiz-adv-x="214" 
d="M299 610h56l-441 -610h-55z" />
    <glyph glyph-name="Euro" unicode="&#x20ac;" horiz-adv-x="585" 
d="M556 494l-36 -58q-62 40 -142 40q-51 0 -96.5 -31t-71.5 -99h247l-21 -50h-240q-4 -17 -5 -29q0 -3 -1.5 -13.5t-1.5 -16.5h223l-21 -50h-202q11 -124 129 -124q95 0 173 59l25 -54q-49 -41 -100 -59t-120 -18q-81 0 -136.5 47.5t-59.5 148.5h-75l7 50h69q0 4 0.5 9
t1.5 11.5t1 9.5l5 29h-68l7 50h74q32 100 102.5 151t153.5 51q104 0 179 -54z" />
    <glyph glyph-name="uni2116" unicode="&#x2116;" horiz-adv-x="1140" 
d="M568 0h-84l-283 453l-4 -37l-59 -416h-92l86 610h84l282 -455l3 21l61 434h92zM915 542q85 0 129 -55t31 -144q-13 -91 -66.5 -141.5t-148.5 -50.5q-85 0 -129 53t-31 139q13 94 66.5 146.5t148.5 52.5zM868 218q111 0 129 125q18 130 -92 130q-111 0 -129 -130
q-9 -60 15 -92.5t77 -32.5zM1016 68l-9 -68h-336l10 68h335z" />
    <glyph glyph-name="trademark" unicode="&#x2122;" horiz-adv-x="768" 
d="M372 560h-114l-33 -233h-57l33 233h-115l7 50h286zM686 524l-117 -197h-45l-61 199l-35 -199h-55l52 283h58l68 -205q1 -2 4 -19q1 2 4 8.5l5 10.5l125 205h59l-28 -283h-55z" />
    <glyph glyph-name="oneeighth" unicode="&#x215b;" horiz-adv-x="919" 
d="M49 231l8 53h101l36 262q-40 -12 -105 -27l-7 34q78 29 134 57h49l-46 -326h92l-8 -53h-254zM688 610l-441 -610h-55l440 610h56zM840 284q-9 -61 -86 -87q88 -29 78 -98q-7 -50 -53.5 -79.5t-117.5 -28.5q-79 0 -116.5 28.5t-30.5 79.5q10 65 98 94q-63 29 -54 89
q7 46 49 72.5t109 26.5q64 0 97 -26t27 -71zM783 283q3 26 -17.5 41t-57.5 15q-38 0 -62.5 -15.5t-28.5 -41.5t15.5 -43t63.5 -28q79 19 87 72zM768 102q4 28 -21.5 45.5t-82.5 29.5q-82 -22 -89 -74q-4 -29 20 -46.5t68 -17.5q43 0 72 17.5t33 45.5z" />
    <glyph glyph-name="threeeighths" unicode="&#x215c;" horiz-adv-x="913" 
d="M109 543l-9 42q81 36 154 36q58 0 88 -28t23 -77q-10 -63 -77 -84q33 -12 50 -36t13 -54q-7 -53 -47 -81.5t-106 -28.5q-86 0 -151 39l24 42q61 -32 132 -32q81 0 89 62q9 64 -86 64h-61l8 51h61q85 0 92 51q4 30 -12.5 46t-52.5 16q-62 0 -132 -28zM698 610l-441 -610
h-55l440 610h56zM840 284q-9 -61 -86 -87q88 -29 78 -98q-7 -50 -53.5 -79.5t-117.5 -28.5q-79 0 -116.5 28.5t-30.5 79.5q10 65 98 94q-63 29 -54 89q7 46 49 72.5t109 26.5q64 0 97 -26t27 -71zM783 283q3 26 -17.5 41t-57.5 15q-38 0 -62.5 -15.5t-28.5 -41.5t15.5 -43
t63.5 -28q79 19 87 72zM768 102q4 28 -21.5 45.5t-82.5 29.5q-82 -22 -89 -74q-4 -29 20 -46.5t68 -17.5q43 0 72 17.5t33 45.5z" />
    <glyph glyph-name="fiveeighths" unicode="&#x215d;" horiz-adv-x="930" 
d="M179 558l-26 -119q56 28 104 28q59 0 86 -30.5t20 -87.5q-8 -59 -51 -91t-108 -32q-84 0 -150 39l25 45q63 -33 125 -33q41 0 68 20t32 55q5 34 -13.5 53.5t-55.5 19.5q-39 0 -91 -25l-51 7l43 203h249l-7 -52h-199zM712 610l-441 -610h-55l440 610h56zM857 284
q-9 -61 -86 -87q88 -29 78 -98q-7 -50 -53.5 -79.5t-117.5 -28.5q-79 0 -116.5 28.5t-30.5 79.5q10 65 98 94q-63 29 -54 89q7 46 49 72.5t109 26.5q64 0 97 -26t27 -71zM800 283q3 26 -17.5 41t-57.5 15q-38 0 -62.5 -15.5t-28.5 -41.5t15.5 -43t63.5 -28q79 19 87 72z
M785 102q4 28 -21.5 45.5t-82.5 29.5q-83 -22 -89 -74q-4 -29 20 -46.5t68 -17.5q43 0 72 17.5t33 45.5z" />
    <glyph glyph-name="seveneighths" unicode="&#x215e;" horiz-adv-x="861" 
d="M377 610l-6 -46q-62 -66 -118 -156t-91 -177h-71q84 193 212 326h-211l8 53h277zM562 610h56l-441 -610h-55zM658 381q64 0 97 -26t27 -71q-9 -61 -86 -87q88 -29 78 -98q-7 -50 -53.5 -79.5t-117.5 -28.5q-79 0 -116.5 28.5t-30.5 79.5q10 65 98 94q-63 29 -54 89
q7 46 49 72.5t109 26.5zM650 339q-38 0 -62.5 -15.5t-28.5 -41.5t15.5 -43t63.5 -28q79 19 87 72q3 26 -17.5 41t-57.5 15zM606 177q-82 -22 -89 -74q-4 -29 20 -46.5t68 -17.5q43 0 72 17.5t33 45.5t-21.5 45.5t-82.5 29.5z" />
    <glyph glyph-name="arrowleft" unicode="&#x2190;" horiz-adv-x="662" 
d="M637 266h-472l197 -206l-54 -54l-282 298l282 298l54 -54l-198 -206h473v-76z" />
    <glyph glyph-name="arrowup" unicode="&#x2191;" horiz-adv-x="644" 
d="M546 306l-185 174v-480h-77v480l-185 -174l-54 54l277 257l277 -257z" />
    <glyph glyph-name="arrowright" unicode="&#x2192;" horiz-adv-x="662" 
d="M636 304l-283 -298l-54 54l198 206h-473v76h474l-199 206l54 54z" />
    <glyph glyph-name="arrowdown" unicode="&#x2193;" horiz-adv-x="644" 
d="M599 250l-277 -257l-277 257l54 54l185 -174v480h77v-480l185 174z" />
    <glyph glyph-name="arrowupleft" unicode="&#x2196;" horiz-adv-x="690" 
d="M610 -1l-481 483v-305h-76v433h433v-74h-306l483 -483z" />
    <glyph glyph-name="arrowupright" unicode="&#x2197;" horiz-adv-x="690" 
d="M637 610v-433h-74v305l-483 -483l-54 54l483 481h-305v76h433z" />
    <glyph glyph-name="arrowdownright" unicode="&#x2198;" horiz-adv-x="690" 
d="M637 434v-434h-433v74h305l-483 484l54 53l480 -483v306h77z" />
    <glyph glyph-name="arrowdownleft" unicode="&#x2199;" horiz-adv-x="690" 
d="M180 76h306v-76h-433v434h73v-306l484 483l53 -53z" />
    <glyph glyph-name="minus" unicode="&#x2212;" horiz-adv-x="471" 
d="M418 204h-396l10 67h396z" />
    <glyph glyph-name="J.ss01" horiz-adv-x="273" 
d="M242 610l-74 -528q-14 -100 -54 -149t-129 -80l-23 75q54 23 79 52.5t32 83.5l77 546h92z" />
    <glyph glyph-name="K.ss02" horiz-adv-x="610" 
d="M627 604l-260 -293l185 -303l-2 -8h-106l-159 265h-115l-37 -265h-92l86 610h92l-37 -259h111l234 259h102z" />
    <glyph glyph-name="Kcommaaccent.ss02" horiz-adv-x="610" 
d="M627 604l-260 -293l185 -303l-2 -8h-106l-159 265h-115l-37 -265h-92l86 610h92l-37 -259h111l234 259h102zM191 -225l-19 23q42 36 60 73q-35 8 -30 46q2 22 17.5 36t38.5 14q22 0 33.5 -16t8.5 -39q-10 -69 -109 -137z" />
    <glyph glyph-name="Q.ss03" horiz-adv-x="667" 
d="M553 -76l-71 -53q-67 79 -100 131q-46 -11 -93 -11q-137 0 -200 81.5t-42 231.5q21 152 107 234t224 82q137 0 200 -82t42 -234q-27 -194 -160 -271q31 -39 93 -109zM141 304q-16 -112 25 -169.5t136 -57.5q94 0 151 57.5t73 169.5q16 113 -25 171.5t-135 58.5
q-95 0 -152 -58.5t-73 -171.5z" />
    <glyph glyph-name="R.ss04" horiz-adv-x="635" 
d="M127 610h225q119 0 176.5 -55.5t46.5 -152.5q-10 -84 -46.5 -122.5t-101.5 -50.5q72 -36 105 -184q1 -5 10 -45h-106q-9 41 -16.5 66.5t-22.5 59.5t-37 51.5t-51 17.5h-149l-27 -195h-92zM173 280h153q69 0 108.5 31t46.5 88q14 125 -140 125h-134z" />
    <glyph glyph-name="Racute.ss04" horiz-adv-x="635" 
d="M494 775l-3 -18q-75 -56 -166 -107l-30 34l129 140zM127 610h225q119 0 176.5 -55.5t46.5 -152.5q-10 -84 -46.5 -122.5t-101.5 -50.5q72 -36 105 -184q1 -5 10 -45h-106q-9 41 -16.5 66.5t-22.5 59.5t-37 51.5t-51 17.5h-149l-27 -195h-92zM173 280h153q69 0 108.5 31
t46.5 88q14 125 -140 125h-134z" />
    <glyph glyph-name="Rcaron.ss04" horiz-adv-x="635" 
d="M314 661l-105 118l39 36l104 -76l117 79l37 -39l-131 -118h-61zM127 610h225q119 0 176.5 -55.5t46.5 -152.5q-10 -84 -46.5 -122.5t-101.5 -50.5q72 -36 105 -184q1 -5 10 -45h-106q-9 41 -16.5 66.5t-22.5 59.5t-37 51.5t-51 17.5h-149l-27 -195h-92zM173 280h153
q69 0 108.5 31t46.5 88q14 125 -140 125h-134z" />
    <glyph glyph-name="Rcommaaccent.ss04" horiz-adv-x="635" 
d="M127 610h225q119 0 176.5 -55.5t46.5 -152.5q-10 -84 -46.5 -122.5t-101.5 -50.5q72 -36 105 -184q1 -5 10 -45h-106q-9 41 -16.5 66.5t-22.5 59.5t-37 51.5t-51 17.5h-149l-27 -195h-92zM173 280h153q69 0 108.5 31t46.5 88q14 125 -140 125h-134zM190 -225l-19 23
q42 36 60 73q-35 8 -30 46q2 22 17.5 36t38.5 14q22 0 33.5 -16t8.5 -39q-10 -69 -109 -137z" />
    <glyph glyph-name="k.ss02" horiz-adv-x="511" 
d="M518 467l-200 -217l146 -244l-1 -6h-100l-124 209h-93l-29 -209h-90l91 653h90l-51 -363h95l169 182h99z" />
    <glyph glyph-name="kcommaaccent.ss02" horiz-adv-x="511" 
d="M518 467l-200 -217l146 -244l-1 -6h-100l-124 209h-93l-29 -209h-90l91 653h90l-51 -363h95l169 182h99zM147 -225l-19 23q42 36 60 73q-35 8 -30 46q2 22 17.5 36t38.5 14q22 0 33.5 -16t8.5 -39q-10 -69 -109 -137z" />
    <glyph glyph-name="a.ss05" horiz-adv-x="512" 
d="M107 382l-14 67q155 32 208 32q185 0 152 -228l-36 -253h-90l6 40l-59 -26t-50.5 -15.5t-60.5 -7.5q-81 0 -115.5 34t-24.5 109q21 151 218 151q73 0 125 -1q6 60 -12 91.5t-69 31.5q-40 0 -178 -25zM358 220h-115q-66 0 -98 -16.5t-38 -60.5q-6 -42 15.5 -60.5
t73.5 -18.5q50 0 147 50z" />
    <glyph glyph-name="aacute.ss05" horiz-adv-x="512" 
d="M447 656l-3 -18q-75 -56 -166 -107l-30 34l129 140zM107 382l-14 67q155 32 208 32q185 0 152 -228l-36 -253h-90l6 40l-59 -26t-50.5 -15.5t-60.5 -7.5q-81 0 -115.5 34t-24.5 109q21 151 218 151q73 0 125 -1q6 60 -12 91.5t-69 31.5q-40 0 -178 -25zM358 220h-115
q-66 0 -98 -16.5t-38 -60.5q-6 -42 15.5 -60.5t73.5 -18.5q50 0 147 50z" />
    <glyph glyph-name="abreve.ss05" horiz-adv-x="512" 
d="M403 668h66q-19 -121 -150 -121q-62 0 -91.5 34t-20.5 87h62q-3 -30 8 -45t47 -15q41 0 56 14.5t23 45.5zM107 382l-14 67q155 32 208 32q185 0 152 -228l-36 -253h-90l6 40l-59 -26t-50.5 -15.5t-60.5 -7.5q-81 0 -115.5 34t-24.5 109q21 151 218 151q73 0 125 -1
q6 60 -12 91.5t-69 31.5q-40 0 -178 -25zM358 220h-115q-66 0 -98 -16.5t-38 -60.5q-6 -42 15.5 -60.5t73.5 -18.5q50 0 147 50z" />
    <glyph glyph-name="acircumflex.ss05" horiz-adv-x="512" 
d="M433 533l-105 77l-131 -77l-32 36l141 118h61l105 -118zM107 382l-14 67q155 32 208 32q185 0 152 -228l-36 -253h-90l6 40l-59 -26t-50.5 -15.5t-60.5 -7.5q-81 0 -115.5 34t-24.5 109q21 151 218 151q73 0 125 -1q6 60 -12 91.5t-69 31.5q-40 0 -178 -25zM358 220h-115
q-66 0 -98 -16.5t-38 -60.5q-6 -42 15.5 -60.5t73.5 -18.5q50 0 147 50z" />
    <glyph glyph-name="adieresis.ss05" horiz-adv-x="512" 
d="M221 567q-20 0 -33 13t-10 34q4 22 20 35t37 13q22 0 34.5 -12.5t9.5 -35.5q-4 -22 -20 -34.5t-38 -12.5zM424 662q21 0 33.5 -13t9.5 -35q-4 -22 -20.5 -34.5t-36.5 -12.5q-22 0 -34 12.5t-8 34.5q3 23 18.5 35.5t37.5 12.5zM107 382l-14 67q155 32 208 32
q185 0 152 -228l-36 -253h-90l6 40l-59 -26t-50.5 -15.5t-60.5 -7.5q-81 0 -115.5 34t-24.5 109q21 151 218 151q73 0 125 -1q6 60 -12 91.5t-69 31.5q-40 0 -178 -25zM358 220h-115q-66 0 -98 -16.5t-38 -60.5q-6 -42 15.5 -60.5t73.5 -18.5q50 0 147 50z" />
    <glyph glyph-name="agrave.ss05" horiz-adv-x="512" 
d="M407 565l-30 -34q-91 51 -166 107l-3 18l70 49zM107 382l-14 67q155 32 208 32q185 0 152 -228l-36 -253h-90l6 40l-59 -26t-50.5 -15.5t-60.5 -7.5q-81 0 -115.5 34t-24.5 109q21 151 218 151q73 0 125 -1q6 60 -12 91.5t-69 31.5q-40 0 -178 -25zM358 220h-115
q-66 0 -98 -16.5t-38 -60.5q-6 -42 15.5 -60.5t73.5 -18.5q50 0 147 50z" />
    <glyph glyph-name="amacron.ss05" horiz-adv-x="512" 
d="M442 571h-250l9 74h250zM107 382l-14 67q155 32 208 32q185 0 152 -228l-36 -253h-90l6 40l-59 -26t-50.5 -15.5t-60.5 -7.5q-81 0 -115.5 34t-24.5 109q21 151 218 151q73 0 125 -1q6 60 -12 91.5t-69 31.5q-40 0 -178 -25zM358 220h-115q-66 0 -98 -16.5t-38 -60.5
q-6 -42 15.5 -60.5t73.5 -18.5q50 0 147 50z" />
    <glyph glyph-name="aogonek.ss05" horiz-adv-x="512" 
d="M418 5l6 -5q-35 -7 -59 -27t-28 -44q-3 -24 7 -33.5t41 -9.5q19 0 66 9l4 -56q-52 -18 -100 -18q-47 0 -71 23.5t-19 63.5q8 57 78 92h-16l6 40l-59 -26t-50.5 -15.5t-60.5 -7.5q-81 0 -115.5 34t-24.5 109q21 151 218 151q73 0 125 -1q6 60 -12 91.5t-69 31.5
q-40 0 -178 -25l-14 67q155 32 208 32q185 0 152 -228zM358 220h-115q-66 0 -98 -16.5t-38 -60.5q-6 -42 15.5 -60.5t73.5 -18.5q50 0 147 50z" />
    <glyph glyph-name="aring.ss05" horiz-adv-x="512" 
d="M310 530q-43 0 -66 25.5t-18 66.5q7 44 37.5 70.5t73.5 26.5t66 -26.5t17 -70.5q-5 -41 -36 -66.5t-74 -25.5zM279 622q-6 -41 39 -41q44 0 51 41q6 47 -40 47q-20 0 -33.5 -12.5t-16.5 -34.5zM107 382l-14 67q155 32 208 32q185 0 152 -228l-36 -253h-90l6 40l-59 -26
t-50.5 -15.5t-60.5 -7.5q-81 0 -115.5 34t-24.5 109q21 151 218 151q73 0 125 -1q6 60 -12 91.5t-69 31.5q-40 0 -178 -25zM358 220h-115q-66 0 -98 -16.5t-38 -60.5q-6 -42 15.5 -60.5t73.5 -18.5q50 0 147 50z" />
    <glyph glyph-name="atilde.ss05" horiz-adv-x="512" 
d="M306 581l-56 31q-29 14 -47.5 6t-35.5 -40l-48 5q15 47 44.5 73t60.5 26t63 -14l56 -29q52 -27 84 38l50 -6q-16 -48 -46.5 -75t-62 -27.5t-62.5 12.5zM107 382l-14 67q155 32 208 32q185 0 152 -228l-36 -253h-90l6 40l-59 -26t-50.5 -15.5t-60.5 -7.5q-81 0 -115.5 34
t-24.5 109q21 151 218 151q73 0 125 -1q6 60 -12 91.5t-69 31.5q-40 0 -178 -25zM358 220h-115q-66 0 -98 -16.5t-38 -60.5q-6 -42 15.5 -60.5t73.5 -18.5q50 0 147 50z" />
    <glyph glyph-name="g.ss06" horiz-adv-x="562" 
d="M171 74h161q86 0 123 -29.5t29 -91.5q-13 -91 -79 -131.5t-192 -40.5q-140 0 -191.5 27.5t-41.5 99.5q11 77 84 109q-25 23 -17 73q4 29 19 49t50 33q-49 41 -37 130q13 91 70 135t162 44q73 0 117 -23q47 26 89 26q34 0 59 -6l-15 -62q-20 1 -49 1q-15 0 -35 -3
q26 -45 16 -112q-12 -86 -68.5 -128t-161.5 -42q-63 0 -105 15q-32 -14 -35 -34q-3 -23 7 -31t41 -8zM408 302q8 60 -16.5 85.5t-89.5 25.5q-66 0 -97.5 -25.5t-39.5 -85.5q-8 -53 17 -76t91 -23q65 0 96 23t39 76zM321 -6h-163q-46 0 -67 -17t-26 -54q-5 -38 28 -52
t131 -14q160 0 171 80q4 29 -14 43t-60 14z" />
    <glyph glyph-name="gbreve.ss06" horiz-adv-x="562" 
d="M416 667h66q-19 -121 -150 -121q-62 0 -91.5 34t-20.5 87h62q-3 -30 8 -45t47 -15q41 0 56 14.5t23 45.5zM171 74h161q86 0 123 -29.5t29 -91.5q-13 -91 -79 -131.5t-192 -40.5q-140 0 -191.5 27.5t-41.5 99.5q11 77 84 109q-25 23 -17 73q4 29 19 49t50 33
q-49 41 -37 130q13 91 70 135t162 44q73 0 117 -23q47 26 89 26q34 0 59 -6l-15 -62q-20 1 -49 1q-15 0 -35 -3q26 -45 16 -112q-12 -86 -68.5 -128t-161.5 -42q-63 0 -105 15q-32 -14 -35 -34q-3 -23 7 -31t41 -8zM408 302q8 60 -16.5 85.5t-89.5 25.5q-66 0 -97.5 -25.5
t-39.5 -85.5q-8 -53 17 -76t91 -23q65 0 96 23t39 76zM321 -6h-163q-46 0 -67 -17t-26 -54q-5 -38 28 -52t131 -14q160 0 171 80q4 29 -14 43t-60 14z" />
    <glyph glyph-name="gcommaaccent.ss06" horiz-adv-x="562" 
d="M392 733l11 -26q-40 -31 -53 -60q33 -9 28 -43q-3 -20 -17.5 -32.5t-34.5 -12.5t-30.5 14t-7.5 35q9 71 104 125zM171 74h161q86 0 123 -29.5t29 -91.5q-13 -91 -79 -131.5t-192 -40.5q-140 0 -191.5 27.5t-41.5 99.5q11 77 84 109q-25 23 -17 73q4 29 19 49t50 33
q-49 41 -37 130q13 91 70 135t162 44q73 0 117 -23q47 26 89 26q34 0 59 -6l-15 -62q-20 1 -49 1q-15 0 -35 -3q26 -45 16 -112q-12 -86 -68.5 -128t-161.5 -42q-63 0 -105 15q-32 -14 -35 -34q-3 -23 7 -31t41 -8zM408 302q8 60 -16.5 85.5t-89.5 25.5q-66 0 -97.5 -25.5
t-39.5 -85.5q-8 -53 17 -76t91 -23q65 0 96 23t39 76zM321 -6h-163q-46 0 -67 -17t-26 -54q-5 -38 28 -52t131 -14q160 0 171 80q4 29 -14 43t-60 14z" />
    <glyph glyph-name="gdotaccent.ss06" horiz-adv-x="562" 
d="M327 558q-25 0 -39.5 15t-10.5 41q4 27 22.5 42.5t44.5 15.5q25 0 39.5 -15.5t10.5 -42.5q-4 -25 -23.5 -40.5t-43.5 -15.5zM171 74h161q86 0 123 -29.5t29 -91.5q-13 -91 -79 -131.5t-192 -40.5q-140 0 -191.5 27.5t-41.5 99.5q11 77 84 109q-25 23 -17 73q4 29 19 49
t50 33q-49 41 -37 130q13 91 70 135t162 44q73 0 117 -23q47 26 89 26q34 0 59 -6l-15 -62q-20 1 -49 1q-15 0 -35 -3q26 -45 16 -112q-12 -86 -68.5 -128t-161.5 -42q-63 0 -105 15q-32 -14 -35 -34q-3 -23 7 -31t41 -8zM408 302q8 60 -16.5 85.5t-89.5 25.5
q-66 0 -97.5 -25.5t-39.5 -85.5q-8 -53 17 -76t91 -23q65 0 96 23t39 76zM321 -6h-163q-46 0 -67 -17t-26 -54q-5 -38 28 -52t131 -14q160 0 171 80q4 29 -14 43t-60 14z" />
    <glyph glyph-name="y.ss07" horiz-adv-x="572" 
d="M542 472l-56 -400q-17 -119 -77.5 -175.5t-170.5 -56.5q-120 0 -202 50l37 70q76 -39 165 -39q137 0 158 146l1 8q-51 -35 -96.5 -49t-106.5 -14q-73 0 -113.5 49.5t-27.5 135.5l42 275h90l-39 -253q-10 -66 8 -94.5t69 -28.5q97 0 185 59l44 317h90z" />
    <glyph glyph-name="yacute.ss07" horiz-adv-x="572" 
d="M460 655l-3 -18q-75 -56 -166 -107l-30 34l129 140zM542 472l-56 -400q-17 -119 -77.5 -175.5t-170.5 -56.5q-120 0 -202 50l37 70q76 -39 165 -39q137 0 158 146l1 8q-51 -35 -96.5 -49t-106.5 -14q-73 0 -113.5 49.5t-27.5 135.5l42 275h90l-39 -253q-10 -66 8 -94.5
t69 -28.5q97 0 185 59l44 317h90z" />
    <glyph glyph-name="ycircumflex.ss07" horiz-adv-x="572" 
d="M446 532l-105 77l-131 -77l-32 36l141 118h61l105 -118zM542 472l-56 -400q-17 -119 -77.5 -175.5t-170.5 -56.5q-120 0 -202 50l37 70q76 -39 165 -39q137 0 158 146l1 8q-51 -35 -96.5 -49t-106.5 -14q-73 0 -113.5 49.5t-27.5 135.5l42 275h90l-39 -253
q-10 -66 8 -94.5t69 -28.5q97 0 185 59l44 317h90z" />
    <glyph glyph-name="ydieresis.ss07" horiz-adv-x="572" 
d="M234 566q-20 0 -33 13t-10 34q4 22 20 35t37 13q22 0 34.5 -12.5t9.5 -35.5q-4 -22 -20 -34.5t-38 -12.5zM423 566q-22 0 -34 12.5t-8 34.5q3 23 18.5 35.5t37.5 12.5q21 0 33.5 -13t9.5 -35q-4 -22 -20.5 -34.5t-36.5 -12.5zM542 472l-56 -400q-17 -119 -77.5 -175.5
t-170.5 -56.5q-120 0 -202 50l37 70q76 -39 165 -39q137 0 158 146l1 8q-51 -35 -96.5 -49t-106.5 -14q-73 0 -113.5 49.5t-27.5 135.5l42 275h90l-39 -253q-10 -66 8 -94.5t69 -28.5q97 0 185 59l44 317h90z" />
    <glyph glyph-name="ygrave.ss07" horiz-adv-x="572" 
d="M420 564l-30 -34q-91 51 -166 107l-3 18l70 49zM542 472l-56 -400q-17 -119 -77.5 -175.5t-170.5 -56.5q-120 0 -202 50l37 70q76 -39 165 -39q137 0 158 146l1 8q-51 -35 -96.5 -49t-106.5 -14q-73 0 -113.5 49.5t-27.5 135.5l42 275h90l-39 -253q-10 -66 8 -94.5
t69 -28.5q97 0 185 59l44 317h90z" />
    <glyph glyph-name="uni00660062" horiz-adv-x="903" 
d="M550 668l-36 -253q98 65 185 65q186 0 153 -242q-18 -125 -83.5 -186t-149.5 -61q-51 0 -83.5 15.5t-71.5 48.5l-8 -55h-90l83 588q-82 10 -138 10q-46 0 -66.5 -21t-26.5 -68l-5 -37h142l-10 -76h-143l-56 -396h-90l56 396h-68l10 76h69l5 37q11 84 53 123.5t125 39.5
q40 0 152 -21l2 17h90zM503 333l-29 -203q2 -1 16.5 -12.5t18 -14t16.5 -11t19.5 -11t17.5 -7.5t21 -6.5t20 -1.5q59 0 103.5 42t57.5 130q23 167 -104 167q-62 0 -157 -72z" />
    <glyph glyph-name="uni006600660062" horiz-adv-x="1198" 
d="M845 668l-36 -253q98 65 185 65q186 0 153 -242q-18 -125 -83.5 -186t-149.5 -61q-51 0 -83.5 15.5t-71.5 48.5l-8 -55h-90l83 588q-81 10 -138 10q-46 0 -66.5 -21.5t-26.5 -67.5l-5 -37h142l-10 -76h-143l-55 -396h-90l55 396h-207l-56 -396h-90l56 396h-66l10 76h67
l5 37q11 84 54 123.5t126 39.5q55 0 91 -9l-16 -68q-32 3 -70 3q-46 0 -67.5 -21.5t-27.5 -67.5l-5 -37h207l5 37q11 83 53 122t125 40q45 0 152 -20l2 17h90zM798 333l-28 -195q36 -35 65.5 -53.5t62.5 -18.5q59 0 103.5 42t57.5 130q23 167 -104 167q-62 0 -157 -72z" />
    <glyph glyph-name="uni006600660066" horiz-adv-x="942" 
d="M989 663l-16 -68q-31 3 -70 3q-46 0 -67.5 -21.5t-27.5 -67.5l-5 -37h144l-10 -76h-145l-56 -396h-90l56 396h-206l-56 -396h-90l56 396h-206l-56 -396h-90l56 396h-66l10 76h67l5 37q11 84 54 123.5t126 39.5q55 0 91 -9l-16 -68q-32 3 -70 3q-46 0 -67.5 -21.5
t-27.5 -67.5l-5 -37h206l5 37q11 84 54 123.5t126 39.5q55 0 91 -9l-16 -68q-31 3 -70 3q-46 0 -67.5 -21.5t-27.5 -67.5l-5 -37h206l5 37q11 84 54 123.5t126 39.5q55 0 91 -9z" />
    <glyph glyph-name="uni006600660068" horiz-adv-x="1208" 
d="M868 668l-36 -259q106 71 193 71q79 0 107 -43.5t14 -140.5l-42 -296h-90l39 273q9 66 -7.5 94.5t-69.5 28.5q-39 0 -74 -18t-83 -57l-45 -321h-90l83 588q-82 10 -139 10q-46 0 -66.5 -21t-26.5 -68l-5 -37h142l-10 -76h-143l-55 -396h-90l55 396h-229l-56 -396h-90
l56 396h-66l10 76h67l5 37q11 84 54 123.5t126 39.5q55 0 91 -9l-16 -68q-32 3 -70 3q-46 0 -67.5 -21.5t-27.5 -67.5l-5 -37h229l5 37q12 84 54 123.5t125 39.5q40 0 152 -21l2 17h90z" />
    <glyph glyph-name="uni00660066006A" horiz-adv-x="876" 
d="M828 472l-62 -443q-12 -87 -47 -133.5t-108 -64.5l-10 71q37 17 52 42.5t23 84.5l51 367h-218l-55 -396h-90l55 396h-219l-56 -396h-90l56 396h-66l10 76h67l5 37q11 84 54 123.5t126 39.5q55 0 91 -9l-16 -68q-32 3 -70 3q-46 0 -67.5 -21.5t-27.5 -67.5l-5 -37h219
l5 37q12 84 54 123.5t125 39.5q35 0 102 -11l-18 -68q-54 5 -80 5q-46 0 -66.5 -21t-26.5 -68l-5 -37h308zM812 659q23 0 36.5 -13t10.5 -37q-4 -23 -21 -36.5t-40 -13.5t-37 13.5t-10 36.5q3 24 20.5 37t40.5 13z" />
    <glyph glyph-name="uni00660066006B" horiz-adv-x="1175" 
d="M1167 471l-216 -192q98 -122 181 -279h-105q-68 125 -146 217l-99 -88l-18 -129h-90l83 588q-70 10 -139 10q-46 0 -66.5 -21t-26.5 -68l-5 -37h142l-10 -76h-143l-55 -396h-90l55 396h-219l-56 -396h-90l56 396h-66l10 76h67l5 37q11 84 54 123.5t126 39.5q55 0 91 -9
l-16 -68q-32 3 -70 3q-46 0 -67.5 -21.5t-27.5 -67.5l-5 -37h219l5 37q12 84 54 123.5t125 39.5q54 0 152 -21l2 17h90l-59 -420l254 223h114z" />
    <glyph glyph-name="uni006600660074" horiz-adv-x="938" 
d="M779 396l-33 -239q-9 -78 68 -78q21 0 81 5l10 -67q-60 -21 -123 -21q-68 0 -103.5 43.5t-24.5 114.5l34 242h-192l-56 -396h-90l56 396h-206l-56 -396h-90l56 396h-66l10 76h67l5 37q11 84 54 123.5t126 39.5q55 0 91 -9l-16 -68q-32 3 -70 3q-46 0 -67.5 -21.5
t-27.5 -67.5l-5 -37h206l5 37q11 84 54 123.5t126 39.5q55 0 91 -9l-16 -68q-31 3 -70 3q-46 0 -67.5 -21.5t-27.5 -67.5l-5 -37h191l17 118h90l-16 -118h139l-10 -76h-139z" />
    <glyph glyph-name="uni00660068" horiz-adv-x="890" 
d="M550 668l-36 -259q107 71 193 71q79 0 107 -43.5t14 -140.5l-41 -296h-90l38 273q9 66 -7.5 94.5t-68.5 28.5q-62 0 -158 -75l-45 -321h-90l83 588q-82 10 -138 10q-46 0 -66.5 -21t-26.5 -68l-5 -37h142l-10 -76h-143l-56 -396h-90l56 396h-68l10 76h69l5 37
q11 84 53 123.5t125 39.5q40 0 152 -21l2 17h90z" />
    <glyph glyph-name="uni0066006A" horiz-adv-x="568" 
d="M521 472l-62 -443q-12 -87 -47 -133.5t-109 -64.5l-10 71q38 17 53 42.5t23 84.5l51 367h-218l-56 -396h-90l56 396h-68l10 76h69l5 37q11 84 53 123.5t125 39.5q32 0 107 -12l-17 -67q-56 5 -85 5q-46 0 -66.5 -21t-26.5 -68l-5 -37h308zM504 659q23 0 37 -13t10 -37
q-3 -23 -20.5 -36.5t-40.5 -13.5t-36.5 13.5t-10.5 36.5q4 24 21 37t40 13z" />
    <glyph glyph-name="uni0066006B" horiz-adv-x="867" 
d="M859 471l-216 -191q99 -123 181 -280h-105q-66 125 -147 218l-98 -87l-18 -131h-90l83 588q-82 10 -138 10q-46 0 -66.5 -21t-26.5 -68l-5 -37h142l-10 -76h-143l-56 -396h-90l56 396h-68l10 76h69l5 37q11 84 53 123.5t125 39.5q40 0 152 -21l2 17h90l-59 -418l254 221
h114z" />
    <glyph glyph-name="uni00660074" horiz-adv-x="638" 
d="M479 396l-33 -239q-9 -78 68 -78q21 0 81 5l10 -67q-60 -21 -123 -21q-68 0 -103.5 43.5t-24.5 114.5l34 242h-188l-56 -396h-90l56 396h-66l10 76h67l5 37q11 84 54 123.5t126 39.5q55 0 91 -9l-16 -68q-32 3 -70 3q-46 0 -67.5 -21.5t-27.5 -67.5l-5 -37h187l17 118h90
l-16 -118h139l-10 -76h-139z" />
    <glyph glyph-name="uni00720066" horiz-adv-x="702" 
d="M759 660l-18 -65q-40 3 -78 3q-46 0 -67 -21.5t-27 -67.5l-5 -37h143l-10 -76h-144l-55 -396h-90l55 396h-60l10 76h61l5 37q12 84 54 123.5t125 39.5q58 0 101 -12zM183 472l-11 -78q71 86 154 86q33 0 60 -3l-20 -89q-23 2 -56 2q-86 0 -153 -101l-40 -289h-90l66 472
h90z" />
    <glyph glyph-name="uni00720074" horiz-adv-x="701" 
d="M542 396l-33 -239q-9 -78 68 -78q21 0 81 5l10 -67q-60 -21 -123 -21q-68 0 -103.5 43.5t-24.5 114.5l34 242h-57l10 76h57l17 118h90l-16 -118h139l-10 -76h-139zM183 472l-11 -78q71 86 154 86q33 0 60 -3l-20 -89q-23 2 -56 2q-86 0 -153 -101l-40 -289h-90l66 472h90
z" />
    <glyph glyph-name="zero.osf" horiz-adv-x="595" 
d="M339 528q121 0 175 -74t37 -196q-17 -120 -91.5 -193.5t-196.5 -73.5t-175.5 73.5t-37.5 193.5q17 122 92 196t197 74zM275 74q78 0 125 51t58 133q12 83 -20.5 135t-110.5 52q-79 0 -125.5 -51.5t-58.5 -135.5q-11 -82 21 -133t111 -51z" />
    <glyph glyph-name="one.osf" horiz-adv-x="485" 
d="M420 78l-11 -78h-385l11 78h160l47 336q-92 -30 -171 -47l-10 58q105 36 214 92h73l-61 -439h133z" />
    <glyph glyph-name="two.osf" horiz-adv-x="520" 
d="M449 0h-453l9 66q204 96 271 139q113 72 123 138q7 48 -19.5 77.5t-75.5 29.5q-110 0 -232 -53l-17 65q144 65 255 65q91 0 139 -49.5t36 -131.5q-5 -39 -28.5 -74t-51.5 -59.5t-77.5 -52t-85.5 -44t-97 -41.5q60 3 72 3h243z" />
    <glyph glyph-name="three.osf" horiz-adv-x="526" 
d="M76 407l-12 62q132 58 247 58q90 0 139 -46.5t38 -121.5q-7 -52 -42 -87t-87 -51q123 -36 108 -144q-11 -81 -78 -128.5t-168 -47.5q-138 0 -244 61l36 64q103 -53 214 -53q62 0 103.5 28.5t48.5 77.5q7 53 -30.5 79.5t-113.5 26.5h-88l11 76h88q143 0 156 86
q7 49 -23.5 78t-88.5 29q-96 0 -214 -47z" />
    <glyph glyph-name="four.osf" horiz-adv-x="599" 
d="M438 0l-17 -115h-90l16 115h-354l6 64l419 444h91l-61 -435h102l-10 -73h-102zM357 73l46 326q-32 -38 -57 -63l-181 -198l-26 -24l-26.5 -25t-17.5 -16h262z" />
    <glyph glyph-name="five.osf" horiz-adv-x="543" 
d="M189 431l-42 -196q71 35 165 35q91 0 137 -49.5t34 -134.5q-13 -91 -84.5 -144.5t-171.5 -53.5q-138 0 -242 61l36 68q102 -53 206 -53q66 0 113.5 35t55.5 91q7 53 -25.5 85.5t-93.5 32.5q-66 0 -146 -40l-75 12l69 328h394l-11 -77h-319z" />
    <glyph glyph-name="six.osf" horiz-adv-x="569" 
d="M552 587l-32 -66q-68 23 -136 23q-93 0 -158.5 -64t-86.5 -176q86 86 209 86q92 0 140.5 -51.5t36.5 -137.5q-14 -98 -84.5 -154t-174.5 -56q-127 0 -183 76t-37 213q22 154 117.5 247t226.5 93q90 0 162 -33zM277 65q62 0 107.5 37t54.5 103q8 56 -26 85t-100 29
q-101 0 -181 -103q-2 -70 35 -110.5t110 -40.5z" />
    <glyph glyph-name="seven.osf" horiz-adv-x="464" 
d="M495 508l-9 -70q-97 -104 -188 -251t-149 -290h-107q65 145 155.5 288.5t186.5 243.5h-346l11 79h446z" />
    <glyph glyph-name="eight.osf" horiz-adv-x="582" 
d="M347 620q104 0 157.5 -42.5t42.5 -115.5q-14 -99 -144 -137q76 -23 108 -62t23 -98q-11 -82 -85 -128t-191 -46q-129 0 -188 45t-48 129q15 109 162 154q-106 44 -92 139q11 75 79 118.5t176 43.5zM335 559q-63 0 -105.5 -28t-48.5 -72q-6 -43 25 -68.5t110 -42.5
q135 28 146 113q7 44 -28 71t-99 27zM263 292q-139 -34 -151 -121q-7 -51 33 -80t116 -29q75 0 122.5 28.5t54.5 78.5q6 48 -32.5 75.5t-142.5 47.5z" />
    <glyph glyph-name="nine.osf" horiz-adv-x="569" 
d="M29 -69l32 66q68 -23 136 -23q94 0 162 64.5t89 175.5q-86 -86 -215 -86q-92 0 -140.5 51.5t-36.5 137.5q14 98 84.5 154t174.5 56q117 0 177.5 -79.5t42.5 -209.5q-22 -154 -117.5 -247t-226.5 -93q-90 0 -162 33zM268 199q45 0 98 24t89 79q2 69 -38 110t-113 41
q-62 0 -107.5 -37t-54.5 -103q-8 -56 26 -85t100 -29z" />
    <glyph glyph-name="zero.tf" 
d="M333 620q125 0 179.5 -81.5t32.5 -234.5q-21 -151 -98 -232t-202 -81t-179.5 81t-33.5 232q21 153 98 234.5t203 81.5zM256 74q164 0 196 230q34 233 -131 233q-81 0 -130.5 -59.5t-65.5 -173.5q-32 -230 131 -230z" />
    <glyph glyph-name="one.tf" 
d="M472 78l-11 -78h-393l11 78h155l60 426q-83 -30 -171 -46l-10 59q114 35 214 93h74l-75 -532h146z" />
    <glyph glyph-name="two.tf" 
d="M108 490l-17 65q147 65 255 65q91 0 138.5 -53t34.5 -140q-13 -94 -148 -200q-50 -38 -225 -153q68 4 95 4h242l-11 -78h-453l9 66l114.5 81.5l112.5 80.5t85.5 68t69.5 71t27 62q7 51 -20.5 82.5t-78.5 31.5q-96 0 -230 -53z" />
    <glyph glyph-name="three.tf" 
d="M111 497l-13 62q130 59 250 59q90 0 139 -46.5t38 -122.5q-15 -99 -118 -136q113 -39 96 -146q-11 -81 -78 -128.5t-168 -47.5q-139 0 -245 61l36 64q98 -51 216 -51q63 0 104 28t48 76q7 53 -31 79t-115 26h-88l11 78h88q149 0 162 90q6 47 -23 75t-83 28
q-105 0 -226 -48z" />
    <glyph glyph-name="four.tf" 
d="M437 136l-19 -136h-90l19 136h-347l6 64l407 410h91l-57 -401h95l-10 -73h-95zM357 209l41 293l-49 -53l-185 -185q-10 -9 -22.5 -21.5l-20.5 -20.5t-14 -13h250z" />
    <glyph glyph-name="five.tf" 
d="M220 532l-42 -197q82 38 160 38q91 0 137 -49.5t34 -134.5q-12 -91 -83.5 -144.5t-171.5 -53.5q-137 0 -243 61l36 67q100 -50 206 -50q67 0 114 34t55 90q8 53 -25 85.5t-94 32.5q-67 0 -146 -41l-74 12l69 328h393l-11 -78h-314z" />
    <glyph glyph-name="six.tf" 
d="M543 587l-32 -66q-68 23 -136 23q-93 0 -158.5 -64t-86.5 -176q86 86 209 86q92 0 140.5 -51.5t36.5 -137.5q-14 -98 -84.5 -154t-174.5 -56q-127 0 -183 76t-37 213q22 154 117.5 247t226.5 93q90 0 162 -33zM268 65q62 0 107.5 37t54.5 103q8 56 -26 85t-100 29
q-101 0 -181 -103q-2 -70 35 -110.5t110 -40.5z" />
    <glyph glyph-name="seven.tf" 
d="M556 610l-9 -69q-97 -105 -187.5 -251.5t-149.5 -289.5h-107q64 144 155 287.5t187 244.5h-346l11 78h446z" />
    <glyph glyph-name="eight.tf" 
d="M337 620q104 0 157.5 -42.5t42.5 -115.5q-14 -99 -144 -137q76 -23 108 -62t23 -98q-11 -82 -85 -128t-191 -46q-129 0 -188 45t-48 129q15 109 162 154q-106 44 -92 139q11 75 79 118.5t176 43.5zM325 559q-63 0 -105.5 -28t-48.5 -72q-6 -43 25 -68.5t110 -42.5
q135 28 146 113q7 44 -28 71t-99 27zM253 292q-139 -34 -151 -121q-7 -51 33 -80t116 -29q75 0 122.5 28.5t54.5 78.5q6 48 -32.5 75.5t-142.5 47.5z" />
    <glyph glyph-name="nine.tf" 
d="M32 24l32 66q68 -23 136 -23q94 0 162 64.5t89 175.5q-86 -86 -215 -86q-92 0 -140.5 51.5t-36.5 137.5q14 98 84.5 154t174.5 56q117 0 177.5 -79.5t42.5 -209.5q-22 -154 -117.5 -247t-226.5 -93q-90 0 -162 33zM271 292q45 0 98 24t89 79q2 69 -38 110t-113 41
q-62 0 -107.5 -37t-54.5 -103q-8 -56 26 -85t100 -29z" />
    <glyph glyph-name="zero.zero" horiz-adv-x="615" 
d="M360 620q127 0 182 -81.5t34 -234.5q-22 -151 -99.5 -232t-205.5 -81q-127 0 -182 81t-34 232q21 153 99 234.5t206 81.5zM146 192l310 300q-36 45 -108 45q-168 0 -200 -233q-9 -67 -2 -112zM478 447l-316 -307q32 -66 121 -66q168 0 200 230q12 90 -5 143z" />
    <glyph glyph-name="zero.dnom" horiz-adv-x="395" 
d="M218 381q80 0 114 -50t20 -145q-13 -94 -61 -144.5t-128 -50.5t-114 50.5t-20 144.5q14 95 61.5 145t127.5 50zM171 47q52 0 80.5 34t38.5 105t-9 105.5t-71 34.5t-80.5 -34.5t-38.5 -105.5t9 -105t71 -34z" />
    <glyph glyph-name="one.dnom" horiz-adv-x="320" 
d="M271 53l-8 -53h-254l8 53h101l36 262q-40 -12 -105 -27l-7 34q78 29 134 57h49l-46 -326h92z" />
    <glyph glyph-name="two.dnom" horiz-adv-x="344" 
d="M286 0h-282l7 45l69 49.5t68.5 49.5t48 40t40.5 43.5t15 37.5q9 68 -61 68q-55 0 -129 -32l-13 44q89 40 159 40q58 0 86.5 -32t20.5 -88q-4 -27 -19 -51.5t-48.5 -52t-58 -44.5l-76.5 -51l-23 -15q38 2 52 2h151z" />
    <glyph glyph-name="three.dnom" horiz-adv-x="344" 
d="M58 302l-9 42q81 36 154 36q58 0 88 -28t23 -77q-10 -63 -77 -84q33 -12 50 -36t13 -54q-7 -53 -47 -81.5t-106 -28.5q-87 0 -151 39l24 42q61 -32 132 -32q81 0 89 62q9 64 -86 64h-61l8 51h61q85 0 92 51q4 30 -12.5 46t-52.5 16q-62 0 -132 -28z" />
    <glyph glyph-name="four.dnom" horiz-adv-x="380" 
d="M277 80l-11 -80h-60l11 80h-219l4 44l258 255h59l-35 -250h60l-7 -49h-60zM224 129l26 182q-10 -13 -30 -31l-116 -111q-22 -22 -42 -40h162z" />
    <glyph glyph-name="five.dnom" horiz-adv-x="352" 
d="M124 323l-26 -119q56 28 104 28q59 0 86 -30.5t20 -87.5q-8 -59 -51 -91t-108 -32q-84 0 -150 39l25 45q63 -33 125 -33q41 0 68 20t32 55q5 34 -13.5 53.5t-55.5 19.5q-39 0 -91 -25l-51 7l43 203h249l-7 -52h-199z" />
    <glyph glyph-name="six.dnom" horiz-adv-x="374" 
d="M343 361l-21 -44q-40 13 -84 13q-59 0 -99 -38.5t-52 -105.5q23 27 57.5 39.5t62.5 12.5q64 0 95.5 -32t24.5 -85q-8 -59 -51.5 -94.5t-109.5 -35.5q-80 0 -116.5 47.5t-24.5 132.5q13 96 73 153t145 57q57 0 100 -20zM173 42q38 0 64.5 22.5t31.5 59.5q4 32 -16 50.5
t-58 18.5q-79 0 -113 -70q0 -35 24 -58.5t67 -22.5z" />
    <glyph glyph-name="seven.dnom" horiz-adv-x="316" 
d="M317 379l-6 -46q-62 -66 -118 -156t-91 -177h-71q84 193 212 326h-211l8 53h277z" />
    <glyph glyph-name="eight.dnom" horiz-adv-x="376" 
d="M212 381q64 0 97 -26t27 -71q-9 -61 -86 -87q88 -29 78 -98q-7 -50 -53.5 -79.5t-117.5 -28.5q-79 0 -116.5 28.5t-30.5 79.5q10 65 98 94q-63 29 -54 89q7 46 49 72.5t109 26.5zM204 339q-38 0 -62.5 -15.5t-28.5 -41.5t15.5 -43t63.5 -28q79 19 87 72q3 26 -17.5 41
t-57.5 15zM160 177q-82 -22 -89 -74q-4 -29 20 -46.5t68 -17.5q43 0 72 17.5t33 45.5t-21.5 45.5t-82.5 29.5z" />
    <glyph glyph-name="nine.dnom" horiz-adv-x="366" 
d="M22 11l21 44q40 -13 84 -13q59 0 99 38.5t52 105.5q-23 -27 -57.5 -39.5t-62.5 -12.5q-64 0 -95.5 32t-24.5 85q8 59 51.5 94.5t109.5 35.5q80 0 116.5 -47.5t24.5 -132.5q-13 -96 -73 -153t-145 -57q-57 0 -100 20zM170 179q79 0 113 70q0 35 -24 58.5t-67 22.5
q-38 0 -64.5 -22.5t-31.5 -59.5q-4 -32 16 -50.5t58 -18.5z" />
    <glyph glyph-name="zero.numr" horiz-adv-x="395" 
d="M249 620q80 0 114 -50t20 -145q-13 -94 -61 -144.5t-128 -50.5t-114 50.5t-20 144.5q14 95 61.5 145t127.5 50zM202 286q52 0 80.5 34t38.5 105t-9 105.5t-71 34.5t-80.5 -34.5t-38.5 -105.5t9 -105t71 -34z" />
    <glyph glyph-name="one.numr" horiz-adv-x="320" 
d="M301 284l-8 -53h-254l8 53h101l36 262q-40 -12 -105 -27l-7 34q78 29 134 57h49l-46 -326h92z" />
    <glyph glyph-name="two.numr" horiz-adv-x="344" 
d="M316 235h-282l7 45l69 49.5t68.5 49.5t48 40t40.5 43.5t15 37.5q9 68 -61 68q-55 0 -129 -32l-13 44q89 40 159 40q58 0 86.5 -32t20.5 -88q-4 -27 -19 -51.5t-48.5 -52t-58 -44.5l-76.5 -51l-23 -15q38 2 52 2h151z" />
    <glyph glyph-name="three.numr" horiz-adv-x="344" 
d="M89 543l-9 42q81 36 154 36q58 0 88 -28t23 -77q-10 -63 -77 -84q33 -12 50 -36t13 -54q-7 -53 -47 -81.5t-106 -28.5q-86 0 -151 39l24 42q61 -32 132 -32q81 0 89 62q9 64 -86 64h-61l8 51h61q85 0 92 51q4 30 -12.5 46t-52.5 16q-62 0 -132 -28z" />
    <glyph glyph-name="four.numr" horiz-adv-x="380" 
d="M307 311l-11 -80h-60l11 80h-219l4 44l258 255h59l-35 -250h60l-7 -49h-60zM254 360l26 182q-10 -13 -30 -31l-116 -111q-22 -22 -42 -40h162z" />
    <glyph glyph-name="five.numr" horiz-adv-x="352" 
d="M154 558l-26 -119q56 28 104 28q59 0 86 -30.5t20 -87.5q-8 -59 -51 -91t-108 -32q-84 0 -150 39l25 45q63 -33 125 -33q41 0 68 20t32 55q5 34 -13.5 53.5t-55.5 19.5q-39 0 -91 -25l-51 7l43 203h249l-7 -52h-199z" />
    <glyph glyph-name="six.numr" horiz-adv-x="374" 
d="M374 600l-21 -44q-40 13 -84 13q-59 0 -99 -38.5t-52 -105.5q23 27 57.5 39.5t62.5 12.5q64 0 95.5 -32t24.5 -85q-8 -59 -51.5 -94.5t-109.5 -35.5q-80 0 -116.5 47.5t-24.5 132.5q13 96 73 153t145 57q57 0 100 -20zM204 281q38 0 64.5 22.5t31.5 59.5q4 32 -16 50.5
t-58 18.5q-79 0 -113 -70q0 -35 24 -58.5t67 -22.5z" />
    <glyph glyph-name="seven.numr" horiz-adv-x="316" 
d="M347 610l-6 -46q-62 -66 -118 -156t-91 -177h-71q84 193 212 326h-211l8 53h277z" />
    <glyph glyph-name="eight.numr" horiz-adv-x="376" 
d="M243 620q64 0 97 -26t27 -71q-9 -61 -86 -87q88 -29 78 -98q-7 -50 -53.5 -79.5t-117.5 -28.5q-79 0 -116.5 28.5t-30.5 79.5q10 65 98 94q-63 29 -54 89q7 46 49 72.5t109 26.5zM235 578q-38 0 -62.5 -15.5t-28.5 -41.5t15.5 -43t63.5 -28q79 19 87 72q3 26 -17.5 41
t-57.5 15zM191 416q-83 -22 -89 -74q-4 -29 20 -46.5t68 -17.5q43 0 72 17.5t33 45.5t-21.5 45.5t-82.5 29.5z" />
    <glyph glyph-name="nine.numr" horiz-adv-x="366" 
d="M53 250l21 44q40 -13 84 -13q59 0 99 38.5t52 105.5q-23 -27 -57.5 -39.5t-62.5 -12.5q-64 0 -95.5 32t-24.5 85q8 59 51.5 94.5t109.5 35.5q80 0 116.5 -47.5t24.5 -132.5q-13 -96 -73 -153t-145 -57q-57 0 -100 20zM201 418q79 0 113 70q0 35 -24 58.5t-67 22.5
q-38 0 -64.5 -22.5t-31.5 -59.5q-4 -32 16 -50.5t58 -18.5z" />
    <glyph glyph-name="backslash.case" horiz-adv-x="411" 
d="M185 662l116 -731h-76l-118 731h78z" />
    <glyph glyph-name="bullet.case" horiz-adv-x="318" 
d="M95 309q5 34 29.5 55.5t58.5 21.5q35 0 53 -21.5t13 -55.5t-28.5 -55.5t-58.5 -21.5t-53.5 22t-13.5 55z" />
    <glyph glyph-name="exclamdown.case" horiz-adv-x="220" 
d="M149 519q-21 0 -32 13.5t-8 33.5q2 20 17 34t36 14t32.5 -13.5t8.5 -34.5t-18 -34t-36 -13zM99 411h71l-45 -411h-97z" />
    <glyph glyph-name="periodcentered.case" horiz-adv-x="273" 
d="M93 314q3 24 20 39.5t42 15.5q24 0 37 -15.5t10 -39.5t-20.5 -39.5t-41.5 -15.5t-37.5 15.5t-9.5 39.5z" />
    <glyph glyph-name="questiondown.case" horiz-adv-x="513" 
d="M321 520q-21 0 -32 13t-9 34q3 21 18 34.5t36 13.5t32.5 -13.5t8.5 -34.5q-3 -20 -18 -33.5t-36 -13.5zM436 123l20 -67q-147 -65 -255 -65q-90 0 -138 51t-37 134q10 71 72 117.5t167 63.5l8 72h73l-6 -138q-99 -7 -155.5 -34.5t-62.5 -71.5q-7 -50 21.5 -80.5
t83.5 -30.5q13 0 26.5 1t30 4.5l27.5 6t31.5 8.5l29 8.5t33 10.5t31.5 10z" />
    <glyph glyph-name="slash.case" horiz-adv-x="419" 
d="M335 662h78l-337 -762h-76z" />
    <glyph glyph-name="braceleft.case" horiz-adv-x="385" 
d="M275 495l-4 -29q-11 -79 -40.5 -115t-88.5 -47q56 -9 75.5 -45t7.5 -116l-4 -29q-6 -49 13.5 -75t79.5 -36l-7 -63q-100 7 -141 49.5t-29 124.5l4 29q10 76 -9.5 101.5t-89.5 28.5l9 63q70 3 97.5 29.5t37.5 100.5l4 29q12 82 65 124t155 49l-11 -63q-63 -9 -90.5 -35.5
t-33.5 -74.5z" />
    <glyph glyph-name="braceright.case" horiz-adv-x="385" 
d="M271 494l-4 -29q-10 -76 9.5 -101.5t89.5 -28.5l-9 -63q-70 -3 -97.5 -29.5t-37.5 -100.5l-4 -29q-12 -82 -65 -124t-155 -49l11 63q63 9 90.5 35.5t33.5 74.5l4 29q11 79 40.5 115t88.5 47q-56 9 -75.5 45t-7.5 116l4 29q6 49 -13.5 75t-79.5 36l7 63q100 -7 141 -49.5
t29 -124.5z" />
    <glyph glyph-name="bracketleft.case" horiz-adv-x="362" 
d="M385 660l-11 -71h-156l-80 -570h156l-10 -72h-239l101 713h239z" />
    <glyph glyph-name="bracketright.case" horiz-adv-x="362" 
d="M1 -53l11 71h156l80 570h-156l10 72h239l-101 -713h-239z" />
    <glyph glyph-name="parenleft.case" horiz-adv-x="314" 
d="M284 660l49 -34q-75 -77 -115 -148t-55 -175q-15 -103 5.5 -174t73.5 -149l-58 -34q-67 85 -93 165t-10 192t64 192t139 165z" />
    <glyph glyph-name="parenright.case" horiz-adv-x="311" 
d="M50 -54l-49 34q75 77 115 148t55 175q15 103 -5.5 174t-73.5 149l58 34q67 -85 93 -165t10 -192t-64 -192t-139 -165z" />
    <glyph glyph-name="emdash.case" horiz-adv-x="900" 
d="M76 348h773l-10 -69h-773z" />
    <glyph glyph-name="endash.case" horiz-adv-x="500" 
d="M76 348h373l-10 -69h-373z" />
    <glyph glyph-name="hyphen.case" horiz-adv-x="395" 
d="M81 356h268l-11 -80h-268z" />
    <glyph glyph-name="guillemotleft.case" horiz-adv-x="543" 
d="M329 460l-139 -126l-42 -33q21 -17 33 -32l103 -126l-56 -46l-176 205l233 206zM512 460l-139 -126q-19 -16 -42 -33q21 -17 33 -32l103 -126l-56 -46l-176 205l233 206z" />
    <glyph glyph-name="guillemotright.case" horiz-adv-x="543" 
d="M311 302l-234 -205l-39 43l138 126q24 21 46 36q-20 17 -35 35l-104 126l52 45zM494 302l-234 -205l-39 43l138 126q24 21 46 36q-20 17 -35 35l-104 126l52 45z" />
    <glyph glyph-name="guilsinglleft.case" horiz-adv-x="361" 
d="M329 460l-139 -126l-42 -33q21 -17 33 -32l103 -126l-56 -46l-176 205l233 206z" />
    <glyph glyph-name="guilsinglright.case" horiz-adv-x="361" 
d="M311 302l-234 -205l-39 43l138 126q24 21 46 36q-20 17 -35 35l-104 126l52 45z" />
    <glyph glyph-name="florin.tf" 
d="M557 498l-36 -56q-64 37 -136 37q-130 0 -192 -187l-12 -35h229l-21 -60h-228l-65 -197h-88l65 197h-62l20 60h62l12 35q44 134 112.5 196.5t166.5 62.5q101 0 173 -53z" />
    <glyph glyph-name="cent.tf" 
d="M526 494l-36 -58q-59 38 -142 38q-67 0 -119 -50t-67 -157q-15 -103 21.5 -152.5t103.5 -49.5q98 0 172 57l26 -54q-80 -68 -182 -76l-9 -56h-61l8 56q-88 8 -138 75t-31 200q18 129 86.5 199t159.5 80l9 64h62l-9 -63q84 -8 146 -53z" />
    <glyph glyph-name="dollar.tf" 
d="M511 495l-31 -63q-108 47 -181 47q-45 0 -74 -19t-34 -51q-5 -35 20 -53t117 -48q95 -30 129 -67t25 -99q-9 -67 -65.5 -108t-144.5 -43l-8 -57h-62l8 60q-105 14 -180 82l42 63q90 -78 200 -78q53 0 85.5 21.5t37.5 57.5t-23 57t-118 51q-94 32 -126 66t-24 95
q9 60 58.5 97t125.5 40l9 66h62l-10 -69q80 -9 162 -48z" />
    <glyph glyph-name="Euro.tf" 
d="M546 494l-36 -58q-62 40 -142 40q-51 0 -96.5 -31t-71.5 -99h247l-21 -50h-240q-4 -17 -5 -29q0 -3 -1.5 -13.5t-1.5 -16.5h223l-21 -50h-202q11 -124 129 -124q95 0 173 59l25 -54q-49 -41 -100 -59t-120 -18q-81 0 -136.5 47.5t-59.5 148.5h-75l7 50h69q0 4 0.5 9
t1.5 11.5t1 9.5l5 29h-68l7 50h74q32 100 102.5 151t153.5 51q104 0 179 -54z" />
    <glyph glyph-name="sterling.tf" 
d="M567 498l-36 -59q-62 40 -135 40q-63 0 -103.5 -42.5t-62.5 -144.5l-5 -23h197l-9 -62h-202l-29 -132h300l-11 -75h-468l9 66l81 7l30 134h-88l9 62h93l5 23q30 136 92 197.5t160 61.5q104 0 173 -53z" />
    <glyph glyph-name="yen.tf" 
d="M361 246h126l-7 -50h-154l-1 -1l-7 -51h154l-7 -50h-155l-13 -94h-92l13 94h-150l7 50h151l7 51v1h-150l6 50h122l-126 299h94l101 -226q8 -18 10 -43q10 26 23 43l163 226h95z" />
    <glyph glyph-name="arrowdown.ss08" horiz-adv-x="669" 
d="M335 568q119 0 204 -85t85 -204q0 -120 -85 -205t-204 -85q-120 0 -205 85t-85 205q0 119 85 204t205 85zM313 430v-230l-101 100l-31 -31l154 -148l154 148l-31 31l-101 -100v230h-44z" />
    <glyph glyph-name="arrowdownleft.ss08" horiz-adv-x="669" 
d="M624 279q0 119 -85 204t-204 85q-120 0 -205 -85t-85 -204q0 -120 85 -205t205 -85q119 0 204 85t85 205zM219 162v219h44v-144l163 163l31 -30l-163 -164h143v-44h-218z" />
    <glyph glyph-name="arrowdownright.ss08" horiz-adv-x="669" 
d="M624 279q0 119 -85 204t-204 85q-120 0 -205 -85t-85 -204q0 -120 85 -205t205 -85q119 0 204 85t85 205zM232 206h143l-163 164l31 30l163 -163v144h44v-219h-218v44z" />
    <glyph glyph-name="arrowleft.ss08" horiz-adv-x="669" 
d="M335 568q119 0 204 -85t85 -204q0 -120 -85 -205t-204 -85q-120 0 -205 85t-85 205q0 119 85 204t205 85zM177 279l148 -155l31 31l-100 101h230v44h-230l100 101l-31 32z" />
    <glyph glyph-name="arrowright.ss08" horiz-adv-x="669" 
d="M335 568q119 0 204 -85t85 -204q0 -120 -85 -205t-204 -85q-120 0 -205 85t-85 205q0 119 85 204t205 85zM313 401l100 -101h-229v-44h229l-100 -101l31 -31l148 155l-148 154z" />
    <glyph glyph-name="arrowup.ss08" horiz-adv-x="669" 
d="M335 568q119 0 204 -85t85 -204q0 -120 -85 -205t-204 -85q-120 0 -205 85t-85 205q0 119 85 204t205 85zM181 288l31 -31l101 100v-229h44v229l101 -100l31 31l-154 148z" />
    <glyph glyph-name="arrowupleft.ss08" horiz-adv-x="669" 
d="M624 279q0 119 -85 204t-204 85q-120 0 -205 -85t-85 -204q0 -120 85 -205t205 -85q119 0 204 85t85 205zM437 351h-143l163 -163l-31 -31l-163 163v-144h-44v219h218v-44z" />
    <glyph glyph-name="arrowupright.ss08" horiz-adv-x="669" 
d="M624 279q0 119 -85 204t-204 85q-120 0 -205 -85t-85 -204q0 -120 85 -205t205 -85q119 0 204 85t85 205zM450 395v-219h-44v144l-163 -163l-31 31l163 163h-143v44h218z" />
    <glyph glyph-name="arrowdown.ss13" horiz-adv-x="508" 
d="M255 488q85 0 146.5 -61.5t61.5 -147.5t-61 -147.5t-147 -61.5q-87 0 -148.5 61.5t-61.5 147.5t61.5 147.5t148.5 61.5zM255 459q-75 0 -128 -53t-53 -127t53 -127.5t128 -53.5q73 0 126 53.5t53 127.5t-52.5 127t-126.5 53zM238 388v-165l-71 72l-24 -24l112 -106
l111 106l-25 23l-70 -71v165h-33z" />
    <glyph glyph-name="arrowdownleft.ss13" horiz-adv-x="508" 
d="M255 488q85 0 146.5 -61.5t61.5 -147.5t-61 -147.5t-147 -61.5q-87 0 -148.5 61.5t-61.5 147.5q0 85 61 147t149 62zM255 459q-75 0 -128 -52.5t-53 -127.5t52.5 -128t128.5 -53q74 0 126.5 53t52.5 128q0 74 -52.5 127t-126.5 53zM346 344l-117 -117h101v-31h-156v156
h32v-101l116 116z" />
    <glyph glyph-name="arrowdownright.ss13" horiz-adv-x="508" 
d="M254 488q87 0 148 -62t61 -147q0 -86 -61.5 -147.5t-147.5 -61.5t-147.5 61.5t-61.5 147.5t61.5 147.5t147.5 61.5zM254 459q-75 0 -127.5 -53t-52.5 -127q0 -75 52.5 -128t127.5 -53t127.5 53t52.5 128q0 74 -52.5 127t-127.5 53zM302 251v101h33v-156h-157v31h101
l-117 117l24 23z" />
    <glyph glyph-name="arrowleft.ss13" horiz-adv-x="508" 
d="M255 488q85 0 146.5 -61.5t61.5 -147.5t-61 -147.5t-147 -61.5q-87 0 -148.5 61.5t-61.5 147.5t61.5 147.5t148.5 61.5zM255 459q-75 0 -128 -52.5t-53 -127.5t52.5 -128t128.5 -53q74 0 126.5 53t52.5 128q0 74 -52.5 127t-126.5 53zM363 295h-164l71 70l-23 24
l-107 -110l107 -112l23 24l-71 71h164v33z" />
    <glyph glyph-name="arrowright.ss13" horiz-adv-x="508" 
d="M254 488q86 0 147.5 -61.5t61.5 -147.5t-61.5 -147.5t-147.5 -61.5t-147.5 61.5t-61.5 147.5t61.5 147.5t147.5 61.5zM254 459q-75 0 -127.5 -53t-52.5 -127q0 -75 52.5 -128t127.5 -53t127.5 53t52.5 128q0 74 -52.5 127t-127.5 53zM309 262l-71 -71l23 -24l107 112
l-107 110l-23 -24l71 -70h-164v-33h164z" />
    <glyph glyph-name="arrowup.ss13" horiz-adv-x="508" 
d="M255 70q-87 0 -148.5 61t-61.5 147t61.5 148t148.5 62q85 0 146.5 -62t61.5 -148t-61.5 -147t-146.5 -61zM255 98q73 0 126 53t53 127q0 75 -52.5 128t-126.5 53q-75 0 -128 -53t-53 -128q0 -74 53 -127t128 -53zM271 334l70 -71l25 23l-111 107l-112 -107l24 -24l71 72
v-164h33v164z" />
    <glyph glyph-name="arrowupleft.ss13" horiz-adv-x="508" 
d="M255 70q-88 0 -149 61.5t-61 146.5q0 86 61.5 148t148.5 62q85 0 146.5 -62t61.5 -148t-61.5 -147t-146.5 -61zM255 98q74 0 126.5 53t52.5 127q0 75 -52.5 128t-126.5 53q-76 0 -128.5 -53t-52.5 -128q0 -74 53 -127t128 -53zM207 306v-101h-33v157h156v-32h-101
l117 -117l-24 -23z" />
    <glyph glyph-name="arrowupright.ss13" horiz-adv-x="508" 
d="M254 70q-86 0 -147.5 61t-61.5 147t61.5 148t147.5 62t147.5 -62t61.5 -148q0 -85 -60.5 -146.5t-148.5 -61.5zM254 98q75 0 127.5 53t52.5 127q0 75 -52.5 128t-127.5 53t-127.5 -53t-52.5 -128q0 -74 52.5 -127t127.5 -53zM162 213l117 117h-101v31h157v-156h-33v101
l-116 -116z" />
    <glyph glyph-name="at.case" horiz-adv-x="911" 
d="M660 -19l12 -34q-118 -67 -269 -67q-182 0 -278 110.5t-71 291.5q26 185 161 300t321 115q179 0 271.5 -101.5t69.5 -266.5q-11 -73 -36.5 -126.5t-58.5 -81.5t-65 -40.5t-64 -12.5q-81 0 -91 62q-53 -34 -91.5 -48t-87.5 -14q-166 0 -135 218q30 214 207 214
q78 0 144 -51l6 43h79l-43 -306q-6 -39 3.5 -55t33.5 -16q48 0 93.5 52t61.5 162q21 149 -60.5 238t-242.5 89q-168 0 -288 -103.5t-144 -270.5q-22 -163 63.5 -260.5t248.5 -97.5q131 0 250 57zM564 201l25 176q-58 56 -118 56q-126 0 -146 -147q-12 -85 12.5 -120
t80.5 -35q38 0 69.5 17t76.5 53z" />
    <glyph glyph-name="registered.ss04" horiz-adv-x="740" 
d="M370 620q130 0 221.5 -92t91.5 -223t-91 -222.5t-222 -91.5t-222.5 91.5t-91.5 222.5t91.5 223t222.5 92zM370 20q118 0 202 83.5t84 201.5t-84 202t-202 84t-201.5 -84t-83.5 -202q0 -119 83.5 -202t201.5 -83zM265 482h136q66 0 101.5 -31.5t27.5 -83.5
q-12 -90 -91 -111l76 -126h-68l-70 120h-85l-18 -122h-58zM299 300h93q71 0 80 65q5 33 -15 50.5t-62 17.5h-78z" />
    <glyph glyph-name="ampersand.ss09" horiz-adv-x="604" 
d="M593 272l-10 -76q-33 0 -66 3q-27 -109 -91.5 -158.5t-186.5 -49.5q-113 0 -169 45t-44 129q7 51 44.5 86.5t116.5 70.5q-39 44 -51.5 78.5t-7.5 75.5q9 67 63 105.5t137 38.5q76 0 115.5 -39.5t29.5 -107.5q-16 -111 -159 -168q-124 -48 -150 -65q-42 -26 -48 -65
q-8 -53 29 -80t105 -27q95 0 137.5 42t59.5 146l2 16h144zM209 473q-5 -31 7.5 -56.5t48.5 -62.5l18 7q111 44 119 107q6 44 -16 67.5t-67 23.5q-43 0 -74 -23.5t-36 -62.5z" />
    <glyph glyph-name="ampersand.ss10" horiz-adv-x="504" 
d="M487 515l-36 -66q-73 23 -140 23q-126 0 -139 -88q-6 -42 26 -60t108 -18h70l-9 -66h-87q-79 0 -119 -20.5t-47 -68.5q-6 -42 27.5 -64t107.5 -22q84 0 175 36l20 -65q-79 -35 -165 -43l-8 -59h-69l8 58q-103 4 -148 41t-35 106q16 108 137 136q-82 29 -70 116
q21 140 187 155l10 66h69l-10 -66q71 -6 137 -31z" />
    <glyph glyph-name="copyright.ss11" horiz-adv-x="482" 
d="M265 241q-79 0 -134 55t-55 135q0 78 55 133.5t134 55.5q78 0 133 -55.5t55 -133.5q0 -79 -55 -134.5t-133 -55.5zM265 266q67 0 115 48.5t48 116.5t-48 116t-115 48q-68 0 -116 -48t-48 -116t48 -116.5t116 -48.5zM332 385l13 -28q-44 -33 -94 -33q-44 0 -69 28t-18 75
q7 51 38 79.5t78 28.5q44 0 80 -25l-19 -30q-34 19 -61 19q-63 0 -72 -72q-4 -32 10.5 -49t42.5 -17q35 0 71 24z" />
    <glyph glyph-name="registered.ss12" horiz-adv-x="482" 
d="M265 241q-79 0 -134 55t-55 135q0 78 55 133.5t134 55.5q78 0 133 -55.5t55 -133.5q0 -79 -55 -134.5t-133 -55.5zM265 266q67 0 115 48.5t48 116.5t-48 116t-115 48q-68 0 -116 -48t-48 -116t48 -116.5t116 -48.5zM202 535h81q89 0 80 -67q-8 -49 -52 -57q23 -13 39 -81
h-45q-20 70 -40 70h-44l-9 -70h-38zM229 430h51q37 0 42 36q2 19 -8.5 28t-34.5 9h-40z" />
    <glyph glyph-name="caron.alt" horiz-adv-x="488" 
d="M243 686h77l-2 -13q-18 -85 -52 -157h-53z" />
    <glyph glyph-name="acute.case" horiz-adv-x="488" 
d="M351 824l70 -49l-3 -18q-75 -56 -166 -107l-30 34z" />
    <glyph glyph-name="breve.case" horiz-adv-x="488" 
d="M374 783h66q-19 -121 -150 -121q-62 0 -91.5 34t-20.5 87h62q-3 -30 8 -45t47 -15q41 0 56 14.5t23 45.5z" />
    <glyph glyph-name="caron.case" horiz-adv-x="488" 
d="M454 779l-131 -118h-61l-105 118l39 36l104 -76l117 79z" />
    <glyph glyph-name="circumflex.case" horiz-adv-x="488" 
d="M407 652l-104 76l-132 -76l-32 36l141 118h61l105 -118z" />
    <glyph glyph-name="dieresis.case" horiz-adv-x="488" 
d="M215 782q22 0 34.5 -12.5t9.5 -35.5q-4 -22 -20 -34.5t-38 -12.5q-20 0 -33 13t-10 34q4 22 20 35t37 13zM404 782q21 0 33.5 -13t9.5 -35q-4 -22 -20.5 -34.5t-36.5 -12.5q-22 0 -34 12.5t-8 34.5q3 23 18.5 35.5t37.5 12.5z" />
    <glyph glyph-name="dotaccent.case" horiz-adv-x="488" 
d="M311 792q25 0 39.5 -15.5t10.5 -42.5q-4 -25 -23.5 -40.5t-43.5 -15.5q-25 0 -39.5 15t-10.5 41q4 27 22.5 42.5t44.5 15.5z" />
    <glyph glyph-name="grave.case" horiz-adv-x="488" 
d="M391 684l-30 -34q-91 51 -166 107l-3 18l70 49z" />
    <glyph glyph-name="hungarumlaut.case" horiz-adv-x="488" 
d="M293 825l54 -33l-3 -19l-143 -111l-28 20zM434 825l55 -33l-4 -19l-143 -111l-27 20z" />
    <glyph glyph-name="macron.case" horiz-adv-x="488" 
d="M432 774l-9 -74h-250l9 74h250z" />
    <glyph glyph-name="ring.case" horiz-adv-x="488" 
d="M319 850q43 0 66 -26.5t17 -70.5q-5 -41 -36 -66.5t-74 -25.5t-66 25.5t-18 66.5q7 44 37.5 70.5t73.5 26.5zM300 712q44 0 51 41q6 47 -40 47q-20 0 -33.5 -12.5t-16.5 -34.5q-6 -41 39 -41z" />
    <glyph glyph-name="tilde.case" horiz-adv-x="488" 
d="M443 786l50 -6q-16 -48 -46.5 -75t-62 -27.5t-62.5 12.5l-56 31q-29 14 -47.5 6t-35.5 -40l-48 5q15 47 44.5 73t60.5 26t63 -14l56 -29q52 -27 84 38z" />
    </font>
</defs>
</svg>
