<?xml version="1.0" standalone="no"?>
<!DOCTYPE svg PUBLIC "-//W3C//DTD SVG 1.1//EN" "http://www.w3.org/Graphics/SVG/1.1/DTD/svg11.dtd" >
<svg>
<metadata>
Created by FontForge 20090622 at Thu Jun 16 15:16:30 2016
 By deploy user
Copyright &#194;&#169; 2013 by Rene Bieder. All rights reserved.
</metadata>
<defs>
<font id="Gentona-LightItalic" horiz-adv-x="485" >
  <font-face 
    font-family="Gentona Light Italic"
    font-weight="300"
    font-style="italic"
    font-stretch="normal"
    units-per-em="1000"
    panose-1="0 0 4 0 0 0 0 0 0 0"
    ascent="800"
    descent="-200"
    x-height="468"
    cap-height="610"
    bbox="-133 -219 1153.31 883"
    underline-thickness="50"
    underline-position="-50"
    slope="-8"
    unicode-range="U+0020-U+FB02"
  />
<missing-glyph horiz-adv-x="750" 
d="M701 610l-86 -610h-565l86 610h565zM655 570h-485l-74 -530h485zM290 413l-7 29q68 26 121 26q46 0 71.5 -24.5t19.5 -65.5t-40.5 -67t-83.5 -34l-5 -41h-33l4 66q111 12 120 76q4 26 -12 41.5t-46 15.5q-45 0 -109 -22zM341 179q22 0 19 -22q-3 -24 -25 -24
q-23 0 -20 24q3 22 26 22z" />
    <glyph glyph-name="fi" unicode="fi" horiz-adv-x="545" 
d="M492 468l-66 -468h-66l57 411h-232l-58 -411h-67l58 411h-69l8 57h69l6 45q12 79 50.5 117t114.5 38q34 0 107 -11l-12 -51q-60 6 -91 6q-50 0 -72.5 -24.5t-29.5 -75.5l-6 -44h299zM484 644q18 0 29 -10.5t8 -29.5q-2 -18 -15.5 -28.5t-31.5 -10.5t-28.5 11t-8.5 29
q3 18 16 28.5t31 10.5z" />
    <glyph glyph-name="fl" unicode="fl" horiz-adv-x="535" 
d="M519 665l-93 -665h-67l84 600q-88 12 -142 12q-50 0 -72.5 -24.5t-29.5 -75.5l-6 -44h150l-8 -57h-150l-58 -411h-67l58 411h-69l8 57h69l6 45q12 79 50.5 117t114.5 38q45 0 153 -20l2 17h67z" />
    <glyph glyph-name="f_f" unicode="ff" horiz-adv-x="638" 
d="M689 660l-12 -51q-30 3 -72 3q-49 0 -72.5 -24.5t-30.5 -75.5l-6 -44h151l-7 -57h-152l-58 -411h-67l58 411h-238l-58 -411h-66l58 411h-68l8 57h68l6 45q11 79 50 117t116 38q53 0 88 -8l-12 -51q-30 3 -72 3q-50 0 -73.5 -24.5t-29.5 -75.5l-7 -44h238l6 45
q12 79 51 117t115 38q54 0 88 -8z" />
    <glyph glyph-name="f_f_i" unicode="ffi" horiz-adv-x="847" 
d="M794 468l-65 -468h-67l57 411h-233l-58 -411h-66l58 411h-237l-58 -411h-66l58 411h-68l8 57h68l6 45q11 79 50 117t116 38q53 0 88 -8l-12 -51q-30 3 -72 3q-50 0 -73.5 -24.5t-29.5 -75.5l-7 -44h237l6 45q11 79 50 117t115 38q39 0 103 -10l-11 -48q-59 6 -88 6
q-49 0 -72.5 -26t-29.5 -78l-7 -44h300zM785 644q19 0 29.5 -10.5t7.5 -29.5q-2 -18 -15.5 -28.5t-30.5 -10.5q-19 0 -29.5 11t-7.5 29q2 18 15.5 28.5t30.5 10.5z" />
    <glyph glyph-name="f_f_l" unicode="ffl" horiz-adv-x="838" 
d="M822 665l-93 -665h-67l84 600q-88 12 -143 12q-49 0 -72 -24.5t-30 -75.5l-6 -44h150l-7 -57h-151l-57 -411h-67l57 411h-237l-58 -411h-66l58 411h-68l8 57h68l6 45q11 79 50 117t116 38q53 0 88 -8l-12 -51q-30 3 -72 3q-50 0 -73.5 -24.5t-29.5 -75.5l-7 -44h237l7 45
q12 79 50.5 117t114.5 38q45 0 153 -20l2 17h67z" />
    <glyph glyph-name=".notdef" horiz-adv-x="750" 
d="M701 610l-86 -610h-565l86 610h565zM655 570h-485l-74 -530h485zM290 413l-7 29q68 26 121 26q46 0 71.5 -24.5t19.5 -65.5t-40.5 -67t-83.5 -34l-5 -41h-33l4 66q111 12 120 76q4 26 -12 41.5t-46 15.5q-45 0 -109 -22zM341 179q22 0 19 -22q-3 -24 -25 -24
q-23 0 -20 24q3 22 26 22z" />
    <glyph glyph-name=".null" horiz-adv-x="0" 
 />
    <glyph glyph-name="nonmarkingreturn" horiz-adv-x="333" 
 />
    <glyph glyph-name="space" unicode=" " horiz-adv-x="230" 
 />
    <glyph glyph-name="exclam" unicode="!" horiz-adv-x="206" 
d="M121 193h-53l49 417h73zM78 73q17 0 26 -10.5t7 -27.5t-14 -27.5t-28 -10.5q-18 0 -27 11t-6 28q2 17 13.5 27t28.5 10z" />
    <glyph glyph-name="quotedbl" unicode="&#x22;" horiz-adv-x="287" 
d="M117 655h64l-55 -256h-45zM225 655h63l-55 -256h-44z" />
    <glyph glyph-name="numbersign" unicode="#" horiz-adv-x="685" 
d="M512 364l-44 -177h130l-9 -49h-133l-33 -138h-56l34 138h-172l-34 -138h-55l33 138h-122l10 49h124l43 177h-122l10 49h124l33 137h57l-34 -137h172l33 137h56l-33 -137h129l-10 -49h-131zM456 364h-172l-43 -177h172z" />
    <glyph glyph-name="dollar" unicode="$" horiz-adv-x="522" 
d="M481 491l-26 -47q-98 48 -178 48q-51 0 -85 -22t-39 -59q-5 -39 21 -59.5t119 -51.5q99 -31 133.5 -67.5t26.5 -96.5q-10 -66 -67 -105.5t-144 -39.5l-8 -58h-48l9 61q-109 12 -181 84l33 47q83 -80 201 -80q58 0 96 25t44 66q5 41 -23.5 64t-122.5 55q-96 32 -128.5 64
t-23.5 93q8 58 57 94.5t125 37.5l9 67h48l-10 -70q81 -8 162 -50z" />
    <glyph glyph-name="percent" unicode="%" horiz-adv-x="832" 
d="M239 620q72 0 103.5 -47t18.5 -135q-12 -87 -56 -132.5t-116 -45.5t-104 46t-19 134t57 134t116 46zM611 610h44l-444 -610h-44zM194 302q101 0 120 138q20 137 -80 137q-101 0 -120 -139q-20 -136 80 -136zM650 351q72 0 104 -46.5t19 -134.5t-57 -133.5t-115 -45.5
q-73 0 -104.5 46t-19.5 134q13 88 57 134t116 46zM605 34q101 0 120 137q20 138 -80 138q-101 0 -120 -139q-20 -136 80 -136z" />
    <glyph glyph-name="ampersand" unicode="&#x26;" horiz-adv-x="638" 
d="M543 278l45 -29q-51 -76 -91 -122l86 -81l-39 -46l-87 84q-96 -93 -220 -93q-103 0 -156.5 45t-41.5 127q7 52 46.5 87t123.5 71q-42 47 -56 81.5t-9 77.5l62 -3q-5 -35 8 -62.5t53 -70.5l26 10q119 47 129 118q7 48 -18.5 74.5t-74.5 26.5t-83 -26t-40 -70l-62 3
q10 65 61 102.5t130 37.5q74 0 113.5 -40.5t29.5 -108.5q-13 -104 -165 -162l-6 -3l151 -142q38 44 85 114zM417 121l-170 162q-70 -28 -103 -52.5t-38 -62.5q-8 -59 28.5 -91t109.5 -32q93 0 173 76z" />
    <glyph glyph-name="quotesingle" unicode="'" horiz-adv-x="179" 
d="M116 655h63l-54 -256h-45z" />
    <glyph glyph-name="parenleft" unicode="(" horiz-adv-x="307" 
d="M291 659l38 -27q-156 -177 -185 -389q-30 -206 76 -388l-45 -27q-126 184 -92 416q32 231 208 415z" />
    <glyph glyph-name="parenright" unicode=")" horiz-adv-x="305" 
d="M19 -172l-38 27q156 179 185 389q30 207 -76 388l45 27q126 -184 92 -416q-32 -231 -208 -415z" />
    <glyph glyph-name="asterisk" unicode="*" horiz-adv-x="413" 
d="M262 428l48 -116l-32 -15l-59 116l-110 -71l-20 29l100 77l-100 76l20 30l104 -66l39 122l36 -9l-29 -126l126 5l2 -35z" />
    <glyph glyph-name="plus" unicode="+" horiz-adv-x="465" 
d="M426 210h-173l-25 -172h-50l24 172h-172l8 52h171l25 172h51l-25 -173h174z" />
    <glyph glyph-name="comma" unicode="," horiz-adv-x="248" 
d="M31 -126l-17 21q55 43 73 105q-14 3 -22 14.5t-6 26.5q2 19 15.5 30.5t32.5 11.5t29 -13.5t8 -34.5q-5 -42 -36 -85.5t-77 -75.5z" />
    <glyph glyph-name="hyphen" unicode="-" horiz-adv-x="389" 
d="M79 312h259l-9 -60h-258z" />
    <glyph glyph-name="period" unicode="." horiz-adv-x="238" 
d="M50 41q2 19 15.5 30.5t32.5 11.5t29.5 -12t7.5 -31q-2 -19 -15 -31t-32 -12q-20 0 -30.5 12.5t-7.5 31.5z" />
    <glyph glyph-name="slash" unicode="/" horiz-adv-x="309" 
d="M316 664h59l-381 -869h-58z" />
    <glyph glyph-name="zero" unicode="0" horiz-adv-x="611" 
d="M360 620q124 0 177.5 -81.5t32.5 -234.5q-22 -151 -98 -232t-200 -81t-178 81.5t-32 232.5q21 152 97.5 233.5t200.5 81.5zM280 53q91 0 147.5 65t73.5 187q17 123 -20.5 188t-128.5 65q-92 0 -148.5 -65t-73.5 -189q-17 -122 21 -186.5t129 -64.5z" />
    <glyph glyph-name="one" unicode="1" horiz-adv-x="475" 
d="M405 59l-8 -59h-370l8 59h164l66 472q-95 -34 -179 -53l-8 43q117 39 213 89h52l-76 -551h138z" />
    <glyph glyph-name="two" unicode="2" horiz-adv-x="514" 
d="M447 0h-445l7 50l116 83.5l116.5 84.5t88.5 71.5t72.5 76.5t28.5 68q8 59 -22 93.5t-90 34.5q-100 0 -228 -53l-13 49q137 62 246 62q90 0 135.5 -51.5t32.5 -137.5q-3 -22 -11 -43.5t-24 -43.5t-31 -40t-42.5 -42l-46 -39.5t-55 -41.5l-56.5 -39.5l-63 -42.5l-63 -43
q5 0 37 1.5t46 1.5h272z" />
    <glyph glyph-name="three" unicode="3" horiz-adv-x="524" 
d="M92 512l-11 47q125 58 245 58q88 0 135 -46t37 -122q-15 -102 -127 -135q122 -34 105 -151q-11 -79 -76 -125.5t-163 -46.5q-137 0 -241 60l28 48q98 -52 217 -52q69 0 116 32t54 86q8 60 -32.5 90t-121.5 30h-90l9 59h89q156 0 171 102q7 53 -25 84.5t-92 31.5
q-109 0 -227 -50z" />
    <glyph glyph-name="four" unicode="4" horiz-adv-x="592" 
d="M444 144l-20 -144h-67l20 144h-363l6 53l422 413h67l-56 -407h107l-9 -59h-107zM385 203l45 323q-36 -40 -61 -64l-201 -194q-26 -27 -67 -65h284z" />
    <glyph glyph-name="five" unicode="5" horiz-adv-x="535" 
d="M195 551l-48 -222q92 38 168 38q91 0 138 -49.5t35 -133.5q-12 -88 -81.5 -140.5t-167.5 -52.5q-134 0 -236 60l28 50q98 -51 207 -51q73 0 124.5 38t60.5 100q8 59 -28 95t-103 36q-74 0 -161 -41l-56 10l69 322h381l-8 -59h-322z" />
    <glyph glyph-name="six" unicode="6" horiz-adv-x="564" 
d="M544 589l-24 -50q-65 24 -134 24q-102 0 -173.5 -73t-93.5 -201q86 100 219 100q93 0 142.5 -51.5t37.5 -138.5q-14 -98 -83 -153t-170 -55q-124 0 -178.5 76t-35.5 215q22 153 116 245.5t223 92.5q88 0 154 -31zM272 47q70 0 120.5 41t61.5 115q9 63 -28.5 97.5
t-110.5 34.5q-54 0 -107 -29t-94 -86q-2 -82 38 -127.5t120 -45.5z" />
    <glyph glyph-name="seven" unicode="7" horiz-adv-x="452" 
d="M499 610l-7 -52q-102 -106 -197 -258t-155 -300h-79q64 149 158.5 298t195.5 253h-361l8 59h437z" />
    <glyph glyph-name="eight" unicode="8" horiz-adv-x="583" 
d="M349 620q101 0 154 -43t43 -115q-15 -105 -154 -140q158 -41 140 -161q-10 -80 -83 -125t-189 -45q-123 0 -182 45t-48 127q17 115 175 155q-119 40 -104 143q11 73 77.5 116t170.5 43zM341 573q-71 0 -119 -31.5t-55 -81.5q-7 -48 27.5 -76.5t119.5 -44.5
q155 25 168 124q8 49 -31.5 79.5t-109.5 30.5zM279 297q-169 -30 -182 -132q-8 -57 36 -88.5t129 -31.5q84 0 138 32t62 88q7 52 -34.5 82.5t-148.5 49.5z" />
    <glyph glyph-name="nine" unicode="9" horiz-adv-x="564" 
d="M43 26l25 49q64 -27 136 -27q102 0 172 71.5t92 202.5q-39 -46 -97 -73t-126 -27q-93 0 -142.5 51.5t-37.5 138.5q14 99 83.5 153.5t172.5 54.5q115 0 172 -79t38 -212q-22 -157 -112 -247.5t-219 -90.5q-92 0 -157 35zM268 276q56 0 112.5 29.5t92.5 85.5
q2 81 -39.5 127t-119.5 46q-72 0 -123.5 -41t-61.5 -115q-9 -63 28.5 -97.5t110.5 -34.5z" />
    <glyph glyph-name="colon" unicode=":" horiz-adv-x="238" 
d="M102 382q2 19 15.5 30.5t32.5 11.5t29 -12t8 -32q-2 -18 -15.5 -30t-32.5 -12t-29.5 12.5t-7.5 31.5zM54 41q2 19 15.5 30.5t32.5 11.5t29 -12t8 -31t-15.5 -31t-32.5 -12t-29.5 12.5t-7.5 31.5z" />
    <glyph glyph-name="semicolon" unicode=";" horiz-adv-x="251" 
d="M108 382q3 18 16 30t32 12t29.5 -12.5t7.5 -31.5q-2 -19 -15.5 -30.5t-32.5 -11.5t-29.5 12t-7.5 32zM25 -126l-16 21q55 43 73 105q-33 7 -28 41q2 19 15.5 30.5t32.5 11.5t28.5 -13.5t7.5 -34.5q-4 -41 -35.5 -85t-77.5 -76z" />
    <glyph glyph-name="less" unicode="&#x3c;" horiz-adv-x="398" 
d="M163 265l-36 -25l15 -12.5t14 -11.5l150 -141l-36 -35l-219 203l275 203l29 -40z" />
    <glyph glyph-name="equal" unicode="=" horiz-adv-x="455" 
d="M428 296h-387l7 45h386zM408 153h-387l7 46h386z" />
    <glyph glyph-name="greater" unicode="&#x3e;" horiz-adv-x="398" 
d="M67 40l-29 41l192 141l36 24l-29 24l-150 141l37 35l218 -202z" />
    <glyph glyph-name="question" unicode="?" horiz-adv-x="504" 
d="M78 507l-15 51q137 62 246 62q89 0 135 -50t35 -134q-10 -70 -72.5 -116t-166.5 -63l-10 -79h-55l8 129q100 9 159 41.5t66 83.5q8 58 -23 92t-93 34q-77 0 -214 -51zM188 73q18 0 26.5 -10.5t6.5 -27.5t-14 -27.5t-28 -10.5q-18 0 -27 11t-6 28q2 17 14 27t28 10z" />
    <glyph glyph-name="at" unicode="@" horiz-adv-x="920" 
d="M652 -102l12 -28q-117 -68 -265 -68q-184 0 -281 111.5t-72 292.5q26 185 161 299.5t321 114.5q180 0 272.5 -101t69.5 -267q-20 -134 -83.5 -197.5t-133.5 -63.5q-82 0 -86 71q-52 -38 -92 -54.5t-92 -16.5q-168 0 -138 219q15 108 70.5 160t140.5 52q83 0 150 -55l6 46
h60l-44 -314q-6 -38 4.5 -54t36.5 -16q52 0 100 56t65 169q21 151 -62.5 241.5t-247.5 90.5q-172 0 -294.5 -105.5t-147.5 -276.5q-23 -166 65 -266t256 -100q134 0 249 60zM571 120l27 190q-59 61 -131 61q-66 0 -109.5 -39.5t-54.5 -123.5q-13 -92 14.5 -130.5t88.5 -38.5
q45 0 82.5 20t82.5 61z" />
    <glyph glyph-name="A" unicode="A" horiz-adv-x="648" 
d="M479 161h-332l-91 -161h-73l347 610h91l177 -610h-73zM461 224l-77 266q-10 35 -16 71h-1q-21 -49 -33 -72l-151 -265h278z" />
    <glyph glyph-name="B" unicode="B" horiz-adv-x="618" 
d="M146 610h202q112 0 163.5 -42.5t39.5 -125.5q-6 -45 -36.5 -78t-77.5 -46q63 -12 93 -52.5t22 -101.5q-12 -84 -79 -124t-195 -40h-218zM205 546l-28 -200h157q139 0 152 93q7 55 -27.5 81t-118.5 26h-135zM137 65h150q93 0 140.5 23.5t55.5 80.5q9 59 -29 86.5
t-131 27.5h-155z" />
    <glyph glyph-name="C" unicode="C" horiz-adv-x="624" 
d="M538 118l20 -52q-104 -75 -259 -75q-133 0 -196 82t-41 232q21 152 107.5 233.5t227.5 81.5q128 0 207 -52l-30 -53q-80 41 -183 41q-110 0 -176.5 -64.5t-83.5 -187.5q-17 -119 30 -184t149 -65q132 0 228 63z" />
    <glyph glyph-name="D" unicode="D" horiz-adv-x="653" 
d="M139 610h184q152 0 227.5 -77t55.5 -222q-21 -152 -117.5 -231.5t-248.5 -79.5h-187zM131 64h118q118 0 194 63.5t93 184.5q17 118 -40.5 176t-180.5 58h-117z" />
    <glyph glyph-name="E" unicode="E" horiz-adv-x="559" 
d="M198 546l-29 -206h290l-9 -64h-290l-29 -212h339l-8 -64h-409l86 610h398l-8 -64h-331z" />
    <glyph glyph-name="F" unicode="F" horiz-adv-x="521" 
d="M198 546l-30 -216h281l-9 -64h-281l-37 -266h-69l86 610h389l-8 -64h-322z" />
    <glyph glyph-name="G" unicode="G" horiz-adv-x="667" 
d="M616 309l-32 -233q-140 -85 -292 -85q-129 0 -190.5 82.5t-39.5 231.5q20 149 107.5 232t224.5 83q131 0 229 -49l-29 -56q-95 41 -202 41q-109 0 -176.5 -65.5t-84.5 -186.5q-17 -120 28 -184.5t143 -64.5q129 0 221 58l19 133h-227l9 63h292z" />
    <glyph glyph-name="H" unicode="H" horiz-adv-x="687" 
d="M647 610l-86 -610h-68l39 280h-364l-40 -280h-68l86 610h68l-37 -266h364l38 266h68z" />
    <glyph glyph-name="I" unicode="I" horiz-adv-x="254" 
d="M207 610l-85 -610h-69l86 610h68z" />
    <glyph glyph-name="J" unicode="J" horiz-adv-x="478" 
d="M442 610l-58 -410q-14 -102 -68 -155.5t-143 -53.5q-85 0 -177 51l28 55q80 -39 145 -39q128 0 147 143l57 409h69z" />
    <glyph glyph-name="K" unicode="K" horiz-adv-x="622" 
d="M630 606l-271 -251l206 -350l-1 -5h-67l-188 309l-166 -154l-21 -155h-69l86 610h68l-50 -359l393 359h81z" />
    <glyph glyph-name="L" unicode="L" horiz-adv-x="502" 
d="M440 65l-10 -65h-377l86 610h68l-76 -545h309z" />
    <glyph glyph-name="M" unicode="M" horiz-adv-x="835" 
d="M707 0h-69l47 451l4 28l-278 -479h-59l-144 479l-3 -26l-80 -453h-69l106 610h82l142 -481q1 -4 8 -34q4 10 18 34l278 481h81z" />
    <glyph glyph-name="N" unicode="N" horiz-adv-x="692" 
d="M563 0h-62l-307 493l-5 -37l-64 -456h-68l85 610h62l307 -495l3 20l66 475h69z" />
    <glyph glyph-name="O" unicode="O" horiz-adv-x="671" 
d="M390 620q135 0 198 -82t42 -234q-21 -150 -107 -231.5t-221 -81.5t-198.5 82t-41.5 232q21 151 106.5 233t221.5 82zM310 55q104 0 169 64.5t82 185.5q16 122 -30 186.5t-150 64.5q-103 0 -168 -65t-82 -187q-17 -121 29.5 -185t149.5 -64z" />
    <glyph glyph-name="P" unicode="P" horiz-adv-x="571" 
d="M136 610h199q119 0 174 -55.5t42 -158.5q-13 -104 -83 -160t-187 -56h-137l-26 -180h-68zM153 244h136q84 0 135 40.5t60 113.5q8 73 -30 110.5t-127 37.5h-132z" />
    <glyph glyph-name="Q" unicode="Q" horiz-adv-x="666" 
d="M380 620q136 0 197.5 -82t40.5 -234q-21 -150 -105.5 -231.5t-219.5 -81.5q-136 0 -197.5 81.5t-40.5 232.5t105.5 233t219.5 82zM301 55q103 0 167 64.5t81 185.5q16 122 -29 186.5t-147 64.5q-104 0 -168 -64.5t-81 -187.5q-16 -121 29 -185t148 -64zM516 -119l-9 -62
q-174 0 -287 89l22 47q60 -40 122.5 -57t151.5 -17z" />
    <glyph glyph-name="R" unicode="R" horiz-adv-x="607" 
d="M139 610h222q116 0 169 -53t42 -148q-10 -86 -59 -137.5t-126 -63.5l146 -202l-2 -6h-78l-149 205h-154l-28 -205h-69zM159 269h183q69 0 111.5 36.5t49.5 102.5q7 67 -28.5 102.5t-118.5 35.5h-158z" />
    <glyph glyph-name="S" unicode="S" horiz-adv-x="579" 
d="M550 574l-28 -55q-99 40 -206 40q-59 0 -98.5 -24t-45.5 -62q-6 -44 27 -70.5t139 -61.5q106 -36 147 -80.5t31 -111.5q-11 -75 -76.5 -116.5t-162.5 -41.5q-66 0 -138.5 26t-121.5 71l38 51q48 -41 111 -62.5t119 -21.5q69 0 111.5 26.5t48.5 72.5q6 43 -30 72t-137 62
q-109 37 -149.5 77.5t-30.5 112.5q9 64 72 103t155 39q111 0 225 -46z" />
    <glyph glyph-name="T" unicode="T" horiz-adv-x="536" 
d="M567 546h-221l-77 -546h-68l77 546h-221l9 64h509z" />
    <glyph glyph-name="U" unicode="U" horiz-adv-x="663" 
d="M639 610l-47 -337q-20 -136 -96 -209t-198 -73t-177.5 73.5t-36.5 209.5l46 336h69l-47 -337q-15 -105 25 -161t129 -56q86 0 144.5 58.5t72.5 159.5l48 336h68z" />
    <glyph glyph-name="V" unicode="V" horiz-adv-x="627" 
d="M320 0h-85l-173 610h77l131 -470q8 -33 15 -72q15 37 34 72l258 470h80z" />
    <glyph glyph-name="W" unicode="W" horiz-adv-x="879" 
d="M644 0h-99l-68 446q-4 31 -5 63q-11 -34 -23 -64l-194 -445h-98l-95 610h77l69 -470q4 -40 6 -77l15.5 41.5l13.5 35.5l204 470h77l73 -470l8 -77q11 39 27 77l200 470h77z" />
    <glyph glyph-name="X" unicode="X" horiz-adv-x="588" 
d="M358 312l176 -312h-84l-138 249l-13 23q-3 -4 -9.5 -11.5t-9.5 -11.5l-209 -249h-85l264 312l-170 298h85l132 -231l12 -25q3 4 10 12.5t10 12.5l198 231h85z" />
    <glyph glyph-name="Y" unicode="Y" horiz-adv-x="560" 
d="M311 211l-29 -211h-69l30 210l-174 400h72l132 -291q8 -18 13 -42q8 18 25 42l212 291h74z" />
    <glyph glyph-name="Z" unicode="Z" horiz-adv-x="582" 
d="M575 553l-457 -491q15 0 43 1t41 1h309l-9 -64h-486l7 54l463 494q-15 0 -45 -1t-44 -1h-287l8 64h465z" />
    <glyph glyph-name="bracketleft" unicode="[" horiz-adv-x="353" 
d="M376 660l-8 -54h-162l-102 -727h162l-7 -54h-224l117 835h224z" />
    <glyph glyph-name="backslash" unicode="\" horiz-adv-x="408" 
d="M164 664l136 -869h-58l-137 869h59z" />
    <glyph glyph-name="bracketright" unicode="]" horiz-adv-x="353" 
d="M-18 -175l8 54h162l102 727h-162l7 54h224l-117 -835h-224z" />
    <glyph glyph-name="asciicircum" unicode="^" horiz-adv-x="467" 
d="M430 345h-53l-73 204q-14 38 -17 62q-11 -25 -35 -62l-130 -204h-54l202 310h46z" />
    <glyph glyph-name="underscore" unicode="_" horiz-adv-x="457" 
d="M351 -108h-341l7 51h341z" />
    <glyph glyph-name="grave" unicode="`" 
d="M360 558l-23 -25q-80 57 -143 110l-2 14l53 38z" />
    <glyph glyph-name="a" unicode="a" horiz-adv-x="562" 
d="M523 468l-66 -468h-67l9 63q-50 -39 -85.5 -55.5t-88.5 -16.5q-86 0 -138 60.5t-35 184.5q33 241 222 241q95 0 174 -69l8 60h67zM407 121l33 230q-79 69 -155 69q-142 0 -167 -186q-14 -96 22.5 -141.5t100.5 -45.5q46 0 81 17t85 57z" />
    <glyph glyph-name="b" unicode="b" horiz-adv-x="561" 
d="M196 655l-35 -252q96 73 192 73q189 0 156 -242q-18 -123 -83.5 -183t-150.5 -60q-54 0 -89 17.5t-73 55.5l-9 -64h-67l92 655h67zM151 337l-29 -209q71 -81 142 -81q64 0 114.5 46.5t64.5 142.5q25 184 -115 184q-77 0 -177 -83z" />
    <glyph glyph-name="c" unicode="c" horiz-adv-x="496" 
d="M413 108l19 -45q-51 -40 -98 -56t-109 -16q-96 0 -146.5 63.5t-34.5 176.5q16 116 88 181t172 65q95 0 161 -48l-31 -46q-58 37 -137 37q-71 0 -123 -49.5t-65 -140.5q-12 -87 25 -134t106 -47q90 0 173 59z" />
    <glyph glyph-name="d" unicode="d" horiz-adv-x="562" 
d="M538 655l-92 -655h-67l9 64q-51 -40 -86.5 -56.5t-88.5 -16.5q-86 0 -138 60.5t-35 184.5q18 125 79 183t150 58q91 0 167 -71l35 249h67zM397 128l31 223q-78 69 -154 69q-143 0 -168 -186q-13 -96 23 -139.5t101 -43.5q45 0 82 19t85 58z" />
    <glyph glyph-name="e" unicode="e" horiz-adv-x="522" 
d="M417 105l17 -40q-91 -74 -202 -74q-100 0 -152.5 65t-35.5 181q16 118 83 179t169 61q95 0 141 -57.5t34 -170.5q-5 -26 -7 -33h-361q-8 -88 30.5 -129.5t106.5 -41.5q96 0 177 60zM112 269h302q7 77 -25.5 115.5t-97.5 38.5q-141 0 -179 -154z" />
    <glyph glyph-name="f" unicode="f" horiz-adv-x="333" 
d="M385 660l-12 -51q-30 3 -72 3q-50 0 -73.5 -24.5t-29.5 -75.5l-7 -44h152l-8 -57h-152l-58 -411h-66l58 411h-68l8 57h68l6 45q11 79 50 117t116 38q53 0 88 -8z" />
    <glyph glyph-name="g" unicode="g" horiz-adv-x="544" 
d="M518 468l-56 -400q-16 -114 -78 -168.5t-159 -54.5q-118 0 -200 53l20 53q86 -46 180 -46q148 0 170 163l4 26q-48 -38 -88.5 -55.5t-95.5 -17.5q-41 0 -74 12.5t-57.5 37.5t-34.5 68t-2 99q33 239 222 239q93 0 173 -71l9 62h67zM406 150l29 200q-84 70 -154 70
q-143 0 -168 -184q-12 -84 25.5 -122.5t102.5 -38.5q44 0 80 18.5t85 56.5z" />
    <glyph glyph-name="h" unicode="h" horiz-adv-x="552" 
d="M199 655l-35 -252q49 39 91.5 56t93.5 17q76 0 112.5 -48t23.5 -137l-41 -291h-67l40 277q10 73 -10 105t-77 32q-83 0 -175 -74l-48 -340h-66l92 655h66z" />
    <glyph glyph-name="i" unicode="i" horiz-adv-x="223" 
d="M122 605q3 18 16 28.5t31 10.5t29 -10.5t8 -29.5q-3 -18 -16 -28.5t-31 -10.5t-29 11t-8 29zM178 468l-65 -468h-67l65 468h67z" />
    <glyph glyph-name="j" unicode="j" horiz-adv-x="224" 
d="M165 644q18 0 29 -10.5t8 -29.5q-2 -18 -15.5 -28.5t-31.5 -10.5t-28.5 11t-8.5 29q3 18 16 28.5t31 10.5zM174 468l-63 -449q-12 -83 -41.5 -126t-91.5 -60l-9 53q36 16 51.5 44t24.5 90l62 448h67z" />
    <glyph glyph-name="k" unicode="k" horiz-adv-x="513" 
d="M502 464l-215 -184l185 -277l-1 -3h-77l-160 234l-111 -95l-19 -139h-67l92 655h66l-59 -423l284 236h83z" />
    <glyph glyph-name="l" unicode="l" horiz-adv-x="219" 
d="M201 655l-91 -655h-67l92 655h66z" />
    <glyph glyph-name="m" unicode="m" horiz-adv-x="846" 
d="M173 468l-8 -54q84 62 166 62q99 0 126 -82q53 45 96 63.5t93 18.5q73 0 109 -48.5t23 -136.5l-41 -291h-66l39 277q11 73 -8.5 105t-74.5 32q-76 0 -161 -68q1 -25 -3 -55l-41 -291h-66l39 277q11 73 -8.5 105t-74.5 32q-74 0 -156 -63l-49 -351h-66l65 468h67z" />
    <glyph glyph-name="n" unicode="n" horiz-adv-x="552" 
d="M173 468l-9 -65q49 39 91.5 56t93.5 17q76 0 112.5 -48t23.5 -137l-41 -291h-67l42 284q10 73 -10 105t-77 32q-77 0 -177 -81l-48 -340h-66l65 468h67z" />
    <glyph glyph-name="o" unicode="o" horiz-adv-x="557" 
d="M312 477q107 0 160 -66.5t37 -180.5q-14 -110 -86 -174.5t-179 -64.5q-106 0 -159.5 65t-38.5 175q16 113 88 179.5t178 66.5zM251 49q78 0 130 49t64 133q26 188 -140 188q-77 0 -129.5 -51t-64.5 -138q-26 -181 140 -181z" />
    <glyph glyph-name="p" unicode="p" horiz-adv-x="561" 
d="M169 468l-8 -62q99 70 192 70q189 0 156 -242q-18 -123 -83.5 -183t-150.5 -60q-55 0 -89.5 17t-72.5 55l-32 -228h-67l89 633h66zM152 346l-31 -222q25 -26 41.5 -40t43.5 -25.5t58 -11.5q65 0 115 46t64 143q25 184 -115 184q-74 0 -176 -74z" />
    <glyph glyph-name="q" unicode="q" horiz-adv-x="561" 
d="M518 468l-89 -633h-67l32 227q-49 -37 -88 -54t-93 -17q-85 0 -134.5 60.5t-31.5 184.5q33 241 222 241q96 0 173 -70l9 61h67zM403 127l31 219q-78 74 -153 74q-143 0 -168 -186q-14 -95 22.5 -139t101.5 -44q45 0 83 19t83 57z" />
    <glyph glyph-name="r" unicode="r" horiz-adv-x="369" 
d="M169 468l-12 -85q68 93 159 93q34 0 60 -3l-14 -65q-23 2 -56 2q-92 0 -160 -112l-42 -298h-67l66 468h66z" />
    <glyph glyph-name="s" unicode="s" horiz-adv-x="447" 
d="M413 435l-24 -49q-85 38 -158 38q-45 0 -72 -16t-31 -45q-6 -34 21 -54.5t105 -48.5q82 -28 111 -60.5t21 -90.5q-8 -57 -56 -87.5t-126 -30.5q-50 0 -107.5 20t-92.5 54l29 45q82 -66 174 -66q106 0 115 73q5 32 -19 53t-88 42q-92 29 -124 63.5t-25 89.5
q16 112 166 112q99 0 181 -42z" />
    <glyph glyph-name="t" unicode="t" horiz-adv-x="352" 
d="M185 411l-36 -263q-11 -89 73 -89q33 0 80 6l8 -50q-58 -18 -109 -18q-67 0 -99 39.5t-21 109.5l37 265h-72l7 57h73l17 122h67l-17 -122h146l-7 -57h-147z" />
    <glyph glyph-name="u" unicode="u" horiz-adv-x="549" 
d="M505 468l-66 -468h-66l9 66q-94 -74 -187 -74q-75 0 -111.5 48.5t-23.5 137.5l41 290h66l-39 -276q-11 -73 9 -105.5t77 -32.5q85 0 177 76l47 338h67z" />
    <glyph glyph-name="v" unicode="v" horiz-adv-x="504" 
d="M253 0h-72l-130 468h68l91 -323q6 -18 17 -73q22 48 36 73l182 323h69z" />
    <glyph glyph-name="w" unicode="w" horiz-adv-x="716" 
d="M514 0h-79l-60 358l-161 -358h-80l-91 468h64l67 -331q8 -38 10 -65q16 40 28 65l146 331h64l53 -331q3 -23 9 -65q12 31 28 65l160 331h65z" />
    <glyph glyph-name="x" unicode="x" horiz-adv-x="468" 
d="M349 0l-95 151q-16 25 -25 44q-8 -10 -22.5 -26.5t-15.5 -17.5l-137 -151h-75l212 236l-140 232h74l89 -147q18 -28 26 -45q8 10 22.5 26.5t16.5 18.5l129 147h76l-206 -233l144 -235h-73z" />
    <glyph glyph-name="y" unicode="y" horiz-adv-x="495" 
d="M445 468h73l-71 -129l-84.5 -151l-71.5 -119q-102 -157 -241 -213l-17 57q84 40 137 100l-132 455h71l91 -316q16 -61 19 -75l8 11l52.5 86l48 83.5l58 104z" />
    <glyph glyph-name="z" unicode="z" horiz-adv-x="490" 
d="M419 0h-413l6 45l367 369q-30 -3 -84 -3h-225l8 57h399l-6 -44l-369 -370q60 2 92 2h233z" />
    <glyph glyph-name="braceleft" unicode="{" horiz-adv-x="378" 
d="M197 410l11 75q11 80 59 121.5t139 49.5l-5 -47q-64 -10 -93 -40t-37 -85l-11 -74q-12 -83 -40 -119t-86 -46q55 -10 73.5 -46.5t6.5 -118.5l-10 -74q-8 -55 13 -84.5t81 -40.5l-6 -47q-90 8 -126 50t-25 122l11 75q11 83 -9 111t-92 30l6 47q72 1 100.5 30t39.5 111z
" />
    <glyph glyph-name="bar" unicode="|" horiz-adv-x="287" 
d="M108 -200h-57l120 855h57z" />
    <glyph glyph-name="braceright" unicode="}" horiz-adv-x="378" 
d="M242 484l-11 -75q-11 -83 9 -111t92 -30l-7 -47q-72 -1 -100.5 -30t-39.5 -111l-11 -75q-11 -80 -58.5 -121.5t-139.5 -49.5l6 47q63 10 92.5 40t37.5 85l10 74q12 82 40 118.5t86 46.5q-54 10 -72.5 46.5t-6.5 118.5l10 74q8 55 -13 84.5t-81 40.5l6 47q89 -8 125.5 -50
t25.5 -122z" />
    <glyph glyph-name="asciitilde" unicode="~" horiz-adv-x="425" 
d="M370 315l28 -20q-38 -58 -76 -73.5t-78 5.5l-80 40q-27 14 -50.5 5t-49.5 -46l-28 20q37 56 74 70.5t79 -7.5l80 -39q27 -14 50.5 -4t50.5 49z" />
    <glyph glyph-name="exclamdown" unicode="&#xa1;" horiz-adv-x="206" 
d="M126 402q-17 0 -26 10.5t-7 27.5t14 27.5t28 10.5q18 0 27 -11t6 -28q-2 -17 -13.5 -27t-28.5 -10zM83 282h53l-49 -417h-73z" />
    <glyph glyph-name="cent" unicode="&#xa2;" horiz-adv-x="513" 
d="M499 491l-28 -43q-57 41 -145 41q-72 0 -130 -54t-75 -171q-16 -113 25.5 -165t111.5 -52q105 0 181 62l20 -40q-77 -70 -184 -77l-9 -58h-48l8 58q-41 3 -74 19t-59.5 47t-36.5 84t0 124q19 133 88.5 201.5t159.5 76.5l9 66h48l-9 -66q89 -6 147 -53z" />
    <glyph glyph-name="sterling" unicode="&#xa3;" horiz-adv-x="542" 
d="M552 495l-29 -44q-58 43 -136 43q-68 0 -112 -46t-67 -154l-8 -35h208l-7 -47h-211l-34 -156h312l-8 -56h-463l7 49l86 6l34 157h-94l7 47h98l7 36q29 134 89.5 193.5t154.5 59.5q102 0 166 -53z" />
    <glyph glyph-name="yen" unicode="&#xa5;" horiz-adv-x="514" 
d="M312 236h138l-5 -39h-159l-9 -66h158l-6 -39h-158l-13 -92h-68l13 92h-147l5 39h148l9 66h-147l5 39h126l-142 307h71l119 -246l11 -35q4 7 11.5 18.5t10.5 16.5l187 246h71z" />
    <glyph glyph-name="brokenbar" unicode="&#xa6;" horiz-adv-x="287" 
d="M181 318h-57l47 337h57zM108 -200h-57l47 337h58z" />
    <glyph glyph-name="section" unicode="&#xa7;" horiz-adv-x="584" 
d="M506 578l-24 -48q-74 40 -159 40q-46 0 -74.5 -18.5t-33.5 -50.5q-5 -35 20.5 -53t104.5 -44q101 -33 141 -66t32 -86q-4 -31 -24 -54t-65 -52q28 -31 21 -82q-8 -55 -54.5 -88.5t-118.5 -33.5q-55 0 -113.5 21.5t-92.5 57.5l29 45q33 -33 83.5 -52t96.5 -19t74.5 19
t33.5 51q5 34 -20.5 52t-104.5 43q-101 34 -140.5 66.5t-32.5 85.5q5 32 25.5 55t64.5 52q-29 29 -22 81q8 54 54 87t117 33q103 0 182 -42zM452 246q2 16 -4.5 29.5t-17 23.5t-34.5 21t-44.5 18.5t-59.5 20.5q-58 20 -87 37q-53 -43 -59 -77q-5 -38 31.5 -60.5t129.5 -52.5
q57 -20 87 -37q31 25 43 41.5t15 35.5z" />
    <glyph glyph-name="dieresis" unicode="&#xa8;" 
d="M202 648q18 0 27.5 -10t7.5 -28q-6 -37 -45 -37q-16 0 -26 10.5t-8 27.5q3 17 15.5 27t28.5 10zM385 648q16 0 26 -10.5t8 -27.5q-3 -17 -15.5 -27t-28.5 -10q-18 0 -27.5 10t-6.5 28q5 37 44 37z" />
    <glyph glyph-name="copyright" unicode="&#xa9;" horiz-adv-x="742" 
d="M377 -9q-131 0 -222.5 91.5t-91.5 222.5t91.5 223t222.5 92q130 0 221.5 -92t91.5 -223t-91 -222.5t-222 -91.5zM377 17q120 0 204.5 84t84.5 204q0 119 -85 204t-204 85t-203.5 -85t-84.5 -204q0 -120 84.5 -204t203.5 -84zM498 214l17 -31q-69 -61 -157 -61
q-75 0 -117 49.5t-30 129.5q12 85 65 135t130 50q78 0 131 -44l-25 -33q-46 33 -107 33q-57 0 -96 -38t-48 -103q-9 -63 21.5 -100t86.5 -37q69 0 129 50z" />
    <glyph glyph-name="ordfeminine" unicode="&#xaa;" horiz-adv-x="381" 
d="M130 559l-4 39q76 22 135 22q69 0 92 -31t13 -110l-29 -199h-51l6 45q-69 -52 -130 -52q-115 0 -100 105q7 53 44.5 78t108.5 25q62 0 99 -1q8 55 -5.5 75t-59.5 20q-50 0 -119 -16zM309 444h-93q-51 0 -76 -14.5t-29 -47.5q-9 -68 68 -68q51 0 119 53z" />
    <glyph glyph-name="guillemotleft" unicode="&#xab;" horiz-adv-x="519" 
d="M478 410l-147 -134q-17 -16 -42 -34q20 -18 33 -34l109 -133l-43 -35l-170 203l227 203zM313 410l-147 -134q-14 -12 -42 -34q28 -28 33 -34l109 -133l-43 -35l-171 203l227 203z" />
    <glyph glyph-name="registered" unicode="&#xae;" horiz-adv-x="742" 
d="M372 -9q-131 0 -222.5 91.5t-91.5 222.5t91.5 223t222.5 92q130 0 221.5 -92t91.5 -223t-91 -222.5t-222 -91.5zM372 17q119 0 203.5 84t84.5 204q0 119 -85 204t-203 85q-120 0 -204.5 -85t-84.5 -204q0 -120 84.5 -204t204.5 -84zM272 481h131q71 0 103 -29t24 -84
q-12 -85 -94 -98q42 -20 75 -141h-54q-37 125 -73 125h-98l-17 -125h-47zM294 293h101q77 0 86 74q5 36 -16.5 55t-66.5 19h-83z" />
    <glyph glyph-name="macron" unicode="&#xaf;" 
d="M408 633l-7 -56h-233l6 56h234z" />
    <glyph glyph-name="degree" unicode="&#xb0;" horiz-adv-x="333" 
d="M218 620q53 0 79.5 -32t19.5 -85q-6 -49 -41 -79t-87 -30t-79 30.5t-20 80.5q7 52 42 83.5t86 31.5zM193 435q34 0 56.5 19t26.5 51q5 34 -12 54.5t-50 20.5q-34 0 -56.5 -21t-26.5 -56q-4 -31 13 -49.5t49 -18.5z" />
    <glyph glyph-name="plusminus" unicode="&#xb1;" horiz-adv-x="465" 
d="M445 342l-7 -46h-175l-21 -143h-45l20 143h-175l7 46h174l20 142h47l-20 -142h175zM16 108h394l-7 -46h-394z" />
    <glyph glyph-name="twosuperior" unicode="&#xb2;" horiz-adv-x="340" 
d="M328 335h-277l5 36l71 51t70.5 51.5t51 42t42.5 46.5t16 42q5 36 -12.5 55.5t-54.5 19.5q-59 0 -131 -32l-11 35q85 38 153 38q57 0 85 -31t20 -87q-2 -13 -7 -26t-14.5 -26.5t-18 -24t-25 -25l-27.5 -23.5t-33 -25l-34 -24.5l-38.5 -26.5l-38.5 -26q32 2 43 2h170z" />
    <glyph glyph-name="threesuperior" unicode="&#xb3;" horiz-adv-x="339" 
d="M102 652l-8 33q78 36 151 36q57 0 85.5 -28t21.5 -77q-9 -62 -78 -83q74 -24 65 -94q-7 -52 -46 -79.5t-103 -27.5q-86 0 -148 38l20 33q61 -32 131 -32q43 0 69.5 18t30.5 52q9 72 -90 72h-64l6 40h63q90 0 99 60q4 33 -14.5 50.5t-56.5 17.5q-65 0 -134 -29z" />
    <glyph glyph-name="acute" unicode="&#xb4;" 
d="M346 695l51 -38l-2 -14q-71 -55 -154 -110l-22 25z" />
    <glyph glyph-name="paragraph" unicode="&#xb6;" horiz-adv-x="535" 
d="M532 557l-110 -6l-77 -551h-64l30 211h-19q-133 0 -183 45t-35 153q16 110 78.5 155.5t195.5 45.5h191z" />
    <glyph glyph-name="periodcentered" unicode="&#xb7;" horiz-adv-x="268" 
d="M99 284q2 19 15.5 30.5t32.5 11.5t29 -12t8 -32q-2 -18 -15.5 -30t-32.5 -12t-29.5 12.5t-7.5 31.5z" />
    <glyph glyph-name="cedilla" unicode="&#xb8;" 
d="M212 10l-10 -49q51 -2 71.5 -20t15.5 -58q-4 -37 -31 -57.5t-71 -20.5q-53 0 -89 12l11 41q38 -8 63 -8q62 0 67 37q4 24 -12 31t-59 7h-24l27 85h41z" />
    <glyph glyph-name="onesuperior" unicode="&#xb9;" horiz-adv-x="313" 
d="M303 373l-6 -42h-249l6 42h106l39 286q-53 -19 -110 -31l-7 27q78 27 134 55h38l-47 -337h96z" />
    <glyph glyph-name="ordmasculine" unicode="&#xba;" horiz-adv-x="434" 
d="M273 620q80 0 116.5 -46t24.5 -131q-11 -82 -60.5 -126t-128.5 -44t-116 44.5t-26 126.5q12 85 61.5 130.5t128.5 45.5zM229 318q117 0 135 126q10 65 -15 98.5t-81 33.5t-91 -34t-44 -99q-9 -62 16 -93.5t80 -31.5z" />
    <glyph glyph-name="guillemotright" unicode="&#xbb;" horiz-adv-x="519" 
d="M292 243l-228 -203l-30 33l146 134q24 21 46 36q-20 19 -34 35l-110 134l40 34zM458 243l-228 -203l-30 33l146 134q22 19 45 36q-12 11 -34 35l-109 134l39 34z" />
    <glyph glyph-name="onequarter" unicode="&#xbc;" horiz-adv-x="870" 
d="M48 231l6 42h106l39 286q-53 -19 -110 -31l-7 27q78 27 134 55h38l-47 -337h96l-6 -42h-249zM683 610l-445 -610h-44l444 610h45zM794 123l-5 -39h-62l-12 -84h-47l12 84h-225l4 36l263 259h46l-36 -256h62zM685 123l29 200q-11 -14 -30 -30l-134 -129l-42 -41h177z" />
    <glyph glyph-name="onehalf" unicode="&#xbd;" horiz-adv-x="875" 
d="M44 231l6 42h106l40 286q-51 -18 -111 -31l-6 27q78 27 134 55h38l-47 -337h96l-6 -42h-250zM679 610l-444 -610h-44l444 610h44zM572 312l-11 35q85 38 153 38q57 0 85 -31t20 -87q-2 -13 -7 -26t-14.5 -26.5t-18 -24t-25 -25l-27.5 -23.5t-33 -25l-34 -24.5
l-38.5 -26.5l-38.5 -26q32 2 43 2h170l-5 -42h-277l5 36l71 51t70.5 51.5t51 42t42.5 46.5t16 42q5 36 -12.5 55.5t-54.5 19.5q-59 0 -131 -32z" />
    <glyph glyph-name="threequarters" unicode="&#xbe;" horiz-adv-x="860" 
d="M95 552l-9 33q78 36 151 36q57 0 86 -28t22 -77q-10 -62 -79 -83q74 -24 65 -94q-7 -52 -46 -79.5t-102 -27.5q-85 0 -149 38l20 33q61 -32 132 -32q43 0 69 18t30 52q5 35 -18 53.5t-72 18.5h-63l6 40h63q89 0 98 60q4 33 -14 50.5t-56 17.5q-67 0 -134 -29zM684 610
l-444 -610h-44l444 610h44zM790 123l-5 -39h-62l-12 -84h-46l11 84h-224l3 36l263 259h46l-36 -256h62zM682 123l28 200q-10 -12 -29 -30l-135 -129q-20 -21 -42 -41h178z" />
    <glyph glyph-name="questiondown" unicode="&#xbf;" horiz-adv-x="504" 
d="M305 402q-17 0 -26 10.5t-7 27.5t14 27.5t28 10.5q18 0 27 -11t7 -28t-14 -27t-29 -10zM415 -32l16 -51q-138 -62 -247 -62q-89 0 -135 50t-34 134q10 70 72 116t166 63l10 79h55l-7 -129q-100 -9 -159.5 -41.5t-66.5 -83.5q-8 -58 23 -92t93 -34q79 0 214 51z" />
    <glyph glyph-name="Agrave" unicode="&#xc0;" horiz-adv-x="648" 
d="M432 675l-23 -25q-72 49 -143 110l-2 14l53 37zM479 161h-332l-91 -161h-73l347 610h91l177 -610h-73zM461 224l-77 266q-10 35 -16 71h-1q-21 -49 -33 -72l-151 -265h278z" />
    <glyph glyph-name="Aacute" unicode="&#xc1;" horiz-adv-x="648" 
d="M519 777l-3 -14q-61 -48 -153 -110l-23 25l128 137zM479 161h-332l-91 -161h-73l347 610h91l177 -610h-73zM461 224l-77 266q-10 35 -16 71h-1q-21 -49 -33 -72l-151 -265h278z" />
    <glyph glyph-name="Acircumflex" unicode="&#xc2;" horiz-adv-x="648" 
d="M256 650l-25 28l138 118h51l102 -118l-30 -28l-104 88zM479 161h-332l-91 -161h-73l347 610h91l177 -610h-73zM461 224l-77 266q-10 35 -16 71h-1q-21 -49 -33 -72l-151 -265h278z" />
    <glyph glyph-name="Atilde" unicode="&#xc3;" horiz-adv-x="648" 
d="M406 692l-55 30q-29 15 -48.5 7t-38.5 -40l-37 6q23 60 67.5 77.5t85.5 -7.5l54 -28q53 -28 88 38l39 -8q-24 -61 -70 -80t-85 5zM479 161h-332l-91 -161h-73l347 610h91l177 -610h-73zM461 224l-77 266q-10 35 -16 71h-1q-21 -49 -33 -72l-151 -265h278z" />
    <glyph glyph-name="Adieresis" unicode="&#xc4;" horiz-adv-x="648" 
d="M290 690q-16 0 -26.5 10.5t-8.5 27.5q3 17 16 27.5t29 10.5q17 0 27 -10.5t8 -28.5q-3 -17 -15.5 -27t-29.5 -10zM473 690q-18 0 -27.5 10t-6.5 28q2 18 14 28t29 10t27 -10.5t8 -28.5q-3 -17 -15.5 -27t-28.5 -10zM479 161h-332l-91 -161h-73l347 610h91l177 -610h-73z
M461 224l-77 266q-10 35 -16 71h-1q-21 -49 -33 -72l-151 -265h278z" />
    <glyph glyph-name="Aring" unicode="&#xc5;" horiz-adv-x="648" 
d="M377 659q-42 0 -64 24.5t-17 64.5q6 42 35 67.5t70 25.5q42 0 64 -26t17 -69q-5 -38 -34.5 -62.5t-70.5 -24.5zM337 746q-3 -22 9 -34.5t36 -12.5t40.5 13.5t18.5 35.5q6 53 -45 53q-24 0 -40 -15t-19 -40zM479 161h-332l-91 -161h-73l347 610h91l177 -610h-73zM461 224
l-77 266q-10 35 -16 71h-1q-21 -49 -33 -72l-151 -265h278z" />
    <glyph glyph-name="AE" unicode="&#xc6;" horiz-adv-x="961" 
d="M600 546l-29 -206h290l-9 -64h-290l-29 -212h339l-8 -64h-409l23 159h-272l-140 -159h-83l541 610h415l-8 -64h-331zM487 223l42 304l-268 -304h226z" />
    <glyph glyph-name="Ccedilla" unicode="&#xc7;" horiz-adv-x="624" 
d="M604 568l-30 -53q-80 41 -183 41q-110 0 -176.5 -64.5t-83.5 -187.5q-17 -119 30 -184t149 -65q132 0 228 63l20 -52q-104 -75 -259 -75h-15l-6 -30q51 -2 71.5 -20t15.5 -58q-4 -37 -31 -57.5t-71 -20.5q-53 0 -89 12l11 41q38 -8 63 -8q62 0 67 37q4 24 -12 31t-59 7
h-24l22 70q-105 17 -152 97t-28 213q21 152 107.5 233.5t227.5 81.5q128 0 207 -52z" />
    <glyph glyph-name="Egrave" unicode="&#xc8;" horiz-adv-x="559" 
d="M389 675l-23 -25q-72 49 -143 110l-2 14l53 37zM198 546l-29 -206h290l-9 -64h-290l-29 -212h339l-8 -64h-409l86 610h398l-8 -64h-331z" />
    <glyph glyph-name="Eacute" unicode="&#xc9;" horiz-adv-x="559" 
d="M452 777l-3 -14q-61 -48 -153 -110l-23 25l128 137zM198 546l-29 -206h290l-9 -64h-290l-29 -212h339l-8 -64h-409l86 610h398l-8 -64h-331z" />
    <glyph glyph-name="Ecircumflex" unicode="&#xca;" horiz-adv-x="559" 
d="M213 650l-25 28l138 118h51l102 -118l-30 -28l-104 88zM198 546l-29 -206h290l-9 -64h-290l-29 -212h339l-8 -64h-409l86 610h398l-8 -64h-331z" />
    <glyph glyph-name="Edieresis" unicode="&#xcb;" horiz-adv-x="559" 
d="M247 690q-17 0 -27 10.5t-8 27.5q3 17 16 27.5t29 10.5q17 0 27 -10.5t8 -28.5q-3 -17 -15.5 -27t-29.5 -10zM430 690q-18 0 -27.5 10t-6.5 28q2 18 14 28t29 10t27 -10.5t8 -28.5q-3 -17 -15.5 -27t-28.5 -10zM198 546l-29 -206h290l-9 -64h-290l-29 -212h339l-8 -64
h-409l86 610h398l-8 -64h-331z" />
    <glyph glyph-name="Igrave" unicode="&#xcc;" horiz-adv-x="254" 
d="M234 675l-23 -25q-72 50 -142 110l-2 14l52 37zM207 610l-85 -610h-69l86 610h68z" />
    <glyph glyph-name="Iacute" unicode="&#xcd;" horiz-adv-x="254" 
d="M270 815l52 -38l-3 -14q-71 -55 -154 -110l-22 25zM207 610l-85 -610h-69l86 610h68z" />
    <glyph glyph-name="Icircumflex" unicode="&#xce;" horiz-adv-x="254" 
d="M325 678l-30 -28l-104 88l-133 -88l-24 28l138 118h50zM139 610h68l-85 -610h-69z" />
    <glyph glyph-name="Idieresis" unicode="&#xcf;" horiz-adv-x="254" 
d="M102 766q18 0 28 -10.5t7 -28.5q-3 -17 -15 -27t-29 -10t-27 10.5t-8 27.5q3 17 15.5 27.5t28.5 10.5zM285 766q17 0 27 -10.5t7 -28.5q-3 -17 -15.5 -27t-28.5 -10q-17 0 -26.5 10t-7.5 28q3 18 15 28t29 10zM207 610l-85 -610h-69l86 610h68z" />
    <glyph glyph-name="Eth" unicode="&#xd0;" horiz-adv-x="653" 
d="M139 610h184q152 0 227.5 -77t55.5 -222q-21 -152 -117.5 -231.5t-248.5 -79.5h-187l39 273h-78l8 56h77zM131 64h118q118 0 194 63.5t93 184.5q17 118 -40.5 176t-180.5 58h-117l-30 -217h129l-8 -56h-129z" />
    <glyph glyph-name="Ntilde" unicode="&#xd1;" horiz-adv-x="692" 
d="M544 775l39 -8q-24 -61 -70 -80t-86 5l-54 30q-29 15 -48.5 7t-38.5 -40l-38 6q24 60 68 77.5t86 -7.5l54 -28q52 -28 88 38zM563 0h-62l-307 493l-5 -37l-64 -456h-68l85 610h62l307 -495l3 20l66 475h69z" />
    <glyph glyph-name="Ograve" unicode="&#xd2;" horiz-adv-x="671" 
d="M443 675l-23 -25q-72 49 -143 110l-2 14l53 37zM390 620q135 0 198 -82t42 -234q-21 -150 -107 -231.5t-221 -81.5t-198.5 82t-41.5 232q21 151 106.5 233t221.5 82zM310 55q104 0 169 64.5t82 185.5q16 122 -30 186.5t-150 64.5q-103 0 -168 -65t-82 -187
q-17 -121 29.5 -185t149.5 -64z" />
    <glyph glyph-name="Oacute" unicode="&#xd3;" horiz-adv-x="671" 
d="M479 815l51 -38l-3 -14q-61 -48 -153 -110l-23 25zM390 620q135 0 198 -82t42 -234q-21 -150 -107 -231.5t-221 -81.5t-198.5 82t-41.5 232q21 151 106.5 233t221.5 82zM310 55q104 0 169 64.5t82 185.5q16 122 -30 186.5t-150 64.5q-103 0 -168 -65t-82 -187
q-17 -121 29.5 -185t149.5 -64z" />
    <glyph glyph-name="Ocircumflex" unicode="&#xd4;" horiz-adv-x="671" 
d="M267 650l-25 28l138 118h51l102 -118l-30 -28l-104 88zM390 620q135 0 198 -82t42 -234q-21 -150 -107 -231.5t-221 -81.5t-198.5 82t-41.5 232q21 151 106.5 233t221.5 82zM561 305q16 122 -30 186.5t-150 64.5q-103 0 -168 -65t-82 -187q-17 -121 29.5 -185t149.5 -64
q104 0 169 64.5t82 185.5z" />
    <glyph glyph-name="Otilde" unicode="&#xd5;" horiz-adv-x="671" 
d="M533 775l39 -8q-24 -61 -70 -80t-85 5l-55 30q-29 15 -48.5 7t-38.5 -40l-37 6q23 60 67.5 77.5t85.5 -7.5l54 -28q53 -28 88 38zM390 620q135 0 198 -82t42 -234q-21 -150 -107 -231.5t-221 -81.5t-198.5 82t-41.5 232q21 151 106.5 233t221.5 82zM310 55
q104 0 169 64.5t82 185.5q16 122 -30 186.5t-150 64.5q-103 0 -168 -65t-82 -187q-17 -121 29.5 -185t149.5 -64z" />
    <glyph glyph-name="Odieresis" unicode="&#xd6;" horiz-adv-x="671" 
d="M311 766q17 0 27 -10.5t8 -28.5q-3 -17 -15.5 -27t-29.5 -10t-27 10.5t-8 27.5q3 17 16 27.5t29 10.5zM493 766q17 0 27 -10.5t8 -28.5q-3 -17 -15.5 -27t-28.5 -10q-18 0 -27.5 10t-6.5 28q2 18 14 28t29 10zM390 620q135 0 198 -82t42 -234q-21 -150 -107 -231.5
t-221 -81.5t-198.5 82t-41.5 232q21 151 106.5 233t221.5 82zM310 55q104 0 169 64.5t82 185.5q16 122 -30 186.5t-150 64.5q-103 0 -168 -65t-82 -187q-17 -121 29.5 -185t149.5 -64z" />
    <glyph glyph-name="multiply" unicode="&#xd7;" horiz-adv-x="462" 
d="M269 246l112 -130l-41 -36l-113 130l-148 -130l-32 36l149 130l-109 127l41 36l109 -126l145 127l30 -37z" />
    <glyph glyph-name="Oslash" unicode="&#xd8;" horiz-adv-x="671" 
d="M664 589l-64 -63q53 -80 33 -222q-21 -150 -107 -231.5t-221 -81.5q-119 0 -183 64l-62 -61l-26 28l64 63q-52 82 -33 220q21 151 107 233t221 82q119 0 183 -64l62 60zM152 138l372 366q-47 52 -139 52q-104 0 -169 -65t-82 -187q-14 -104 18 -166zM546 473l-372 -367
q46 -51 139 -51q104 0 169 64.5t82 185.5q15 103 -18 168z" />
    <glyph glyph-name="Ugrave" unicode="&#xd9;" horiz-adv-x="663" 
d="M439 675l-23 -25q-72 49 -143 110l-2 14l53 37zM639 610l-47 -337q-20 -136 -96 -209t-198 -73t-177.5 73.5t-36.5 209.5l46 336h69l-47 -337q-15 -105 25 -161t129 -56q86 0 144.5 58.5t72.5 159.5l48 336h68z" />
    <glyph glyph-name="Uacute" unicode="&#xda;" horiz-adv-x="663" 
d="M475 815l51 -38l-3 -14q-61 -48 -153 -110l-23 25zM639 610l-47 -337q-20 -136 -96 -209t-198 -73t-177.5 73.5t-36.5 209.5l46 336h69l-47 -337q-15 -105 25 -161t129 -56q86 0 144.5 58.5t72.5 159.5l48 336h68z" />
    <glyph glyph-name="Ucircumflex" unicode="&#xdb;" horiz-adv-x="663" 
d="M263 650l-25 28l138 118h51l102 -118l-30 -28l-104 88zM639 610l-47 -337q-20 -136 -96 -209t-198 -73t-177.5 73.5t-36.5 209.5l46 336h69l-47 -337q-15 -105 25 -161t129 -56q86 0 144.5 58.5t72.5 159.5l48 336h68z" />
    <glyph glyph-name="Udieresis" unicode="&#xdc;" horiz-adv-x="663" 
d="M307 766q17 0 27 -10.5t8 -28.5q-3 -17 -15.5 -27t-29.5 -10t-27 10.5t-8 27.5q3 17 16 27.5t29 10.5zM489 766q17 0 27 -10.5t8 -28.5q-3 -17 -15.5 -27t-28.5 -10q-18 0 -27.5 10t-6.5 28q2 18 14 28t29 10zM639 610l-47 -337q-20 -136 -96 -209t-198 -73t-177.5 73.5
t-36.5 209.5l46 336h69l-47 -337q-15 -105 25 -161t129 -56q86 0 144.5 58.5t72.5 159.5l48 336h68z" />
    <glyph glyph-name="Yacute" unicode="&#xdd;" horiz-adv-x="560" 
d="M475 777l-3 -14q-61 -48 -153 -110l-23 25l128 137zM311 211l-29 -211h-69l30 210l-174 400h72l132 -291q8 -18 13 -42q8 18 25 42l212 291h74z" />
    <glyph glyph-name="Thorn" unicode="&#xde;" horiz-adv-x="574" 
d="M192 503h132q120 0 175 -53t40 -154q-15 -105 -80.5 -154t-188.5 -49h-135l-13 -93h-69l86 610h68zM143 149h134q175 0 196 148q10 74 -28.5 110t-128.5 36h-132z" />
    <glyph glyph-name="germandbls" unicode="&#xdf;" horiz-adv-x="580" 
d="M45 467h82q26 80 94.5 127.5t160.5 47.5q83 0 130 -44.5t37 -115.5q-7 -52 -44.5 -93.5t-86.5 -56.5q61 -14 93.5 -61.5t23.5 -112.5q-11 -75 -68.5 -121t-142.5 -46q-61 0 -118 15l13 50q51 -12 103 -12q61 0 102 33.5t49 87.5q8 61 -33 98t-118 37h-58l7 58h57
q63 0 106.5 32.5t50.5 85.5q7 50 -23.5 80t-85.5 30q-76 0 -129 -44.5t-63 -119.5l-59 -422h-67l58 413l-78 6z" />
    <glyph glyph-name="agrave" unicode="&#xe0;" horiz-adv-x="562" 
d="M408 558l-23 -25q-80 57 -143 110l-2 14l53 38zM523 468l-66 -468h-67l9 63q-50 -39 -85.5 -55.5t-88.5 -16.5q-86 0 -138 60.5t-35 184.5q33 241 222 241q95 0 174 -69l8 60h67zM407 121l33 230q-79 69 -155 69q-142 0 -167 -186q-14 -96 22.5 -141.5t100.5 -45.5
q46 0 81 17t85 57z" />
    <glyph glyph-name="aacute" unicode="&#xe1;" horiz-adv-x="562" 
d="M445 657l-2 -14q-71 -55 -154 -110l-22 25l127 137zM523 468l-66 -468h-67l9 63q-50 -39 -85.5 -55.5t-88.5 -16.5q-86 0 -138 60.5t-35 184.5q33 241 222 241q95 0 174 -69l8 60h67zM407 121l33 230q-79 69 -155 69q-142 0 -167 -186q-14 -96 22.5 -141.5t100.5 -45.5
q46 0 81 17t85 57z" />
    <glyph glyph-name="acircumflex" unicode="&#xe2;" horiz-adv-x="562" 
d="M477 561l-30 -27l-104 87l-133 -87l-24 27l137 118h51zM523 468l-66 -468h-67l9 63q-50 -39 -85.5 -55.5t-88.5 -16.5q-86 0 -138 60.5t-35 184.5q33 241 222 241q95 0 174 -69l8 60h67zM407 121l33 230q-79 69 -155 69q-142 0 -167 -186q-14 -96 22.5 -141.5
t100.5 -45.5q46 0 81 17t85 57z" />
    <glyph glyph-name="atilde" unicode="&#xe3;" horiz-adv-x="562" 
d="M353 586l-54 30q-30 14 -49.5 6t-37.5 -40l-38 6q23 60 67.5 77.5t85.5 -7.5l55 -28q53 -26 88 38l38 -7q-16 -42 -43 -64.5t-55 -23t-57 12.5zM523 468l-66 -468h-67l9 63q-50 -39 -85.5 -55.5t-88.5 -16.5q-86 0 -138 60.5t-35 184.5q33 241 222 241q95 0 174 -69l8 60
h67zM407 121l33 230q-79 69 -155 69q-142 0 -167 -186q-14 -96 22.5 -141.5t100.5 -45.5q46 0 81 17t85 57z" />
    <glyph glyph-name="adieresis" unicode="&#xe4;" horiz-adv-x="562" 
d="M240 573q-16 0 -26 10.5t-8 27.5q3 17 15.5 27t28.5 10q18 0 27.5 -10t7.5 -28q-6 -37 -45 -37zM423 573q-18 0 -27.5 10t-6.5 28q5 37 44 37q16 0 26 -10.5t8 -27.5q-3 -17 -15.5 -27t-28.5 -10zM523 468l-66 -468h-67l9 63q-50 -39 -85.5 -55.5t-88.5 -16.5
q-86 0 -138 60.5t-35 184.5q33 241 222 241q95 0 174 -69l8 60h67zM407 121l33 230q-79 69 -155 69q-142 0 -167 -186q-14 -96 22.5 -141.5t100.5 -45.5q46 0 81 17t85 57z" />
    <glyph glyph-name="aring" unicode="&#xe5;" horiz-adv-x="562" 
d="M325 527q-42 0 -64 25t-17 64q6 42 35 67.5t71 25.5q41 0 63.5 -26t16.5 -68q-5 -38 -34.5 -63t-70.5 -25zM285 615q-6 -47 45 -47q24 0 40 13t20 35q6 54 -45 54q-23 0 -39.5 -15t-20.5 -40zM523 468l-66 -468h-67l9 63q-50 -39 -85.5 -55.5t-88.5 -16.5
q-86 0 -138 60.5t-35 184.5q33 241 222 241q95 0 174 -69l8 60h67zM407 121l33 230q-79 69 -155 69q-142 0 -167 -186q-14 -96 22.5 -141.5t100.5 -45.5q46 0 81 17t85 57z" />
    <glyph glyph-name="ae" unicode="&#xe6;" horiz-adv-x="854" 
d="M128 398l-5 49q113 30 189 30q106 0 126 -83q68 83 190 83q95 0 141 -57.5t34 -170.5q-5 -26 -7 -33h-361q-8 -88 30.5 -129.5t106.5 -41.5q96 0 177 60l17 -40q-91 -74 -202 -74q-118 0 -167 87q-102 -87 -206 -87q-96 0 -133 35t-26 112q9 62 66 97t153 35
q27 0 63.5 -0.5t62.5 -0.5q12 84 -4 118t-78 34q-71 0 -167 -23zM444 269h302q7 77 -25.5 115.5t-97.5 38.5q-141 0 -179 -154zM373 216h-5q-51 1 -123 1q-66 0 -105.5 -20t-44.5 -57q-8 -50 19 -72.5t96 -22.5q78 0 170 76q-11 44 -7 95z" />
    <glyph glyph-name="ccedilla" unicode="&#xe7;" horiz-adv-x="496" 
d="M465 429l-31 -46q-58 37 -137 37q-71 0 -123 -49.5t-65 -140.5q-12 -87 25 -134t106 -47q90 0 173 59l19 -45q-51 -40 -98 -56t-109 -16h-4l-6 -30q51 -2 71.5 -20t15.5 -58q-4 -37 -31 -57.5t-70 -20.5q-55 0 -89 12l11 41q37 -8 62 -8q62 0 67 37q4 24 -11.5 31
t-58.5 7h-25l23 70q-76 15 -113 76t-23 160q16 116 88 181t172 65q95 0 161 -48z" />
    <glyph glyph-name="egrave" unicode="&#xe8;" horiz-adv-x="522" 
d="M377 559l-23 -25q-72 50 -142 110l-2 14l52 37zM417 105l17 -40q-91 -74 -202 -74q-100 0 -152.5 65t-35.5 181q16 118 83 179t169 61q95 0 141 -57.5t34 -170.5q-5 -26 -7 -33h-361q-8 -88 30.5 -129.5t106.5 -41.5q96 0 177 60zM112 269h302q7 77 -25.5 115.5
t-97.5 38.5q-141 0 -179 -154z" />
    <glyph glyph-name="eacute" unicode="&#xe9;" horiz-adv-x="522" 
d="M415 658l-3 -14q-72 -57 -153 -110l-22 25l127 136zM417 105l17 -40q-91 -74 -202 -74q-100 0 -152.5 65t-35.5 181q16 118 83 179t169 61q95 0 141 -57.5t34 -170.5q-5 -26 -7 -33h-361q-8 -88 30.5 -129.5t106.5 -41.5q96 0 177 60zM112 269h302q7 77 -25.5 115.5
t-97.5 38.5q-141 0 -179 -154z" />
    <glyph glyph-name="ecircumflex" unicode="&#xea;" horiz-adv-x="522" 
d="M447 562l-31 -28l-104 88l-132 -88l-25 28l138 118h51zM417 105l17 -40q-91 -74 -202 -74q-100 0 -152.5 65t-35.5 181q16 118 83 179t169 61q95 0 141 -57.5t34 -170.5q-5 -26 -7 -33h-361q-8 -88 30.5 -129.5t106.5 -41.5q96 0 177 60zM112 269h302q7 77 -25.5 115.5
t-97.5 38.5q-141 0 -179 -154z" />
    <glyph glyph-name="edieresis" unicode="&#xeb;" horiz-adv-x="522" 
d="M210 574q-17 0 -27 10.5t-7 27.5q2 17 14.5 27t29.5 10t27 -10.5t8 -28.5q-6 -36 -45 -36zM393 574q-18 0 -27.5 10t-6.5 28q5 37 43 37q17 0 27 -10.5t8 -28.5q-3 -17 -15.5 -26.5t-28.5 -9.5zM417 105l17 -40q-91 -74 -202 -74q-100 0 -152.5 65t-35.5 181
q16 118 83 179t169 61q95 0 141 -57.5t34 -170.5q-5 -26 -7 -33h-361q-8 -88 30.5 -129.5t106.5 -41.5q96 0 177 60zM112 269h302q7 77 -25.5 115.5t-97.5 38.5q-141 0 -179 -154z" />
    <glyph glyph-name="igrave" unicode="&#xec;" horiz-adv-x="223" 
d="M202 558l-23 -25q-80 57 -143 110l-2 14l53 38zM171 468l-65 -468h-67l66 468h66z" />
    <glyph glyph-name="iacute" unicode="&#xed;" horiz-adv-x="223" 
d="M215 695l51 -38l-3 -14q-61 -48 -153 -110l-22 25zM171 468l-65 -468h-67l66 468h66z" />
    <glyph glyph-name="icircumflex" unicode="&#xee;" horiz-adv-x="223" 
d="M298 561l-30 -27l-104 87l-133 -87l-24 27l138 118h50zM105 468h66l-65 -468h-67z" />
    <glyph glyph-name="idieresis" unicode="&#xef;" horiz-adv-x="223" 
d="M71 648q18 0 28 -10t7 -28q-5 -37 -44 -37q-16 0 -26.5 10.5t-8.5 27.5q3 17 15.5 27t28.5 10zM254 648q17 0 27 -10.5t7 -27.5q-2 -17 -14.5 -27t-29.5 -10t-26.5 10t-6.5 28q5 37 43 37zM171 468l-65 -468h-67l66 468h66z" />
    <glyph glyph-name="eth" unicode="&#xf0;" horiz-adv-x="557" 
d="M503 231h-66q15 109 -21 187q-163 -1 -230 -45t-81 -146q-13 -89 23 -135t116 -46q81 0 130.5 47t62.5 137h66q-16 -114 -85.5 -176.5t-180.5 -62.5q-110 0 -161.5 62.5t-35.5 177.5t97 176t249 62q-29 41 -79 83l-137 -66l-14 41l115 55q-26 21 -77 55v10l63 27l79 -60
l110 53l15 -41l-90 -43q88 -82 118 -161.5t14 -190.5z" />
    <glyph glyph-name="ntilde" unicode="&#xf1;" horiz-adv-x="552" 
d="M349 586l-54 30q-30 14 -49.5 6t-37.5 -40l-38 6q24 60 68 77.5t86 -7.5l54 -28q53 -26 88 38l39 -7q-24 -62 -70 -81t-86 6zM173 468l-9 -65q49 39 91.5 56t93.5 17q76 0 112.5 -48t23.5 -137l-41 -291h-67l42 284q10 73 -10 105t-77 32q-77 0 -177 -81l-48 -340h-66
l65 468h67z" />
    <glyph glyph-name="ograve" unicode="&#xf2;" horiz-adv-x="557" 
d="M402 559l-23 -25q-70 49 -143 110l-2 14l53 37zM312 477q107 0 160 -66.5t37 -180.5q-14 -110 -86 -174.5t-179 -64.5q-106 0 -159.5 65t-38.5 175q16 113 88 179.5t178 66.5zM251 49q78 0 130 49t64 133q26 188 -140 188q-77 0 -129.5 -51t-64.5 -138q-26 -181 140 -181
z" />
    <glyph glyph-name="oacute" unicode="&#xf3;" horiz-adv-x="557" 
d="M388 695l52 -37l-3 -14q-72 -57 -153 -110l-23 25zM312 477q107 0 160 -66.5t37 -180.5q-14 -110 -86 -174.5t-179 -64.5q-106 0 -159.5 65t-38.5 175q16 113 88 179.5t178 66.5zM251 49q78 0 130 49t64 133q26 188 -140 188q-77 0 -129.5 -51t-64.5 -138
q-26 -181 140 -181z" />
    <glyph glyph-name="ocircumflex" unicode="&#xf4;" horiz-adv-x="557" 
d="M471 562l-30 -28q-21 19 -57 48.5t-47 39.5l-133 -88l-24 28l138 118h50zM312 477q107 0 160 -66.5t37 -180.5q-14 -110 -86 -174.5t-179 -64.5q-106 0 -159.5 65t-38.5 175q16 113 88 179.5t178 66.5zM445 231q26 188 -140 188q-77 0 -129.5 -51t-64.5 -138
q-26 -181 140 -181q78 0 130 49t64 133z" />
    <glyph glyph-name="otilde" unicode="&#xf5;" horiz-adv-x="557" 
d="M464 669l39 -8q-24 -61 -70 -80t-86 5l-54 30q-30 15 -49 7t-38 -40l-38 6q24 60 68 77.5t86 -7.5l54 -28q52 -28 88 38zM312 477q107 0 160 -66.5t37 -180.5q-14 -110 -86 -174.5t-179 -64.5q-106 0 -159.5 65t-38.5 175q16 113 88 179.5t178 66.5zM251 49q78 0 130 49
t64 133q26 188 -140 188q-77 0 -129.5 -51t-64.5 -138q-26 -181 140 -181z" />
    <glyph glyph-name="odieresis" unicode="&#xf6;" horiz-adv-x="557" 
d="M244 649q18 0 28 -10.5t7 -28.5q-2 -17 -14.5 -26.5t-29.5 -9.5t-27 10.5t-8 27.5q3 17 15.5 27t28.5 10zM427 649q17 0 27 -10.5t7 -28.5q-2 -17 -14.5 -26.5t-29.5 -9.5t-26.5 10t-6.5 28q5 37 43 37zM312 477q107 0 160 -66.5t37 -180.5q-14 -110 -86 -174.5
t-179 -64.5q-106 0 -159.5 65t-38.5 175q16 113 88 179.5t178 66.5zM251 49q78 0 130 49t64 133q26 188 -140 188q-77 0 -129.5 -51t-64.5 -138q-26 -181 140 -181z" />
    <glyph glyph-name="divide" unicode="&#xf7;" horiz-adv-x="463" 
d="M217 396q2 16 13.5 26t27.5 10q18 0 27 -10.5t6 -27.5q-2 -17 -13.5 -27t-28.5 -10t-26 11t-6 28zM426 211h-394l8 51h393zM173 88q2 17 14 27t28 10q17 0 26 -11t7 -28q-2 -16 -14 -26t-28 -10q-17 0 -26 10.5t-7 27.5z" />
    <glyph glyph-name="oslash" unicode="&#xf8;" horiz-adv-x="557" 
d="M510 452l-40 -39q57 -68 39 -183q-14 -110 -86 -174.5t-179 -64.5q-96 0 -150 54l-41 -40l-20 22l42 41q-42 64 -29 163q16 113 88 179.5t178 66.5q83 0 136 -42l41 40zM122 114l282 278q-36 27 -99 27q-77 0 -129.5 -51t-64.5 -138q-9 -74 11 -116zM425 369l-287 -281
q36 -39 113 -39q78 0 130 49t64 133q12 93 -20 138z" />
    <glyph glyph-name="ugrave" unicode="&#xf9;" horiz-adv-x="549" 
d="M398 558l-23 -25q-80 57 -143 110l-2 14l53 38zM505 468l-66 -468h-66l9 66q-94 -74 -187 -74q-75 0 -111.5 48.5t-23.5 137.5l41 290h66l-39 -276q-11 -73 9 -105.5t77 -32.5q85 0 177 76l47 338h67z" />
    <glyph glyph-name="uacute" unicode="&#xfa;" horiz-adv-x="549" 
d="M435 657l-2 -14q-71 -55 -154 -110l-22 25l127 137zM505 468l-66 -468h-66l9 66q-94 -74 -187 -74q-75 0 -111.5 48.5t-23.5 137.5l41 290h66l-39 -276q-11 -73 9 -105.5t77 -32.5q85 0 177 76l47 338h67z" />
    <glyph glyph-name="ucircumflex" unicode="&#xfb;" horiz-adv-x="549" 
d="M467 561l-30 -27l-104 87l-133 -87l-24 27l137 118h51zM505 468l-66 -468h-66l9 66q-94 -74 -187 -74q-75 0 -111.5 48.5t-23.5 137.5l41 290h66l-39 -276q-11 -73 9 -105.5t77 -32.5q85 0 177 76l47 338h67z" />
    <glyph glyph-name="udieresis" unicode="&#xfc;" horiz-adv-x="549" 
d="M230 573q-16 0 -26 10.5t-8 27.5q3 17 15.5 27t28.5 10q18 0 27.5 -10t7.5 -28q-6 -37 -45 -37zM413 573q-18 0 -27.5 10t-6.5 28q5 37 44 37q16 0 26 -10.5t8 -27.5q-3 -17 -15.5 -27t-28.5 -10zM505 468l-66 -468h-66l9 66q-94 -74 -187 -74q-75 0 -111.5 48.5
t-23.5 137.5l41 290h66l-39 -276q-11 -73 9 -105.5t77 -32.5q85 0 177 76l47 338h67z" />
    <glyph glyph-name="yacute" unicode="&#xfd;" horiz-adv-x="495" 
d="M411 657l-3 -14q-61 -48 -153 -110l-22 25l127 137zM445 468h73l-71 -129l-84.5 -151l-71.5 -119q-102 -157 -241 -213l-17 57q84 40 137 100l-132 455h71l91 -316q16 -61 19 -75l8 11l52.5 86l48 83.5l58 104z" />
    <glyph glyph-name="thorn" unicode="&#xfe;" horiz-adv-x="560" 
d="M194 643l-33 -234q103 68 191 68q189 0 155 -243q-18 -123 -83.5 -183t-150.5 -60q-53 0 -88 16.5t-73 53.5l-31 -226h-67l113 808h67zM153 351l-33 -233q38 -37 68.5 -54t73.5 -17q65 0 115 46t64 143q25 184 -115 184q-70 0 -173 -69z" />
    <glyph glyph-name="ydieresis" unicode="&#xff;" horiz-adv-x="495" 
d="M206 573q-17 0 -27 10.5t-7 27.5q2 17 14.5 27t29.5 10t27 -10.5t8 -27.5q-6 -37 -45 -37zM389 573q-18 0 -27.5 10t-6.5 28q5 37 43 37q17 0 27 -10.5t8 -27.5q-3 -17 -15.5 -27t-28.5 -10zM445 468h73l-71 -129l-84.5 -151l-71.5 -119q-102 -157 -241 -213l-17 57
q84 40 137 100l-132 455h71l91 -316q16 -61 19 -75l8 11l52.5 86l48 83.5l58 104z" />
    <glyph glyph-name="Amacron" unicode="&#x100;" horiz-adv-x="648" 
d="M499 702h-233l7 55h233zM479 161h-332l-91 -161h-73l347 610h91l177 -610h-73zM461 224l-77 266q-10 35 -16 71h-1q-21 -49 -33 -72l-151 -265h278z" />
    <glyph glyph-name="amacron" unicode="&#x101;" horiz-adv-x="562" 
d="M449 577h-233l6 56h234zM523 468l-66 -468h-67l9 63q-50 -39 -85.5 -55.5t-88.5 -16.5q-86 0 -138 60.5t-35 184.5q33 241 222 241q95 0 174 -69l8 60h67zM407 121l33 230q-79 69 -155 69q-142 0 -167 -186q-14 -96 22.5 -141.5t100.5 -45.5q46 0 81 17t85 57z" />
    <glyph glyph-name="Abreve" unicode="&#x102;" horiz-adv-x="648" 
d="M469 779h50q-8 -53 -43.5 -84.5t-100.5 -31.5q-62 0 -90 32.5t-19 83.5h47q-9 -70 65 -70q44 0 64 18.5t27 51.5zM479 161h-332l-91 -161h-73l347 610h91l177 -610h-73zM461 224l-77 266q-10 35 -16 71h-1q-21 -49 -33 -72l-151 -265h278z" />
    <glyph glyph-name="abreve" unicode="&#x103;" horiz-adv-x="562" 
d="M426 660h50q-19 -118 -145 -118q-61 0 -89.5 32.5t-19.5 85.5h48q-10 -71 64 -71q45 0 64.5 18t27.5 53zM523 468l-66 -468h-67l9 63q-50 -39 -85.5 -55.5t-88.5 -16.5q-86 0 -138 60.5t-35 184.5q33 241 222 241q95 0 174 -69l8 60h67zM407 121l33 230q-79 69 -155 69
q-142 0 -167 -186q-14 -96 22.5 -141.5t100.5 -45.5q46 0 81 17t85 57z" />
    <glyph glyph-name="Aogonek" unicode="&#x104;" horiz-adv-x="648" 
d="M598 0h-8q-75 -5 -112 -27t-38 -50q-1 -24 15.5 -38t46.5 -14q23 0 64 9l5 -44q-46 -16 -89 -16t-70 24.5t-25 63.5q1 44 36 73t97 39l-41 141h-332l-91 -161h-73l347 610h91zM461 224l-77 266q-10 35 -16 71h-1q-21 -49 -33 -72l-151 -265h278z" />
    <glyph glyph-name="aogonek" unicode="&#x105;" horiz-adv-x="562" 
d="M457 0h-29q-38 -10 -62.5 -31.5t-28.5 -45.5q-4 -27 7.5 -38.5t43.5 -11.5q18 0 62 8l4 -42q-43 -16 -85 -16q-46 0 -68.5 23.5t-17.5 63.5q5 32 34.5 60t74.5 42l7 51q-50 -39 -85.5 -55.5t-88.5 -16.5q-86 0 -138 60.5t-35 184.5q33 241 222 241q95 0 174 -69l8 60h67z
M407 121l33 230q-79 69 -155 69q-142 0 -167 -186q-14 -96 22.5 -141.5t100.5 -45.5q46 0 81 17t85 57z" />
    <glyph glyph-name="Cacute" unicode="&#x106;" horiz-adv-x="624" 
d="M478 817l52 -37l-3 -14q-81 -63 -154 -110l-22 25zM538 118l20 -52q-104 -75 -259 -75q-133 0 -196 82t-41 232q21 152 107.5 233.5t227.5 81.5q128 0 207 -52l-30 -53q-80 41 -183 41q-110 0 -176.5 -64.5t-83.5 -187.5q-17 -119 30 -184t149 -65q132 0 228 63z" />
    <glyph glyph-name="cacute" unicode="&#x107;" horiz-adv-x="496" 
d="M359 695l51 -37l-3 -14q-72 -57 -153 -110l-22 25zM413 108l19 -45q-51 -40 -98 -56t-109 -16q-96 0 -146.5 63.5t-34.5 176.5q16 116 88 181t172 65q95 0 161 -48l-31 -46q-58 37 -137 37q-71 0 -123 -49.5t-65 -140.5q-12 -87 25 -134t106 -47q90 0 173 59z" />
    <glyph glyph-name="Cdotaccent" unicode="&#x10a;" horiz-adv-x="624" 
d="M403 775q19 0 30.5 -12.5t8.5 -32.5t-17.5 -31.5t-33.5 -11.5t-30.5 12t-8.5 32q3 21 17 32.5t34 11.5zM538 118l20 -52q-104 -75 -259 -75q-133 0 -196 82t-41 232q21 152 107.5 233.5t227.5 81.5q128 0 207 -52l-30 -53q-80 41 -183 41q-110 0 -176.5 -64.5
t-83.5 -187.5q-17 -119 30 -184t149 -65q132 0 228 63z" />
    <glyph glyph-name="cdotaccent" unicode="&#x10b;" horiz-adv-x="496" 
d="M314 656q20 0 31.5 -12t7.5 -33q-2 -20 -16.5 -31.5t-33.5 -11.5q-20 0 -31 12t-8 32q2 20 16.5 32t33.5 12zM413 108l19 -45q-51 -40 -98 -56t-109 -16q-96 0 -146.5 63.5t-34.5 176.5q16 116 88 181t172 65q95 0 161 -48l-31 -46q-58 37 -137 37q-71 0 -123 -49.5
t-65 -140.5q-12 -87 25 -134t106 -47q90 0 173 59z" />
    <glyph glyph-name="Ccaron" unicode="&#x10c;" horiz-adv-x="624" 
d="M362 662l-103 119l30 27l104 -88l123 90l28 -29l-131 -119h-51zM604 568l-30 -53q-80 41 -183 41q-110 0 -176.5 -64.5t-83.5 -187.5q-17 -119 30 -184t149 -65q132 0 228 63l20 -52q-104 -75 -259 -75q-133 0 -196 82t-41 232q21 152 107.5 233.5t227.5 81.5
q128 0 207 -52z" />
    <glyph glyph-name="ccaron" unicode="&#x10d;" horiz-adv-x="496" 
d="M273 535l-102 118l30 28l103 -88l123 90l28 -30l-131 -118h-51zM465 429l-31 -46q-58 37 -137 37q-71 0 -123 -49.5t-65 -140.5q-12 -87 25 -134t106 -47q90 0 173 59l19 -45q-51 -40 -98 -56t-109 -16q-96 0 -146.5 63.5t-34.5 176.5q16 116 88 181t172 65q95 0 161 -48
z" />
    <glyph glyph-name="Dcaron" unicode="&#x10e;" horiz-adv-x="653" 
d="M337 660l-103 118l30 27l104 -87l123 89l28 -29l-132 -118h-50zM139 610h184q152 0 227.5 -77t55.5 -222q-21 -152 -117.5 -231.5t-248.5 -79.5h-187zM131 64h118q118 0 194 63.5t93 184.5q17 118 -40.5 176t-180.5 58h-117z" />
    <glyph glyph-name="dcaron" unicode="&#x10f;" horiz-adv-x="562" 
d="M647 655l-2 -13q-16 -79 -46 -152h-40l30 165h58zM471 655h67l-92 -655h-67l9 64q-51 -40 -86.5 -56.5t-88.5 -16.5q-86 0 -138 60.5t-35 184.5q18 125 79 183t150 58q91 0 167 -71zM397 128l31 223q-78 69 -154 69q-143 0 -168 -186q-13 -96 23 -139.5t101 -43.5
q45 0 82 19t85 58z" />
    <glyph glyph-name="Dcroat" unicode="&#x110;" horiz-adv-x="653" 
d="M139 610h184q152 0 227.5 -77t55.5 -222q-21 -152 -117.5 -231.5t-248.5 -79.5h-187l39 273h-78l8 56h77zM131 64h118q118 0 194 63.5t93 184.5q17 118 -40.5 176t-180.5 58h-117l-30 -217h129l-8 -56h-129z" />
    <glyph glyph-name="dcroat" unicode="&#x111;" horiz-adv-x="608" 
d="M614 528h-94l-74 -528h-67l9 64q-51 -40 -86.5 -56.5t-88.5 -16.5q-86 0 -138 60.5t-35 184.5q18 125 79 183t150 58q91 0 167 -71l17 122h-96l7 51h96l11 76h67l-11 -76h94zM397 128l31 223q-78 69 -154 69q-143 0 -168 -186q-13 -96 23 -139.5t101 -43.5q45 0 82 19
t85 58z" />
    <glyph glyph-name="Emacron" unicode="&#x112;" horiz-adv-x="559" 
d="M456 702h-233l7 55h233zM198 546l-29 -206h290l-9 -64h-290l-29 -212h339l-8 -64h-409l86 610h398l-8 -64h-331z" />
    <glyph glyph-name="emacron" unicode="&#x113;" horiz-adv-x="522" 
d="M419 578h-234l7 55h233zM417 105l17 -40q-91 -74 -202 -74q-100 0 -152.5 65t-35.5 181q16 118 83 179t169 61q95 0 141 -57.5t34 -170.5q-5 -26 -7 -33h-361q-8 -88 30.5 -129.5t106.5 -41.5q96 0 177 60zM112 269h302q7 77 -25.5 115.5t-97.5 38.5q-141 0 -179 -154z
" />
    <glyph glyph-name="Edotaccent" unicode="&#x116;" horiz-adv-x="559" 
d="M337 684q-19 0 -30.5 12t-8.5 32t17.5 32t33.5 12q20 0 31.5 -12t7.5 -33q-3 -20 -17.5 -31.5t-33.5 -11.5zM198 546l-29 -206h290l-9 -64h-290l-29 -212h339l-8 -64h-409l86 610h398l-8 -64h-331z" />
    <glyph glyph-name="edotaccent" unicode="&#x117;" horiz-adv-x="522" 
d="M300 568q-19 0 -30.5 12t-8.5 32t17.5 32t33.5 12q20 0 31.5 -12t7.5 -33q-3 -20 -17.5 -31.5t-33.5 -11.5zM417 105l17 -40q-91 -74 -202 -74q-100 0 -152.5 65t-35.5 181q16 118 83 179t169 61q95 0 141 -57.5t34 -170.5q-5 -26 -7 -33h-361q-8 -88 30.5 -129.5
t106.5 -41.5q96 0 177 60zM112 269h302q7 77 -25.5 115.5t-97.5 38.5q-141 0 -179 -154z" />
    <glyph glyph-name="Eogonek" unicode="&#x118;" horiz-adv-x="559" 
d="M198 546l-29 -206h290l-9 -64h-290l-29 -212h339l-8 -64h-66q-38 -10 -63 -31.5t-29 -45.5q-3 -27 8.5 -38.5t43.5 -11.5q18 0 62 8l4 -42q-45 -16 -86 -16q-45 0 -68 24t-17 63q3 25 24 49t54 41h-276l86 610h398l-8 -64h-331z" />
    <glyph glyph-name="eogonek" unicode="&#x119;" horiz-adv-x="522" 
d="M309 -119l5 -42q-45 -16 -86 -16q-46 0 -68.5 23.5t-17.5 63.5q8 49 64 82q-88 8 -132.5 72.5t-29.5 172.5q16 118 83 179t169 61q95 0 141 -57.5t34 -170.5q-5 -26 -7 -33h-361q-8 -88 30.5 -129.5t106.5 -41.5q96 0 177 60l17 -40q-80 -65 -170 -73q-28 -11 -46.5 -30
t-21.5 -39q-3 -27 8.5 -38.5t42.5 -11.5q20 0 62 8zM112 269h302q7 77 -25.5 115.5t-97.5 38.5q-141 0 -179 -154z" />
    <glyph glyph-name="Ecaron" unicode="&#x11a;" horiz-adv-x="559" 
d="M308 660l-102 118l30 27l103 -87l123 89l28 -29l-131 -118h-51zM198 546l-29 -206h290l-9 -64h-290l-29 -212h339l-8 -64h-409l86 610h398l-8 -64h-331z" />
    <glyph glyph-name="ecaron" unicode="&#x11b;" horiz-adv-x="522" 
d="M271 535l-103 118l30 28l104 -88l123 90l28 -30l-131 -118h-51zM417 105l17 -40q-91 -74 -202 -74q-100 0 -152.5 65t-35.5 181q16 118 83 179t169 61q95 0 141 -57.5t34 -170.5q-5 -26 -7 -33h-361q-8 -88 30.5 -129.5t106.5 -41.5q96 0 177 60zM112 269h302
q7 77 -25.5 115.5t-97.5 38.5q-141 0 -179 -154z" />
    <glyph glyph-name="Gbreve" unicode="&#x11e;" horiz-adv-x="667" 
d="M477 785h50q-8 -53 -43.5 -84.5t-100.5 -31.5q-61 0 -89.5 33t-19.5 83h47q-9 -69 65 -69q44 0 64 18.5t27 50.5zM616 309l-32 -233q-140 -85 -292 -85q-129 0 -190.5 82.5t-39.5 231.5q20 149 107.5 232t224.5 83q131 0 229 -49l-29 -56q-95 41 -202 41
q-109 0 -176.5 -65.5t-84.5 -186.5q-17 -120 28 -184.5t143 -64.5q129 0 221 58l19 133h-227l9 63h292z" />
    <glyph glyph-name="gbreve" unicode="&#x11f;" horiz-adv-x="544" 
d="M414 661h50q-17 -118 -144 -118q-61 0 -89.5 32.5t-19.5 85.5h47q-4 -36 10 -54t55 -18q44 0 64 18.5t27 53.5zM518 468l-56 -400q-16 -114 -78 -168.5t-159 -54.5q-118 0 -200 53l20 53q86 -46 180 -46q148 0 170 163l4 26q-48 -38 -88.5 -55.5t-95.5 -17.5
q-41 0 -74 12.5t-57.5 37.5t-34.5 68t-2 99q33 239 222 239q93 0 173 -71l9 62h67zM406 150l29 200q-84 70 -154 70q-143 0 -168 -184q-12 -84 25.5 -122.5t102.5 -38.5q44 0 80 18.5t85 56.5z" />
    <glyph glyph-name="Gdotaccent" unicode="&#x120;" horiz-adv-x="667" 
d="M400 772q20 0 31.5 -12t7.5 -33q-3 -20 -17 -31.5t-33 -11.5q-20 0 -31 12t-9 32q3 20 17.5 32t33.5 12zM616 309l-32 -233q-140 -85 -292 -85q-129 0 -190.5 82.5t-39.5 231.5q20 149 107.5 232t224.5 83q131 0 229 -49l-29 -56q-95 41 -202 41q-109 0 -176.5 -65.5
t-84.5 -186.5q-17 -120 28 -184.5t143 -64.5q129 0 221 58l19 133h-227l9 63h292z" />
    <glyph glyph-name="gdotaccent" unicode="&#x121;" horiz-adv-x="544" 
d="M319 568q-19 0 -30.5 12t-8.5 32t17.5 32t33.5 12q20 0 31.5 -12t7.5 -33q-3 -20 -17.5 -31.5t-33.5 -11.5zM518 468l-56 -400q-16 -114 -78 -168.5t-159 -54.5q-118 0 -200 53l20 53q86 -46 180 -46q148 0 170 163l4 26q-48 -38 -88.5 -55.5t-95.5 -17.5q-41 0 -74 12.5
t-57.5 37.5t-34.5 68t-2 99q33 239 222 239q93 0 173 -71l9 62h67zM406 150l29 200q-84 70 -154 70q-143 0 -168 -184q-12 -84 25.5 -122.5t102.5 -38.5q44 0 80 18.5t85 56.5z" />
    <glyph glyph-name="Gcommaaccent" unicode="&#x122;" horiz-adv-x="667" 
d="M324 309h292l-32 -233q-140 -85 -292 -85q-129 0 -190.5 82.5t-39.5 231.5q20 149 107.5 232t224.5 83q131 0 229 -49l-29 -56q-95 41 -202 41q-109 0 -176.5 -65.5t-84.5 -186.5q-17 -120 28 -184.5t143 -64.5q129 0 221 58l19 133h-227zM238 -213l-16 18q43 39 57 76
q-28 6 -25 37q2 17 14 28t30 11t27 -13t7 -31q-8 -61 -94 -126z" />
    <glyph glyph-name="gcommaaccent" unicode="&#x123;" horiz-adv-x="544" 
d="M365 691l10 -20q-40 -34 -53 -68q27 -5 24 -35q-2 -16 -13.5 -25.5t-27.5 -9.5t-24.5 11.5t-6.5 28.5q8 64 91 118zM518 468l-56 -400q-16 -114 -78 -168.5t-159 -54.5q-118 0 -200 53l20 53q86 -46 180 -46q148 0 170 163l4 26q-48 -38 -88.5 -55.5t-95.5 -17.5
q-41 0 -74 12.5t-57.5 37.5t-34.5 68t-2 99q33 239 222 239q93 0 173 -71l9 62h67zM406 150l29 200q-84 70 -154 70q-143 0 -168 -184q-12 -84 25.5 -122.5t102.5 -38.5q44 0 80 18.5t85 56.5z" />
    <glyph glyph-name="Hbar" unicode="&#x126;" horiz-adv-x="676" 
d="M670 457h-51l-64 -457h-69l38 267h-366l-37 -267h-68l64 457h-51l8 56h51l13 97h69l-14 -97h365l14 97h68l-13 -97h50zM551 457h-366l-18 -126h366z" />
    <glyph glyph-name="hbar" unicode="&#x127;" horiz-adv-x="552" 
d="M183 536l-19 -133q49 39 91.5 56t93.5 17q76 0 112.5 -48t23.5 -137l-41 -291h-67l40 277q10 73 -10 105t-77 32q-83 0 -175 -74l-48 -340h-66l75 536h-55l5 37h55l12 82h66l-11 -82h135l-5 -37h-135z" />
    <glyph glyph-name="Imacron" unicode="&#x12a;" horiz-adv-x="254" 
d="M309 757l-7 -55h-233l6 55h234zM207 610l-85 -610h-69l86 610h68z" />
    <glyph glyph-name="imacron" unicode="&#x12b;" horiz-adv-x="223" 
d="M277 633l-7 -56h-233l7 56h233zM171 468l-65 -468h-67l66 468h66z" />
    <glyph glyph-name="Iogonek" unicode="&#x12e;" horiz-adv-x="254" 
d="M122 0h-11q-38 -10 -62.5 -31.5t-28.5 -45.5q-4 -27 7.5 -38.5t43.5 -11.5q18 0 62 8l4 -42q-43 -16 -85 -16q-46 0 -68.5 23.5t-17.5 63.5q4 28 27.5 53t60.5 41l85 606h68z" />
    <glyph glyph-name="iogonek" unicode="&#x12f;" horiz-adv-x="223" 
d="M164 656q19 0 30.5 -12.5t8.5 -33.5q-3 -19 -17.5 -30.5t-33.5 -11.5t-30.5 12t-8.5 32q3 21 17 32.5t34 11.5zM106 0h-7q-38 -10 -63 -31t-29 -46q-3 -27 8.5 -38.5t42.5 -11.5q20 0 62 8l5 -42q-45 -16 -86 -16q-46 0 -68.5 23.5t-17.5 63.5q4 28 27.5 53t59.5 41
l65 464h66z" />
    <glyph glyph-name="Idotaccent" unicode="&#x130;" horiz-adv-x="254" 
d="M195 772q19 0 30.5 -12t8.5 -33q-3 -20 -17.5 -31.5t-33.5 -11.5t-30.5 12t-8.5 32q3 21 17 32.5t34 11.5zM207 610l-85 -610h-69l86 610h68z" />
    <glyph glyph-name="dotlessi" unicode="&#x131;" horiz-adv-x="223" 
d="M171 468l-65 -468h-67l66 468h66z" />
    <glyph glyph-name="IJ" unicode="&#x132;" horiz-adv-x="722" 
d="M207 610l-85 -610h-69l86 610h68zM685 610l-57 -410q-14 -102 -68 -155.5t-143 -53.5q-84 0 -178 51l29 55q78 -39 145 -39q128 0 147 143l57 409h68z" />
    <glyph glyph-name="ij" unicode="&#x133;" horiz-adv-x="431" 
d="M122 605q3 18 16 28.5t31 10.5t29 -10.5t8 -29.5q-3 -18 -16 -28.5t-31 -10.5t-29 11t-8 29zM371 644q19 0 29.5 -10.5t7.5 -29.5q-2 -18 -15.5 -28.5t-30.5 -10.5q-19 0 -29.5 11t-7.5 29q2 18 15.5 28.5t30.5 10.5zM381 468l-63 -449q-12 -83 -41.5 -126t-91.5 -60
l-9 53q36 16 51.5 44t23.5 90l63 448h67zM178 468l-65 -468h-67l65 468h67z" />
    <glyph glyph-name="Kcommaaccent" unicode="&#x136;" horiz-adv-x="622" 
d="M630 606l-271 -251l206 -350l-1 -5h-67l-188 309l-166 -154l-21 -155h-69l86 610h68l-50 -359l393 359h81zM213 -213l-16 18q43 39 57 76q-28 6 -25 37q2 17 14 28t30 11t27 -13t7 -31q-8 -61 -94 -126z" />
    <glyph glyph-name="kcommaaccent" unicode="&#x137;" horiz-adv-x="513" 
d="M502 464l-215 -184l185 -277l-1 -3h-77l-160 234l-111 -95l-19 -139h-67l92 655h66l-59 -423l284 236h83zM167 -213l-15 18q43 39 57 76q-28 6 -25 37q2 17 13.5 28t30.5 11q18 0 27 -13t7 -31q-10 -63 -95 -126z" />
    <glyph glyph-name="Lacute" unicode="&#x139;" horiz-adv-x="502" 
d="M325 777l-2 -14q-71 -55 -154 -110l-22 25l127 137zM440 65l-10 -65h-377l86 610h68l-76 -545h309z" />
    <glyph glyph-name="lacute" unicode="&#x13a;" horiz-adv-x="219" 
d="M275 883l52 -38l-3 -14q-61 -48 -153 -110l-23 25zM201 655l-91 -655h-67l92 655h66z" />
    <glyph glyph-name="Lcommaaccent" unicode="&#x13b;" horiz-adv-x="502" 
d="M440 65l-10 -65h-377l86 610h68l-76 -545h309zM170 -213l-16 18q41 36 58 76q-30 7 -25 37q2 17 13.5 28t29.5 11t27.5 -13t6.5 -31q-8 -61 -94 -126z" />
    <glyph glyph-name="lcommaaccent" unicode="&#x13c;" horiz-adv-x="219" 
d="M201 655l-91 -655h-67l92 655h66zM13 -213l-16 18q41 36 58 76q-30 7 -25 37q2 17 13.5 28t29.5 11t27.5 -13t6.5 -31q-8 -61 -94 -126z" />
    <glyph glyph-name="Lcaron" unicode="&#x13d;" horiz-adv-x="502" 
d="M440 65l-10 -65h-377l86 610h68l-76 -545h309zM364 610l-2 -14q-17 -81 -47 -151h-40l31 165h58z" />
    <glyph glyph-name="lcaron" unicode="&#x13e;" horiz-adv-x="252" 
d="M255 655h58l-2 -13q-16 -79 -46 -152h-40zM201 655l-91 -655h-67l92 655h66z" />
    <glyph glyph-name="Ldot" unicode="&#x13f;" horiz-adv-x="502" 
d="M440 65l-10 -65h-377l86 610h68l-76 -545h309zM342 262q-20 0 -30.5 12.5t-7.5 31.5q2 19 15.5 30.5t32.5 11.5t29.5 -12t7.5 -32q-2 -18 -15 -30t-32 -12z" />
    <glyph glyph-name="ldot" unicode="&#x140;" horiz-adv-x="306" 
d="M201 655l-91 -655h-67l92 655h66zM223 326q2 19 15.5 31t32.5 12t29.5 -12t7.5 -32q-2 -18 -15 -30t-32 -12q-20 0 -30.5 12t-7.5 31z" />
    <glyph glyph-name="Lslash" unicode="&#x141;" horiz-adv-x="502" 
d="M440 65l-10 -65h-377l39 272l-72 -22l8 55l71 22l40 283h68l-36 -260l167 52l-8 -55l-167 -52l-32 -230h309z" />
    <glyph glyph-name="lslash" unicode="&#x142;" horiz-adv-x="219" 
d="M215 349l-60 -24l-45 -325h-67l42 296l-59 -24l8 56l58 23l43 304h66l-38 -275l60 24z" />
    <glyph glyph-name="Nacute" unicode="&#x143;" horiz-adv-x="692" 
d="M489 815l52 -38l-3 -14q-71 -55 -154 -110l-22 25zM563 0h-62l-307 493l-5 -37l-64 -456h-68l85 610h62l307 -495l3 20l66 475h69z" />
    <glyph glyph-name="nacute" unicode="&#x144;" horiz-adv-x="552" 
d="M442 657l-3 -14q-61 -48 -153 -110l-23 25l127 137zM173 468l-9 -65q49 39 91.5 56t93.5 17q76 0 112.5 -48t23.5 -137l-41 -291h-67l42 284q10 73 -10 105t-77 32q-77 0 -177 -81l-48 -340h-66l65 468h67z" />
    <glyph glyph-name="Ncommaaccent" unicode="&#x145;" horiz-adv-x="692" 
d="M649 610l-86 -610h-62l-307 493l-5 -37l-64 -456h-68l85 610h62l307 -495l3 20l66 475h69zM236 -213l-16 18q43 39 57 76q-28 6 -25 37q2 17 14 28t30 11t27 -13t7 -31q-8 -61 -94 -126z" />
    <glyph glyph-name="ncommaaccent" unicode="&#x146;" horiz-adv-x="552" 
d="M173 468l-9 -65q49 39 91.5 56t93.5 17q76 0 112.5 -48t23.5 -137l-41 -291h-67l42 284q10 73 -10 105t-77 32q-77 0 -177 -81l-48 -340h-66l65 468h67zM177 -213l-16 18q43 39 57 76q-28 6 -25 37q2 17 14 28t30 11t27 -13t7 -31q-8 -61 -94 -126z" />
    <glyph glyph-name="Ncaron" unicode="&#x147;" horiz-adv-x="692" 
d="M373 660l-103 118l30 27l104 -87l123 89l28 -29l-131 -118h-51zM649 610l-86 -610h-62l-307 493l-5 -37l-64 -456h-68l85 610h62l307 -495l3 20l66 475h69z" />
    <glyph glyph-name="ncaron" unicode="&#x148;" horiz-adv-x="552" 
d="M298 534l-103 119l30 27l103 -87l124 89l28 -29l-132 -119h-50zM173 468l-9 -65q49 39 91.5 56t93.5 17q76 0 112.5 -48t23.5 -137l-41 -291h-67l42 284q10 73 -10 105t-77 32q-77 0 -177 -81l-48 -340h-66l65 468h67z" />
    <glyph glyph-name="Omacron" unicode="&#x14c;" horiz-adv-x="671" 
d="M517 757l-7 -55h-233l7 55h233zM390 620q135 0 198 -82t42 -234q-21 -150 -107 -231.5t-221 -81.5t-198.5 82t-41.5 232q21 151 106.5 233t221.5 82zM310 55q104 0 169 64.5t82 185.5q16 122 -30 186.5t-150 64.5q-103 0 -168 -65t-82 -187q-17 -121 29.5 -185t149.5 -64
z" />
    <glyph glyph-name="omacron" unicode="&#x14d;" horiz-adv-x="557" 
d="M450 633l-7 -55h-233l7 55h233zM312 477q107 0 160 -66.5t37 -180.5q-14 -110 -86 -174.5t-179 -64.5q-106 0 -159.5 65t-38.5 175q16 113 88 179.5t178 66.5zM251 49q78 0 130 49t64 133q26 188 -140 188q-77 0 -129.5 -51t-64.5 -138q-26 -181 140 -181z" />
    <glyph glyph-name="Ohungarumlaut" unicode="&#x150;" horiz-adv-x="671" 
d="M553 815l41 -26l-3 -15l-138 -113l-21 16zM426 815l40 -26l-2 -15l-139 -113l-21 16zM390 620q135 0 198 -82t42 -234q-21 -150 -107 -231.5t-221 -81.5t-198.5 82t-41.5 232q21 151 106.5 233t221.5 82zM310 55q104 0 169 64.5t82 185.5q16 122 -30 186.5t-150 64.5
q-103 0 -168 -65t-82 -187q-17 -121 29.5 -185t149.5 -64z" />
    <glyph glyph-name="ohungarumlaut" unicode="&#x151;" horiz-adv-x="557" 
d="M486 695l41 -27l-3 -15l-138 -112l-21 15zM358 695l41 -27l-3 -15l-138 -112l-21 15zM312 477q107 0 160 -66.5t37 -180.5q-14 -110 -86 -174.5t-179 -64.5q-106 0 -159.5 65t-38.5 175q16 113 88 179.5t178 66.5zM251 49q78 0 130 49t64 133q26 188 -140 188
q-77 0 -129.5 -51t-64.5 -138q-26 -181 140 -181z" />
    <glyph glyph-name="OE" unicode="&#x152;" horiz-adv-x="960" 
d="M561 546l-29 -206h290l-9 -64h-290l-30 -212h340l-9 -64h-408l2 16q-56 -25 -123 -25q-135 0 -198 82t-42 232q21 151 107 233t221 82q66 0 116 -25l2 15h399l-8 -64h-331zM428 85l62 442q-43 29 -115 29q-104 0 -169 -65t-82 -187q-16 -121 30 -185t149 -64q71 0 125 30
z" />
    <glyph glyph-name="oe" unicode="&#x153;" horiz-adv-x="928" 
d="M823 105l17 -40q-91 -74 -202 -74q-64 0 -110 28t-67 80q-75 -108 -217 -108q-106 0 -159.5 65t-38.5 175q16 113 88 179.5t178 66.5q138 0 184 -106q67 106 206 106q95 0 141 -57.5t34 -170.5q-5 -26 -7 -33h-361q-8 -88 30.5 -129.5t106.5 -41.5q96 0 177 60zM518 269
h302q7 77 -25.5 115.5t-97.5 38.5q-141 0 -179 -154zM251 49q78 0 130 49t64 133q26 188 -140 188q-77 0 -129.5 -51t-64.5 -138q-26 -181 140 -181z" />
    <glyph glyph-name="Racute" unicode="&#x154;" horiz-adv-x="607" 
d="M487 777l-2 -14q-71 -55 -154 -110l-22 25l127 137zM139 610h222q116 0 169 -53t42 -148q-10 -86 -59 -137.5t-126 -63.5l146 -202l-2 -6h-78l-149 205h-154l-28 -205h-69zM159 269h183q69 0 111.5 36.5t49.5 102.5q7 67 -28.5 102.5t-118.5 35.5h-158z" />
    <glyph glyph-name="racute" unicode="&#x155;" horiz-adv-x="369" 
d="M342 657l-3 -14q-61 -48 -153 -110l-23 25l127 137zM169 468l-12 -85q68 93 159 93q34 0 60 -3l-14 -65q-23 2 -56 2q-92 0 -160 -112l-42 -298h-67l66 468h66z" />
    <glyph glyph-name="Rcommaaccent" unicode="&#x156;" horiz-adv-x="607" 
d="M139 610h222q116 0 169 -53t42 -148q-10 -86 -59 -137.5t-126 -63.5l146 -202l-2 -6h-78l-149 205h-154l-28 -205h-69zM159 269h183q69 0 111.5 36.5t49.5 102.5q7 67 -28.5 102.5t-118.5 35.5h-158zM203 -213l-15 18q43 39 57 76q-28 6 -25 37q2 17 13.5 28t30.5 11
q18 0 27 -13t7 -31q-10 -63 -95 -126z" />
    <glyph glyph-name="rcommaaccent" unicode="&#x157;" horiz-adv-x="369" 
d="M169 468l-12 -85q68 93 159 93q34 0 60 -3l-14 -65q-23 2 -56 2q-92 0 -160 -112l-42 -298h-67l66 468h66zM5 -213l-15 18q43 39 57 76q-28 6 -25 37q2 17 13.5 28t30.5 11q18 0 27 -13t7 -31q-10 -63 -95 -126z" />
    <glyph glyph-name="Rcaron" unicode="&#x158;" horiz-adv-x="607" 
d="M320 660l-103 118l30 27l104 -87l123 89l28 -29l-132 -118h-50zM139 610h222q116 0 169 -53t42 -148q-10 -86 -59 -137.5t-126 -63.5l146 -202l-2 -6h-78l-149 205h-154l-28 -205h-69zM159 269h183q69 0 111.5 36.5t49.5 102.5q7 67 -28.5 102.5t-118.5 35.5h-158z" />
    <glyph glyph-name="rcaron" unicode="&#x159;" horiz-adv-x="369" 
d="M219 534l-103 119l30 27l104 -87l123 89l28 -29l-131 -119h-51zM169 468l-12 -85q68 93 159 93q34 0 60 -3l-14 -65q-23 2 -56 2q-92 0 -160 -112l-42 -298h-67l66 468h66z" />
    <glyph glyph-name="Sacute" unicode="&#x15a;" horiz-adv-x="579" 
d="M426 815l51 -38l-3 -14q-61 -48 -153 -110l-23 25zM550 574l-28 -55q-99 40 -206 40q-59 0 -98.5 -24t-45.5 -62q-6 -44 27 -70.5t139 -61.5q106 -36 147 -80.5t31 -111.5q-11 -75 -76.5 -116.5t-162.5 -41.5q-66 0 -138.5 26t-121.5 71l38 51q48 -41 111 -62.5
t119 -21.5q69 0 111.5 26.5t48.5 72.5q6 43 -30 72t-137 62q-109 37 -149.5 77.5t-30.5 112.5q9 64 72 103t155 39q111 0 225 -46z" />
    <glyph glyph-name="sacute" unicode="&#x15b;" horiz-adv-x="457" 
d="M330 695l51 -37l-2 -14q-81 -63 -154 -110l-22 25zM413 435l-24 -49q-85 38 -158 38q-45 0 -72 -16t-31 -45q-6 -34 21 -54.5t105 -48.5q82 -28 111 -60.5t21 -90.5q-8 -57 -56 -87.5t-126 -30.5q-50 0 -107.5 20t-92.5 54l29 45q82 -66 174 -66q106 0 115 73
q5 32 -19 53t-88 42q-92 29 -124 63.5t-25 89.5q16 112 166 112q99 0 181 -42z" />
    <glyph glyph-name="Scedilla" unicode="&#x15e;" horiz-adv-x="579" 
d="M550 574l-28 -55q-99 40 -206 40q-59 0 -98.5 -24t-45.5 -62q-6 -44 27 -70.5t139 -61.5q106 -36 147 -80.5t31 -111.5q-11 -75 -76.5 -116.5t-162.5 -41.5q-11 0 -35 2l-6 -32q51 -2 71.5 -20t15.5 -58q-4 -37 -31 -57.5t-71 -20.5q-53 0 -89 12l11 41q38 -8 63 -8
q62 0 67 37q4 24 -12 31t-59 7h-24l23 74q-113 24 -184 89l38 51q48 -41 111 -62.5t119 -21.5q69 0 111.5 26.5t48.5 72.5q6 43 -30 72t-137 62q-109 37 -149.5 77.5t-30.5 112.5q9 64 72 103t155 39q111 0 225 -46z" />
    <glyph glyph-name="scedilla" unicode="&#x15f;" horiz-adv-x="447" 
d="M413 435l-24 -49q-85 38 -158 38q-45 0 -72 -16t-31 -45q-6 -34 21 -54.5t105 -48.5q82 -28 111 -60.5t21 -90.5q-8 -57 -56 -87.5t-126 -30.5q-14 0 -22 1l-6 -31q51 -2 71.5 -20t15.5 -58q-4 -37 -31 -57.5t-71 -20.5q-53 0 -89 12l11 41q38 -8 63 -8q62 0 67 37
q4 24 -12 31t-59 7h-24l23 73q-88 19 -137 67l29 45q82 -66 174 -66q106 0 115 73q5 32 -19 53t-88 42q-92 29 -124 63.5t-25 89.5q16 112 166 112q99 0 181 -42z" />
    <glyph glyph-name="Scaron" unicode="&#x160;" horiz-adv-x="579" 
d="M309 660l-102 118l30 27l103 -87l123 89l28 -29l-131 -118h-51zM550 574l-28 -55q-99 40 -206 40q-59 0 -98.5 -24t-45.5 -62q-6 -44 27 -70.5t139 -61.5q106 -36 147 -80.5t31 -111.5q-11 -75 -76.5 -116.5t-162.5 -41.5q-66 0 -138.5 26t-121.5 71l38 51
q48 -41 111 -62.5t119 -21.5q69 0 111.5 26.5t48.5 72.5q6 43 -30 72t-137 62q-109 37 -149.5 77.5t-30.5 112.5q9 64 72 103t155 39q111 0 225 -46z" />
    <glyph glyph-name="scaron" unicode="&#x161;" horiz-adv-x="447" 
d="M232 535l-102 118l30 28l103 -88l123 90l28 -30l-131 -118h-51zM4 65l29 45q82 -66 174 -66q106 0 115 73q5 32 -19 53t-88 42q-92 29 -124 63.5t-25 89.5q16 112 166 112q99 0 181 -42l-24 -49q-85 38 -158 38q-45 0 -72 -16t-31 -45q-6 -34 21 -54.5t105 -48.5
q82 -28 111 -60.5t21 -90.5q-8 -57 -56 -87.5t-126 -30.5q-50 0 -107.5 20t-92.5 54z" />
    <glyph glyph-name="Tcaron" unicode="&#x164;" horiz-adv-x="536" 
d="M295 660l-103 118l30 27l104 -87l123 89l28 -29l-131 -118h-51zM567 546h-221l-77 -546h-68l77 546h-221l9 64h509z" />
    <glyph glyph-name="tcaron" unicode="&#x165;" horiz-adv-x="352" 
d="M329 673l-2 -14q-16 -79 -46 -152h-40l30 166h58zM185 411l-36 -263q-11 -89 73 -89q33 0 80 6l8 -50q-58 -18 -109 -18q-67 0 -99 39.5t-21 109.5l37 265h-72l7 57h73l17 122h67l-17 -122h146l-7 -57h-147z" />
    <glyph glyph-name="Umacron" unicode="&#x16a;" horiz-adv-x="663" 
d="M513 757l-7 -55h-233l7 55h233zM639 610l-47 -337q-20 -136 -96 -209t-198 -73t-177.5 73.5t-36.5 209.5l46 336h69l-47 -337q-15 -105 25 -161t129 -56q86 0 144.5 58.5t72.5 159.5l48 336h68z" />
    <glyph glyph-name="umacron" unicode="&#x16b;" horiz-adv-x="549" 
d="M439 577h-233l6 56h234zM505 468l-66 -468h-66l9 66q-94 -74 -187 -74q-75 0 -111.5 48.5t-23.5 137.5l41 290h66l-39 -276q-11 -73 9 -105.5t77 -32.5q85 0 177 76l47 338h67z" />
    <glyph glyph-name="Uring" unicode="&#x16e;" horiz-adv-x="663" 
d="M408 841q42 0 64 -26t17 -69q-5 -38 -34.5 -62.5t-70.5 -24.5q-42 0 -64 24.5t-17 64.5q6 42 35 67.5t70 25.5zM389 699q24 0 40.5 13.5t18.5 35.5q6 53 -45 53q-24 0 -40 -15t-19 -40q-3 -22 9 -34.5t36 -12.5zM639 610l-47 -337q-20 -136 -96 -209t-198 -73
t-177.5 73.5t-36.5 209.5l46 336h69l-47 -337q-15 -105 25 -161t129 -56q86 0 144.5 58.5t72.5 159.5l48 336h68z" />
    <glyph glyph-name="uring" unicode="&#x16f;" horiz-adv-x="549" 
d="M315 527q-42 0 -64 25t-17 64q6 42 35 67.5t71 25.5q41 0 63.5 -26t16.5 -68q-5 -38 -34.5 -63t-70.5 -25zM275 615q-6 -47 45 -47q24 0 40 13t20 35q6 54 -45 54q-23 0 -39.5 -15t-20.5 -40zM505 468l-66 -468h-66l9 66q-94 -74 -187 -74q-75 0 -111.5 48.5t-23.5 137.5
l41 290h66l-39 -276q-11 -73 9 -105.5t77 -32.5q85 0 177 76l47 338h67z" />
    <glyph glyph-name="Uhungarumlaut" unicode="&#x170;" horiz-adv-x="663" 
d="M549 815l41 -26l-3 -15l-138 -113l-21 16zM422 815l40 -26l-2 -15l-139 -113l-21 16zM639 610l-47 -337q-20 -136 -96 -209t-198 -73t-177.5 73.5t-36.5 209.5l46 336h69l-47 -337q-15 -105 25 -161t129 -56q86 0 144.5 58.5t72.5 159.5l48 336h68z" />
    <glyph glyph-name="uhungarumlaut" unicode="&#x171;" horiz-adv-x="549" 
d="M395 667l-3 -14l-138 -113l-21 16l121 138zM523 667l-4 -14l-138 -113l-20 16l120 138zM438 468h67l-66 -468h-66l9 66q-94 -74 -187 -74q-75 0 -111.5 48.5t-23.5 137.5l41 290h66l-39 -276q-11 -73 9 -105.5t77 -32.5q85 0 177 76z" />
    <glyph glyph-name="Uogonek" unicode="&#x172;" horiz-adv-x="663" 
d="M639 610l-47 -337q-19 -131 -90.5 -204t-187.5 -78q-59 -24 -66 -68q-3 -27 8.5 -38.5t43.5 -11.5q18 0 62 8l4 -42q-45 -16 -86 -16q-45 0 -68 24t-17 63q6 48 65 83q-102 11 -148 84t-28 197l46 336h69l-47 -337q-15 -105 25 -161t129 -56q86 0 144.5 58.5t72.5 159.5
l48 336h68z" />
    <glyph glyph-name="uogonek" unicode="&#x173;" horiz-adv-x="549" 
d="M439 0h-20q-38 -10 -63 -31t-29 -46q-3 -27 8.5 -38.5t42.5 -11.5q20 0 62 8l5 -42q-45 -16 -86 -16q-46 0 -68.5 23.5t-17.5 63.5q5 30 32 57t69 42l8 57q-94 -74 -187 -74q-75 0 -111.5 48.5t-23.5 137.5l41 290h66l-39 -276q-11 -73 9 -105.5t77 -32.5q85 0 177 76
l47 338h67z" />
    <glyph glyph-name="Wcircumflex" unicode="&#x174;" horiz-adv-x="879" 
d="M371 650l-25 28l138 118h51l103 -118l-30 -28l-105 88zM909 610l-265 -610h-99l-68 446q-4 31 -5 63q-11 -34 -23 -64l-194 -445h-98l-95 610h77l69 -470q4 -40 6 -77l15.5 41.5l13.5 35.5l204 470h77l73 -470l8 -77q11 39 27 77l200 470h77z" />
    <glyph glyph-name="wcircumflex" unicode="&#x175;" horiz-adv-x="716" 
d="M544 561l-30 -27l-104 87l-133 -87l-24 27l138 118h50zM737 468l-223 -468h-79l-60 358l-161 -358h-80l-91 468h64l67 -331q8 -38 10 -65q16 40 28 65l146 331h64l53 -331q3 -23 9 -65q12 31 28 65l160 331h65z" />
    <glyph glyph-name="Ycircumflex" unicode="&#x176;" horiz-adv-x="560" 
d="M212 650l-25 28l138 118h51l102 -118l-30 -28l-104 88zM311 211l-29 -211h-69l30 210l-174 400h72l132 -291q8 -18 13 -42q8 18 25 42l212 291h74z" />
    <glyph glyph-name="ycircumflex" unicode="&#x177;" horiz-adv-x="495" 
d="M443 561l-31 -27l-104 87l-132 -87l-25 27l138 118h51zM445 468h73l-71 -129l-84.5 -151l-71.5 -119q-102 -157 -241 -213l-17 57q84 40 137 100l-132 455h71l91 -316q16 -61 19 -75l8 11l52.5 86l48 83.5l58 104z" />
    <glyph glyph-name="Ydieresis" unicode="&#x178;" horiz-adv-x="560" 
d="M246 690q-16 0 -26.5 10.5t-8.5 27.5q3 17 16 27.5t29 10.5q17 0 27 -10.5t8 -28.5q-3 -17 -15.5 -27t-29.5 -10zM429 690q-18 0 -27.5 10t-6.5 28q2 18 14 28t29 10t27 -10.5t8 -28.5q-3 -17 -15.5 -27t-28.5 -10zM311 211l-29 -211h-69l30 210l-174 400h72l132 -291
q8 -18 13 -42q8 18 25 42l212 291h74z" />
    <glyph glyph-name="Zacute" unicode="&#x179;" horiz-adv-x="582" 
d="M434 815l52 -38l-3 -14q-71 -55 -154 -110l-22 25zM575 553l-457 -491q15 0 43 1t41 1h309l-9 -64h-486l7 54l463 494q-15 0 -45 -1t-44 -1h-287l8 64h465z" />
    <glyph glyph-name="zacute" unicode="&#x17a;" horiz-adv-x="490" 
d="M355 695l52 -38l-3 -14q-61 -48 -153 -110l-23 25zM419 0h-413l6 45l367 369q-30 -3 -84 -3h-225l8 57h399l-6 -44l-369 -370q60 2 92 2h233z" />
    <glyph glyph-name="Zdotaccent" unicode="&#x17b;" horiz-adv-x="582" 
d="M359 772q19 0 30.5 -12t8.5 -33q-3 -20 -17.5 -31.5t-33.5 -11.5t-30.5 12t-8.5 32q3 21 17 32.5t34 11.5zM575 553l-457 -491q15 0 43 1t41 1h309l-9 -64h-486l7 54l463 494q-15 0 -45 -1t-44 -1h-287l8 64h465z" />
    <glyph glyph-name="zdotaccent" unicode="&#x17c;" horiz-adv-x="490" 
d="M304 656q19 0 30.5 -12.5t8.5 -33.5q-3 -19 -17.5 -30.5t-33.5 -11.5t-30.5 12t-8.5 32q3 21 17 32.5t34 11.5zM419 0h-413l6 45l367 369q-30 -3 -84 -3h-225l8 57h399l-6 -44l-369 -370q60 2 92 2h233z" />
    <glyph glyph-name="Zcaron" unicode="&#x17d;" horiz-adv-x="582" 
d="M318 660l-103 118l30 27l104 -87l123 89l28 -29l-131 -118h-51zM575 553l-457 -491q15 0 43 1t41 1h309l-9 -64h-486l7 54l463 494q-15 0 -45 -1t-44 -1h-287l8 64h465z" />
    <glyph glyph-name="zcaron" unicode="&#x17e;" horiz-adv-x="490" 
d="M263 534l-103 119l30 27l103 -87l124 89l28 -29l-132 -119h-50zM471 424l-369 -370q60 2 92 2h233l-8 -56h-413l6 45l367 369q-30 -3 -84 -3h-225l8 57h399z" />
    <glyph glyph-name="florin" unicode="&#x192;" horiz-adv-x="544" 
d="M556 495l-28 -42q-61 41 -137 41q-139 0 -207 -200l-14 -43h241l-15 -46h-241l-69 -205h-66l69 205h-65l16 46h64l15 44q45 133 111.5 193t159.5 60q99 0 166 -53z" />
    <glyph glyph-name="Acaron" unicode="&#x1cd;" horiz-adv-x="648" 
d="M351 660l-102 118l30 27l103 -87l123 89l28 -29l-131 -118h-51zM479 161h-332l-91 -161h-73l347 610h91l177 -610h-73zM461 224l-77 266q-10 35 -16 71h-1q-21 -49 -33 -72l-151 -265h278z" />
    <glyph glyph-name="Scommaaccent" unicode="&#x218;" horiz-adv-x="582" 
d="M550 574l-28 -55q-99 40 -206 40q-59 0 -98.5 -24t-45.5 -62q-6 -44 27 -70.5t139 -61.5q106 -36 147 -80.5t31 -111.5q-11 -75 -76.5 -116.5t-162.5 -41.5q-66 0 -138.5 26t-121.5 71l38 51q48 -41 111 -62.5t119 -21.5q69 0 111.5 26.5t48.5 72.5q6 43 -30 72t-137 62
q-109 37 -149.5 77.5t-30.5 112.5q9 64 72 103t155 39q111 0 225 -46zM165 -213l-16 18q43 39 57 76q-28 6 -25 37q2 17 14 28t30 11t27 -13t7 -31q-8 -61 -94 -126z" />
    <glyph glyph-name="scommaaccent" unicode="&#x219;" horiz-adv-x="447" 
d="M413 435l-24 -49q-85 38 -158 38q-45 0 -72 -16t-31 -45q-6 -34 21 -54.5t105 -48.5q82 -28 111 -60.5t21 -90.5q-8 -57 -56 -87.5t-126 -30.5q-50 0 -107.5 20t-92.5 54l29 45q82 -66 174 -66q106 0 115 73q5 32 -19 53t-88 42q-92 29 -124 63.5t-25 89.5
q16 112 166 112q99 0 181 -42zM112 -213l-16 18q41 36 58 76q-30 7 -25 37q2 17 13.5 28t29.5 11t27.5 -13t6.5 -31q-8 -61 -94 -126z" />
    <glyph glyph-name="uni021A" unicode="&#x21a;" horiz-adv-x="536" 
d="M567 546h-221l-77 -546h-68l77 546h-221l9 64h509zM165 -213l-16 18q41 36 58 76q-30 7 -25 37q2 17 13.5 28t29.5 11t27.5 -13t6.5 -31q-8 -61 -94 -126z" />
    <glyph glyph-name="uni021B" unicode="&#x21b;" horiz-adv-x="352" 
d="M185 411l-36 -263q-11 -89 73 -89q33 0 80 6l8 -50q-58 -18 -109 -18q-67 0 -99 39.5t-21 109.5l37 265h-72l7 57h73l17 122h67l-17 -122h146l-7 -57h-147zM80 -206l-15 18q44 41 57 76q-13 3 -20 13.5t-5 24.5q2 17 13.5 28t30.5 11q18 0 27 -13t7 -32q-10 -63 -95 -126
z" />
    <glyph glyph-name="circumflex" unicode="&#x2c6;" 
d="M429 561l-30 -27l-104 87l-133 -87l-24 27l137 118h51z" />
    <glyph glyph-name="caron" unicode="&#x2c7;" 
d="M435 653l-131 -119h-51l-102 119l30 27l103 -87l123 89z" />
    <glyph glyph-name="breve" unicode="&#x2d8;" 
d="M378 660h50q-19 -118 -145 -118q-61 0 -89.5 32.5t-19.5 85.5h48q-10 -71 64 -71q45 0 64.5 18t27.5 53z" />
    <glyph glyph-name="dotaccent" unicode="&#x2d9;" 
d="M294 656q20 0 31.5 -12.5t7.5 -33.5q-2 -19 -16.5 -30.5t-33.5 -11.5q-20 0 -31 11.5t-8 32.5q2 20 16.5 32t33.5 12z" />
    <glyph glyph-name="ring" unicode="&#x2da;" 
d="M302 709q41 0 63.5 -26t16.5 -68q-5 -38 -34.5 -63t-70.5 -25q-42 0 -64 25t-17 64q6 42 35 67.5t71 25.5zM282 568q24 0 40 13t20 35q6 54 -45 54q-23 0 -39.5 -15t-20.5 -40q-6 -47 45 -47z" />
    <glyph glyph-name="ogonek" unicode="&#x2db;" 
d="M246 -119l4 -42q-45 -16 -86 -16q-45 0 -68 24t-17 63q5 34 39 64t84 42l22 -16q-38 -10 -63 -31.5t-29 -45.5q-3 -27 8.5 -38.5t43.5 -11.5q18 0 62 8z" />
    <glyph glyph-name="tilde" unicode="&#x2dc;" 
d="M422 668l38 -7q-16 -42 -43 -64.5t-55 -23t-57 12.5l-54 30q-30 14 -49.5 6t-37.5 -40l-38 6q23 60 67.5 77.5t85.5 -7.5l55 -28q53 -26 88 38z" />
    <glyph glyph-name="hungarumlaut" unicode="&#x2dd;" 
d="M429 694l41 -27l-3 -14l-138 -113l-21 16zM301 694l41 -27l-3 -14l-138 -113l-21 16z" />
    <glyph glyph-name="commaturnedabovecomb" unicode="&#x312;" horiz-adv-x="0" 
d="M317 691l10 -20q-40 -34 -53 -68q28 -5 25 -35q-7 -35 -42 -35q-16 0 -24.5 11.5t-6.5 28.5q8 64 91 118z" />
    <glyph glyph-name="commaaccentcomb" unicode="&#x326;" horiz-adv-x="0" 
d="M133 -213l-16 18q43 39 57 76q-28 6 -25 37q2 17 14 28t30 11t27 -13t7 -31q-8 -61 -94 -126z" />
    <glyph glyph-name="Wgrave" unicode="&#x1e80;" horiz-adv-x="879" 
d="M547 675l-23 -25q-70 49 -143 110l-2 14l53 37zM644 0h-99l-68 446q-4 31 -5 63q-11 -34 -23 -64l-194 -445h-98l-95 610h77l69 -470q4 -40 6 -77l15.5 41.5l13.5 35.5l204 470h77l73 -470l8 -77q11 39 27 77l200 470h77z" />
    <glyph glyph-name="wgrave" unicode="&#x1e81;" horiz-adv-x="716" 
d="M448 558l-23 -25q-80 57 -143 110l-2 14l53 38zM514 0h-79l-60 358l-161 -358h-80l-91 468h64l67 -331q8 -38 10 -65q16 40 28 65l146 331h64l53 -331q3 -23 9 -65q12 31 28 65l160 331h65z" />
    <glyph glyph-name="Wacute" unicode="&#x1e82;" horiz-adv-x="879" 
d="M583 815l51 -38l-2 -14q-71 -55 -154 -110l-22 25zM644 0h-99l-68 446q-4 31 -5 63q-11 -34 -23 -64l-194 -445h-98l-95 610h77l69 -470q4 -40 6 -77l15.5 41.5l13.5 35.5l204 470h77l73 -470l8 -77q11 39 27 77l200 470h77z" />
    <glyph glyph-name="wacute" unicode="&#x1e83;" horiz-adv-x="716" 
d="M461 695l51 -38l-3 -14q-61 -48 -153 -110l-22 25zM514 0h-79l-60 358l-161 -358h-80l-91 468h64l67 -331q8 -38 10 -65q16 40 28 65l146 331h64l53 -331q3 -23 9 -65q12 31 28 65l160 331h65z" />
    <glyph glyph-name="Wdieresis" unicode="&#x1e84;" horiz-adv-x="879" 
d="M415 766q18 0 27.5 -10.5t7.5 -28.5q-3 -17 -15.5 -27t-29.5 -10q-16 0 -26 10.5t-8 27.5q3 18 15.5 28t28.5 10zM598 766q16 0 26 -10.5t8 -28.5q-3 -17 -15.5 -27t-28.5 -10q-18 0 -27.5 10t-6.5 28q2 18 14.5 28t29.5 10zM644 0h-99l-68 446q-4 31 -5 63
q-11 -34 -23 -64l-194 -445h-98l-95 610h77l69 -470q4 -40 6 -77l15.5 41.5l13.5 35.5l204 470h77l73 -470l8 -77q11 39 27 77l200 470h77z" />
    <glyph glyph-name="wdieresis" unicode="&#x1e85;" horiz-adv-x="716" 
d="M317 648q18 0 28 -10t7 -28q-5 -37 -44 -37q-16 0 -26.5 10.5t-8.5 27.5q3 17 15.5 27t28.5 10zM500 648q17 0 27 -10.5t7 -27.5q-2 -17 -14.5 -27t-29.5 -10t-26.5 10t-6.5 28q5 37 43 37zM514 0h-79l-60 358l-161 -358h-80l-91 468h64l67 -331q8 -38 10 -65
q16 40 28 65l146 331h64l53 -331q3 -23 9 -65q12 31 28 65l160 331h65z" />
    <glyph glyph-name="Ygrave" unicode="&#x1ef2;" horiz-adv-x="560" 
d="M388 675l-23 -25q-72 49 -143 110l-2 14l53 37zM311 211l-29 -211h-69l30 210l-174 400h72l132 -291q8 -18 13 -42q8 18 25 42l212 291h74z" />
    <glyph glyph-name="ygrave" unicode="&#x1ef3;" horiz-adv-x="495" 
d="M373 558l-23 -25q-81 59 -142 110l-2 14l52 38zM445 468h73l-71 -129l-84.5 -151l-71.5 -119q-102 -157 -241 -213l-17 57q84 40 137 100l-132 455h71l91 -316q16 -61 19 -75l8 11l52.5 86l48 83.5l58 104z" />
    <glyph glyph-name="uni2009" unicode="&#x2009;" horiz-adv-x="95" 
 />
    <glyph glyph-name="endash" unicode="&#x2013;" horiz-adv-x="500" 
d="M75 303h369l-7 -52h-369z" />
    <glyph glyph-name="emdash" unicode="&#x2014;" horiz-adv-x="890" 
d="M75 303h759l-7 -52h-759z" />
    <glyph glyph-name="quoteleft" unicode="&#x2018;" horiz-adv-x="248" 
d="M229 666l16 -21q-55 -43 -73 -105q33 -7 28 -41q-2 -19 -15.5 -30.5t-32.5 -11.5t-28.5 13.5t-7.5 35.5q4 41 35.5 85t77.5 75z" />
    <glyph glyph-name="quoteright" unicode="&#x2019;" horiz-adv-x="248" 
d="M114 457l-16 21q55 43 73 105q-33 7 -28 41q2 19 15.5 30.5t32.5 11.5t28.5 -13.5t7.5 -35.5q-4 -41 -35.5 -85t-77.5 -75z" />
    <glyph glyph-name="quotesinglbase" unicode="&#x201a;" horiz-adv-x="248" 
d="M35 -103l-16 21q55 43 73 105q-33 7 -28 41q2 19 15.5 30.5t32.5 11.5t28.5 -13.5t7.5 -35.5q-4 -41 -35.5 -85t-77.5 -75z" />
    <glyph glyph-name="quotedblleft" unicode="&#x201c;" horiz-adv-x="388" 
d="M369 666l16 -21q-55 -43 -73 -105q33 -7 28 -41q-2 -19 -15.5 -30.5t-32.5 -11.5t-28.5 13.5t-7.5 35.5q4 41 35.5 85t77.5 75zM229 666l16 -21q-55 -43 -73 -105q33 -7 28 -41q-2 -19 -15.5 -30.5t-32.5 -11.5t-28.5 13.5t-7.5 35.5q4 41 35.5 85t77.5 75z" />
    <glyph glyph-name="quotedblright" unicode="&#x201d;" horiz-adv-x="388" 
d="M114 457l-16 21q55 43 73 105q-33 7 -28 41q2 19 15.5 30.5t32.5 11.5t28.5 -13.5t7.5 -35.5q-4 -41 -35.5 -85t-77.5 -75zM254 457l-16 21q55 43 73 105q-33 7 -28 41q2 19 15.5 30.5t32.5 11.5t28.5 -13.5t7.5 -35.5q-4 -41 -35.5 -85t-77.5 -75z" />
    <glyph glyph-name="quotedblbase" unicode="&#x201e;" horiz-adv-x="388" 
d="M29 -103l-17 21q55 43 73 105q-14 3 -22 14t-6 27q2 19 15.5 30.5t32.5 11.5t29 -13.5t8 -35.5q-5 -41 -36 -85t-77 -75zM169 -103l-17 21q55 43 73 105q-14 3 -22 14t-6 27q2 19 15.5 30.5t32.5 11.5t29 -13.5t8 -35.5q-5 -41 -36 -85t-77 -75z" />
    <glyph glyph-name="dagger" unicode="&#x2020;" horiz-adv-x="503" 
d="M477 382l-181 -5l-70 -459h-38l59 459l-179 5l6 38l180 6l31 184h38l-20 -184l179 -6z" />
    <glyph glyph-name="daggerdbl" unicode="&#x2021;" horiz-adv-x="503" 
d="M297 377l-32 -224l179 -5l-5 -38l-181 -5l-32 -185h-37l20 185l-179 5l5 38l180 5l32 224l-179 5l6 38l180 6l31 184h38l-20 -184l179 -6l-5 -38z" />
    <glyph glyph-name="bullet" unicode="&#x2022;" horiz-adv-x="308" 
d="M98 283q5 28 24 45t47 17q29 0 43.5 -17.5t10.5 -45.5q-4 -27 -23 -44.5t-47 -17.5t-43.5 17.5t-11.5 45.5z" />
    <glyph glyph-name="ellipsis" unicode="&#x2026;" horiz-adv-x="684" 
d="M106 83q19 0 29.5 -12t7.5 -31q-2 -19 -15 -31t-32 -12q-20 0 -30.5 12.5t-7.5 31.5q2 19 15.5 30.5t32.5 11.5zM329 83q20 0 30 -12t8 -31t-15.5 -31t-32.5 -12t-29.5 12.5t-7.5 31.5q2 19 15 30.5t32 11.5zM552 83q19 0 29.5 -12t7.5 -31q-2 -19 -15 -31t-32 -12
q-20 0 -30.5 12.5t-7.5 31.5q2 19 15.5 30.5t32.5 11.5z" />
    <glyph glyph-name="perthousand" unicode="&#x2030;" horiz-adv-x="1209" 
d="M239 620q72 0 103.5 -47t18.5 -135q-12 -87 -56 -132.5t-116 -45.5t-104 46t-19 134t57 134t116 46zM611 610h44l-444 -610h-44zM194 302q101 0 120 138q20 137 -80 137q-101 0 -120 -139q-20 -136 80 -136zM657 351q73 0 104.5 -46.5t18.5 -134.5q-12 -88 -56 -133.5
t-116 -45.5t-104 46t-19 134t57 134t115 46zM1027 351q72 0 103.5 -46.5t19.5 -134.5q-13 -88 -57 -133.5t-116 -45.5t-103.5 46t-19.5 134q13 88 57 134t116 46zM613 34q101 0 120 137q20 138 -81 138q-100 0 -120 -139q-19 -136 81 -136zM982 34q101 0 121 137
q20 138 -81 138t-121 -139q-19 -136 81 -136z" />
    <glyph glyph-name="guilsinglleft" unicode="&#x2039;" horiz-adv-x="354" 
d="M312 410l-147 -134q-20 -17 -43 -34q18 -16 34 -34l108 -133l-42 -35l-171 203l227 203z" />
    <glyph glyph-name="guilsinglright" unicode="&#x203a;" horiz-adv-x="354" 
d="M291 243l-228 -203l-30 33l146 134l45 36q-16 15 -33 35l-110 134l40 34z" />
    <glyph glyph-name="fraction" unicode="&#x2044;" horiz-adv-x="215" 
d="M311 610h44l-444 -610h-44z" />
    <glyph glyph-name="Euro" unicode="&#x20ac;" horiz-adv-x="593" 
d="M560 491l-28 -43q-60 43 -145 43q-56 0 -107.5 -35.5t-79.5 -114.5h265l-18 -40h-258q-3 -11 -7 -37l-3 -36h240l-18 -39h-222q4 -78 44 -111t96 -33q103 0 180 64l21 -41q-87 -77 -215 -77q-80 0 -134.5 47.5t-57.5 150.5h-79l6 39h73q2 26 4 38q4 24 7 35h-73l5 40h78
q32 103 101 153.5t151 50.5q106 0 174 -54z" />
    <glyph glyph-name="uni2116" unicode="&#x2116;" horiz-adv-x="1152" 
d="M563 0h-62l-307 493l-5 -37l-64 -456h-68l85 610h62l307 -495l3 20l66 475h69zM924 534q89 0 130.5 -54.5t28.5 -146.5q-28 -192 -213 -192q-88 0 -130 53t-29 141q13 94 65.5 146.5t147.5 52.5zM875 192q129 0 149 143q20 147 -106 147q-129 0 -149 -149
q-21 -141 106 -141zM1023 51l-7 -51h-332l7 51h332z" />
    <glyph glyph-name="trademark" unicode="&#x2122;" horiz-adv-x="762" 
d="M375 571h-118l-34 -240h-45l34 240h-119l5 39h283zM690 539l-127 -208h-37l-68 209l-37 -209h-42l51 279h43l74 -218q1 -4 4 -17q2 3 4.5 9t3.5 8l135 218h44l-27 -279h-43z" />
    <glyph glyph-name="oneeighth" unicode="&#x215b;" horiz-adv-x="913" 
d="M44 231l6 42h106l40 286q-51 -18 -111 -31l-6 27q78 27 134 55h38l-47 -337h96l-6 -42h-250zM679 610l-444 -610h-44l444 610h44zM829 284q-9 -65 -89 -89q91 -26 81 -98q-7 -49 -52.5 -78t-115.5 -28q-76 0 -113.5 29t-30.5 78q11 67 104 94q-68 27 -59 92q7 45 48 71
t105 26q63 0 95.5 -26.5t26.5 -70.5zM785 285q3 28 -19.5 45t-63.5 17q-42 0 -70 -17.5t-32 -46.5q-9 -57 85 -77q91 18 100 79zM772 100q4 31 -23 50t-85 29q-99 -19 -107 -80q-4 -31 22.5 -50.5t74.5 -19.5q49 0 81 19.5t37 51.5z" />
    <glyph glyph-name="threeeighths" unicode="&#x215c;" horiz-adv-x="911" 
d="M101 552l-8 33q78 36 151 36q57 0 85.5 -28t21.5 -77q-9 -62 -78 -83q74 -24 65 -94q-7 -52 -46 -79.5t-103 -27.5q-86 0 -148 38l20 33q61 -32 131 -32q43 0 69.5 18t30.5 52q9 72 -90 72h-64l6 40h63q90 0 99 60q4 33 -14.5 50.5t-56.5 17.5q-65 0 -134 -29zM691 610
l-444 -610h-44l443 610h45zM834 284q-9 -65 -89 -89q91 -26 81 -98q-7 -49 -52.5 -78t-115.5 -28q-76 0 -113.5 29t-30.5 78q11 67 104 94q-68 27 -59 92q7 45 48 71t105 26q63 0 95.5 -26.5t26.5 -70.5zM790 285q3 28 -19.5 45t-63.5 17q-42 0 -70 -17.5t-32 -46.5
q-9 -57 85 -77q91 18 100 79zM777 100q4 31 -23 50t-85 29q-99 -19 -107 -80q-4 -31 22.5 -50.5t74.5 -19.5q49 0 81 19.5t37 51.5z" />
    <glyph glyph-name="fiveeighths" unicode="&#x215d;" horiz-adv-x="922" 
d="M162 569l-29 -131q60 26 107 26q59 0 87 -30.5t20 -87.5q-7 -57 -48.5 -88.5t-105.5 -31.5q-82 0 -146 38l20 36q62 -34 125 -34q46 0 75 22t35 61q5 38 -15 59.5t-61 21.5q-44 0 -100 -25l-41 6l43 199h242l-5 -41h-203zM700 610l-444 -610h-44l444 610h44zM846 284
q-11 -65 -90 -89q92 -27 82 -98q-7 -49 -53 -78t-116 -28q-75 0 -112.5 29t-30.5 78q9 67 103 94q-68 27 -59 92q7 45 48 71t105 26q63 0 96 -26.5t27 -70.5zM801 285q4 28 -18.5 45t-63.5 17q-42 0 -70.5 -17.5t-32.5 -46.5t17 -48t68 -29q91 18 100 79zM788 100
q4 31 -22.5 50t-85.5 29q-99 -19 -107 -80q-4 -31 22.5 -50.5t74.5 -19.5q49 0 81.5 19.5t36.5 51.5z" />
    <glyph glyph-name="seveneighths" unicode="&#x215e;" horiz-adv-x="855" 
d="M559 610h44l-444 -610h-44zM362 610l-5 -36q-65 -68 -124 -160.5t-94 -182.5h-55q38 91 97 181.5t123 155.5h-220l6 42h272zM649 381q63 0 95.5 -26.5t26.5 -70.5q-9 -65 -89 -89q91 -26 81 -98q-7 -49 -52.5 -78t-115.5 -28q-76 0 -113.5 29t-30.5 78q11 67 104 94
q-68 27 -59 92q7 45 48 71t105 26zM644 347q-42 0 -70 -17.5t-32 -46.5q-9 -57 85 -77q91 18 100 79q3 28 -19.5 45t-63.5 17zM606 179q-99 -19 -107 -80q-4 -31 22.5 -50.5t74.5 -19.5q49 0 81 19.5t37 51.5q4 31 -23 50t-85 29z" />
    <glyph glyph-name="arrowleft" unicode="&#x2190;" horiz-adv-x="667" 
d="M640 277h-508l217 -228l-41 -41l-280 297l280 298l41 -41l-217 -228h508v-57z" />
    <glyph glyph-name="arrowup" unicode="&#x2191;" horiz-adv-x="640" 
d="M550 325l-201 187v-512h-57v513l-201 -188l-41 41l270 251l270 -251z" />
    <glyph glyph-name="arrowright" unicode="&#x2192;" horiz-adv-x="667" 
d="M639 305l-281 -297l-41 41l217 228h-508v57h508l-217 228l41 41z" />
    <glyph glyph-name="arrowdown" unicode="&#x2193;" horiz-adv-x="640" 
d="M590 244l-270 -251l-270 251l41 41l201 -188v513h57v-512l201 187z" />
    <glyph glyph-name="arrowupleft" unicode="&#x2196;" horiz-adv-x="694" 
d="M626 -1l-512 514v-334h-59v431h431v-56h-334l514 -515z" />
    <glyph glyph-name="arrowupright" unicode="&#x2197;" horiz-adv-x="694" 
d="M639 610v-431h-56v334l-515 -514l-40 40l514 513h-334v58h431z" />
    <glyph glyph-name="arrowdownright" unicode="&#x2198;" horiz-adv-x="694" 
d="M639 431v-431h-431v56h334l-514 515l40 40l512 -514v334h59z" />
    <glyph glyph-name="arrowdownleft" unicode="&#x2199;" horiz-adv-x="694" 
d="M152 58h334v-58h-431v431h56v-334l515 514l40 -40z" />
    <glyph glyph-name="minus" unicode="&#x2212;" horiz-adv-x="463" 
d="M417 210h-394l8 51h393z" />
    <glyph glyph-name="J.ss01" horiz-adv-x="262" 
d="M223 610l-77 -544q-13 -97 -50.5 -143.5t-121.5 -73.5l-17 56q58 21 84 53t35 95l78 557h69z" />
    <glyph glyph-name="K.ss02" horiz-adv-x="602" 
d="M620 605l-272 -293l197 -305l-2 -7h-78l-178 278h-126l-39 -278h-69l86 610h68l-37 -268h124l251 268h77z" />
    <glyph glyph-name="Kcommaaccent.ss02" horiz-adv-x="602" 
d="M620 605l-272 -293l197 -305l-2 -7h-78l-178 278h-126l-39 -278h-69l86 610h68l-37 -268h124l251 268h77zM194 -213l-15 18q43 39 57 76q-28 6 -25 37q2 17 13.5 28t30.5 11q18 0 27 -13t7 -31q-10 -63 -95 -126z" />
    <glyph glyph-name="Q.ss03" horiz-adv-x="666" 
d="M548 -91l-52 -40q-79 91 -106 134q-45 -12 -97 -12q-136 0 -197.5 81.5t-40.5 232.5t105.5 233t219.5 82q136 0 197.5 -82t40.5 -234q-29 -204 -170 -278q41 -51 100 -117zM301 55q103 0 167 64.5t81 185.5q16 122 -29 186.5t-147 64.5q-104 0 -168 -64.5t-81 -187.5
q-16 -121 29 -185t148 -64z" />
    <glyph glyph-name="R.ss04" horiz-adv-x="633" 
d="M139 610h216q118 0 173 -52.5t44 -148.5q-10 -88 -48 -128t-106 -50q13 -6 24.5 -15t21 -22.5l17 -23.5t15 -29t12 -28t11 -31.5l8 -28t7.5 -29t6 -24.5h-79q-8 32 -11.5 44.5t-13.5 44t-19.5 46.5t-23.5 35t-31.5 28.5t-38.5 8.5h-172l-29 -207h-69zM160 270h175
q151 0 168 138q8 67 -30 102.5t-126 35.5h-149z" />
    <glyph glyph-name="Racute.ss04" horiz-adv-x="633" 
d="M494 777l-2 -14q-71 -55 -154 -110l-22 25l127 137zM139 610h216q118 0 173 -52.5t44 -148.5q-10 -88 -48 -128t-106 -50q13 -6 24.5 -15t21 -22.5l17 -23.5t15 -29t12 -28t11 -31.5l8 -28t7.5 -29t6 -24.5h-79q-8 32 -11.5 44.5t-13.5 44t-19.5 46.5t-23.5 35
t-31.5 28.5t-38.5 8.5h-172l-29 -207h-69zM160 270h175q151 0 168 138q8 67 -30 102.5t-126 35.5h-149z" />
    <glyph glyph-name="Rcaron.ss04" horiz-adv-x="633" 
d="M327 660l-103 118l30 27l104 -87l123 89l28 -29l-132 -118h-50zM139 610h216q118 0 173 -52.5t44 -148.5q-10 -88 -48 -128t-106 -50q13 -6 24.5 -15t21 -22.5l17 -23.5t15 -29t12 -28t11 -31.5l8 -28t7.5 -29t6 -24.5h-79q-8 32 -11.5 44.5t-13.5 44t-19.5 46.5
t-23.5 35t-31.5 28.5t-38.5 8.5h-172l-29 -207h-69zM160 270h175q151 0 168 138q8 67 -30 102.5t-126 35.5h-149z" />
    <glyph glyph-name="Rcommaaccent.ss04" horiz-adv-x="633" 
d="M139 610h216q118 0 173 -52.5t44 -148.5q-10 -88 -48 -128t-106 -50q13 -6 24.5 -15t21 -22.5l17 -23.5t15 -29t12 -28t11 -31.5l8 -28t7.5 -29t6 -24.5h-79q-8 32 -11.5 44.5t-13.5 44t-19.5 46.5t-23.5 35t-31.5 28.5t-38.5 8.5h-172l-29 -207h-69zM160 270h175
q151 0 168 138q8 67 -30 102.5t-126 35.5h-149zM197 -213l-16 18q43 39 57 76q-28 6 -25 37q2 17 14 28t30 11t27 -13t7 -31q-8 -61 -94 -126z" />
    <glyph glyph-name="k.ss02" horiz-adv-x="497" 
d="M506 463l-206 -215l154 -243l-1 -5h-73l-137 218h-109l-30 -218h-67l92 655h66l-52 -377h108l184 190h74z" />
    <glyph glyph-name="kcommaaccent.ss02" horiz-adv-x="497" 
d="M506 463l-206 -215l154 -243l-1 -5h-73l-137 218h-109l-30 -218h-67l92 655h66l-52 -377h108l184 190h74zM154 -213l-16 18q41 36 58 76q-30 7 -25 37q2 17 13.5 28t29.5 11t27.5 -13t6.5 -31q-8 -61 -94 -126z" />
    <glyph glyph-name="a.ss05" horiz-adv-x="508" 
d="M115 397l-11 50q133 30 197 30q93 0 126 -54.5t17 -162.5l-37 -260h-66l7 55q-51 -32 -91.5 -48t-88.5 -16q-161 0 -140 144q21 147 214 147q83 0 138 -1q8 72 -11.5 106t-77.5 34q-53 0 -176 -24zM373 233l-129 -1q-73 0 -110 -21t-44 -72q-7 -47 17.5 -70t82.5 -23
q71 0 166 67z" />
    <glyph glyph-name="aacute.ss05" horiz-adv-x="508" 
d="M427 658l-2 -14q-81 -63 -154 -110l-22 25l127 136zM115 397l-11 50q133 30 197 30q93 0 126 -54.5t17 -162.5l-37 -260h-66l7 55q-51 -32 -91.5 -48t-88.5 -16q-161 0 -140 144q21 147 214 147q83 0 138 -1q8 72 -11.5 106t-77.5 34q-53 0 -176 -24zM373 233l-129 -1
q-73 0 -110 -21t-44 -72q-7 -47 17.5 -70t82.5 -23q71 0 166 67z" />
    <glyph glyph-name="abreve.ss05" horiz-adv-x="508" 
d="M408 661h50q-19 -118 -145 -118q-61 0 -89.5 32.5t-19.5 85.5h48q-5 -35 9 -53.5t55 -18.5q44 0 64 18.5t28 53.5zM115 397l-11 50q133 30 197 30q93 0 126 -54.5t17 -162.5l-37 -260h-66l7 55q-51 -32 -91.5 -48t-88.5 -16q-161 0 -140 144q21 147 214 147q83 0 138 -1
q8 72 -11.5 106t-77.5 34q-53 0 -176 -24zM373 233l-129 -1q-73 0 -110 -21t-44 -72q-7 -47 17.5 -70t82.5 -23q71 0 166 67z" />
    <glyph glyph-name="acircumflex.ss05" horiz-adv-x="508" 
d="M459 562l-30 -28l-104 88l-133 -88l-24 28l137 118h51zM115 397l-11 50q133 30 197 30q93 0 126 -54.5t17 -162.5l-37 -260h-66l7 55q-51 -32 -91.5 -48t-88.5 -16q-161 0 -140 144q21 147 214 147q83 0 138 -1q8 72 -11.5 106t-77.5 34q-53 0 -176 -24zM373 233l-129 -1
q-73 0 -110 -21t-44 -72q-7 -47 17.5 -70t82.5 -23q71 0 166 67z" />
    <glyph glyph-name="adieresis.ss05" horiz-adv-x="508" 
d="M222 574q-16 0 -26 10.5t-8 27.5q3 17 15.5 27t28.5 10q18 0 27.5 -10.5t7.5 -28.5q-6 -36 -45 -36zM405 574q-18 0 -27.5 10t-6.5 28q5 37 44 37q16 0 26 -10.5t8 -28.5q-3 -17 -15.5 -26.5t-28.5 -9.5zM115 397l-11 50q133 30 197 30q93 0 126 -54.5t17 -162.5
l-37 -260h-66l7 55q-51 -32 -91.5 -48t-88.5 -16q-161 0 -140 144q21 147 214 147q83 0 138 -1q8 72 -11.5 106t-77.5 34q-53 0 -176 -24zM373 233l-129 -1q-73 0 -110 -21t-44 -72q-7 -47 17.5 -70t82.5 -23q71 0 166 67z" />
    <glyph glyph-name="agrave.ss05" horiz-adv-x="508" 
d="M390 559l-23 -25q-72 49 -143 110l-2 14l53 37zM115 397l-11 50q133 30 197 30q93 0 126 -54.5t17 -162.5l-37 -260h-66l7 55q-51 -32 -91.5 -48t-88.5 -16q-161 0 -140 144q21 147 214 147q83 0 138 -1q8 72 -11.5 106t-77.5 34q-53 0 -176 -24zM373 233l-129 -1
q-73 0 -110 -21t-44 -72q-7 -47 17.5 -70t82.5 -23q71 0 166 67z" />
    <glyph glyph-name="amacron.ss05" horiz-adv-x="508" 
d="M431 578h-233l6 55h234zM115 397l-11 50q133 30 197 30q93 0 126 -54.5t17 -162.5l-37 -260h-66l7 55q-51 -32 -91.5 -48t-88.5 -16q-161 0 -140 144q21 147 214 147q83 0 138 -1q8 72 -11.5 106t-77.5 34q-53 0 -176 -24zM373 233l-129 -1q-73 0 -110 -21t-44 -72
q-7 -47 17.5 -70t82.5 -23q71 0 166 67z" />
    <glyph glyph-name="aogonek.ss05" horiz-adv-x="508" 
d="M115 397l-11 50q133 30 197 30q93 0 126 -54.5t17 -162.5l-36 -257l4 -3q-38 -10 -63 -31.5t-29 -45.5q-3 -27 8.5 -38.5t43.5 -11.5q18 0 62 8l4 -42q-45 -16 -86 -16q-45 0 -68 24t-17 63q3 25 24 49t54 41h-4l7 55q-51 -32 -91.5 -48t-88.5 -16q-161 0 -140 144
q21 147 214 147q83 0 138 -1q8 72 -11.5 106t-77.5 34q-53 0 -176 -24zM373 233l-129 -1q-73 0 -110 -21t-44 -72q-7 -47 17.5 -70t82.5 -23q71 0 166 67z" />
    <glyph glyph-name="aring.ss05" horiz-adv-x="508" 
d="M307 528q-42 0 -64 24.5t-17 64.5q6 42 35.5 67.5t70.5 25.5t63.5 -26t16.5 -68q-5 -39 -34.5 -63.5t-70.5 -24.5zM267 616q-3 -22 9 -35t36 -13t40 13t20 36q6 54 -45 54q-23 0 -39.5 -15t-20.5 -40zM115 397l-11 50q133 30 197 30q93 0 126 -54.5t17 -162.5l-37 -260
h-66l7 55q-51 -32 -91.5 -48t-88.5 -16q-161 0 -140 144q21 147 214 147q83 0 138 -1q8 72 -11.5 106t-77.5 34q-53 0 -176 -24zM373 233l-129 -1q-73 0 -110 -21t-44 -72q-7 -47 17.5 -70t82.5 -23q71 0 166 67z" />
    <glyph glyph-name="atilde.ss05" horiz-adv-x="508" 
d="M308 586l-54 30q-30 15 -49 7t-38 -40l-38 6q24 60 68 77.5t86 -7.5l54 -28q52 -28 88 38l39 -8q-24 -61 -70 -80t-86 5zM115 397l-11 50q133 30 197 30q93 0 126 -54.5t17 -162.5l-37 -260h-66l7 55q-51 -32 -91.5 -48t-88.5 -16q-161 0 -140 144q21 147 214 147
q83 0 138 -1q8 72 -11.5 106t-77.5 34q-53 0 -176 -24zM373 233l-129 -1q-73 0 -110 -21t-44 -72q-7 -47 17.5 -70t82.5 -23q71 0 166 67z" />
    <glyph glyph-name="g.ss06" horiz-adv-x="554" 
d="M160 65h175q79 0 113.5 -27.5t26.5 -87.5q-13 -89 -77.5 -129t-184.5 -40q-141 0 -190.5 27.5t-38.5 102.5q11 80 89 113q-24 19 -18 69q8 51 64 74q-50 43 -38 131q26 179 227 179q70 0 111 -22q43 24 86 24q30 0 59 -5l-11 -47q-21 1 -51 1q-17 0 -42 -5
q37 -46 25 -127q-24 -167 -224 -167q-65 0 -109 18q-36 -18 -39 -40q-4 -24 6 -33t41 -9zM422 298q9 66 -19.5 96.5t-100.5 30.5q-139 0 -157 -129q-8 -59 21.5 -86t100.5 -27t108.5 27.5t46.5 87.5zM328 6h-170q-98 0 -111 -86q-7 -49 28.5 -65.5t145.5 -16.5
q174 0 188 103q5 35 -14.5 50t-66.5 15z" />
    <glyph glyph-name="gbreve.ss06" horiz-adv-x="554" 
d="M420 660h50q-19 -118 -144 -118q-62 0 -90 32.5t-19 85.5h47q-4 -35 10 -53t54 -18q45 0 64.5 18t27.5 53zM160 65h175q79 0 113.5 -27.5t26.5 -87.5q-13 -89 -77.5 -129t-184.5 -40q-141 0 -190.5 27.5t-38.5 102.5q11 80 89 113q-24 19 -18 69q8 51 64 74
q-50 43 -38 131q26 179 227 179q70 0 111 -22q43 24 86 24q30 0 59 -5l-11 -47q-21 1 -51 1q-17 0 -42 -5q37 -46 25 -127q-24 -167 -224 -167q-65 0 -109 18q-36 -18 -39 -40q-4 -24 6 -33t41 -9zM422 298q9 66 -19.5 96.5t-100.5 30.5q-139 0 -157 -129q-8 -59 21.5 -86
t100.5 -27t108.5 27.5t46.5 87.5zM328 6h-170q-98 0 -111 -86q-7 -49 28.5 -65.5t145.5 -16.5q174 0 188 103q5 35 -14.5 50t-66.5 15z" />
    <glyph glyph-name="gcommaaccent.ss06" horiz-adv-x="554" 
d="M383 721l11 -20q-38 -32 -54 -68q28 -5 25 -35q-2 -16 -13.5 -25.5t-27.5 -9.5q-17 0 -25.5 11t-6.5 29q10 65 91 118zM160 65h175q79 0 113.5 -27.5t26.5 -87.5q-13 -89 -77.5 -129t-184.5 -40q-141 0 -190.5 27.5t-38.5 102.5q11 80 89 113q-24 19 -18 69q8 51 64 74
q-50 43 -38 131q26 179 227 179q70 0 111 -22q43 24 86 24q30 0 59 -5l-11 -47q-21 1 -51 1q-17 0 -42 -5q37 -46 25 -127q-24 -167 -224 -167q-65 0 -109 18q-36 -18 -39 -40q-4 -24 6 -33t41 -9zM422 298q9 66 -19.5 96.5t-100.5 30.5q-139 0 -157 -129q-8 -59 21.5 -86
t100.5 -27t108.5 27.5t46.5 87.5zM328 6h-170q-98 0 -111 -86q-7 -49 28.5 -65.5t145.5 -16.5q174 0 188 103q5 35 -14.5 50t-66.5 15z" />
    <glyph glyph-name="gdotaccent.ss06" horiz-adv-x="554" 
d="M325 568q-19 0 -30.5 12t-8.5 32q3 21 17 32.5t34 11.5q19 0 30.5 -12.5t8.5 -33.5q-3 -19 -17.5 -30.5t-33.5 -11.5zM160 65h175q79 0 113.5 -27.5t26.5 -87.5q-13 -89 -77.5 -129t-184.5 -40q-141 0 -190.5 27.5t-38.5 102.5q11 80 89 113q-24 19 -18 69q8 51 64 74
q-50 43 -38 131q26 179 227 179q70 0 111 -22q43 24 86 24q30 0 59 -5l-11 -47q-21 1 -51 1q-17 0 -42 -5q37 -46 25 -127q-24 -167 -224 -167q-65 0 -109 18q-36 -18 -39 -40q-4 -24 6 -33t41 -9zM422 298q9 66 -19.5 96.5t-100.5 30.5q-139 0 -157 -129q-8 -59 21.5 -86
t100.5 -27t108.5 27.5t46.5 87.5zM328 6h-170q-98 0 -111 -86q-7 -49 28.5 -65.5t145.5 -16.5q174 0 188 103q5 35 -14.5 50t-66.5 15z" />
    <glyph glyph-name="y.ss07" horiz-adv-x="565" 
d="M533 468l-56 -400q-30 -223 -236 -223q-120 0 -200 53l28 51q79 -44 172 -44q148 0 170 160l3 23q-96 -73 -207 -73q-77 0 -118 49t-28 137l40 267h66l-37 -253q-22 -138 96 -138q102 0 197 74l44 317h66z" />
    <glyph glyph-name="yacute.ss07" horiz-adv-x="565" 
d="M444 657l-2 -14q-71 -55 -154 -110l-22 25l127 137zM533 468l-56 -400q-30 -223 -236 -223q-120 0 -200 53l28 51q79 -44 172 -44q148 0 170 160l3 23q-96 -73 -207 -73q-77 0 -118 49t-28 137l40 267h66l-37 -253q-22 -138 96 -138q102 0 197 74l44 317h66z" />
    <glyph glyph-name="ycircumflex.ss07" horiz-adv-x="565" 
d="M476 561l-30 -27l-104 87l-133 -87l-24 27l137 118h51zM533 468l-56 -400q-30 -223 -236 -223q-120 0 -200 53l28 51q79 -44 172 -44q148 0 170 160l3 23q-96 -73 -207 -73q-77 0 -118 49t-28 137l40 267h66l-37 -253q-22 -138 96 -138q102 0 197 74l44 317h66z" />
    <glyph glyph-name="ydieresis.ss07" horiz-adv-x="565" 
d="M239 573q-16 0 -26 10.5t-8 27.5q3 17 15.5 27t28.5 10q18 0 27.5 -10t7.5 -28q-6 -37 -45 -37zM422 573q-18 0 -27.5 10t-6.5 28q5 37 44 37q16 0 26 -10.5t8 -27.5q-3 -17 -15.5 -27t-28.5 -10zM533 468l-56 -400q-30 -223 -236 -223q-120 0 -200 53l28 51
q79 -44 172 -44q148 0 170 160l3 23q-96 -73 -207 -73q-77 0 -118 49t-28 137l40 267h66l-37 -253q-22 -138 96 -138q102 0 197 74l44 317h66z" />
    <glyph glyph-name="ygrave.ss07" horiz-adv-x="565" 
d="M407 558l-23 -25q-80 57 -143 110l-2 14l53 38zM533 468l-56 -400q-30 -223 -236 -223q-120 0 -200 53l28 51q79 -44 172 -44q148 0 170 160l3 23q-96 -73 -207 -73q-77 0 -118 49t-28 137l40 267h66l-37 -253q-22 -138 96 -138q102 0 197 74l44 317h66z" />
    <glyph glyph-name="uni00660062" horiz-adv-x="884" 
d="M520 665l-36 -262q96 73 192 73q189 0 156 -242q-18 -123 -83.5 -183t-150.5 -60q-54 0 -89 17.5t-73 55.5l-9 -64h-67l84 599q-88 13 -143 13q-50 0 -72.5 -24.5t-29.5 -75.5l-6 -44h150l-8 -57h-150l-58 -411h-67l58 411h-69l8 57h69l6 45q12 79 50.5 117t114.5 38
q46 0 154 -20l3 17h66zM475 340l-31 -217q38 -37 70 -56.5t73 -19.5q65 0 115.5 46.5t63.5 142.5q25 184 -115 184q-80 0 -176 -80z" />
    <glyph glyph-name="uni006600660062" horiz-adv-x="1182" 
d="M818 665l-37 -262q96 73 193 73q188 0 155 -242q-18 -123 -83.5 -183t-150.5 -60q-54 0 -89 17.5t-73 55.5l-9 -64h-66l84 599q-89 13 -144 13q-49 0 -72 -24.5t-29 -75.5l-7 -44h150l-7 -57h-150l-58 -411h-67l58 411h-233l-58 -411h-66l58 411h-68l8 57h68l6 45
q11 79 50 117t116 38q53 0 88 -8l-12 -51q-30 3 -72 3q-50 0 -73.5 -24.5t-29.5 -75.5l-7 -44h233l6 45q11 79 49.5 116.5t115.5 37.5q44 0 154 -19l2 17h67zM772 340l-30 -212q72 -81 142 -81q65 0 115.5 46t64.5 143q25 184 -116 184q-80 0 -176 -80z" />
    <glyph glyph-name="uni006600660066" horiz-adv-x="902" 
d="M953 660l-12 -51q-30 3 -71 3q-50 0 -73.5 -24.5t-30.5 -75.5l-6 -44h151l-7 -57h-152l-58 -411h-67l58 411h-217l-58 -411h-67l58 411h-218l-58 -411h-66l58 411h-68l8 57h68l6 45q11 79 50 117t116 38q53 0 88 -8l-12 -51q-30 3 -72 3q-50 0 -73.5 -24.5t-29.5 -75.5
l-7 -44h218l6 45q12 79 51 117t115 38q54 0 88 -8l-12 -51q-30 3 -72 3q-49 0 -72.5 -24.5t-30.5 -75.5l-6 -44h217l7 45q11 79 50 117t116 38q53 0 87 -8z" />
    <glyph glyph-name="uni006600660068" horiz-adv-x="1185" 
d="M833 665l-37 -268q100 79 199 79q80 0 108.5 -44t14.5 -140l-41 -292h-67l39 277q10 73 -9 105t-78 32q-82 0 -176 -85l-46 -329h-67l84 599q-88 13 -144 13q-49 0 -72 -24.5t-30 -75.5l-6 -44h150l-7 -57h-151l-57 -411h-67l57 411h-247l-58 -411h-66l58 411h-68l8 57
h68l6 45q11 79 50 117t116 38q53 0 88 -8l-12 -51q-30 3 -72 3q-50 0 -73.5 -24.5t-29.5 -75.5l-7 -44h247l7 45q12 79 50.5 117t114.5 38q46 0 154 -20l3 17h66z" />
    <glyph glyph-name="uni00660066006A" horiz-adv-x="842" 
d="M791 468l-63 -449q-12 -83 -41.5 -126t-91.5 -60l-8 53q35 16 50.5 44t23.5 90l55 391h-232l-58 -411h-66l57 411h-234l-58 -411h-66l58 411h-68l8 57h68l6 45q11 79 50 117t116 38q53 0 88 -8l-12 -51q-30 3 -72 3q-50 0 -73.5 -24.5t-29.5 -75.5l-7 -44h234l6 45
q12 79 50.5 117t115.5 38q38 0 103 -10l-13 -52q-58 6 -87 6q-50 0 -72.5 -24.5t-29.5 -75.5l-6 -44h299zM783 644q19 0 29.5 -10.5t7.5 -29.5q-2 -18 -15.5 -28.5t-30.5 -10.5q-19 0 -29.5 11t-7.5 29q2 18 15.5 28.5t30.5 10.5z" />
    <glyph glyph-name="uni00660066006B" horiz-adv-x="1138" 
d="M1129 467l-218 -187q100 -121 188 -280h-79q-75 135 -161 235l-113 -97l-19 -138h-67l84 600q-74 12 -144 12q-50 0 -72.5 -24.5t-29.5 -75.5l-6 -44h150l-8 -57h-150l-58 -411h-66l57 411h-234l-58 -411h-66l58 411h-68l8 57h68l6 45q11 79 50 117t116 38q53 0 88 -8
l-12 -51q-30 3 -72 3q-50 0 -73.5 -24.5t-29.5 -75.5l-7 -44h234l6 45q12 79 50.5 117t115.5 38q62 0 154 -20l2 17h67l-62 -440l286 242h85z" />
    <glyph glyph-name="uni006600660074" horiz-adv-x="910" 
d="M743 411l-36 -263q-11 -89 73 -89q33 0 80 6l8 -50q-58 -18 -109 -18q-67 0 -99 39.5t-21 109.5l37 265h-208l-58 -411h-67l58 411h-218l-58 -411h-66l58 411h-68l8 57h68l6 45q11 79 50 117t116 38q53 0 88 -8l-12 -51q-30 3 -72 3q-50 0 -73.5 -24.5t-29.5 -75.5
l-7 -44h218l6 45q12 79 51 117t115 38q54 0 88 -8l-12 -51q-30 3 -72 3q-49 0 -72.5 -24.5t-30.5 -75.5l-6 -44h208l17 122h67l-17 -122h146l-7 -57h-147z" />
    <glyph glyph-name="uni00660068" horiz-adv-x="872" 
d="M520 665l-37 -268q102 79 199 79q80 0 108.5 -44t14.5 -140l-41 -292h-66l38 277q10 73 -8.5 105t-77.5 32q-82 0 -177 -85l-46 -329h-67l84 599q-88 13 -143 13q-50 0 -72.5 -24.5t-29.5 -75.5l-6 -44h150l-8 -57h-150l-58 -411h-67l58 411h-69l8 57h69l6 45
q12 79 50.5 117t114.5 38q46 0 154 -20l3 17h66z" />
    <glyph glyph-name="uni0066006A" horiz-adv-x="542" 
d="M492 468l-63 -449q-12 -83 -41.5 -126t-91.5 -60l-9 53q36 16 51.5 44t23.5 90l55 391h-232l-58 -411h-67l58 411h-69l8 57h69l6 45q12 79 50.5 117t114.5 38q34 0 107 -11l-12 -51q-60 6 -91 6q-50 0 -72.5 -24.5t-29.5 -75.5l-6 -44h299zM484 644q18 0 29 -10.5
t8 -29.5q-2 -18 -15.5 -28.5t-31.5 -10.5t-28.5 11t-8.5 29q3 18 16 28.5t31 10.5z" />
    <glyph glyph-name="uni0066006B" horiz-adv-x="838" 
d="M829 467l-218 -186q106 -130 188 -281h-78q-76 135 -162 236l-112 -96l-20 -140h-67l84 599q-88 13 -143 13q-50 0 -72.5 -24.5t-29.5 -75.5l-6 -44h150l-8 -57h-150l-58 -411h-67l58 411h-69l8 57h69l6 45q12 79 50.5 117t114.5 38q46 0 154 -20l3 17h66l-61 -439
l285 241h85z" />
    <glyph glyph-name="uni00660074" horiz-adv-x="619" 
d="M453 411l-37 -263q-11 -89 73 -89q34 0 81 6l7 -50q-58 -18 -108 -18q-67 0 -99 39.5t-22 109.5l38 265h-203l-58 -411h-66l58 411h-68l8 57h68l6 45q11 79 50 117t116 38q53 0 88 -8l-12 -51q-30 3 -72 3q-50 0 -73.5 -24.5t-29.5 -75.5l-7 -44h203l17 122h66l-16 -122
h146l-8 -57h-146z" />
    <glyph glyph-name="uni00720066" horiz-adv-x="682" 
d="M740 658l-13 -49q-36 3 -77 3q-50 0 -73 -24.5t-30 -75.5l-6 -44h150l-7 -57h-151l-58 -411h-66l57 411h-63l7 57h64l6 45q12 79 50.5 117t115.5 38q58 0 94 -10zM169 468l-12 -85q68 93 159 93q34 0 60 -3l-14 -65q-23 2 -56 2q-92 0 -160 -112l-42 -298h-67l66 468h66z
" />
    <glyph glyph-name="uni00720074" horiz-adv-x="692" 
d="M525 411l-36 -263q-11 -89 73 -89q33 0 80 6l8 -50q-58 -18 -109 -18q-67 0 -99 39.5t-21 109.5l37 265h-60l8 57h60l17 122h67l-17 -122h146l-7 -57h-147zM169 468l-12 -85q68 93 159 93q34 0 60 -3l-14 -65q-23 2 -56 2q-92 0 -160 -112l-42 -298h-67l66 468h66z" />
    <glyph glyph-name="zero.osf" horiz-adv-x="591" 
d="M336 525q119 0 171.5 -74t35.5 -195q-17 -119 -90 -192t-191 -73q-119 0 -171.5 73.5t-35.5 193.5q16 120 89.5 193.5t191.5 73.5zM270 53q86 0 138.5 57t65.5 148t-23 148t-122 57q-87 0 -140 -57t-66 -150q-12 -91 24.5 -147t122.5 -56z" />
    <glyph glyph-name="one.osf" horiz-adv-x="476" 
d="M409 59l-8 -59h-380l8 59h171l53 378q-95 -37 -180 -55l-8 44q109 35 213 89h54l-63 -456h140z" />
    <glyph glyph-name="two.osf" horiz-adv-x="514" 
d="M447 0h-445l7 50q199 94 261 132q135 83 146 161q8 56 -21.5 90t-87.5 34q-111 0 -229 -54l-14 49q137 63 247 63q90 0 135.5 -49t33.5 -132q-3 -25 -13 -48t-28.5 -44.5t-35 -38.5t-47.5 -36.5l-51.5 -32t-60.5 -31.5t-60.5 -28l-64.5 -29q54 3 63 3h273z" />
    <glyph glyph-name="three.osf" horiz-adv-x="519" 
d="M79 420l-10 47q125 58 242 58q88 0 135.5 -46t36.5 -122q-7 -52 -43 -86.5t-92 -49.5q63 -15 92.5 -53.5t21.5 -96.5q-11 -79 -76 -125.5t-163 -46.5q-137 0 -240 60l28 48q102 -53 216 -53q69 0 115.5 32.5t53.5 86.5q9 60 -31.5 90.5t-120.5 30.5h-90l8 57h90
q152 0 167 99q7 55 -26 87t-95 32q-105 0 -219 -49z" />
    <glyph glyph-name="four.osf" horiz-adv-x="592" 
d="M428 0l-18 -120h-67l17 120h-363l5 49l429 456h67l-63 -450h107l-7 -55h-107zM367 55l52 368q-40 -47 -58 -65l-218 -237q-59 -57 -70 -66h294z" />
    <glyph glyph-name="five.osf" horiz-adv-x="535" 
d="M177 447l-49 -221q81 36 171 36q91 0 138.5 -50t35.5 -133q-13 -89 -82 -141t-168 -52q-132 0 -235 59l28 51q100 -53 207 -53q73 0 124.5 38.5t60.5 101.5q8 59 -28 95t-104 36q-72 0 -160 -40l-57 9l69 322h382l-8 -58h-325z" />
    <glyph glyph-name="six.osf" horiz-adv-x="564" 
d="M542 589l-24 -50q-65 24 -134 24q-102 0 -173.5 -73t-93.5 -201q86 100 219 100q93 0 142.5 -51.5t37.5 -138.5q-14 -98 -83 -153t-170 -55q-124 0 -178.5 76t-35.5 215q22 153 116 245.5t223 92.5q88 0 154 -31zM270 47q70 0 120.5 41t61.5 115q9 63 -28.5 97.5
t-110.5 34.5q-54 0 -107 -29t-94 -86q-2 -82 38 -127.5t120 -45.5z" />
    <glyph glyph-name="seven.osf" horiz-adv-x="452" 
d="M485 505l-6 -52q-102 -106 -197 -258t-156 -300h-79q66 150 160 299t195 252h-362l9 59h436z" />
    <glyph glyph-name="eight.osf" horiz-adv-x="583" 
d="M347 620q101 0 154 -43t43 -115q-15 -105 -154 -140q158 -41 140 -161q-10 -80 -83 -125t-189 -45q-123 0 -182 45t-48 127q17 115 175 155q-119 40 -104 143q11 73 77.5 116t170.5 43zM339 573q-71 0 -119 -31.5t-55 -81.5q-7 -48 27.5 -76.5t119.5 -44.5
q155 25 168 124q8 49 -31.5 79.5t-109.5 30.5zM277 297q-169 -30 -182 -132q-8 -57 36 -88.5t129 -31.5q84 0 138 32t62 88q7 52 -34.5 82.5t-148.5 49.5z" />
    <glyph glyph-name="nine.osf" horiz-adv-x="564" 
d="M33 -70l25 50q61 -27 136 -27q102 0 172 71.5t92 202.5q-39 -46 -97 -73t-126 -27q-93 0 -142.5 51.5t-37.5 138.5q14 98 83.5 153t172.5 55q115 0 172 -79t38 -213q-22 -156 -112 -246.5t-219 -90.5q-92 0 -157 34zM258 181q56 0 112.5 29.5t92.5 84.5q2 82 -39.5 128
t-119.5 46q-72 0 -123.5 -41t-61.5 -115q-9 -63 28.5 -97.5t110.5 -34.5z" />
    <glyph glyph-name="zero.tf" horiz-adv-x="555" 
d="M331 620q123 0 176.5 -81.5t31.5 -234.5q-21 -151 -97 -232t-198 -81t-175.5 81.5t-32.5 232.5q21 152 97 233.5t198 81.5zM251 53q90 0 146 65t73 187q18 123 -19 188t-127 65t-146 -65.5t-73 -188.5q-17 -122 20 -186.5t126 -64.5z" />
    <glyph glyph-name="one.tf" horiz-adv-x="555" 
d="M464 59l-8 -59h-392l8 59h168l66 471q-92 -36 -180 -54l-9 45q119 35 214 89h54l-77 -551h156z" />
    <glyph glyph-name="two.tf" horiz-adv-x="555" 
d="M109 509l-13 49q137 62 246 62q90 0 135.5 -51.5t33.5 -137.5q-3 -22 -11.5 -43.5t-24.5 -43.5t-30.5 -40t-42.5 -42l-46.5 -39.5t-55 -41.5l-56.5 -39.5l-63 -42.5l-63 -43q5 0 37 1.5t46 1.5h272l-8 -59h-444l6 50l116.5 83.5l116.5 84.5t88.5 71.5t72 76.5t28.5 68
q8 59 -22 93.5t-90 34.5q-100 0 -228 -53z" />
    <glyph glyph-name="three.tf" horiz-adv-x="555" 
d="M110 512l-11 47q127 58 245 58q88 0 135 -46t37 -122q-15 -102 -127 -135q122 -34 105 -151q-10 -79 -75.5 -125.5t-163.5 -46.5q-138 0 -240 60l28 48q98 -52 217 -52q69 0 115.5 32t53.5 86q9 60 -31.5 90t-121.5 30h-90l8 59h89q158 0 171 102q7 52 -25 84t-92 32
q-109 0 -227 -50z" />
    <glyph glyph-name="four.tf" horiz-adv-x="555" 
d="M428 144l-20 -144h-67l20 144h-358l5 49l418 417h67l-58 -410h103l-8 -56h-102zM368 200l46 328l-54 -58l-215 -212l-33.5 -32t-27.5 -26h284z" />
    <glyph glyph-name="five.tf" horiz-adv-x="555" 
d="M209 551l-48 -222q92 38 168 38q91 0 138 -49.5t35 -133.5q-12 -88 -81.5 -140.5t-167.5 -52.5q-134 0 -236 60l28 50q98 -51 207 -51q73 0 124.5 38t60.5 100q8 59 -28 95t-103 36q-74 0 -161 -41l-56 10l69 322h381l-8 -59h-322z" />
    <glyph glyph-name="six.tf" horiz-adv-x="555" 
d="M536 589l-24 -50q-65 24 -134 24q-102 0 -173.5 -73t-93.5 -201q86 100 219 100q93 0 142.5 -51.5t37.5 -138.5q-14 -98 -83 -153t-170 -55q-124 0 -178.5 76t-35.5 215q22 153 116 245.5t223 92.5q88 0 154 -31zM264 47q70 0 120.5 41t61.5 115q9 63 -28.5 97.5
t-110.5 34.5q-54 0 -107 -29t-94 -86q-2 -82 38 -127.5t120 -45.5z" />
    <glyph glyph-name="seven.tf" horiz-adv-x="555" 
d="M551 610l-7 -52q-102 -106 -197 -258t-155 -300h-79q64 149 159 298.5t196 252.5h-362l8 59h437z" />
    <glyph glyph-name="eight.tf" horiz-adv-x="555" 
d="M334 620q101 0 154 -43t43 -115q-15 -105 -154 -140q158 -41 140 -161q-10 -80 -83 -125t-189 -45q-123 0 -182 45t-48 127q17 115 175 155q-119 40 -104 143q11 73 77.5 116t170.5 43zM326 573q-71 0 -119 -31.5t-55 -81.5q-7 -48 27.5 -76.5t119.5 -44.5
q155 25 168 124q8 49 -31.5 79.5t-109.5 30.5zM264 297q-169 -30 -182 -132q-8 -57 36 -88.5t129 -31.5q84 0 138 32t62 88q7 52 -34.5 82.5t-148.5 49.5z" />
    <glyph glyph-name="nine.tf" horiz-adv-x="555" 
d="M41 26l25 49q64 -27 135 -27q103 0 172.5 71.5t91.5 202.5q-39 -45 -97 -72.5t-125 -27.5q-93 0 -143 51.5t-38 138.5q14 99 83.5 153.5t172.5 54.5q116 0 173 -79t38 -212q-22 -156 -112.5 -247t-219.5 -91q-91 0 -156 35zM266 276q55 0 112 29.5t92 85.5
q3 81 -38.5 127t-120.5 46q-72 0 -123 -41t-61 -115q-10 -63 28 -97.5t111 -34.5z" />
    <glyph glyph-name="zero.zero" horiz-adv-x="611" 
d="M358 620q124 0 178 -81.5t33 -234.5q-22 -151 -98 -232t-200 -81t-178 81.5t-33 232.5q21 152 97.5 233.5t200.5 81.5zM131 166l341 338q-39 54 -121 54q-92 0 -148.5 -65t-73.5 -189q-12 -81 2 -138zM491 468l-346 -342q37 -73 133 -73q92 0 148.5 65t73.5 187
q14 101 -9 163z" />
    <glyph glyph-name="zero.dnom" horiz-adv-x="393" 
d="M217 381q78 0 111 -50t20 -146q-14 -94 -61 -144t-124 -50q-78 0 -111.5 50.5t-19.5 145.5q14 94 61 144t124 50zM168 35q57 0 89 37.5t43 114.5q21 151 -88 151q-111 0 -132 -153q-21 -150 88 -150z" />
    <glyph glyph-name="one.dnom" horiz-adv-x="313" 
d="M263 42l-6 -42h-249l6 42h106l39 286q-53 -19 -110 -31l-7 27q78 27 134 55h38l-47 -337h96z" />
    <glyph glyph-name="two.dnom" horiz-adv-x="340" 
d="M279 0h-277l5 36l71 51t70.5 51.5t51 42t42.5 46.5t16 42q5 36 -12.5 55.5t-54.5 19.5q-59 0 -131 -32l-11 35q85 38 153 38q57 0 85 -31t20 -87q-2 -13 -7 -26t-14.5 -26.5t-18 -24t-25 -25l-27.5 -23.5t-33 -25l-34 -24.5l-38.5 -26.5l-38.5 -26q32 2 43 2h170z" />
    <glyph glyph-name="three.dnom" horiz-adv-x="339" 
d="M55 311l-8 33q77 36 150 36q57 0 86 -28t22 -77q-9 -62 -79 -83q74 -24 65 -94q-7 -52 -45.5 -79.5t-102.5 -27.5q-85 0 -149 38l20 33q61 -32 132 -32q43 0 69 18t30 52q5 35 -17.5 53.5t-71.5 18.5h-64l6 40h63q91 0 98 60q5 33 -13.5 50.5t-56.5 17.5q-65 0 -134 -29z
" />
    <glyph glyph-name="four.dnom" horiz-adv-x="374" 
d="M269 84l-12 -84h-47l12 84h-225l4 36l263 259h46l-36 -256h62l-5 -39h-62zM227 123l29 200q-11 -14 -30 -30l-134 -129l-42 -41h177z" />
    <glyph glyph-name="five.dnom" horiz-adv-x="346" 
d="M115 334l-29 -131q60 26 107 26q59 0 87 -30.5t20 -87.5q-7 -57 -48.5 -88.5t-105.5 -31.5q-82 0 -146 38l20 36q62 -34 125 -34q46 0 75 22t35 61q5 38 -15 59.5t-61 21.5q-44 0 -100 -25l-41 6l43 199h242l-5 -41h-203z" />
    <glyph glyph-name="six.dnom" horiz-adv-x="373" 
d="M340 362l-17 -34q-37 13 -82 13q-64 0 -108 -43.5t-56 -118.5q23 29 59.5 43.5t69.5 14.5q62 0 94 -32t24 -86q-8 -58 -50.5 -93t-105.5 -35q-79 0 -115 48t-24 134q13 95 72 151.5t143 56.5q58 0 96 -19zM172 31q42 0 71.5 25t35.5 67q5 36 -17 57t-64 21
q-86 0 -125 -73q-1 -44 25 -70.5t74 -26.5z" />
    <glyph glyph-name="seven.dnom" horiz-adv-x="311" 
d="M312 379l-5 -36q-65 -68 -124 -160.5t-94 -182.5h-55q38 91 97 181.5t123 155.5h-220l6 42h272z" />
    <glyph glyph-name="eight.dnom" horiz-adv-x="374" 
d="M210 381q62 0 95 -26.5t27 -70.5q-9 -64 -89 -89q91 -26 81 -98q-7 -49 -53 -78t-116 -28q-75 0 -112.5 29t-30.5 78q9 67 104 94q-69 27 -59 92q6 45 47 71t106 26zM205 347q-42 0 -70 -17.5t-32 -46.5q-9 -57 84 -77q92 18 100 79q4 28 -18.5 45t-63.5 17zM167 179
q-99 -19 -107 -80q-5 -31 21.5 -50.5t74.5 -19.5q49 0 81.5 19.5t37.5 51.5q4 31 -23 50t-85 29z" />
    <glyph glyph-name="nine.dnom" horiz-adv-x="365" 
d="M25 12l18 35q39 -16 83 -16q64 0 104.5 41.5t52.5 117.5q-23 -27 -58 -41t-68 -14q-63 0 -94.5 32t-24.5 86q8 59 51 93.5t108 34.5q76 0 111 -47.5t23 -133.5q-13 -97 -69 -153t-139 -56q-59 0 -98 21zM165 171q84 0 122 69q2 47 -22 74t-72 27q-44 0 -73.5 -24
t-36.5 -68q-5 -37 17 -57.5t65 -20.5z" />
    <glyph glyph-name="zero.numr" horiz-adv-x="393" 
d="M248 620q78 0 111 -50t20 -146q-14 -94 -61 -144t-124 -50q-78 0 -111.5 50.5t-19.5 145.5q14 94 61 144t124 50zM199 274q57 0 89 37.5t43 114.5q21 151 -88 151q-111 0 -132 -153q-21 -150 88 -150z" />
    <glyph glyph-name="one.numr" horiz-adv-x="313" 
d="M293 273l-6 -42h-249l6 42h106l39 286q-53 -19 -110 -31l-7 27q78 27 134 55h38l-47 -337h96z" />
    <glyph glyph-name="two.numr" horiz-adv-x="340" 
d="M309 235h-277l6 36l60.5 43.5l58.5 42t48 37.5t42.5 38.5t26.5 34.5t14 37q5 36 -12 55.5t-54 19.5q-60 0 -132 -32l-11 35q85 38 154 38q56 0 84 -31.5t20 -86.5q-2 -13 -6.5 -26t-14 -26.5t-18.5 -24.5t-25 -25l-27.5 -23.5t-33 -25t-34.5 -24l-38.5 -26l-38.5 -26.5
q32 2 44 2h169z" />
    <glyph glyph-name="three.numr" horiz-adv-x="339" 
d="M88 552l-8 33q77 36 150 36q57 0 86 -28t22 -77q-9 -62 -79 -83q74 -24 65 -94q-7 -52 -45.5 -79.5t-102.5 -27.5q-85 0 -149 38l20 33q61 -32 132 -32q43 0 69 18t30 52q5 35 -17.5 53.5t-71.5 18.5h-64l6 40h63q90 0 98 60q5 33 -13.5 50.5t-56.5 17.5q-65 0 -134 -29z
" />
    <glyph glyph-name="four.numr" horiz-adv-x="374" 
d="M302 315l-12 -84h-46l11 84h-224l3 36l263 259h46l-36 -256h62l-5 -39h-62zM261 354l28 200q-10 -12 -29 -30l-135 -129q-20 -21 -42 -41h178z" />
    <glyph glyph-name="five.numr" horiz-adv-x="346" 
d="M146 569l-30 -131q60 26 107 26q59 0 87 -30.5t21 -87.5q-8 -58 -49.5 -89t-105.5 -31q-82 0 -146 38l21 36q62 -34 125 -34q46 0 74.5 22t34.5 61q5 38 -15 59.5t-61 21.5q-44 0 -100 -25l-41 6l43 199h243l-6 -41h-202z" />
    <glyph glyph-name="six.numr" horiz-adv-x="373" 
d="M371 601l-17 -34q-37 13 -82 13q-64 0 -108 -43.5t-56 -118.5q23 29 59.5 43.5t69.5 14.5q62 0 94 -32t24 -86q-8 -58 -50.5 -93t-105.5 -35q-79 0 -115 48t-24 134q13 95 72 151.5t143 56.5q58 0 96 -19zM203 270q42 0 71.5 25t35.5 67q5 36 -17 57t-64 21
q-86 0 -125 -73q-1 -44 25 -70.5t74 -26.5z" />
    <glyph glyph-name="seven.numr" horiz-adv-x="311" 
d="M342 610l-5 -36q-65 -68 -124 -160.5t-94 -182.5h-55q38 91 97 181.5t123 155.5h-220l6 42h272z" />
    <glyph glyph-name="eight.numr" horiz-adv-x="374" 
d="M241 620q62 0 95 -26.5t27 -70.5q-9 -64 -89 -89q91 -26 81 -98q-7 -49 -53 -78t-116 -28q-75 0 -112.5 29t-30.5 78q9 67 104 94q-69 27 -59 92q6 45 47 71t106 26zM236 586q-42 0 -70 -17.5t-32 -46.5q-9 -57 84 -77q92 18 100 79q4 28 -18.5 45t-63.5 17zM198 418
q-99 -19 -107 -80q-5 -31 21.5 -50.5t74.5 -19.5q49 0 81.5 19.5t37.5 51.5q4 31 -23 50t-85 29z" />
    <glyph glyph-name="nine.numr" horiz-adv-x="365" 
d="M59 251l17 35q39 -16 83 -16q63 0 104 41.5t54 117.5q-23 -27 -58 -41t-68 -14q-63 0 -95 32t-24 86q8 59 51 93.5t107 34.5q77 0 112 -47.5t23 -133.5q-13 -97 -69.5 -153t-139.5 -56q-58 0 -97 21zM198 410q84 0 123 69q2 47 -22.5 74t-72.5 27q-44 0 -73.5 -24
t-35.5 -68q-5 -37 16.5 -57.5t64.5 -20.5z" />
    <glyph glyph-name="backslash.case" horiz-adv-x="397" 
d="M171 664l115 -735h-58l-116 735h59z" />
    <glyph glyph-name="bullet.case" horiz-adv-x="308" 
d="M104 313q5 28 24 45t47 17q29 0 44 -17.5t10 -45.5q-4 -28 -22.5 -45t-47.5 -17q-28 0 -43.5 17.5t-11.5 45.5z" />
    <glyph glyph-name="exclamdown.case" horiz-adv-x="206" 
d="M146 537q-17 0 -26 10.5t-7 27.5t13.5 27.5t28.5 10.5t26 -11t7 -28t-13.5 -27t-28.5 -10zM102 417h53l-49 -417h-72z" />
    <glyph glyph-name="periodcentered.case" horiz-adv-x="268" 
d="M102 316q2 19 15.5 31t32.5 12t29.5 -12t7.5 -32q-2 -18 -15 -30t-32 -12q-20 0 -30.5 12t-7.5 31z" />
    <glyph glyph-name="questiondown.case" horiz-adv-x="504" 
d="M325 537q-37 0 -34 39q2 16 14 26.5t29 10.5t26 -11t7 -28q-2 -16 -14 -26.5t-28 -10.5zM435 103l15 -50q-137 -62 -246 -62q-90 0 -135.5 49.5t-34.5 133.5q10 70 72.5 116.5t166.5 62.5l10 80h55l-8 -129q-100 -9 -159 -41.5t-66 -83.5q-8 -58 23 -92t93 -34
q75 0 214 50z" />
    <glyph glyph-name="slash.case" horiz-adv-x="379" 
d="M343 664h59l-337 -768h-58z" />
    <glyph glyph-name="braceleft.case" horiz-adv-x="378" 
d="M266 499l-4 -33q-12 -81 -39.5 -116t-84.5 -46q54 -9 72 -45t6 -117l-5 -33q-6 -51 14.5 -79.5t80.5 -39.5l-6 -47q-174 16 -151 167l5 33q11 81 -9 108.5t-92 29.5l6 47q72 1 100.5 29.5t39.5 109.5l4 32q11 77 59 117.5t139 48.5l-6 -47q-63 -10 -92.5 -39.5
t-36.5 -79.5z" />
    <glyph glyph-name="braceright.case" horiz-adv-x="378" 
d="M252 498l-4 -33q-11 -82 9 -109t92 -29l-7 -47q-72 -1 -100 -30t-39 -109l-5 -32q-11 -77 -59 -117.5t-139 -48.5l6 47q63 10 92.5 39.5t36.5 79.5l5 33q11 81 38.5 116t85.5 46q-54 9 -72 45t-6 117l4 33q7 50 -14 79t-81 40l6 47q174 -16 151 -167z" />
    <glyph glyph-name="bracketleft.case" horiz-adv-x="353" 
d="M376 660l-8 -54h-162l-84 -603h162l-8 -54h-224l100 711h224z" />
    <glyph glyph-name="bracketright.case" horiz-adv-x="353" 
d="M1 -51l8 54h162l85 602h-162l7 55h224l-100 -711h-224z" />
    <glyph glyph-name="parenleft.case" horiz-adv-x="306" 
d="M291 659l37 -27q-77 -76 -119 -149.5t-57 -179.5q-15 -105 6.5 -178t76.5 -150l-44 -27q-66 82 -91 162.5t-9 193.5t63.5 193t136.5 162z" />
    <glyph glyph-name="parenright.case" horiz-adv-x="304" 
d="M36 -52l-36 27q76 76 118 149.5t57 179.5q15 105 -6.5 178t-76.5 150l44 27q66 -82 91.5 -162.5t9.5 -193.5q-16 -112 -64 -192.5t-137 -162.5z" />
    <glyph glyph-name="emdash.case" horiz-adv-x="890" 
d="M78 341h759l-7 -53h-759z" />
    <glyph glyph-name="endash.case" horiz-adv-x="500" 
d="M78 341h369l-7 -53h-369z" />
    <glyph glyph-name="hyphen.case" horiz-adv-x="390" 
d="M82 346h258l-8 -60h-259z" />
    <glyph glyph-name="guillemotleft.case" horiz-adv-x="519" 
d="M487 469l-147 -134q-20 -17 -43 -34q18 -16 34 -34l108 -133l-42 -35l-171 203l227 203zM321 469l-147 -134q-17 -16 -42 -34q20 -18 33 -34l109 -133l-43 -35l-170 203l227 203z" />
    <glyph glyph-name="guillemotright.case" horiz-adv-x="519" 
d="M301 302l-228 -203l-30 33l146 134q23 20 45 36q-12 11 -34 35l-109 134l39 34zM466 302l-228 -203l-30 33l146 134q22 20 45 36q-16 15 -33 35l-110 134l40 34z" />
    <glyph glyph-name="guilsinglleft.case" horiz-adv-x="354" 
d="M321 469l-147 -134q-17 -16 -42 -34q20 -18 33 -34l109 -133l-43 -35l-170 203l227 203z" />
    <glyph glyph-name="guilsinglright.case" horiz-adv-x="354" 
d="M301 302l-228 -203l-30 33l146 134q23 20 45 36q-12 11 -34 35l-109 134l39 34z" />
    <glyph glyph-name="florin.tf" horiz-adv-x="555" 
d="M552 495l-28 -42q-61 41 -137 41q-139 0 -207 -200l-14 -43h241l-16 -46h-240l-69 -205h-66l69 205h-65l16 46h64l15 44q44 132 110.5 192.5t160.5 60.5q99 0 166 -53z" />
    <glyph glyph-name="cent.tf" horiz-adv-x="555" 
d="M517 491l-29 -43q-56 41 -144 41q-72 0 -130 -53.5t-75 -171.5q-16 -113 25 -165t112 -52q105 0 179 62l21 -41q-77 -69 -184 -76l-9 -58h-47l8 58q-88 5 -139 71.5t-32 202.5q19 133 88.5 201.5t159.5 76.5l9 66h48l-9 -66q89 -6 148 -53z" />
    <glyph glyph-name="dollar.tf" horiz-adv-x="555" 
d="M501 491l-24 -47q-101 48 -179 48q-51 0 -84.5 -22t-38.5 -59q-6 -39 20.5 -59.5t119.5 -51.5q98 -31 132.5 -67.5t25.5 -96.5q-8 -66 -65 -105.5t-145 -39.5l-8 -58h-48l9 61q-107 10 -181 84l33 47q82 -81 201 -81q59 0 97 25t43 67q6 41 -23 64t-122 55
q-96 33 -129 64.5t-25 92.5q8 58 58 94t125 37l9 68h48l-10 -70q81 -9 161 -50z" />
    <glyph glyph-name="Euro.tf" horiz-adv-x="555" 
d="M540 491l-28 -43q-60 43 -145 43q-56 0 -107.5 -35.5t-79.5 -114.5h265l-18 -40h-258q-3 -11 -7 -37l-3 -36h240l-18 -39h-222q4 -78 44 -111t96 -33q103 0 181 64l20 -40q-86 -78 -215 -78q-80 0 -134.5 47.5t-57.5 150.5h-79l6 39h73q2 26 4 38q4 24 7 35h-73l5 40h78
q32 103 101 153.5t151 50.5q106 0 174 -54z" />
    <glyph glyph-name="sterling.tf" horiz-adv-x="555" 
d="M561 495l-29 -44q-58 43 -136 43q-68 0 -112.5 -46t-66.5 -154l-8 -35h208l-6 -47h-212l-34 -156h312l-8 -56h-463l7 49l87 6l34 157h-94l6 47h98l8 36q28 134 88 193.5t154 59.5q101 0 167 -53z" />
    <glyph glyph-name="yen.tf" horiz-adv-x="555" 
d="M336 236h135l-5 -39h-155l-10 -66h155l-5 -39h-155l-13 -92h-69l13 92h-150l6 39h150l9 66h-150l5 39h131l-138 307h70l116 -247q6 -13 10 -34q8 20 19 34l185 247h71z" />
    <glyph glyph-name="arrowdown.ss08" horiz-adv-x="679" 
d="M340 568q119 0 204 -85t85 -204q0 -120 -85 -205t-204 -85q-120 0 -205 85t-85 205q0 119 85 204t205 85zM322 432v-245l-111 110l-26 -25l155 -151l155 150l-26 26l-110 -110v245h-37z" />
    <glyph glyph-name="arrowdownleft.ss08" horiz-adv-x="679" 
d="M629 279q0 119 -85 204t-204 85q-120 0 -205 -85t-85 -204q0 -120 85 -205t205 -85q119 0 204 85t85 205zM225 163v220h37v-158l174 174l25 -25l-174 -174h157v-37h-219z" />
    <glyph glyph-name="arrowdownright.ss08" horiz-adv-x="679" 
d="M629 279q0 119 -85 204t-204 85q-120 0 -205 -85t-85 -204q0 -120 85 -205t205 -85q119 0 204 85t85 205zM235 200h157l-174 174l25 25l174 -174v158h37v-220h-219v37z" />
    <glyph glyph-name="arrowleft.ss08" horiz-adv-x="679" 
d="M340 568q119 0 204 -85t85 -204q0 -120 -85 -205t-204 -85q-120 0 -205 85t-85 205q0 119 85 204t205 85zM182 279l150 -156l26 26l-110 111h245v37h-245l110 110l-25 26z" />
    <glyph glyph-name="arrowright.ss08" horiz-adv-x="679" 
d="M340 568q119 0 204 -85t85 -204q0 -120 -85 -205t-204 -85q-120 0 -205 85t-85 205q0 119 85 204t205 85zM321 407l111 -110h-246v-37h246l-111 -111l26 -26l150 156l-150 154z" />
    <glyph glyph-name="arrowup.ss08" horiz-adv-x="679" 
d="M340 568q119 0 204 -85t85 -204q0 -120 -85 -205t-204 -85q-120 0 -205 85t-85 205q0 119 85 204t205 85zM185 286l26 -26l111 111v-246h37v246l110 -110l26 25l-155 150z" />
    <glyph glyph-name="arrowupleft.ss08" horiz-adv-x="679" 
d="M629 279q0 119 -85 204t-204 85q-120 0 -205 -85t-85 -204q0 -120 85 -205t205 -85q119 0 204 85t85 205zM444 358h-157l174 -175l-25 -25l-174 174v-158h-37v220h219v-36z" />
    <glyph glyph-name="arrowupright.ss08" horiz-adv-x="679" 
d="M629 279q0 119 -85 204t-204 85q-120 0 -205 -85t-85 -204q0 -120 85 -205t205 -85q119 0 204 85t85 205zM454 394v-220h-36v158l-175 -174l-25 25l174 175h-157v36h219z" />
    <glyph glyph-name="arrowdown.ss13" horiz-adv-x="513" 
d="M257 485q85 0 145.5 -60.5t60.5 -145.5t-60.5 -146t-145.5 -61t-146 61t-61 146t61 145.5t146 60.5zM257 460q-75 0 -128 -53.5t-53 -127.5q0 -75 53 -128t128 -53q74 0 127.5 53t53.5 128q0 74 -53.5 127.5t-127.5 53.5zM243 388v-174l-77 78l-19 -19l110 -107l110 107
l-20 19l-77 -78v174h-27z" />
    <glyph glyph-name="arrowdownleft.ss13" horiz-adv-x="513" 
d="M257 485q85 0 145.5 -60.5t60.5 -145.5t-60.5 -146t-145.5 -61t-146 61t-61 146q0 84 60 145t147 61zM257 460q-76 0 -128.5 -53t-52.5 -128q0 -76 52.5 -129t128.5 -53q75 0 127.5 53t52.5 129q0 75 -52.5 128t-127.5 53zM346 346l-124 -123h110v-25h-155v154h26v-110
l123 123z" />
    <glyph glyph-name="arrowdownright.ss13" horiz-adv-x="513" 
d="M256 485q87 0 147 -61t60 -145q0 -85 -60.5 -146t-146.5 -61q-85 0 -145.5 61t-60.5 146t60.5 145.5t145.5 60.5zM256 460q-75 0 -127.5 -53t-52.5 -128q0 -76 52.5 -128.5t127.5 -52.5q76 0 129 52.5t53 128.5q0 75 -53 128t-129 53zM309 242v111h27v-156h-155v26h110
l-123 123l19 20z" />
    <glyph glyph-name="arrowleft.ss13" horiz-adv-x="513" 
d="M257 485q85 0 145.5 -60.5t60.5 -145.5t-60.5 -146t-145.5 -61t-146 61t-61 146t61 145.5t146 60.5zM257 460q-76 0 -128.5 -53t-52.5 -128q0 -76 52.5 -128.5t128.5 -52.5q75 0 128 52.5t53 128.5q0 75 -53 128t-128 53zM366 292h-174l78 77l-19 19l-107 -109l107 -111
l19 20l-78 77h174v27z" />
    <glyph glyph-name="arrowright.ss13" horiz-adv-x="513" 
d="M256 485q85 0 146 -60.5t61 -145.5t-60.5 -146t-146.5 -61q-85 0 -145.5 61t-60.5 146t60.5 145.5t145.5 60.5zM256 460q-75 0 -127.5 -53t-52.5 -128q0 -76 52.5 -128.5t127.5 -52.5q76 0 129 52.5t53 128.5q0 75 -53 128t-129 53zM321 265l-77 -77l18 -20l107 111
l-107 109l-19 -19l78 -77h-174v-27h174z" />
    <glyph glyph-name="arrowup.ss13" horiz-adv-x="513" 
d="M257 72q-85 0 -146 60.5t-61 145.5q0 86 61 146.5t146 60.5t145.5 -61t60.5 -146t-60.5 -145.5t-145.5 -60.5zM257 98q74 0 127.5 53t53.5 127q0 75 -53.5 128.5t-127.5 53.5q-75 0 -128 -53.5t-53 -128.5q0 -74 53 -127t128 -53zM270 343l77 -77l20 18l-110 107
l-110 -107l19 -19l77 78v-174h27v174z" />
    <glyph glyph-name="arrowupleft.ss13" horiz-adv-x="513" 
d="M257 72q-87 0 -147 61t-60 145q0 86 61 146.5t146 60.5t145.5 -61t60.5 -146t-60.5 -145.5t-145.5 -60.5zM257 98q75 0 128 52.5t53 127.5q0 76 -53 129t-128 53q-76 0 -128.5 -53t-52.5 -129q0 -75 52.5 -127.5t128.5 -52.5zM204 315v-110h-27v155h155v-26h-110
l124 -123l-20 -19z" />
    <glyph glyph-name="arrowupright.ss13" horiz-adv-x="513" 
d="M256 72q-85 0 -145.5 60.5t-60.5 145.5t60.5 146t145.5 61q86 0 146.5 -60.5t60.5 -146.5q0 -84 -60 -145t-147 -61zM256 98q76 0 129 52.5t53 127.5q0 76 -53 129t-129 53q-75 0 -127.5 -53t-52.5 -129q0 -75 52.5 -127.5t127.5 -52.5zM168 211l123 123h-110v25h155
v-154h-26v110l-123 -123z" />
    <glyph glyph-name="at.case" horiz-adv-x="920" 
d="M665 -24l11 -28q-117 -68 -265 -68q-184 0 -281 111.5t-71 292.5q26 185 160.5 299.5t320.5 114.5q180 0 272.5 -101t69.5 -267q-20 -134 -83 -197.5t-134 -63.5q-82 0 -86 71q-52 -38 -92 -54.5t-91 -16.5q-169 0 -139 219q15 108 70.5 160t141.5 52q84 0 149 -55l7 46
h59l-44 -314q-11 -70 41 -70t100 56t65 169q22 151 -61.5 241.5t-248.5 90.5q-171 0 -294 -105.5t-148 -276.5q-22 -166 65.5 -266t255.5 -100q133 0 250 60zM584 198l26 190q-59 61 -130 61q-142 0 -165 -163q-13 -92 14.5 -130.5t89.5 -38.5q44 0 81.5 20t83.5 61z" />
    <glyph glyph-name="registered.ss04" horiz-adv-x="742" 
d="M372 620q130 0 221.5 -92t91.5 -223t-91 -222.5t-222 -91.5t-222.5 91.5t-91.5 222.5t91.5 223t222.5 92zM372 17q119 0 203.5 84t84.5 204q0 119 -85 204t-203 85q-120 0 -204.5 -85t-84.5 -204q0 -120 84.5 -204t204.5 -84zM271 482h132q65 0 99.5 -30.5t26.5 -82.5
q-13 -91 -97 -110l83 -129h-54l-79 125h-96l-18 -127h-46zM292 295h104q78 0 87 73q5 36 -17 55.5t-68 19.5h-86z" />
    <glyph glyph-name="ampersand.ss09" horiz-adv-x="596" 
d="M584 267l-8 -59l-66 3q-26 -117 -90 -168.5t-188 -51.5q-108 0 -162 45t-43 127q8 52 47 87t122 71q-43 47 -57 81.5t-8 77.5q9 65 60 102.5t130 37.5q73 0 111.5 -39t29.5 -107q-15 -106 -160 -163q-127 -50 -158 -71q-44 -30 -50 -72q-8 -58 31.5 -88.5t113.5 -30.5
q105 0 153 48t65 165l1 5h126zM192 477q-6 -35 8 -62t55 -70l24 9q119 47 128 117q7 49 -18 75.5t-74 26.5t-83 -26t-40 -70z" />
    <glyph glyph-name="ampersand.ss10" horiz-adv-x="499" 
d="M478 515l-26 -50q-70 22 -137 22q-141 0 -156 -101q-7 -48 27.5 -68.5t116.5 -20.5h73l-7 -51h-83q-89 0 -134.5 -23.5t-53.5 -78.5q-7 -48 30.5 -72.5t120.5 -24.5q84 0 171 35l16 -49q-79 -35 -163 -41l-8 -59h-53l8 58q-105 4 -151 40.5t-35 105.5q14 109 140 136
q-87 30 -74 119q21 139 190 151l10 68h53l-10 -68q71 -3 135 -28z" />
    <glyph glyph-name="copyright.ss11" 
d="M265 244q-79 0 -133.5 54.5t-54.5 133.5q0 78 54.5 133t133.5 55q77 0 132 -55t55 -133t-55 -133t-132 -55zM265 267q68 0 116 48.5t48 116.5t-48.5 116.5t-115.5 48.5q-68 0 -116 -48.5t-48 -116.5t48 -116.5t116 -48.5zM332 383l12 -23q-42 -33 -92 -33
q-44 0 -68.5 27.5t-17.5 73.5q7 50 37 78.5t77 28.5q42 0 78 -26l-16 -24q-31 20 -62 20q-68 0 -79 -77q-4 -33 12 -52t47 -19q36 0 72 26z" />
    <glyph glyph-name="registered.ss12" 
d="M265 244q-79 0 -133.5 54.5t-54.5 133.5q0 78 54.5 133t133.5 55q77 0 132 -55t55 -133t-55 -133t-132 -55zM265 267q68 0 116 48.5t48 116.5t-48.5 116.5t-115.5 48.5q-68 0 -116 -48.5t-48 -116.5t48 -116.5t116 -48.5zM204 536h79q42 0 62.5 -17t15.5 -49
q-8 -51 -54 -57q22 -12 41 -82h-37q-22 73 -43 73h-51l-10 -73h-31zM223 430h58q41 0 47 39q2 20 -10 30t-39 10h-45z" />
    <glyph glyph-name="caron.alt" 
d="M253 677h58l-2 -13q-16 -79 -46 -152h-40z" />
    <glyph glyph-name="acute.case" 
d="M358 815l52 -38l-3 -14q-71 -55 -154 -110l-22 25z" />
    <glyph glyph-name="breve.case" 
d="M387 779h50q-8 -53 -43.5 -84.5t-100.5 -31.5q-61 0 -89.5 32.5t-19.5 83.5h47q-9 -70 65 -70q44 0 64 18.5t27 51.5z" />
    <glyph glyph-name="caron.case" 
d="M452 778l-132 -118h-50l-103 118l30 27l104 -87l123 89z" />
    <glyph glyph-name="circumflex.case" 
d="M411 650l-105 88l-132 -88l-25 28l138 118h51l103 -118z" />
    <glyph glyph-name="dieresis.case" 
d="M218 766q18 0 27.5 -10.5t7.5 -28.5q-3 -17 -15.5 -27t-29.5 -10q-16 0 -26 10.5t-8 27.5q3 18 15.5 28t28.5 10zM401 766q16 0 26 -10.5t8 -28.5q-3 -17 -15.5 -27t-28.5 -10q-18 0 -27.5 10t-6.5 28q2 18 14.5 28t29.5 10z" />
    <glyph glyph-name="dotaccent.case" 
d="M310 772q20 0 31.5 -12t7.5 -33q-3 -20 -17 -31.5t-33 -11.5q-20 0 -31 12t-9 32q3 20 17.5 32t33.5 12z" />
    <glyph glyph-name="grave.case" 
d="M378 675l-23 -25q-70 49 -143 110l-2 14l53 37z" />
    <glyph glyph-name="hungarumlaut.case" 
d="M440 815l42 -26l-4 -15l-138 -113l-20 16zM313 815l41 -26l-3 -15l-138 -113l-21 16z" />
    <glyph glyph-name="macron.case" 
d="M424 757l-6 -55h-234l7 55h233z" />
    <glyph glyph-name="ring.case" 
d="M320 841q41 0 63.5 -26t16.5 -69q-5 -38 -34.5 -62.5t-70.5 -24.5t-63.5 24.5t-17.5 64.5q6 42 35.5 67.5t70.5 25.5zM300 699q24 0 40.5 13.5t19.5 35.5q3 25 -9 39t-37 14q-23 0 -39 -15t-19 -40q-3 -22 8.5 -34.5t35.5 -12.5z" />
    <glyph glyph-name="tilde.case" 
d="M441 775l39 -8q-24 -61 -70 -80t-86 5l-54 30q-29 15 -48.5 7t-38.5 -40l-38 6q24 60 68 77.5t86 -7.5l54 -28q52 -28 88 38z" />
    </font>
</defs>
</svg>
