<?xml version="1.0" standalone="no"?>
<!DOCTYPE svg PUBLIC "-//W3C//DTD SVG 1.1//EN" "http://www.w3.org/Graphics/SVG/1.1/DTD/svg11.dtd" >
<svg>
<metadata>
Created by FontForge 20090622 at Thu Jun 16 15:14:58 2016
 By deploy user
Copyright &#194;&#169; 2013 by Rene Bieder. All rights reserved.
</metadata>
<defs>
<font id="Gentona-Heavy" horiz-adv-x="500" >
  <font-face 
    font-family="Gentona Heavy"
    font-weight="900"
    font-stretch="normal"
    units-per-em="1000"
    panose-1="0 0 10 0 0 0 0 0 0 0"
    ascent="800"
    descent="-200"
    x-height="490"
    cap-height="610"
    bbox="-120 -250 1338 898"
    underline-thickness="50"
    underline-position="-50"
    unicode-range="U+0020-U+FB02"
  />
<missing-glyph horiz-adv-x="765" 
d="M665 0h-565v610h565v-610zM140 570v-530h485v530h-485zM350 236l-5 66q109 12 109 76q0 26 -18 41.5t-48 15.5q-45 0 -106 -22l-11 29q65 26 117 26q46 0 75 -24.5t29 -65.5t-30.5 -67t-78.5 -33v-42h-33zM366 179q22 0 22 -22q0 -24 -22 -24q-23 0 -23 24q0 22 23 22z
" />
    <glyph glyph-name="fi" unicode="fi" horiz-adv-x="676" 
d="M534 530q-48 0 -81 27t-33 76t33 76t81 27t81 -27t33 -76t-33 -76t-81 -27zM631 0h-202v322h-157v-322h-202v322h-65v168h65v6q0 103 51.5 149t162.5 46q44 0 112 -16l-16 -136h-56q-52 0 -52 -44v-5h359v-490z" />
    <glyph glyph-name="fl" unicode="fl" horiz-adv-x="666" 
d="M631 0h-202v539h-105q-52 0 -52 -43v-6h109v-168h-109v-322h-202v322h-65v168h65v8q0 101 52 147t162 46q49 0 145 -24v13h202v-680z" />
    <glyph glyph-name="f_f" unicode="ff" horiz-adv-x="780" 
d="M766 539h-58q-52 0 -52 -46v-3h109v-168h-109v-322h-202v322h-182v-322h-202v322h-65v168h65v5q0 103 52 149.5t162 46.5q49 0 112 -13l-14 -139h-58q-52 0 -52 -46v-3h182v5q0 103 52 149.5t162 46.5q49 0 112 -13z" />
    <glyph glyph-name="f_f_i" unicode="ffi" horiz-adv-x="1043" 
d="M897 530q-48 0 -81 27t-33 76t33 76t81 27t81 -27t33 -76t-33 -76t-81 -27zM636 490h359v-490h-202v322h-157v-322h-202v322h-162v-322h-202v322h-65v168h65v5q0 103 52 149.5t162 46.5q49 0 112 -13l-14 -139h-58q-52 0 -52 -46v-3h162v6q0 103 51.5 149t162.5 46
q34 0 97 -13l-14 -139h-43q-52 0 -52 -44v-5z" />
    <glyph glyph-name="f_f_l" unicode="ffl" horiz-adv-x="1020" 
d="M985 680v-680h-202v539h-105q-52 0 -52 -43v-6h109v-168h-109v-322h-202v322h-152v-322h-202v322h-65v168h65v5q0 103 52 149.5t162 46.5q49 0 112 -13l-14 -139h-58q-52 0 -52 -46v-3h152v6q0 103 51.5 149t162.5 46q49 0 145 -24v13h202z" />
    <glyph glyph-name=".notdef" horiz-adv-x="765" 
d="M665 0h-565v610h565v-610zM140 570v-530h485v530h-485zM350 236l-5 66q109 12 109 76q0 26 -18 41.5t-48 15.5q-45 0 -106 -22l-11 29q65 26 117 26q46 0 75 -24.5t29 -65.5t-30.5 -67t-78.5 -33v-42h-33zM366 179q22 0 22 -22q0 -24 -22 -24q-23 0 -23 24q0 22 23 22z
" />
    <glyph glyph-name=".null" horiz-adv-x="0" 
 />
    <glyph glyph-name="nonmarkingreturn" horiz-adv-x="333" 
 />
    <glyph glyph-name="space" unicode=" " horiz-adv-x="180" 
 />
    <glyph glyph-name="exclam" unicode="!" horiz-adv-x="290" 
d="M65 230l-30 380h220l-30 -380h-160zM145 179q41 0 67.5 -27t26.5 -67t-26.5 -67t-67.5 -27t-67.5 27t-26.5 67t26.5 67t67.5 27z" />
    <glyph glyph-name="quotedbl" unicode="&#x22;" horiz-adv-x="475" 
d="M256 640l-45 -256h-138v256h183zM445 640l-45 -256h-138v256h183z" />
    <glyph glyph-name="numbersign" unicode="#" horiz-adv-x="720" 
d="M557 235h91l-28 -150h-89l-15 -85h-160l15 85h-90l-15 -85h-160l15 85h-91l28 150h89l14 80h-89l28 150h87l15 85h160l-15 -85h90l15 85h160l-15 -85h93l-28 -150h-91zM321 315l-14 -80h90l14 80h-90z" />
    <glyph glyph-name="dollar" unicode="$" horiz-adv-x="556" 
d="M513 513l-45 -142q-143 43 -196 43q-31 0 -31 -19q0 -10 12.5 -15.5t63.5 -19.5q31 -8 51 -14q83 -23 120.5 -64t37.5 -112q0 -72 -48 -118.5t-137 -56.5v-54h-131v58q-98 17 -190 64l63 147q140 -65 207 -65q38 0 38 19q0 9 -15 15.5t-65 21.5l-46 14q-88 26 -123.5 70
t-35.5 110q0 67 43.5 111t123.5 54v54h131v-58q79 -10 172 -43z" />
    <glyph glyph-name="percent" unicode="%" horiz-adv-x="898" 
d="M202 620q90 0 133.5 -47.5t43.5 -145.5q0 -97 -43.5 -143.5t-133.5 -46.5t-133.5 46.5t-43.5 143.5q0 98 43.5 145.5t133.5 47.5zM674 610l-336 -610h-112l336 610h112zM202 355q28 0 36.5 16t8.5 56q0 42 -8.5 58.5t-36.5 16.5t-36.5 -16.5t-8.5 -58.5q0 -40 8.5 -56
t36.5 -16zM696 374q90 0 133.5 -47.5t43.5 -145.5q0 -97 -43.5 -143.5t-133.5 -46.5t-133.5 46.5t-43.5 143.5q0 98 43.5 145.5t133.5 47.5zM696 109q28 0 36.5 16t8.5 56q0 42 -8.5 58.5t-36.5 16.5t-36.5 -16.5t-8.5 -58.5q0 -40 8.5 -56t36.5 -16z" />
    <glyph glyph-name="ampersand" unicode="&#x26;" horiz-adv-x="685" 
d="M582 1l-82 61q-40 -39 -83.5 -55t-103.5 -16q-283 0 -283 189q0 47 26 82.5t88 68.5q-49 51 -49 126q0 78 58.5 120.5t166.5 42.5q86 0 138.5 -42t52.5 -111q0 -99 -109 -138l67 -45l38 58l132 -82l-40 -67l76 -52zM320 490q-17 0 -30 -11t-13 -29q0 -24 27 -50
q54 23 54 53q0 37 -38 37zM368 160l-120 89q-17 -25 -17 -43q0 -30 25 -44.5t57 -14.5t55 13z" />
    <glyph glyph-name="quotesingle" unicode="'" horiz-adv-x="286" 
d="M256 640l-45 -256h-138v256h183z" />
    <glyph glyph-name="parenleft" unicode="(" horiz-adv-x="360" 
d="M214 662l126 -67q-107 -189 -107 -355t107 -355l-126 -67q-164 187 -164 422t164 422z" />
    <glyph glyph-name="parenright" unicode=")" horiz-adv-x="350" 
d="M10 595l126 67q164 -187 164 -422t-164 -422l-126 67q107 189 107 355t-107 355z" />
    <glyph glyph-name="asterisk" unicode="*" horiz-adv-x="468" 
d="M399 287l-74 -63l-91 90l-93 -90l-74 63l64 100l-101 47l30 92l109 -24l11 108h106l11 -109l111 25l30 -92l-103 -48z" />
    <glyph glyph-name="plus" unicode="+" horiz-adv-x="523" 
d="M334 173v-138h-145v138h-139v145h139v139h145v-139h139v-145h-139z" />
    <glyph glyph-name="comma" unicode="," horiz-adv-x="298" 
d="M81 -140l-46 59q58 40 77 77q-35 11 -56 40.5t-21 68.5q0 49 32 81.5t82 32.5t82 -35.5t32 -89.5q0 -61 -50.5 -126.5t-131.5 -107.5z" />
    <glyph glyph-name="hyphen" unicode="-" horiz-adv-x="418" 
d="M366 363v-180h-314v180h314z" />
    <glyph glyph-name="period" unicode="." horiz-adv-x="298" 
d="M35 105q0 49 32 81.5t82 32.5t82 -32.5t32 -81.5t-32 -81.5t-82 -32.5t-82 32.5t-32 81.5z" />
    <glyph glyph-name="slash" unicode="/" horiz-adv-x="478" 
d="M443 650l-275 -860h-168l270 860h173z" />
    <glyph glyph-name="zero" unicode="0" horiz-adv-x="632" 
d="M316 620q291 0 291 -317q0 -312 -291 -312t-291 312q0 317 291 317zM316 179q48 0 63 28t15 96q0 71 -15 100t-63 29t-63 -29t-15 -100q0 -68 15 -96t63 -28z" />
    <glyph glyph-name="one" unicode="1" horiz-adv-x="519" 
d="M499 0h-484v175h152v198q-64 -12 -112 -17l-40 141q86 34 192 113h170v-435h122v-175z" />
    <glyph glyph-name="two" unicode="2" horiz-adv-x="549" 
d="M519 0h-494v147l52 41l49 38l43 33.5t39 32l31.5 27.5t27 25t18.5 21t12.5 20t3.5 16q0 22 -15 33.5t-37 11.5q-58 0 -189 -51l-55 146q100 43 160.5 61t122.5 18q104 0 167 -59t63 -156q0 -68 -51 -120.5t-155 -115.5q80 6 116 6h91v-175z" />
    <glyph glyph-name="three" unicode="3" horiz-adv-x="577" 
d="M75 422l-42 137q148 61 264 61q100 0 165 -48.5t65 -126.5q0 -48 -22 -83.5t-58 -51.5q49 -22 72 -51t23 -73q0 -93 -67.5 -144t-184.5 -51q-154 0 -280 68l56 141q119 -50 214 -50q63 0 63 40q0 39 -110 39h-82v152h82q59 0 80.5 6.5t21.5 26.5q0 44 -67 44
q-63 0 -193 -36z" />
    <glyph glyph-name="four" unicode="4" horiz-adv-x="633" 
d="M530 94v-94h-200v94h-310l-10 141l320 375h200v-355h83v-161h-83zM330 255v146q-21 -28 -45 -54l-30 -33q-22 -26 -60 -59h135z" />
    <glyph glyph-name="five" unicode="5" horiz-adv-x="582" 
d="M239 438l-7 -74q61 37 131 37q91 0 140 -50t49 -141q0 -104 -72.5 -161.5t-179.5 -57.5q-164 0 -290 68l56 151q119 -50 204 -50q33 0 58 17t25 43q0 22 -16 35.5t-44 13.5q-38 0 -72 -40l-168 24l20 357h453v-172h-287z" />
    <glyph glyph-name="six" unicode="6" horiz-adv-x="592" 
d="M553 576l-49 -145q-96 21 -148 21q-56 -1 -85.5 -27t-38.5 -80q67 46 151 46q85 0 137 -49.5t52 -131.5q0 -100 -67 -159.5t-189 -59.5q-139 0 -215 76t-76 206q0 163 87.5 255t233.5 92q99 0 207 -44zM316 156q28 0 44.5 17.5t16.5 46.5q0 22 -18 35.5t-46 13.5
q-47 0 -81 -30q14 -83 84 -83z" />
    <glyph glyph-name="seven" unicode="7" horiz-adv-x="523" 
d="M508 610v-156q-125 -200 -196 -454h-245q103 268 216 434h-268v176h493z" />
    <glyph glyph-name="eight" unicode="8" horiz-adv-x="579" 
d="M445 338q64 -31 94 -66.5t30 -91.5q0 -90 -71.5 -139.5t-194.5 -49.5q-157 0 -225 47t-68 142q0 87 105 143q-80 49 -80 124q0 85 68.5 129t196.5 44q119 0 180 -42t61 -121q0 -74 -96 -119zM290 490q-24 0 -38.5 -11t-14.5 -29q0 -17 15 -28t58 -28q41 24 41 59
q0 17 -16.5 27t-44.5 10zM283 147q28 0 45 12t17 31q0 16 -19 28.5t-80 40.5q-35 -27 -35 -63q0 -49 72 -49z" />
    <glyph glyph-name="nine" unicode="9" horiz-adv-x="592" 
d="M39 35l49 145q96 -21 148 -21q53 1 79.5 25t34.5 75q-63 -39 -141 -39q-85 0 -137 49.5t-52 131.5q0 100 67 159.5t189 59.5q138 0 209.5 -75.5t71.5 -206.5q0 -174 -79.5 -260.5t-231.5 -86.5q-99 0 -207 44zM279 342q38 0 73 23q-9 90 -76 90q-28 0 -44.5 -17.5
t-16.5 -46.5q0 -22 18 -35.5t46 -13.5z" />
    <glyph glyph-name="colon" unicode=":" horiz-adv-x="298" 
d="M35 386q0 49 32 81.5t82 32.5t82 -32.5t32 -81.5t-32 -81.5t-82 -32.5t-82 32.5t-32 81.5zM35 105q0 49 32 81.5t82 32.5t82 -32.5t32 -81.5t-32 -81.5t-82 -32.5t-82 32.5t-32 81.5z" />
    <glyph glyph-name="semicolon" unicode=";" horiz-adv-x="298" 
d="M35 386q0 49 32 81.5t82 32.5t82 -32.5t32 -81.5t-32 -81.5t-82 -32.5t-82 32.5t-32 81.5zM81 -140l-46 59q58 40 77 77q-35 11 -56 40.5t-21 68.5q0 49 32 81.5t82 32.5t82 -35.5t32 -89.5q0 -61 -50.5 -126.5t-131.5 -107.5z" />
    <glyph glyph-name="less" unicode="&#x3c;" horiz-adv-x="425" 
d="M243 262l36 -24l106 -87l-90 -108l-275 220l274 220l91 -111l-107 -86z" />
    <glyph glyph-name="equal" unicode="=" horiz-adv-x="513" 
d="M50 273v125h413v-125h-413zM50 93v125h413v-125h-413z" />
    <glyph glyph-name="greater" unicode="&#x3e;" horiz-adv-x="425" 
d="M40 372l91 111l274 -220l-275 -220l-90 108l106 87l36 24l-35 24z" />
    <glyph glyph-name="question" unicode="?" horiz-adv-x="558" 
d="M75 395l-55 146q100 43 160.5 61t122.5 18q102 0 166 -56t64 -139q0 -72 -53.5 -121t-151.5 -70l2 -33h-164l-30 160h30q61 0 95 5.5t44.5 13.5t10.5 21q0 22 -15 33.5t-37 11.5q-58 0 -189 -51zM250 179q41 0 67.5 -27t26.5 -67t-26.5 -67t-67.5 -27t-67.5 27t-26.5 67
t26.5 67t67.5 27z" />
    <glyph glyph-name="at" unicode="@" horiz-adv-x="896" 
d="M661 422v-266q0 -45 5.5 -58t18.5 -13q9 0 17 1.5t21 11t22.5 25t17 47.5t8.5 75q0 137 -82.5 218t-225.5 81q-152 0 -245 -93.5t-93 -245.5q0 -145 84 -228.5t224 -83.5q116 0 250 42l25 -67q-52 -26 -127 -42t-148 -16q-177 0 -285 108.5t-108 286.5q0 185 119.5 300
t303.5 115q176 0 284.5 -104.5t108.5 -270.5q-1 -50 -10.5 -91t-23.5 -67t-35 -45t-39 -28.5t-42 -15t-38.5 -6.5t-31.5 -1q-47 0 -78.5 10.5t-50.5 46.5q-40 -35 -69.5 -46t-75.5 -11q-153 0 -153 216q0 116 37 169.5t116 53.5q67 0 124 -56v48h175zM486 157v92
q-25 34 -58 34q-26 0 -36.5 -16t-10.5 -60q0 -46 11 -63t38 -17q38 0 56 30z" />
    <glyph glyph-name="A" unicode="A" horiz-adv-x="718" 
d="M251 84l-26 -84h-220l210 610h288l210 -610h-220l-26 84h-216zM414 255l-36 117q-13 40 -19 72q-6 -32 -19 -72l-36 -117h110z" />
    <glyph glyph-name="B" unicode="B" horiz-adv-x="616" 
d="M40 610h276q115 0 178 -47t63 -133q0 -81 -78 -118q60 -17 88.5 -51.5t28.5 -93.5q0 -80 -70 -123.5t-200 -43.5h-286v610zM250 366h61q47 0 47 46q0 22 -12 31t-40 9h-56v-86zM250 160h66q34 0 48 11t14 37q0 46 -67 46h-61v-94z" />
    <glyph glyph-name="C" unicode="C" horiz-adv-x="606" 
d="M535 215l66 -156q-140 -68 -265 -68q-144 0 -227.5 82t-83.5 230q0 151 85.5 234t235.5 83q119 0 235 -56l-62 -158q-112 26 -163 26q-118 0 -118 -129q0 -62 28.5 -93t79.5 -31q74 0 189 36z" />
    <glyph glyph-name="D" unicode="D" horiz-adv-x="657" 
d="M40 610h260q159 0 245.5 -79.5t86.5 -225.5t-86.5 -225.5t-245.5 -79.5h-260v610zM250 174h50q57 0 88 34t31 97t-31 97t-88 34h-50v-262z" />
    <glyph glyph-name="E" unicode="E" horiz-adv-x="557" 
d="M524 0h-484v610h476v-173h-269v-56h227v-151h-227v-57h277v-173z" />
    <glyph glyph-name="F" unicode="F" horiz-adv-x="529" 
d="M247 341h222v-181h-222v-160h-207v610h469v-190h-262v-79z" />
    <glyph glyph-name="G" unicode="G" horiz-adv-x="676" 
d="M641 360v-284q-157 -85 -305 -85q-144 0 -227.5 82t-83.5 230q0 152 81 234.5t230 82.5q146 0 279 -55l-51 -156q-137 28 -208 28q-118 0 -118 -134q0 -63 29 -98.5t79 -35.5t114 12v38h-118v141h299z" />
    <glyph glyph-name="H" unicode="H" horiz-adv-x="665" 
d="M625 0h-210v209h-165v-209h-210v610h210v-210h165v210h210v-610z" />
    <glyph glyph-name="I" unicode="I" horiz-adv-x="290" 
d="M250 0h-210v610h210v-610z" />
    <glyph glyph-name="J" unicode="J" horiz-adv-x="489" 
d="M439 610v-360q0 -140 -50.5 -199.5t-168.5 -59.5q-100 0 -215 55l47 141q67 -18 118 -18q59 0 59 81v360h210z" />
    <glyph glyph-name="K" unicode="K" horiz-adv-x="665" 
d="M319 174l-69 -78v-96h-210v610h210v-217l169 217h235v-14l-191 -240l197 -341v-15h-240z" />
    <glyph glyph-name="L" unicode="L" horiz-adv-x="529" 
d="M504 0h-464v610h210v-419h254v-191z" />
    <glyph glyph-name="M" unicode="M" horiz-adv-x="836" 
d="M588 0l-3 250v32l-107 -282h-120l-106 282v-26l-4 -256h-208l26 610h232l104 -255q7 -16 16 -51q9 35 16 51l104 255h232l26 -610h-208z" />
    <glyph glyph-name="N" unicode="N" horiz-adv-x="680" 
d="M640 0h-190l-200 275v-275h-210v610h190l200 -271v271h210v-610z" />
    <glyph glyph-name="O" unicode="O" horiz-adv-x="692" 
d="M346 620q150 0 235.5 -83t85.5 -234q0 -149 -85.5 -230.5t-235.5 -81.5t-235.5 81.5t-85.5 230.5q0 151 85.5 234t235.5 83zM346 179q51 0 79.5 31t28.5 93q0 129 -108 129t-108 -129q0 -62 28.5 -93t79.5 -31z" />
    <glyph glyph-name="P" unicode="P" horiz-adv-x="602" 
d="M40 610h266q135 0 208 -65t73 -186q0 -115 -73.5 -177t-208.5 -62h-55v-120h-210v610zM250 286h55q38 0 58 19t20 54t-20 54t-58 19h-55v-146z" />
    <glyph glyph-name="Q" unicode="Q" horiz-adv-x="672" 
d="M647 303q0 -150 -81 -231t-230 -81t-230 81t-81 231q0 152 81 234.5t230 82.5t230 -82.5t81 -234.5zM238 303q0 -124 98 -124t98 124q0 129 -98 129t-98 -129zM251 -151l30 121q98 -14 153.5 -17t159.5 -3v-161q-153 0 -343 60z" />
    <glyph glyph-name="R" unicode="R" horiz-adv-x="617" 
d="M40 610h271q135 0 208 -61t73 -173q0 -129 -92 -190l112 -171v-15h-222l-83 145h-57v-145h-210v610zM250 306h68q67 0 67 70q0 62 -72 62h-63v-132z" />
    <glyph glyph-name="S" unicode="S" horiz-adv-x="598" 
d="M567 567l-44 -157q-127 44 -225 44q-24 0 -24 -18q0 -6 4 -10.5t15.5 -8.5t24 -7t37 -10l47.5 -14q82 -27 124 -65.5t42 -120.5q0 -100 -66.5 -154.5t-183.5 -54.5q-153 0 -298 78l68 162q63 -33 124.5 -52t96.5 -19q31 0 31 19q0 6 -4 10.5t-15.5 9t-24 8l-38.5 11
t-49 15.5q-46 15 -73.5 28.5t-50.5 34t-33 50t-10 71.5q0 97 61 150t174 53q149 0 290 -53z" />
    <glyph glyph-name="T" unicode="T" horiz-adv-x="596" 
d="M576 419h-173v-419h-210v419h-173v191h556v-191z" />
    <glyph glyph-name="U" unicode="U" horiz-adv-x="662" 
d="M622 610v-311q0 -159 -71 -233.5t-220 -74.5t-220 74.5t-71 233.5v311h210v-311q0 -62 19.5 -88t61.5 -26t61.5 26t19.5 88v311h210z" />
    <glyph glyph-name="V" unicode="V" horiz-adv-x="692" 
d="M467 0h-242l-220 610h233l89 -310q7 -22 19 -72q12 50 19 72l99 310h223z" />
    <glyph glyph-name="W" unicode="W" horiz-adv-x="954" 
d="M789 0h-252l-41 192q-11 55 -19 107q-8 -52 -19 -107l-41 -192h-252l-150 610h223l59 -310q4 -20 10 -64l9 64l48 310h226l48 -310l9 -64q6 44 10 64l59 310h223z" />
    <glyph glyph-name="X" unicode="X" horiz-adv-x="689" 
d="M684 0h-228l-92 146l-19 32l-20 -32l-92 -146h-228l179 305l-179 305h233l87 -140l19 -31l20 31l87 140h233l-179 -305z" />
    <glyph glyph-name="Y" unicode="Y" horiz-adv-x="676" 
d="M443 179v-179h-210v179l-228 431h220l67 -130q23 -42 46 -99q23 57 46 99l67 130h220z" />
    <glyph glyph-name="Z" unicode="Z" horiz-adv-x="617" 
d="M35 0v153l263 278q-98 -4 -145 -4h-93v183h521v-163l-236 -269q80 5 138 5h102v-183h-550z" />
    <glyph glyph-name="bracketleft" unicode="[" horiz-adv-x="409" 
d="M394 503h-128v-527h128v-156h-314v840h314v-157z" />
    <glyph glyph-name="backslash" unicode="\" horiz-adv-x="478" 
d="M478 -210h-168l-275 860h173z" />
    <glyph glyph-name="bracketright" unicode="]" horiz-adv-x="409" 
d="M329 660v-840h-314v156h128v527h-128v157h314z" />
    <glyph glyph-name="asciicircum" unicode="^" horiz-adv-x="524" 
d="M330 332l-37 70q-23 46 -31 68q-8 -22 -31 -68l-37 -70h-164l170 308h124l170 -308h-164z" />
    <glyph glyph-name="underscore" unicode="_" horiz-adv-x="505" 
d="M52 -171v144h401v-144h-401z" />
    <glyph glyph-name="grave" unicode="`" 
d="M374 571l-49 -52q-122 38 -215 100v40l128 89z" />
    <glyph glyph-name="a" unicode="a" horiz-adv-x="535" 
d="M93 328l-30 132q152 40 223 40q112 0 163 -47.5t51 -153.5v-299h-202v56q-53 -65 -124 -65q-80 0 -119.5 33.5t-39.5 121.5q0 153 209 153h74q0 24 -11 36.5t-41 12.5q-56 0 -153 -20zM298 214h-46q-22 0 -35 -11.5t-13 -30.5q0 -16 11.5 -25.5t28.5 -9.5q24 0 54 16v61z
" />
    <glyph glyph-name="b" unicode="b" horiz-adv-x="579" 
d="M237 640v-206q66 65 144 65q91 0 134.5 -60t43.5 -188q0 -130 -53 -195t-135 -65q-51 0 -77.5 14.5t-56.5 50.5v-56h-202v640h202zM237 290v-97q22 -34 65 -34q57 0 57 92q0 78 -55 78q-37 0 -67 -39z" />
    <glyph glyph-name="c" unicode="c" horiz-adv-x="485" 
d="M422 184l61 -122q-54 -38 -105 -54.5t-122 -16.5q-104 0 -172.5 67.5t-68.5 184.5q0 121 65.5 189t175.5 68q113 0 211 -54l-54 -129q-78 25 -127 25q-33 0 -53 -27.5t-20 -71.5q0 -43 20 -69t53 -26q57 0 136 36z" />
    <glyph glyph-name="d" unicode="d" horiz-adv-x="579" 
d="M544 0h-202v56q-30 -36 -56.5 -50.5t-77.5 -14.5q-82 0 -135 65t-53 195q0 126 46.5 187t131.5 61q44 0 77 -11.5t67 -44.5v197h202v-640zM342 193v97q-30 39 -67 39q-55 0 -55 -78q0 -92 57 -92q43 0 65 34z" />
    <glyph glyph-name="e" unicode="e" horiz-adv-x="533" 
d="M457 184l56 -115q-118 -78 -237 -78q-121 0 -188.5 65.5t-67.5 185.5q0 123 66.5 190.5t189.5 67.5q109 0 172 -62.5t63 -172.5q0 -31 -5 -70h-289q4 -28 20 -39t49 -11q46 0 81 9t90 30zM216 293h118q0 70 -58 70q-48 0 -60 -70z" />
    <glyph glyph-name="f" unicode="f" horiz-adv-x="396" 
d="M70 490v5q0 103 52 149.5t162 46.5q49 0 112 -13l-14 -139h-58q-52 0 -52 -46v-3h109v-168h-109v-322h-202v322h-65v168h65z" />
    <glyph glyph-name="g" unicode="g" horiz-adv-x="579" 
d="M544 491v-399q0 -146 -64 -211t-201 -65q-121 0 -217 35l26 130q84 -14 161 -14q44 0 66 22t26 77q-30 -26 -61 -35.5t-82 -9.5q-86 0 -132 61.5t-46 178.5q0 121 44 179.5t134 58.5q70 0 144 -57v49h202zM342 204v94q-37 31 -67 31t-42.5 -15.5t-12.5 -52.5
q0 -46 13 -64t44 -18q36 0 65 25z" />
    <glyph glyph-name="h" unicode="h" horiz-adv-x="573" 
d="M237 640v-216q92 75 164 75q75 0 107 -42.5t32 -142.5v-314h-202v254q0 32 -7 42.5t-28 10.5q-31 0 -66 -35v-272h-202v640h202z" />
    <glyph glyph-name="i" unicode="i" horiz-adv-x="292" 
d="M32 633q0 49 33 76t81 27t81 -27t33 -76t-33 -76t-81 -27t-81 27t-33 76zM247 0h-202v490h202v-490z" />
    <glyph glyph-name="j" unicode="j" horiz-adv-x="292" 
d="M144 530q-48 0 -81 27t-33 76t33 76t81 27t81 -27t33 -76t-33 -76t-81 -27zM247 490v-413q0 -107 -51.5 -169t-180.5 -89l-39 137q42 23 55.5 48.5t13.5 72.5v413h202z" />
    <glyph glyph-name="k" unicode="k" horiz-adv-x="580" 
d="M237 640v-285l111 135h221v-15l-170 -200l174 -260v-15h-231l-75 119l-30 -35v-84h-202v640h202z" />
    <glyph glyph-name="l" unicode="l" horiz-adv-x="272" 
d="M237 0h-202v640h202v-640z" />
    <glyph glyph-name="m" unicode="m" horiz-adv-x="846" 
d="M237 490v-66q42 41 76 58t73 17q101 0 127 -84q51 48 87 66t74 18q75 0 107 -42.5t32 -142.5v-314h-202v254q0 53 -32 53q-23 0 -54 -32v-275h-202v254q0 53 -32 53q-24 0 -54 -30v-277h-202v490h202z" />
    <glyph glyph-name="n" unicode="n" horiz-adv-x="573" 
d="M237 490v-66q92 75 164 75q75 0 107 -42.5t32 -142.5v-314h-202v254q0 32 -7 42.5t-28 10.5q-31 0 -66 -35v-272h-202v490h202z" />
    <glyph glyph-name="o" unicode="o" horiz-adv-x="562" 
d="M281 500q123 0 192 -67t69 -190q0 -120 -68.5 -186t-192.5 -66t-192.5 66t-68.5 186q0 123 69 190t192 67zM281 148q63 0 63 95q0 99 -63 99t-63 -99q0 -95 63 -95z" />
    <glyph glyph-name="p" unicode="p" horiz-adv-x="579" 
d="M237 491v-57q66 65 144 65q91 0 134.5 -60t43.5 -188q0 -130 -53 -195t-135 -65q-51 0 -77.5 14.5t-56.5 50.5v-205h-202v640h202zM237 290v-97q22 -34 65 -34q57 0 57 92q0 78 -55 78q-37 0 -67 -39z" />
    <glyph glyph-name="q" unicode="q" horiz-adv-x="579" 
d="M544 -149h-202v205q-30 -36 -56.5 -50.5t-77.5 -14.5q-82 0 -135 65t-53 195q0 128 43.5 188t134.5 60q78 0 144 -65v57h202v-640zM342 193v97q-30 39 -67 39q-55 0 -55 -78q0 -92 57 -92q43 0 65 34z" />
    <glyph glyph-name="r" unicode="r" horiz-adv-x="427" 
d="M237 490v-96q28 57 57 81t68 24q33 0 60 -3l-13 -208q-24 2 -57 2q-49 0 -76 -15t-39 -60v-215h-202v490h202z" />
    <glyph glyph-name="s" unicode="s" horiz-adv-x="485" 
d="M467 466l-39 -134q-115 28 -159 28q-31 0 -31 -11q0 -8 5.5 -11t33.5 -11q35 -9 63 -18q125 -38 125 -146q0 -82 -57 -127t-144 -45q-43 0 -119 18t-137 47l49 141q117 -62 178 -62q25 0 25 10q0 9 -17 17t-73 24q-66 21 -96.5 59t-30.5 102q0 73 49 113t140 40
q73 0 120 -7t115 -27z" />
    <glyph glyph-name="t" unicode="t" horiz-adv-x="414" 
d="M384 153l20 -122q-24 -17 -70 -28.5t-90 -11.5q-92 0 -133 46.5t-41 154.5v130h-65v168h65v100h202v-100h109v-168h-109v-120q0 -24 11 -36.5t41 -12.5h60z" />
    <glyph glyph-name="u" unicode="u" horiz-adv-x="578" 
d="M540 0h-202v56q-5 -4 -20 -14t-19 -12.5l-15.5 -10t-15.5 -9t-13.5 -6.5t-15 -6t-13.5 -3.5t-15.5 -3t-16.5 -0.5q-159 0 -159 185v314h202v-259q0 -32 7 -42.5t28 -10.5q31 0 66 35v277h202v-490z" />
    <glyph glyph-name="v" unicode="v" horiz-adv-x="591" 
d="M408 0h-225l-178 490h211l60 -201l11.5 -39t8.5 -30q11 43 19 69l60 201h211z" />
    <glyph glyph-name="w" unicode="w" horiz-adv-x="799" 
d="M673 0h-221l-52 209l-53 -209h-220l-123 490h203l49 -246q1 -6 2.5 -18t2.5 -18l7 36l61 246h141l61 -246q1 -7 3.5 -20l3.5 -18q2 12 6 38l48 246h203z" />
    <glyph glyph-name="x" unicode="x" horiz-adv-x="575" 
d="M221 490l60 -102q4 -8 7 -12l6 12l60 102h216l-153 -245l153 -245h-211l-65 102l-6 12l-7 -12l-65 -102h-211l153 245l-153 245h216z" />
    <glyph glyph-name="y" unicode="y" horiz-adv-x="584" 
d="M368 490h216q-84 -271 -143 -393q-94 -195 -328 -268l-66 153q82 33 121 69l-168 439h211l60 -175l21 -72q39 89 76 247z" />
    <glyph glyph-name="z" unicode="z" horiz-adv-x="544" 
d="M509 0h-474v128l196 207q-74 -2 -105 -2h-81v157h451v-123l-184 -213q72 3 118 3h79v-157z" />
    <glyph glyph-name="braceleft" unicode="{" horiz-adv-x="419" 
d="M311 70v-29q0 -48 18 -64t85 -23l-10 -144q-156 0 -221 51t-65 180v29q0 48 -21 69t-82 28v146q61 7 82 28t21 69v29q0 129 65 180t221 51l10 -144q-67 -7 -85 -23t-18 -64v-29q0 -79 -30.5 -118t-93.5 -52q63 -13 93.5 -52t30.5 -118z" />
    <glyph glyph-name="bar" unicode="|" horiz-adv-x="369" 
d="M100 -200v840h169v-840h-169z" />
    <glyph glyph-name="braceright" unicode="}" horiz-adv-x="419" 
d="M108 41v29q0 79 30.5 118t93.5 52q-63 13 -93.5 52t-30.5 118v29q0 48 -18 64t-85 23l10 144q156 0 221 -51t65 -180v-29q0 -48 21 -69t82 -28v-146q-61 -7 -82 -28t-21 -69v-29q0 -129 -65 -180t-221 -51l-10 144q67 7 85 23t18 64z" />
    <glyph glyph-name="asciitilde" unicode="~" horiz-adv-x="550" 
d="M427 383l73 -53q-34 -61 -68.5 -90t-69.5 -31t-77 12l-66 25q-23 13 -45.5 5.5t-51.5 -45.5l-72 52q34 61 67.5 90t68.5 30.5t77 -12.5l67 -25q22 -11 45 -3.5t52 45.5z" />
    <glyph glyph-name="exclamdown" unicode="&#xa1;" horiz-adv-x="290" 
d="M145 312q-41 0 -67.5 27t-26.5 67t26.5 67t67.5 27t67.5 -27t26.5 -67t-26.5 -67t-67.5 -27zM255 -119h-220l30 380h160z" />
    <glyph glyph-name="cent" unicode="&#xa2;" horiz-adv-x="518" 
d="M450 188l63 -125q-81 -56 -160 -67v-50h-131v51q-88 18 -142.5 88.5t-54.5 190.5q0 111 53 186t144 95v53h131v-53q63 -11 143 -49l-55 -132q-78 26 -129 26q-85 0 -85 -126q0 -75 21.5 -100t63.5 -25q59 0 138 37z" />
    <glyph glyph-name="sterling" unicode="&#xa3;" horiz-adv-x="599" 
d="M298 168h236v-168h-493v151l54 11l8 74h-63v80h73q19 128 81 189.5t170 61.5q117 0 215 -55l-55 -132q-78 26 -129 26q-33 0 -52 -20t-28 -70h139v-80h-149z" />
    <glyph glyph-name="yen" unicode="&#xa5;" horiz-adv-x="613" 
d="M479 296h85v-50h-111l-20 -40h131v-50h-153v-156h-210v156h-151v50h129l-20 40h-109v50h84l-129 256h214l50 -117l37 -90l37 90l50 117h215z" />
    <glyph glyph-name="brokenbar" unicode="&#xa6;" horiz-adv-x="369" 
d="M100 293v347h169v-347h-169zM100 -200v347h169v-347h-169z" />
    <glyph glyph-name="section" unicode="&#xa7;" horiz-adv-x="619" 
d="M521 574l-51 -146q-106 50 -170 50q-30 0 -30 -13q0 -10 12 -15.5t56 -17.5l53 -15q107 -31 145 -64.5t38 -86.5q0 -40 -22 -63.5t-64 -42.5q41 -40 41 -109q0 -75 -54.5 -122.5t-153.5 -47.5q-128 0 -262 68l52 148q116 -65 198 -65q30 0 30 14q0 11 -23 19q-4 1 -98 28
q-107 31 -145 64.5t-38 86.5q0 41 22 64.5t64 41.5q-41 41 -41 109q0 73 52.5 117t147.5 44q119 0 241 -46zM376 219l9 -3q8 12 8 20q0 9 -17.5 16t-65.5 18.5t-77 20.5l-9 3q-8 -12 -8 -19q0 -9 17.5 -16t66 -19.5t76.5 -20.5z" />
    <glyph glyph-name="dieresis" unicode="&#xa8;" 
d="M140 716q41 0 68 -24t27 -67q0 -42 -27 -66t-68 -24q-38 0 -66.5 24.5t-28.5 65.5q0 42 28.5 66.5t66.5 24.5zM360 716q38 0 66.5 -24.5t28.5 -66.5q0 -41 -28.5 -65.5t-66.5 -24.5q-41 0 -68 24t-27 66q0 43 27 67t68 24z" />
    <glyph glyph-name="copyright" unicode="&#xa9;" horiz-adv-x="727" 
d="M364 -9q-131 0 -222.5 91.5t-91.5 222.5t91.5 223t222.5 92q130 0 221.5 -92t91.5 -223t-91 -222.5t-222 -91.5zM364 34q113 0 192 79t79 192t-79.5 192.5t-191.5 79.5q-113 0 -192 -79.5t-79 -192.5t79 -192t192 -79zM480 260l42 -86q-73 -51 -159 -51q-75 0 -124 48
t-49 131q0 87 47 135t126 48q77 0 148 -38l-38 -92q-55 18 -90 18q-28 0 -40.5 -15.5t-12.5 -55.5q0 -37 12.5 -52t40.5 -15q39 0 97 25z" />
    <glyph glyph-name="ordfeminine" unicode="&#xaa;" horiz-adv-x="397" 
d="M76 497l-21 94q108 29 159 29q80 0 116.5 -34t36.5 -110v-213h-145v40q-37 -47 -88 -47q-58 0 -86 24t-28 87q0 109 150 109h52q0 35 -37 35q-40 0 -109 -14zM222 416h-32q-16 0 -25.5 -8t-9.5 -22q0 -25 29 -25q20 0 38 11v44z" />
    <glyph glyph-name="guillemotleft" unicode="&#xab;" horiz-adv-x="665" 
d="M355 382l-87 -86q-16 -16 -39 -34q28 -22 40 -34l86 -87l-100 -98l-235 220l234 220zM625 382l-87 -86q-16 -16 -39 -34q28 -22 40 -34l86 -87l-100 -98l-235 220l234 220z" />
    <glyph glyph-name="registered" unicode="&#xae;" horiz-adv-x="727" 
d="M364 -9q-131 0 -222.5 91.5t-91.5 222.5t91.5 223t222.5 92q130 0 221.5 -92t91.5 -223t-91 -222.5t-222 -91.5zM364 34q113 0 192 79t79 192t-79.5 192.5t-191.5 79.5q-113 0 -192 -79.5t-79 -192.5t79 -192t192 -79zM210 479h156q88 0 127 -32t39 -96q0 -68 -56 -88
q54 -32 66 -130h-149q-1 6 -2.5 18.5t-2.5 18.5t-3.5 15.5t-5 14t-6.5 10t-9.5 7.5t-13.5 2h-18v-86h-122v346zM342 311h27q32 0 32 35q0 33 -35 33h-24v-68z" />
    <glyph glyph-name="macron" unicode="&#xaf;" 
d="M422 554h-344v144h344v-144z" />
    <glyph glyph-name="degree" unicode="&#xb0;" horiz-adv-x="386" 
d="M193 620q75 0 119 -44.5t44 -118.5q0 -72 -44 -116t-119 -44t-119 44t-44 116q0 74 44 118.5t119 44.5zM193 406q50 0 50 51q0 54 -50 54t-50 -54q0 -51 50 -51z" />
    <glyph glyph-name="plusminus" unicode="&#xb1;" horiz-adv-x="523" 
d="M472 273h-148v-108h-125v108h-149v125h149v109h125v-109h148v-125zM462 125v-125h-411v125h411z" />
    <glyph glyph-name="twosuperior" unicode="&#xb2;" horiz-adv-x="365" 
d="M335 335h-307v91q126 99 147 120q24 24 24 38q0 28 -32 28q-36 0 -117 -32l-35 91q113 49 177 49t103 -37t39 -97q0 -42 -32 -74.5t-96 -71.5q50 4 72 4h57v-109z" />
    <glyph glyph-name="threesuperior" unicode="&#xb3;" horiz-adv-x="370" 
d="M50 598l-26 85q94 37 164 37q62 0 102.5 -30t40.5 -78q0 -62 -50 -83q59 -27 59 -78q0 -58 -41.5 -89.5t-114.5 -31.5q-96 0 -174 43l35 87q71 -31 133 -31q39 0 39 24q0 25 -69 25h-50v95h50q38 0 51 3.5t13 16.5q0 27 -42 27q-38 0 -120 -22z" />
    <glyph glyph-name="acute" unicode="&#xb4;" 
d="M405 659v-40q-93 -62 -215 -100l-49 52l136 177z" />
    <glyph glyph-name="paragraph" unicode="&#xb6;" horiz-adv-x="618" 
d="M583 456l-83 -18v-438h-190v181h-19q-133 0 -197 52t-64 160q0 111 64 164t197 53h292v-154z" />
    <glyph glyph-name="periodcentered" unicode="&#xb7;" horiz-adv-x="298" 
d="M35 265q0 49 32 81.5t82 32.5t82 -32.5t32 -81.5t-32 -81.5t-82 -32.5t-82 32.5t-32 81.5z" />
    <glyph glyph-name="cedilla" unicode="&#xb8;" 
d="M264 40v-64q57 -5 77 -24t20 -61q0 -44 -26.5 -72t-76.5 -28q-66 0 -134 26l16 73q49 -9 70 -9q31 0 31 21q0 17 -7.5 22.5t-31.5 5.5h-32l21 110h73z" />
    <glyph glyph-name="onesuperior" unicode="&#xb9;" horiz-adv-x="356" 
d="M336 331h-294v109h88v123q-24 -5 -76 -11l-24 88q67 28 125 70h105v-270h76v-109z" />
    <glyph glyph-name="ordmasculine" unicode="&#xba;" horiz-adv-x="422" 
d="M211 620q88 0 137 -48t49 -136q0 -86 -49 -133t-137 -47t-137 47t-49 133q0 88 49 136t137 48zM211 369q45 0 45 67q0 71 -45 71t-45 -71q0 -67 45 -67z" />
    <glyph glyph-name="guillemotright" unicode="&#xbb;" horiz-adv-x="665" 
d="M140 43l-100 98l86 87q12 12 40 34q-23 18 -39 34l-87 86l101 101l234 -220zM410 43l-100 98l86 87q12 12 40 34q-23 18 -39 34l-87 86l101 101l234 -220z" />
    <glyph glyph-name="onequarter" unicode="&#xbc;" horiz-adv-x="904" 
d="M336 231h-294v109h88v123q-24 -5 -76 -11l-24 88q67 28 125 70h105v-270h76v-109zM684 610l-336 -610h-112l336 610h112zM803 58v-58h-125v58h-193l-6 88l199 233h125v-221h51v-100h-51zM678 158v91q-17 -23 -28 -33l-19 -21q-15 -19 -37 -37h84z" />
    <glyph glyph-name="onehalf" unicode="&#xbd;" horiz-adv-x="929" 
d="M336 231h-294v109h88v123q-24 -5 -76 -11l-24 88q67 28 125 70h105v-270h76v-109zM684 610l-336 -610h-112l336 610h112zM879 0h-307v91q126 99 147 120q24 24 24 38q0 28 -32 28q-36 0 -117 -32l-35 91q113 49 177 49t103 -37t39 -97q0 -42 -32 -74.5t-96 -71.5
q50 4 72 4h57v-109z" />
    <glyph glyph-name="threequarters" unicode="&#xbe;" horiz-adv-x="887" 
d="M50 498l-26 85q94 37 164 37q62 0 102.5 -30t40.5 -78q0 -62 -50 -83q59 -27 59 -78q0 -58 -41.5 -89.5t-114.5 -31.5q-96 0 -174 43l35 87q71 -31 133 -31q39 0 39 24q0 25 -69 25h-50v95h50q38 0 51 3.5t13 16.5q0 27 -42 27q-38 0 -120 -22zM667 610l-336 -610h-112
l336 610h112zM796 58v-58h-125v58h-193l-6 88l199 233h125v-221h51v-100h-51zM671 158v91q-17 -23 -28 -33l-19 -21q-15 -19 -37 -37h84z" />
    <glyph glyph-name="questiondown" unicode="&#xbf;" horiz-adv-x="558" 
d="M308 312q-41 0 -67.5 27t-26.5 67t26.5 67t67.5 27t67.5 -27t26.5 -67t-26.5 -67t-67.5 -27zM483 96l55 -146q-100 -43 -160.5 -61t-122.5 -18q-102 0 -166 56t-64 139q0 72 53.5 121t151.5 70l-2 33h164l30 -160h-30q-61 0 -95 -5.5t-44.5 -13.5t-10.5 -21
q0 -22 15 -33.5t37 -11.5q58 0 189 51z" />
    <glyph glyph-name="Agrave" unicode="&#xc0;" horiz-adv-x="718" 
d="M476 686l-49 -52q-124 34 -215 90v40l148 79zM251 84l-26 -84h-220l210 610h288l210 -610h-220l-26 84h-216zM414 255l-36 117q-13 40 -19 72q-6 -32 -19 -72l-36 -117h110z" />
    <glyph glyph-name="Aacute" unicode="&#xc1;" horiz-adv-x="718" 
d="M501 764v-40q-91 -56 -215 -90l-49 52l116 157zM251 84l-26 -84h-220l210 610h288l210 -610h-220l-26 84h-216zM414 255l-36 117q-13 40 -19 72q-6 -32 -19 -72l-36 -117h110z" />
    <glyph glyph-name="Acircumflex" unicode="&#xc2;" horiz-adv-x="718" 
d="M359 709l-143 -75l-49 52l136 144h112l136 -144l-49 -52zM251 84l-26 -84h-220l210 610h288l210 -610h-220l-26 84h-216zM414 255l-36 117q-13 40 -19 72q-6 -32 -19 -72l-36 -117h110z" />
    <glyph glyph-name="Atilde" unicode="&#xc3;" horiz-adv-x="718" 
d="M476 803h72q0 -55 -20 -91.5t-50 -48.5t-61 -12t-58 12l-55 26q-20 9 -30.5 4.5t-31.5 -31.5h-66q0 55 18.5 90.5t47.5 47.5t59 12t57 -12l54 -26q23 -8 32 -3t32 32zM251 84l-26 -84h-220l210 610h288l210 -610h-220l-26 84h-216zM414 255l-36 117q-13 40 -19 72
q-6 -32 -19 -72l-36 -117h110z" />
    <glyph glyph-name="Adieresis" unicode="&#xc4;" horiz-adv-x="718" 
d="M249 827q39 0 65 -23t26 -64q0 -40 -26 -63t-65 -23q-35 0 -62.5 23.5t-27.5 62.5q0 40 27 63.5t63 23.5zM469 827q36 0 63 -23.5t27 -63.5q0 -39 -27.5 -62.5t-62.5 -23.5q-39 0 -65 23t-26 63q0 41 26 64t65 23zM251 84l-26 -84h-220l210 610h288l210 -610h-220l-26 84
h-216zM414 255l-36 117q-13 40 -19 72q-6 -32 -19 -72l-36 -117h110z" />
    <glyph glyph-name="Aring" unicode="&#xc5;" horiz-adv-x="718" 
d="M359 871q52 0 84.5 -31.5t32.5 -82.5q0 -49 -32.5 -80t-84.5 -31t-84.5 31t-32.5 80q0 51 32.5 82.5t84.5 31.5zM359 726q16 0 25.5 8.5t9.5 22.5q0 34 -35 34q-15 0 -25 -9t-10 -25q0 -14 10 -22.5t25 -8.5zM251 84l-26 -84h-220l210 610h288l210 -610h-220l-26 84h-216
zM414 255l-36 117q-13 40 -19 72q-6 -32 -19 -72l-36 -117h110z" />
    <glyph glyph-name="AE" unicode="&#xc6;" horiz-adv-x="995" 
d="M962 173v-173h-484v84h-197l-46 -84h-230l360 610h589v-173h-269v-56h227v-151h-227v-57h277zM478 255v187l-103 -187h103z" />
    <glyph glyph-name="Ccedilla" unicode="&#xc7;" horiz-adv-x="606" 
d="M335 -9v-15q56 -5 76.5 -24t20.5 -61q0 -44 -26.5 -72t-76.5 -28q-66 0 -134 26l16 73q49 -9 70 -9q31 0 31 21q0 17 -7.5 22.5t-31.5 5.5h-32l13 69q-108 22 -168.5 100.5t-60.5 203.5q0 151 85.5 234t235.5 83q119 0 235 -56l-62 -158q-112 26 -163 26
q-118 0 -118 -129q0 -62 28.5 -93t79.5 -31q74 0 189 36l66 -156q-140 -68 -265 -68h-1z" />
    <glyph glyph-name="Egrave" unicode="&#xc8;" horiz-adv-x="557" 
d="M387 686l-49 -52q-124 34 -215 90v40l148 79zM524 0h-484v610h476v-173h-269v-56h227v-151h-227v-57h277v-173z" />
    <glyph glyph-name="Eacute" unicode="&#xc9;" horiz-adv-x="557" 
d="M412 764v-40q-91 -56 -215 -90l-49 52l116 157zM524 0h-484v610h476v-173h-269v-56h227v-151h-227v-57h277v-173z" />
    <glyph glyph-name="Ecircumflex" unicode="&#xca;" horiz-adv-x="557" 
d="M270 709l-143 -75l-49 52l136 144h112l136 -144l-49 -52zM524 0h-484v610h476v-173h-269v-56h227v-151h-227v-57h277v-173z" />
    <glyph glyph-name="Edieresis" unicode="&#xcb;" horiz-adv-x="557" 
d="M160 827q39 0 65 -23t26 -64q0 -40 -26 -63t-65 -23q-35 0 -62.5 23.5t-27.5 62.5q0 40 27 63.5t63 23.5zM380 827q36 0 63 -23.5t27 -63.5q0 -39 -27.5 -62.5t-62.5 -23.5q-39 0 -65 23t-26 63q0 41 26 64t65 23zM524 0h-484v610h476v-173h-269v-56h227v-151h-227v-57
h277v-173z" />
    <glyph glyph-name="Igrave" unicode="&#xcc;" horiz-adv-x="290" 
d="M262 686l-49 -52q-124 34 -215 90v40l148 79zM250 0h-210v610h210v-610z" />
    <glyph glyph-name="Iacute" unicode="&#xcd;" horiz-adv-x="290" 
d="M287 764v-40q-91 -56 -215 -90l-49 52l116 157zM250 0h-210v610h210v-610z" />
    <glyph glyph-name="Icircumflex" unicode="&#xce;" horiz-adv-x="290" 
d="M145 709l-143 -75l-49 52l136 144h112l136 -144l-49 -52zM250 0h-210v610h210v-610z" />
    <glyph glyph-name="Idieresis" unicode="&#xcf;" horiz-adv-x="290" 
d="M35 827q39 0 65 -23t26 -64q0 -40 -26 -63t-65 -23q-35 0 -62.5 23.5t-27.5 62.5q0 40 27 63.5t63 23.5zM255 827q36 0 63 -23.5t27 -63.5q0 -39 -27.5 -62.5t-62.5 -23.5q-39 0 -65 23t-26 63q0 41 26 64t65 23zM250 0h-210v610h210v-610z" />
    <glyph glyph-name="Eth" unicode="&#xd0;" horiz-adv-x="662" 
d="M45 610h260q159 0 245.5 -79.5t86.5 -225.5t-86.5 -225.5t-245.5 -79.5h-260v224h-45v161h45v225zM255 174h50q57 0 88 34t31 97t-31 97t-88 34h-50v-51h73v-161h-73v-50z" />
    <glyph glyph-name="Ntilde" unicode="&#xd1;" horiz-adv-x="680" 
d="M457 803h72q0 -55 -20 -91.5t-50 -48.5t-61 -12t-58 12l-55 26q-20 9 -30.5 4.5t-31.5 -31.5h-66q0 55 18.5 90.5t47.5 47.5t59 12t57 -12l54 -26q23 -8 32 -3t32 32zM640 0h-190l-200 275v-275h-210v610h190l200 -271v271h210v-610z" />
    <glyph glyph-name="Ograve" unicode="&#xd2;" horiz-adv-x="692" 
d="M463 686l-49 -52q-124 34 -215 90v40l148 79zM346 620q150 0 235.5 -83t85.5 -234q0 -149 -85.5 -230.5t-235.5 -81.5t-235.5 81.5t-85.5 230.5q0 151 85.5 234t235.5 83zM346 179q51 0 79.5 31t28.5 93q0 129 -108 129t-108 -129q0 -62 28.5 -93t79.5 -31z" />
    <glyph glyph-name="Oacute" unicode="&#xd3;" horiz-adv-x="692" 
d="M488 764v-40q-91 -56 -215 -90l-49 52l116 157zM346 620q150 0 235.5 -83t85.5 -234q0 -149 -85.5 -230.5t-235.5 -81.5t-235.5 81.5t-85.5 230.5q0 151 85.5 234t235.5 83zM346 179q51 0 79.5 31t28.5 93q0 129 -108 129t-108 -129q0 -62 28.5 -93t79.5 -31z" />
    <glyph glyph-name="Ocircumflex" unicode="&#xd4;" horiz-adv-x="692" 
d="M346 709l-143 -75l-49 52l136 144h112l136 -144l-49 -52zM346 620q150 0 235.5 -83t85.5 -234q0 -149 -85.5 -230.5t-235.5 -81.5t-235.5 81.5t-85.5 230.5q0 151 85.5 234t235.5 83zM346 179q51 0 79.5 31t28.5 93q0 129 -108 129t-108 -129q0 -62 28.5 -93t79.5 -31z
" />
    <glyph glyph-name="Otilde" unicode="&#xd5;" horiz-adv-x="692" 
d="M463 803h72q0 -55 -20 -91.5t-50 -48.5t-61 -12t-58 12l-55 26q-20 9 -30.5 4.5t-31.5 -31.5h-66q0 55 18.5 90.5t47.5 47.5t59 12t57 -12l54 -26q23 -8 32 -3t32 32zM346 620q150 0 235.5 -83t85.5 -234q0 -149 -85.5 -230.5t-235.5 -81.5t-235.5 81.5t-85.5 230.5
q0 151 85.5 234t235.5 83zM346 179q51 0 79.5 31t28.5 93q0 129 -108 129t-108 -129q0 -62 28.5 -93t79.5 -31z" />
    <glyph glyph-name="Odieresis" unicode="&#xd6;" horiz-adv-x="692" 
d="M236 827q39 0 65 -23t26 -64q0 -40 -26 -63t-65 -23q-35 0 -62.5 23.5t-27.5 62.5q0 40 27 63.5t63 23.5zM456 827q36 0 63 -23.5t27 -63.5q0 -39 -27.5 -62.5t-62.5 -23.5q-39 0 -65 23t-26 63q0 41 26 64t65 23zM346 620q150 0 235.5 -83t85.5 -234
q0 -149 -85.5 -230.5t-235.5 -81.5t-235.5 81.5t-85.5 230.5q0 151 85.5 234t235.5 83zM346 179q51 0 79.5 31t28.5 93q0 129 -108 129t-108 -129q0 -62 28.5 -93t79.5 -31z" />
    <glyph glyph-name="multiply" unicode="&#xd7;" horiz-adv-x="511" 
d="M252 143l-105 -105l-102 102l105 105l-110 109l102 102l110 -109l113 113l102 -102l-113 -113l109 -110l-103 -100z" />
    <glyph glyph-name="Oslash" unicode="&#xd8;" horiz-adv-x="687" 
d="M650 547l-42 -42q57 -80 57 -202q0 -149 -85.5 -230.5t-235.5 -81.5q-118 0 -198 52l-52 -52l-72 72l51 51q-50 78 -50 189q0 151 85.5 234t235.5 83q111 0 189 -46l45 45zM237 278l148 148q-18 6 -41 6q-108 0 -108 -129q0 -17 1 -25zM448 345l-156 -156q21 -10 52 -10
q51 0 79.5 31t28.5 93q0 26 -4 42z" />
    <glyph glyph-name="Ugrave" unicode="&#xd9;" horiz-adv-x="662" 
d="M448 686l-49 -52q-124 34 -215 90v40l148 79zM622 610v-311q0 -159 -71 -233.5t-220 -74.5t-220 74.5t-71 233.5v311h210v-311q0 -62 19.5 -88t61.5 -26t61.5 26t19.5 88v311h210z" />
    <glyph glyph-name="Uacute" unicode="&#xda;" horiz-adv-x="662" 
d="M473 764v-40q-91 -56 -215 -90l-49 52l116 157zM622 610v-311q0 -159 -71 -233.5t-220 -74.5t-220 74.5t-71 233.5v311h210v-311q0 -62 19.5 -88t61.5 -26t61.5 26t19.5 88v311h210z" />
    <glyph glyph-name="Ucircumflex" unicode="&#xdb;" horiz-adv-x="662" 
d="M331 709l-143 -75l-49 52l136 144h112l136 -144l-49 -52zM622 610v-311q0 -159 -71 -233.5t-220 -74.5t-220 74.5t-71 233.5v311h210v-311q0 -62 19.5 -88t61.5 -26t61.5 26t19.5 88v311h210z" />
    <glyph glyph-name="Udieresis" unicode="&#xdc;" horiz-adv-x="662" 
d="M221 827q39 0 65 -23t26 -64q0 -40 -26 -63t-65 -23q-35 0 -62.5 23.5t-27.5 62.5q0 40 27 63.5t63 23.5zM441 827q36 0 63 -23.5t27 -63.5q0 -39 -27.5 -62.5t-62.5 -23.5q-39 0 -65 23t-26 63q0 41 26 64t65 23zM622 610v-311q0 -159 -71 -233.5t-220 -74.5t-220 74.5
t-71 233.5v311h210v-311q0 -62 19.5 -88t61.5 -26t61.5 26t19.5 88v311h210z" />
    <glyph glyph-name="Yacute" unicode="&#xdd;" horiz-adv-x="676" 
d="M480 764v-40q-91 -56 -215 -90l-49 52l116 157zM443 179v-179h-210v179l-228 431h220l67 -130q23 -42 46 -99q23 57 46 99l67 130h220z" />
    <glyph glyph-name="Thorn" unicode="&#xde;" horiz-adv-x="602" 
d="M250 540h56q145 0 213 -58.5t68 -181.5q0 -121 -65.5 -175.5t-205.5 -54.5h-66v-70h-210v610h210v-70zM250 236h65q68 0 68 64q0 62 -78 62h-55v-126z" />
    <glyph glyph-name="germandbls" unicode="&#xdf;" horiz-adv-x="637" 
d="M0 490h73q34 66 104.5 103t164.5 37q107 0 173.5 -48.5t66.5 -126.5q0 -97 -90 -126q64 -18 94.5 -57.5t30.5 -105.5q0 -79 -55.5 -127t-146.5 -48q-69 0 -120 16l13 144q58 -4 72 -4q24 0 38.5 12t14.5 31q0 24 -28.5 31.5t-86.5 7.5h-12v142h12q34 0 55 16t21 42
q0 39 -49 39q-47 0 -72.5 -25.5t-25.5 -72.5v-370h-202v334l-45 8v148z" />
    <glyph glyph-name="agrave" unicode="&#xe0;" horiz-adv-x="535" 
d="M392 571l-49 -52q-122 38 -215 100v40l128 89zM93 328l-30 132q152 40 223 40q112 0 163 -47.5t51 -153.5v-299h-202v56q-53 -65 -124 -65q-80 0 -119.5 33.5t-39.5 121.5q0 153 209 153h74q0 24 -11 36.5t-41 12.5q-56 0 -153 -20zM298 214h-46q-22 0 -35 -11.5
t-13 -30.5q0 -16 11.5 -25.5t28.5 -9.5q24 0 54 16v61z" />
    <glyph glyph-name="aacute" unicode="&#xe1;" horiz-adv-x="535" 
d="M423 659v-40q-93 -62 -215 -100l-49 52l136 177zM93 328l-30 132q152 40 223 40q112 0 163 -47.5t51 -153.5v-299h-202v56q-53 -65 -124 -65q-80 0 -119.5 33.5t-39.5 121.5q0 153 209 153h74q0 24 -11 36.5t-41 12.5q-56 0 -153 -20zM298 214h-46q-22 0 -35 -11.5
t-13 -30.5q0 -16 11.5 -25.5t28.5 -9.5q24 0 54 16v61z" />
    <glyph glyph-name="acircumflex" unicode="&#xe2;" horiz-adv-x="535" 
d="M409 524l-136 70l-136 -70l-47 50l130 146h106l130 -146zM93 328l-30 132q152 40 223 40q112 0 163 -47.5t51 -153.5v-299h-202v56q-53 -65 -124 -65q-80 0 -119.5 33.5t-39.5 121.5q0 153 209 153h74q0 24 -11 36.5t-41 12.5q-56 0 -153 -20zM298 214h-46
q-22 0 -35 -11.5t-13 -30.5q0 -16 11.5 -25.5t28.5 -9.5q24 0 54 16v61z" />
    <glyph glyph-name="atilde" unicode="&#xe3;" horiz-adv-x="535" 
d="M385 703h72q0 -55 -20 -91.5t-50 -48.5t-61 -12t-58 12l-55 26q-20 9 -30.5 4.5t-31.5 -31.5h-66q0 55 18.5 90.5t47.5 47.5t59 12t57 -12l54 -26q23 -8 32 -3t32 32zM93 328l-30 132q152 40 223 40q112 0 163 -47.5t51 -153.5v-299h-202v56q-53 -65 -124 -65
q-80 0 -119.5 33.5t-39.5 121.5q0 153 209 153h74q0 24 -11 36.5t-41 12.5q-56 0 -153 -20zM298 214h-46q-22 0 -35 -11.5t-13 -30.5q0 -16 11.5 -25.5t28.5 -9.5q24 0 54 16v61z" />
    <glyph glyph-name="adieresis" unicode="&#xe4;" horiz-adv-x="535" 
d="M158 716q41 0 68 -24t27 -67q0 -42 -27 -66t-68 -24q-38 0 -66.5 24.5t-28.5 65.5q0 42 28.5 66.5t66.5 24.5zM378 716q38 0 66.5 -24.5t28.5 -66.5q0 -41 -28.5 -65.5t-66.5 -24.5q-41 0 -68 24t-27 66q0 43 27 67t68 24zM93 328l-30 132q152 40 223 40q112 0 163 -47.5
t51 -153.5v-299h-202v56q-53 -65 -124 -65q-80 0 -119.5 33.5t-39.5 121.5q0 153 209 153h74q0 24 -11 36.5t-41 12.5q-56 0 -153 -20zM298 214h-46q-22 0 -35 -11.5t-13 -30.5q0 -16 11.5 -25.5t28.5 -9.5q24 0 54 16v61z" />
    <glyph glyph-name="aring" unicode="&#xe5;" horiz-adv-x="535" 
d="M278 761q52 0 84.5 -31.5t32.5 -82.5q0 -49 -32.5 -80t-84.5 -31t-84.5 31t-32.5 80q0 51 32.5 82.5t84.5 31.5zM278 616q16 0 25.5 8.5t9.5 22.5q0 34 -35 34q-15 0 -25 -9t-10 -25q0 -14 10 -22.5t25 -8.5zM93 328l-30 132q152 40 223 40q112 0 163 -47.5t51 -153.5
v-299h-202v56q-53 -65 -124 -65q-80 0 -119.5 33.5t-39.5 121.5q0 153 209 153h74q0 24 -11 36.5t-41 12.5q-56 0 -153 -20zM298 214h-46q-22 0 -35 -11.5t-13 -30.5q0 -16 11.5 -25.5t28.5 -9.5q24 0 54 16v61z" />
    <glyph glyph-name="ae" unicode="&#xe6;" horiz-adv-x="815" 
d="M739 184l56 -115q-118 -78 -237 -78q-110 0 -175 54q-100 -54 -189 -54q-95 0 -137 33t-42 122q0 77 52 112t157 35h74q0 55 -52 55q-56 0 -153 -20l-30 132q152 40 223 40q85 0 133 -30q57 30 139 30q109 0 172 -62.5t63 -172.5q0 -31 -5 -70h-289q4 -28 20 -39t49 -11
q46 0 81 9t90 30zM498 293h118q0 70 -58 70q-48 0 -60 -70zM305 195h-53q-28 0 -38 -4.5t-10 -18.5q0 -16 11.5 -25.5t28.5 -9.5q32 0 72 8q-8 25 -11 50z" />
    <glyph glyph-name="ccedilla" unicode="&#xe7;" horiz-adv-x="485" 
d="M276 -9v-15q56 -5 76.5 -24t20.5 -61q0 -44 -26.5 -72t-76.5 -28q-66 0 -134 26l16 73q49 -9 70 -9q31 0 31 21q0 17 -7.5 22.5t-31.5 5.5h-32l12 68q-80 19 -129.5 83t-49.5 162q0 121 65.5 189t175.5 68q113 0 211 -54l-54 -129q-78 25 -127 25q-33 0 -53 -27.5
t-20 -71.5q0 -43 20 -69t53 -26q57 0 136 36l61 -122q-94 -67 -207 -71z" />
    <glyph glyph-name="egrave" unicode="&#xe8;" horiz-adv-x="533" 
d="M386 571l-49 -52q-122 38 -215 100v40l128 89zM457 184l56 -115q-118 -78 -237 -78q-121 0 -188.5 65.5t-67.5 185.5q0 123 66.5 190.5t189.5 67.5q109 0 172 -62.5t63 -172.5q0 -31 -5 -70h-289q4 -28 20 -39t49 -11q46 0 81 9t90 30zM216 293h118q0 70 -58 70
q-48 0 -60 -70z" />
    <glyph glyph-name="eacute" unicode="&#xe9;" horiz-adv-x="533" 
d="M417 659v-40q-93 -62 -215 -100l-49 52l136 177zM457 184l56 -115q-118 -78 -237 -78q-121 0 -188.5 65.5t-67.5 185.5q0 123 66.5 190.5t189.5 67.5q109 0 172 -62.5t63 -172.5q0 -31 -5 -70h-289q4 -28 20 -39t49 -11q46 0 81 9t90 30zM216 293h118q0 70 -58 70
q-48 0 -60 -70z" />
    <glyph glyph-name="ecircumflex" unicode="&#xea;" horiz-adv-x="533" 
d="M403 524l-136 70l-136 -70l-47 50l130 146h106l130 -146zM457 184l56 -115q-118 -78 -237 -78q-121 0 -188.5 65.5t-67.5 185.5q0 123 66.5 190.5t189.5 67.5q109 0 172 -62.5t63 -172.5q0 -31 -5 -70h-289q4 -28 20 -39t49 -11q46 0 81 9t90 30zM216 293h118
q0 70 -58 70q-48 0 -60 -70z" />
    <glyph glyph-name="edieresis" unicode="&#xeb;" horiz-adv-x="533" 
d="M152 716q41 0 68 -24t27 -67q0 -42 -27 -66t-68 -24q-38 0 -66.5 24.5t-28.5 65.5q0 42 28.5 66.5t66.5 24.5zM372 716q38 0 66.5 -24.5t28.5 -66.5q0 -41 -28.5 -65.5t-66.5 -24.5q-41 0 -68 24t-27 66q0 43 27 67t68 24zM457 184l56 -115q-118 -78 -237 -78
q-121 0 -188.5 65.5t-67.5 185.5q0 123 66.5 190.5t189.5 67.5q109 0 172 -62.5t63 -172.5q0 -31 -5 -70h-289q4 -28 20 -39t49 -11q46 0 81 9t90 30zM216 293h118q0 70 -58 70q-48 0 -60 -70z" />
    <glyph glyph-name="igrave" unicode="&#xec;" horiz-adv-x="292" 
d="M270 571l-49 -52q-122 38 -215 100v40l128 89zM247 0h-202v490h202v-490z" />
    <glyph glyph-name="iacute" unicode="&#xed;" horiz-adv-x="292" 
d="M301 659v-40q-93 -62 -215 -100l-49 52l136 177zM247 0h-202v490h202v-490z" />
    <glyph glyph-name="icircumflex" unicode="&#xee;" horiz-adv-x="292" 
d="M287 524l-136 70l-136 -70l-47 50l130 146h106l130 -146zM247 0h-202v490h202v-490z" />
    <glyph glyph-name="idieresis" unicode="&#xef;" horiz-adv-x="292" 
d="M36 716q41 0 68 -24t27 -67q0 -42 -27 -66t-68 -24q-38 0 -66.5 24.5t-28.5 65.5q0 42 28.5 66.5t66.5 24.5zM256 716q38 0 66.5 -24.5t28.5 -66.5q0 -41 -28.5 -65.5t-66.5 -24.5q-41 0 -68 24t-27 66q0 43 27 67t68 24zM247 0h-202v490h202v-490z" />
    <glyph glyph-name="eth" unicode="&#xf0;" horiz-adv-x="562" 
d="M451 599l-46 -17q70 -80 103.5 -156.5t33.5 -182.5q0 -120 -68.5 -186t-192.5 -66t-192.5 66t-68.5 186q0 96 62.5 161.5t167.5 66.5q-12 13 -41 40l-85 -31l-23 65l46 17q-19 15 -42 30v27l204 71l47 -52l72 26zM281 148q63 0 63 95q0 60 -17 104q-65 -3 -87 -27
t-22 -87q0 -85 63 -85z" />
    <glyph glyph-name="ntilde" unicode="&#xf1;" horiz-adv-x="573" 
d="M402 703h72q0 -55 -20 -91.5t-50 -48.5t-61 -12t-58 12l-55 26q-20 9 -30.5 4.5t-31.5 -31.5h-66q0 55 18.5 90.5t47.5 47.5t59 12t57 -12l54 -26q23 -8 32 -3t32 32zM237 490v-66q92 75 164 75q75 0 107 -42.5t32 -142.5v-314h-202v254q0 32 -7 42.5t-28 10.5
q-31 0 -66 -35v-272h-202v490h202z" />
    <glyph glyph-name="ograve" unicode="&#xf2;" horiz-adv-x="562" 
d="M405 571l-49 -52q-122 38 -215 100v40l128 89zM281 500q123 0 192 -67t69 -190q0 -120 -68.5 -186t-192.5 -66t-192.5 66t-68.5 186q0 123 69 190t192 67zM281 148q63 0 63 95q0 99 -63 99t-63 -99q0 -95 63 -95z" />
    <glyph glyph-name="oacute" unicode="&#xf3;" horiz-adv-x="562" 
d="M436 659v-40q-93 -62 -215 -100l-49 52l136 177zM281 500q123 0 192 -67t69 -190q0 -120 -68.5 -186t-192.5 -66t-192.5 66t-68.5 186q0 123 69 190t192 67zM281 148q63 0 63 95q0 99 -63 99t-63 -99q0 -95 63 -95z" />
    <glyph glyph-name="ocircumflex" unicode="&#xf4;" horiz-adv-x="562" 
d="M422 524l-136 70l-136 -70l-47 50l130 146h106l130 -146zM281 500q123 0 192 -67t69 -190q0 -120 -68.5 -186t-192.5 -66t-192.5 66t-68.5 186q0 123 69 190t192 67zM281 148q63 0 63 95q0 99 -63 99t-63 -99q0 -95 63 -95z" />
    <glyph glyph-name="otilde" unicode="&#xf5;" horiz-adv-x="562" 
d="M396 693h72q0 -55 -20 -91.5t-50 -48.5t-61 -12t-58 12l-55 26q-20 9 -30.5 4.5t-31.5 -31.5h-66q0 55 18.5 90.5t47.5 47.5t59 12t57 -12l54 -26q23 -8 32 -3t32 32zM281 500q123 0 192 -67t69 -190q0 -120 -68.5 -186t-192.5 -66t-192.5 66t-68.5 186q0 123 69 190
t192 67zM281 148q63 0 63 95q0 99 -63 99t-63 -99q0 -95 63 -95z" />
    <glyph glyph-name="odieresis" unicode="&#xf6;" horiz-adv-x="562" 
d="M171 716q41 0 68 -24t27 -67q0 -42 -27 -66t-68 -24q-38 0 -66.5 24.5t-28.5 65.5q0 42 28.5 66.5t66.5 24.5zM391 716q38 0 66.5 -24.5t28.5 -66.5q0 -41 -28.5 -65.5t-66.5 -24.5q-41 0 -68 24t-27 66q0 43 27 67t68 24zM281 500q123 0 192 -67t69 -190
q0 -120 -68.5 -186t-192.5 -66t-192.5 66t-68.5 186q0 123 69 190t192 67zM281 148q63 0 63 95q0 99 -63 99t-63 -99q0 -95 63 -95z" />
    <glyph glyph-name="divide" unicode="&#xf7;" horiz-adv-x="513" 
d="M193 412q0 28 18.5 47t47.5 19t47.5 -19t18.5 -47t-18.5 -47t-47.5 -19t-47.5 19t-18.5 47zM50 176v145h413v-145h-413zM193 82q0 28 18.5 47t47.5 19t47.5 -19t18.5 -47t-18.5 -47t-47.5 -19t-47.5 19t-18.5 47z" />
    <glyph glyph-name="oslash" unicode="&#xf8;" horiz-adv-x="546" 
d="M528 447l-35 -35q51 -65 51 -169q0 -120 -68.5 -186t-192.5 -66q-101 0 -166 44l-40 -40l-51 51l40 40q-44 61 -44 157q0 123 69 190t192 67q91 0 157 -39l37 37zM220 240l94 95q-13 7 -31 7q-63 0 -63 -99v-3zM345 264l-102 -102q15 -14 40 -14q63 0 63 95z" />
    <glyph glyph-name="ugrave" unicode="&#xf9;" horiz-adv-x="578" 
d="M413 571l-49 -52q-122 38 -215 100v40l128 89zM540 0h-202v56q-5 -4 -20 -14t-19 -12.5l-15.5 -10t-15.5 -9t-13.5 -6.5t-15 -6t-13.5 -3.5t-15.5 -3t-16.5 -0.5q-159 0 -159 185v314h202v-259q0 -32 7 -42.5t28 -10.5q31 0 66 35v277h202v-490z" />
    <glyph glyph-name="uacute" unicode="&#xfa;" horiz-adv-x="578" 
d="M444 659v-40q-93 -62 -215 -100l-49 52l136 177zM540 0h-202v56q-5 -4 -20 -14t-19 -12.5l-15.5 -10t-15.5 -9t-13.5 -6.5t-15 -6t-13.5 -3.5t-15.5 -3t-16.5 -0.5q-159 0 -159 185v314h202v-259q0 -32 7 -42.5t28 -10.5q31 0 66 35v277h202v-490z" />
    <glyph glyph-name="ucircumflex" unicode="&#xfb;" horiz-adv-x="578" 
d="M430 524l-136 70l-136 -70l-47 50l130 146h106l130 -146zM540 0h-202v56q-5 -4 -20 -14t-19 -12.5l-15.5 -10t-15.5 -9t-13.5 -6.5t-15 -6t-13.5 -3.5t-15.5 -3t-16.5 -0.5q-159 0 -159 185v314h202v-259q0 -32 7 -42.5t28 -10.5q31 0 66 35v277h202v-490z" />
    <glyph glyph-name="udieresis" unicode="&#xfc;" horiz-adv-x="578" 
d="M179 716q41 0 68 -24t27 -67q0 -42 -27 -66t-68 -24q-38 0 -66.5 24.5t-28.5 65.5q0 42 28.5 66.5t66.5 24.5zM399 716q38 0 66.5 -24.5t28.5 -66.5q0 -41 -28.5 -65.5t-66.5 -24.5q-41 0 -68 24t-27 66q0 43 27 67t68 24zM540 0h-202v56q-5 -4 -20 -14t-19 -12.5
l-15.5 -10t-15.5 -9t-13.5 -6.5t-15 -6t-13.5 -3.5t-15.5 -3t-16.5 -0.5q-159 0 -159 185v314h202v-259q0 -32 7 -42.5t28 -10.5q31 0 66 35v277h202v-490z" />
    <glyph glyph-name="yacute" unicode="&#xfd;" horiz-adv-x="584" 
d="M447 659v-40q-93 -62 -215 -100l-49 52l136 177zM368 490h216q-84 -271 -143 -393q-94 -195 -328 -268l-66 153q82 33 121 69l-168 439h211l60 -175l21 -72q39 89 76 247z" />
    <glyph glyph-name="thorn" unicode="&#xfe;" horiz-adv-x="579" 
d="M237 640v-198q74 57 144 57q91 0 134.5 -60t43.5 -188q0 -130 -53 -195t-135 -65q-47 0 -74 12.5t-60 43.5v-196h-202v789h202zM237 298v-114q29 -25 65 -25q57 0 57 92q0 78 -55 78q-30 0 -67 -31z" />
    <glyph glyph-name="ydieresis" unicode="&#xff;" horiz-adv-x="584" 
d="M182 716q41 0 68 -24t27 -67q0 -42 -27 -66t-68 -24q-38 0 -66.5 24.5t-28.5 65.5q0 42 28.5 66.5t66.5 24.5zM402 716q38 0 66.5 -24.5t28.5 -66.5q0 -41 -28.5 -65.5t-66.5 -24.5q-41 0 -68 24t-27 66q0 43 27 67t68 24zM368 490h216q-84 -271 -143 -393
q-94 -195 -328 -268l-66 153q82 33 121 69l-168 439h211l60 -175l21 -72q39 89 76 247z" />
    <glyph glyph-name="Amacron" unicode="&#x100;" horiz-adv-x="718" 
d="M526 664h-334v139h334v-139zM251 84l-26 -84h-220l210 610h288l210 -610h-220l-26 84h-216zM414 255l-36 117q-13 40 -19 72q-6 -32 -19 -72l-36 -117h110z" />
    <glyph glyph-name="amacron" unicode="&#x101;" horiz-adv-x="535" 
d="M440 554h-344v144h344v-144zM93 328l-30 132q152 40 223 40q112 0 163 -47.5t51 -153.5v-299h-202v56q-53 -65 -124 -65q-80 0 -119.5 33.5t-39.5 121.5q0 153 209 153h74q0 24 -11 36.5t-41 12.5q-56 0 -153 -20zM298 214h-46q-22 0 -35 -11.5t-13 -30.5
q0 -16 11.5 -25.5t28.5 -9.5q24 0 54 16v61z" />
    <glyph glyph-name="Abreve" unicode="&#x102;" horiz-adv-x="718" 
d="M409 799h113q0 -142 -163 -142t-163 142h113q2 -13 15.5 -23t34.5 -10t34.5 10t15.5 23zM251 84l-26 -84h-220l210 610h288l210 -610h-220l-26 84h-216zM414 255l-36 117q-13 40 -19 72q-6 -32 -19 -72l-36 -117h110z" />
    <glyph glyph-name="abreve" unicode="&#x103;" horiz-adv-x="535" 
d="M328 699h113q0 -152 -163 -152t-163 152h113q0 -19 13.5 -31t36.5 -12t36.5 12t13.5 31zM93 328l-30 132q152 40 223 40q112 0 163 -47.5t51 -153.5v-299h-202v56q-53 -65 -124 -65q-80 0 -119.5 33.5t-39.5 121.5q0 153 209 153h74q0 24 -11 36.5t-41 12.5
q-56 0 -153 -20zM298 214h-46q-22 0 -35 -11.5t-13 -30.5q0 -16 11.5 -25.5t28.5 -9.5q24 0 54 16v61z" />
    <glyph glyph-name="Aogonek" unicode="&#x104;" horiz-adv-x="718" 
d="M713 0h-128q-87 0 -87 -41q0 -14 16 -22.5t42 -8.5q15 0 87 11l20 -97q-79 -32 -165 -32q-58 0 -93 25.5t-35 67.5q0 43 31 76.5t84 46.5l-18 58h-216l-26 -84h-220l210 610h288zM414 255l-36 117q-13 40 -19 72q-6 -32 -19 -72l-36 -117h110z" />
    <glyph glyph-name="aogonek" unicode="&#x105;" horiz-adv-x="535" 
d="M500 0h-80q-87 0 -87 -41q0 -14 16 -22.5t42 -8.5q15 0 87 11l20 -97q-79 -32 -165 -32q-58 0 -93 25.5t-35 67.5q0 38 25 69t68 47v37q-53 -65 -124 -65q-80 0 -119.5 33.5t-39.5 121.5q0 153 209 153h74q0 24 -11 36.5t-41 12.5q-56 0 -153 -20l-30 132q152 40 223 40
q112 0 163 -47.5t51 -153.5v-299zM298 214h-46q-22 0 -35 -11.5t-13 -30.5q0 -16 11.5 -25.5t28.5 -9.5q24 0 54 16v61z" />
    <glyph glyph-name="Cacute" unicode="&#x106;" horiz-adv-x="606" 
d="M475 774v-40q-91 -56 -215 -90l-49 52l116 157zM535 215l66 -156q-140 -68 -265 -68q-144 0 -227.5 82t-83.5 230q0 151 85.5 234t235.5 83q119 0 235 -56l-62 -158q-112 26 -163 26q-118 0 -118 -129q0 -62 28.5 -93t79.5 -31q74 0 189 36z" />
    <glyph glyph-name="cacute" unicode="&#x107;" horiz-adv-x="485" 
d="M409 659v-40q-93 -62 -215 -100l-49 52l136 177zM422 184l61 -122q-54 -38 -105 -54.5t-122 -16.5q-104 0 -172.5 67.5t-68.5 184.5q0 121 65.5 189t175.5 68q113 0 211 -54l-54 -129q-78 25 -127 25q-33 0 -53 -27.5t-20 -71.5q0 -43 20 -69t53 -26q57 0 136 36z" />
    <glyph glyph-name="Cdotaccent" unicode="&#x10a;" horiz-adv-x="606" 
d="M333 846q40 0 70 -26t30 -70q0 -43 -30 -69t-70 -26q-43 0 -71.5 25.5t-28.5 69.5q0 45 28.5 70.5t71.5 25.5zM535 215l66 -156q-140 -68 -265 -68q-144 0 -227.5 82t-83.5 230q0 151 85.5 234t235.5 83q119 0 235 -56l-62 -158q-112 26 -163 26q-118 0 -118 -129
q0 -62 28.5 -93t79.5 -31q74 0 189 36z" />
    <glyph glyph-name="cdotaccent" unicode="&#x10b;" horiz-adv-x="485" 
d="M254 731q41 0 73 -27.5t32 -73.5q0 -45 -32 -72.5t-73 -27.5q-45 0 -75 27t-30 73q0 47 30 74t75 27zM422 184l61 -122q-54 -38 -105 -54.5t-122 -16.5q-104 0 -172.5 67.5t-68.5 184.5q0 121 65.5 189t175.5 68q113 0 211 -54l-54 -129q-78 25 -127 25q-33 0 -53 -27.5
t-20 -71.5q0 -43 20 -69t53 -26q57 0 136 36z" />
    <glyph glyph-name="Ccaron" unicode="&#x10c;" horiz-adv-x="606" 
d="M389 650h-112l-136 144l49 52l143 -75l143 75l49 -52zM535 215l66 -156q-140 -68 -265 -68q-144 0 -227.5 82t-83.5 230q0 151 85.5 234t235.5 83q119 0 235 -56l-62 -158q-112 26 -163 26q-118 0 -118 -129q0 -62 28.5 -93t79.5 -31q74 0 189 36z" />
    <glyph glyph-name="ccaron" unicode="&#x10d;" horiz-adv-x="485" 
d="M307 530h-106l-130 146l47 50l136 -70l136 70l47 -50zM422 184l61 -122q-54 -38 -105 -54.5t-122 -16.5q-104 0 -172.5 67.5t-68.5 184.5q0 121 65.5 189t175.5 68q113 0 211 -54l-54 -129q-78 25 -127 25q-33 0 -53 -27.5t-20 -71.5q0 -43 20 -69t53 -26q57 0 136 36z
" />
    <glyph glyph-name="Dcaron" unicode="&#x10e;" horiz-adv-x="657" 
d="M345 640h-112l-136 144l49 52l143 -75l143 75l49 -52zM40 610h260q159 0 245.5 -79.5t86.5 -225.5t-86.5 -225.5t-245.5 -79.5h-260v610zM250 174h50q57 0 88 34t31 97t-31 97t-88 34h-50v-262z" />
    <glyph glyph-name="dcaron" unicode="&#x10f;" horiz-adv-x="579" 
d="M544 0h-202v56q-30 -36 -56.5 -50.5t-77.5 -14.5q-82 0 -135 65t-53 195q0 126 46.5 187t131.5 61q44 0 77 -11.5t67 -44.5v197h202v-640zM721 640v-11q-9 -111 -55 -182h-89v193h144zM342 193v97q-30 39 -67 39q-55 0 -55 -78q0 -92 57 -92q43 0 65 34z" />
    <glyph glyph-name="Dcroat" unicode="&#x110;" horiz-adv-x="657" 
d="M40 610h260q159 0 245.5 -79.5t86.5 -225.5t-86.5 -225.5t-245.5 -79.5h-260v224h-40v161h40v225zM250 174h50q57 0 88 34t31 97t-31 97t-88 34h-50v-51h78v-161h-78v-50z" />
    <glyph glyph-name="dcroat" unicode="&#x111;" horiz-adv-x="579" 
d="M568 509h-24v-509h-202v56q-30 -36 -56.5 -50.5t-77.5 -14.5q-82 0 -135 65t-53 195q0 126 46.5 187t131.5 61q44 0 77 -11.5t67 -44.5v66h-112v91h112v40h202v-40h24v-91zM342 193v97q-30 39 -67 39q-55 0 -55 -78q0 -92 57 -92q43 0 65 34z" />
    <glyph glyph-name="Emacron" unicode="&#x112;" horiz-adv-x="557" 
d="M437 664h-334v139h334v-139zM524 0h-484v610h476v-173h-269v-56h227v-151h-227v-57h277v-173z" />
    <glyph glyph-name="emacron" unicode="&#x113;" horiz-adv-x="533" 
d="M444 534h-344v144h344v-144zM457 184l56 -115q-118 -78 -237 -78q-121 0 -188.5 65.5t-67.5 185.5q0 123 66.5 190.5t189.5 67.5q109 0 172 -62.5t63 -172.5q0 -31 -5 -70h-289q4 -28 20 -39t49 -11q46 0 81 9t90 30zM216 293h118q0 70 -58 70q-48 0 -60 -70z" />
    <glyph glyph-name="Edotaccent" unicode="&#x116;" horiz-adv-x="557" 
d="M270 836q40 0 70 -26t30 -70q0 -43 -30 -69t-70 -26q-43 0 -71.5 25.5t-28.5 69.5q0 45 28.5 70.5t71.5 25.5zM524 0h-484v610h476v-173h-269v-56h227v-151h-227v-57h277v-173z" />
    <glyph glyph-name="edotaccent" unicode="&#x117;" horiz-adv-x="533" 
d="M267 731q41 0 73 -27.5t32 -73.5q0 -45 -32 -72.5t-73 -27.5q-45 0 -75 27t-30 73q0 47 30 74t75 27zM457 184l56 -115q-118 -78 -237 -78q-121 0 -188.5 65.5t-67.5 185.5q0 123 66.5 190.5t189.5 67.5q109 0 172 -62.5t63 -172.5q0 -31 -5 -70h-289q4 -28 20 -39
t49 -11q46 0 81 9t90 30zM216 293h118q0 70 -58 70q-48 0 -60 -70z" />
    <glyph glyph-name="Eogonek" unicode="&#x118;" horiz-adv-x="557" 
d="M524 0h-92q-87 0 -87 -41q0 -14 16 -22.5t42 -8.5q15 0 87 11l20 -97q-79 -32 -165 -32q-58 0 -93 25.5t-35 67.5q0 59 55 97h-232v610h476v-173h-269v-56h227v-151h-227v-57h277v-173z" />
    <glyph glyph-name="eogonek" unicode="&#x119;" horiz-adv-x="533" 
d="M457 184l56 -115q-107 -71 -213 -77q-27 -11 -27 -33q0 -14 16 -22.5t42 -8.5q15 0 87 11l20 -97q-79 -32 -165 -32q-58 0 -93 25.5t-35 67.5q0 58 54 96q-86 19 -132.5 81.5t-46.5 161.5q0 123 66.5 190.5t189.5 67.5q109 0 172 -62.5t63 -172.5q0 -31 -5 -70h-289
q4 -28 20 -39t49 -11q46 0 81 9t90 30zM216 293h118q0 70 -58 70q-48 0 -60 -70z" />
    <glyph glyph-name="Ecaron" unicode="&#x11a;" horiz-adv-x="557" 
d="M326 640h-112l-136 144l49 52l143 -75l143 75l49 -52zM524 0h-484v610h476v-173h-269v-56h227v-151h-227v-57h277v-173z" />
    <glyph glyph-name="ecaron" unicode="&#x11b;" horiz-adv-x="533" 
d="M315 530h-106l-130 146l47 50l136 -70l136 70l47 -50zM457 184l56 -115q-118 -78 -237 -78q-121 0 -188.5 65.5t-67.5 185.5q0 123 66.5 190.5t189.5 67.5q109 0 172 -62.5t63 -172.5q0 -31 -5 -70h-289q4 -28 20 -39t49 -11q46 0 81 9t90 30zM216 293h118q0 70 -58 70
q-48 0 -60 -70z" />
    <glyph glyph-name="Gbreve" unicode="&#x11e;" horiz-adv-x="676" 
d="M386 799h113q0 -142 -163 -142t-163 142h113q2 -13 15.5 -23t34.5 -10t34.5 10t15.5 23zM641 360v-284q-157 -85 -305 -85q-144 0 -227.5 82t-83.5 230q0 152 81 234.5t230 82.5q146 0 279 -55l-51 -156q-137 28 -208 28q-118 0 -118 -134q0 -63 29 -98.5t79 -35.5
t114 12v38h-118v141h299z" />
    <glyph glyph-name="gbreve" unicode="&#x11f;" horiz-adv-x="579" 
d="M352 699h113q0 -152 -163 -152t-163 152h113q0 -19 13.5 -31t36.5 -12t36.5 12t13.5 31zM544 491v-399q0 -146 -64 -211t-201 -65q-121 0 -217 35l26 130q84 -14 161 -14q44 0 66 22t26 77q-30 -26 -61 -35.5t-82 -9.5q-86 0 -132 61.5t-46 178.5q0 121 44 179.5
t134 58.5q70 0 144 -57v49h202zM342 204v94q-37 31 -67 31t-42.5 -15.5t-12.5 -52.5q0 -46 13 -64t44 -18q36 0 65 25z" />
    <glyph glyph-name="Gdotaccent" unicode="&#x120;" horiz-adv-x="676" 
d="M336 836q40 0 70 -26t30 -70q0 -43 -30 -69t-70 -26q-43 0 -71.5 25.5t-28.5 69.5q0 45 28.5 70.5t71.5 25.5zM641 360v-284q-157 -85 -305 -85q-144 0 -227.5 82t-83.5 230q0 152 81 234.5t230 82.5q146 0 279 -55l-51 -156q-137 28 -208 28q-118 0 -118 -134
q0 -63 29 -98.5t79 -35.5t114 12v38h-118v141h299z" />
    <glyph glyph-name="gdotaccent" unicode="&#x121;" horiz-adv-x="579" 
d="M292 530q-45 0 -75 27t-30 73q0 47 30 74t75 27q41 0 73 -27.5t32 -73.5q0 -45 -32 -72.5t-73 -27.5zM544 491v-399q0 -146 -64 -211t-201 -65q-121 0 -217 35l26 130q84 -14 161 -14q44 0 66 22t26 77q-30 -26 -61 -35.5t-82 -9.5q-86 0 -132 61.5t-46 178.5
q0 121 44 179.5t134 58.5q70 0 144 -57v49h202zM342 204v94q-37 31 -67 31t-42.5 -15.5t-12.5 -52.5q0 -46 13 -64t44 -18q36 0 65 25z" />
    <glyph glyph-name="Gcommaaccent" unicode="&#x122;" horiz-adv-x="676" 
d="M641 360v-284q-157 -85 -305 -85q-144 0 -227.5 82t-83.5 230q0 152 81 234.5t230 82.5q146 0 279 -55l-51 -156q-137 28 -208 28q-118 0 -118 -134q0 -63 29 -98.5t79 -35.5t114 12v38h-118v141h299zM284 -250l-16 50q30 11 41 21q-23 7 -36.5 27t-13.5 45q0 33 21.5 55
t55.5 22t55.5 -24t21.5 -60q0 -51 -35.5 -88.5t-93.5 -47.5z" />
    <glyph glyph-name="gcommaaccent" unicode="&#x123;" horiz-adv-x="579" 
d="M346 791l21 -55q-31 -10 -46 -24q26 -10 41 -32.5t15 -50.5q0 -37 -25.5 -63t-63.5 -26q-39 0 -64 28t-25 69q0 55 34 91t113 63zM544 491v-399q0 -146 -64 -211t-201 -65q-121 0 -217 35l26 130q84 -14 161 -14q44 0 66 22t26 77q-30 -26 -61 -35.5t-82 -9.5
q-86 0 -132 61.5t-46 178.5q0 121 44 179.5t134 58.5q70 0 144 -57v49h202zM342 204v94q-37 31 -67 31t-42.5 -15.5t-12.5 -52.5q0 -46 13 -64t44 -18q36 0 65 25z" />
    <glyph glyph-name="Hbar" unicode="&#x126;" horiz-adv-x="685" 
d="M675 403h-40v-403h-210v169h-165v-169h-210v403h-40v136h40v71h210v-71h165v71h210v-71h40v-136zM425 403h-165v-53h165v53z" />
    <glyph glyph-name="hbar" unicode="&#x127;" horiz-adv-x="573" 
d="M237 509v-85q92 75 164 75q75 0 107 -42.5t32 -142.5v-314h-202v254q0 32 -7 42.5t-28 10.5q-31 0 -66 -35v-272h-202v509h-25v91h25v40h202v-40h111v-91h-111z" />
    <glyph glyph-name="Imacron" unicode="&#x12a;" horiz-adv-x="290" 
d="M312 664h-334v139h334v-139zM250 0h-210v610h210v-610z" />
    <glyph glyph-name="imacron" unicode="&#x12b;" horiz-adv-x="292" 
d="M318 554h-344v144h344v-144zM247 0h-202v490h202v-490z" />
    <glyph glyph-name="Iogonek" unicode="&#x12e;" horiz-adv-x="290" 
d="M266 -61l20 -97q-79 -32 -165 -32q-58 0 -93 25.5t-35 67.5q0 59 55 97h-8v610h210v-610h-42q-87 0 -87 -41q0 -14 16 -22.5t42 -8.5q15 0 87 11z" />
    <glyph glyph-name="iogonek" unicode="&#x12f;" horiz-adv-x="292" 
d="M146 530q-45 0 -75 27t-30 73q0 47 30 74t75 27q41 0 73 -27.5t32 -73.5q0 -45 -32 -72.5t-73 -27.5zM280 -61l20 -97q-79 -32 -165 -32q-58 0 -93 25.5t-35 67.5q0 59 55 97h-17v490h202v-490h-25q-87 0 -87 -41q0 -14 16 -22.5t42 -8.5q15 0 87 11z" />
    <glyph glyph-name="Idotaccent" unicode="&#x130;" horiz-adv-x="290" 
d="M145 836q40 0 70 -26t30 -70q0 -43 -30 -69t-70 -26q-43 0 -71.5 25.5t-28.5 69.5q0 45 28.5 70.5t71.5 25.5zM250 0h-210v610h210v-610z" />
    <glyph glyph-name="dotlessi" unicode="&#x131;" horiz-adv-x="292" 
d="M247 0h-202v490h202v-490z" />
    <glyph glyph-name="IJ" unicode="&#x132;" horiz-adv-x="779" 
d="M250 0h-210v610h210v-610zM729 610v-360q0 -140 -50.5 -199.5t-168.5 -59.5q-100 0 -215 55l47 141q67 -18 118 -18q59 0 59 81v360h210z" />
    <glyph glyph-name="ij" unicode="&#x133;" horiz-adv-x="574" 
d="M32 633q0 49 33 76t81 27t81 -27t33 -76t-33 -76t-81 -27t-81 27t-33 76zM426 530q-48 0 -81 27t-33 76t33 76t81 27t81 -27t33 -76t-33 -76t-81 -27zM247 0h-202v490h202v-490zM529 490v-413q0 -107 -51.5 -169t-180.5 -89l-39 137q42 23 55.5 48.5t13.5 72.5v413h202z
" />
    <glyph glyph-name="Kcommaaccent" unicode="&#x136;" horiz-adv-x="665" 
d="M319 174l-69 -78v-96h-210v610h210v-217l169 217h235v-14l-191 -240l197 -341v-15h-240zM276 -250l-16 50q30 11 41 21q-23 7 -36.5 27t-13.5 45q0 33 21.5 55t55.5 22t55.5 -24t21.5 -60q0 -51 -35.5 -88.5t-93.5 -47.5z" />
    <glyph glyph-name="kcommaaccent" unicode="&#x137;" horiz-adv-x="580" 
d="M237 640v-285l111 135h221v-15l-170 -200l174 -260v-15h-231l-75 119l-30 -35v-84h-202v640h202zM233 -250l-16 50q30 11 41 21q-23 7 -36.5 27t-13.5 45q0 33 21.5 55t55.5 22t55.5 -24t21.5 -60q0 -51 -35.5 -88.5t-93.5 -47.5z" />
    <glyph glyph-name="Lacute" unicode="&#x139;" horiz-adv-x="529" 
d="M304 764v-40q-91 -56 -215 -90l-49 52l116 157zM504 0h-464v610h210v-419h254v-191z" />
    <glyph glyph-name="lacute" unicode="&#x13a;" horiz-adv-x="272" 
d="M291 809v-40q-93 -62 -215 -100l-49 52l136 177zM237 0h-202v640h202v-640z" />
    <glyph glyph-name="Lcommaaccent" unicode="&#x13b;" horiz-adv-x="529" 
d="M504 0h-464v610h210v-419h254v-191zM208 -250l-16 50q30 11 41 21q-23 7 -36.5 27t-13.5 45q0 33 21.5 55t55.5 22t55.5 -24t21.5 -60q0 -51 -35.5 -88.5t-93.5 -47.5z" />
    <glyph glyph-name="lcommaaccent" unicode="&#x13c;" horiz-adv-x="272" 
d="M237 0h-202v640h202v-640zM84 -250l-16 50q30 11 41 21q-23 7 -36.5 27t-13.5 45q0 33 21.5 55t55.5 22t55.5 -24t21.5 -60q0 -51 -35.5 -88.5t-93.5 -47.5z" />
    <glyph glyph-name="Lcaron" unicode="&#x13d;" horiz-adv-x="529" 
d="M504 0h-464v610h210v-419h254v-191zM477 610v-11q-9 -111 -55 -182h-89v193h144z" />
    <glyph glyph-name="lcaron" unicode="&#x13e;" horiz-adv-x="292" 
d="M237 0h-202v640h202v-640zM434 640v-11q-9 -111 -55 -182h-89v193h144z" />
    <glyph glyph-name="Ldot" unicode="&#x13f;" horiz-adv-x="529" 
d="M504 0h-464v610h210v-419h254v-191zM295 352q0 49 32 81.5t82 32.5t82 -32.5t32 -81.5t-32 -81.5t-82 -32.5t-82 32.5t-32 81.5z" />
    <glyph glyph-name="ldot" unicode="&#x140;" horiz-adv-x="513" 
d="M237 0h-202v640h202v-640zM275 315q0 49 32 81.5t82 32.5t82 -32.5t32 -81.5t-32 -81.5t-82 -32.5t-82 32.5t-32 81.5z" />
    <glyph glyph-name="Lslash" unicode="&#x141;" horiz-adv-x="539" 
d="M504 191v-191h-464v214l-38 -10v161l38 10v235h210v-182l108 27v-161l-108 -27v-76h254z" />
    <glyph glyph-name="lslash" unicode="&#x142;" horiz-adv-x="292" 
d="M290 294l-46 -14v-280h-202v217l-40 -13v161l40 13v262h202v-199l46 14v-161z" />
    <glyph glyph-name="Nacute" unicode="&#x143;" horiz-adv-x="680" 
d="M482 764v-40q-91 -56 -215 -90l-49 52l116 157zM640 0h-190l-200 275v-275h-210v610h190l200 -271v271h210v-610z" />
    <glyph glyph-name="nacute" unicode="&#x144;" horiz-adv-x="573" 
d="M440 659v-40q-93 -62 -215 -100l-49 52l136 177zM237 490v-66q92 75 164 75q75 0 107 -42.5t32 -142.5v-314h-202v254q0 32 -7 42.5t-28 10.5q-31 0 -66 -35v-272h-202v490h202z" />
    <glyph glyph-name="Ncommaaccent" unicode="&#x145;" horiz-adv-x="680" 
d="M640 0h-190l-200 275v-275h-210v610h190l200 -271v271h210v-610zM288 -250l-16 50q30 11 41 21q-23 7 -36.5 27t-13.5 45q0 33 21.5 55t55.5 22t55.5 -24t21.5 -60q0 -51 -35.5 -88.5t-93.5 -47.5z" />
    <glyph glyph-name="ncommaaccent" unicode="&#x146;" horiz-adv-x="573" 
d="M237 490v-66q92 75 164 75q75 0 107 -42.5t32 -142.5v-314h-202v254q0 32 -7 42.5t-28 10.5q-31 0 -66 -35v-272h-202v490h202zM233 -250l-16 50q30 11 41 21q-23 7 -36.5 27t-13.5 45q0 33 21.5 55t55.5 22t55.5 -24t21.5 -60q0 -51 -35.5 -88.5t-93.5 -47.5z" />
    <glyph glyph-name="Ncaron" unicode="&#x147;" horiz-adv-x="680" 
d="M396 640h-112l-136 144l49 52l143 -75l143 75l49 -52zM640 0h-190l-200 275v-275h-210v610h190l200 -271v271h210v-610z" />
    <glyph glyph-name="ncaron" unicode="&#x148;" horiz-adv-x="573" 
d="M338 530h-106l-130 146l47 50l136 -70l136 70l47 -50zM237 490v-66q92 75 164 75q75 0 107 -42.5t32 -142.5v-314h-202v254q0 32 -7 42.5t-28 10.5q-31 0 -66 -35v-272h-202v490h202z" />
    <glyph glyph-name="Omacron" unicode="&#x14c;" horiz-adv-x="692" 
d="M513 664h-334v139h334v-139zM346 620q150 0 235.5 -83t85.5 -234q0 -149 -85.5 -230.5t-235.5 -81.5t-235.5 81.5t-85.5 230.5q0 151 85.5 234t235.5 83zM346 179q51 0 79.5 31t28.5 93q0 129 -108 129t-108 -129q0 -62 28.5 -93t79.5 -31z" />
    <glyph glyph-name="omacron" unicode="&#x14d;" horiz-adv-x="562" 
d="M453 554h-344v144h344v-144zM281 500q123 0 192 -67t69 -190q0 -120 -68.5 -186t-192.5 -66t-192.5 66t-68.5 186q0 123 69 190t192 67zM281 148q63 0 63 95q0 99 -63 99t-63 -99q0 -95 63 -95z" />
    <glyph glyph-name="Ohungarumlaut" unicode="&#x150;" horiz-adv-x="692" 
d="M381 781v-39q-103 -74 -154 -104l-67 43l90 166zM591 781v-39q-103 -74 -154 -104l-67 43l90 166zM346 620q150 0 235.5 -83t85.5 -234q0 -149 -85.5 -230.5t-235.5 -81.5t-235.5 81.5t-85.5 230.5q0 151 85.5 234t235.5 83zM346 179q51 0 79.5 31t28.5 93
q0 129 -108 129t-108 -129q0 -62 28.5 -93t79.5 -31z" />
    <glyph glyph-name="ohungarumlaut" unicode="&#x151;" horiz-adv-x="562" 
d="M317 681v-39q-67 -63 -154 -114l-57 43l90 176zM517 681v-39q-67 -63 -154 -114l-57 43l90 176zM281 500q123 0 192 -67t69 -190q0 -120 -68.5 -186t-192.5 -66t-192.5 66t-68.5 186q0 123 69 190t192 67zM281 148q63 0 63 95q0 99 -63 99t-63 -99q0 -95 63 -95z" />
    <glyph glyph-name="OE" unicode="&#x152;" horiz-adv-x="931" 
d="M898 173v-173h-459q-43 -9 -93 -9q-150 0 -235.5 81.5t-85.5 230.5q0 151 85.5 234t235.5 83q52 0 93 -10h451v-173h-269v-56h227v-151h-227v-57h277zM414 199v212q-27 21 -68 21q-108 0 -108 -129q0 -62 28.5 -93t79.5 -31q40 0 68 20z" />
    <glyph glyph-name="oe" unicode="&#x153;" horiz-adv-x="857" 
d="M781 184l56 -115q-118 -78 -237 -78q-96 0 -158 41q-64 -41 -161 -41q-124 0 -192.5 66t-68.5 186q0 123 69 190t192 67q98 0 161 -42q62 42 158 42q109 0 172 -62.5t63 -172.5q0 -31 -5 -70h-289q4 -28 20 -39t49 -11q46 0 81 9t90 30zM540 293h118q0 70 -58 70
q-48 0 -60 -70zM281 148q63 0 63 95q0 99 -63 99t-63 -99q0 -95 63 -95z" />
    <glyph glyph-name="Racute" unicode="&#x154;" horiz-adv-x="617" 
d="M437 764v-40q-91 -56 -215 -90l-49 52l116 157zM40 610h271q135 0 208 -61t73 -173q0 -129 -92 -190l112 -171v-15h-222l-83 145h-57v-145h-210v610zM250 306h68q67 0 67 70q0 62 -72 62h-63v-132z" />
    <glyph glyph-name="racute" unicode="&#x155;" horiz-adv-x="427" 
d="M364 659v-40q-93 -62 -215 -100l-49 52l136 177zM237 490v-96q28 57 57 81t68 24q33 0 60 -3l-13 -208q-24 2 -57 2q-49 0 -76 -15t-39 -60v-215h-202v490h202z" />
    <glyph glyph-name="Rcommaaccent" unicode="&#x156;" horiz-adv-x="617" 
d="M40 610h271q135 0 208 -61t73 -173q0 -129 -92 -190l112 -171v-15h-222l-83 145h-57v-145h-210v610zM250 306h68q67 0 67 70q0 62 -72 62h-63v-132zM253 -250l-16 50q30 11 41 21q-23 7 -36.5 27t-13.5 45q0 33 21.5 55t55.5 22t55.5 -24t21.5 -60q0 -51 -35.5 -88.5
t-93.5 -47.5z" />
    <glyph glyph-name="rcommaaccent" unicode="&#x157;" horiz-adv-x="427" 
d="M237 490v-96q28 57 57 81t68 24q33 0 60 -3l-13 -208q-24 2 -57 2q-49 0 -76 -15t-39 -60v-215h-202v490h202zM85 -250l-16 50q30 11 41 21q-23 7 -36.5 27t-13.5 45q0 33 21.5 55t55.5 22t55.5 -24t21.5 -60q0 -51 -35.5 -88.5t-93.5 -47.5z" />
    <glyph glyph-name="Rcaron" unicode="&#x158;" horiz-adv-x="617" 
d="M351 640h-112l-136 144l49 52l143 -75l143 75l49 -52zM40 610h271q135 0 208 -61t73 -173q0 -129 -92 -190l112 -171v-15h-222l-83 145h-57v-145h-210v610zM250 306h68q67 0 67 70q0 62 -72 62h-63v-132z" />
    <glyph glyph-name="rcaron" unicode="&#x159;" horiz-adv-x="436" 
d="M271 530h-106l-130 146l47 50l136 -70l136 70l47 -50zM246 490v-96q28 57 57 81t68 24q33 0 60 -3l-13 -208q-24 2 -57 2q-49 0 -76 -15t-39 -60v-215h-202v490h202z" />
    <glyph glyph-name="Sacute" unicode="&#x15a;" horiz-adv-x="598" 
d="M440 764v-40q-91 -56 -215 -90l-49 52l116 157zM567 567l-44 -157q-127 44 -225 44q-24 0 -24 -18q0 -6 4 -10.5t15.5 -8.5t24 -7t37 -10l47.5 -14q82 -27 124 -65.5t42 -120.5q0 -100 -66.5 -154.5t-183.5 -54.5q-153 0 -298 78l68 162q63 -33 124.5 -52t96.5 -19
q31 0 31 19q0 6 -4 10.5t-15.5 9t-24 8l-38.5 11t-49 15.5q-46 15 -73.5 28.5t-50.5 34t-33 50t-10 71.5q0 97 61 150t174 53q149 0 290 -53z" />
    <glyph glyph-name="sacute" unicode="&#x15b;" horiz-adv-x="485" 
d="M401 659v-40q-93 -62 -215 -100l-49 52l136 177zM467 466l-39 -134q-115 28 -159 28q-31 0 -31 -11q0 -8 5.5 -11t33.5 -11q35 -9 63 -18q125 -38 125 -146q0 -82 -57 -127t-144 -45q-43 0 -119 18t-137 47l49 141q117 -62 178 -62q25 0 25 10q0 9 -17 17t-73 24
q-66 21 -96.5 59t-30.5 102q0 73 49 113t140 40q73 0 120 -7t115 -27z" />
    <glyph glyph-name="Scedilla" unicode="&#x15e;" horiz-adv-x="598" 
d="M567 567l-44 -157q-127 44 -225 44q-24 0 -24 -18q0 -6 4 -10.5t15.5 -8.5t24 -7t37 -10l47.5 -14q82 -27 124 -65.5t42 -120.5q0 -100 -66.5 -154.5t-183.5 -54.5h-9v-15q56 -5 76.5 -24t20.5 -61q0 -44 -26.5 -72t-76.5 -28q-66 0 -134 26l16 73q49 -9 70 -9
q31 0 31 21q0 17 -7.5 22.5t-31.5 5.5h-32l13 69q-107 16 -208 70l68 162q63 -33 124.5 -52t96.5 -19q31 0 31 19q0 6 -4 10.5t-15.5 9t-24 8l-38.5 11t-49 15.5q-46 15 -73.5 28.5t-50.5 34t-33 50t-10 71.5q0 97 61 150t174 53q149 0 290 -53z" />
    <glyph glyph-name="scedilla" unicode="&#x15f;" horiz-adv-x="485" 
d="M467 466l-39 -134q-115 28 -159 28q-31 0 -31 -11q0 -8 5.5 -11t33.5 -11q35 -9 63 -18q125 -38 125 -146q0 -82 -57 -127t-144 -45h-6v-15q56 -5 76.5 -24t20.5 -61q0 -44 -26.5 -72t-76.5 -28q-66 0 -134 26l16 73q49 -9 70 -9q31 0 31 21q0 17 -7.5 22.5t-31.5 5.5
h-32l13 72q-100 21 -169 54l49 141q117 -62 178 -62q25 0 25 10q0 9 -17 17t-73 24q-66 21 -96.5 59t-30.5 102q0 73 49 113t140 40q73 0 120 -7t115 -27z" />
    <glyph glyph-name="Scaron" unicode="&#x160;" horiz-adv-x="598" 
d="M354 640h-112l-136 144l49 52l143 -75l143 75l49 -52zM567 567l-44 -157q-127 44 -225 44q-24 0 -24 -18q0 -6 4 -10.5t15.5 -8.5t24 -7t37 -10l47.5 -14q82 -27 124 -65.5t42 -120.5q0 -100 -66.5 -154.5t-183.5 -54.5q-153 0 -298 78l68 162q63 -33 124.5 -52t96.5 -19
q31 0 31 19q0 6 -4 10.5t-15.5 9t-24 8l-38.5 11t-49 15.5q-46 15 -73.5 28.5t-50.5 34t-33 50t-10 71.5q0 97 61 150t174 53q149 0 290 -53z" />
    <glyph glyph-name="scaron" unicode="&#x161;" horiz-adv-x="485" 
d="M299 530h-106l-130 146l47 50l136 -70l136 70l47 -50zM467 466l-39 -134q-115 28 -159 28q-31 0 -31 -11q0 -8 5.5 -11t33.5 -11q35 -9 63 -18q125 -38 125 -146q0 -82 -57 -127t-144 -45q-43 0 -119 18t-137 47l49 141q117 -62 178 -62q25 0 25 10q0 9 -17 17t-73 24
q-66 21 -96.5 59t-30.5 102q0 73 49 113t140 40q73 0 120 -7t115 -27z" />
    <glyph glyph-name="Tcaron" unicode="&#x164;" horiz-adv-x="596" 
d="M354 640h-112l-136 144l49 52l143 -75l143 75l49 -52zM576 419h-173v-419h-210v419h-173v191h556v-191z" />
    <glyph glyph-name="tcaron" unicode="&#x165;" horiz-adv-x="414" 
d="M446 710v-11q-9 -111 -55 -182h-89v193h144zM384 153l20 -122q-24 -17 -70 -28.5t-90 -11.5q-92 0 -133 46.5t-41 154.5v130h-65v168h65v100h202v-100h109v-168h-109v-120q0 -24 11 -36.5t41 -12.5h60z" />
    <glyph glyph-name="Umacron" unicode="&#x16a;" horiz-adv-x="662" 
d="M498 664h-334v139h334v-139zM622 610v-311q0 -159 -71 -233.5t-220 -74.5t-220 74.5t-71 233.5v311h210v-311q0 -62 19.5 -88t61.5 -26t61.5 26t19.5 88v311h210z" />
    <glyph glyph-name="umacron" unicode="&#x16b;" horiz-adv-x="578" 
d="M461 554h-344v144h344v-144zM540 0h-202v56q-5 -4 -20 -14t-19 -12.5l-15.5 -10t-15.5 -9t-13.5 -6.5t-15 -6t-13.5 -3.5t-15.5 -3t-16.5 -0.5q-159 0 -159 185v314h202v-259q0 -32 7 -42.5t28 -10.5q31 0 66 35v277h202v-490z" />
    <glyph glyph-name="Uring" unicode="&#x16e;" horiz-adv-x="662" 
d="M331 871q52 0 84.5 -31.5t32.5 -82.5q0 -49 -32.5 -80t-84.5 -31t-84.5 31t-32.5 80q0 51 32.5 82.5t84.5 31.5zM331 726q16 0 25.5 8.5t9.5 22.5q0 34 -35 34q-15 0 -25 -9t-10 -25q0 -14 10 -22.5t25 -8.5zM622 610v-311q0 -159 -71 -233.5t-220 -74.5t-220 74.5
t-71 233.5v311h210v-311q0 -62 19.5 -88t61.5 -26t61.5 26t19.5 88v311h210z" />
    <glyph glyph-name="uring" unicode="&#x16f;" horiz-adv-x="578" 
d="M289 761q52 0 84.5 -31.5t32.5 -82.5q0 -49 -32.5 -80t-84.5 -31t-84.5 31t-32.5 80q0 51 32.5 82.5t84.5 31.5zM289 616q16 0 25.5 8.5t9.5 22.5q0 34 -35 34q-15 0 -25 -9t-10 -25q0 -14 10 -22.5t25 -8.5zM540 0h-202v56q-5 -4 -20 -14t-19 -12.5l-15.5 -10t-15.5 -9
t-13.5 -6.5t-15 -6t-13.5 -3.5t-15.5 -3t-16.5 -0.5q-159 0 -159 185v314h202v-259q0 -32 7 -42.5t28 -10.5q31 0 66 35v277h202v-490z" />
    <glyph glyph-name="Uhungarumlaut" unicode="&#x170;" horiz-adv-x="662" 
d="M366 781v-39q-103 -74 -154 -104l-67 43l90 166zM576 781v-39q-103 -74 -154 -104l-67 43l90 166zM622 610v-311q0 -159 -71 -233.5t-220 -74.5t-220 74.5t-71 233.5v311h210v-311q0 -62 19.5 -88t61.5 -26t61.5 26t19.5 88v311h210z" />
    <glyph glyph-name="uhungarumlaut" unicode="&#x171;" horiz-adv-x="578" 
d="M325 681v-39q-67 -63 -154 -114l-57 43l90 176zM525 681v-39q-67 -63 -154 -114l-57 43l90 176zM540 0h-202v56q-5 -4 -20 -14t-19 -12.5l-15.5 -10t-15.5 -9t-13.5 -6.5t-15 -6t-13.5 -3.5t-15.5 -3t-16.5 -0.5q-159 0 -159 185v314h202v-259q0 -32 7 -42.5t28 -10.5
q31 0 66 35v277h202v-490z" />
    <glyph glyph-name="Uogonek" unicode="&#x172;" horiz-adv-x="662" 
d="M622 610v-311q0 -152 -65.5 -227t-201.5 -81q-27 -10 -27 -32q0 -14 16 -22.5t42 -8.5q15 0 87 11l20 -97q-79 -32 -165 -32q-58 0 -93 25.5t-35 67.5q0 57 51 94q-107 18 -159 92t-52 210v311h210v-311q0 -62 19.5 -88t61.5 -26t61.5 26t19.5 88v311h210z" />
    <glyph glyph-name="uogonek" unicode="&#x173;" horiz-adv-x="578" 
d="M540 0h-81q-87 0 -87 -41q0 -14 16 -22.5t42 -8.5q15 0 87 11l20 -97q-79 -32 -165 -32q-58 0 -93 25.5t-35 67.5q0 38 25 69t69 47v37q-5 -4 -20 -14t-19 -12.5l-15.5 -10t-15.5 -9t-13.5 -6.5t-15 -6t-13.5 -3.5t-15.5 -3t-16.5 -0.5q-159 0 -159 185v314h202v-259
q0 -32 7 -42.5t28 -10.5q31 0 66 35v277h202v-490z" />
    <glyph glyph-name="Wcircumflex" unicode="&#x174;" horiz-adv-x="954" 
d="M477 709l-143 -75l-49 52l136 144h112l136 -144l-49 -52zM789 0h-252l-41 192q-11 55 -19 107q-8 -52 -19 -107l-41 -192h-252l-150 610h223l59 -310q4 -20 10 -64l9 64l48 310h226l48 -310l9 -64q6 44 10 64l59 310h223z" />
    <glyph glyph-name="wcircumflex" unicode="&#x175;" horiz-adv-x="799" 
d="M541 524l-136 70l-136 -70l-47 50l130 146h106l130 -146zM673 0h-221l-53 209l-52 -209h-220l-123 490h203l49 -246q1 -6 2.5 -18t2.5 -18l7 36l61 246h141l61 -246q1 -7 3.5 -20l3.5 -18q2 12 6 38l48 246h203z" />
    <glyph glyph-name="Ycircumflex" unicode="&#x176;" horiz-adv-x="676" 
d="M338 709l-143 -75l-49 52l136 144h112l136 -144l-49 -52zM443 179v-179h-210v179l-228 431h220l67 -130q23 -42 46 -99q23 57 46 99l67 130h220z" />
    <glyph glyph-name="ycircumflex" unicode="&#x177;" horiz-adv-x="584" 
d="M433 524l-136 70l-136 -70l-47 50l130 146h106l130 -146zM368 490h216q-84 -271 -143 -393q-94 -195 -328 -268l-66 153q82 33 121 69l-168 439h211l60 -175l21 -72q39 89 76 247z" />
    <glyph glyph-name="Ydieresis" unicode="&#x178;" horiz-adv-x="676" 
d="M228 827q39 0 65 -23t26 -64q0 -40 -26 -63t-65 -23q-35 0 -62.5 23.5t-27.5 62.5q0 40 27 63.5t63 23.5zM448 827q36 0 63 -23.5t27 -63.5q0 -39 -27.5 -62.5t-62.5 -23.5q-39 0 -65 23t-26 63q0 41 26 64t65 23zM443 179v-179h-210v179l-228 431h220l67 -130
q23 -42 46 -99q23 57 46 99l67 130h220z" />
    <glyph glyph-name="Zacute" unicode="&#x179;" horiz-adv-x="617" 
d="M451 764v-40q-91 -56 -215 -90l-49 52l116 157zM35 0v153l263 278q-98 -4 -145 -4h-93v183h521v-163l-236 -269q80 5 138 5h102v-183h-550z" />
    <glyph glyph-name="zacute" unicode="&#x17a;" horiz-adv-x="544" 
d="M427 659v-40q-93 -62 -215 -100l-49 52l136 177zM509 0h-474v128l196 207q-74 -2 -105 -2h-81v157h451v-123l-184 -213q72 3 118 3h79v-157z" />
    <glyph glyph-name="Zdotaccent" unicode="&#x17b;" horiz-adv-x="617" 
d="M309 836q40 0 70 -26t30 -70q0 -43 -30 -69t-70 -26q-43 0 -71.5 25.5t-28.5 69.5q0 45 28.5 70.5t71.5 25.5zM35 0v153l263 278q-98 -4 -145 -4h-93v183h521v-163l-236 -269q80 5 138 5h102v-183h-550z" />
    <glyph glyph-name="zdotaccent" unicode="&#x17c;" horiz-adv-x="544" 
d="M272 731q41 0 73 -27.5t32 -73.5q0 -45 -32 -72.5t-73 -27.5q-45 0 -75 27t-30 73q0 47 30 74t75 27zM509 0h-474v128l196 207q-74 -2 -105 -2h-81v157h451v-123l-184 -213q72 3 118 3h79v-157z" />
    <glyph glyph-name="Zcaron" unicode="&#x17d;" horiz-adv-x="617" 
d="M365 640h-112l-136 144l49 52l143 -75l143 75l49 -52zM35 0v153l263 278q-98 -4 -145 -4h-93v183h521v-163l-236 -269q80 5 138 5h102v-183h-550z" />
    <glyph glyph-name="zcaron" unicode="&#x17e;" horiz-adv-x="544" 
d="M325 530h-106l-130 146l47 50l136 -70l136 70l47 -50zM509 0h-474v128l196 207q-74 -2 -105 -2h-81v157h451v-123l-184 -213q72 3 118 3h79v-157z" />
    <glyph glyph-name="florin" unicode="&#x192;" horiz-adv-x="594" 
d="M584 512l-55 -125q-88 19 -129 19q-79 0 -103 -115l-1 -5h163l-25 -130h-161l-28 -156h-202l28 156h-51l25 130h49l1 6q28 140 94.5 207.5t179.5 67.5q110 0 215 -55z" />
    <glyph glyph-name="Acaron" unicode="&#x1cd;" horiz-adv-x="718" 
d="M415 640h-112l-136 144l49 52l143 -75l143 75l49 -52zM251 84l-26 -84h-220l210 610h288l210 -610h-220l-26 84h-216zM414 255l-36 117q-13 40 -19 72q-6 -32 -19 -72l-36 -117h110z" />
    <glyph glyph-name="Scommaaccent" unicode="&#x218;" horiz-adv-x="598" 
d="M567 567l-44 -157q-127 44 -225 44q-24 0 -24 -18q0 -6 4 -10.5t15.5 -8.5t24 -7t37 -10l47.5 -14q82 -27 124 -65.5t42 -120.5q0 -100 -66.5 -154.5t-183.5 -54.5q-153 0 -298 78l68 162q63 -33 124.5 -52t96.5 -19q31 0 31 19q0 6 -4 10.5t-15.5 9t-24 8l-38.5 11
t-49 15.5q-46 15 -73.5 28.5t-50.5 34t-33 50t-10 71.5q0 97 61 150t174 53q149 0 290 -53zM245 -250l-16 50q30 11 41 21q-23 7 -36.5 27t-13.5 45q0 33 21.5 55t55.5 22t55.5 -24t21.5 -60q0 -51 -35.5 -88.5t-93.5 -47.5z" />
    <glyph glyph-name="scommaaccent" unicode="&#x219;" horiz-adv-x="485" 
d="M467 466l-39 -134q-115 28 -159 28q-31 0 -31 -11q0 -8 5.5 -11t33.5 -11q35 -9 63 -18q125 -38 125 -146q0 -82 -57 -127t-144 -45q-43 0 -119 18t-137 47l49 141q117 -62 178 -62q25 0 25 10q0 9 -17 17t-73 24q-66 21 -96.5 59t-30.5 102q0 73 49 113t140 40
q73 0 120 -7t115 -27zM194 -250l-16 50q30 11 41 21q-23 7 -36.5 27t-13.5 45q0 33 21.5 55t55.5 22t55.5 -24t21.5 -60q0 -51 -35.5 -88.5t-93.5 -47.5z" />
    <glyph glyph-name="uni021A" unicode="&#x21a;" horiz-adv-x="596" 
d="M576 419h-173v-419h-210v419h-173v191h556v-191zM246 -250l-16 50q30 11 41 21q-23 7 -36.5 27t-13.5 45q0 33 21.5 55t55.5 22t55.5 -24t21.5 -60q0 -51 -35.5 -88.5t-93.5 -47.5z" />
    <glyph glyph-name="uni021B" unicode="&#x21b;" horiz-adv-x="414" 
d="M384 153l20 -122q-24 -17 -70 -28.5t-90 -11.5q-92 0 -133 46.5t-41 154.5v130h-65v168h65v100h202v-100h109v-168h-109v-120q0 -24 11 -36.5t41 -12.5h60zM165 -250l-16 50q30 11 41 21q-23 7 -36.5 27t-13.5 45q0 33 21.5 55t55.5 22t55.5 -24t21.5 -60
q0 -51 -35.5 -88.5t-93.5 -47.5z" />
    <glyph glyph-name="circumflex" unicode="&#x2c6;" 
d="M391 524l-136 70l-136 -70l-47 50l130 146h106l130 -146z" />
    <glyph glyph-name="caron" unicode="&#x2c7;" 
d="M303 530h-106l-130 146l47 50l136 -70l136 70l47 -50z" />
    <glyph glyph-name="breve" unicode="&#x2d8;" 
d="M310 699h113q0 -152 -163 -152t-163 152h113q0 -19 13.5 -31t36.5 -12t36.5 12t13.5 31z" />
    <glyph glyph-name="dotaccent" unicode="&#x2d9;" 
d="M250 731q41 0 73 -27.5t32 -73.5q0 -45 -32 -72.5t-73 -27.5q-45 0 -75 27t-30 73q0 47 30 74t75 27z" />
    <glyph glyph-name="ring" unicode="&#x2da;" 
d="M250 761q52 0 84.5 -31.5t32.5 -82.5q0 -49 -32.5 -80t-84.5 -31t-84.5 31t-32.5 80q0 51 32.5 82.5t84.5 31.5zM250 616q16 0 25.5 8.5t9.5 22.5q0 34 -35 34q-15 0 -25 -9t-10 -25q0 -14 10 -22.5t25 -8.5z" />
    <glyph glyph-name="ogonek" unicode="&#x2db;" 
d="M375 -61l20 -97q-79 -32 -165 -32q-58 0 -93 25.5t-35 67.5q0 54 48 91.5t124 37.5l43 -32q-87 0 -87 -41q0 -14 16 -22.5t42 -8.5q15 0 87 11z" />
    <glyph glyph-name="tilde" unicode="&#x2dc;" 
d="M366 703h72q0 -55 -20 -91.5t-50 -48.5t-61 -12t-58 12l-55 26q-20 9 -30.5 4.5t-31.5 -31.5h-66q0 55 18.5 90.5t47.5 47.5t59 12t57 -12l54 -26q23 -8 32 -3t32 32z" />
    <glyph glyph-name="hungarumlaut" unicode="&#x2dd;" 
d="M286 681v-39q-67 -63 -154 -114l-57 43l90 176zM486 681v-39q-67 -63 -154 -114l-57 43l90 176z" />
    <glyph glyph-name="commaturnedabovecomb" unicode="&#x312;" horiz-adv-x="0" 
d="M308 791l21 -55q-31 -10 -46 -24q26 -10 41 -32.5t15 -50.5q0 -37 -25.5 -63t-63.5 -26q-39 0 -64 28t-25 69q0 55 34 91t113 63z" />
    <glyph glyph-name="commaaccentcomb" unicode="&#x326;" horiz-adv-x="0" 
d="M198 -250l-16 50q30 11 41 21q-23 7 -36.5 27t-13.5 45q0 33 21.5 55t55.5 22t55.5 -24t21.5 -60q0 -51 -35.5 -88.5t-93.5 -47.5z" />
    <glyph glyph-name="Wgrave" unicode="&#x1e80;" horiz-adv-x="954" 
d="M594 686l-49 -52q-124 34 -215 90v40l148 79zM789 0h-252l-41 192q-11 55 -19 107q-8 -52 -19 -107l-41 -192h-252l-150 610h223l59 -310q4 -20 10 -64l9 64l48 310h226l48 -310l9 -64q6 44 10 64l59 310h223z" />
    <glyph glyph-name="wgrave" unicode="&#x1e81;" horiz-adv-x="799" 
d="M524 571l-49 -52q-122 38 -215 100v40l128 89zM673 0h-221l-52 209l-53 -209h-220l-123 490h203l49 -246q1 -6 2.5 -18t2.5 -18l7 36l61 246h141l61 -246q1 -7 3.5 -20l3.5 -18q2 12 6 38l48 246h203z" />
    <glyph glyph-name="Wacute" unicode="&#x1e82;" horiz-adv-x="954" 
d="M619 764v-40q-91 -56 -215 -90l-49 52l116 157zM789 0h-252l-41 192q-11 55 -19 107q-8 -52 -19 -107l-41 -192h-252l-150 610h223l59 -310q4 -20 10 -64l9 64l48 310h226l48 -310l9 -64q6 44 10 64l59 310h223z" />
    <glyph glyph-name="wacute" unicode="&#x1e83;" horiz-adv-x="799" 
d="M555 659v-40q-93 -62 -215 -100l-49 52l136 177zM673 0h-221l-52 209l-53 -209h-220l-123 490h203l49 -246q1 -6 2.5 -18t2.5 -18l7 36l61 246h141l61 -246q1 -7 3.5 -20l3.5 -18q2 12 6 38l48 246h203z" />
    <glyph glyph-name="Wdieresis" unicode="&#x1e84;" horiz-adv-x="954" 
d="M367 827q39 0 65 -23t26 -64q0 -40 -26 -63t-65 -23q-35 0 -62.5 23.5t-27.5 62.5q0 40 27 63.5t63 23.5zM587 827q36 0 63 -23.5t27 -63.5q0 -39 -27.5 -62.5t-62.5 -23.5q-39 0 -65 23t-26 63q0 41 26 64t65 23zM789 0h-252l-41 192q-11 55 -19 107q-8 -52 -19 -107
l-41 -192h-252l-150 610h223l59 -310q4 -20 10 -64l9 64l48 310h226l48 -310l9 -64q6 44 10 64l59 310h223z" />
    <glyph glyph-name="wdieresis" unicode="&#x1e85;" horiz-adv-x="799" 
d="M290 716q41 0 68 -24t27 -67q0 -42 -27 -66t-68 -24q-38 0 -66.5 24.5t-28.5 65.5q0 42 28.5 66.5t66.5 24.5zM510 716q38 0 66.5 -24.5t28.5 -66.5q0 -41 -28.5 -65.5t-66.5 -24.5q-41 0 -68 24t-27 66q0 43 27 67t68 24zM673 0h-221l-52 209l-53 -209h-220l-123 490
h203l49 -246q1 -6 2.5 -18t2.5 -18l7 36l61 246h141l61 -246q1 -7 3.5 -20l3.5 -18q2 12 6 38l48 246h203z" />
    <glyph glyph-name="Ygrave" unicode="&#x1ef2;" horiz-adv-x="676" 
d="M455 686l-49 -52q-124 34 -215 90v40l148 79zM443 179v-179h-210v179l-228 431h220l67 -130q23 -42 46 -99q23 57 46 99l67 130h220z" />
    <glyph glyph-name="ygrave" unicode="&#x1ef3;" horiz-adv-x="584" 
d="M416 571l-49 -52q-122 38 -215 100v40l128 89zM368 490h216q-84 -271 -143 -393q-94 -195 -328 -268l-66 153q82 33 121 69l-168 439h211l60 -175l21 -72q39 89 76 247z" />
    <glyph glyph-name="uni2009" unicode="&#x2009;" horiz-adv-x="80" 
 />
    <glyph glyph-name="endash" unicode="&#x2013;" horiz-adv-x="498" 
d="M446 343v-150h-394v150h394z" />
    <glyph glyph-name="emdash" unicode="&#x2014;" horiz-adv-x="948" 
d="M896 343v-150h-844v150h844z" />
    <glyph glyph-name="quoteleft" unicode="&#x2018;" horiz-adv-x="298" 
d="M217 660l46 -59q-58 -40 -77 -77q35 -11 56 -40.5t21 -68.5q0 -49 -32 -81.5t-82 -32.5t-82 35.5t-32 89.5q0 61 50.5 126.5t131.5 107.5z" />
    <glyph glyph-name="quoteright" unicode="&#x2019;" horiz-adv-x="298" 
d="M81 301l-46 59q58 40 77 77q-35 11 -56 40.5t-21 68.5q0 49 32 81.5t82 32.5t82 -35.5t32 -89.5q0 -61 -50.5 -126.5t-131.5 -107.5z" />
    <glyph glyph-name="quotesinglbase" unicode="&#x201a;" horiz-adv-x="298" 
d="M81 -140l-46 59q58 40 77 77q-35 11 -56 40.5t-21 68.5q0 49 32 81.5t82 32.5t82 -35.5t32 -89.5q0 -61 -50.5 -126.5t-131.5 -107.5z" />
    <glyph glyph-name="quotedblleft" unicode="&#x201c;" horiz-adv-x="558" 
d="M477 660l46 -59q-58 -40 -77 -77q35 -11 56 -40.5t21 -68.5q0 -49 -32 -81.5t-82 -32.5t-82 35.5t-32 89.5q0 61 50.5 126.5t131.5 107.5zM217 660l46 -59q-58 -40 -77 -77q35 -11 56 -40.5t21 -68.5q0 -49 -32 -81.5t-82 -32.5t-82 35.5t-32 89.5q0 61 50.5 126.5
t131.5 107.5z" />
    <glyph glyph-name="quotedblright" unicode="&#x201d;" horiz-adv-x="558" 
d="M81 301l-46 59q58 40 77 77q-35 11 -56 40.5t-21 68.5q0 49 32 81.5t82 32.5t82 -35.5t32 -89.5q0 -61 -50.5 -126.5t-131.5 -107.5zM341 301l-46 59q58 40 77 77q-35 11 -56 40.5t-21 68.5q0 49 32 81.5t82 32.5t82 -35.5t32 -89.5q0 -61 -50.5 -126.5t-131.5 -107.5z
" />
    <glyph glyph-name="quotedblbase" unicode="&#x201e;" horiz-adv-x="558" 
d="M81 -140l-46 59q58 40 77 77q-35 11 -56 40.5t-21 68.5q0 49 32 81.5t82 32.5t82 -35.5t32 -89.5q0 -61 -50.5 -126.5t-131.5 -107.5zM341 -140l-46 59q58 40 77 77q-35 11 -56 40.5t-21 68.5q0 49 32 81.5t82 32.5t82 -35.5t32 -89.5q0 -61 -50.5 -126.5t-131.5 -107.5z
" />
    <glyph glyph-name="dagger" unicode="&#x2020;" horiz-adv-x="532" 
d="M334 298l-15 -402h-106l-15 402l-158 13v106l160 13l13 180h106l13 -180l160 -13v-106z" />
    <glyph glyph-name="daggerdbl" unicode="&#x2021;" horiz-adv-x="532" 
d="M337 213l155 -12v-106l-160 -13l-13 -180h-106l-13 180l-160 13v106l155 12v86l-155 12v106l160 13l13 180h106l13 -180l160 -13v-106l-155 -12v-86z" />
    <glyph glyph-name="bullet" unicode="&#x2022;" horiz-adv-x="367" 
d="M35 262q0 64 41.5 106.5t107.5 42.5q65 0 106.5 -42.5t41.5 -106.5q0 -63 -41.5 -105.5t-106.5 -42.5q-66 0 -107.5 42.5t-41.5 105.5z" />
    <glyph glyph-name="ellipsis" unicode="&#x2026;" horiz-adv-x="894" 
d="M149 219q50 0 82 -32.5t32 -81.5t-32 -81.5t-82 -32.5t-82 32.5t-32 81.5t32 81.5t82 32.5zM447 219q50 0 82 -32.5t32 -81.5t-32 -81.5t-82 -32.5t-82 32.5t-32 81.5t32 81.5t82 32.5zM745 219q50 0 82 -32.5t32 -81.5t-32 -81.5t-82 -32.5t-82 32.5t-32 81.5t32 81.5
t82 32.5z" />
    <glyph glyph-name="perthousand" unicode="&#x2030;" horiz-adv-x="1296" 
d="M202 620q90 0 133.5 -47.5t43.5 -145.5q0 -97 -43.5 -143.5t-133.5 -46.5t-133.5 46.5t-43.5 143.5q0 98 43.5 145.5t133.5 47.5zM674 610l-336 -610h-112l336 610h112zM202 355q28 0 36.5 16t8.5 56q0 42 -8.5 58.5t-36.5 16.5t-36.5 -16.5t-8.5 -58.5q0 -40 8.5 -56
t36.5 -16zM696 374q90 0 133.5 -47.5t43.5 -145.5q0 -97 -43.5 -143.5t-133.5 -46.5t-133.5 46.5t-43.5 143.5q0 98 43.5 145.5t133.5 47.5zM1094 374q90 0 133.5 -47.5t43.5 -145.5q0 -97 -43.5 -143.5t-133.5 -46.5t-133.5 46.5t-43.5 143.5q0 98 43.5 145.5t133.5 47.5z
M696 109q28 0 36.5 16t8.5 56q0 42 -8.5 58.5t-36.5 16.5t-36.5 -16.5t-8.5 -58.5q0 -40 8.5 -56t36.5 -16zM1094 109q28 0 36.5 16t8.5 56q0 42 -8.5 58.5t-36.5 16.5t-36.5 -16.5t-8.5 -58.5q0 -40 8.5 -56t36.5 -16z" />
    <glyph glyph-name="guilsinglleft" unicode="&#x2039;" horiz-adv-x="395" 
d="M355 382l-87 -86q-16 -16 -39 -34q28 -22 40 -34l86 -87l-100 -98l-235 220l234 220z" />
    <glyph glyph-name="guilsinglright" unicode="&#x203a;" horiz-adv-x="395" 
d="M140 43l-100 98l86 87q12 12 40 34q-23 18 -39 34l-87 86l101 101l234 -220z" />
    <glyph glyph-name="fraction" unicode="&#x2044;" horiz-adv-x="208" 
d="M328 610l-336 -610h-112l336 610h112z" />
    <glyph glyph-name="Euro" unicode="&#x20ac;" horiz-adv-x="546" 
d="M478 188l63 -125q-56 -39 -108 -55.5t-124 -16.5q-95 0 -163.5 54.5t-86.5 160.5h-49v50h43v20v20h-43v50h49q18 100 85 158.5t165 58.5q102 0 215 -55l-55 -132q-78 26 -129 26q-57 0 -76 -56h160l-20 -50h-148l-1 -20v-20h139l-20 -50h-111q9 -32 28 -43.5t49 -11.5
q59 0 138 37z" />
    <glyph glyph-name="uni2116" unicode="&#x2116;" horiz-adv-x="1156" 
d="M640 0h-190l-200 275v-275h-210v610h190l200 -271v271h210v-610zM911 580q93 0 144 -50t51 -141q0 -90 -51 -139t-144 -49t-144 49t-51 139q0 91 51 141t144 50zM911 326q41 0 41 63q0 64 -41 64t-41 -64q0 -63 41 -63zM1087 0h-352v151h352v-151z" />
    <glyph glyph-name="trademark" unicode="&#x2122;" horiz-adv-x="795" 
d="M316 505h-92v-201h-120v201h-94v105h306v-105zM635 432l-49 -128h-85l-49 128l-3 -128h-116l13 306h131l58 -141l5 -15.5t4 -11.5q1 2 3.5 11.5t4.5 15.5l58 141h130l15 -306h-118z" />
    <glyph glyph-name="oneeighth" unicode="&#x215b;" horiz-adv-x="931" 
d="M336 231h-294v109h88v123q-24 -5 -76 -11l-24 88q67 28 125 70h105v-270h76v-109zM684 610l-336 -610h-112l336 610h112zM881 108q1 -56 -43 -87t-122 -30q-98 0 -140 29.5t-42 87.5q0 54 66 89q-50 30 -50 77q0 107 164 107q150 0 150 -100q0 -48 -60 -75
q40 -19 58.5 -41t18.5 -57zM708 301q-33 0 -33 -25q0 -11 9 -17.5t36 -16.5q25 15 25 36q0 23 -37 23zM704 88q16 0 27 7.5t11 18.5t-11.5 18.5t-49.5 24.5q-23 -16 -23 -39q0 -30 46 -30z" />
    <glyph glyph-name="threeeighths" unicode="&#x215c;" horiz-adv-x="915" 
d="M50 498l-26 85q94 37 164 37q62 0 102.5 -30t40.5 -78q0 -62 -50 -83q59 -27 59 -78q0 -58 -41.5 -89.5t-114.5 -31.5q-96 0 -174 43l35 87q71 -31 133 -31q39 0 39 24q0 25 -69 25h-50v95h50q38 0 51 3.5t13 16.5q0 27 -42 27q-38 0 -120 -22zM668 610l-336 -610h-112
l336 610h112zM865 108q1 -56 -43 -87t-122 -30q-98 0 -140 29.5t-42 87.5q0 54 66 89q-50 30 -50 77q0 107 164 107q150 0 150 -100q0 -48 -60 -75q40 -19 58.5 -41t18.5 -57zM692 301q-33 0 -33 -25q0 -11 9 -17.5t36 -16.5q25 15 25 36q0 23 -37 23zM688 88q16 0 27 7.5
t11 18.5t-11.5 18.5t-49.5 24.5q-23 -16 -23 -39q0 -30 46 -30z" />
    <glyph glyph-name="fiveeighths" unicode="&#x215d;" horiz-adv-x="948" 
d="M173 503l-4 -45q39 23 81 23q56 0 87 -31.5t31 -87.5q0 -65 -45 -100.5t-112 -35.5q-102 0 -181 43l35 93q75 -31 127 -31q20 0 35.5 10.5t15.5 27.5q0 13 -9.5 21.5t-26.5 8.5q-23 0 -45 -25l-105 15l12 221h282v-107h-178zM691 610l-336 -610h-112l336 610h112z
M898 108q1 -56 -43 -87t-122 -30q-98 0 -140 29.5t-42 87.5q0 54 66 89q-50 30 -50 77q0 107 164 107q150 0 150 -100q0 -48 -60 -75q40 -19 58.5 -41t18.5 -57zM725 301q-33 0 -33 -25q0 -11 9 -17.5t36 -16.5q25 15 25 36q0 23 -37 23zM721 88q16 0 27 7.5t11 18.5
t-11.5 18.5t-49.5 24.5q-23 -16 -23 -39q0 -30 46 -30z" />
    <glyph glyph-name="seveneighths" unicode="&#x215e;" horiz-adv-x="857" 
d="M332 610v-97q-78 -125 -122 -282h-152q62 164 134 270h-167v109h307zM600 610l-336 -610h-112l336 610h112zM807 108q1 -56 -43 -87t-122 -30q-98 0 -140 29.5t-42 87.5q0 54 66 89q-50 30 -50 77q0 107 164 107q150 0 150 -100q0 -48 -60 -75q40 -19 58.5 -41t18.5 -57z
M634 301q-33 0 -33 -25q0 -11 9 -17.5t36 -16.5q25 15 25 36q0 23 -37 23zM630 88q16 0 27 7.5t11 18.5t-11.5 18.5t-49.5 24.5q-23 -16 -23 -39q0 -30 46 -30z" />
    <glyph glyph-name="arrowleft" unicode="&#x2190;" horiz-adv-x="638" 
d="M331 212l97 -97l-119 -119l-289 300l289 302l119 -119l-98 -98h293v-169h-292z" />
    <glyph glyph-name="arrowup" unicode="&#x2191;" horiz-adv-x="665" 
d="M418 315v-315h-170v316l-110 -105l-118 119l313 289l312 -289l-118 -119z" />
    <glyph glyph-name="arrowright" unicode="&#x2192;" horiz-adv-x="638" 
d="M329 -4l-119 119l97 97h-292v169h293l-98 98l119 119l289 -302z" />
    <glyph glyph-name="arrowdown" unicode="&#x2193;" horiz-adv-x="665" 
d="M333 -9l-313 289l118 119l110 -105v316h170v-315l109 104l118 -119z" />
    <glyph glyph-name="arrowupleft" unicode="&#x2196;" horiz-adv-x="669" 
d="M205 325l3 -161h-168v446h445v-167l-161 3l325 -326l-120 -119z" />
    <glyph glyph-name="arrowupright" unicode="&#x2197;" horiz-adv-x="669" 
d="M629 164h-168l3 161l-324 -324l-120 119l325 326l-161 -3v167h445v-446z" />
    <glyph glyph-name="arrowdownright" unicode="&#x2198;" horiz-adv-x="669" 
d="M629 0h-445v167l161 -3l-325 326l120 119l324 -324l-3 161h168v-446z" />
    <glyph glyph-name="arrowdownleft" unicode="&#x2199;" horiz-adv-x="669" 
d="M485 167v-167h-445v446h168l-3 -161l324 324l120 -119l-325 -326z" />
    <glyph glyph-name="minus" unicode="&#x2212;" horiz-adv-x="513" 
d="M50 173v145h413v-145h-413z" />
    <glyph glyph-name="J.ss01" horiz-adv-x="325" 
d="M285 610v-450q0 -112 -43 -174t-148 -110l-84 134q27 20 38 30.5t19 30.5t8 49v490h210z" />
    <glyph glyph-name="K.ss02" horiz-adv-x="660" 
d="M250 189v-189h-210v610h210v-203h39l120 203h228v-14l-160 -289l169 -292v-15h-247l-104 189h-45z" />
    <glyph glyph-name="Kcommaaccent.ss02" horiz-adv-x="660" 
d="M250 189v-189h-210v610h210v-203h39l120 203h228v-14l-160 -289l169 -292v-15h-247l-104 189h-45zM273 -250l-16 50q30 11 41 21q-23 7 -36.5 27t-13.5 45q0 33 21.5 55t55.5 22t55.5 -24t21.5 -60q0 -51 -35.5 -88.5t-93.5 -47.5z" />
    <glyph glyph-name="Q.ss03" horiz-adv-x="672" 
d="M638 -2l-147 -115q-47 54 -89 112q-28 -4 -66 -4q-149 0 -230 81t-81 231q0 152 81 234.5t230 82.5t230 -82.5t81 -234.5q0 -150 -81 -231q21 -23 72 -74zM238 303q0 -124 98 -124t98 124q0 129 -98 129t-98 -129z" />
    <glyph glyph-name="R.ss04" horiz-adv-x="640" 
d="M40 610h265q138 0 212.5 -60t74.5 -170q0 -121 -94 -159q30 -16 51 -41.5t33 -61.5t17 -58.5t11 -59.5h-240q-12 70 -31 107.5t-58 37.5h-31v-145h-210v610zM250 305h55q38 0 59 18t21 52q0 30 -20.5 46.5t-57.5 16.5h-57v-133z" />
    <glyph glyph-name="Racute.ss04" horiz-adv-x="640" 
d="M447 764v-40q-91 -56 -215 -90l-49 52l116 157zM40 610h265q138 0 212.5 -60t74.5 -170q0 -121 -94 -159q30 -16 51 -41.5t33 -61.5t17 -58.5t11 -59.5h-240q-12 70 -31 107.5t-58 37.5h-31v-145h-210v610zM250 305h55q38 0 59 18t21 52q0 30 -20.5 46.5t-57.5 16.5h-57
v-133z" />
    <glyph glyph-name="Rcaron.ss04" horiz-adv-x="640" 
d="M249 640l-136 144l49 52l143 -75l143 75l49 -52l-136 -144h-112zM40 610h265q138 0 212.5 -60t74.5 -170q0 -121 -94 -159q30 -16 51 -41.5t33 -61.5t17 -58.5t11 -59.5h-240q-12 70 -31 107.5t-58 37.5h-31v-145h-210v610zM250 305h55q38 0 59 18t21 52q0 30 -20.5 46.5
t-57.5 16.5h-57v-133z" />
    <glyph glyph-name="Rcommaaccent.ss04" horiz-adv-x="640" 
d="M250 0h-210v610h265q138 0 212.5 -60t74.5 -170q0 -121 -94 -159q30 -16 51 -41.5t33 -61.5t17 -58.5t11 -59.5h-240q-12 70 -31 107.5t-58 37.5h-31v-145zM250 305h55q38 0 59 18t21 52q0 30 -20.5 46.5t-57.5 16.5h-57v-133zM253 -250l-16 50q30 11 41 21
q-23 7 -36.5 27t-13.5 45q0 33 21.5 55t55.5 22t55.5 -24t21.5 -60q0 -51 -35.5 -88.5t-93.5 -47.5z" />
    <glyph glyph-name="k.ss02" horiz-adv-x="580" 
d="M237 159v-159h-202v640h202v-293h34l77 143h214v-14l-132 -219l141 -241v-16h-223l-84 159h-27z" />
    <glyph glyph-name="kcommaaccent.ss02" horiz-adv-x="580" 
d="M237 159v-159h-202v640h202v-293h34l77 143h214v-14l-132 -219l141 -241v-16h-223l-84 159h-27zM228 -250l-16 50q30 11 41 21q-23 7 -36.5 27t-13.5 45q0 33 21.5 55t55.5 22t55.5 -24t21.5 -60q0 -51 -35.5 -88.5t-93.5 -47.5z" />
    <glyph glyph-name="a.ss05" horiz-adv-x="579" 
d="M544 0h-202v56q-30 -36 -56.5 -50.5t-77.5 -14.5q-82 0 -135 65t-53 195q0 126 46.5 187t131.5 61q44 0 77 -11.5t67 -44.5v47h202v-490zM342 193v97q-30 39 -67 39q-55 0 -55 -78q0 -92 57 -92q43 0 65 34z" />
    <glyph glyph-name="aacute.ss05" horiz-adv-x="579" 
d="M465 659v-40q-93 -62 -215 -100l-49 52l136 177zM544 0h-202v56q-30 -36 -56.5 -50.5t-77.5 -14.5q-82 0 -135 65t-53 195q0 126 46.5 187t131.5 61q44 0 77 -11.5t67 -44.5v47h202v-490zM342 193v97q-30 39 -67 39q-55 0 -55 -78q0 -92 57 -92q43 0 65 34z" />
    <glyph glyph-name="abreve.ss05" horiz-adv-x="579" 
d="M370 699h113q0 -152 -163 -152t-163 152h113q0 -19 13.5 -31t36.5 -12t36.5 12t13.5 31zM544 0h-202v56q-30 -36 -56.5 -50.5t-77.5 -14.5q-82 0 -135 65t-53 195q0 126 46.5 187t131.5 61q44 0 77 -11.5t67 -44.5v47h202v-490zM342 193v97q-30 39 -67 39q-55 0 -55 -78
q0 -92 57 -92q43 0 65 34z" />
    <glyph glyph-name="acircumflex.ss05" horiz-adv-x="579" 
d="M451 524l-136 70l-136 -70l-47 50l130 146h106l130 -146zM544 0h-202v56q-30 -36 -56.5 -50.5t-77.5 -14.5q-82 0 -135 65t-53 195q0 126 46.5 187t131.5 61q44 0 77 -11.5t67 -44.5v47h202v-490zM342 193v97q-30 39 -67 39q-55 0 -55 -78q0 -92 57 -92q43 0 65 34z" />
    <glyph glyph-name="adieresis.ss05" horiz-adv-x="579" 
d="M200 716q41 0 68 -24t27 -67q0 -42 -27 -66t-68 -24q-38 0 -66.5 24.5t-28.5 65.5q0 42 28.5 66.5t66.5 24.5zM420 716q38 0 66.5 -24.5t28.5 -66.5q0 -41 -28.5 -65.5t-66.5 -24.5q-41 0 -68 24t-27 66q0 43 27 67t68 24zM544 0h-202v56q-30 -36 -56.5 -50.5
t-77.5 -14.5q-82 0 -135 65t-53 195q0 126 46.5 187t131.5 61q44 0 77 -11.5t67 -44.5v47h202v-490zM342 193v97q-30 39 -67 39q-55 0 -55 -78q0 -92 57 -92q43 0 65 34z" />
    <glyph glyph-name="agrave.ss05" horiz-adv-x="579" 
d="M434 571l-49 -52q-122 38 -215 100v40l128 89zM544 0h-202v56q-30 -36 -56.5 -50.5t-77.5 -14.5q-82 0 -135 65t-53 195q0 126 46.5 187t131.5 61q44 0 77 -11.5t67 -44.5v47h202v-490zM342 193v97q-30 39 -67 39q-55 0 -55 -78q0 -92 57 -92q43 0 65 34z" />
    <glyph glyph-name="amacron.ss05" horiz-adv-x="579" 
d="M482 554h-344v144h344v-144zM544 0h-202v56q-30 -36 -56.5 -50.5t-77.5 -14.5q-82 0 -135 65t-53 195q0 126 46.5 187t131.5 61q44 0 77 -11.5t67 -44.5v47h202v-490zM342 193v97q-30 39 -67 39q-55 0 -55 -78q0 -92 57 -92q43 0 65 34z" />
    <glyph glyph-name="aogonek.ss05" horiz-adv-x="579" 
d="M528 -61l20 -97q-79 -32 -165 -32q-58 0 -93 25.5t-35 67.5q0 37 23 67t64 47v39q-30 -36 -56.5 -50.5t-77.5 -14.5q-82 0 -135 65t-53 195q0 126 46.5 187t131.5 61q44 0 77 -11.5t67 -44.5v47h202v-490h-74q-87 0 -87 -41q0 -14 16 -22.5t42 -8.5q15 0 87 11zM342 193
v97q-30 39 -67 39q-55 0 -55 -78q0 -92 57 -92q43 0 65 34z" />
    <glyph glyph-name="aring.ss05" horiz-adv-x="579" 
d="M310 761q52 0 84.5 -31.5t32.5 -82.5q0 -49 -32.5 -80t-84.5 -31t-84.5 31t-32.5 80q0 51 32.5 82.5t84.5 31.5zM310 616q16 0 25.5 8.5t9.5 22.5q0 34 -35 34q-15 0 -25 -9t-10 -25q0 -14 10 -22.5t25 -8.5zM544 0h-202v56q-30 -36 -56.5 -50.5t-77.5 -14.5
q-82 0 -135 65t-53 195q0 126 46.5 187t131.5 61q44 0 77 -11.5t67 -44.5v47h202v-490zM342 193v97q-30 39 -67 39q-55 0 -55 -78q0 -92 57 -92q43 0 65 34z" />
    <glyph glyph-name="atilde.ss05" horiz-adv-x="579" 
d="M427 703h72q0 -55 -20 -91.5t-50 -48.5t-61 -12t-58 12l-55 26q-20 9 -30.5 4.5t-31.5 -31.5h-66q0 55 18.5 90.5t47.5 47.5t59 12t57 -12l54 -26q23 -8 32 -3t32 32zM544 0h-202v56q-30 -36 -56.5 -50.5t-77.5 -14.5q-82 0 -135 65t-53 195q0 126 46.5 187t131.5 61
q44 0 77 -11.5t67 -44.5v47h202v-490zM342 193v97q-30 39 -67 39q-55 0 -55 -78q0 -92 57 -92q43 0 65 34z" />
    <glyph glyph-name="g.ss06" horiz-adv-x="598" 
d="M580 389h-37q-19 0 -35 -2q8 -27 8 -59q0 -98 -57.5 -140t-174.5 -42q-74 0 -120 14q-8 -11 -8 -19q0 -16 9.5 -19.5t43.5 -3.5h169q108 0 146 -32t38 -120q0 -100 -66 -142.5t-224 -42.5q-267 0 -267 115q0 35 15 54.5t48 27.5q-47 30 -47 103q0 43 15.5 68.5t66.5 41.5
q-51 43 -51 137q0 92 56 132t176 40q94 0 149 -26q50 36 100 36q41 0 60 -11zM284 277q37 0 37 51t-37 51t-37 -51t37 -51zM378 -52h-149q-24 0 -60 2q-3 -4 -3 -15q0 -34 106 -34q70 0 95 8t25 26q0 13 -14 13z" />
    <glyph glyph-name="gbreve.ss06" horiz-adv-x="598" 
d="M358 699h113q0 -152 -163 -152t-163 152h113q0 -19 13.5 -31t36.5 -12t36.5 12t13.5 31zM580 389h-37q-19 0 -35 -2q8 -27 8 -59q0 -98 -57.5 -140t-174.5 -42q-74 0 -120 14q-8 -11 -8 -19q0 -16 9.5 -19.5t43.5 -3.5h169q108 0 146 -32t38 -120q0 -100 -66 -142.5
t-224 -42.5q-267 0 -267 115q0 35 15 54.5t48 27.5q-47 30 -47 103q0 43 15.5 68.5t66.5 41.5q-51 43 -51 137q0 92 56 132t176 40q94 0 149 -26q50 36 100 36q41 0 60 -11zM284 277q37 0 37 51t-37 51t-37 -51t37 -51zM378 -52h-149q-24 0 -60 2q-3 -4 -3 -15
q0 -34 106 -34q70 0 95 8t25 26q0 13 -14 13z" />
    <glyph glyph-name="gcommaaccent.ss06" horiz-adv-x="598" 
d="M350 791l21 -55q-31 -10 -46 -24q26 -10 41 -32.5t15 -50.5q0 -37 -25.5 -63t-63.5 -26q-39 0 -64 28t-25 69q0 55 34 91t113 63zM580 389h-37q-19 0 -35 -2q8 -27 8 -59q0 -98 -57.5 -140t-174.5 -42q-74 0 -120 14q-8 -11 -8 -19q0 -16 9.5 -19.5t43.5 -3.5h169
q108 0 146 -32t38 -120q0 -100 -66 -142.5t-224 -42.5q-267 0 -267 115q0 35 15 54.5t48 27.5q-47 30 -47 103q0 43 15.5 68.5t66.5 41.5q-51 43 -51 137q0 92 56 132t176 40q94 0 149 -26q50 36 100 36q41 0 60 -11zM284 277q37 0 37 51t-37 51t-37 -51t37 -51zM378 -52
h-149q-24 0 -60 2q-3 -4 -3 -15q0 -34 106 -34q70 0 95 8t25 26q0 13 -14 13z" />
    <glyph glyph-name="gdotaccent.ss06" horiz-adv-x="598" 
d="M298 731q41 0 73 -27.5t32 -73.5q0 -45 -32 -72.5t-73 -27.5q-45 0 -75 27t-30 73q0 47 30 74t75 27zM580 389h-37q-19 0 -35 -2q8 -27 8 -59q0 -98 -57.5 -140t-174.5 -42q-74 0 -120 14q-8 -11 -8 -19q0 -16 9.5 -19.5t43.5 -3.5h169q108 0 146 -32t38 -120
q0 -100 -66 -142.5t-224 -42.5q-267 0 -267 115q0 35 15 54.5t48 27.5q-47 30 -47 103q0 43 15.5 68.5t66.5 41.5q-51 43 -51 137q0 92 56 132t176 40q94 0 149 -26q50 36 100 36q41 0 60 -11zM284 277q37 0 37 51t-37 51t-37 -51t37 -51zM378 -52h-149q-24 0 -60 2
q-3 -4 -3 -15q0 -34 106 -34q70 0 95 8t25 26q0 13 -14 13z" />
    <glyph glyph-name="y.ss07" horiz-adv-x="594" 
d="M559 491v-399q0 -146 -64 -211t-201 -65q-121 0 -217 35l26 130q84 -14 161 -14q46 0 68 24.5t25 84.5q-26 -32 -57.5 -43.5t-86.5 -11.5q-86 0 -132 61.5t-46 178.5v230h202v-230q0 -46 12 -64t43 -18q43 0 65 34v278h202z" />
    <glyph glyph-name="yacute.ss07" horiz-adv-x="594" 
d="M454 659v-40q-93 -62 -215 -100l-49 52l136 177zM559 491v-399q0 -146 -64 -211t-201 -65q-121 0 -217 35l26 130q84 -14 161 -14q46 0 68 24.5t25 84.5q-26 -32 -57.5 -43.5t-86.5 -11.5q-86 0 -132 61.5t-46 178.5v230h202v-230q0 -46 12 -64t43 -18q43 0 65 34v278
h202z" />
    <glyph glyph-name="ycircumflex.ss07" horiz-adv-x="594" 
d="M440 524l-136 70l-136 -70l-47 50l130 146h106l130 -146zM559 491v-399q0 -146 -64 -211t-201 -65q-121 0 -217 35l26 130q84 -14 161 -14q46 0 68 24.5t25 84.5q-26 -32 -57.5 -43.5t-86.5 -11.5q-86 0 -132 61.5t-46 178.5v230h202v-230q0 -46 12 -64t43 -18
q43 0 65 34v278h202z" />
    <glyph glyph-name="ydieresis.ss07" horiz-adv-x="594" 
d="M189 535q-38 0 -66.5 24.5t-28.5 65.5q0 42 28.5 66.5t66.5 24.5q41 0 68 -24t27 -67q0 -42 -27 -66t-68 -24zM409 535q-41 0 -68 24t-27 66q0 43 27 67t68 24q38 0 66.5 -24.5t28.5 -66.5q0 -41 -28.5 -65.5t-66.5 -24.5zM559 491v-399q0 -146 -64 -211t-201 -65
q-121 0 -217 35l26 130q84 -14 161 -14q46 0 68 24.5t25 84.5q-26 -32 -57.5 -43.5t-86.5 -11.5q-86 0 -132 61.5t-46 178.5v230h202v-230q0 -46 12 -64t43 -18q43 0 65 34v278h202z" />
    <glyph glyph-name="ygrave.ss07" horiz-adv-x="594" 
d="M423 571l-49 -52q-122 38 -215 100v40l128 89zM559 491v-399q0 -146 -64 -211t-201 -65q-121 0 -217 35l26 130q84 -14 161 -14q46 0 68 24.5t25 84.5q-26 -32 -57.5 -43.5t-86.5 -11.5q-86 0 -132 61.5t-46 178.5v230h202v-230q0 -46 12 -64t43 -18q43 0 65 34v278h202z
" />
    <glyph glyph-name="uni00660062" horiz-adv-x="973" 
d="M631 680v-246q66 65 144 65q91 0 134.5 -60t43.5 -188q0 -130 -53 -195t-135 -65q-51 0 -77.5 14.5t-56.5 50.5v-56h-202v539h-105q-52 0 -52 -44v-5h109v-168h-109v-322h-202v322h-65v168h65v5q0 103 52 149.5t162 46.5q49 0 145 -24v13h202zM631 290v-97q22 -34 65 -34
q57 0 57 92q0 78 -55 78q-37 0 -67 -39z" />
    <glyph glyph-name="uni006600660062" horiz-adv-x="1322" 
d="M980 680v-246q66 65 144 65q91 0 134.5 -60t43.5 -188q0 -130 -53 -195t-135 -65q-51 0 -77.5 14.5t-56.5 50.5v-56h-202v539h-105q-52 0 -52 -45v-4h109v-168h-109v-322h-202v322h-147v-322h-202v322h-65v168h65v5q0 103 52 149.5t162 46.5q49 0 112 -13l-14 -139h-58
q-52 0 -52 -46v-3h147v5q0 103 52 149.5t162 46.5q49 0 145 -24v13h202zM980 290v-97q22 -34 65 -34q57 0 57 92q0 78 -55 78q-37 0 -67 -39z" />
    <glyph glyph-name="uni006600660066" horiz-adv-x="1164" 
d="M1150 539h-58q-52 0 -52 -46v-3h109v-168h-109v-322h-202v322h-182v-322h-202v322h-182v-322h-202v322h-65v168h65v5q0 103 52 149.5t162 46.5q49 0 112 -13l-14 -139h-58q-52 0 -52 -46v-3h182v5q0 103 52 149.5t162 46.5q49 0 112 -13l-14 -139h-58q-52 0 -52 -46v-3
h182v5q0 103 52 149.5t162 46.5q49 0 112 -13z" />
    <glyph glyph-name="uni006600660068" horiz-adv-x="1321" 
d="M985 680v-256q92 75 164 75q75 0 107 -42.5t32 -142.5v-314h-202v254q0 32 -7 42.5t-28 10.5q-31 0 -66 -35v-272h-202v539h-105q-52 0 -52 -46v-3h109v-168h-109v-322h-202v322h-152v-322h-202v322h-65v168h65v5q0 103 52 149.5t162 46.5q49 0 112 -13l-14 -139h-58
q-52 0 -52 -46v-3h152v4q0 104 51.5 150.5t162.5 46.5q49 0 145 -24v13h202z" />
    <glyph glyph-name="uni00660066006A" horiz-adv-x="1035" 
d="M887 530q-48 0 -81 27t-33 76t33 76t81 27t81 -27t33 -76t-33 -76t-81 -27zM626 490h359v-413q0 -107 -51.5 -169t-180.5 -89l-39 137q42 23 55.5 48.5t13.5 72.5v245h-157v-322h-202v322h-152v-322h-202v322h-65v168h65v5q0 103 52 149.5t162 46.5q49 0 112 -13
l-14 -139h-58q-52 0 -52 -46v-3h152v7q0 102 52 148t162 46q34 0 97 -13l-14 -139h-43q-52 0 -52 -43v-6z" />
    <glyph glyph-name="uni00660066006B" horiz-adv-x="1338" 
d="M1328 490l-181 -215q115 -134 191 -275h-228q-40 70 -89 127l-36 -43v-84h-202v539h-105q-52 0 -52 -40v-9h109v-168h-109v-322h-202v322h-152v-322h-202v322h-65v168h65v5q0 103 52 149.5t162 46.5q49 0 112 -13l-14 -139h-58q-52 0 -52 -46v-3h152v7q0 102 52 148
t162 46q49 0 145 -24v13h202v-325l111 135h232z" />
    <glyph glyph-name="uni006600660074" horiz-adv-x="1162" 
d="M1132 153l20 -122q-24 -17 -70 -28.5t-90 -11.5q-92 0 -133 46.5t-41 154.5v130h-162v-322h-202v322h-182v-322h-202v322h-65v168h65v5q0 103 52 149.5t162 46.5q49 0 112 -13l-14 -139h-58q-52 0 -52 -46v-3h182v5q0 103 52 149.5t162 46.5q49 0 112 -13l-14 -139h-58
q-52 0 -52 -46v-3h162v100h202v-100h109v-168h-109v-120q0 -24 11 -36.5t41 -12.5h60z" />
    <glyph glyph-name="uni00660068" horiz-adv-x="967" 
d="M631 680v-256q92 75 164 75q75 0 107 -42.5t32 -142.5v-314h-202v254q0 32 -7 42.5t-28 10.5q-31 0 -66 -35v-272h-202v539h-105q-52 0 -52 -44v-5h109v-168h-109v-322h-202v322h-65v168h65v7q0 102 52 148t162 46q49 0 145 -24v13h202z" />
    <glyph glyph-name="uni0066006A" horiz-adv-x="682" 
d="M534 530q-48 0 -81 27t-33 76t33 76t81 27t81 -27t33 -76t-33 -76t-81 -27zM631 490v-413q0 -107 -51.5 -169t-180.5 -89l-39 137q42 23 55.5 48.5t13.5 72.5v245h-157v-322h-202v322h-65v168h65v5q0 103 52 149.5t162 46.5q44 0 112 -16l-16 -136h-56q-52 0 -52 -45v-4
h359z" />
    <glyph glyph-name="uni0066006B" horiz-adv-x="984" 
d="M984 0h-228q-40 70 -89 127l-36 -43v-84h-202v539h-105q-52 0 -52 -45v-4h109v-168h-109v-322h-202v322h-65v168h65v9q0 100 52 146t162 46q49 0 145 -24v13h202v-325l111 135h232l-181 -215q115 -134 191 -275z" />
    <glyph glyph-name="uni00660074" horiz-adv-x="778" 
d="M748 153l20 -122q-24 -17 -70 -28.5t-90 -11.5q-92 0 -133 46.5t-41 154.5v130h-162v-322h-202v322h-65v168h65v5q0 103 52 149.5t162 46.5q49 0 112 -13l-14 -139h-58q-52 0 -52 -46v-3h162v100h202v-100h109v-168h-109v-120q0 -24 11 -36.5t41 -12.5h60z" />
    <glyph glyph-name="uni00720066" horiz-adv-x="851" 
d="M831 539h-80q-52 0 -52 -45v-4h109v-168h-109v-322h-202v322h-45v168h45v5q0 103 52 149.5t162 46.5q60 0 140 -20zM237 490v-96q28 57 57 81t68 24q33 0 60 -3l-13 -208q-24 2 -57 2q-49 0 -76 -15t-39 -60v-215h-202v490h202z" />
    <glyph glyph-name="uni00720074" horiz-adv-x="841" 
d="M811 153l20 -122q-24 -17 -70 -28.5t-90 -11.5q-92 0 -133 46.5t-41 154.5v130h-45v168h45v100h202v-100h109v-168h-109v-120q0 -24 11 -36.5t41 -12.5h60zM237 490v-96q28 57 57 81t68 24q33 0 60 -3l-13 -208q-24 2 -57 2q-49 0 -76 -15t-39 -60v-215h-202v490h202z
" />
    <glyph glyph-name="zero.osf" horiz-adv-x="612" 
d="M306 540q138 0 209.5 -75t71.5 -202q0 -124 -71.5 -198t-209.5 -74t-209.5 74t-71.5 198q0 127 71.5 202t209.5 75zM306 179q68 0 68 84q0 42 -14.5 65.5t-53.5 23.5t-53.5 -23.5t-14.5 -65.5q0 -84 68 -84z" />
    <glyph glyph-name="one.osf" horiz-adv-x="519" 
d="M499 0h-474v175h142v119q-61 -12 -122 -18l-40 141q108 43 202 113h170v-355h122v-175z" />
    <glyph glyph-name="two.osf" horiz-adv-x="549" 
d="M519 0h-494v147q186 89 226 116q50 33 50 58q0 22 -15 33.5t-37 11.5q-58 0 -189 -51l-55 146q100 43 160.5 61t122.5 18q103 0 166.5 -51.5t63.5 -133.5q0 -70 -46.5 -113.5t-130.5 -69.5q45 3 87 3h91v-175z" />
    <glyph glyph-name="three.osf" horiz-adv-x="572" 
d="M75 342l-42 137q148 61 259 61q100 0 165 -48.5t65 -126.5q0 -47 -22 -82.5t-57 -51.5q48 -22 71 -51.5t23 -73.5q0 -93 -67.5 -144t-184.5 -51q-149 0 -275 68l56 141q119 -50 209 -50q63 0 63 40q0 39 -105 39h-82v152h82q55 0 76 6.5t21 26.5q0 44 -67 44
q-58 0 -188 -36z" />
    <glyph glyph-name="four.osf" horiz-adv-x="633" 
d="M530 0v-90h-200v90h-310l-10 141l320 379h200v-359h83v-161h-83zM330 161v150q-21 -28 -45 -54l-30 -33q-32 -36 -60 -63h135z" />
    <glyph glyph-name="five.osf" horiz-adv-x="582" 
d="M239 348l-7 -74q61 37 131 37q91 0 140 -50t49 -141q0 -104 -72.5 -161.5t-179.5 -57.5q-164 0 -290 68l56 151q119 -50 204 -50q33 0 58 17t25 43q0 22 -16 35.5t-44 13.5q-38 0 -72 -40l-168 24l20 357h453v-172h-287z" />
    <glyph glyph-name="six.osf" horiz-adv-x="592" 
d="M553 576l-49 -145q-96 21 -148 21q-56 -1 -85.5 -27t-38.5 -80q67 46 151 46q85 0 137 -49.5t52 -131.5q0 -100 -67 -159.5t-189 -59.5q-139 0 -215 76t-76 206q0 163 87.5 255t233.5 92q99 0 207 -44zM316 156q28 0 44.5 17.5t16.5 46.5q0 22 -18 35.5t-46 13.5
q-47 0 -81 -30q14 -83 84 -83z" />
    <glyph glyph-name="seven.osf" horiz-adv-x="523" 
d="M508 520v-156q-125 -200 -196 -454h-245q103 268 216 434h-268v176h493z" />
    <glyph glyph-name="eight.osf" horiz-adv-x="579" 
d="M445 338q64 -31 94 -66.5t30 -91.5q0 -90 -71.5 -139.5t-194.5 -49.5q-157 0 -225 47t-68 142q0 87 105 143q-80 49 -80 124q0 85 68.5 129t196.5 44q119 0 180 -42t61 -121q0 -74 -96 -119zM290 490q-24 0 -38.5 -11t-14.5 -29q0 -17 15 -28t58 -28q41 24 41 59
q0 17 -16.5 27t-44.5 10zM283 147q28 0 45 12t17 31q0 16 -19 28.5t-80 40.5q-35 -27 -35 -63q0 -49 72 -49z" />
    <glyph glyph-name="nine.osf" horiz-adv-x="592" 
d="M39 -45l49 145q96 -21 148 -21q53 1 79.5 25t34.5 75q-63 -39 -141 -39q-85 0 -137 49.5t-52 131.5q0 100 67 159.5t189 59.5q138 0 209.5 -75.5t71.5 -206.5q0 -174 -79.5 -260.5t-231.5 -86.5q-99 0 -207 44zM279 262q38 0 73 23q-9 90 -76 90q-28 0 -44.5 -17.5
t-16.5 -46.5q0 -22 18 -35.5t46 -13.5z" />
    <glyph glyph-name="zero.tf" horiz-adv-x="570" 
d="M285 620q140 0 210.5 -81.5t70.5 -235.5q0 -152 -70.5 -232t-210.5 -80t-210.5 80t-70.5 232q0 154 70.5 235.5t210.5 81.5zM285 179q41 0 54.5 28.5t13.5 95.5q0 70 -13.5 99.5t-54.5 29.5t-54.5 -29.5t-13.5 -99.5q0 -67 13.5 -95.5t54.5 -28.5z" />
    <glyph glyph-name="one.tf" horiz-adv-x="570" 
d="M521 0h-474v175h142v199q-61 -12 -122 -18l-40 141q108 43 202 113h170v-435h122v-175z" />
    <glyph glyph-name="two.tf" horiz-adv-x="570" 
d="M531 0h-494v147l52 41l49 38l43 33.5t39 32l31.5 27.5t27 25t18.5 21t12.5 20t3.5 16q0 22 -15 33.5t-37 11.5q-58 0 -189 -51l-55 146q100 43 160.5 61t122.5 18q104 0 167 -59t63 -156q0 -68 -51 -120.5t-155 -115.5q80 6 116 6h91v-175z" />
    <glyph glyph-name="three.tf" horiz-adv-x="570" 
d="M75 422l-42 137q148 61 264 61q100 0 165 -48.5t65 -126.5q0 -48 -22 -83.5t-58 -51.5q49 -22 72 -51t23 -73q0 -93 -67.5 -144t-184.5 -51q-154 0 -280 68l56 141q119 -50 214 -50q63 0 63 40q0 39 -110 39h-82v152h82q59 0 80.5 6.5t21.5 26.5q0 44 -67 44
q-63 0 -193 -36z" />
    <glyph glyph-name="four.tf" horiz-adv-x="570" 
d="M503 94v-94h-200v94h-290l-10 141l300 375h200v-355h64v-161h-64zM303 411l-19 -30l-67 -89l-15.5 -18.5l-15.5 -18.5h117v156z" />
    <glyph glyph-name="five.tf" horiz-adv-x="570" 
d="M241 438l-7 -74q61 37 131 37q91 0 140 -50t49 -141q0 -104 -72.5 -161.5t-179.5 -57.5q-164 0 -290 68l56 151q119 -50 204 -50q33 0 58 17t25 43q0 22 -16 35.5t-44 13.5q-38 0 -72 -40l-168 24l20 357h453v-172h-287z" />
    <glyph glyph-name="six.tf" horiz-adv-x="570" 
d="M540 576l-49 -145q-96 21 -148 21q-56 -1 -85.5 -27t-38.5 -80q67 46 151 46q85 0 137 -49.5t52 -131.5q0 -100 -67 -159.5t-189 -59.5q-139 0 -215 76t-76 206q0 163 87.5 255t233.5 92q99 0 207 -44zM303 156q28 0 44.5 17.5t16.5 46.5q0 22 -18 35.5t-46 13.5
q-46 0 -81 -30q14 -83 84 -83z" />
    <glyph glyph-name="seven.tf" horiz-adv-x="570" 
d="M529 610v-156q-125 -200 -196 -454h-245q103 268 216 434h-268v176h493z" />
    <glyph glyph-name="eight.tf" horiz-adv-x="570" 
d="M440 338q64 -31 94 -66.5t30 -91.5q0 -90 -71.5 -139.5t-194.5 -49.5q-157 0 -225 47t-68 142q0 87 105 143q-80 49 -80 124q0 85 68.5 129t196.5 44q119 0 180 -42t61 -121q0 -74 -96 -119zM285 490q-24 0 -38.5 -11t-14.5 -29q0 -17 15 -28t58 -28q41 24 41 59
q0 17 -16.5 27t-44.5 10zM278 147q28 0 45 12t17 31q0 16 -19 28.5t-80 40.5q-35 -27 -35 -63q0 -49 72 -49z" />
    <glyph glyph-name="nine.tf" horiz-adv-x="570" 
d="M32 35l49 145q96 -21 148 -21q53 1 79.5 25t34.5 75q-63 -39 -141 -39q-85 0 -137 49.5t-52 131.5q0 100 67 159.5t189 59.5q138 0 209.5 -75.5t71.5 -206.5q0 -174 -79.5 -260.5t-231.5 -86.5q-99 0 -207 44zM272 342q38 0 73 23q-9 90 -76 90q-28 0 -44.5 -17.5
t-16.5 -46.5q0 -22 18 -35.5t46 -13.5z" />
    <glyph glyph-name="zero.zero" horiz-adv-x="632" 
d="M316 620q291 0 291 -317q0 -312 -291 -312t-291 312q0 317 291 317zM238 306l118 118q-16 8 -40 8q-47 0 -62.5 -28.5t-15.5 -97.5zM394 318l-127 -127q18 -12 49 -12q48 0 63 28t15 96v15z" />
    <glyph glyph-name="zero.dnom" horiz-adv-x="402" 
d="M201 381q181 0 181 -196q0 -194 -181 -194t-181 194q0 196 181 196zM201 108q30 0 39.5 17.5t9.5 59.5q0 44 -9.5 62t-39.5 18t-39.5 -18t-9.5 -62q0 -42 9.5 -59.5t39.5 -17.5z" />
    <glyph glyph-name="one.dnom" horiz-adv-x="356" 
d="M336 0h-294v109h88v123q-24 -5 -76 -11l-24 88q67 28 125 70h105v-270h76v-109z" />
    <glyph glyph-name="two.dnom" horiz-adv-x="365" 
d="M335 0h-307v91q126 99 147 120q24 24 24 38q0 28 -32 28q-36 0 -117 -32l-35 91q113 49 177 49t103 -37t39 -97q0 -42 -32 -74.5t-96 -71.5q50 4 72 4h57v-109z" />
    <glyph glyph-name="three.dnom" horiz-adv-x="370" 
d="M50 259l-26 85q94 37 164 37q62 0 102.5 -30t40.5 -78q0 -62 -50 -83q59 -27 59 -78q0 -58 -41.5 -89.5t-114.5 -31.5q-96 0 -174 43l35 87q71 -31 133 -31q39 0 39 24q0 25 -69 25h-50v95h50q38 0 51 3.5t13 16.5q0 27 -42 27q-38 0 -120 -22z" />
    <glyph glyph-name="four.dnom" horiz-adv-x="410" 
d="M339 58v-58h-125v58h-193l-6 88l199 233h125v-221h51v-100h-51zM214 158v91q-18 -23 -28 -33l-19 -21q-15 -19 -37 -37h84z" />
    <glyph glyph-name="five.dnom" horiz-adv-x="383" 
d="M163 268l-4 -45q39 23 81 23q56 0 87 -31.5t31 -87.5q0 -65 -45 -100.5t-112 -35.5q-102 0 -181 43l35 93q75 -31 127 -31q20 0 35.5 10.5t15.5 27.5q0 13 -9.5 21.5t-26.5 8.5q-23 0 -45 -25l-105 15l12 221h282v-107h-178z" />
    <glyph glyph-name="six.dnom" horiz-adv-x="380" 
d="M347 354l-30 -90q-62 13 -91 13q-35 0 -53.5 -16t-23.5 -50q40 29 93 29t85.5 -31.5t32.5 -81.5q1 -62 -40.5 -99t-119.5 -37q-86 0 -133 47.5t-47 127.5q0 101 54 158t145 57q62 0 128 -27zM200 94q18 0 28.5 11t10.5 29q0 13 -11.5 21.5t-28.5 8.5q-29 0 -51 -18
q9 -52 52 -52z" />
    <glyph glyph-name="seven.dnom" horiz-adv-x="342" 
d="M322 379v-97q-78 -125 -122 -282h-152q62 164 134 270h-167v109h307z" />
    <glyph glyph-name="eight.dnom" horiz-adv-x="387" 
d="M367 108q1 -56 -43 -87t-122 -30q-98 0 -140 29.5t-42 87.5q0 54 66 89q-50 30 -50 77q0 107 164 107q150 0 150 -100q0 -48 -60 -75q40 -19 58.5 -41t18.5 -57zM194 301q-33 0 -33 -25q0 -11 9 -17.5t36 -16.5q25 15 25 36q0 23 -37 23zM190 88q16 0 27 7.5t11 18.5
t-11.5 18.5t-49.5 24.5q-23 -16 -23 -39q0 -30 46 -30z" />
    <glyph glyph-name="nine.dnom" horiz-adv-x="370" 
d="M28 18l31 90q62 -13 92 -13q33 1 49 15.5t21 46.5q-37 -23 -87 -23q-53 0 -85 30.5t-32 81.5q0 62 41.5 98.5t117.5 36.5q86 0 130 -46.5t44 -127.5q0 -216 -193 -216q-61 0 -129 27zM138 240q0 -14 11 -22.5t29 -8.5q24 0 45 15q-6 55 -47 55q-17 0 -27.5 -11t-10.5 -28
z" />
    <glyph glyph-name="zero.numr" horiz-adv-x="402" 
d="M201 620q181 0 181 -196q0 -194 -181 -194t-181 194q0 196 181 196zM201 347q30 0 39.5 17.5t9.5 59.5q0 44 -9.5 62t-39.5 18t-39.5 -18t-9.5 -62q0 -42 9.5 -59.5t39.5 -17.5z" />
    <glyph glyph-name="one.numr" horiz-adv-x="356" 
d="M336 231h-294v109h88v123q-24 -5 -76 -11l-24 88q67 28 125 70h105v-270h76v-109z" />
    <glyph glyph-name="two.numr" horiz-adv-x="365" 
d="M335 235h-307v91q126 99 147 120q24 24 24 38q0 28 -32 28q-36 0 -117 -32l-35 91q113 49 177 49t103 -37t39 -97q0 -42 -32 -74.5t-96 -71.5q50 4 72 4h57v-109z" />
    <glyph glyph-name="three.numr" horiz-adv-x="370" 
d="M50 498l-26 85q94 37 164 37q62 0 102.5 -30t40.5 -78q0 -62 -50 -83q59 -27 59 -78q0 -58 -41.5 -89.5t-114.5 -31.5q-96 0 -174 43l35 87q71 -31 133 -31q39 0 39 24q0 25 -69 25h-50v95h50q38 0 51 3.5t13 16.5q0 27 -42 27q-38 0 -120 -22z" />
    <glyph glyph-name="four.numr" horiz-adv-x="410" 
d="M339 289v-58h-125v58h-193l-6 88l199 233h125v-221h51v-100h-51zM214 389v91q-18 -23 -28 -33l-19 -21q-15 -19 -37 -37h84z" />
    <glyph glyph-name="five.numr" horiz-adv-x="383" 
d="M163 503l-4 -45q39 23 81 23q56 0 87 -31.5t31 -87.5q0 -65 -45 -100.5t-112 -35.5q-102 0 -181 43l35 93q75 -31 127 -31q20 0 35.5 10.5t15.5 27.5q0 13 -9.5 21.5t-26.5 8.5q-23 0 -45 -25l-105 15l12 221h282v-107h-178z" />
    <glyph glyph-name="six.numr" horiz-adv-x="380" 
d="M347 593l-30 -90q-62 13 -91 13q-35 0 -53.5 -16t-23.5 -50q40 29 93 29t85.5 -31.5t32.5 -81.5q1 -62 -40.5 -99t-119.5 -37q-86 0 -133 47.5t-47 127.5q0 101 54 158t145 57q62 0 128 -27zM200 333q18 0 28.5 10.5t10.5 29.5q0 13 -11.5 21.5t-28.5 8.5q-29 0 -51 -18
q9 -52 52 -52z" />
    <glyph glyph-name="seven.numr" horiz-adv-x="342" 
d="M322 610v-97q-78 -125 -122 -282h-152q62 164 134 270h-167v109h307z" />
    <glyph glyph-name="eight.numr" horiz-adv-x="387" 
d="M367 347q1 -56 -43 -87t-122 -30q-98 0 -140 29.5t-42 87.5q0 54 66 89q-50 30 -50 77q0 107 164 107q150 0 150 -100q0 -48 -60 -75q40 -19 58.5 -41t18.5 -57zM194 540q-33 0 -33 -25q0 -11 9 -17.5t36 -16.5q25 15 25 36q0 23 -37 23zM190 327q16 0 27 7.5t11 18.5
t-11.5 18.5t-49.5 24.5q-23 -16 -23 -39q0 -30 46 -30z" />
    <glyph glyph-name="nine.numr" horiz-adv-x="370" 
d="M28 257l31 90q62 -13 92 -13q33 1 49 15.5t21 46.5q-37 -23 -87 -23q-53 0 -85 30.5t-32 81.5q0 62 41.5 98.5t117.5 36.5q86 0 130 -46.5t44 -127.5q0 -216 -193 -216q-61 0 -129 27zM138 479q0 -14 11 -22.5t29 -8.5q24 0 45 15q-6 55 -47 55q-17 0 -27.5 -11
t-10.5 -28z" />
    <glyph glyph-name="backslash.case" horiz-adv-x="465" 
d="M430 -58h-169l-226 708h173z" />
    <glyph glyph-name="bullet.case" horiz-adv-x="367" 
d="M35 292q0 64 41.5 106.5t107.5 42.5q65 0 106.5 -42.5t41.5 -106.5q0 -63 -41.5 -105.5t-106.5 -42.5q-66 0 -107.5 42.5t-41.5 105.5z" />
    <glyph glyph-name="exclamdown.case" horiz-adv-x="290" 
d="M145 431q-41 0 -67.5 27t-26.5 67t26.5 67t67.5 27t67.5 -27t26.5 -67t-26.5 -67t-67.5 -27zM255 0h-220l30 380h160z" />
    <glyph glyph-name="periodcentered.case" horiz-adv-x="298" 
d="M35 305q0 49 32 81.5t82 32.5t82 -32.5t32 -81.5t-32 -81.5t-82 -32.5t-82 32.5t-32 81.5z" />
    <glyph glyph-name="questiondown.case" horiz-adv-x="558" 
d="M308 432q-41 0 -67.5 27t-26.5 67t26.5 67t67.5 27t67.5 -27t26.5 -67t-26.5 -67t-67.5 -27zM483 216l55 -146q-100 -43 -160.5 -61t-122.5 -18q-102 0 -166 56t-64 139q0 72 53.5 121t151.5 70l-2 33h164l30 -160h-30q-61 0 -95 -5.5t-44.5 -13.5t-10.5 -21
q0 -22 15 -33.5t37 -11.5q58 0 189 51z" />
    <glyph glyph-name="slash.case" horiz-adv-x="473" 
d="M438 650l-234 -732h-169l230 732h173z" />
    <glyph glyph-name="braceleft.case" horiz-adv-x="419" 
d="M311 145v-9q0 -33 18.5 -46.5t84.5 -20.5l-10 -144q-155 0 -220.5 48t-65.5 163v9q0 47 -20 63t-83 24v146q60 7 81.5 26.5t21.5 60.5v9q0 115 65.5 163t220.5 48l10 -144q-66 -7 -84.5 -20.5t-18.5 -46.5v-9q0 -72 -28.5 -108.5t-87.5 -50.5q59 -12 87.5 -48.5
t28.5 -112.5z" />
    <glyph glyph-name="braceright.case" horiz-adv-x="419" 
d="M108 136v9q0 76 28.5 112.5t87.5 48.5q-59 14 -87.5 50.5t-28.5 108.5v9q0 33 -18.5 46.5t-84.5 20.5l10 144q155 0 220.5 -48t65.5 -163v-9q0 -41 21.5 -60.5t81.5 -26.5v-146q-63 -8 -83 -24t-20 -63v-9q0 -115 -65.5 -163t-220.5 -48l-10 144q66 7 84.5 20.5
t18.5 46.5z" />
    <glyph glyph-name="bracketleft.case" horiz-adv-x="409" 
d="M394 503h-128v-407h128v-156h-314v720h314v-157z" />
    <glyph glyph-name="bracketright.case" horiz-adv-x="409" 
d="M329 660v-720h-314v156h128v407h-128v157h314z" />
    <glyph glyph-name="parenleft.case" horiz-adv-x="355" 
d="M214 662l121 -67q-58 -94 -74 -132q-28 -71 -28 -163q0 -62 14 -114.5t28.5 -80t48.5 -82.5q7 -12 11 -18l-121 -67q-88 100 -126 175.5t-38 186.5t38 186.5t126 175.5z" />
    <glyph glyph-name="parenright.case" horiz-adv-x="345" 
d="M10 595l121 67q88 -100 126 -175.5t38 -186.5t-38 -186.5t-126 -175.5l-121 67q58 94 74 132q28 71 28 163q0 62 -14 114.5t-28.5 80t-48.5 82.5q-7 12 -11 18z" />
    <glyph glyph-name="emdash.case" horiz-adv-x="948" 
d="M896 383v-150h-844v150h844z" />
    <glyph glyph-name="endash.case" horiz-adv-x="498" 
d="M446 383v-150h-394v150h394z" />
    <glyph glyph-name="hyphen.case" horiz-adv-x="418" 
d="M366 403v-180h-314v180h314z" />
    <glyph glyph-name="guillemotleft.case" horiz-adv-x="665" 
d="M355 422l-87 -86q-16 -16 -39 -34q28 -22 40 -34l86 -87l-100 -98l-235 220l234 220zM625 422l-87 -86q-16 -16 -39 -34q28 -22 40 -34l86 -87l-100 -98l-235 220l234 220z" />
    <glyph glyph-name="guillemotright.case" horiz-adv-x="665" 
d="M140 83l-100 98l86 87q12 12 40 34q-23 18 -39 34l-87 86l101 101l234 -220zM410 83l-100 98l86 87q12 12 40 34q-23 18 -39 34l-87 86l101 101l234 -220z" />
    <glyph glyph-name="guilsinglleft.case" horiz-adv-x="395" 
d="M355 422l-87 -86q-16 -16 -39 -34q28 -22 40 -34l86 -87l-100 -98l-235 220l234 220z" />
    <glyph glyph-name="guilsinglright.case" horiz-adv-x="395" 
d="M140 83l-100 98l86 87q12 12 40 34q-23 18 -39 34l-87 86l101 101l234 -220z" />
    <glyph glyph-name="florin.tf" horiz-adv-x="570" 
d="M567 512l-55 -125q-88 19 -129 19q-79 0 -103 -114l-1 -6h163l-25 -130h-161l-28 -156h-202l28 156h-51l25 130h49l2 8q28 139 94.5 206t178.5 67q110 0 215 -55z" />
    <glyph glyph-name="cent.tf" horiz-adv-x="570" 
d="M470 188l63 -125q-81 -56 -160 -67v-50h-131v51q-88 18 -142.5 88.5t-54.5 190.5q0 111 53 186t144 95v53h131v-53q63 -11 143 -49l-55 -132q-78 26 -129 26q-85 0 -85 -126q0 -75 21.5 -100t63.5 -25q59 0 138 37z" />
    <glyph glyph-name="dollar.tf" horiz-adv-x="570" 
d="M520 513l-45 -142q-143 43 -196 43q-31 0 -31 -19q0 -10 12.5 -15.5t63.5 -19.5q31 -8 51 -14q83 -23 120.5 -64t37.5 -112q0 -72 -48 -118.5t-137 -56.5v-54h-131v58q-98 17 -190 64l63 147q140 -65 207 -65q38 0 38 19q0 9 -15 15.5t-65 21.5l-46 14q-88 26 -123.5 70
t-35.5 110q0 67 43.5 111t123.5 54v54h131v-58q79 -10 172 -43z" />
    <glyph glyph-name="Euro.tf" horiz-adv-x="570" 
d="M486 188l63 -125q-56 -39 -108 -55.5t-124 -16.5q-95 0 -163.5 54.5t-86.5 160.5h-49v50h43v20v20h-43v50h49q18 100 85 158.5t165 58.5q102 0 215 -55l-55 -132q-78 26 -129 26q-57 0 -76 -56h160l-20 -50h-148l-1 -20v-20h139l-20 -50h-111q9 -32 28 -43.5t49 -11.5
q59 0 138 37z" />
    <glyph glyph-name="sterling.tf" horiz-adv-x="570" 
d="M278 168h236v-168h-493v151l54 11l8 74h-63v80h73q20 128 81.5 189.5t169.5 61.5q117 0 215 -55l-55 -132q-78 26 -129 26q-33 0 -52 -20t-28 -70h139v-80h-149z" />
    <glyph glyph-name="yen.tf" horiz-adv-x="570" 
d="M451 296h92v-50h-115l-18 -40h133v-50h-153v-156h-210v156h-151v50h131l-18 40h-113v50h91l-116 256h214l40 -117q5 -14 12.5 -44t14.5 -46q7 16 14.5 46t12.5 44l40 117h215z" />
    <glyph glyph-name="arrowdown.ss08" horiz-adv-x="619" 
d="M310 568q119 0 204 -85t85 -204q0 -120 -85 -205t-204 -85q-120 0 -205 85t-85 205q0 119 85 204t205 85zM269 266l-53 50l-58 -58l152 -138l151 138l-58 58l-52 -50v151h-82v-151z" />
    <glyph glyph-name="arrowdownleft.ss08" horiz-adv-x="619" 
d="M599 278q0 120 -85 205t-204 86q-120 -1 -205 -86t-85 -205q0 -119 85 -204t205 -85q119 0 204 85t85 204zM187 371h82v-73l109 107l58 -58l-107 -109h72v-80h-214v213z" />
    <glyph glyph-name="arrowdownright.ss08" horiz-adv-x="619" 
d="M599 278q0 120 -85 205t-204 86q-120 -1 -205 -86t-85 -205q0 -119 85 -204t205 -85q119 0 204 85t85 204zM289 238l-107 109l58 58l109 -107v73h82v-213h-214v80h72z" />
    <glyph glyph-name="arrowleft.ss08" horiz-adv-x="619" 
d="M310 569q119 -1 204 -86t85 -205q0 -119 -85 -204t-204 -85q-120 0 -205 85t-85 204q0 120 85 205t205 86zM289 127l58 58l-50 52h151v82h-151l50 53l-58 58l-138 -152z" />
    <glyph glyph-name="arrowright.ss08" horiz-adv-x="619" 
d="M309 569q120 -1 205 -86t85 -205q0 -119 -85 -204t-205 -85q-119 0 -204 85t-85 204q0 120 85 205t204 86zM322 319h-151v-82h151l-50 -52l58 -58l138 151l-138 152l-58 -58z" />
    <glyph glyph-name="arrowup.ss08" horiz-adv-x="619" 
d="M310 568q119 0 204 -85t85 -205q0 -119 -85 -204t-204 -85q-120 0 -205 85t-85 204q0 120 85 205t205 85zM216 241l53 50v-151h82v151l52 -50l58 58l-151 138l-152 -138z" />
    <glyph glyph-name="arrowupleft.ss08" horiz-adv-x="619" 
d="M599 280q0 119 -85 204t-204 85q-120 0 -205 -85t-85 -204q0 -120 85 -205t205 -86q119 1 204 86t85 205zM329 320l107 -109l-58 -58l-109 107v-73h-82v213h214v-80h-72z" />
    <glyph glyph-name="arrowupright.ss08" horiz-adv-x="619" 
d="M599 280q0 119 -85 204t-205 85q-119 0 -204 -85t-85 -204q0 -120 85 -205t204 -86q120 1 205 86t85 205zM432 187h-82v73l-109 -107l-58 58l107 109h-72v80h214v-213z" />
    <glyph glyph-name="arrowdown.ss13" horiz-adv-x="483" 
d="M242 500q91 0 156 -65t65 -156t-65 -156.5t-156 -65.5q-92 0 -157 65.5t-65 156.5t65.5 156t156.5 65zM242 455q-73 0 -125 -52t-52 -124q0 -73 52 -125t125 -52q72 0 124 52t52 125q0 72 -52 124t-124 52zM211 269l-40 39l-46 -45l117 -106l116 106l-46 45l-39 -39v116
h-62v-116z" />
    <glyph glyph-name="arrowdownleft.ss13" horiz-adv-x="483" 
d="M242 500q91 0 156 -65t65 -156t-65 -156.5t-156 -65.5q-92 0 -157 65.5t-65 156.5t65.5 156t156.5 65zM242 455q-73 0 -125 -52t-52 -124q0 -73 52 -125t125 -52q72 0 124 52t52 125q0 72 -52 124t-124 52zM265 248h55v-60h-164v163h63v-57l84 82l44 -44z" />
    <glyph glyph-name="arrowdownright.ss13" horiz-adv-x="483" 
d="M241 500q91 0 156.5 -65t65.5 -156t-65.5 -156.5t-156.5 -65.5t-156 65.5t-65 156.5t65 156t156 65zM241 455q-72 0 -124 -52t-52 -124q0 -73 52 -125t124 -52q73 0 125 52t52 125q0 72 -52 124t-125 52zM264 351h63v-163h-164v60h55l-82 84l44 44l84 -82v57z" />
    <glyph glyph-name="arrowleft.ss13" horiz-adv-x="483" 
d="M242 500q91 0 156 -65t65 -156t-65 -156.5t-156 -65.5q-92 0 -157 65.5t-65 156.5t65.5 156t156.5 65zM242 455q-73 0 -125 -52t-52 -124q0 -73 52 -125t125 -52q72 0 124 52t52 125q0 72 -52 124t-124 52zM232 309l39 40l-45 46l-106 -117l106 -116l45 46l-39 39h116v62
h-116z" />
    <glyph glyph-name="arrowright.ss13" horiz-adv-x="483" 
d="M241 500q91 0 156.5 -65t65.5 -156t-65.5 -156.5t-156.5 -65.5t-156 65.5t-65 156.5t65 156t156 65zM241 455q-72 0 -124 -52t-52 -124q0 -73 52 -125t124 -52q73 0 125 52t52 125q0 72 -52 124t-125 52zM212 208l45 -46l106 116l-106 117l-45 -46l39 -40h-116v-62h116z
" />
    <glyph glyph-name="arrowup.ss13" horiz-adv-x="483" 
d="M242 57q-91 0 -156.5 65t-65.5 156q0 92 65 157t157 65q91 0 156 -65.5t65 -156.5t-65 -156t-156 -65zM242 102q72 0 124 52t52 124q0 73 -52 125t-124 52q-73 0 -125 -52t-52 -125q0 -72 52 -124t125 -52zM312 249l46 45l-116 106l-117 -106l46 -45l40 39v-116h62v116z
" />
    <glyph glyph-name="arrowupleft.ss13" horiz-adv-x="483" 
d="M242 57q-91 0 -156.5 65t-65.5 156q0 92 65 157t157 65q91 0 156 -65.5t65 -156.5t-65 -156t-156 -65zM242 102q72 0 124 52t52 124q0 73 -52 125t-124 52q-73 0 -125 -52t-52 -125q0 -72 52 -124t125 -52zM219 206h-63v163h164v-60h-55l82 -84l-44 -44l-84 82v-57z" />
    <glyph glyph-name="arrowupright.ss13" horiz-adv-x="483" 
d="M241 57q-91 0 -156 65t-65 156t65 156.5t156 65.5t156.5 -65t65.5 -157q0 -91 -65.5 -156t-156.5 -65zM241 102q73 0 125 52t52 124q0 73 -52 125t-125 52q-72 0 -124 -52t-52 -125q0 -72 52 -124t124 -52zM218 309h-55v60h164v-163h-63v57l-84 -82l-44 44z" />
    <glyph glyph-name="at.case" horiz-adv-x="896" 
d="M661 492v-266q0 -45 5.5 -58t18.5 -13q9 0 17 1.5t21 11t22.5 25t17 47.5t8.5 75q0 137 -82.5 218t-225.5 81q-152 0 -245 -93.5t-93 -245.5q0 -145 84 -228.5t224 -83.5q116 0 250 42l25 -67q-52 -26 -127 -42t-148 -16q-177 0 -285 108.5t-108 286.5q0 185 119.5 300
t303.5 115q176 0 284.5 -104.5t108.5 -270.5q-1 -50 -10.5 -91t-23.5 -67t-35 -45t-39 -28.5t-42 -15t-38.5 -6.5t-31.5 -1q-47 0 -78.5 10.5t-50.5 46.5q-40 -35 -69.5 -46t-75.5 -11q-153 0 -153 216q0 116 37 169.5t116 53.5q67 0 124 -56v48h175zM486 227v92
q-25 34 -58 34q-26 0 -36.5 -16t-10.5 -60q0 -46 11 -63t38 -17q38 0 56 30z" />
    <glyph glyph-name="registered.ss04" horiz-adv-x="727" 
d="M364 620q130 0 221.5 -92t91.5 -223t-91 -222.5t-222 -91.5t-222.5 91.5t-91.5 222.5t91.5 223t222.5 92zM364 34q113 0 192 79t79 192t-79.5 192.5t-191.5 79.5q-113 0 -192 -79.5t-79 -192.5t79 -192t192 -79zM210 483h157q86 0 124.5 -32t38.5 -96q0 -79 -54 -110
l64 -116h-138l-45 96h-25v-96h-122v354zM332 319h39q39 0 39 31q0 34 -42 34h-36v-65z" />
    <glyph glyph-name="ampersand.ss09" horiz-adv-x="645" 
d="M635 300v-165q-24 0 -72 2q-23 -74 -82.5 -110t-167.5 -36q-283 0 -283 189q0 48 23.5 82.5t81.5 67.5q-50 51 -50 127q0 78 58.5 120.5t166.5 42.5q86 0 138.5 -42t52.5 -111q0 -50 -29.5 -87t-101.5 -76q-27 -15 -61 -30t-46.5 -21.5t-22 -18t-9.5 -28.5
q0 -15 6.5 -24.5t21.5 -13t24.5 -4t29.5 -0.5q60 0 73 23.5t13 112.5h236zM310 490q-17 0 -30 -11t-13 -29q0 -24 27 -50q54 23 54 53q0 37 -38 37z" />
    <glyph glyph-name="ampersand.ss10" horiz-adv-x="526" 
d="M461 195l60 -142q-86 -42 -165 -54v-58h-151v53q-185 19 -185 157q0 103 105 133q-69 33 -69 106q0 141 149 168v56h151v-57q74 -10 147 -45l-57 -144q-93 29 -162 29q-52 0 -52 -26q0 -13 17 -16t68 -3h59v-142h-105q-31 0 -44 -4.5t-13 -22.5q0 -28 57 -28q52 0 88.5 8
t101.5 32z" />
    <glyph glyph-name="copyright.ss11" horiz-adv-x="471" 
d="M236 227q-82 0 -139 57t-57 139t57 139.5t139 57.5t138.5 -57.5t56.5 -139.5t-56.5 -139t-138.5 -57zM236 260q67 0 114 48t47 115q0 68 -47 116t-114 48t-114.5 -48t-47.5 -116q0 -67 47.5 -115t114.5 -48zM308 395l27 -54q-47 -32 -100 -32q-47 0 -77.5 30t-30.5 82
q0 54 29.5 84.5t78.5 30.5q48 0 93 -24l-24 -58q-36 12 -56 12q-18 0 -25.5 -10t-7.5 -35q0 -23 7.5 -32.5t25.5 -9.5q21 0 60 16z" />
    <glyph glyph-name="registered.ss12" horiz-adv-x="471" 
d="M236 227q-82 0 -139 57t-57 139t57 139.5t139 57.5t138.5 -57.5t56.5 -139.5t-56.5 -139t-138.5 -57zM236 260q67 0 114 48t47 115q0 68 -47 116t-114 48t-114.5 -48t-47.5 -116q0 -67 47.5 -115t114.5 -48zM140 529h93q99 0 99 -76q0 -40 -33 -53q32 -19 39 -77h-89
q-1 4 -1.5 11.5t-1.5 11t-2 9t-2.5 8.5t-4 6t-6 4.5t-7.5 1.5h-11v-52h-73v206zM219 429h16q19 0 19 21q0 20 -21 20h-14v-41z" />
    <glyph glyph-name="caron.alt" 
d="M322 728v-11q-9 -111 -55 -182h-89v193h144z" />
    <glyph glyph-name="acute.case" 
d="M405 764v-40q-91 -56 -215 -90l-49 52l116 157z" />
    <glyph glyph-name="breve.case" 
d="M300 799h113q0 -142 -163 -142t-163 142h113q2 -13 15.5 -23t34.5 -10t34.5 10t15.5 23z" />
    <glyph glyph-name="caron.case" 
d="M306 640h-112l-136 144l49 52l143 -75l143 75l49 -52z" />
    <glyph glyph-name="circumflex.case" 
d="M250 709l-143 -75l-49 52l136 144h112l136 -144l-49 -52z" />
    <glyph glyph-name="dieresis.case" 
d="M140 827q39 0 65 -23t26 -64q0 -40 -26 -63t-65 -23q-35 0 -62.5 23.5t-27.5 62.5q0 40 27 63.5t63 23.5zM360 827q36 0 63 -23.5t27 -63.5q0 -39 -27.5 -62.5t-62.5 -23.5q-39 0 -65 23t-26 63q0 41 26 64t65 23z" />
    <glyph glyph-name="dotaccent.case" 
d="M250 836q40 0 70 -26t30 -70q0 -43 -30 -69t-70 -26q-43 0 -71.5 25.5t-28.5 69.5q0 45 28.5 70.5t71.5 25.5z" />
    <glyph glyph-name="grave.case" 
d="M354 686l-49 -52q-124 34 -215 90v40l148 79z" />
    <glyph glyph-name="hungarumlaut.case" 
d="M266 781v-39q-103 -74 -154 -104l-67 43l90 166zM476 781v-39q-103 -74 -154 -104l-67 43l90 166z" />
    <glyph glyph-name="macron.case" 
d="M417 664h-334v139h334v-139z" />
    <glyph glyph-name="ring.case" 
d="M250 871q52 0 84.5 -31.5t32.5 -82.5q0 -49 -32.5 -80t-84.5 -31t-84.5 31t-32.5 80q0 51 32.5 82.5t84.5 31.5zM250 726q16 0 25.5 8.5t9.5 22.5q0 34 -35 34q-15 0 -25 -9t-10 -25q0 -14 10 -22.5t25 -8.5z" />
    <glyph glyph-name="tilde.case" 
d="M366 803h72q0 -55 -20 -91.5t-50 -48.5t-61 -12t-58 12l-55 26q-20 9 -30.5 4.5t-31.5 -31.5h-66q0 55 18.5 90.5t47.5 47.5t59 12t57 -12l54 -26q23 -8 32 -3t32 32z" />
    </font>
</defs>
</svg>
